*
*
G04 PADS Layout (Build Number 2007.45.1) generated Gerber (RS-274-X) file*
G04 PC Version=2.1*
*
%IN "ibob2_work1.pcb"*%
*
%MOIN*%
*
%FSLAX35Y35*%
*
*
*
*
G04 PC Standard Apertures*
*
*
G04 Thermal Relief Aperture macro.*
%AMTER*
1,1,$1,0,0*
1,0,$1-$2,0,0*
21,0,$3,$4,0,0,45*
21,0,$3,$4,0,0,135*
%
*
*
G04 Annular Aperture macro.*
%AMANN*
1,1,$1,0,0*
1,0,$2,0,0*
%
*
*
G04 Odd Aperture macro.*
%AMODD*
1,1,$1,0,0*
1,0,$1-0.005,0,0*
%
*
*
G04 PC Custom Aperture Macros*
*
*
*
*
*
*
G04 PC Aperture Table*
*
%ADD010C,0.01*%
%ADD014C,0.06*%
%ADD015C,0.09*%
%ADD016C,0.04331*%
%ADD017C,0.05512*%
%ADD018C,0.07*%
%ADD019C,0.288*%
%ADD020C,0.07874*%
%ADD021C,0.06299*%
%ADD022C,0.09843*%
%ADD023C,0.07087*%
%ADD024C,0.11811*%
%ADD025C,0.085*%
%ADD026C,0.19685*%
%ADD027C,0.02165*%
%ADD028C,0.05906*%
%ADD029C,0.02*%
%ADD030C,0.01969*%
%ADD032C,0.03937*%
%ADD040C,0.01181*%
%ADD068C,0.02559*%
%ADD078C,0.00394*%
%ADD115C,0.0748*%
%ADD127C,0.09646*%
%ADD131C,0.09449*%
%ADD132ANN,0.09843X0.05906*%
%ADD133C,0.1378*%
%ADD134C,0.00393*%
%ADD135C,0.00394*%
%ADD154C,0.04921*%
*
*
*
*
G04 PC Copper Outlines (0)*
G04 Layer Name ibob2_work1.pcb - dark (0)*
%LPD*%
*
*
G04 PC Area=Custom_Thermal*
*
G04 PC Custom Flashes*
G04 Layer Name ibob2_work1.pcb - flashes*
%LPD*%
*
*
G04 PC Circuitry*
G04 Layer Name ibob2_work1.pcb - circuitry*
%LPD*%
*
G54D10*
G01X1141994Y829491D02*
X1142448Y829804D01*
X1143130Y830741*
Y824179*
X1146539Y830741D02*
X1145857Y830429D01*
X1145403Y829491*
X1145176Y827929*
Y826991*
X1145403Y825429*
X1145857Y824491*
X1146539Y824179*
X1146994*
X1147676Y824491*
X1148130Y825429*
X1148357Y826991*
Y827929*
X1148130Y829491*
X1147676Y830429*
X1146994Y830741*
X1146539*
G54D14*
X1034332Y987500D03*
X1029332Y997500D03*
X1024332Y987500D03*
X1019332Y997500D03*
X1014332Y987500D03*
X1009332Y997500D03*
X1004332Y987500D03*
X999332Y997500D03*
X994332Y987500D03*
X989332Y997500D03*
X1037932Y1038500D03*
X1027932D03*
X995732D03*
X985732D03*
X108102Y219890D03*
Y169890D03*
X120602D03*
X145602D03*
X158102D03*
X170602D03*
X183102D03*
X208102D03*
X220602D03*
X233102D03*
Y182390D03*
Y194890D03*
Y207390D03*
Y219890D03*
X1283071Y897244D03*
Y887244D03*
X1273071Y897244D03*
Y887244D03*
X1263071Y897244D03*
Y887244D03*
X1253071Y897244D03*
Y887244D03*
X1243071Y897244D03*
Y887244D03*
G54D15*
X1042332Y1010500D03*
X981332D03*
G54D16*
X731500Y112200D03*
X739492D03*
X751500D03*
X759492D03*
X771500D03*
X779492D03*
X791500D03*
X799492D03*
X811500D03*
X819492D03*
X831500D03*
X839492D03*
X851500D03*
X859492D03*
X871500D03*
X879492D03*
X891500D03*
X899492D03*
X911500D03*
X919492D03*
X735476Y119090D03*
X745476D03*
X755476D03*
X765476D03*
X775476D03*
X785476D03*
X795476D03*
X805476D03*
X815476D03*
X825476D03*
X835476D03*
X845476D03*
X855476D03*
X865476D03*
X875476D03*
X885476D03*
X895476D03*
X905476D03*
X915476D03*
X925476D03*
X741500Y125980D03*
X749492D03*
X761500D03*
X769492D03*
X781500D03*
X789492D03*
X801500D03*
X809492D03*
X821500D03*
X829492D03*
X841500D03*
X849492D03*
X861500D03*
X869492D03*
X881500D03*
X889492D03*
X901500D03*
X909492D03*
X921500D03*
X929492D03*
X731500Y140035D03*
X739492D03*
X735476Y146924D03*
X741500Y153814D03*
X749492D03*
X751500Y140035D03*
X759492D03*
X771500D03*
X779492D03*
X791500D03*
X799492D03*
X811500D03*
X819492D03*
X831500D03*
X839492D03*
X851500D03*
X859492D03*
X871500D03*
X879492D03*
X891500D03*
X899492D03*
X911500D03*
X919492D03*
X761500Y153814D03*
X769492D03*
X781500D03*
X789492D03*
X801500D03*
X809492D03*
X821500D03*
X829492D03*
X841500D03*
X849492D03*
X861500D03*
X869492D03*
X881500D03*
X889492D03*
X901500D03*
X909492D03*
X921500D03*
X929492D03*
X745476Y146924D03*
X755476D03*
X765476D03*
X775476D03*
X785476D03*
X795476D03*
X805476D03*
X815476D03*
X825476D03*
X835476D03*
X845476D03*
X855476D03*
X865476D03*
X875476D03*
X885476D03*
X895476D03*
X905476D03*
X915476D03*
X925476D03*
X975791Y124838D03*
X963587D03*
X951382D03*
X975791Y132712D03*
Y140586D03*
Y148460D03*
X963587Y132712D03*
Y140586D03*
Y148460D03*
X951382Y132712D03*
Y140586D03*
Y148460D03*
X715555Y124838D03*
X703350D03*
X691146D03*
X715555Y132712D03*
Y140586D03*
Y148460D03*
X703350Y132712D03*
Y140586D03*
Y148460D03*
X691146Y132712D03*
Y140586D03*
Y148460D03*
X379000Y112200D03*
X386992D03*
X399000D03*
X406992D03*
X419000D03*
X426992D03*
X439000D03*
X446992D03*
X459000D03*
X466992D03*
X479000D03*
X486992D03*
X499000D03*
X506992D03*
X519000D03*
X526992D03*
X539000D03*
X546992D03*
X559000D03*
X566992D03*
X382976Y119090D03*
X392976D03*
X402976D03*
X412976D03*
X422976D03*
X432976D03*
X442976D03*
X452976D03*
X462976D03*
X472976D03*
X482976D03*
X492976D03*
X502976D03*
X512976D03*
X522976D03*
X532976D03*
X542976D03*
X552976D03*
X562976D03*
X572976D03*
X389000Y125980D03*
X396992D03*
X409000D03*
X416992D03*
X429000D03*
X436992D03*
X449000D03*
X456992D03*
X469000D03*
X476992D03*
X489000D03*
X496992D03*
X509000D03*
X516992D03*
X529000D03*
X536992D03*
X549000D03*
X556992D03*
X569000D03*
X576992D03*
X379000Y140035D03*
X386992D03*
X382976Y146924D03*
X389000Y153814D03*
X396992D03*
X399000Y140035D03*
X406992D03*
X419000D03*
X426992D03*
X439000D03*
X446992D03*
X459000D03*
X466992D03*
X479000D03*
X486992D03*
X499000D03*
X506992D03*
X519000D03*
X526992D03*
X539000D03*
X546992D03*
X559000D03*
X566992D03*
X409000Y153814D03*
X416992D03*
X429000D03*
X436992D03*
X449000D03*
X456992D03*
X469000D03*
X476992D03*
X489000D03*
X496992D03*
X509000D03*
X516992D03*
X529000D03*
X536992D03*
X549000D03*
X556992D03*
X569000D03*
X576992D03*
X392976Y146924D03*
X402976D03*
X412976D03*
X422976D03*
X432976D03*
X442976D03*
X452976D03*
X462976D03*
X472976D03*
X482976D03*
X492976D03*
X502976D03*
X512976D03*
X522976D03*
X532976D03*
X542976D03*
X552976D03*
X562976D03*
X572976D03*
X623291Y124838D03*
X611087D03*
X598882D03*
X623291Y132712D03*
Y140586D03*
Y148460D03*
X611087Y132712D03*
Y140586D03*
Y148460D03*
X598882Y132712D03*
Y140586D03*
Y148460D03*
X363055Y124838D03*
X350850D03*
X338646D03*
X363055Y132712D03*
Y140586D03*
Y148460D03*
X350850Y132712D03*
Y140586D03*
Y148460D03*
X338646Y132712D03*
Y140586D03*
Y148460D03*
G54D17*
X1216840Y734157D03*
X1209340Y730063D03*
X1216840Y726283D03*
X1209340Y722189D03*
X1216840Y718409D03*
X1209340Y714315D03*
X1216840Y710535D03*
X1209340Y706441D03*
X1216840Y702661D03*
X1209340Y698567D03*
X1216840Y694787D03*
X1209340Y690693D03*
X1216840Y686913D03*
X1209340Y682819D03*
X1216840Y679039D03*
X1209340Y674945D03*
X1216840Y671165D03*
X1209340Y667071D03*
X1216840Y663291D03*
X1209340Y659197D03*
X1216840Y655417D03*
X1209340Y651323D03*
X1216840Y647543D03*
X1209340Y643449D03*
X1216840Y639669D03*
X1209340Y635575D03*
X1216840Y631795D03*
X1209340Y627701D03*
X1216840Y623921D03*
X1209340Y619827D03*
X1216840Y616047D03*
X1209340Y611953D03*
X1216840Y608173D03*
X1209340Y604079D03*
X1216840Y600299D03*
X1209340Y596205D03*
X1216840Y592425D03*
X1209340Y588331D03*
X1216840Y584551D03*
X1209340Y580457D03*
X1216840Y576677D03*
X1209340Y572583D03*
X1216840Y568803D03*
X1209340Y564709D03*
X1216840Y560929D03*
X1209340Y556835D03*
X1216840Y553055D03*
X1209340Y548961D03*
X1216840Y545181D03*
X1209340Y541087D03*
X1216840Y537307D03*
X1209340Y533213D03*
X1216840Y529433D03*
X1209340Y525339D03*
X1216840Y521559D03*
X1209340Y517465D03*
X1216840Y513685D03*
X1209340Y509591D03*
X1216840Y505811D03*
X1209340Y501717D03*
X1216840Y497937D03*
X1209340Y493843D03*
X1216840Y490063D03*
X1209340Y485969D03*
X1216840Y466283D03*
X1209340Y462346D03*
X1216840Y458409D03*
X1209340Y454472D03*
X1216840Y450535D03*
X1209340Y446598D03*
X1216840Y442661D03*
X1209340Y438724D03*
X1216840Y434787D03*
X1209340Y430850D03*
X1216840Y426913D03*
X1209340Y422976D03*
X1216840Y419039D03*
X1209340Y415102D03*
X1216840Y411165D03*
X1209340Y407228D03*
X1216840Y403291D03*
X1209340Y399354D03*
X1216840Y395417D03*
X1209340Y391480D03*
X1216840Y387543D03*
X1209340Y383606D03*
X1216840Y379669D03*
X1209340Y375732D03*
X1216840Y371795D03*
X1209340Y367858D03*
X1216840Y363921D03*
X1209340Y359984D03*
X1216840Y356047D03*
X1209340Y352110D03*
X1216840Y348173D03*
X1209340Y344236D03*
X1216840Y340299D03*
X1209340Y336362D03*
X1216840Y332425D03*
X1209340Y328488D03*
X1216840Y324551D03*
X1209340Y320614D03*
X1216840Y316677D03*
X1209340Y312740D03*
X1216840Y308803D03*
X1209340Y304866D03*
X1216840Y300929D03*
X1209340Y296992D03*
X1216840Y293055D03*
X1209340Y289118D03*
X1216840Y285181D03*
X1209340Y281244D03*
X1216840Y277307D03*
X1209340Y273370D03*
X1216840Y269433D03*
X1209340Y265496D03*
X1216840Y261559D03*
X1209340Y257622D03*
X1216840Y253685D03*
X1209340Y249748D03*
X1231860Y734000D03*
X1224360Y730063D03*
X1231860Y726126D03*
X1224360Y722189D03*
X1231860Y718252D03*
X1224360Y714315D03*
X1231860Y710378D03*
X1224360Y706441D03*
X1231860Y702504D03*
X1224360Y698567D03*
X1231860Y694630D03*
X1224360Y690693D03*
X1231860Y686756D03*
X1224360Y682819D03*
X1231860Y678882D03*
X1224360Y674945D03*
X1231860Y671008D03*
X1224360Y667071D03*
X1231860Y663134D03*
X1224360Y659197D03*
X1231860Y655260D03*
X1224360Y651323D03*
X1231860Y647386D03*
X1224360Y643449D03*
X1231860Y639512D03*
X1224360Y635575D03*
X1231860Y631638D03*
X1224360Y627701D03*
X1231860Y623764D03*
X1224360Y619827D03*
X1231860Y615890D03*
X1224360Y611953D03*
X1231860Y608016D03*
X1224360Y604079D03*
X1231860Y600142D03*
X1224360Y596205D03*
X1231860Y592268D03*
X1224360Y588331D03*
X1231860Y584394D03*
X1224360Y580457D03*
X1231860Y576520D03*
X1224360Y572583D03*
X1231860Y568646D03*
X1224360Y564709D03*
X1231860Y560772D03*
X1224360Y556835D03*
X1231860Y552898D03*
X1224360Y548961D03*
X1231860Y545024D03*
X1224360Y541087D03*
X1231860Y537150D03*
X1224360Y533213D03*
X1231860Y529276D03*
X1224360Y525339D03*
X1231860Y521402D03*
X1224360Y517465D03*
X1231860Y513528D03*
X1224360Y509591D03*
X1231860Y505654D03*
X1224360Y501717D03*
X1231860Y497780D03*
X1224360Y493843D03*
X1231860Y489906D03*
X1224360Y485969D03*
X1231860Y466283D03*
X1224360Y462346D03*
X1231860Y458409D03*
X1224360Y454472D03*
X1231860Y450535D03*
X1224360Y446598D03*
X1231860Y442661D03*
X1224360Y438724D03*
X1231860Y434787D03*
X1224360Y430850D03*
X1231860Y426913D03*
X1224360Y422976D03*
X1231860Y419039D03*
X1224360Y415102D03*
X1231860Y411165D03*
X1224360Y407228D03*
X1231860Y403291D03*
X1224360Y399354D03*
X1231860Y395417D03*
X1224360Y391480D03*
X1231860Y387543D03*
X1224360Y383606D03*
X1231860Y379669D03*
X1224360Y375732D03*
X1231860Y371795D03*
X1224360Y367858D03*
X1231860Y363921D03*
X1224360Y359984D03*
X1231860Y356047D03*
X1224360Y352110D03*
X1231860Y348173D03*
X1224360Y344236D03*
X1231860Y340299D03*
X1224360Y336362D03*
X1231860Y332425D03*
X1224360Y328488D03*
X1231860Y324551D03*
X1224360Y320614D03*
X1231860Y316677D03*
X1224360Y312740D03*
X1231860Y308803D03*
X1224360Y304866D03*
X1231860Y300929D03*
X1224360Y296992D03*
X1231860Y293055D03*
X1224360Y289118D03*
X1231860Y285181D03*
X1224360Y281244D03*
X1231860Y277307D03*
X1224360Y273370D03*
X1231860Y269433D03*
X1224360Y265496D03*
X1231860Y261559D03*
X1224360Y257622D03*
X1231860Y253685D03*
X1224360Y249748D03*
X1220600Y476126D03*
X356660Y222443D03*
X364160Y226537D03*
X356660Y230317D03*
X364160Y234411D03*
X356660Y238191D03*
X364160Y242285D03*
X356660Y246065D03*
X364160Y250159D03*
X356660Y253939D03*
X364160Y258033D03*
X356660Y261813D03*
X364160Y265907D03*
X356660Y269687D03*
X364160Y273781D03*
X356660Y277561D03*
X364160Y281655D03*
X356660Y285435D03*
X364160Y289529D03*
X356660Y293309D03*
X364160Y297403D03*
X356660Y301183D03*
X364160Y305277D03*
X356660Y309057D03*
X364160Y313151D03*
X356660Y316931D03*
X364160Y321025D03*
X356660Y324805D03*
X364160Y328899D03*
X356660Y332679D03*
X364160Y336773D03*
X356660Y340553D03*
X364160Y344647D03*
X356660Y348427D03*
X364160Y352521D03*
X356660Y356301D03*
X364160Y360395D03*
X356660Y364175D03*
X364160Y368269D03*
X356660Y372049D03*
X364160Y376143D03*
X356660Y379923D03*
X364160Y384017D03*
X356660Y387797D03*
X364160Y391891D03*
X356660Y395671D03*
X364160Y399765D03*
X356660Y403545D03*
X364160Y407639D03*
X356660Y411419D03*
X364160Y415513D03*
X356660Y419293D03*
X364160Y423387D03*
X356660Y427167D03*
X364160Y431261D03*
X356660Y435041D03*
X364160Y439135D03*
X356660Y442915D03*
X364160Y447009D03*
X356660Y450789D03*
X364160Y454883D03*
X356660Y458663D03*
X364160Y462757D03*
X356660Y466537D03*
X364160Y470631D03*
X356660Y490317D03*
X364160Y494254D03*
X356660Y498191D03*
X364160Y502128D03*
X356660Y506065D03*
X364160Y510002D03*
X356660Y513939D03*
X364160Y517876D03*
X356660Y521813D03*
X364160Y525750D03*
X356660Y529687D03*
X364160Y533624D03*
X356660Y537561D03*
X364160Y541498D03*
X356660Y545435D03*
X364160Y549372D03*
X356660Y553309D03*
X364160Y557246D03*
X356660Y561183D03*
X364160Y565120D03*
X356660Y569057D03*
X364160Y572994D03*
X356660Y576931D03*
X364160Y580868D03*
X356660Y584805D03*
X364160Y588742D03*
X356660Y592679D03*
X364160Y596616D03*
X356660Y600553D03*
X364160Y604490D03*
X356660Y608427D03*
X364160Y612364D03*
X356660Y616301D03*
X364160Y620238D03*
X356660Y624175D03*
X364160Y628112D03*
X356660Y632049D03*
X364160Y635986D03*
X356660Y639923D03*
X364160Y643860D03*
X356660Y647797D03*
X364160Y651734D03*
X356660Y655671D03*
X364160Y659608D03*
X356660Y663545D03*
X364160Y667482D03*
X356660Y671419D03*
X364160Y675356D03*
X356660Y679293D03*
X364160Y683230D03*
X356660Y687167D03*
X364160Y691104D03*
X356660Y695041D03*
X364160Y698978D03*
X356660Y702915D03*
X364160Y706852D03*
X341640Y222600D03*
X349140Y226537D03*
X341640Y230474D03*
X349140Y234411D03*
X341640Y238348D03*
X349140Y242285D03*
X341640Y246222D03*
X349140Y250159D03*
X341640Y254096D03*
X349140Y258033D03*
X341640Y261970D03*
X349140Y265907D03*
X341640Y269844D03*
X349140Y273781D03*
X341640Y277718D03*
X349140Y281655D03*
X341640Y285592D03*
X349140Y289529D03*
X341640Y293466D03*
X349140Y297403D03*
X341640Y301340D03*
X349140Y305277D03*
X341640Y309214D03*
X349140Y313151D03*
X341640Y317088D03*
X349140Y321025D03*
X341640Y324962D03*
X349140Y328899D03*
X341640Y332836D03*
X349140Y336773D03*
X341640Y340710D03*
X349140Y344647D03*
X341640Y348584D03*
X349140Y352521D03*
X341640Y356458D03*
X349140Y360395D03*
X341640Y364332D03*
X349140Y368269D03*
X341640Y372206D03*
X349140Y376143D03*
X341640Y380080D03*
X349140Y384017D03*
X341640Y387954D03*
X349140Y391891D03*
X341640Y395828D03*
X349140Y399765D03*
X341640Y403702D03*
X349140Y407639D03*
X341640Y411576D03*
X349140Y415513D03*
X341640Y419450D03*
X349140Y423387D03*
X341640Y427324D03*
X349140Y431261D03*
X341640Y435198D03*
X349140Y439135D03*
X341640Y443072D03*
X349140Y447009D03*
X341640Y450946D03*
X349140Y454883D03*
X341640Y458820D03*
X349140Y462757D03*
X341640Y466694D03*
X349140Y470631D03*
X341640Y490317D03*
X349140Y494254D03*
X341640Y498191D03*
X349140Y502128D03*
X341640Y506065D03*
X349140Y510002D03*
X341640Y513939D03*
X349140Y517876D03*
X341640Y521813D03*
X349140Y525750D03*
X341640Y529687D03*
X349140Y533624D03*
X341640Y537561D03*
X349140Y541498D03*
X341640Y545435D03*
X349140Y549372D03*
X341640Y553309D03*
X349140Y557246D03*
X341640Y561183D03*
X349140Y565120D03*
X341640Y569057D03*
X349140Y572994D03*
X341640Y576931D03*
X349140Y580868D03*
X341640Y584805D03*
X349140Y588742D03*
X341640Y592679D03*
X349140Y596616D03*
X341640Y600553D03*
X349140Y604490D03*
X341640Y608427D03*
X349140Y612364D03*
X341640Y616301D03*
X349140Y620238D03*
X341640Y624175D03*
X349140Y628112D03*
X341640Y632049D03*
X349140Y635986D03*
X341640Y639923D03*
X349140Y643860D03*
X341640Y647797D03*
X349140Y651734D03*
X341640Y655671D03*
X349140Y659608D03*
X341640Y663545D03*
X349140Y667482D03*
X341640Y671419D03*
X349140Y675356D03*
X341640Y679293D03*
X349140Y683230D03*
X341640Y687167D03*
X349140Y691104D03*
X341640Y695041D03*
X349140Y698978D03*
X341640Y702915D03*
X349140Y706852D03*
X352900Y480474D03*
G54D18*
X1013254Y719257D03*
Y729257D03*
Y739257D03*
Y749257D03*
Y759257D03*
G54D19*
X165000Y1020000D03*
X655000D03*
X165000Y410000D03*
X1275000D03*
X655000Y125000D03*
X1275000D03*
X165000D03*
X655000Y410000D03*
X1275000Y930000D03*
G54D20*
X236256Y709858D03*
Y719858D03*
Y729858D03*
Y739858D03*
X268756Y709858D03*
Y719858D03*
Y729858D03*
Y739858D03*
X302256Y709858D03*
Y719858D03*
Y729858D03*
Y739858D03*
X1109567Y975111D03*
X1172755D03*
X1281496Y164567D03*
Y235433D03*
Y261811D03*
Y332677D03*
G54D21*
X1123661Y986961D03*
X1128661Y996961D03*
X1133661Y986961D03*
X1138661Y996961D03*
X1143661Y986961D03*
X1148661Y996961D03*
X1153661Y986961D03*
X1158661Y996961D03*
X1260394Y1016850D03*
X1249488D03*
X1238583D03*
X1227677D03*
X1216772D03*
X1254961Y1028031D03*
X1244055D03*
X1233150D03*
X1222244D03*
G54D22*
X1043167Y141824D03*
X1023167D03*
Y121824D03*
X1043167D03*
X1090167Y141824D03*
X1070167D03*
Y121824D03*
X1090167D03*
X387902Y929190D03*
X367902D03*
Y909190D03*
X387902D03*
X387602Y963690D03*
X367602D03*
Y943690D03*
X387602D03*
G54D23*
X1089764Y1009843D03*
X1079921D03*
X1072047D03*
X1062205D03*
G54D24*
X1050118Y1020512D03*
X1101850D03*
G54D25*
X110102Y491890D03*
X172602Y504390D03*
Y516890D03*
Y554390D03*
Y566890D03*
X160102D03*
X147602D03*
X135102D03*
X122602D03*
X110102D03*
Y504390D03*
X176102Y297890D03*
X188602D03*
X226102D03*
Y310390D03*
Y347890D03*
Y372890D03*
X213602D03*
X201102D03*
X188602D03*
X176102D03*
Y310390D03*
X108102Y297890D03*
X128102D03*
X158102D03*
Y347890D03*
Y360390D03*
X148102D03*
X138102D03*
X128102D03*
X118102D03*
X108102D03*
G54D26*
X1287795Y1022441D03*
X1189409D03*
G54D27*
X704198Y691502D03*
X700261D03*
X708017D03*
X696443D03*
X783726Y983234D03*
X779789D03*
X787545D03*
X775970D03*
X633332Y691502D03*
X629395D03*
X637151D03*
X625576D03*
X578608Y684415D03*
X582545D03*
X574789D03*
X586364D03*
X774409Y992913D03*
X778346D03*
X770591D03*
X782165D03*
X619553Y684415D03*
X623490D03*
X615734D03*
X627309D03*
X800394Y983071D03*
X796457D03*
X804213D03*
X792638D03*
X656954Y691502D03*
X653017D03*
X660773D03*
X649198D03*
X791206Y992683D03*
X795143D03*
X787387D03*
X798962D03*
X643175Y684415D03*
X647112D03*
X639356D03*
X650931D03*
X738057Y993076D03*
X741994D03*
X734238D03*
X745813D03*
X859449Y983071D03*
X855512D03*
X863268D03*
X851693D03*
X690419Y684415D03*
X694356D03*
X686600D03*
X698175D03*
X850261Y992683D03*
X854198D03*
X846443D03*
X858017D03*
X666797Y684415D03*
X670734D03*
X662978D03*
X674553D03*
X833465Y992913D03*
X837402D03*
X829646D03*
X841220D03*
X680576Y691502D03*
X676639D03*
X684395D03*
X672820D03*
X609710D03*
X605773D03*
X613529D03*
X601954D03*
X842781Y983234D03*
X838844D03*
X846600D03*
X835025D03*
X738057Y691895D03*
X734120D03*
X741876D03*
X730301D03*
X747638Y983465D03*
X743701D03*
X751457D03*
X739882D03*
X895931Y983234D03*
X891994D03*
X899750D03*
X888175D03*
X887008Y992913D03*
X890945D03*
X883189D03*
X894764D03*
X714041Y684415D03*
X717978D03*
X710222D03*
X721797D03*
X912598Y983071D03*
X908661D03*
X916417D03*
X904843D03*
X766797Y692289D03*
X762860D03*
X770616D03*
X759041D03*
X903411Y992683D03*
X907348D03*
X899592D03*
X911167D03*
X751443Y684809D03*
X755380D03*
X747624D03*
X759198D03*
X721521Y993076D03*
X725458D03*
X717702D03*
X729277D03*
X554986Y684415D03*
X558923D03*
X551167D03*
X562742D03*
X730576Y983234D03*
X726639D03*
X734395D03*
X722820D03*
X568765Y691502D03*
X564828D03*
X572584D03*
X561009D03*
G54D28*
X324277Y111580D03*
X253411Y121423D03*
X275065D03*
X324277Y123391D03*
X318372Y147013D03*
X324277Y135202D03*
X243803Y170126D03*
X263502Y170290D03*
X283002Y170490D03*
X351575Y173622D03*
Y165354D03*
X362992D03*
Y173228D03*
X598425Y165748D03*
Y174409D03*
X703150Y174016D03*
Y165748D03*
X715354Y174016D03*
X715748Y165354D03*
X951575Y166535D03*
X1216493Y169446D03*
X1264961Y161024D03*
X324277Y188352D03*
X951575Y174803D03*
X255701Y206821D03*
X279965D03*
X299679Y206973D03*
X290277Y207124D03*
X308626Y206822D03*
X597112Y204887D03*
X625065D03*
X264202Y228190D03*
X256702Y228390D03*
X255853Y217133D03*
X271802Y228390D03*
X279402Y228290D03*
X279965Y216982D03*
X299983Y217285D03*
X290277Y216982D03*
X308626Y217134D03*
X565616Y226541D03*
X655773Y224966D03*
X747506Y224179D03*
X954198Y227722D03*
X981757D03*
X565616Y244651D03*
X655773D03*
X747506D03*
X954198Y243470D03*
X981757D03*
X1259055Y235827D03*
X296718Y259218D03*
X320340D03*
X954198D03*
X981757D03*
X1149080Y265124D03*
X1176639D03*
X159990Y281879D03*
X223966Y282094D03*
X256502Y304090D03*
X264102Y303890D03*
X271902Y303790D03*
X279402Y303890D03*
X296718Y302525D03*
X320340D03*
X1149080Y312368D03*
X1176639D03*
X300655Y324179D03*
X328214D03*
X869553Y331738D03*
X885301Y332053D03*
X901049D03*
X1249050Y328608D03*
X300655Y339927D03*
X328214D03*
X918765Y335990D03*
X1249050Y352230D03*
X300655Y371423D03*
Y355675D03*
X328214Y371423D03*
Y355675D03*
X885301Y359612D03*
X869553Y359297D03*
X901049Y359612D03*
X918765Y355675D03*
X1249474Y361974D03*
X106602Y385890D03*
Y393390D03*
Y378890D03*
X300655Y387171D03*
X328214D03*
X106602Y400390D03*
X830183Y412761D03*
X865616Y412958D03*
X847899Y412761D03*
X1249474Y405281D03*
X133102Y432890D03*
X224118Y423276D03*
Y416189D03*
X231992D03*
Y423276D03*
X277033Y419454D03*
X301443D03*
X279002Y440714D03*
X830183Y440320D03*
X865616Y440124D03*
X847506Y439927D03*
X1038844Y442289D03*
X1060498D03*
X1077820Y441895D03*
X1093569D03*
X1285827Y435433D03*
X1276772D03*
X1276378Y442913D03*
X1286220D03*
X189541Y473981D03*
X279002Y465911D03*
Y479691D03*
X1000261Y474572D03*
X1014435Y480872D03*
X1023883D03*
X1043569D03*
X1033332D03*
X1053017D03*
X1000261Y501344D03*
X1023883D03*
X1014435D03*
X1033332D03*
X1043569D03*
X1038844Y507250D03*
X1060498D03*
X278214Y520635D03*
X873490Y532840D03*
X908923D03*
Y519061D03*
X1286220Y522047D03*
X1275591Y522441D03*
X1275197Y515354D03*
X1274409Y532283D03*
X1285433Y532677D03*
X1286614Y514961D03*
X1265222Y550557D03*
X1279528Y536614D03*
X1290945Y537008D03*
X188685Y573669D03*
X1265222Y564336D03*
X224016Y586220D03*
X216142D03*
X1247506Y580084D03*
X1271128D03*
X216142Y605906D03*
Y596063D03*
X224016D03*
Y605906D03*
Y615748D03*
X216142D03*
X1279528Y624016D03*
Y631890D03*
X1288583D03*
X1287795Y624409D03*
X280254Y672210D03*
Y654494D03*
X307813D03*
Y672210D03*
X1131364Y672604D03*
X1143175D03*
X1158923D03*
X280254Y689927D03*
X307813D03*
X1131364Y694257D03*
X894750Y711974D03*
X919159D03*
X1143175Y700163D03*
X1158923D03*
X873883Y725754D03*
X919159D03*
Y739533D03*
X810498Y755281D03*
X836088D03*
X422702Y784809D03*
X450261D03*
X810498Y782840D03*
X836088D03*
X1154986Y786777D03*
X1182545D03*
X422702Y800557D03*
X450261D03*
X568765Y834021D03*
X620734Y833234D03*
X530970Y853706D03*
X580183D03*
X633332D03*
X675065Y834809D03*
X1154986Y839927D03*
X1182545D03*
X495537Y861580D03*
X540813Y873391D03*
X591994D03*
X643175D03*
X1154986Y855675D03*
X1182545D03*
X537771Y932053D03*
X564041Y932446D03*
X588667D03*
X616403Y928509D03*
X638966Y932446D03*
X666403Y929691D03*
X1103805Y934415D03*
X1254724Y925913D03*
X1103805Y948194D03*
G54D29*
X658923Y152919D03*
X997506D03*
X354773Y156657D03*
X359688D03*
X388450Y165517D03*
X602458Y156623D03*
X608137D03*
X640025Y173391D03*
X706554Y156879D03*
X712433Y156838D03*
X960818Y156476D03*
X954334D03*
X1023167Y168824D03*
X1043167D03*
X1028167D03*
X1053167D03*
X1048167D03*
X1070167D03*
X1075167D03*
X1090167D03*
X1100167Y167933D03*
X1095167D03*
X388450Y179297D03*
X725028Y184020D03*
X978061Y176387D03*
X1022895Y190896D03*
Y187453D03*
X1025535Y188856D03*
X1025467Y192724D03*
X1033726Y192289D03*
Y189533D03*
X1036482Y192289D03*
Y189533D03*
X1044798Y192793D03*
X1035167Y181624D03*
X1058067Y180624D03*
X1053167Y178724D03*
X1048167Y178824D03*
X1068795Y190796D03*
X1080576Y189533D03*
Y192289D03*
X1083332D03*
Y189533D03*
X1068795Y187253D03*
X1082167Y181193D03*
X1072535Y188856D03*
Y192793D03*
X1091798D03*
X1100167Y179524D03*
X1095167Y179324D03*
X721915Y196226D03*
X1023195Y199953D03*
Y203496D03*
X1035167Y200456D03*
X1039432Y211848D03*
X1049739Y198353D03*
Y201896D03*
X1082167Y200456D03*
X1068795Y198353D03*
Y201896D03*
X1096939Y198653D03*
Y202196D03*
X230024Y231150D03*
X986482Y227722D03*
X1036718D03*
X230024Y246898D03*
X1028017Y244100D03*
X1055332Y249848D03*
X1073332Y241848D03*
Y250848D03*
X1067332Y245848D03*
X222150Y260677D03*
X259551Y254772D03*
X860242Y273391D03*
X875990Y273392D03*
X868116D03*
X883864D03*
X899612D03*
X891738D03*
X907486D03*
X1040419Y260006D03*
Y264336D03*
X1029002Y268667D03*
Y264336D03*
X1056332Y255848D03*
X1198662Y261373D03*
X1023490Y291108D03*
X1033332D03*
X1043175D03*
X1053425Y291288D03*
X255380Y320242D03*
X940813Y321817D03*
X930970D03*
X951049D03*
X977033D03*
X966403D03*
X986876D03*
X996718D03*
X1019985Y321283D03*
X1039799D03*
X1030038D03*
X119672Y373938D03*
X114364Y373332D03*
X936607Y365427D03*
X943409Y370234D03*
X934030Y368302D03*
X946953Y370234D03*
X961953D03*
X956364Y366427D03*
X966207D03*
X958409Y370234D03*
X974107Y366427D03*
X976953Y370234D03*
X985907Y366427D03*
X968207Y369427D03*
X973409Y370234D03*
X1004282Y367205D03*
X991953Y370234D03*
X1001307Y366427D03*
X988409Y370234D03*
X920207Y384879D03*
X937218Y386425D03*
X934030Y386902D03*
X937218Y389969D03*
X998144Y386425D03*
Y389969D03*
X1196181Y390697D03*
X1192181D03*
X324277Y412761D03*
X334120Y408824D03*
X448687Y410793D03*
X937218Y401425D03*
X934030Y400502D03*
X937218Y404969D03*
X1004282Y402505D03*
X998144Y401425D03*
X1004282Y394605D03*
X998144Y404969D03*
X1046204Y399781D03*
X1046193Y405909D03*
X1046179Y412815D03*
X1038681Y396197D03*
Y409197D03*
Y403197D03*
X1049681Y399697D03*
Y406197D03*
Y412697D03*
X1196181Y400697D03*
Y410697D03*
X1192181Y400697D03*
Y410697D03*
X383332Y415124D03*
Y430478D03*
X538844D03*
X586088D03*
X633332D03*
X656954D03*
X937218Y416425D03*
X946007Y428679D03*
X934030Y416302D03*
X937218Y419969D03*
X942409Y428734D03*
X1004282Y430105D03*
X998144Y416425D03*
X993953Y428734D03*
X998144Y419969D03*
X990409Y428734D03*
X1196181Y420697D03*
Y430697D03*
X1192181Y420697D03*
Y430697D03*
X1245744Y425152D03*
X383726Y447013D03*
X562466Y446226D03*
X609710D03*
X688450D03*
X719946D03*
X751443D03*
X782939D03*
X809907Y451289D03*
X815814Y451288D03*
X820537Y451289D03*
X826444Y451288D03*
X831167Y451289D03*
X837074Y451288D03*
X842191Y451289D03*
X848097Y451288D03*
X934030Y435902D03*
X934708Y449554D03*
X952407Y436679D03*
X948507D03*
X989863Y437447D03*
X1001007Y436679D03*
X1004282Y436005D03*
X1082939Y435202D03*
X1196181Y440697D03*
Y450697D03*
X1192181Y440697D03*
Y450697D03*
X275065Y471817D03*
X330183D03*
X383332Y460006D03*
Y471817D03*
X782939Y469848D03*
X799671Y468218D03*
X805578Y468217D03*
X862663Y468218D03*
X852820D03*
X858727Y468217D03*
X868570D03*
X893175Y465911D03*
X1196181Y460697D03*
Y468697D03*
X1192181Y460697D03*
Y468697D03*
X264435Y492683D03*
X269553D03*
X271128Y479691D03*
X330183Y481659D03*
X383332Y485596D03*
X798349Y488550D03*
X798348Y482643D03*
X787213Y482642D03*
X787214Y488549D03*
X805576Y479352D03*
X799669Y479353D03*
X862662D03*
X858726Y479352D03*
X852819Y479353D03*
X882993Y492486D03*
X882995Y488550D03*
X882993Y482643D03*
X868569Y479352D03*
X896718Y492683D03*
X893175D03*
X900655D03*
X897112Y481265D03*
X912860Y483628D03*
X1066403Y480478D03*
X1196181Y476697D03*
Y484697D03*
Y492697D03*
X1192181Y476697D03*
Y484697D03*
Y492697D03*
X264435Y497013D03*
Y501738D03*
X251443Y497407D03*
X267191Y499376D03*
X269946Y497013D03*
Y501738D03*
X267191Y495045D03*
X282939Y499376D03*
X295537Y505675D03*
X383726Y497801D03*
X383332Y509612D03*
X566403Y513155D03*
X570340Y505281D03*
X795931Y507250D03*
Y503313D03*
X860891Y503391D03*
X860874Y507248D03*
X882995Y498393D03*
Y508235D03*
X882993Y502328D03*
Y512171D03*
X894750Y495045D03*
X893175Y497801D03*
X900655Y498194D03*
X898687Y495439D03*
X896718Y497801D03*
X895143Y510006D03*
X975852Y512368D03*
X981757D03*
X1005380D03*
X999474D03*
X993569D03*
X987663D03*
X1011285D03*
X1017191D03*
X1196181Y500697D03*
Y508697D03*
X1192181Y500697D03*
Y508697D03*
X383332Y532840D03*
Y521423D03*
X566403Y528903D03*
X570340Y521029D03*
Y528903D03*
X882995Y518078D03*
Y527920D03*
X882993Y522013D03*
X962072Y530872D03*
X958135D03*
Y526935D03*
X954198D03*
Y530872D03*
X984830Y518873D03*
X969946Y530872D03*
X1002512Y518859D03*
X1196181Y524697D03*
Y532697D03*
Y516697D03*
X1192181Y524697D03*
Y532697D03*
Y516697D03*
X383332Y544257D03*
X465222Y544651D03*
X586088D03*
X566403Y536777D03*
X570340Y544651D03*
X566403Y552525D03*
X743569Y546620D03*
X799671Y535148D03*
X805578Y535146D03*
X805576Y546281D03*
X799669Y546282D03*
X862663Y535148D03*
X852820D03*
X858727Y535146D03*
X862662Y546282D03*
X858726Y546281D03*
X852819Y546282D03*
X868570Y535146D03*
X868569Y546281D03*
X930970Y534809D03*
X958135Y542683D03*
Y538746D03*
X962072D03*
X966009D03*
Y534809D03*
X962072D03*
X958135D03*
X954198D03*
X966009Y542683D03*
X973883Y547159D03*
Y550557D03*
X969946Y542683D03*
X1044544Y549769D03*
X1196181Y548697D03*
Y540697D03*
X1192181Y548697D03*
Y540697D03*
X334120Y556462D03*
Y568273D03*
X383332Y554494D03*
X387269Y564336D03*
X455380Y556462D03*
X566403Y560399D03*
X582151Y564336D03*
X583332Y556462D03*
X586088Y568273D03*
X570340Y560399D03*
X566403Y568273D03*
X745348Y556462D03*
X753189Y564336D03*
X842583Y562818D03*
X834317Y562816D03*
X828410Y562818D03*
X848490Y562816D03*
X958135Y570242D03*
X962072Y554494D03*
X973883Y558431D03*
Y562368D03*
Y554494D03*
X1196181Y556697D03*
X1192181D03*
X120301Y589990D03*
Y593490D03*
X106402Y593290D03*
X448293Y585990D03*
X477820Y589927D03*
Y582053D03*
X582939Y580084D03*
X586088Y584021D03*
X570340Y576147D03*
Y584021D03*
Y591895D03*
X845758Y579911D03*
X853805Y584377D03*
X858529Y593076D03*
X925852Y587565D03*
X928214Y582840D03*
X966009Y585990D03*
X962072D03*
X958135D03*
X984907Y586178D03*
X1045931Y583785D03*
Y593698D03*
X1057348Y593664D03*
Y583817D03*
X109027Y606532D03*
X120004Y597090D03*
X136302Y607890D03*
X132442Y606290D03*
X132278Y610347D03*
X448293Y609612D03*
X582151Y603706D03*
X570340Y599769D03*
X590025D03*
X753222Y595832D03*
X958135Y609612D03*
Y613549D03*
X962072Y601738D03*
X984907Y607404D03*
X1258923Y612368D03*
X1251443D03*
X1254986D03*
X1256924Y601757D03*
X1273096Y607643D03*
X114604Y626817D03*
X114581Y631895D03*
X114604Y634434D03*
X108963Y614690D03*
X123102Y618290D03*
X112802Y622890D03*
X122989Y631942D03*
Y626767D03*
X125602Y618290D03*
X142002Y634390D03*
X141902Y631890D03*
X127954Y632047D03*
X133164Y631942D03*
X128409Y626767D03*
X133164D03*
X141902Y629290D03*
X130602Y618190D03*
X128002D03*
X132378Y614447D03*
X151302Y623190D03*
X477820Y631265D03*
Y623391D03*
X536876Y619454D03*
X803608Y627667D03*
X809515Y627666D03*
X814238Y628061D03*
X820145Y628060D03*
X826443Y628061D03*
X832349Y628060D03*
X838647Y628061D03*
X844554Y628060D03*
X890419Y623785D03*
X948293Y626935D03*
Y630084D03*
X958135Y629297D03*
X984907Y617251D03*
Y627027D03*
X1091994Y619454D03*
Y631265D03*
Y623391D03*
X1251443Y617486D03*
X1254986D03*
X1258923Y617880D03*
X1256954Y615124D03*
X1253017Y614730D03*
X1254981Y628897D03*
X1262466Y632446D03*
X114584Y637008D03*
X122902Y645490D03*
X123024Y636943D03*
X126202Y648790D03*
X125402Y645390D03*
X132402Y648490D03*
X142102Y636990D03*
X133202Y645390D03*
X128024Y637013D03*
X133234Y637048D03*
X128002Y645390D03*
X130602D03*
X151302Y634590D03*
X505380Y650950D03*
X516009D03*
Y646620D03*
X536876Y635202D03*
X858727Y647351D03*
X852820Y647352D03*
X862663D03*
X868570Y647351D03*
X941206Y648588D03*
Y640714D03*
Y645045D03*
X1091994Y635202D03*
X1265222Y647013D03*
X1247581Y649397D03*
X105006Y662890D03*
X105102Y666490D03*
X105006Y669890D03*
X145276Y670079D03*
Y662598D03*
X145302Y666490D03*
X150999Y663090D03*
X150902Y656090D03*
Y659490D03*
X190945Y655906D03*
Y662992D03*
X190602Y659590D03*
X452230Y671817D03*
X478702Y660681D03*
X509317Y664730D03*
X513254D03*
X509317Y668667D03*
X513254D03*
X595931Y665517D03*
X725852D03*
X862662Y658487D03*
X858726Y658486D03*
X852819Y658487D03*
X868569Y658486D03*
X884174Y661383D03*
Y671226D03*
X884176Y667290D03*
X881153Y655675D03*
X964041Y666698D03*
X960104Y670635D03*
X956167Y670824D03*
X952230Y670635D03*
X971915Y664871D03*
X975852Y671635D03*
X967978Y668667D03*
X105151Y681775D03*
X105302Y685590D03*
X105151Y689690D03*
X128346Y689370D03*
Y681890D03*
X128402Y685590D03*
X150694Y682635D03*
X150439Y675032D03*
X150502Y678690D03*
X150602Y693090D03*
X150239Y689232D03*
X172835Y674803D03*
X173228Y678740D03*
X174046Y682635D03*
Y688720D03*
X173802Y692590D03*
X504986Y690320D03*
X504592Y680478D03*
X516009Y686383D03*
Y690320D03*
X884174Y690124D03*
X884176Y686582D03*
X884174Y680675D03*
X884176Y677133D03*
X890419Y685202D03*
X1102624Y684021D03*
X1097506D03*
X1106954D03*
X1111285D03*
X1119946D03*
X1115616D03*
X105151Y695775D03*
X105202Y699590D03*
X105151Y703690D03*
X104739Y709432D03*
X105202Y713590D03*
X128346Y703543D03*
Y695669D03*
X128402Y699690D03*
X128502Y713690D03*
Y709675D03*
X150802Y706690D03*
X150694Y710635D03*
X150539Y702832D03*
X150694Y696635D03*
X174046Y702720D03*
Y710635D03*
X174102Y706790D03*
X174166Y696347D03*
X505773Y706069D03*
X516009Y702131D03*
X660104Y696620D03*
X686887Y696571D03*
X789183Y710990D03*
X789182Y705083D03*
X800316Y705084D03*
X800318Y710991D03*
X862663Y714281D03*
X852820D03*
X858727Y714280D03*
X868570D03*
X884176Y707448D03*
Y696031D03*
X884174Y701541D03*
X981767Y713824D03*
X105151Y717590D03*
Y731690D03*
X104739Y723832D03*
X105202Y727790D03*
X128502Y717590D03*
Y727790D03*
X128402Y724190D03*
X128502Y731690D03*
X141802Y727490D03*
X134502Y722790D03*
X160104Y724179D03*
X159710Y730084D03*
X169946Y729297D03*
Y724179D03*
X452230Y726541D03*
X479395Y715911D03*
X509317Y719848D03*
X513254Y723785D03*
X509317D03*
X513254Y719848D03*
X800316Y716502D03*
X800318Y722409D03*
X803608Y724124D03*
X789183Y722407D03*
X789182Y716500D03*
X809515Y724122D03*
X862662Y725416D03*
X858726Y725415D03*
X852819Y725416D03*
X868569Y725415D03*
X940767Y723824D03*
X950867Y728824D03*
X950967Y718824D03*
X971067D03*
X1004354Y716757D03*
X994167Y724224D03*
X988367Y730324D03*
X1004354Y731757D03*
Y726757D03*
Y721757D03*
Y719257D03*
X986967Y725624D03*
X1032154Y721757D03*
Y729257D03*
Y734257D03*
Y731757D03*
Y726757D03*
Y724257D03*
Y719257D03*
Y716757D03*
X113488Y748472D03*
X113094Y741780D03*
X159710Y735990D03*
X160104Y740714D03*
X170340Y735596D03*
X169946Y741108D03*
X505380Y745439D03*
X503805Y735990D03*
X516009Y741502D03*
Y745439D03*
X803606Y735259D03*
X795537Y737367D03*
X821324Y743131D03*
X815417Y743133D03*
X809513Y735257D03*
X844158Y743133D03*
X835104Y743131D03*
X829197Y743133D03*
X850065Y743131D03*
X856954Y741272D03*
X908529Y754100D03*
X1004354Y754257D03*
Y749257D03*
X989631Y739533D03*
X994167Y739224D03*
X988367Y747624D03*
X1004354Y744257D03*
X1032154Y749257D03*
Y744257D03*
Y741757D03*
Y739257D03*
Y736757D03*
X1226049Y742683D03*
X147537Y760529D03*
X314267Y767203D03*
X323411Y771029D03*
X902624Y765517D03*
X906167D03*
X902624Y770635D03*
X904198Y767880D03*
X906167Y770635D03*
X910104Y765517D03*
X908135Y768273D03*
X910104Y771029D03*
X940367Y773824D03*
X982067Y754724D03*
X970267Y758824D03*
X1004354Y761757D03*
X1032154D03*
Y756757D03*
X147112Y780557D03*
X174671Y781265D03*
X225852Y782640D03*
X221915Y792683D03*
X214041Y779102D03*
X225852D03*
X217978Y792683D03*
X214041Y782657D03*
X237663Y779094D03*
Y782614D03*
X233726Y792683D03*
X229789D03*
X249474Y782640D03*
X261285Y779085D03*
Y782623D03*
X249474Y779085D03*
X261285Y792683D03*
X273096Y782640D03*
Y792683D03*
Y779102D03*
X280970Y792683D03*
X277033D03*
X292781Y779102D03*
Y782657D03*
X314621Y788746D03*
X318151D03*
X906512Y782053D03*
X920734Y776935D03*
X147112Y800557D03*
X182240Y796620D03*
X182763Y808431D03*
X185826Y796620D03*
X200261Y802525D03*
X186267Y808431D03*
X225852Y800557D03*
X217978Y804494D03*
X241600Y812368D03*
X229789Y800557D03*
X233726Y804494D03*
X229789D03*
X237663D03*
X241600Y796620D03*
X229789Y808431D03*
X245537Y812368D03*
X265222Y804494D03*
Y812368D03*
X257348Y800557D03*
X253411Y812368D03*
X273096Y808431D03*
X280970Y796620D03*
X273096Y800557D03*
X280970Y808431D03*
X273096Y796620D03*
X318177Y800557D03*
X314621Y812368D03*
X318204D03*
X314621Y800557D03*
X912882Y796044D03*
X164828Y834021D03*
Y830084D03*
X182722Y820242D03*
X182931Y832053D03*
X186307Y820242D03*
X186386Y832053D03*
X225852Y820242D03*
X245537D03*
X241600Y824179D03*
X245537Y828116D03*
X241600Y832053D03*
X245537Y816305D03*
Y824179D03*
X241600Y828116D03*
X245537Y832053D03*
X237663D03*
X253411Y820242D03*
X249474Y824179D03*
X253411Y828116D03*
X261285Y816305D03*
X249474Y820242D03*
X253411Y824179D03*
X249474Y828116D03*
X261285Y832053D03*
X253411D03*
X277033Y816305D03*
Y832053D03*
X314631D03*
X314595Y822210D03*
X318175Y832053D03*
X318177Y822210D03*
X544750Y834021D03*
X597899D03*
X649080D03*
X1021521Y831659D03*
X1030970Y829691D03*
X164828Y837958D03*
X176639Y845832D03*
X225852Y847801D03*
Y851738D03*
X229789Y839927D03*
Y843864D03*
X233726D03*
X245537Y851738D03*
X241600Y839927D03*
X265222Y843864D03*
X257348Y851738D03*
X249474Y839927D03*
X253411D03*
X269159Y851738D03*
Y839927D03*
X273096Y843864D03*
Y847801D03*
X280970Y851738D03*
X273096D03*
X280970Y839927D03*
X318177Y843864D03*
X314595D03*
X871128Y854100D03*
Y846226D03*
X1004986Y836777D03*
X1017191Y834809D03*
X1026639Y836777D03*
X1039238Y840714D03*
X1077820Y847013D03*
X182727Y859612D03*
Y871423D03*
X186258Y859612D03*
X186284Y871423D03*
X225852Y855675D03*
X221915D03*
X217978D03*
X237663D03*
X265222D03*
X273096D03*
X280970D03*
X320611Y872445D03*
X314647Y855675D03*
X318171D03*
X350438Y868692D03*
X350596Y873676D03*
X372481Y858197D03*
X388681Y862597D03*
X392581Y871697D03*
X407257Y868797D03*
Y873797D03*
X434162Y860382D03*
X452532Y873797D03*
X446681Y865197D03*
X452532Y868797D03*
X871128Y869848D03*
Y861974D03*
X930735Y864951D03*
Y870951D03*
X958600Y859116D03*
X946535Y864951D03*
Y870951D03*
X971100Y873616D03*
X991706Y872022D03*
X1003123Y864660D03*
X993674Y866116D03*
Y870053D03*
Y873990D03*
X997736Y872219D03*
X1001155Y862691D03*
X991706Y868085D03*
X1010131Y867304D03*
X1012966Y862691D03*
X1006588Y867304D03*
X1021942D03*
X1024777Y864660D03*
X1014934D03*
X1018399Y867304D03*
X1022808Y862691D03*
X1033753Y867304D03*
X1042493Y864660D03*
X1042605Y872219D03*
X1030210Y867304D03*
X1045761Y872022D03*
Y868085D03*
X1044462Y862691D03*
X1038556D03*
X1034619Y864660D03*
X1032651Y862691D03*
X1047729Y870053D03*
Y866116D03*
Y873990D03*
X1223883Y865911D03*
X320798Y876140D03*
X350581Y878697D03*
X350481Y883597D03*
X384781Y883697D03*
X407257Y878797D03*
X407049Y883811D03*
X440916Y883808D03*
X452532Y878797D03*
Y883797D03*
X485808Y883745D03*
X538044Y892486D03*
X552624Y890320D03*
X550261Y892683D03*
X554986D03*
X557348Y890714D03*
X547899Y890320D03*
X567204Y892486D03*
X599080Y890320D03*
X603805D03*
X601443Y892683D03*
X606167D03*
X589225Y892486D03*
X608529Y890714D03*
X618385Y892486D03*
X640406D03*
X650261Y889927D03*
X654986D03*
X652624Y892289D03*
X657348D03*
X659710Y890320D03*
X669566Y892486D03*
X871128Y885596D03*
Y877722D03*
Y893470D03*
X930735Y877951D03*
Y884951D03*
X946535Y877951D03*
Y884951D03*
X955835Y891951D03*
X997736Y882061D03*
X991706Y891707D03*
X997736Y885604D03*
Y875762D03*
Y891904D03*
X993674Y881864D03*
Y889738D03*
X991706Y883833D03*
X1018399Y875178D03*
X1021942D03*
X1042605Y882061D03*
Y885604D03*
Y891904D03*
X1045761Y891707D03*
Y883833D03*
Y875959D03*
X1042605Y875762D03*
X1047729Y881864D03*
Y889738D03*
X1070340Y876935D03*
X1072309Y879297D03*
X1075458Y884809D03*
X1079789Y887958D03*
X1068735Y890048D03*
X1084367Y882724D03*
X1077971Y893228D03*
X1177953Y886614D03*
X1223096Y888352D03*
X1209618Y894134D03*
X1209952Y876119D03*
X345306Y912384D03*
X345702Y904890D03*
X424047Y908076D03*
X434163Y895316D03*
X444084Y908613D03*
X538044Y895045D03*
Y897604D03*
X530970Y902919D03*
X550261Y897407D03*
X547899Y899769D03*
Y895045D03*
X557348D03*
X554986Y897407D03*
X552624Y895045D03*
X557348Y899769D03*
X552624D03*
X567204Y895045D03*
Y897604D03*
X582151Y902919D03*
X574449Y914336D03*
X606167Y897407D03*
X603805Y899769D03*
X601443Y897407D03*
X599080Y899769D03*
Y895045D03*
X589225D03*
Y897604D03*
X603805Y895045D03*
X608529D03*
Y899769D03*
X618385Y895045D03*
Y897604D03*
X627427Y913155D03*
X640406Y895045D03*
X633332Y902919D03*
X640419Y897596D03*
X654986Y894651D03*
X652624Y897013D03*
X659710Y894651D03*
X657348Y897013D03*
X654986Y899376D03*
X650261D03*
Y894651D03*
X659710Y899376D03*
X675065Y913549D03*
X669566Y895045D03*
Y897604D03*
X955835Y897951D03*
Y909951D03*
Y903851D03*
X991706Y903518D03*
X997736Y901746D03*
Y911589D03*
X993674Y897612D03*
Y901549D03*
Y909423D03*
X997736Y895447D03*
Y905290D03*
X991706Y899581D03*
Y911392D03*
X1042605Y911589D03*
Y901746D03*
Y905290D03*
Y895447D03*
X1045761Y901549D03*
X1065177Y895650D03*
X1047729Y899581D03*
X1076633Y905524D03*
X1080067Y899424D03*
X1078467Y910024D03*
X1177953Y905906D03*
X1220734Y899376D03*
X1236088Y913549D03*
X1228214Y911187D03*
X107899Y933943D03*
X235694Y915517D03*
X265222Y914730D03*
X280902Y931190D03*
X295902Y929090D03*
X320902Y930490D03*
X422902D03*
X437949Y927232D03*
X438149Y923632D03*
X464902Y931090D03*
X500143Y919687D03*
X509543Y930987D03*
Y920187D03*
X544004Y921817D03*
X593483Y921020D03*
X644750Y921423D03*
X955835Y921951D03*
Y915951D03*
Y928951D03*
X997736Y921431D03*
X991706Y919266D03*
X997736Y924975D03*
X1005285Y925188D03*
X997736Y931274D03*
X993674Y917297D03*
Y931077D03*
X1005285Y921645D03*
X997736Y915132D03*
X991706Y933045D03*
X1010049Y933200D03*
X1006549D03*
X1037600Y928216D03*
X1042605Y921431D03*
X1034749Y933500D03*
X1042605Y924975D03*
X1031149Y933400D03*
X1034785Y925188D03*
X1042605Y931274D03*
X1045761Y929108D03*
Y921234D03*
Y917297D03*
X1034785Y921645D03*
X1042605Y915132D03*
X1059541Y931077D03*
X1047729Y919266D03*
X1066100Y928116D03*
X1047729Y933045D03*
Y927140D03*
Y915329D03*
X1076367Y931224D03*
X1078467Y915324D03*
X1220281Y924999D03*
X1224052Y926793D03*
X1213090Y926758D03*
X1225065Y914730D03*
X1222090Y929228D03*
X1211059Y929398D03*
X1230537Y924160D03*
X1235048Y926861D03*
X1233086Y929228D03*
X107899Y953943D03*
Y943943D03*
X270502Y938690D03*
X296202Y941790D03*
X296302Y938290D03*
X309902Y938490D03*
X340987Y947345D03*
X337402Y938790D03*
X413502Y937590D03*
X433902Y942190D03*
X444702Y939690D03*
X444002Y954090D03*
X444402Y936090D03*
X454602Y937890D03*
X480402Y953990D03*
Y938590D03*
X495543Y942587D03*
X488443Y936687D03*
X534302Y953390D03*
X545602Y947390D03*
X586102Y952390D03*
X574961Y947390D03*
X632102Y944714D03*
X636102Y944590D03*
X628102D03*
X656131Y944118D03*
X677131D03*
X667131D03*
X687131D03*
X955835Y934951D03*
Y947951D03*
Y941951D03*
X1005092Y942494D03*
X995249D03*
X1001155D03*
X1003123Y938557D03*
X997735Y934816D03*
X1016903Y942494D03*
X1007060Y938557D03*
X1012966Y942494D03*
X1014934Y938557D03*
X1018871D03*
X1024777D03*
X1028714D03*
X1040525D03*
X1044462D03*
X1026745Y942494D03*
X1030682D03*
X1036588Y938557D03*
X1038556Y942494D03*
X1042493D03*
X1042605Y934817D03*
X1059541Y935014D03*
X1063100Y935016D03*
X1047729Y936982D03*
X1076400Y942116D03*
X1073567Y951324D03*
X1201836Y942683D03*
X1205773D03*
X1199080Y943076D03*
X1208529Y935202D03*
X1217191Y942289D03*
X1215222Y938352D03*
X1241600Y937958D03*
X1244356D03*
X1233726Y938746D03*
X1237269Y938352D03*
X1226246D03*
X107899Y963943D03*
X270502Y956890D03*
X279102Y965890D03*
X268902Y968490D03*
X298002Y972790D03*
X305102Y954790D03*
X305002Y972990D03*
X320202Y965290D03*
X350302Y972390D03*
X421625Y965727D03*
X413402Y956890D03*
X410302Y970290D03*
X448302Y964390D03*
X463802Y964490D03*
X455302Y964390D03*
X492043Y974187D03*
X501043D03*
X519043D03*
X510043D03*
X534302Y964390D03*
X557102Y954890D03*
X546602Y971890D03*
X575102Y966890D03*
X586102Y957390D03*
X582602Y962390D03*
X578802Y970890D03*
X586102Y962390D03*
X572602Y957390D03*
X641002Y962290D03*
X636102Y968090D03*
X632102Y968214D03*
X628102Y968090D03*
X663202Y973590D03*
X673602Y973890D03*
X683702Y972790D03*
X1023302Y960490D03*
X1020502Y960590D03*
X1051000Y967616D03*
X1076000Y967716D03*
X1094094Y973622D03*
X1219553Y954887D03*
X1214828Y955281D03*
X1256954Y954887D03*
X1251836D03*
X161285Y991108D03*
X146954Y986620D03*
X330402Y974790D03*
X535302Y988890D03*
Y977890D03*
X558102Y979390D03*
X576102Y991390D03*
X583602Y986890D03*
X573502Y981790D03*
X587602Y975890D03*
Y980890D03*
Y985890D03*
X641302Y985790D03*
X632102Y993214D03*
X628102Y993090D03*
X636102D03*
X652602Y974690D03*
X1076378Y985827D03*
X1203411Y993864D03*
X1214041D03*
X1225852D03*
X1240419D03*
X1261285D03*
X1251443D03*
X161285Y996620D03*
X218189Y996528D03*
X215063Y1001646D03*
X492402Y1000841D03*
X535802Y1013390D03*
Y1002390D03*
X558602Y1003890D03*
X547102Y996390D03*
X584102Y1011390D03*
X573902Y1006290D03*
X575961Y996390D03*
X587602Y1000890D03*
Y1005890D03*
Y1010890D03*
X640402Y1010790D03*
X1004535Y1005890D03*
X1004335Y1002190D03*
X999335Y1012590D03*
X1009435Y1012690D03*
X1014435Y1006090D03*
X1014235Y1002490D03*
X1024235D03*
X1019335Y1012990D03*
X1024635Y1005790D03*
X1034135Y1005890D03*
X1034235Y1002390D03*
X1029435Y1012790D03*
X1096457Y999606D03*
X231598Y1015008D03*
X260402Y1031890D03*
X280402D03*
X270402D03*
X300402D03*
X290402D03*
X320402D03*
X310402D03*
X340402D03*
X330402D03*
X350402D03*
X402402D03*
X422402D03*
X412402D03*
X442402D03*
X432402D03*
X462402D03*
X452402D03*
X482402D03*
X472402D03*
X492402D03*
X535602Y1026890D03*
X558602Y1028390D03*
X547102Y1020890D03*
X576602Y1015890D03*
X574102Y1030890D03*
X578602Y1020390D03*
X587902Y1025690D03*
Y1030690D03*
X632102Y1018014D03*
X636102Y1017890D03*
X628102D03*
X674302Y1029690D03*
X678802Y1030790D03*
X725236Y1019094D03*
X731142Y1019055D03*
X742953D03*
X737047D03*
X734528Y1019094D03*
X739094Y1019055D03*
X754764Y1019134D03*
X760709Y1019055D03*
X748858D03*
X763268Y1019016D03*
X751378Y1019055D03*
X784291Y1019094D03*
X766575Y1018976D03*
X772480Y1019055D03*
X778465Y1019016D03*
X769961Y1019055D03*
X796102Y1019094D03*
X802008D03*
X790197Y1019055D03*
X807913Y1019094D03*
X819724D03*
X813819D03*
X816931Y1019416D03*
X825669Y1019055D03*
X814702Y1026590D03*
X843346Y1019055D03*
X837441Y1019094D03*
X831535D03*
X855157D03*
X849252D03*
X861102Y1019055D03*
X866929Y1019094D03*
X872874D03*
X878740D03*
X875702Y1019090D03*
X873802Y1026890D03*
X884685Y1019016D03*
X896496Y1019055D03*
X902362Y1019094D03*
X890591D03*
X920118Y1019055D03*
X908307Y1019094D03*
X926024Y1019055D03*
X914173Y1019094D03*
X920902Y1026490D03*
X931929Y1019094D03*
X937795D03*
X929002Y1019190D03*
X1004335Y1016790D03*
X1024535Y1016690D03*
X1014435Y1016790D03*
X1084252Y1025984D03*
X1079134Y1026378D03*
X107742Y1036777D03*
X164041Y1037171D03*
Y1041895D03*
X146954Y1036620D03*
X231602Y1054390D03*
X535602Y1037890D03*
X576602Y1037990D03*
X584102Y1035890D03*
X587802Y1035690D03*
X640802D03*
X600602Y1055590D03*
X613402D03*
X606802Y1055490D03*
X619702D03*
X610002Y1055690D03*
X622702D03*
X644802Y1055490D03*
X632002D03*
X635502Y1055590D03*
X648802D03*
G54D30*
X214041Y104887D03*
X218372D03*
X236088Y111974D03*
X292387Y108824D03*
X294750D03*
X297112D03*
X643175Y152919D03*
X941672Y152976D03*
X997506Y137171D03*
X372702Y165517D03*
X622309Y173391D03*
X1023096Y154887D03*
X372702Y179297D03*
X706561Y184021D03*
X962313Y176387D03*
X1243701Y187795D03*
X218765Y213549D03*
X212860Y204494D03*
X345530Y199375D03*
X347409Y206770D03*
X706167Y196226D03*
X1033167Y201824D03*
X1037167D03*
X245537Y231265D03*
X600390Y229381D03*
X603054Y229393D03*
X594485Y229381D03*
X597149Y229393D03*
X588579Y229381D03*
X591243Y229393D03*
X624012Y229381D03*
X608960Y229393D03*
X606296Y229381D03*
X618107D03*
X620771Y229393D03*
X614865D03*
X612201Y229381D03*
X626676Y229393D03*
X641729Y229381D03*
X644393Y229393D03*
X638487D03*
X635823Y229381D03*
X629918D03*
X632582Y229393D03*
X673225Y229381D03*
X675889Y229393D03*
X669983D03*
X667319Y229381D03*
X681794Y229393D03*
X685036Y229381D03*
X679130D03*
X690941D03*
X693605Y229393D03*
X699511D03*
X696847Y229381D03*
X702752D03*
X705416Y229393D03*
X687700D03*
X717227D03*
X714563Y229381D03*
X708658D03*
X711322Y229393D03*
X720340Y229297D03*
X723096D03*
X1025899Y221899D03*
X1027569Y223569D03*
X1160630Y215748D03*
X1175591Y214961D03*
X1181890Y216535D03*
X1209504Y234415D03*
X1216790D03*
X234907Y235596D03*
X236482Y252525D03*
X594356Y254100D03*
X597112D03*
X606167D03*
X603017D03*
X600261D03*
X588450D03*
X591206D03*
X608923D03*
X623883D03*
X620734D03*
X617978D03*
X626639D03*
X632545D03*
X629789D03*
X644356D03*
X641600D03*
X675852D03*
X667191D03*
X673096D03*
X669946D03*
X684907D03*
X705380D03*
X690813D03*
X693569D03*
X702624D03*
X687663D03*
X711285D03*
X708529D03*
X720340Y252919D03*
X723096D03*
X232939Y271029D03*
X244750Y265911D03*
X679002Y259218D03*
X681757D03*
X699474D03*
X696718D03*
X717191D03*
X714435D03*
X924277Y271029D03*
X944750D03*
X934907D03*
X954986D03*
X980183Y271423D03*
X970340D03*
X1000655D03*
X990419D03*
X1049000Y263500D03*
X1198548Y257862D03*
X1252756Y267323D03*
X891738Y291393D03*
X206167Y310006D03*
X860498Y306856D03*
X883864Y304974D03*
X875000Y305000D03*
X887663Y306856D03*
X275065Y320242D03*
X860498Y317485D03*
X875852Y319454D03*
X887663Y317485D03*
X1026500Y318000D03*
X1099868Y321423D03*
X1109218Y322506D03*
X1112072Y333628D03*
X1131364Y321029D03*
X1259055Y333465D03*
X1100394Y354331D03*
X1117000Y345500D03*
X1115912Y341895D03*
X1111777Y345735D03*
X1119553Y345045D03*
X1111679Y338352D03*
X1122309D03*
X1261811Y337008D03*
X1266535Y336220D03*
X1268898Y339764D03*
X1272835Y345669D03*
X847899Y368273D03*
X847506Y372210D03*
X922309Y369061D03*
X908923Y374179D03*
X952000Y374000D03*
X999474Y363943D03*
X1001443Y354887D03*
X997506D03*
X1056954Y366305D03*
X1071915Y374179D03*
X1088450Y365911D03*
X1121915Y362761D03*
X1112859Y358037D03*
X1127820Y362367D03*
X1261417Y356693D03*
X1285039Y369291D03*
X1267717Y357480D03*
X1274016D03*
X130970Y374966D03*
X198687Y387565D03*
X284513Y378509D03*
X279395Y391108D03*
X906167Y375754D03*
X922309Y378903D03*
Y382840D03*
Y388746D03*
X920340Y390714D03*
X922309Y392683D03*
X910891Y377328D03*
X916797Y379297D03*
X931500Y381000D03*
Y377000D03*
X1060500Y385000D03*
X1080849Y381153D03*
X1071777Y394355D03*
X1081364Y377722D03*
X1088057Y393469D03*
X1269291Y380315D03*
X1274803D03*
X1288189Y384646D03*
X1287795Y375591D03*
X140813Y401738D03*
X199080Y400557D03*
X272702Y399376D03*
X324277Y408824D03*
X334120Y412761D03*
X432545Y410793D03*
X897506Y408824D03*
X920734Y402525D03*
X920340Y394651D03*
X920734Y398588D03*
X922309Y396620D03*
Y410399D03*
Y406462D03*
X1015616Y410399D03*
X1060498Y395045D03*
X1074409Y401181D03*
X1081757Y404099D03*
X306167Y425951D03*
Y420045D03*
Y430675D03*
X387269Y415517D03*
X386876Y430872D03*
X432545Y434415D03*
X448293D03*
X473000Y421500D03*
X562466Y430478D03*
X609710D03*
X672702Y423391D03*
X688450Y430478D03*
X719946D03*
X712500Y415000D03*
X751443Y430478D03*
X761500Y419500D03*
X782939Y430478D03*
X816009Y432840D03*
X810498D03*
X896167Y430223D03*
X903529Y429908D03*
X897506Y424572D03*
X901049Y426147D03*
X920079Y433858D03*
X906561Y414730D03*
X914041Y419848D03*
X920079Y427953D03*
X931496Y429921D03*
X933721Y420254D03*
X933332Y424179D03*
X974066Y433901D03*
X1015616Y424179D03*
X1015612Y420254D03*
X1006952Y422223D03*
X1015748Y433858D03*
X1006561Y426147D03*
X1263647Y431068D03*
X306167Y436581D03*
Y449573D03*
Y443667D03*
X387269Y447013D03*
X538844Y446226D03*
X586088D03*
X633726Y445832D03*
X664828Y436777D03*
X656954Y446226D03*
X812932Y451289D03*
X823279D03*
X815327Y442474D03*
X834108Y451289D03*
X845237D03*
X903411Y440714D03*
X895931Y441108D03*
X936614Y448031D03*
X942520Y438976D03*
X940551Y448031D03*
X938583Y438976D03*
X944488Y448031D03*
X964173Y438976D03*
X946457D03*
X954331Y448031D03*
X966142D03*
X960236Y438976D03*
X958268Y448031D03*
X956299Y438976D03*
X950394Y448031D03*
X975984Y450394D03*
X975197Y437402D03*
X981890Y448031D03*
X972047Y450394D03*
X979921D03*
X968110D03*
X970079Y448031D03*
X974016D03*
X967191Y437565D03*
X983858Y438976D03*
X985827Y448031D03*
X977953D03*
X991732D03*
X987795Y438976D03*
X997638Y448031D03*
X1263647Y436974D03*
Y440911D03*
Y446817D03*
Y451541D03*
X259317Y471817D03*
X306167Y462565D03*
Y456659D03*
X330183Y467880D03*
X386876Y460006D03*
Y472210D03*
X432151Y458037D03*
X448293D03*
X774389Y461017D03*
X767191Y469848D03*
X802525Y468218D03*
X809500Y470500D03*
X865871Y468218D03*
X855885Y468222D03*
X1019159Y472210D03*
Y462761D03*
X1045000Y455000D03*
X1263647Y457447D03*
X1277953Y462205D03*
X1287402Y462598D03*
X253411Y493470D03*
X259317Y479691D03*
X282939Y491502D03*
X286482D03*
X306167Y489336D03*
X330183Y477722D03*
X329167Y487324D03*
X333167Y488824D03*
X386876Y485596D03*
X432545D03*
X448293D03*
X496167Y482324D03*
X582151Y485596D03*
Y481659D03*
X590025Y485596D03*
X605773D03*
X597899D03*
X605773Y481659D03*
X590025D03*
X597899D03*
X621521Y485596D03*
X613647D03*
X621521Y481659D03*
X613647D03*
X637269Y485596D03*
X629395D03*
X645143D03*
X637269Y481659D03*
X629395D03*
X645143D03*
X660891Y485596D03*
X653017D03*
X660891Y481659D03*
X653017D03*
X684513Y485596D03*
Y491109D03*
X676639Y485596D03*
X684513Y481659D03*
X668765Y485596D03*
Y481659D03*
X676639D03*
X700261Y485596D03*
Y481659D03*
X692387Y485596D03*
Y481659D03*
X716009Y485596D03*
X723883D03*
X716009Y481659D03*
X708135Y485596D03*
X723883Y481659D03*
X708135D03*
X731757Y485596D03*
X739631D03*
X731757Y481659D03*
X739631D03*
X782939Y485596D03*
X767191D03*
X798344Y485582D03*
X787213D03*
X802525Y479353D03*
X820340Y493470D03*
X824277D03*
X820340Y485596D03*
Y489533D03*
X824277D03*
X816403Y481659D03*
X812466Y493470D03*
X816403Y485596D03*
X820340Y481659D03*
X824277Y485596D03*
Y477722D03*
X820340D03*
X816403D03*
X824277Y481659D03*
X816403Y489533D03*
Y493470D03*
X812466Y485596D03*
X836088Y493470D03*
X832151Y481659D03*
X828214Y489533D03*
Y493470D03*
X836088Y485596D03*
Y489533D03*
X832151D03*
Y493470D03*
Y485596D03*
X828214D03*
X840025Y477722D03*
X836088D03*
X832151D03*
X840025Y481659D03*
X836088D03*
X843962D03*
X847899Y477722D03*
X851836Y481659D03*
X856005Y479353D03*
X865751D03*
X851836Y493470D03*
X847899D03*
Y481659D03*
Y489533D03*
Y485596D03*
X882993Y485443D03*
X893175Y480478D03*
X960104Y479691D03*
X971915D03*
X1263647Y486974D03*
Y492880D03*
X258529Y506462D03*
X273096Y509218D03*
X306167Y495242D03*
Y509021D03*
X329167Y497324D03*
X387269Y497407D03*
X386876Y509612D03*
X432545Y509218D03*
X448293D03*
X500167Y513324D03*
X556561Y505281D03*
Y513155D03*
X552624D03*
Y505281D03*
X566403D03*
X570340Y513155D03*
X664828Y498588D03*
X684513Y513549D03*
X672702Y507643D03*
X680576Y513155D03*
Y510793D03*
X676639Y509218D03*
X684513Y499769D03*
X749645Y509218D03*
X753204D03*
X782939Y501344D03*
X767191D03*
X781500Y497000D03*
X800000Y500500D03*
X805010Y507250D03*
X812466Y505281D03*
X824277Y513155D03*
Y509218D03*
Y505281D03*
Y497407D03*
Y501344D03*
X820340Y513155D03*
Y509218D03*
Y505281D03*
Y501344D03*
Y497407D03*
X816403Y505281D03*
Y497407D03*
Y509218D03*
Y501344D03*
Y513155D03*
X812466D03*
X843962Y505281D03*
X832151Y513155D03*
Y509218D03*
Y505281D03*
Y497407D03*
Y501344D03*
X836088Y513155D03*
Y509218D03*
X840025Y505281D03*
X836088D03*
Y501344D03*
Y497407D03*
X828214Y513155D03*
Y509218D03*
Y505281D03*
Y501344D03*
Y497407D03*
X843962Y501344D03*
Y497407D03*
X847899Y505281D03*
Y513155D03*
X851836Y497407D03*
X847899Y509218D03*
Y501344D03*
X882990Y495367D03*
X882993Y505214D03*
X901049Y511187D03*
X903411Y509218D03*
X1053017Y496717D03*
X1263647Y498785D03*
Y504691D03*
Y509415D03*
X273096Y515124D03*
X306167Y514927D03*
Y533825D03*
Y527919D03*
X377667Y527324D03*
X387269Y532840D03*
X386876Y521423D03*
X526667Y527824D03*
X556561Y528903D03*
Y521029D03*
X552624Y528903D03*
Y521029D03*
X566403D03*
X597899Y528903D03*
X593962D03*
X605773Y521029D03*
X593962Y524966D03*
X597899Y532840D03*
X605773Y528903D03*
X601836Y532840D03*
X593962D03*
X605773D03*
X609710Y528903D03*
X613647D03*
X621521Y532840D03*
X625458D03*
X609710D03*
X613647D03*
X617584Y528903D03*
X621521D03*
X625458Y524966D03*
Y521029D03*
X617584Y524966D03*
X625458Y528903D03*
X617584Y532840D03*
X629395Y528903D03*
X633332D03*
X629395Y532840D03*
X633332D03*
X629395Y524966D03*
X645143Y532840D03*
X641206D03*
X637269Y528903D03*
X641206D03*
Y524966D03*
X645143D03*
X641206Y521029D03*
X637269Y532840D03*
X633332Y524966D03*
X645143Y528903D03*
X656954D03*
X653017D03*
X649080D03*
Y524966D03*
Y532840D03*
X653017D03*
X664828Y524966D03*
X660891Y521029D03*
X653017Y524966D03*
X660891D03*
Y528903D03*
X664828Y532840D03*
Y528903D03*
X656954Y532840D03*
X684513D03*
X668765Y524966D03*
X672702Y521029D03*
Y532840D03*
X668765D03*
Y521029D03*
X672702Y524966D03*
X684513Y528903D03*
X672702Y516698D03*
X676639Y528903D03*
X684513Y517092D03*
Y524966D03*
X676639Y515124D03*
X680576Y528903D03*
X684513Y521029D03*
X668765Y528903D03*
X680576Y532840D03*
X676639Y524966D03*
X696324Y532840D03*
X704198D03*
X700261Y528903D03*
X704198D03*
X688450Y532840D03*
X692387D03*
X696324Y528903D03*
X700261Y524966D03*
X692387D03*
Y528903D03*
X688450Y524966D03*
X700261Y521029D03*
X696324Y524966D03*
X688450Y528903D03*
X700261Y532840D03*
X716009D03*
X708135D03*
X712072D03*
X716009Y528903D03*
X719946D03*
Y524966D03*
X723883D03*
Y528903D03*
Y521029D03*
X716009Y524966D03*
X708135Y528903D03*
X719946Y532840D03*
X723883D03*
X743419D03*
X727820Y524966D03*
Y528903D03*
Y532840D03*
X749670Y517092D03*
Y524966D03*
X753177Y517092D03*
X753229Y524966D03*
X820340Y517092D03*
Y524966D03*
X824277Y517092D03*
Y521029D03*
X820340D03*
X812466Y528903D03*
Y517092D03*
X816403Y521029D03*
Y517092D03*
X824277Y524966D03*
X812466Y532840D03*
X824277D03*
X816403D03*
X820340D03*
X812466Y521029D03*
X816403Y524966D03*
X836088Y517092D03*
X832151D03*
X828214D03*
X836088Y524966D03*
Y521029D03*
X832151D03*
X828214D03*
X843962Y524966D03*
X828214Y528903D03*
Y532840D03*
X832151Y528903D03*
Y524966D03*
X836088Y528903D03*
X843962Y532840D03*
X840025D03*
X836088D03*
X843962Y517092D03*
X847899D03*
Y528903D03*
Y532840D03*
Y521029D03*
Y524966D03*
X882990Y515062D03*
Y524871D03*
X981757Y530872D03*
Y526935D03*
X997506Y530872D03*
Y526935D03*
X1001443Y530872D03*
X1005380D03*
Y526935D03*
X1001443D03*
X991600Y523391D03*
X989631Y526935D03*
Y530872D03*
X1009317D03*
X1017191D03*
X1025065Y526935D03*
Y530872D03*
X1009317Y526935D03*
X1013254D03*
X1021128Y530872D03*
X1044750D03*
X1029002D03*
Y526935D03*
X1032939Y530872D03*
Y526935D03*
X1036876D03*
X1040813Y530872D03*
Y526935D03*
X1036876Y530872D03*
X1060498D03*
X1048687Y526935D03*
X1052624Y530872D03*
X1056561D03*
X1060498Y526935D03*
X1064435D03*
Y530872D03*
X1048687D03*
X1072309D03*
X1084120D03*
Y526935D03*
X1080183Y530872D03*
Y526935D03*
X1068372D03*
Y530872D03*
X1076246D03*
X1088057D03*
Y526935D03*
X1263647Y515321D03*
Y526737D03*
Y532643D03*
X325853Y536777D03*
X334120Y552525D03*
X334513Y541502D03*
Y536777D03*
X386876Y544257D03*
X432545Y536777D03*
X448293D03*
X556561Y552525D03*
Y536777D03*
Y544651D03*
X552624Y536777D03*
Y552525D03*
Y544651D03*
X566403D03*
X570340Y536777D03*
Y552525D03*
X593962D03*
X597899D03*
X605773Y544651D03*
X593962D03*
X605773Y548588D03*
X601836Y540714D03*
X605773Y552525D03*
X601836D03*
X593962Y536777D03*
X601836Y544651D03*
Y548588D03*
X597899Y540714D03*
X605773D03*
X597899Y536777D03*
X593962Y548588D03*
X597899Y544651D03*
X593962Y540714D03*
X605773Y536777D03*
X597899Y548588D03*
X601836Y536777D03*
X617584D03*
X613647D03*
X617584Y544651D03*
X621521D03*
X613647Y552525D03*
X617584Y548588D03*
X625458Y552525D03*
X609710D03*
X613647Y548588D03*
X621521Y552525D03*
Y548588D03*
X617584Y540714D03*
X621521Y536777D03*
X625458Y540714D03*
Y536777D03*
Y544651D03*
X609710D03*
Y548588D03*
Y540714D03*
X613647D03*
X609710Y536777D03*
X621521Y540714D03*
X625458Y548588D03*
X617584Y552525D03*
X613647Y544651D03*
X629395Y540714D03*
X633332D03*
Y548588D03*
X637269Y544651D03*
X641206Y536777D03*
X637269D03*
Y548588D03*
X641206D03*
X629395Y544651D03*
Y548588D03*
Y552525D03*
X633332Y536777D03*
X637269Y540714D03*
X633332Y552525D03*
X641206D03*
X645143Y540714D03*
Y536777D03*
Y552525D03*
Y544651D03*
X641206D03*
X633332D03*
X645143Y548588D03*
X637269Y552525D03*
X629395Y536777D03*
X641206Y540714D03*
X649080D03*
Y544651D03*
X660891Y552525D03*
X664828D03*
X653017D03*
X649080D03*
X653017Y548588D03*
X649080D03*
X656954Y544651D03*
Y548588D03*
X653017Y540714D03*
X656954D03*
X664828D03*
X649080Y536777D03*
X656954Y552525D03*
Y536777D03*
X653017D03*
Y544651D03*
X664828Y536777D03*
Y548588D03*
Y544651D03*
X680576D03*
X684513D03*
Y536777D03*
X680576D03*
X684513Y552525D03*
X672702D03*
Y548588D03*
X676639Y552525D03*
Y548588D03*
X680576D03*
X676639Y540714D03*
X680576D03*
X672702Y544651D03*
Y540714D03*
X676639Y544651D03*
X680576Y552525D03*
X668765Y540714D03*
Y552525D03*
Y544651D03*
Y536777D03*
X672702D03*
X684513Y540714D03*
X668765Y548588D03*
X688450Y552525D03*
X696324Y536777D03*
Y540714D03*
X700261D03*
X704198Y552525D03*
X688450Y536777D03*
Y544651D03*
X692387D03*
Y548588D03*
Y552525D03*
X696324Y548588D03*
Y552525D03*
X700261Y536777D03*
X688450Y540714D03*
X692387D03*
X700261Y548588D03*
X704198D03*
Y536777D03*
X700261Y544651D03*
X704198D03*
X692387Y536777D03*
X704198Y540714D03*
X688450Y548588D03*
X700261Y552525D03*
X696324Y544651D03*
X723883D03*
X719946Y540714D03*
X723883Y548588D03*
X708135D03*
X719946Y552525D03*
X708135D03*
X712072Y548588D03*
Y552525D03*
X708135Y536777D03*
Y544651D03*
X712072D03*
X708135Y540714D03*
X712072D03*
X723883D03*
X716009Y544651D03*
X712072Y536777D03*
X716009Y552525D03*
X719946Y548588D03*
Y544651D03*
X716009Y548588D03*
X723883Y536777D03*
X719946D03*
X716009D03*
X723445Y552525D03*
X716009Y540714D03*
X737259Y536777D03*
X728558Y543914D03*
X727820Y552525D03*
X731757Y546620D03*
X729789Y550557D03*
X727820Y536777D03*
Y540714D03*
X775205Y552525D03*
X778806D03*
X802465Y535147D03*
X802874Y546282D03*
X797000Y538500D03*
X808529Y536777D03*
X824277D03*
X820340D03*
X834252Y543307D03*
X865599Y546282D03*
X855713D03*
X882151Y552525D03*
X914435Y550557D03*
Y542683D03*
Y534809D03*
X913254Y538746D03*
X914435Y546620D03*
X923500Y541500D03*
X966009Y546620D03*
X954198D03*
X962072D03*
X954198Y538746D03*
X962072Y542683D03*
X977820Y546620D03*
X982372Y549580D03*
X981757Y546620D03*
X985694Y534809D03*
Y538746D03*
Y546620D03*
Y542683D03*
X978828Y549580D03*
X1005380Y534809D03*
X993569Y542683D03*
X989631Y538746D03*
Y534809D03*
X993569Y538746D03*
Y534809D03*
X997506Y546620D03*
X1005380D03*
X1001759Y546936D03*
X1003372Y549580D03*
X989631Y546620D03*
X993372Y549580D03*
X1001443Y538746D03*
X997506D03*
X993569Y546620D03*
X989631Y542683D03*
X999828Y549580D03*
X989828D03*
X1005380Y538746D03*
X1001443Y534809D03*
X1009317Y538746D03*
X1013372Y549580D03*
X1013254Y546620D03*
X1009317D03*
X1025065D03*
X1021128D03*
X1017191D03*
X1009828Y549580D03*
X1023789Y549571D03*
X1025065Y534809D03*
Y538746D03*
X1017191Y534809D03*
X1013254D03*
X1017191Y538746D03*
X1021128D03*
X1009317Y534809D03*
X1013254Y538746D03*
X1044750Y546620D03*
X1040813D03*
X1035372Y549580D03*
X1036876Y546620D03*
X1032939D03*
X1041031Y549769D03*
X1029002Y546620D03*
X1031828Y549580D03*
X1029002Y538746D03*
Y534809D03*
X1032939D03*
X1044750Y538746D03*
X1036876Y534809D03*
X1044750D03*
X1036876Y538746D03*
X1040813Y534809D03*
Y538746D03*
X1032939D03*
X1027323Y549571D03*
X1048687Y546620D03*
X1056561D03*
X1054372Y549580D03*
X1064435Y542683D03*
X1060498Y546620D03*
Y542683D03*
X1052624Y546620D03*
X1061828Y549580D03*
X1050828D03*
X1052624Y534809D03*
X1060498D03*
X1056561D03*
X1052624Y538746D03*
X1064435Y534809D03*
Y538746D03*
X1060498D03*
X1048687Y534809D03*
Y538746D03*
X1056561D03*
X1065372Y549580D03*
X1084120Y542683D03*
X1068372D03*
X1072309Y550557D03*
Y546620D03*
X1084120Y538746D03*
Y534809D03*
X1080183Y538746D03*
Y534809D03*
X1076246Y546620D03*
Y542683D03*
Y538746D03*
Y534809D03*
X1072309Y542683D03*
Y538746D03*
X1068372D03*
X1072309Y534809D03*
X1068372D03*
X1080183Y550557D03*
Y546620D03*
Y542683D03*
X1084120Y550557D03*
X1076246D03*
X1084120Y546620D03*
X1088057Y534809D03*
Y550557D03*
Y542683D03*
X1089238Y537565D03*
X1088057Y546620D03*
X324474Y567683D03*
X334120Y564336D03*
X326639Y569651D03*
X383332Y564336D03*
X387269Y554494D03*
X432545Y562368D03*
X461898Y560943D03*
X448293Y562368D03*
X499080Y557250D03*
X526500Y566000D03*
X532167Y565824D03*
X552624Y560399D03*
Y568273D03*
X561500Y567500D03*
X550167Y573324D03*
X570340Y568273D03*
X582167Y571324D03*
X580167Y567324D03*
X573167Y559324D03*
X605773Y556462D03*
X593962D03*
X605773Y560399D03*
Y568273D03*
X593962D03*
X605773Y564336D03*
X601836D03*
Y560399D03*
X593962Y564336D03*
X597899Y572210D03*
X601836Y556462D03*
X605773Y572210D03*
X597899Y564336D03*
Y568273D03*
X601836D03*
Y572210D03*
X597899Y556462D03*
X625458Y560399D03*
X621521Y556462D03*
X625458D03*
X613647D03*
X617584D03*
X609710D03*
X625458Y568273D03*
X621521Y560399D03*
X613647Y564336D03*
X609710Y572210D03*
X613647D03*
X617584Y564336D03*
X613647Y560399D03*
X609710D03*
X617584D03*
X613647Y568273D03*
X609710D03*
Y564336D03*
X617584Y572210D03*
X625458Y564336D03*
X621521Y572210D03*
X625458D03*
X621521Y564336D03*
X633332Y568273D03*
X645143Y572210D03*
X633332Y560399D03*
X629395D03*
X637269D03*
Y556462D03*
X633332D03*
X641206D03*
X645143Y560399D03*
Y556462D03*
X629395D03*
X641206Y572210D03*
Y560399D03*
X637269Y564336D03*
X641206D03*
X645143D03*
X629395D03*
Y572210D03*
Y568273D03*
X637269D03*
X633332Y572210D03*
X653017D03*
X664828D03*
X656954D03*
X653017Y560399D03*
X656954D03*
X649080D03*
X664828D03*
X653017Y556462D03*
X656954D03*
X649080D03*
Y572210D03*
X653017Y564336D03*
X660891D03*
Y572210D03*
X664828Y556462D03*
X660891Y560399D03*
X649080Y564336D03*
X656954D03*
X664828D03*
X676639D03*
X672702Y572210D03*
X684513Y556462D03*
X668765Y560399D03*
X672702D03*
X676639D03*
Y556462D03*
X680576D03*
X684513Y568273D03*
X676639D03*
X672702Y556462D03*
X684513Y560399D03*
Y564336D03*
X668765D03*
X676639Y572210D03*
X668765D03*
Y556462D03*
X672702Y564336D03*
X680576Y572210D03*
X684513D03*
X680576Y564336D03*
Y568273D03*
X704198Y560399D03*
X688450Y556462D03*
Y560399D03*
X692387D03*
X700261Y556462D03*
Y560399D03*
X704198Y556462D03*
X696324Y560399D03*
Y556462D03*
X692387Y572210D03*
Y556462D03*
X696324Y572210D03*
Y564336D03*
Y568273D03*
X692387D03*
X688450Y572210D03*
X700261Y568273D03*
X692387Y564336D03*
X704198Y568273D03*
Y564336D03*
X700261D03*
X704198Y572210D03*
X700261D03*
X712072Y560399D03*
X716009D03*
X708135Y556462D03*
X719946Y572210D03*
X708135Y568273D03*
X723883Y560399D03*
X712072Y556462D03*
X716009Y564336D03*
X723883Y572210D03*
Y568273D03*
Y556462D03*
X719946Y568273D03*
X716009D03*
X723883Y564336D03*
X719946Y556462D03*
Y560399D03*
X716009Y556462D03*
X708135Y564336D03*
X712072D03*
X708135Y572210D03*
X712072D03*
X708135Y560399D03*
X712072Y568273D03*
X742387Y556462D03*
X727820D03*
X729789Y570242D03*
X727563Y572468D03*
X729259Y567349D03*
X727820Y564335D03*
X747113Y568273D03*
X753201Y572210D03*
X747000Y563000D03*
X775315Y562383D03*
X778806Y562368D03*
Y572210D03*
X775300D03*
X797500Y560500D03*
X811554Y560020D03*
X823218Y562950D03*
X826443Y572210D03*
X845253Y562817D03*
X831420D03*
X829986Y572210D03*
X852033D03*
X855576D03*
X914435Y558431D03*
Y554494D03*
X923096Y562761D03*
Y558431D03*
X930576Y566305D03*
X966009Y554494D03*
Y558431D03*
X958121D03*
X966009Y566305D03*
X962072Y570242D03*
Y566305D03*
X958121D03*
X966009Y574179D03*
X954198Y570242D03*
X966009D03*
X958135Y574179D03*
X954198Y566305D03*
X962072Y574179D03*
X954198Y573771D03*
X984718Y558588D03*
X973883Y566305D03*
X976844Y558431D03*
X973883Y570242D03*
X976844Y568431D03*
X973883Y574179D03*
X984718Y568588D03*
X976844Y561974D03*
X984718Y562131D03*
X976844Y571974D03*
X984718Y572131D03*
X999277Y571218D03*
X1003214Y557454D03*
X990624Y558628D03*
X1004734Y571218D03*
X990624Y562171D03*
X995734Y571218D03*
X999671Y557454D03*
X1008334Y571239D03*
X1012214Y557454D03*
X1018277Y571218D03*
X1023214Y557454D03*
X1008671D03*
X1014734Y571218D03*
X1025734D03*
X1019671Y557454D03*
X1037734Y571218D03*
X1036876Y574179D03*
X1045742Y568470D03*
X1029231Y571041D03*
X1030671Y557454D03*
X1040671D03*
X1044214D03*
X1045742Y572013D03*
X1041277Y571218D03*
X1034214Y557454D03*
X1057537Y568628D03*
Y558628D03*
X1065411D03*
Y572171D03*
X1057537Y562171D03*
Y572171D03*
X1065411Y562171D03*
Y568628D03*
X1068372Y574179D03*
Y570242D03*
Y566305D03*
X1084120Y570242D03*
X1072309Y558431D03*
X1084120Y554494D03*
X1072309Y562368D03*
Y554494D03*
X1080183Y562368D03*
X1084120Y566305D03*
X1076246Y558431D03*
X1080183D03*
X1076246Y566305D03*
X1080183D03*
Y574179D03*
Y570242D03*
X1076246Y574179D03*
Y570242D03*
X1084120Y574179D03*
Y562368D03*
Y558431D03*
X1080183Y554494D03*
X1076246D03*
Y562368D03*
X1088057Y570242D03*
Y574179D03*
Y554494D03*
X1278740Y556693D03*
X1292126Y556299D03*
X432545Y585990D03*
X477820Y593864D03*
X497112Y588746D03*
X495332Y590659D03*
X497000Y593000D03*
X537664Y587958D03*
X539167Y581324D03*
X546324Y587958D03*
X556561Y591895D03*
Y576147D03*
Y584021D03*
X552624Y591895D03*
Y584021D03*
Y576147D03*
X566403D03*
Y591895D03*
Y584021D03*
X577033Y574966D03*
X601836Y584021D03*
Y580084D03*
X597899Y591895D03*
X605773Y584021D03*
Y587958D03*
X593962Y584021D03*
Y576147D03*
Y580084D03*
X597899Y584021D03*
X593175Y591895D03*
X597899Y587958D03*
X601836D03*
X605773Y580084D03*
Y576147D03*
X601836Y591895D03*
Y576147D03*
X597899Y580084D03*
Y576147D03*
X606167Y591895D03*
X621521Y587958D03*
X617584Y584021D03*
X609710Y587958D03*
X613647D03*
X621521Y576147D03*
X613647Y584021D03*
X609710Y576147D03*
X625458Y591895D03*
X621521Y584021D03*
X613647Y576147D03*
Y591895D03*
X609710Y584021D03*
Y580084D03*
X613647D03*
X609710Y591895D03*
X617584Y580084D03*
X621521Y591895D03*
X617584D03*
Y576147D03*
X625458D03*
Y580084D03*
Y584021D03*
Y587958D03*
X621005Y580084D03*
X629395Y584021D03*
X633332Y587958D03*
X641206Y580084D03*
Y587958D03*
X637269D03*
X629395Y576147D03*
X645143Y580084D03*
Y587958D03*
X637269Y580084D03*
X629395D03*
Y591895D03*
Y587958D03*
X633332Y580084D03*
Y584021D03*
Y576147D03*
X660891Y587958D03*
X656954D03*
X664828Y580084D03*
X656954D03*
X649080D03*
Y587958D03*
X653017Y591895D03*
Y587958D03*
X660891Y580084D03*
X653017D03*
X680576D03*
X672702D03*
X680576Y587958D03*
X672702D03*
X684513Y580084D03*
X676639D03*
X668765D03*
X684513Y587958D03*
X676639D03*
X684513Y576147D03*
X704198Y591895D03*
X703804Y584022D03*
X696324Y576147D03*
X700261Y580084D03*
Y576147D03*
X688450Y587958D03*
Y591895D03*
X700261Y584021D03*
X692387D03*
X696324Y580084D03*
X688450D03*
X692387D03*
X700261Y591895D03*
X696324Y584021D03*
X704198Y580084D03*
X692387Y576147D03*
X696324Y591895D03*
X700261Y587958D03*
X688450Y576147D03*
X692387Y591895D03*
X696500Y588000D03*
X704198Y587959D03*
Y576147D03*
X712072Y583751D03*
X715663Y587958D03*
X708135Y580084D03*
X719946Y591895D03*
X708135Y587958D03*
X723883Y580084D03*
X716009Y584021D03*
X712072Y576147D03*
X719946Y580084D03*
X719947Y584020D03*
X723883Y576147D03*
Y584020D03*
X719946Y576147D03*
X716009Y580084D03*
X712072Y592410D03*
Y588474D03*
X719946Y587958D03*
X716009Y591895D03*
X712072Y580084D03*
X708135Y576147D03*
X716009D03*
X708135Y584021D03*
X724000Y591894D03*
X731364Y584416D03*
X729789Y589927D03*
X743000Y581775D03*
Y586500D03*
X738022Y588074D03*
X727820Y580340D03*
Y576404D03*
X727936Y592528D03*
X747113Y576147D03*
X753242Y587958D03*
X753181Y580084D03*
X749676Y587958D03*
X761048Y582564D03*
X758531Y580628D03*
X756391Y588074D03*
X746882Y589618D03*
X823737Y580084D03*
X834120Y576147D03*
X826500Y584000D03*
X842500Y588000D03*
X838057Y584021D03*
Y580084D03*
X830183Y588604D03*
X834120Y587958D03*
X845931Y576147D03*
Y587958D03*
X838057Y576147D03*
X841994Y575034D03*
X845931Y584036D03*
X838057Y587958D03*
X834120Y584021D03*
Y580084D03*
X853805Y576147D03*
X857742Y587958D03*
X853697Y587851D03*
X854213Y591787D03*
X857742Y584021D03*
X849868D03*
X850000Y580500D03*
X849352Y576147D03*
X849868Y587958D03*
X861500Y582000D03*
X894356Y592289D03*
X905773Y578116D03*
X903805Y592289D03*
X913647Y582840D03*
Y587565D03*
Y592289D03*
X916009Y576539D03*
X958135Y593864D03*
X966009Y589927D03*
Y577600D03*
X962072Y578116D03*
Y593864D03*
X966009Y582053D03*
X958135Y582705D03*
X954091Y577707D03*
X954198Y582053D03*
X958463Y577926D03*
X954198Y585990D03*
X969946Y589927D03*
X984907Y589712D03*
X973883Y578116D03*
Y582053D03*
X976844Y586431D03*
Y577431D03*
X973883Y589927D03*
X984907Y577526D03*
Y581068D03*
X973883Y593864D03*
Y585990D03*
X976844Y589974D03*
Y580974D03*
X996513Y585344D03*
Y594344D03*
X1005380Y589927D03*
Y582053D03*
X996513Y576344D03*
X1005380Y593864D03*
Y585990D03*
Y578116D03*
X996513Y588887D03*
Y579887D03*
X1009317Y589927D03*
X1017191Y582053D03*
Y578116D03*
X1009317D03*
X1025065Y593864D03*
Y589927D03*
Y585990D03*
Y582053D03*
Y578116D03*
X1021128Y593864D03*
Y589927D03*
Y585990D03*
Y582053D03*
Y578116D03*
X1017191Y593864D03*
Y589927D03*
Y585990D03*
X1013254Y593864D03*
Y589927D03*
Y585990D03*
Y582053D03*
Y578116D03*
X1009317Y593864D03*
Y585990D03*
Y582053D03*
X1045931Y580265D03*
X1040813Y589927D03*
X1036876D03*
X1029002Y582053D03*
Y578116D03*
X1040813Y582053D03*
X1045931Y590111D03*
X1040813Y593864D03*
Y585990D03*
Y578116D03*
X1036876Y593864D03*
Y585990D03*
Y582053D03*
X1032939Y593864D03*
Y589927D03*
Y585990D03*
Y582053D03*
Y578116D03*
X1029002Y593864D03*
Y589927D03*
Y585990D03*
X1065411Y589628D03*
X1057348Y590111D03*
Y580265D03*
X1065411Y578628D03*
Y582171D03*
Y593171D03*
X1068372Y582053D03*
Y578116D03*
X1072309Y593864D03*
X1084120Y585990D03*
X1072309Y589927D03*
Y585990D03*
X1076246D03*
Y593864D03*
X1084120Y578116D03*
X1080183D03*
Y582053D03*
X1084120D03*
X1080183Y589927D03*
X1076246D03*
Y582053D03*
X1080183Y585990D03*
X1084120Y593864D03*
Y589927D03*
X1076246Y578116D03*
X1080183Y593864D03*
X1088057Y578116D03*
Y585990D03*
Y593864D03*
Y589927D03*
Y582053D03*
X432545Y609612D03*
X440500Y610500D03*
X463254Y598194D03*
X481757Y601738D03*
X484667Y608824D03*
X499667Y610324D03*
X493167Y610824D03*
X510167D03*
X509667Y608324D03*
X537664Y595832D03*
X546324D03*
X556561Y599769D03*
X552624D03*
X586088D03*
X566403D03*
X582151Y595832D03*
X580167Y611824D03*
X585694Y611974D03*
X605773Y607643D03*
X597899D03*
X593962Y603706D03*
X601836Y599769D03*
X605773D03*
X597899Y595832D03*
X605773D03*
Y603706D03*
X597899D03*
Y599769D03*
X601836Y595832D03*
X591206Y610399D03*
X587667Y610324D03*
X601836Y607250D03*
X621521Y603706D03*
X617584Y611580D03*
X609710Y595832D03*
X613647Y603706D03*
X621521Y595832D03*
X625458Y611580D03*
X613647Y595832D03*
X609710Y599769D03*
X613647Y611580D03*
X609710Y607643D03*
X613647Y599769D03*
X609710Y611580D03*
Y603706D03*
X621521Y599769D03*
Y611580D03*
X625458Y595832D03*
Y607643D03*
X617584Y599769D03*
Y595832D03*
X621521Y607643D03*
X625458Y603706D03*
X617584Y607643D03*
Y603706D03*
X633332Y599769D03*
X641206D03*
X637269D03*
X641206Y603706D03*
Y607643D03*
X633332Y603706D03*
X629395D03*
X633332Y611580D03*
Y607643D03*
Y595832D03*
X645143D03*
Y603706D03*
Y611580D03*
X637269D03*
Y603706D03*
X641206Y611580D03*
X629395Y595832D03*
Y611580D03*
X637269Y595832D03*
X664828D03*
X656954D03*
X649080D03*
X664828Y603706D03*
X656954D03*
X649080D03*
X664828Y611580D03*
X649080D03*
X656954D03*
X660891Y595832D03*
X653017D03*
X660891Y603706D03*
X653017D03*
X660891Y611580D03*
X653017D03*
X676639Y599769D03*
X680576Y603706D03*
X672702D03*
Y611580D03*
X680576D03*
X672702Y595832D03*
X668765D03*
X676639Y603706D03*
X668765D03*
Y611580D03*
X676639D03*
X684513D03*
Y603706D03*
X680576Y595832D03*
X676500Y596000D03*
X684500D03*
X680576Y599769D03*
X684513D03*
X704198Y611580D03*
Y599769D03*
Y595832D03*
X700261Y599769D03*
Y603706D03*
X692387D03*
Y595832D03*
X696324D03*
Y603706D03*
Y607643D03*
X688450Y611580D03*
X700261D03*
X688450Y599769D03*
X692387D03*
X696324D03*
X688450Y595832D03*
Y603706D03*
X696324Y611580D03*
X692387Y607643D03*
Y611580D03*
X704198Y607643D03*
X716009D03*
X712072Y595832D03*
X724277Y603706D03*
X708135Y611580D03*
X716009D03*
X719947Y607641D03*
X708135Y607643D03*
X712072Y611580D03*
X724002Y607642D03*
X712072Y607641D03*
X719946Y611580D03*
X716009Y603706D03*
X712072Y603705D03*
X716009Y595832D03*
Y599769D03*
X708135D03*
Y603706D03*
X723883Y599769D03*
X719946Y603705D03*
X723883Y595832D03*
X719946Y599378D03*
X708135Y595832D03*
X739631Y613549D03*
X729002Y609612D03*
Y613549D03*
X730500Y607000D03*
X727820Y599769D03*
X749868Y595833D03*
X749677Y603706D03*
X749653Y611580D03*
X753160D03*
X753237Y603706D03*
X746500Y605000D03*
X774672Y613549D03*
X777225Y601738D03*
X780782Y609612D03*
X780970Y602328D03*
X801500Y609000D03*
X803500Y599500D03*
X845931Y603706D03*
X828418Y611580D03*
X831954D03*
X838057Y603706D03*
Y607643D03*
X834120Y603706D03*
X826246D03*
X838057Y599769D03*
X845931Y595832D03*
X838057D03*
X845931Y599769D03*
X830575Y603706D03*
X830183Y607643D03*
X845931Y608429D03*
X834120Y607643D03*
Y595832D03*
X830381Y595799D03*
X834120Y599769D03*
X830575D03*
X852230Y611974D03*
X855576Y611580D03*
X853805Y595832D03*
X857604Y603844D03*
X853805Y599769D03*
X849868Y603706D03*
Y607643D03*
X853805D03*
Y603706D03*
X849868Y595832D03*
Y599769D03*
X881364Y611187D03*
X904986D03*
X893175D03*
X887269D03*
X925852Y610794D03*
X913647Y597013D03*
Y603706D03*
X923490Y597407D03*
X918765Y611187D03*
X954198Y613549D03*
X966009D03*
Y601738D03*
X962072Y597801D03*
X954457Y605933D03*
X958135Y605675D03*
X962072Y613549D03*
X954198Y609612D03*
X966009D03*
Y605675D03*
X958135Y601738D03*
X966009Y597801D03*
X962072Y605675D03*
X952624Y603313D03*
X962072Y609612D03*
X984907Y594861D03*
Y603920D03*
X973883Y613549D03*
X976844Y613431D03*
X973883Y609612D03*
Y605675D03*
Y601738D03*
X976844Y604431D03*
X984907Y613731D03*
X976844Y595431D03*
X984907Y598403D03*
X973883Y597801D03*
X976844Y607974D03*
X976836Y598982D03*
X1005380Y601738D03*
Y609612D03*
X996513Y603344D03*
Y612344D03*
X1005380Y613549D03*
Y605675D03*
Y597801D03*
X996513Y606887D03*
Y597887D03*
X1017191Y613549D03*
Y609612D03*
X1009317Y601738D03*
Y613549D03*
X1025065D03*
Y609612D03*
Y605675D03*
Y601738D03*
Y597801D03*
X1021128Y613549D03*
Y609612D03*
Y605675D03*
Y601738D03*
Y597801D03*
X1017191Y605675D03*
Y601738D03*
Y597801D03*
X1013254Y613549D03*
Y609612D03*
Y605675D03*
Y601738D03*
Y597801D03*
X1009317Y609612D03*
Y605675D03*
Y597801D03*
X1036876Y601738D03*
X1029002Y609612D03*
Y613549D03*
X1040813Y601738D03*
X1045742Y599470D03*
Y608470D03*
X1040813Y609612D03*
X1036876Y613549D03*
X1040813D03*
Y605675D03*
Y597801D03*
X1036876Y609612D03*
Y605675D03*
Y597801D03*
X1032939Y613549D03*
Y609612D03*
Y605675D03*
Y601738D03*
Y597801D03*
X1029002Y605675D03*
Y601738D03*
Y597801D03*
X1045742Y612013D03*
Y603013D03*
X1057537Y608628D03*
X1065411Y599628D03*
X1057537Y598628D03*
Y602171D03*
X1065411Y612171D03*
X1057537D03*
X1065411Y603171D03*
Y608628D03*
X1068372Y613549D03*
Y609612D03*
Y605675D03*
Y601738D03*
X1084120Y597801D03*
X1072309D03*
X1080183D03*
Y605675D03*
X1084120D03*
X1080183Y609612D03*
X1076246D03*
Y601738D03*
X1080183D03*
X1084120D03*
Y609612D03*
X1076246Y605675D03*
Y597801D03*
X1088057Y601738D03*
Y605675D03*
Y609612D03*
X1250987Y601738D03*
X1252978Y597801D03*
X177820Y627328D03*
X174409Y631890D03*
X332545Y625754D03*
X432545Y633234D03*
X448293D03*
X494167Y627144D03*
Y629505D03*
X536876Y627328D03*
X547111Y619454D03*
Y627328D03*
X578214Y618273D03*
X582939Y623391D03*
Y627328D03*
Y631265D03*
X601443Y627328D03*
X605773D03*
X601836Y623391D03*
Y619454D03*
Y631265D03*
X605773D03*
X597899Y623391D03*
Y615517D03*
X593962D03*
X597899Y631265D03*
X605773Y623391D03*
Y619454D03*
X601836Y615517D03*
X605773D03*
X625458Y631265D03*
X613647Y627328D03*
X625458D03*
X621521Y631265D03*
X625458Y619454D03*
X621521Y623391D03*
X609710Y619454D03*
X613647Y615517D03*
X609710Y623391D03*
X613647Y619454D03*
X609710Y627328D03*
X613647Y623391D03*
X617584Y619454D03*
X625458Y623391D03*
X621521Y615517D03*
X625458D03*
X621521Y619454D03*
X609710Y631265D03*
X613647D03*
X617584D03*
Y627328D03*
X609710Y615517D03*
X621521Y627328D03*
X617584Y623391D03*
X629395D03*
X641206D03*
X645143Y631265D03*
X633332Y627328D03*
X629395Y619454D03*
X633332Y631265D03*
Y615517D03*
X629395Y627328D03*
X633332Y619454D03*
X645143Y623391D03*
X637269D03*
X645143Y626935D03*
X637269Y631265D03*
X629395D03*
X641206D03*
X633332Y623391D03*
X641206Y627328D03*
X637269D03*
Y619454D03*
X629395Y615517D03*
X645143Y619454D03*
X641206D03*
X637500Y615500D03*
X653017Y627328D03*
X649080Y623391D03*
X660891Y631265D03*
Y619454D03*
X649080D03*
X660891Y615517D03*
X656954Y631265D03*
X653017D03*
X656954Y627328D03*
X649080Y615517D03*
X653017Y623391D03*
X649080Y627328D03*
X656954Y619454D03*
X653017Y615517D03*
X656954Y623391D03*
X649080Y631265D03*
X653017Y619454D03*
X664828Y627328D03*
X664500Y615500D03*
X664828Y619454D03*
Y631265D03*
X676639Y623391D03*
X672702D03*
X676639Y619454D03*
X684513Y623391D03*
X668765Y631265D03*
X680576Y615517D03*
X672702Y619454D03*
X676639Y627328D03*
X684513Y615517D03*
X676639D03*
X684513Y619454D03*
X680576D03*
Y623391D03*
X684513Y627328D03*
X668765D03*
X672702D03*
X684513Y631265D03*
X668765Y623391D03*
Y619454D03*
X680576Y631265D03*
X676639D03*
X672702D03*
X668765Y615517D03*
X672702D03*
X680576Y627328D03*
X688450Y615517D03*
Y619454D03*
Y627328D03*
X700261Y615517D03*
X696324Y627328D03*
X688450Y631265D03*
X692387Y619454D03*
X704198Y623391D03*
X700261Y619454D03*
X704198D03*
X696324Y615517D03*
X692387D03*
X704198Y627328D03*
X688450Y623391D03*
X704198Y615517D03*
X700261Y627328D03*
Y623391D03*
X692387Y627328D03*
Y623391D03*
Y631265D03*
X704198D03*
X719946Y619454D03*
Y623391D03*
X716009Y631265D03*
X719946D03*
X716009Y619454D03*
Y627328D03*
X719946D03*
X712072Y619454D03*
X716009Y623391D03*
X719946Y615517D03*
X723883D03*
X708135Y631265D03*
X723883Y627328D03*
Y631265D03*
X708135Y627328D03*
Y623391D03*
X712072Y627328D03*
X708135Y619454D03*
Y615517D03*
X712072Y631265D03*
X716009Y615517D03*
X712072D03*
Y623391D03*
X739631Y617486D03*
X738450Y629297D03*
Y625360D03*
Y633234D03*
X754986Y621817D03*
X760498Y634415D03*
X757742Y628116D03*
X774672Y621423D03*
X780782Y617486D03*
X788500Y614500D03*
X806457Y627667D03*
X817165Y628061D03*
X829317D03*
X841709D03*
X881364Y619847D03*
X904986D03*
X893175D03*
X887269D03*
X925852Y619454D03*
X918765Y619847D03*
X925065Y623391D03*
Y628116D03*
Y633234D03*
X966009D03*
X962072D03*
X954198D03*
X958135D03*
X954198Y617486D03*
Y621423D03*
X958135D03*
X966009Y617486D03*
Y629297D03*
X958135Y617486D03*
X966009Y621423D03*
X961679Y617486D03*
X962072Y621423D03*
X966009Y625360D03*
X962072D03*
Y629297D03*
X984907Y623577D03*
X976844Y623431D03*
X973883Y617486D03*
Y625360D03*
X976844Y633431D03*
X973883Y633234D03*
Y629297D03*
Y621423D03*
X976844Y616974D03*
Y626974D03*
X997309Y630273D03*
X994395Y623769D03*
X996513Y615887D03*
X993765Y630273D03*
X997939Y623769D03*
X1002765Y630273D03*
X1005576Y618478D03*
X1006309Y630273D03*
X1016309D03*
X1019934Y618613D03*
X1025309Y630273D03*
X1009120Y618478D03*
X1016391Y618613D03*
X1012765Y630273D03*
X1021765D03*
X1036309D03*
X1030970Y618667D03*
X1039934Y618613D03*
X1043765Y630273D03*
X1036391Y618613D03*
X1027391D03*
X1032765Y630273D03*
X1065411Y618628D03*
X1051631Y618470D03*
X1057537Y618628D03*
X1063458Y631305D03*
X1058309Y630273D03*
X1047309D03*
X1065411Y622171D03*
X1057537D03*
X1051631Y622013D03*
X1054765Y630273D03*
X1076246Y633234D03*
X1068372Y617486D03*
X1080183D03*
X1072309Y629297D03*
Y633234D03*
Y625360D03*
X1089238Y615517D03*
X1096324Y628509D03*
X1103017Y619454D03*
Y615517D03*
Y623391D03*
X1124277Y631265D03*
X1123490Y623391D03*
X1140025D03*
X1134513Y631265D03*
X1247506Y629297D03*
X332545Y634809D03*
X462860Y639139D03*
X479789Y643076D03*
X477820Y635202D03*
X513500Y636000D03*
X524667Y650824D03*
X536876Y643076D03*
X547111Y635202D03*
Y643076D03*
X582939Y635202D03*
X605773Y647013D03*
X601836Y635202D03*
Y643076D03*
Y647013D03*
X589631Y653706D03*
X601836Y639139D03*
X605773D03*
Y643076D03*
X597899Y650950D03*
X601836D03*
X605773Y635202D03*
X613647Y647013D03*
X621521Y643076D03*
Y647013D03*
X613647Y643076D03*
X609710Y639139D03*
X617584Y647013D03*
X609710D03*
X621521Y635202D03*
X625458Y643076D03*
Y647013D03*
X617584Y639139D03*
Y643076D03*
X609710D03*
X621521Y650950D03*
X625458D03*
X613647Y639139D03*
X617584Y635202D03*
X621521Y639139D03*
X613647Y635202D03*
X625458Y639139D03*
Y635202D03*
X609710D03*
X637269Y647013D03*
X633332D03*
X629395D03*
X641206D03*
X637269Y635202D03*
X641206Y643076D03*
X629395D03*
X645143Y650950D03*
X629395Y639139D03*
X645167Y643324D03*
X633332Y635202D03*
X637269Y639139D03*
X641206Y635202D03*
X645143D03*
X629395D03*
X641206Y639139D03*
X645143D03*
X633332D03*
X637269Y643076D03*
X633332D03*
X656954Y639139D03*
X664828Y647013D03*
X660891D03*
X656954D03*
Y635202D03*
X649080Y643076D03*
Y647013D03*
X661000Y650500D03*
X653017Y647013D03*
Y643076D03*
X649080Y650950D03*
X656954Y643076D03*
X653017Y639139D03*
X649080D03*
X660891Y635202D03*
X649080D03*
X653017D03*
X669000Y651000D03*
X684513Y647013D03*
X680576D03*
X672702Y643076D03*
Y647013D03*
X668765D03*
X676639Y643076D03*
Y647013D03*
X680576Y635202D03*
X684513Y643076D03*
X680576D03*
X672702Y639139D03*
X668765D03*
Y643076D03*
X672702Y650950D03*
X676639D03*
X684513Y639139D03*
X672702Y635202D03*
X676639Y639139D03*
X684513Y635202D03*
X680576Y639139D03*
X668765Y635202D03*
X676639D03*
X704198Y647013D03*
X696324Y643076D03*
Y647013D03*
X692387D03*
X688450D03*
Y639139D03*
X700261Y643076D03*
Y635202D03*
X692387Y639139D03*
X704198Y643076D03*
X700261Y650950D03*
X696324D03*
X692387Y643076D03*
X700261Y647013D03*
Y639139D03*
X704198D03*
X688450Y635202D03*
X704198D03*
X692387D03*
X688450Y643076D03*
X696324Y639139D03*
Y635202D03*
X719946Y639139D03*
Y643076D03*
X712072Y647013D03*
X716009Y639139D03*
X708135Y643076D03*
X719946Y647013D03*
Y635202D03*
X716009Y647013D03*
X708135D03*
X716009Y643076D03*
X712072D03*
X716009Y635202D03*
X712072Y639139D03*
X719946Y650950D03*
X723883D03*
X708135Y639139D03*
X712072Y635202D03*
X708135Y634809D03*
X728000Y653500D03*
X738450Y637171D03*
X741097Y635597D03*
X754986Y640714D03*
X803000Y648000D03*
X806836Y648031D03*
X808805Y650000D03*
X855697Y647352D03*
X865506D03*
X909710Y647407D03*
X962072Y641108D03*
X966009Y637171D03*
X958135D03*
Y641108D03*
X962072Y637171D03*
X954198Y641108D03*
Y645045D03*
Y648982D03*
X958135Y645045D03*
X966009Y652919D03*
Y648982D03*
Y645045D03*
X962072Y652919D03*
Y648982D03*
X958135Y652919D03*
Y648982D03*
X954198Y652919D03*
Y637171D03*
X969946Y652919D03*
X973883Y637171D03*
Y645045D03*
X977820D03*
X985694D03*
X981757Y652919D03*
Y645045D03*
X969946Y648982D03*
Y645045D03*
X985891Y638147D03*
X976844Y636974D03*
X998435Y638147D03*
X1005380Y641108D03*
X1001443D03*
X997506D03*
X993569D03*
X989435Y638147D03*
X989631Y645045D03*
X994891Y638147D03*
X1003891D03*
X1017191Y652919D03*
X1021128D03*
X1009317Y641108D03*
X1007435Y638147D03*
X1017191Y645045D03*
X1017435Y638147D03*
X1025065Y652919D03*
Y645045D03*
X1021128D03*
X1013254Y652919D03*
Y645045D03*
X1013891Y638147D03*
X1022891D03*
X1044750Y652919D03*
X1036876D03*
X1040813Y645045D03*
Y648982D03*
X1044750D03*
Y641108D03*
X1040813D03*
X1036876D03*
X1032939D03*
X1029002D03*
X1026435Y638147D03*
X1037435D03*
X1044750Y645045D03*
X1040813Y652919D03*
X1044891Y638147D03*
X1033891D03*
X1056561Y652919D03*
X1060498Y648982D03*
X1064435Y652919D03*
X1056561Y648982D03*
X1052624D03*
Y652919D03*
X1048687Y648982D03*
Y652919D03*
X1064435Y648982D03*
Y641108D03*
X1059435Y638147D03*
X1060498Y641108D03*
X1052624D03*
X1048435Y638147D03*
X1060498Y652919D03*
X1056561Y641108D03*
X1048687D03*
X1063458Y634848D03*
X1055891Y638147D03*
X1084120Y641108D03*
X1080183Y637171D03*
X1076246D03*
X1084120D03*
Y645045D03*
X1072309Y637171D03*
Y641108D03*
X1084120Y652919D03*
Y648982D03*
X1080183Y652919D03*
Y648982D03*
X1076246Y652919D03*
Y648982D03*
Y645045D03*
Y641108D03*
X1072309Y648982D03*
Y645045D03*
X1088057Y641108D03*
X1102624Y635202D03*
X1088057Y652919D03*
X1123883Y639139D03*
X1140025D03*
X543569Y658824D03*
Y654887D03*
Y662761D03*
Y666698D03*
Y670635D03*
X577427Y661187D03*
X603805Y665517D03*
X597899Y654887D03*
X607742Y665517D03*
X623490D03*
X619553D03*
X611679Y665911D03*
X643175Y665517D03*
X639238D03*
X631364D03*
X627427D03*
X662860D03*
X654986D03*
X651049D03*
X647112D03*
X660891Y654887D03*
X674671Y655675D03*
X670734D03*
Y665517D03*
X666797D03*
X674671D03*
X682545D03*
X678608D03*
X690419D03*
X694356D03*
X698293D03*
X702230D03*
X710104D03*
X714041D03*
X717978D03*
X723883Y654887D03*
X736500Y658000D03*
X748500Y669000D03*
X784500Y663000D03*
X812466Y656856D03*
X808529D03*
X820340Y672604D03*
X824277D03*
X820340Y664730D03*
Y668667D03*
X824277D03*
X816403Y660793D03*
Y664730D03*
X812466Y672604D03*
X820340Y660793D03*
X824277Y656856D03*
X820340D03*
X816403D03*
X824277Y660793D03*
X816403Y668667D03*
Y672604D03*
X824277Y664730D03*
X843962Y656856D03*
X836088Y672604D03*
Y664730D03*
X828214Y672604D03*
X832151D03*
X836088Y668667D03*
X832151D03*
X828214D03*
X843962D03*
X828214Y664730D03*
X840025Y656406D03*
X836088D03*
X832151D03*
X836088Y660793D03*
X832151D03*
X828214D03*
X832151Y664730D03*
X865659Y658487D03*
X855620D03*
X851836Y672604D03*
X863386Y665748D03*
X847899Y664730D03*
Y660793D03*
Y668667D03*
X851836Y660793D03*
X877608Y655675D03*
X884171Y664428D03*
Y674046D03*
X909710Y656068D03*
X966009Y656856D03*
X962072Y660793D03*
Y656856D03*
X958135Y660793D03*
Y656856D03*
X954198D03*
Y660793D03*
X969946Y656856D03*
X974000Y657000D03*
X997506Y656856D03*
X1017191D03*
X1013254Y660793D03*
X1044750D03*
X1040813Y656856D03*
X1036876D03*
X1048687Y660793D03*
Y656856D03*
X1068372D03*
X1072309Y660793D03*
X1076246D03*
X1072309Y656856D03*
X1084120Y660793D03*
Y656856D03*
X1080183Y660793D03*
Y656856D03*
X1088057Y660793D03*
Y656856D03*
X385000Y677500D03*
X477820Y694257D03*
X543569Y674572D03*
Y682446D03*
Y678509D03*
X598293Y683628D03*
X589238Y680084D03*
X591600Y685596D03*
X724277Y683234D03*
X739238D03*
X795537Y682053D03*
Y686383D03*
X805675Y685289D03*
X812466Y688352D03*
X824277Y684415D03*
Y676541D03*
Y680478D03*
Y692289D03*
Y688352D03*
X816403Y684415D03*
X820340Y688352D03*
Y680478D03*
Y676541D03*
Y684415D03*
Y692289D03*
X816403Y676541D03*
Y688352D03*
Y680478D03*
X812466Y692531D03*
X816403Y692289D03*
X843962Y684415D03*
X832151Y676541D03*
Y680478D03*
Y688352D03*
Y684415D03*
Y692289D03*
X836088Y676541D03*
Y680478D03*
Y684415D03*
X840025D03*
X836088Y688352D03*
Y692289D03*
X828214D03*
Y676541D03*
Y680478D03*
Y688352D03*
Y684415D03*
X843962Y680478D03*
Y676541D03*
X847899Y684415D03*
X854002Y679888D03*
X861285Y684415D03*
X847899Y676541D03*
X851836Y692289D03*
X847899Y688352D03*
Y680478D03*
X884171Y693200D03*
X884175Y683697D03*
X913254Y687565D03*
X925065D03*
X919159D03*
X936876D03*
X930970D03*
X942781D03*
X954592D03*
X948687D03*
X1001443Y684809D03*
X1012072Y684415D03*
X1020340Y684809D03*
X1030576D03*
X364041Y712762D03*
X356561Y708825D03*
X543569Y706069D03*
Y710006D03*
Y713943D03*
X623490Y696620D03*
X612860Y702131D03*
X636876D03*
X649080Y700163D03*
X671915Y702131D03*
X683726Y700163D03*
X697899Y702131D03*
X712466Y695439D03*
X706954Y700163D03*
X727820Y702131D03*
X733332Y705567D03*
X789188Y707932D03*
X800313Y708054D03*
X820340Y696226D03*
X824277D03*
Y700163D03*
X820340D03*
Y704100D03*
X812466Y696226D03*
X816403D03*
Y700163D03*
X812803Y711637D03*
X824277Y711974D03*
Y704100D03*
X820340Y708037D03*
X816403Y711974D03*
Y708037D03*
X812466Y700163D03*
X816403Y704100D03*
X836088Y696226D03*
Y700163D03*
X832151Y696226D03*
Y700163D03*
X828214D03*
Y696226D03*
X836088Y704100D03*
X828214Y708037D03*
Y711974D03*
X832151Y708037D03*
Y704100D03*
X836088Y708037D03*
X843962Y711974D03*
X840025D03*
X836088D03*
X843962Y696226D03*
X865646Y714281D03*
X855875D03*
X847899Y708037D03*
X851836Y696226D03*
Y708037D03*
X847899Y711974D03*
Y704100D03*
Y700163D03*
X884175Y704388D03*
X925065Y696225D03*
X919159D03*
X913254D03*
X942781D03*
X930970D03*
X936876Y696226D03*
X942781Y713943D03*
X962000Y704000D03*
X954592Y696225D03*
X948687D03*
X364041Y721422D03*
X356561Y717485D03*
X543569Y729691D03*
Y733628D03*
Y725754D03*
Y721817D03*
Y717880D03*
X800316Y719379D03*
X795537Y733838D03*
X789188Y719556D03*
X806574Y724124D03*
X808529Y715911D03*
X820340D03*
X812466D03*
X865531Y725416D03*
X855837D03*
X1004198Y734415D03*
X337565Y753313D03*
X346422D03*
X410891Y747801D03*
X448687Y748588D03*
X450655Y753313D03*
X477820Y747801D03*
X552624Y737565D03*
Y753313D03*
X574277Y737565D03*
Y753313D03*
X590025D03*
Y737565D03*
X674671D03*
Y753313D03*
X698293Y737565D03*
Y753313D03*
X727820D03*
Y737565D03*
X759317D03*
Y753313D03*
X784907Y737565D03*
Y753313D03*
X818445Y743132D03*
X806525Y735258D03*
X832080Y743132D03*
X856954Y737757D03*
X847177Y743132D03*
X901836Y751738D03*
X993167Y750154D03*
X1003411Y741895D03*
X237663Y772998D03*
X233726Y769061D03*
X241600D03*
X229789Y772998D03*
X245537Y765124D03*
X316403Y773587D03*
X452624Y758037D03*
X446718Y756069D03*
X900261Y754887D03*
X154986Y788746D03*
X221915Y776147D03*
X229789Y788746D03*
X265222Y792683D03*
X257348D03*
X253411D03*
X338057D03*
X365616Y786777D03*
X360498Y785202D03*
X902621Y783121D03*
X910498Y781068D03*
X112466Y810399D03*
X115222Y808431D03*
X120734Y806462D03*
X127427Y814336D03*
X156167Y812368D03*
X153017Y794651D03*
X161679Y806462D03*
X225852Y812368D03*
X221915Y804494D03*
X225852Y808431D03*
X212072Y802525D03*
X237663Y796620D03*
Y800557D03*
X233726Y812368D03*
Y796620D03*
Y800557D03*
X237663Y812368D03*
X229789Y796620D03*
X249474Y800557D03*
X253411D03*
X277033Y812368D03*
Y808431D03*
Y804494D03*
X269159Y812368D03*
X277033Y796620D03*
X269159Y808431D03*
X277033Y800557D03*
X340025Y814336D03*
X341994Y806462D03*
X345931Y804494D03*
X351836Y802525D03*
X920734Y794651D03*
X906954Y796620D03*
X103805Y815911D03*
X164828Y822210D03*
X176639Y816305D03*
X173883Y819061D03*
X166797Y816305D03*
X170734D03*
X221915Y832053D03*
X225852Y816305D03*
Y832053D03*
X217978Y832250D03*
X225852Y824179D03*
Y828116D03*
X237663Y816305D03*
Y820242D03*
X241600D03*
X229789Y832053D03*
Y816305D03*
X233726D03*
Y820242D03*
X229789D03*
Y828116D03*
X233726Y824179D03*
X237663Y828116D03*
X257348Y824179D03*
X261285D03*
X265222Y828116D03*
Y824179D03*
X277033D03*
Y820242D03*
X273096Y824179D03*
X280970Y828116D03*
Y824179D03*
Y820242D03*
X273096Y832053D03*
X277033Y828116D03*
X336088Y824179D03*
X338057Y818273D03*
X340025Y820242D03*
X497506Y824572D03*
X499080Y828903D03*
X495931Y827722D03*
X501049Y825360D03*
X502624Y815124D03*
X105380Y853706D03*
X105773Y841895D03*
X176639Y839927D03*
X202230D03*
X225852Y835990D03*
X221915Y843864D03*
X233726Y835990D03*
Y839927D03*
X245537D03*
X249474Y851738D03*
Y847801D03*
Y843864D03*
X253411Y835990D03*
X261285Y851738D03*
X277033Y835990D03*
Y847801D03*
Y843864D03*
X280970Y835990D03*
Y847801D03*
Y843864D03*
X277033Y839927D03*
X269159Y835990D03*
X334120Y853706D03*
X249474Y855675D03*
X261285D03*
X257348D03*
X269159D03*
X338885Y872435D03*
X377581Y864327D03*
X373520Y873671D03*
X391206Y862368D03*
X401181Y871067D03*
X430083Y873797D03*
X476211Y860397D03*
X484228Y873771D03*
X889632Y869848D03*
X910498Y868979D03*
Y874179D03*
X919158Y868979D03*
X221915Y892872D03*
X212072Y889328D03*
Y892872D03*
X221915Y889328D03*
X233726D03*
X245537D03*
Y892872D03*
X233726D03*
X257348D03*
Y889328D03*
X277033Y892683D03*
X269159Y889328D03*
X277033Y889139D03*
X269159Y892872D03*
X288254Y887565D03*
X331800Y876175D03*
X550065Y881267D03*
X601246D03*
X652427D03*
X889632Y885596D03*
X903213Y893470D03*
X991206Y876147D03*
X1095537Y886383D03*
X247506Y900163D03*
X257348Y900557D03*
X288254Y894651D03*
X342092Y906607D03*
X347861Y912810D03*
X498531Y909742D03*
X541000Y910000D03*
X539829Y900163D03*
X547506Y908823D03*
X592000Y910000D03*
X591010Y900163D03*
X598687Y908823D03*
X641000Y910000D03*
X642191Y900163D03*
X649869Y908824D03*
X928346Y905906D03*
Y911417D03*
X1058949Y907455D03*
X146718Y933963D03*
X284040Y931544D03*
X287190D03*
X296096Y932559D03*
X291907Y931310D03*
X324040Y931544D03*
X327190D03*
X331902Y930867D03*
X336449Y915971D03*
X414000Y916287D03*
X427615Y929183D03*
X431364Y921423D03*
Y917880D03*
X444985Y926622D03*
X429190Y931544D03*
X451283Y924063D03*
X468040Y931544D03*
X466403Y928903D03*
X471190Y931544D03*
X469615Y929183D03*
X512814Y924987D03*
X521671D03*
X544320Y916492D03*
X595704Y916698D03*
X644432Y916517D03*
X146718Y953975D03*
Y943957D03*
X282465Y940007D03*
X285615D03*
X325615D03*
X322465D03*
X337701Y942306D03*
X483667Y944824D03*
X929528Y952362D03*
X928740Y944488D03*
X980183Y935202D03*
X146718Y963943D03*
X1277953Y972441D03*
X1286614Y962205D03*
X122702Y980872D03*
X205380Y989139D03*
X207348Y986777D03*
X1051181Y979528D03*
X149868Y996620D03*
X1270866Y1007087D03*
X241994Y1045832D03*
X239631Y1043470D03*
X244356Y1048194D03*
X246718Y1041108D03*
X249080Y1051344D03*
X251049Y1045832D03*
G54D32*
X703479Y1028479D03*
X711668Y1021313D03*
X951431D03*
X959699Y1028400D03*
G54D40*
X259317Y471817D02*
Y479691D01*
X256561Y579641D02*
Y482446D01*
X259317Y479691*
X258529Y506462D02*
X267099Y515032D01*
Y515087*
X332880Y580868*
X343422*
X347359Y584805*
X350931*
X354869Y588742*
X358441*
X362378Y592679*
X369076*
X402364Y625967*
X481587*
X487093Y631473*
X501533*
X525362Y607643*
X597899*
X258529Y506462D02*
Y495783D01*
X267149Y487163*
X277096*
X293569Y470690*
Y465714*
X337002Y422281*
Y229824*
X340289Y226537*
X343422*
X347516Y222443*
X356660*
X273096Y515124D02*
X290925D01*
X293677Y517876*
X343422*
X347359Y521813*
X350931*
X354869Y525750*
X358441*
X362378Y529687*
X421600*
X452857Y560943*
X461898*
X465222Y544651D02*
X495170D01*
X529649Y579130*
X575999*
X582874Y586005*
X591990*
X592005Y585990*
X658923*
X660891Y587958*
X256561Y579641D02*
X324825Y647905D01*
Y691388*
X403876Y770439*
X616994*
X633332Y786777*
X898965*
X902621Y783121*
G54D68*
X1226672Y106663D02*
Y109419D01*
G54D78*
X1033167Y201824D02*
X1034773Y203431D01*
X352486Y273632D02*
Y273306D01*
X352716Y273076*
X354436*
X354436D02*
X354666Y272846D01*
X352486Y273632D02*
X352716Y273863D01*
X358602*
X361097Y276358*
Y276779*
X349140Y265907D02*
X352410Y269177D01*
Y270168*
X354666Y272424*
Y272846*
X360006Y277566D02*
Y277240D01*
X360236Y277010*
X360866*
X361097Y276779*
X360006Y294287D02*
X360827Y293466D01*
X374538*
X375359Y294287*
Y294613*
X360006Y277566D02*
X360236Y277796D01*
X365033*
X476092Y388856*
Y389277*
X1220186Y277537D02*
Y277863D01*
X1220416Y278094*
X1221896*
X1222127Y278324*
X1218425Y280684D02*
Y281010D01*
X1218655Y281241*
X1220370*
X1220600Y281471*
Y284944*
X1220830Y285174*
X1222555*
X1222786Y285404*
X1219084Y287669D02*
Y288090D01*
X1219314Y288321*
X1220784*
X1221014Y288551*
X1220186Y277537D02*
X1220938Y276785D01*
X1225676*
X1228600Y273862*
Y272693*
X1231860Y269433*
X1218425Y280684D02*
X1218655Y280454D01*
X1220419*
X1222127Y278745*
Y278324*
X1219084Y287669D02*
X1220792Y285961D01*
X1222555*
X1222786Y285730*
Y285404*
X344986Y302154D02*
Y302480D01*
X345216Y302711*
X346093*
X346323Y302941*
X344986Y302154D02*
X345216Y301924D01*
X353084*
X353314Y301694*
Y301368*
X341640Y309214D02*
X344900Y305954D01*
Y304786*
X346323Y303362*
Y302941*
X360006Y294287D02*
Y294613D01*
X360236Y294844*
X360971*
X361201Y295074*
X352486Y297434D02*
Y297760D01*
X352716Y297991*
X354103*
X354334Y298221*
X350924Y300581D02*
Y300907D01*
X351155Y301137*
X353084*
X353314Y301368*
X360006Y302161D02*
Y302487D01*
X360236Y302718*
X361106*
X361336Y302948*
X358199Y305308D02*
Y305634D01*
X358430Y305865*
X360180*
X360410Y306095*
Y307994*
X360640Y308225*
X362145*
X362376Y308455*
X360006Y309242D02*
Y309568D01*
X360236Y309798*
X361764*
X361995Y310028*
X352486Y297434D02*
X353238Y296682D01*
X359084*
X360135Y295630*
X360971*
X361201Y295400*
Y295074*
X350924Y300581D02*
X351155Y300351D01*
X351842*
X353416Y298777*
X354103*
X354334Y298547*
Y298221*
X360006Y302161D02*
X360827Y301340D01*
X371096*
X371918Y302161*
Y302487*
X358199Y305308D02*
X358430Y305078D01*
X360180*
X360410Y304847*
Y304295*
X361336Y303369*
Y302948*
X360006Y309242D02*
X360236Y309011D01*
X362145*
X362376Y308781*
Y308455*
X364160Y305277D02*
X404002Y345119D01*
Y358886*
X554334Y509218*
X556818*
X568287Y520687*
Y523458*
X574694Y529865*
Y530286*
X367152Y300120D02*
Y299794D01*
X367383Y299564*
X376302*
X376533Y299333*
X367927Y298547D02*
Y298221D01*
X368158Y297991*
X376302*
X376533Y297760*
X367506Y296973D02*
Y296648D01*
X367736Y296417*
X376302*
X376533Y296187*
X367119Y295400D02*
Y295074D01*
X367349Y294844*
X375129*
X375359Y294613*
X370182Y309568D02*
Y309242D01*
X370413Y309011*
X377836*
X378066Y308781*
X368609Y307994D02*
Y307668D01*
X368839Y307438*
X376335*
X376565Y307207*
X367895Y306421D02*
Y306095D01*
X368125Y305865*
X374834*
X375064Y305634*
X367506Y304847D02*
Y304522D01*
X367736Y304291*
X373261*
X373261D02*
X373491Y304061D01*
X367119Y303274D02*
Y302948D01*
X367349Y302718*
X371687*
X371918Y302487*
X367152Y300120D02*
X367383Y300351D01*
X371839*
X408943Y337455*
Y350047*
X568114Y509218*
X568629*
X576639Y517228*
Y517743*
X593705Y534809*
X594220*
X595931Y536520*
Y537035*
X597642Y538746*
X598157*
X599868Y540457*
Y540972*
X601579Y542683*
X602094*
X603805Y544394*
Y544909*
X605516Y546620*
X606031*
X607742Y548331*
Y548846*
X609453Y550557*
X609968*
X611679Y552268*
Y552783*
X613390Y554494*
X613905*
X615616Y556205*
Y558431*
X617584Y560399*
X367927Y298547D02*
X368158Y298777D01*
X376302*
X376533Y299008*
Y299333*
X367506Y296973D02*
X367736Y297204D01*
X376302*
X376533Y297434*
Y297760*
X367119Y295400D02*
X367349Y295630D01*
X376302*
X376533Y295861*
Y296187*
X370182Y309568D02*
X370413Y309798D01*
X373412*
X407348Y343734*
Y350708*
X568380Y511740*
Y515121*
X585882Y532623*
Y538797*
X593705Y546620*
X594220*
X595931Y548331*
Y548846*
X597642Y550557*
X598157*
X599868Y552268*
Y552783*
X601579Y554494*
X602094*
X603805Y556205*
Y556720*
X605516Y558431*
X606031*
X607742Y560142*
Y560657*
X609453Y562368*
X609968*
X611679Y564079*
Y564594*
X613390Y566305*
X613905*
X616008Y568408*
Y573188*
X368609Y307994D02*
X368839Y308225D01*
X377836*
X378066Y308455*
Y308781*
X367895Y306421D02*
X368125Y306651D01*
X376335*
X376565Y306882*
Y307207*
X367506Y304847D02*
X367736Y305078D01*
X374834*
X375064Y305308*
Y305634*
X367119Y303274D02*
X367349Y303504D01*
X373261*
X373261D02*
X373491Y303735D01*
Y304061*
X356660Y316931D02*
X360410Y313181D01*
Y310815*
X360640Y310585*
X361764*
X361995Y310354*
Y310028*
X1044589Y345545D02*
X1049000Y341134D01*
Y263500*
X1212686Y344466D02*
Y344792D01*
X1212916Y345023*
X1213390*
X1213621Y345253*
X1212686Y344466D02*
X1213438Y343714D01*
X1218157*
X1221090Y340781*
Y339632*
X1224360Y336362*
X341640Y372206D02*
X349935D01*
X350764Y373036*
X351186*
X351416Y372805*
Y370955*
X351646Y370725*
X351972*
X352203Y370955*
Y374474*
X352900Y375172*
Y380895*
X355865Y383860*
X358363*
X358631Y384129*
X359053*
X359283Y383898*
Y382262*
X359513Y382031*
X359839*
X360070Y382262*
Y385567*
X362457Y387954*
X368763*
X455260Y474452*
Y478808*
X455491Y479038*
X455817*
X456047Y478808*
Y470883*
X456278Y470653*
X456603*
X456834Y470883*
Y480381*
X457064Y480612*
X457390*
X457621Y480381*
Y472456*
X457851Y472226*
X458177*
X458407Y472456*
Y481955*
X458638Y482185*
X458964*
X459194Y481955*
Y474030*
X459424Y473799*
X459750*
X459981Y474030*
Y483528*
X460211Y483759*
X460537*
X460767Y483528*
Y475603*
X460998Y475373*
X461324*
X461554Y475603*
Y485102*
X461785Y485332*
X462110*
X462341Y485102*
Y477177*
X462571Y476946*
X462897*
X463127Y477177*
Y486675*
X463358Y486906*
X463358D02*
X463684D01*
X463684D02*
X463914Y486675D01*
Y478750*
X464145Y478520*
X464470*
X464701Y478750*
Y488248*
X464931Y488479*
X465257*
X465488Y488248*
Y480323*
X465718Y480093*
X466044*
X466274Y480323*
Y485466*
X510720Y529912*
X532237*
X554592Y552267*
Y552783*
X558263Y556454*
X564706*
X568372Y560120*
Y560679*
X570420Y562727*
X575570*
X580167Y567324*
X349140Y368269D02*
X357612D01*
X360410Y371067*
Y377125*
X363365Y380080*
X374273*
X456692Y462499*
Y466767*
X456922Y466998*
X457248*
X457479Y466767*
Y459017*
X457709Y458787*
X458035*
X458265Y459017*
Y468341*
X458496Y468571*
X458822*
X459052Y468341*
Y460591*
X459282Y460360*
X459608*
X459839Y460591*
Y469914*
X460069Y470145*
X460395*
X460625Y469914*
Y462164*
X460856Y461934*
X461182*
X461412Y462164*
Y471488*
X461643Y471718*
X461968*
X462199Y471488*
Y463738*
X462429Y463507*
X462755*
X462986Y463738*
Y473061*
X463216Y473291*
X463542*
X463772Y473061*
Y465311*
X464003Y465081*
X464329*
X464559Y465311*
Y470366*
X519439Y525246*
X543319*
X554592Y536519*
Y537035*
X555816Y538259*
Y542847*
X556047Y543077*
X556373*
X556603Y542847*
Y538582*
X556833Y538351*
X557159*
X557390Y538582*
Y543024*
X557620Y543254*
X557946*
X558176Y543024*
Y536912*
X558407Y536682*
X558733*
X558963Y536912*
Y545112*
X559193Y545343*
X559519*
X559750Y545112*
Y538486*
X559980Y538255*
X560306*
X560536Y538486*
Y546686*
X560767Y546916*
X561093*
X561323Y546686*
Y540059*
X561554Y539829*
X561879*
X562110Y540059*
Y544553*
X566153Y548596*
X571760*
X597343Y574179*
X598157*
X599868Y575890*
Y576405*
X601579Y578116*
X602094*
X603805Y579827*
Y580342*
X605516Y582053*
X607742*
X609710Y584021*
X356660Y364175D02*
X381990D01*
X457617Y439802*
X458038*
X458269Y439572*
Y436061*
X458499Y435830*
X458825*
X459056Y436061*
Y445634*
X459286Y445864*
X459612*
X459842Y445634*
Y437634*
X460073Y437404*
X460399*
X460629Y437634*
Y447207*
X460859Y447438*
X461185*
X461416Y447207*
Y439208*
X461646Y438977*
X461972*
X462202Y439208*
Y448781*
X462433Y449011*
X462759*
X462989Y448781*
Y440781*
X463219Y440551*
X463545*
X463776Y440781*
Y450354*
X464006Y450584*
X464332*
X464562Y450354*
Y442354*
X464793Y442124*
X465119*
X465349Y442354*
Y451927*
X465580Y452158*
X465905*
X466136Y451927*
Y443928*
X466366Y443697*
X466692*
X466923Y443928*
Y453501*
X467153Y453731*
X467479*
X467709Y453501*
Y445501*
X467940Y445271*
X468266*
X468496Y445501*
Y455074*
X468726Y455305*
X469052*
X469283Y455074*
Y447075*
X469513Y446844*
X469839*
X470069Y447075*
Y456648*
X470300Y456878*
X470626*
X470856Y456648*
Y448648*
X471086Y448418*
X471412*
X471643Y448648*
Y453828*
X541346Y523531*
X555405*
X568380Y536506*
Y537043*
X593705Y562368*
X602094*
X603805Y564079*
Y564594*
X605516Y566305*
X606031*
X607742Y568016*
Y568531*
X609453Y570242*
X611679*
X613647Y572210*
X1210840Y355573D02*
Y355898D01*
X1211070Y356129*
X1212860*
X1213090Y356359*
Y359832*
X1213320Y360062*
X1214950*
X1215181Y360293*
X1211499Y362557D02*
Y362979D01*
X1211729Y363209*
X1213264*
X1213494Y363440*
X1210840Y355573D02*
X1211070Y355342D01*
X1212860*
X1213090Y355112*
Y351923*
X1216840Y348173*
X1211499Y362557D02*
X1213207Y360849D01*
X1214950*
X1215181Y360619*
Y360293*
X341640Y380080D02*
X344688Y383128D01*
Y384296*
X348346Y387954*
X351010*
X354790Y391734*
X358363*
X362457Y395828*
X366285*
X385309Y414852*
Y415783*
X468863Y499337*
X469284*
X469515Y499107*
Y495626*
X469745Y495395*
X470071*
X470301Y495626*
Y505139*
X470532Y505369*
X470858*
X471088Y505139*
Y497199*
X471318Y496968*
X471318D02*
X471644D01*
X471644D02*
X471875Y497199D01*
Y506712*
X472105Y506943*
X472431*
X472661Y506712*
Y498772*
X472892Y498542*
X473218*
X473448Y498772*
Y508286*
X473679Y508516*
X474004*
X474235Y508286*
Y500346*
X474465Y500115*
X474791*
X475022Y500346*
Y509859*
X475252Y510089*
X475578*
X475808Y509859*
Y501919*
X476039Y501689*
X476365*
X476595Y501919*
Y511432*
X476825Y511663*
X477151*
X477382Y511432*
Y503493*
X477612Y503262*
X477938*
X478168Y503493*
Y513006*
X478399Y513236*
X478725*
X478955Y513006*
Y505066*
X479185Y504836*
X479511*
X479742Y505066*
Y514579*
X479972Y514810*
X480298*
X480528Y514579*
Y506639*
X480759Y506409*
X481085*
X481315Y506639*
Y511789*
X502586Y533060*
X529221*
X560462Y564301*
X572264*
X577518Y569555*
X580398*
X582167Y571324*
X473069Y393211D02*
Y392885D01*
X473299Y392655*
X479802*
X480033Y392424*
X471495Y391637D02*
Y391312D01*
X471726Y391081*
X478229*
X478459Y390851*
X469922Y390064D02*
Y389738D01*
X470152Y389508*
X475862*
X476092Y389277*
X473069Y393211D02*
X473299Y393441D01*
X480678*
X568364Y481128*
Y505553*
X593683Y530872*
X594220*
X595931Y532583*
Y533098*
X597642Y534809*
X598157*
X599868Y536520*
Y537035*
X601579Y538746*
X602094*
X603805Y540457*
Y540972*
X605516Y542683*
X606031*
X607742Y544394*
Y544909*
X609453Y546620*
X609968*
X611679Y548331*
Y548846*
X613390Y550557*
X613905*
X615616Y552268*
Y552783*
X617327Y554494*
X617842*
X619159Y555811*
Y561051*
X471495Y391637D02*
X471726Y391868D01*
X479802*
X480033Y392098*
Y392424*
X469922Y390064D02*
X470152Y390294D01*
X478229*
X478459Y390525*
Y390851*
X1100622Y395543D02*
Y395868D01*
X1100853Y396099*
X1107154*
X1107384Y396329*
X1100622Y395543D02*
X1100853Y395312D01*
X1106289*
X1208546Y293055*
X1211122*
X1214547Y289629*
X1220262*
X1221014Y288877*
Y288551*
X1044589Y345545D02*
Y433244D01*
X1045000Y433655*
X1113561Y428775D02*
Y429101D01*
X1113792Y429331*
X1121608*
X1121838Y429562*
X1112434Y430348D02*
Y430674D01*
X1112665Y430905*
X1121644*
X1121875Y431135*
X1112451Y431922D02*
Y432248D01*
X1112682Y432478*
X1120838*
X1121069Y432709*
X1110878Y433495D02*
Y433821D01*
X1111108Y434052*
X1119265*
X1119495Y434282*
X1125794Y427070D02*
Y427396D01*
X1126025Y427626*
X1134082*
X1134313Y427857*
X1124221Y428643D02*
Y428969D01*
X1124451Y429200*
X1132509*
X1132739Y429430*
X1122648Y430217D02*
Y430543D01*
X1122878Y430773*
X1131544*
X1131774Y431004*
X1113561Y428775D02*
X1113792Y428545D01*
X1120300*
X1208546Y340299*
X1210135*
X1213580Y336854*
Y335685*
X1216840Y332425*
X1112434Y430348D02*
X1112665Y430118D01*
X1121608*
X1121838Y429888*
Y429562*
X1112451Y431922D02*
X1112682Y431691D01*
X1121644*
X1121875Y431461*
Y431135*
X1110878Y433495D02*
X1111108Y433265D01*
X1120838*
X1121069Y433034*
Y432709*
X1125794Y427070D02*
X1126025Y426840D01*
X1134695*
X1134925Y426609*
Y426283*
X1124221Y428643D02*
X1124451Y428413D01*
X1134082*
X1134313Y428183*
Y427857*
X1122648Y430217D02*
X1122878Y429986D01*
X1132509*
X1132739Y429756*
Y429430*
X1136038Y420681D02*
Y421102D01*
X1136268Y421333*
X1139415*
X1139645Y421563*
X1130340Y422350D02*
Y422676D01*
X1130571Y422906*
X1137841*
X1138072Y423136*
X1128767Y423923D02*
Y424249D01*
X1128997Y424479*
X1136268*
X1136498Y424710*
X1127193Y425497D02*
Y425822D01*
X1127424Y426053*
X1134695*
X1134925Y426283*
X1136038Y420681D02*
X1208546Y348173D01*
X1211122*
X1213621Y345674*
Y345253*
X1130340Y422350D02*
X1130571Y422119D01*
X1139415*
X1139645Y421889*
Y421563*
X1128767Y423923D02*
X1128997Y423693D01*
X1137841*
X1138072Y423462*
Y423136*
X1127193Y425497D02*
X1127424Y425266D01*
X1136268*
X1136498Y425036*
X1136498D02*
Y424710D01*
X1109305Y435069D02*
Y435395D01*
X1109535Y435625*
X1117691*
X1117922Y435855*
X1107731Y436642D02*
Y436968D01*
X1107962Y437198*
X1116118*
X1116348Y437429*
X1123713Y442896D02*
Y443222D01*
X1123943Y443453*
X1131683*
X1131913Y443683*
X1122139Y444470D02*
Y444796D01*
X1122370Y445026*
X1130109*
X1130340Y445256*
X1120566Y446043D02*
Y446369D01*
X1120796Y446599*
X1128536*
X1128766Y446830*
X1118993Y447617D02*
Y447942D01*
X1119223Y448173*
X1126963*
X1127193Y448403*
X1117419Y449190D02*
Y449516D01*
X1117650Y449746*
X1125389*
X1125620Y449977*
X1115846Y450763D02*
Y451089D01*
X1116076Y451320*
X1123816*
X1124046Y451550*
X1109305Y435069D02*
X1109535Y434838D01*
X1119265*
X1119495Y434608*
Y434282*
X1107731Y436642D02*
X1107962Y436412D01*
X1117691*
X1117922Y436181*
Y435855*
X1123713Y442896D02*
X1123943Y442666D01*
X1130410*
X1134041Y439035*
Y433177*
X1203222Y363996*
X1213264*
X1213494Y363765*
Y363440*
X1122139Y444470D02*
X1122370Y444239D01*
X1131683*
X1131913Y444009*
Y443683*
X1120566Y446043D02*
X1120796Y445813D01*
X1130109*
X1130340Y445582*
Y445256*
X1118993Y447617D02*
X1119223Y447386D01*
X1128536*
X1128766Y447156*
Y446830*
X1117419Y449190D02*
X1117650Y448960D01*
X1126963*
X1127193Y448729*
Y448403*
X1115846Y450763D02*
X1116076Y450533D01*
X1125389*
X1125620Y450303*
Y449977*
X1045000Y455000D02*
Y433655D01*
X333167Y488824D02*
Y481873D01*
X348503Y466537*
X356660*
X341640Y490317D02*
X344900Y493577D01*
Y494745*
X348346Y498191*
X349935*
X352900Y501156*
Y507036*
X355865Y510002*
X358441*
X362378Y513939*
X364954*
X372030Y521014*
Y521687*
X377667Y527324*
X1021683Y512613D02*
Y512939D01*
X1021913Y513169*
X1029792*
X1030022Y513399*
X1021683Y512613D02*
X1021913Y512382D01*
X1028412*
X1028642Y512152*
Y511130*
X1087277Y452495*
Y419055*
X1209340Y296992*
X1021683Y514186D02*
X1021913Y513956D01*
X1029792*
X1030022Y513725*
Y513399*
X1031363Y509721D02*
X1037377Y503707D01*
X1040616*
X1041796Y504887*
X1045036*
X1049277Y500646*
Y491694*
X1208546Y332425*
X1210135*
X1213090Y329470*
Y323570*
X1216046Y320614*
X1217635*
X1220600Y317649*
Y311768*
X1223565Y308803*
X1225154*
X1228110Y305848*
Y296805*
X1231860Y293055*
X570318Y534220D02*
Y533894D01*
X570549Y533663*
X578618*
X578849Y533433*
X569403Y532646D02*
Y532320D01*
X569633Y532090*
X578358*
X578588Y531859*
X569403Y531073D02*
Y530747D01*
X569633Y530516*
X574463*
X574694Y530286*
X570318Y534220D02*
X570549Y534450D01*
X579279*
X588854Y544025*
Y544447*
X569403Y532646D02*
X569633Y532877D01*
X578618*
X578849Y533107*
Y533433*
X569403Y531073D02*
X569633Y531303D01*
X578358*
X578588Y531534*
Y531859*
X705773Y531863D02*
X707158Y530478D01*
X708786*
X713648Y525617*
Y520051*
X766212Y467487*
X770145*
X825964Y411667*
Y410856*
X864863Y371958*
X866154*
X935447Y302665*
Y299405*
X983057Y251795*
X987624*
X1034773Y204646*
Y203431*
X706561Y532189D02*
X707484Y531266D01*
X709113*
X709113D02*
X714435Y525943D01*
Y520377*
X766539Y468274*
X770471*
X826717Y412028*
Y411914*
X826752Y411879*
Y411182*
X865189Y372745*
X866480*
X936234Y302991*
Y299732*
X983383Y252582*
X987950*
X1035561Y204972*
Y203431*
X1037167Y201824*
X798081Y517118D02*
X800000Y515199D01*
Y500500*
X1021683Y514186D02*
Y514512D01*
X1021913Y514742*
X1029792*
X1030022Y514973*
X1020053Y515760D02*
Y516085D01*
X1020283Y516316*
X1028412*
X1028643Y516546*
X1019748Y517333D02*
Y517659D01*
X1019979Y517889*
X1028412*
X1028642Y518120*
X1018765Y534579D02*
Y534253D01*
X1018995Y534023*
X1023260*
X1023490Y533792*
Y532446*
X1025065Y530872*
X1020053Y515760D02*
X1020283Y515529D01*
X1029792*
X1030022Y515299*
Y514973*
X1019748Y517333D02*
X1019979Y517102D01*
X1028412*
X1028643Y516872*
Y516546*
X1013254Y526935D02*
Y511586D01*
X1019805Y505034*
Y499517*
X1069159Y450163*
Y432442*
X1104715Y396886*
X1107154*
X1107384Y396655*
Y396329*
X1031363Y509721D02*
Y515698D01*
X1031593Y515929*
X1039071*
X1039302Y516159*
X1030081Y516946D02*
Y517272D01*
X1030311Y517502*
X1031133*
X1031363Y517733*
X1028642Y518120D02*
Y520973D01*
X1030576Y522907*
X1030081Y516946D02*
X1030311Y516715D01*
X1039071*
X1039302Y516485*
Y516159*
X1032939Y530872D02*
Y529229D01*
X1034907Y527261*
Y524676*
X1101285Y458298*
Y447560*
X1110860Y437985*
X1116118*
X1116348Y437755*
Y437429*
X1036876Y526935D02*
Y524676D01*
X1102677Y458874*
Y454042*
X1125159Y431560*
X1131544*
X1131774Y431329*
Y431004*
X1060498Y526935D02*
X1143239Y444193D01*
Y440702*
X1143470Y440471*
X1143796*
X1144026Y440702*
Y449259*
X1144256Y449489*
X1144582*
X1144813Y449259*
Y438403*
X1145043Y438172*
X1145369*
X1145599Y438403*
Y446960*
X1145830Y447190*
X1146156*
X1146386Y446960*
Y436829*
X1146617Y436599*
X1146942*
X1147173Y436829*
Y445386*
X1147403Y445617*
X1147729*
X1147960Y445386*
Y435256*
X1148190Y435026*
X1148516*
X1148746Y435256*
Y443813*
X1148977Y444043*
X1149303*
X1149533Y443813*
Y433683*
X1149763Y433452*
X1150089*
X1150320Y433683*
Y442240*
X1150550Y442470*
X1150876*
X1151106Y442240*
Y432109*
X1151337Y431879*
X1151663*
X1151893Y432109*
Y440666*
X1152123Y440897*
X1152449*
X1152680Y440666*
Y430348*
X1152910Y430118*
X1153236*
X1153466Y430348*
Y438691*
X1153697Y438921*
X1154023*
X1154253Y438691*
Y429095*
X1154484Y428865*
X1154809*
X1155040Y429095*
Y437117*
X1155270Y437348*
X1155596*
X1155827Y437117*
Y431606*
X1163424Y424008*
X1198325*
X1203293Y419039*
X1211452*
X1211682Y418809*
Y417722*
X1211913Y417492*
X1212239*
X1212469Y417722*
Y418809*
X1212699Y419039*
X1216840*
X1070735Y534157D02*
X1072051Y532840D01*
X1072566*
X1074277Y531129*
Y530614*
X1107111Y497780*
X1150748*
X1150978Y497550*
Y493354*
X1151208Y493123*
X1151534*
X1151765Y493354*
Y502206*
X1151995Y502437*
X1152321*
X1152551Y502206*
Y493354*
X1152782Y493123*
X1153108*
X1153338Y493354*
Y502206*
X1153569Y502437*
X1153894*
X1154125Y502206*
Y493354*
X1154355Y493123*
X1154681*
X1154912Y493354*
Y502206*
X1155142Y502437*
X1155468*
X1155698Y502206*
Y493354*
X1155929Y493123*
X1156255*
X1156485Y493354*
Y502206*
X1156715Y502437*
X1157041*
X1157272Y502206*
Y493354*
X1157502Y493123*
X1157828*
X1158058Y493354*
Y502206*
X1158289Y502437*
X1158615*
X1158845Y502206*
Y493354*
X1159075Y493123*
X1159401*
X1159632Y493354*
Y502206*
X1159862Y502437*
X1160188*
X1160418Y502206*
Y493354*
X1160649Y493123*
X1160975*
X1161205Y493354*
Y502206*
X1161436Y502437*
X1161761*
X1161992Y502206*
Y493354*
X1162222Y493123*
X1162548*
X1162779Y493354*
Y502206*
X1163009Y502437*
X1163335*
X1163565Y502206*
Y493354*
X1163796Y493123*
X1164122*
X1164352Y493354*
Y502206*
X1164582Y502437*
X1164908*
X1165139Y502206*
Y498010*
X1165370Y497780*
X1211200*
X1214980Y494000*
X1218710*
X1222490Y497780*
X1225154*
X1228600Y494334*
Y493166*
X1231860Y489906*
X334513Y536777D02*
X339234Y541498D01*
X343422*
X347359Y537561*
X350931*
X354869Y541498*
X359032*
X362969Y545435*
X372431*
X375198Y542667*
X431839*
X451690Y562518*
X462549*
X463552Y561515*
Y544073*
X464564Y543061*
X504474*
X504704Y542831*
Y538725*
X504935Y538494*
X505261*
X505491Y538725*
Y547397*
X505722Y547628*
X506047*
X506278Y547397*
Y538725*
X506508Y538494*
X506834*
X507065Y538725*
Y547397*
X507295Y547628*
X507621*
X507851Y547397*
Y538725*
X508082Y538494*
X508408*
X508638Y538725*
Y547397*
X508868Y547628*
X509194*
X509425Y547397*
Y538725*
X509655Y538494*
X509981*
X510211Y538725*
Y547397*
X510442Y547628*
X510768*
X510998Y547397*
Y538725*
X511228Y538494*
X511554*
X511785Y538725*
Y547397*
X512015Y547628*
X512341*
X512571Y547397*
Y538725*
X512802Y538494*
X513128*
X513358Y538725*
Y547397*
X513589Y547628*
X513914*
X514145Y547397*
Y538725*
X514375Y538494*
X514701*
X514932Y538725*
Y547397*
X515162Y547628*
X515488*
X515718Y547397*
Y538725*
X515949Y538494*
X516275*
X516505Y538725*
Y547397*
X516735Y547628*
X517061*
X517292Y547397*
Y538725*
X517522Y538494*
X517848*
X518078Y538725*
Y547397*
X518309Y547628*
X518635*
X518865Y547397*
Y538725*
X519095Y538494*
X519421*
X519652Y538725*
Y542831*
X519882Y543061*
X522344*
X544765Y565482*
X572264*
X580518Y573736*
X595488*
X597899Y576147*
X584671Y549954D02*
Y549628D01*
X584902Y549397*
X592158*
X592388Y549167*
X584514Y548380D02*
Y548054D01*
X584745Y547824*
X592270*
X592500Y547593*
X584349Y546807D02*
Y546481D01*
X584579Y546250*
X591206*
X591436Y546020*
X584671Y549954D02*
X584902Y550184D01*
X593847*
X595931Y552268*
Y552783*
X597642Y554494*
X598157*
X599868Y556205*
Y556720*
X601579Y558431*
X602094*
X603805Y560142*
Y560657*
X605516Y562368*
X606031*
X607742Y564079*
Y564594*
X609453Y566305*
X609968*
X611679Y568016*
Y568531*
X613390Y570242*
X613905*
X615221Y571558*
Y572862*
X584514Y548380D02*
X584745Y548611D01*
X592158*
X592388Y548841*
Y549167*
X584349Y546807D02*
X584579Y547037D01*
X592270*
X592500Y547268*
Y547593*
X603805Y548331D02*
Y548846D01*
X605516Y550557*
X606031*
X607742Y552268*
X587678Y545233D02*
Y544907D01*
X587908Y544677*
X588624*
X588854Y544447*
X587678Y545233D02*
X587908Y545464D01*
X591206*
X591436Y545694*
Y546020*
X597899Y544651D02*
X599868Y546620D01*
X602094*
X603805Y548331*
X607742Y552268D02*
Y552783D01*
X609453Y554494*
X609968*
X611679Y556205*
X798081Y517118D02*
Y536580D01*
X798574Y537074*
X1018629Y536153D02*
Y535827D01*
X1018859Y535596*
X1023260*
X1023490Y535366*
X1018629Y536153D02*
X1018859Y536383D01*
X1025716*
X1027033Y535066*
Y534551*
X1028744Y532840*
X1029259*
X1031363Y530736*
Y517733*
X1018765Y534579D02*
X1018995Y534810D01*
X1023260*
X1023490Y535040*
Y535366*
X1025065Y534809D02*
X1027033Y532840D01*
Y530614*
X1028744Y528903*
X1029259*
X1030576Y527587*
Y522907*
X1044750Y538746D02*
X1046718Y536777D01*
Y534551*
X1048429Y532840*
X1048944*
X1050655Y531129*
Y528264*
X1136231Y442687*
Y435050*
X1136462Y434820*
X1136788*
X1137018Y435050*
Y442768*
X1137248Y442998*
X1137248D02*
X1137574D01*
X1137805Y442768*
Y431240*
X1138035Y431010*
X1138361*
X1138591Y431240*
Y438474*
X1138822Y438704*
X1139148*
X1139378Y438474*
Y429667*
X1139609Y429437*
X1139934*
X1140165Y429667*
Y434653*
X1140395Y434883*
X1140721*
X1140952Y434653*
Y428094*
X1141182Y427863*
X1141508*
X1141738Y428094*
Y430713*
X1141969Y430943*
X1142295*
X1142525Y430713*
Y426057*
X1142755Y425827*
X1143081*
X1143312Y426057*
Y427687*
X1143542Y427917*
X1143868*
X1144098Y427687*
Y424484*
X1144329Y424253*
X1144655*
X1144885Y424484*
Y426114*
X1145116Y426344*
X1145441*
X1145672Y426114*
Y422910*
X1145902Y422680*
X1146228*
X1146458Y422910*
Y424540*
X1146689Y424771*
X1147015*
X1147245Y424540*
Y421337*
X1147476Y421107*
X1147801*
X1148032Y421337*
Y422967*
X1148262Y423197*
X1148588*
X1148819Y422967*
Y419764*
X1149049Y419533*
X1149375*
X1149605Y419764*
Y421393*
X1149836Y421624*
X1150162*
X1150392Y421393*
Y418190*
X1150622Y417960*
X1150948*
X1151179Y418190*
Y419820*
X1151409Y420050*
X1151735*
X1151965Y419820*
Y417080*
X1152196Y416849*
X1152522*
X1152752Y417080*
Y419699*
X1152983Y419930*
X1153308*
X1153539Y419699*
Y415506*
X1153769Y415276*
X1154095*
X1154325Y415506*
X1154325D02*
Y422740D01*
X1154325D02*
X1154556Y422970D01*
X1154882*
X1155112Y422740*
Y416388*
X1199705Y371795*
X1210934*
X1211755Y372616*
Y373185*
X1211985Y373415*
X1212311*
X1212541Y373185*
Y369619*
X1212772Y369389*
X1213098*
X1213328Y369619*
Y374002*
X1214468Y375142*
X1219391*
X1219622Y375372*
Y377489*
X1219852Y377719*
X1220178*
X1220408Y377489*
Y373955*
X1222569Y371795*
X1226472*
X1226702Y371565*
Y370478*
X1226932Y370248*
X1227258*
X1227489Y370478*
Y371565*
X1227719Y371795*
X1231860*
X1036876Y538746D02*
X1038844Y536777D01*
Y534551*
X1040555Y532840*
X1041070*
X1042781Y531129*
Y530295*
X1120970Y452106*
X1123816*
X1124046Y451876*
Y451550*
X1052624Y538746D02*
X1054592Y536777D01*
Y534551*
X1056303Y532840*
X1056818*
X1058529Y531129*
Y523386*
X1140532Y441383*
Y436384*
X1140762Y436154*
X1141088*
X1141319Y436384*
Y443913*
X1141549Y444144*
X1141875*
X1142105Y443913*
Y432182*
X1142336Y431951*
X1142662*
X1142892Y432182*
Y439454*
X1143122Y439685*
X1143448*
X1143679Y439454*
Y428934*
X1143909Y428704*
X1144235*
X1144465Y428934*
Y437155*
X1144696Y437386*
X1145022*
X1145252Y437155*
Y427361*
X1145483Y427131*
X1145808*
X1146039Y427361*
Y435582*
X1146269Y435812*
X1146595*
X1146825Y435582*
X1146825D02*
Y425788D01*
X1146825D02*
X1147056Y425557D01*
X1147382*
X1147612Y425788*
Y434009*
X1147843Y434239*
X1148168*
X1148399Y434009*
Y424214*
X1148629Y423984*
X1148955*
X1149186Y424214*
Y432435*
X1149416Y432666*
X1149742*
X1149972Y432435*
Y422641*
X1150203Y422410*
X1150529*
X1150759Y422641*
Y430862*
X1150989Y431092*
X1151315*
X1151546Y430862*
Y421067*
X1151776Y420837*
X1152102*
X1152332Y421067*
Y428701*
X1152563Y428931*
X1152984*
X1161808Y420107*
X1189771*
X1206587Y403291*
X1211104*
X1211335Y403061*
Y402322*
X1211565Y402091*
X1211891*
X1212122Y402322*
Y405048*
X1212352Y405278*
X1212678*
X1212908Y405048*
Y401505*
X1215059Y399354*
X1218972*
X1219202Y399124*
Y398018*
X1219432Y397787*
X1219758*
X1219989Y398018*
Y399124*
X1220219Y399354*
X1224360*
X1064435Y538746D02*
X1066403Y536777D01*
X1068629*
X1069947Y535459*
Y531007*
X1147965Y452989*
X1148387*
X1148617Y453219*
Y457911*
X1148847Y458142*
X1149173*
X1149404Y457911*
Y448318*
X1149634Y448088*
X1149960*
X1150190Y448318*
Y456338*
X1150421Y456568*
X1150747*
X1150977Y456338*
Y446745*
X1151208Y446514*
X1151533*
X1151764Y446745*
Y454765*
X1151994Y454995*
X1152320*
X1152551Y454765*
Y445171*
X1152781Y444941*
X1153107*
X1153337Y445171*
Y453191*
X1153568Y453422*
X1153894*
X1154124Y453191*
Y443598*
X1154354Y443368*
X1154680*
X1154911Y443598*
Y451618*
X1155141Y451848*
X1155467*
X1155697Y451618*
Y442025*
X1155928Y441794*
X1156254*
X1156484Y442025*
Y450044*
X1156715Y450275*
X1157040*
X1157271Y450044*
Y440451*
X1157501Y440221*
X1157827*
X1158057Y440451*
Y448471*
X1158288Y448701*
X1158614*
X1158844Y448471*
Y438878*
X1159075Y438647*
X1159400*
X1159631Y438878*
Y446898*
X1159861Y447128*
X1160187*
X1160418Y446898*
Y437304*
X1160648Y437074*
X1160974*
X1161204Y437304*
Y445324*
X1161435Y445555*
X1161761*
X1161991Y445324*
Y438963*
X1163355Y437599*
X1198271*
X1205019Y430850*
X1209340*
X1060498Y538746D02*
X1062466Y536777D01*
X1064692*
X1066403Y535066*
Y530614*
X1068114Y528903*
X1068629*
X1109136Y488396*
Y487152*
X1167181Y429107*
X1173343*
X1173573Y429337*
Y434647*
X1173804Y434878*
X1174130*
X1174360Y434647*
Y426746*
X1174590Y426516*
X1174916*
X1175147Y426746*
Y434647*
X1175377Y434878*
X1175703*
X1175933Y434647*
Y426746*
X1176164Y426516*
X1176490*
X1176720Y426746*
Y434647*
X1176951Y434878*
X1177276*
X1177507Y434647*
Y426746*
X1177737Y426516*
X1178063*
X1178294Y426746*
Y428877*
X1178524Y429107*
X1192840*
X1194181Y430448*
Y430945*
X1195601Y432365*
Y435073*
X1195831Y435304*
X1196157*
X1196388Y435073*
Y432517*
X1196618Y432287*
X1196944*
X1197174Y432517*
Y435073*
X1197405Y435304*
X1197731*
X1197961Y435073*
Y427621*
X1198191Y427391*
X1198517*
X1198748Y427621*
Y434248*
X1198978Y434478*
X1199304*
X1199534Y434248*
Y426320*
X1199765Y426090*
X1200091*
X1200321Y426320*
Y432674*
X1200552Y432905*
X1200877*
X1201108Y432674*
Y425544*
X1201338Y425313*
X1201664*
X1201895Y425544*
Y431101*
X1202125Y431331*
X1202451*
X1202681Y431101*
Y423970*
X1202912Y423740*
X1203238*
X1203468Y423970*
Y429833*
X1203698Y430064*
X1204024*
X1204255Y429833*
Y422420*
X1204485Y422190*
X1204811*
X1205041Y422420*
Y429833*
X1205272Y430064*
X1205598*
X1205828Y429833*
Y425213*
X1206058Y424983*
X1206384*
X1206615Y425213*
Y426683*
X1206846Y426913*
X1211104*
X1211335Y426683*
Y425944*
X1211565Y425713*
X1211891*
X1212122Y425944*
Y428670*
X1212352Y428900*
X1212678*
X1212908Y428670*
Y425127*
X1215059Y422976*
X1218972*
X1219202Y422746*
Y421640*
X1219432Y421409*
X1219758*
X1219989Y421640*
Y422746*
X1220219Y422976*
X1224360*
X1070735Y534157D02*
Y535461D01*
X1071657Y536383*
X1076897*
X1078214Y535066*
Y534551*
X1079531Y533234*
X1080834*
X1082151Y534551*
Y535066*
X1083862Y536777*
X1085627*
X1086414Y537565*
X1089238*
X1072309Y534809D02*
X1074277Y532840D01*
X1076503*
X1078214Y531129*
Y530614*
X1080128Y528700*
X1152816*
X1153047Y528470*
Y524355*
X1153277Y524124*
X1153603*
X1153833Y524355*
Y533045*
X1154064Y533276*
X1154390*
X1154620Y533045*
Y524355*
X1154851Y524124*
X1155176*
X1155407Y524355*
Y533045*
X1155637Y533276*
X1155963*
X1156194Y533045*
Y524355*
X1156424Y524124*
X1156750*
X1156980Y524355*
Y533045*
X1157211Y533276*
X1157537*
X1157767Y533045*
Y524355*
X1157997Y524124*
X1158323*
X1158554Y524355*
Y533045*
X1158784Y533276*
X1159110*
X1159340Y533045*
Y524355*
X1159571Y524124*
X1159897*
X1160127Y524355*
Y533045*
X1160357Y533276*
X1160683*
X1160914Y533045*
Y524355*
X1161144Y524124*
X1161470*
X1161700Y524355*
Y533045*
X1161931Y533276*
X1162257*
X1162487Y533045*
Y524355*
X1162718Y524124*
X1163043*
X1163274Y524355*
Y533045*
X1163504Y533276*
X1163830*
X1164061Y533045*
Y524355*
X1164291Y524124*
X1164617*
X1164847Y524355*
Y533045*
X1165078Y533276*
X1165404*
X1165634Y533045*
Y524355*
X1165864Y524124*
X1166190*
X1166421Y524355*
Y533045*
X1166651Y533276*
X1166977*
X1167207Y533045*
Y524355*
X1167438Y524124*
X1167764*
X1167994Y524355*
Y533045*
X1168224Y533276*
X1168550*
X1168781Y533045*
Y524355*
X1169011Y524124*
X1169337*
X1169567Y524355*
Y533045*
X1169798Y533276*
X1170124*
X1170354Y533045*
Y524355*
X1170585Y524124*
X1170910*
X1171141Y524355*
Y528470*
X1171371Y528700*
X1196593*
X1199955Y525338*
X1202975*
Y525339*
X1209340*
X324474Y567683D02*
Y569712D01*
X328153Y573391*
X334907*
X343694*
X347692Y577390*
X351275*
X355212Y581327*
X358775*
X362650Y585202*
X397899*
X399868Y583234*
X452624*
X454986Y585596*
X547112*
X550655Y589139*
X589631*
X590813Y590320*
X641994*
X643569Y591895*
X653017*
X335301Y572604D02*
X344019D01*
X347886Y576471*
X351469*
X355406Y580408*
X358969*
X362975Y584415*
X397506*
X399474Y582446*
X453017*
X455380Y584809*
X547437*
X550980Y588352*
X591994*
X593175Y589533*
X651443*
X653017Y587958*
X326639Y569651D02*
X329592Y572604D01*
X335301*
X526500Y566000D02*
X538222Y577722D01*
X553275*
X554592Y576405*
Y575890*
X555925Y574557*
X572698*
X575583Y577442*
X591320*
X593962Y580084*
X561500Y567500D02*
X563228D01*
X567356Y571628*
X575999*
X580518Y576147*
X593962*
X597899Y568273D02*
X599542D01*
X601510Y570242*
X606031*
X607742Y571953*
X611679Y556205D02*
Y556720D01*
X613390Y558431*
X613905*
X615616Y560142*
Y560657*
X616933Y561974*
X618236*
X619159Y561051*
X607742Y571953D02*
Y572468D01*
X609059Y573785*
X614299*
X615221Y572862*
X725459Y555484D02*
Y559748D01*
X731363Y565652*
X725459Y555484D02*
X726844Y554099D01*
X728472*
X734505Y548066*
Y528917*
X748692Y514731*
X749917*
X763648Y501000*
Y476350*
X821514Y418484*
X831438*
X914451Y335471*
Y332851*
X985285Y262018*
Y259543*
X1022488Y222340*
X1023884*
X1024325Y221899*
X1025899*
X726246Y555810D02*
Y559422D01*
X732150Y565326*
X726246Y555810D02*
X727170Y554887D01*
X728799*
X735293Y548393*
Y529243*
X749018Y515518*
X750244*
X764435Y501326*
Y476676*
X821840Y419272*
X831765*
X915227Y335809*
Y335664*
X915239Y335652*
Y333177*
X915239D02*
X986072Y262344D01*
Y259870*
X1022814Y223128*
X1023884*
X1024325Y223569*
X1027569*
X797500Y560500D02*
Y543215D01*
X798574Y542141*
Y537074*
X989050Y557052D02*
Y559280D01*
X990169Y560399*
X991078*
X992198Y561519*
X989050Y557052D02*
X995537Y550565D01*
Y544651*
X999474Y540714*
Y538488*
X1001185Y536777*
X1001700*
X1003805Y534672*
Y530220*
X1005122Y528903*
X1005637*
X1007348Y527192*
Y513908*
X1018498Y502758*
Y499517*
X1028608Y489407*
Y477102*
X1051765Y453945*
Y429761*
X1088057Y393469*
X1084120Y566305D02*
X1118832D01*
X1121173Y568646*
X1152124*
X1152354Y568876*
Y576004*
X1152585Y576235*
X1152910*
X1153141Y576004*
Y567695*
X1153371Y567465*
X1153697*
X1153927Y567695*
Y575838*
X1154158Y576068*
X1154484*
X1154714Y575838*
Y567695*
X1154945Y567465*
X1155270*
X1155501Y567695*
Y575978*
X1155731Y576209*
X1156057*
X1156288Y575978*
Y567695*
X1156518Y567465*
X1156844*
X1157074Y567695*
Y575608*
X1157305Y575838*
X1157631*
X1157861Y575608*
Y567309*
X1158091Y567079*
X1158417*
X1158648Y567309*
Y575608*
X1158878Y575838*
X1159204*
X1159434Y575608*
Y567309*
X1159665Y567079*
X1159991*
X1160221Y567309*
Y575892*
X1160452Y576123*
X1160777*
X1161008Y575892*
Y567200*
X1161238Y566970*
X1161564*
X1161795Y567200*
Y575783*
X1162025Y576014*
X1162351*
X1162581Y575783*
Y567200*
X1162812Y566970*
X1163137*
X1163368Y567200*
Y575783*
X1163598Y576014*
X1163924*
X1164155Y575783*
Y567200*
X1164385Y566970*
X1164711*
X1164941Y567200*
Y575783*
X1165172Y576014*
X1165498*
X1165728Y575783*
Y567200*
X1165958Y566970*
X1166284*
X1166515Y567200*
Y575783*
X1166745Y576014*
X1167071*
X1167301Y575783*
Y567200*
X1167532Y566970*
X1167858*
X1168088Y567200*
Y575783*
X1168319Y576014*
X1168644*
X1168875Y575783*
Y567200*
X1169105Y566970*
X1169431*
X1169662Y567200*
Y575783*
X1169892Y576014*
X1170218*
X1170448Y575783*
Y567200*
X1170679Y566970*
X1171004*
X1171235Y567200*
Y575783*
X1171465Y576014*
X1171791*
X1172022Y575783*
Y567200*
X1172252Y566970*
X1172578*
X1172808Y567200*
Y575783*
X1173039Y576014*
X1173365*
X1173595Y575783*
Y568876*
X1173826Y568646*
X1211043*
X1214980Y572583*
X1224360*
X1076246Y574179D02*
X1077888D01*
X1079856Y576147*
X1150951*
X1153119Y578315*
Y582830*
X1153350Y583061*
X1153675*
X1153906Y582830*
Y577288*
X1154136Y577057*
X1154462*
X1154693Y577288*
Y582703*
X1154923Y582933*
X1155249*
X1155479Y582703*
Y577428*
X1155710Y577198*
X1156035*
X1156266Y577428*
Y583760*
X1156496Y583991*
X1156822*
X1157053Y583760*
Y577058*
X1157283Y576827*
X1157609*
X1157839Y577058*
Y585334*
X1158070Y585564*
X1158396*
X1158626Y585334*
Y577058*
X1158856Y576827*
X1159182*
X1159413Y577058*
Y586907*
X1159643Y587137*
X1159969*
X1160199Y586907*
Y578506*
X1160430Y578276*
X1160756*
X1160986Y578506*
Y588480*
X1161217Y588711*
X1161542*
X1161773Y588480*
Y580080*
X1162003Y579849*
X1162329*
X1162560Y580080*
Y590054*
X1162790Y590284*
X1163116*
X1163346Y590054*
Y581653*
X1163577Y581423*
X1163902*
X1163902D02*
X1164133Y581653D01*
Y591365*
X1164363Y591595*
X1164689*
X1164920Y591365*
Y582964*
X1165150Y582733*
X1165476*
X1165706Y582964*
Y592938*
X1165937Y593168*
X1166263*
X1166493Y592938*
Y584537*
X1166723Y584307*
X1167049*
X1167280Y584537*
Y594511*
X1167510Y594742*
X1167836*
X1168066Y594511*
Y585733*
X1168297Y585503*
X1168623*
X1168853Y585733*
Y594603*
X1169084Y594833*
X1169409*
X1169640Y594603*
Y585733*
X1169870Y585503*
X1170196*
X1170427Y585733*
Y594603*
X1170657Y594833*
X1170983*
X1171213Y594603*
Y586202*
X1171444Y585972*
X1171770*
X1172000Y586202*
Y595264*
X1172230Y595494*
X1172556*
X1172787Y595264*
Y586863*
X1173017Y586633*
X1173343*
X1173573Y586863*
Y591447*
X1173804Y591677*
X1211891*
X1212122Y591907*
Y594024*
X1212352Y594255*
X1212678*
X1212908Y594024*
Y590560*
X1215137Y588331*
X1218972*
X1219202Y588561*
Y589825*
X1219432Y590055*
X1219758*
X1219989Y589825*
Y588561*
X1220219Y588331*
X1224360*
X1084120Y562368D02*
X1146322D01*
X1147327Y561362*
X1152889*
X1153119Y561592*
Y566342*
X1153350Y566572*
X1153675*
X1153906Y566342*
Y557965*
X1154136Y557734*
X1154462*
X1154693Y557965*
Y566342*
X1154923Y566572*
X1155249*
X1155479Y566342*
Y557886*
X1155710Y557655*
X1156035*
X1156266Y557886*
Y566342*
X1156496Y566572*
X1156822*
X1157053Y566342*
Y557509*
X1157283Y557279*
X1157609*
X1157839Y557509*
Y565859*
X1158070Y566090*
X1158396*
X1158626Y565859*
Y557083*
X1158856Y556852*
X1159182*
X1159413Y557083*
Y565859*
X1159643Y566090*
X1159969*
X1160199Y565859*
Y556974*
X1160430Y556743*
X1160756*
X1160986Y556974*
Y565750*
X1161217Y565981*
X1161542*
X1161773Y565750*
Y556974*
X1162003Y556743*
X1162329*
X1162560Y556974*
Y565750*
X1162790Y565981*
X1163116*
X1163346Y565750*
Y556974*
X1163577Y556743*
X1163902*
X1163902D02*
X1164133Y556974D01*
Y565750*
X1164363Y565981*
X1164689*
X1164920Y565750*
Y556974*
X1165150Y556743*
X1165476*
X1165706Y556974*
Y565750*
X1165937Y565981*
X1166263*
X1166493Y565750*
Y556974*
X1166723Y556743*
X1167049*
X1167280Y556974*
Y565750*
X1167510Y565981*
X1167836*
X1168066Y565750*
Y556974*
X1168297Y556743*
X1168623*
X1168853Y556974*
Y565750*
X1169084Y565981*
X1169409*
X1169640Y565750*
Y556974*
X1169870Y556743*
X1170196*
X1170427Y556974*
Y565750*
X1170657Y565981*
X1170983*
X1171213Y565750*
Y556974*
X1171444Y556743*
X1171770*
X1172000Y556974*
Y565750*
X1172230Y565981*
X1172556*
X1172787Y565750*
Y556974*
X1173017Y556743*
X1173343*
X1173573Y556974*
Y561132*
X1173804Y561362*
X1211891*
X1212122Y561132*
Y559015*
X1212352Y558785*
X1212678*
X1212908Y559015*
Y562637*
X1214980Y564709*
X1218972*
X1219202Y564939*
Y566203*
X1219432Y566433*
X1219758*
X1219989Y566203*
Y564939*
X1220219Y564709*
X1224360*
X1080183Y554494D02*
X1081825D01*
X1083794Y552525*
X1150056*
X1150287Y552295*
Y548053*
X1150517Y547823*
X1150843*
X1151074Y548053*
Y556997*
X1151304Y557227*
X1151630*
X1151860Y556997*
Y548053*
X1152091Y547823*
X1152417*
X1152647Y548053*
Y556933*
X1152877Y557163*
X1153203*
X1153434Y556933*
Y547989*
X1153664Y547759*
X1153990*
X1154220Y547989*
Y556611*
X1154451Y556842*
X1154777*
X1155007Y556611*
Y547668*
X1155238Y547438*
X1155563*
X1155794Y547668*
Y556532*
X1156024Y556763*
X1156350*
X1156581Y556532*
Y547184*
X1156811Y546954*
X1157137*
X1157367Y547184*
Y555729*
X1157598Y555960*
X1157923*
X1158154Y555729*
Y546786*
X1158384Y546556*
X1158710*
X1158941Y546786*
Y555729*
X1159171Y555960*
X1159497*
X1159727Y555729*
Y552755*
X1159958Y552525*
X1161045*
X1183893Y529677*
X1198045*
X1198276Y529907*
Y537130*
X1198506Y537360*
X1198832*
X1199062Y537130*
Y529510*
X1199293Y529280*
X1199619*
X1199849Y529510*
Y536137*
X1200079Y536367*
X1200405*
X1200636Y536137*
Y527937*
X1200866Y527706*
X1201192*
X1201422Y527937*
Y534563*
X1201653Y534794*
X1201979*
X1202209Y534563*
Y526363*
X1202440Y526133*
X1202765*
X1202996Y526363*
Y533769*
X1203226Y533999*
X1203552*
X1203783Y533769*
Y526356*
X1204013Y526125*
X1204339*
X1204569Y526356*
Y533769*
X1204800Y533999*
X1205126*
X1205356Y533769*
Y527103*
X1205586Y526873*
X1205912*
X1206143Y527103*
Y530661*
X1206373Y530892*
X1206699*
X1206929Y530661*
Y529907*
X1207561Y529276*
X1211200*
X1211650Y528826*
Y527991*
X1211880Y527761*
X1212206*
X1212436Y527991*
Y531347*
X1212667Y531577*
X1212993*
X1213223Y531347*
Y527253*
X1214980Y525496*
X1217635*
X1218865Y524266*
X1219286*
X1219517Y524496*
Y527147*
X1219747Y527378*
X1220073*
X1220825Y526626*
Y522306*
X1221090Y522041*
Y520734*
X1224360Y517465*
X593760Y593470D02*
X694750D01*
X696324Y591895*
X593760Y594258D02*
X694750D01*
X696324Y595832*
X611679Y578115D02*
Y575889D01*
X612996Y574572*
X614624*
X616008Y573188*
X609710Y580084D02*
X611679Y578115D01*
X705773Y531863D02*
Y581063D01*
X707158Y582447*
X708787*
X709711Y583370*
X704198Y591895D02*
X705311Y590782D01*
X706723*
X707395Y590110*
X708044*
X708056Y590123*
X710190*
X710264Y590048*
X713032*
X713548Y589532*
X716315*
X717237Y588610*
Y587306*
X709711Y583370D02*
Y584729D01*
X711364Y586383*
X716314*
X717237Y587306*
X706561Y532189D02*
Y580737D01*
X707484Y581660*
X709114*
X710498Y583044*
Y584403*
X711690Y585595*
X716640*
X718024Y586980*
X725459Y575426D02*
Y581111D01*
X725574Y581227*
X725459Y575426D02*
X726842Y574042D01*
X728215*
X731363Y570894*
Y565652*
X726246Y575752D02*
Y580816D01*
X726361Y580932*
X726246Y575752D02*
X727168Y574829D01*
X728541*
X732150Y571220*
Y565326*
X1074672Y578768D02*
Y577464D01*
X1075594Y576541*
X1078608*
X1080183Y578116*
X1074672Y578768D02*
X1075988Y580084D01*
X1145970*
X1153342Y587456*
Y591688*
X1153572Y591918*
X1153898*
X1154128Y591688*
Y584010*
X1154359Y583779*
X1154685*
X1154915Y584010*
Y592670*
X1155145Y592901*
X1155471*
X1155702Y592670*
Y585067*
X1155932Y584837*
X1156258*
X1156488Y585067*
Y594243*
X1156719Y594474*
X1157045*
X1157275Y594243*
Y586640*
X1157506Y586410*
X1157831*
X1158062Y586640*
Y595817*
X1158292Y596047*
X1158618*
X1158849Y595817*
Y588214*
X1159079Y587983*
X1159405*
X1159635Y588214*
Y597390*
X1159866Y597621*
X1160192*
X1160422Y597390*
Y589787*
X1160652Y589557*
X1160978*
X1161209Y589787*
Y598964*
X1161439Y599194*
X1161765*
X1161995Y598964*
Y591361*
X1162226Y591130*
X1162552*
X1162782Y591361*
Y600537*
X1163012Y600767*
X1163338*
X1163569Y600537*
Y592671*
X1163799Y592441*
X1164125*
X1164355Y592671*
Y602110*
X1164586Y602341*
X1164912*
X1165142Y602110*
Y594245*
X1165373Y594014*
X1165698*
X1165929Y594245*
Y603684*
X1166159Y603914*
X1166485*
X1166716Y603684*
Y595818*
X1166946Y595588*
X1167272*
X1167502Y595818*
Y604374*
X1167733Y604605*
X1168059*
X1168289Y604374*
Y595910*
X1168519Y595679*
X1168845*
X1169076Y595910*
Y604374*
X1169306Y604605*
X1169632*
X1169862Y604374*
Y595910*
X1170093Y595679*
X1170419*
X1170649Y595910*
Y604598*
X1170879Y604829*
X1171205*
X1171436Y604598*
Y596571*
X1171436D02*
X1171666Y596340D01*
X1171992*
X1172222Y596571*
X1172222D02*
Y605035D01*
X1172453Y605266*
X1172779*
X1173009Y605035*
Y600372*
X1173240Y600142*
X1211043*
X1215137Y604236*
X1217635*
X1221090Y607691*
Y608683*
X1224360Y611953*
X1080183Y589927D02*
X1081825D01*
X1083793Y591895*
X1134507*
X1152462Y609851*
X1152884*
X1153114Y609620*
Y606124*
X1153345Y605893*
X1153670*
X1153901Y606124*
Y615668*
X1154131Y615898*
X1154457*
X1154688Y615668*
Y607697*
X1154918Y607467*
X1155244*
X1155474Y607697*
Y617241*
X1155705Y617472*
X1156031*
X1156261Y617241*
Y609271*
X1156491Y609040*
X1156817*
X1157048Y609271*
Y618815*
X1157278Y619045*
X1157604*
X1157834Y618815*
Y610844*
X1158065Y610614*
X1158391*
X1158621Y610844*
Y620388*
X1158851Y620618*
X1159177*
X1159408Y620388*
Y612417*
X1159638Y612187*
X1159964*
X1160194Y612417*
Y621961*
X1160425Y622192*
X1160751*
X1160981Y621961*
Y613991*
X1161212Y613760*
X1161537*
X1161768Y613991*
Y623535*
X1161998Y623765*
X1162324*
X1162555Y623535*
Y615564*
X1162785Y615334*
X1163111*
X1163341Y615564*
Y625108*
X1163572Y625339*
X1163898*
X1164128Y625108*
Y617138*
X1164358Y616907*
X1164684*
X1164915Y617138*
Y626682*
X1165145Y626912*
X1165471*
X1165701Y626682*
Y618711*
X1165932Y618481*
X1166258*
X1166488Y618711*
Y628255*
X1166718Y628485*
X1167044*
X1167275Y628255*
Y620284*
X1167505Y620054*
X1167831*
X1168061Y620284*
Y629828*
X1168292Y630059*
X1168618*
X1168848Y629828*
Y621858*
X1169079Y621627*
X1169404*
X1169635Y621858*
Y631402*
X1169865Y631632*
X1170191*
X1170422Y631402*
Y623431*
X1170652Y623201*
X1170978*
X1171208Y623431*
Y632975*
X1171439Y633206*
X1171765*
X1171995Y632975*
Y625005*
X1172225Y624774*
X1172551*
X1172782Y625005*
Y630170*
X1174249Y631638*
X1211043*
X1215137Y635732*
X1217635*
X1221090Y639187*
Y640179*
X1224360Y643449*
X1076246Y589927D02*
X1078214Y591895D01*
X1080440*
X1082151Y593606*
Y594121*
X1083862Y595832*
X1124895*
X1155112Y626049*
Y630507*
X1155343Y630737*
X1155668*
X1155899Y630507*
Y622378*
X1156129Y622148*
X1156455*
X1156686Y622378*
Y632080*
X1156916Y632310*
X1157242*
X1157472Y632080*
Y623952*
X1157703Y623721*
X1158029*
X1158259Y623952*
Y633653*
X1158489Y633884*
X1158815*
X1159046Y633653*
Y625525*
X1159276Y625295*
X1159602*
X1159832Y625525*
Y635227*
X1160063Y635457*
X1160389*
X1160619Y635227*
Y627098*
X1160850Y626868*
X1161175*
X1161406Y627098*
Y636800*
X1161636Y637031*
X1161962*
X1162193Y636800*
Y628672*
X1162423Y628441*
X1162749*
X1162979Y628672*
Y638374*
X1163210Y638604*
X1163535*
X1163766Y638374*
Y630245*
X1163996Y630015*
X1164322*
X1164553Y630245*
Y639947*
X1164783Y640177*
X1165109*
X1165339Y639947*
Y631819*
X1165570Y631588*
X1165896*
X1166126Y631819*
Y641520*
X1166356Y641751*
X1166682*
X1166913Y641520*
Y633392*
X1167143Y633162*
X1167469*
X1167699Y633392*
Y643094*
X1167930Y643324*
X1168256*
X1168486Y643094*
Y634965*
X1168717Y634735*
X1169042*
X1169273Y634965*
Y643970*
X1169503Y644200*
X1169829*
X1170060Y643970*
Y635054*
X1170290Y634824*
X1170616*
X1170846Y635054*
Y643970*
X1171077Y644200*
X1171402*
X1171402D02*
X1171633Y643970D01*
Y639742*
X1171864Y639512*
X1211043*
X1211755Y640224*
Y640901*
X1211985Y641132*
X1212311*
X1212541Y640901*
Y637336*
X1212772Y637105*
X1213098*
X1213328Y637336*
Y641797*
X1215137Y643606*
X1218605*
X1218835Y643836*
Y644576*
X1219065Y644806*
X1219065D02*
X1219391D01*
X1219391D02*
X1219622Y644576D01*
Y641850*
X1219852Y641619*
X1220178*
X1220408Y641850*
Y645304*
X1222490Y647386*
X1226472*
X1226702Y647155*
Y646069*
X1226932Y645838*
X1227258*
X1227489Y646069*
Y647155*
X1227719Y647386*
X1231860*
X1088057Y582053D02*
X1136653D01*
X1153569Y598969*
X1153990*
X1154220Y598738*
Y594179*
X1154451Y593949*
X1154777*
X1155007Y594179*
Y604091*
X1155238Y604322*
X1155563*
X1155794Y604091*
Y595753*
X1156024Y595522*
X1156350*
X1156581Y595753*
Y605665*
X1156811Y605895*
X1157137*
X1157367Y605665*
Y597326*
X1157598Y597096*
X1157923*
X1158154Y597326*
Y607238*
X1158384Y607468*
X1158710*
X1158941Y607238*
Y598899*
X1159171Y598669*
X1159497*
X1159727Y598899*
Y608811*
X1159958Y609042*
X1160284*
X1160514Y608811*
Y600473*
X1160744Y600242*
X1161070*
X1161301Y600473*
Y610385*
X1161531Y610615*
X1161857*
X1162087Y610385*
Y602046*
X1162318Y601816*
X1162644*
X1162874Y602046*
Y611958*
X1163105Y612189*
X1163430*
X1163661Y611958*
Y603620*
X1163891Y603389*
X1164217*
X1164448Y603620*
Y613532*
X1164678Y613762*
X1165004*
X1165234Y613532*
Y605193*
X1165465Y604963*
X1165791*
X1165791D02*
X1166021Y605193D01*
Y615105*
X1166251Y615335*
X1166577*
X1166808Y615105*
Y606766*
X1167038Y606536*
X1167364*
X1167594Y606766*
Y616678*
X1167825Y616909*
X1168151*
X1168381Y616678*
Y608340*
X1168611Y608109*
X1168937*
X1169168Y608340*
Y618252*
X1169398Y618482*
X1169724*
X1169954Y618252*
Y609913*
X1170185Y609683*
X1170511*
X1170741Y609913*
Y619825*
X1170972Y620056*
X1171297*
X1171528Y619825*
Y611487*
X1171758Y611256*
X1172084*
X1172315Y611487*
Y617715*
X1178364Y623764*
X1211419*
X1211650Y623994*
Y625048*
X1211880Y625279*
X1212206*
X1212436Y625048*
Y621693*
X1212667Y621462*
X1212993*
X1213223Y621693*
Y625944*
X1215137Y627858*
X1217635*
X1218865Y629088*
X1219286*
X1219517Y628858*
Y626207*
X1219747Y625976*
X1220073*
X1220303Y626207*
Y630527*
X1221090Y631313*
Y632305*
X1224360Y635575*
X440500Y610500D02*
X444503D01*
X445205Y611202*
X466388*
X484590Y593000*
X497000*
X587667Y610324D02*
X590301Y612958D01*
X605440*
X607742Y615260*
Y615775*
X609453Y617486*
X625716*
X627427Y619197*
Y619712*
X629138Y621423*
X645401*
X646717Y622739*
Y624043*
X633332Y599769D02*
X635301Y601738D01*
Y603964*
X640949Y609612*
X657212*
X658529Y610929*
Y650255*
X660349Y652075*
X664001*
X665076Y651000*
X669000*
X637269Y599769D02*
X638912D01*
X640880Y601738*
X645401*
X647112Y603449*
Y603964*
X649341Y606193*
X673478*
X678608Y611323*
Y615775*
X680319Y617486*
X694356*
X697899Y621029*
X700913*
X702230Y619712*
Y619197*
X703547Y617880*
X735927*
X771071Y653024*
X797277*
X810951Y666698*
X816660*
X818372Y668410*
Y668925*
X820082Y670635*
X820597*
X822309Y672347*
Y672862*
X824019Y674572*
X828471*
X830183Y676284*
Y676799*
X831893Y678509*
X838056*
X841600Y682053*
X844613*
X845931Y680735*
Y680220*
X847837Y678314*
X868881*
X869471Y678904*
X922309*
X930970Y687565*
X641206Y603706D02*
X645392Y607892D01*
X656605*
X659316Y610603*
Y648816*
X661000Y650500*
X704198Y595832D02*
X707280Y592751D01*
Y591339*
X707719Y590900*
X707730Y590910*
X710516*
X710591Y590835*
X713358*
X713874Y590319*
X716641*
X718024Y588936*
Y586980*
X700261Y599769D02*
X701836Y601344D01*
X702727*
X703317Y601934*
X705594*
X706185Y601343*
X708787*
X713647Y596484*
Y594856*
X715032Y593470*
X724650*
X725574Y592546*
Y581227*
X700261Y603706D02*
X701836Y602131D01*
X702401*
X702991Y602721*
X705920*
X706511Y602131*
X709114*
X714434Y596810*
Y595182*
X715358Y594258*
X724976*
X726361Y592872*
Y580932*
X730500Y607000D02*
X735782D01*
X750837Y591945*
X768583*
X768813Y591715*
Y586945*
X769044Y586715*
X769370*
X769600Y586945*
Y595094*
X769830Y595324*
X770156*
X770387Y595094*
Y585372*
X770617Y585141*
X770943*
X771173Y585372*
Y593520*
X771404Y593751*
X771730*
X771960Y593520*
Y583798*
X772191Y583568*
X772516*
X772747Y583798*
Y591947*
X772977Y592177*
X773303*
X773534Y591947*
Y582225*
X773764Y581994*
X774090*
X774320Y582225*
Y590374*
X774551Y590604*
X774877*
X775107Y590374*
Y580651*
X775337Y580421*
X775663*
X775894Y580651*
Y588800*
X776124Y589031*
X776450*
X776680Y588800*
Y579078*
X776911Y578848*
X777237*
X777467Y579078*
Y587227*
X777697Y587457*
X778023*
X778254Y587227*
Y577505*
X778484Y577274*
X778810*
X779040Y577505*
Y585653*
X779271Y585884*
X779597*
X779827Y585653*
Y575931*
X780058Y575701*
X780383*
X780614Y575931*
Y584080*
X780844Y584310*
X781170*
X781401Y584080*
Y574358*
X781631Y574127*
X781957*
X782187Y574358*
Y582507*
X782418Y582737*
X782744*
X782974Y582507*
Y572784*
X783204Y572554*
X783530*
X783761Y572784*
Y580933*
X783991Y581164*
X784317*
X784547Y580933*
Y575679*
X822309Y537917*
Y536519*
X824019Y534809*
X826245*
X828214Y532840*
X1076246Y609612D02*
X1083881Y617247D01*
Y617527*
X1093129Y626775*
X1105220*
X1154684Y676239*
Y683084*
X1154915Y683314*
X1155241*
X1155471Y683084*
Y675476*
X1155701Y675245*
X1156027*
X1156258Y675476*
Y684657*
X1156488Y684888*
X1156814*
X1157044Y684657*
Y676673*
X1157275Y676443*
X1157601*
X1157831Y676673*
Y685068*
X1158062Y685299*
X1158387*
X1158618Y685068*
Y676673*
X1158848Y676443*
X1159174*
X1159405Y676673*
Y685157*
X1159635Y685388*
X1159961*
X1160191Y685157*
Y677549*
X1160422Y677318*
X1160748*
X1160978Y677549*
Y686731*
X1161208Y686961*
X1161534*
X1161765Y686731*
Y679122*
X1161995Y678892*
X1162321*
X1162551Y679122*
Y688304*
X1162782Y688534*
X1163108*
X1163338Y688304*
Y680696*
X1163568Y680465*
X1163894*
X1164125Y680696*
Y689877*
X1164355Y690108*
X1164681*
X1164911Y689877*
Y682269*
X1165142Y682039*
X1165468*
X1165698Y682269*
Y691451*
X1165929Y691681*
X1166254*
X1166485Y691451*
Y683842*
X1166715Y683612*
X1167041*
X1167272Y683842*
Y693024*
X1167502Y693255*
X1167828*
X1168058Y693024*
Y685416*
X1168289Y685185*
X1168615*
X1168845Y685416*
Y694598*
X1169075Y694828*
X1169401*
X1169632Y694598*
Y686989*
X1169862Y686759*
X1170188*
X1170418Y686989*
Y696171*
X1170649Y696401*
X1170975*
X1171205Y696171*
Y688563*
X1171435Y688332*
X1171761*
X1171992Y688563*
Y693547*
X1204571Y726126*
X1211043*
X1214980Y730063*
X1224360*
X1076246Y605675D02*
X1077888D01*
X1079856Y607643*
X1088647*
X1102427Y621423*
X1110301*
X1143765Y654887*
X1153572*
X1155247Y656562*
X1155668*
X1155899Y656332*
Y652884*
X1156129Y652654*
X1156455*
X1156686Y652884*
Y662330*
X1156916Y662560*
X1157242*
X1157472Y662330*
Y654457*
X1157703Y654227*
X1158029*
X1158259Y654457*
Y663903*
X1158489Y664134*
X1158815*
X1159046Y663903*
Y656031*
X1159276Y655800*
X1159602*
X1159832Y656031*
Y665477*
X1160063Y665707*
X1160389*
X1160619Y665477*
Y657604*
X1160850Y657374*
X1161175*
X1161406Y657604*
Y667050*
X1161636Y667281*
X1161962*
X1162193Y667050*
Y659178*
X1162423Y658947*
X1162749*
X1162979Y659178*
Y668624*
X1163210Y668854*
X1163535*
X1163766Y668624*
Y660751*
X1163996Y660521*
X1164322*
X1164553Y660751*
Y670197*
X1164783Y670427*
X1165109*
X1165339Y670197*
Y662324*
X1165570Y662094*
X1165896*
X1166126Y662324*
Y671770*
X1166356Y672001*
X1166682*
X1166913Y671770*
Y663898*
X1167143Y663667*
X1167469*
X1167699Y663898*
Y673344*
X1167930Y673574*
X1168256*
X1168486Y673344*
Y665471*
X1168717Y665241*
X1169042*
X1169273Y665471*
Y674917*
X1169503Y675148*
X1169829*
X1170060Y674917*
Y667045*
X1170290Y666814*
X1170616*
X1170846Y667045*
Y672161*
X1201189Y702504*
X1211043*
X1211755Y703216*
Y703893*
X1211985Y704124*
X1212311*
X1212541Y703893*
Y700328*
X1212772Y700097*
X1213098*
X1213328Y700328*
Y704789*
X1215137Y706598*
X1217635*
X1218183Y707147*
X1218605*
X1218835Y706916*
Y705629*
X1219065Y705398*
X1219391*
X1220370Y706377*
Y709333*
X1220600Y709564*
Y715287*
X1223565Y718252*
X1226472*
X1226702Y718022*
Y716935*
X1226932Y716704*
X1227258*
X1227489Y716935*
Y718022*
X1227719Y718252*
X1231860*
X494167Y627144D02*
X495931D01*
X496717Y627930*
X500432*
X500568Y627795*
X501207*
X531594Y597407*
X546975*
X547369Y597013*
X577196*
X578377Y598194*
X578377D02*
X582776D01*
X582776D02*
X583563Y597407D01*
X588681*
X589075Y597013*
X590526*
X590921Y597408*
X669744*
X675064Y602728*
Y604357*
X675988Y605281*
X694750*
X696324Y603706*
X494167Y629505D02*
X495931D01*
X496717Y628718*
X500758*
X500758D02*
X500895Y628582D01*
X501533*
X531921Y598194*
X547301*
X547695Y597801*
X576870*
X578051Y598982*
X583102*
X583889Y598194*
X589007*
X589401Y597801*
X590200*
X590595Y598195*
X669417*
X674276Y603054*
Y604683*
X675662Y606068*
X694750*
X696324Y607643*
X601836Y631265D02*
X602624D01*
X603411Y630478*
X635301Y631523D02*
Y631008D01*
X637012Y629297*
X641464*
X643175Y627586*
Y626677*
X644689Y625163*
X645598*
X646717Y624043*
X649080Y615517D02*
Y617160D01*
X651049Y619129*
Y627586*
X652760Y629297*
X653275*
X654591Y630613*
X676639Y623391D02*
Y625034D01*
X678213Y626608*
X672702Y627328D02*
X674671Y625360D01*
Y623134*
X675988Y621817*
X677291*
X679001Y623527*
Y627979*
X679925Y628903*
X708787*
X710104Y627586*
Y627071*
X711815Y625360*
X712330*
X714041Y623649*
Y623134*
X715358Y621817*
X723885*
X736876Y634808*
X739381*
X740167Y634022*
X742366*
X766194Y657850*
X789383*
X810042Y678509*
X816660*
X818372Y680221*
Y680736*
X820082Y682446*
X820597*
X822309Y684158*
Y684673*
X824019Y686383*
X824534*
X826246Y688095*
Y688610*
X827956Y690320*
X832408*
X834120Y692032*
Y692547*
X835830Y694257*
X836345*
X841994Y699906*
Y700421*
X847642Y706069*
X848157*
X849868Y707780*
Y708295*
X851185Y709612*
X852487*
X853410Y708689*
Y705674*
X700261Y619454D02*
X702623Y617093D01*
X736615*
X750787Y631265*
X762296*
X762527Y631035*
Y627586*
X762757Y627355*
X763083*
X763313Y627586*
Y636999*
X763544Y637229*
X763870*
X764100Y636999*
Y629159*
X764331Y628929*
X764656*
X764887Y629159*
Y638572*
X765117Y638802*
X765443*
X765674Y638572*
Y630732*
X765904Y630502*
X766230*
X766460Y630732*
Y640145*
X766691Y640376*
X767017*
X767247Y640145*
Y632306*
X767477Y632075*
X767803*
X768034Y632306*
Y641719*
X768264Y641949*
X768590*
X768820Y641719*
Y633879*
X769051Y633649*
X769377*
X769607Y633879*
Y643292*
X769837Y643523*
X770163*
X770394Y643292*
Y635453*
X770624Y635222*
X770950*
X771180Y635453*
Y640552*
X782612Y651984*
X809820*
X814435Y656599*
Y657114*
X816145Y658824*
X816660*
X818372Y660536*
Y661051*
X820082Y662761*
X820597*
X822309Y664473*
Y664988*
X824019Y666698*
X824534*
X826246Y668410*
Y668925*
X827956Y670635*
X828471*
X830183Y672347*
Y672862*
X831893Y674572*
X838056*
X843962Y680478*
X700261Y627328D02*
X702230Y625360D01*
X704456*
X706167Y623649*
Y623134*
X708271Y621030*
X726097*
X736332Y631265*
X742016*
X760714Y649963*
X761135*
X761366Y649733*
Y645581*
X761596Y645350*
X761922*
X762152Y645581*
Y652369*
X762383Y652599*
X762709*
X762939Y652369*
Y647154*
X763169Y646924*
X763495*
X763726Y647154*
Y653942*
X763956Y654172*
X764282*
X764512Y653942*
Y648728*
X764743Y648497*
X765069*
X765299Y648728*
Y655515*
X765530Y655746*
X765855*
X766086Y655515*
Y650301*
X766316Y650071*
X766642*
X766873Y650301*
Y656736*
X767103Y656966*
X767429*
X767659Y656736*
Y651874*
X767890Y651644*
X768216*
X768446Y651874*
Y656736*
X768676Y656966*
X769002*
X769233Y656736*
Y653448*
X769463Y653217*
X769789*
X770019Y653448*
Y656736*
X770250Y656966*
X770576*
X770806Y656736*
Y654294*
X771036Y654064*
X771362*
X771593Y654294*
Y656736*
X771823Y656966*
X772149*
X772379Y656736*
Y654294*
X772610Y654064*
X772936*
X773166Y654294*
Y655285*
X773397Y655515*
X793461*
X808581Y670635*
X816660*
X818372Y672347*
Y672862*
X820082Y674572*
X820597*
X822309Y676284*
Y676799*
X824019Y678509*
X824534*
X826246Y680221*
Y680736*
X827956Y682446*
X828471*
X830183Y684158*
Y684673*
X831893Y686383*
X832408*
X834120Y688095*
Y688610*
X835830Y690320*
X836345*
X840025Y694000*
Y694515*
X847641Y702131*
X848156*
X851836Y705811*
Y708037*
X716009Y627328D02*
Y628903D01*
X717584Y630478*
Y660612*
X725852Y668880*
X718372Y632081D02*
Y630478D01*
X719946Y628903*
Y627328*
X954198Y633234D02*
X956159Y631273D01*
X958408*
X960112Y629569*
Y629031*
X961815Y627328*
X962330*
X964041Y625617*
Y625102*
X965752Y623391*
X966267*
X969946Y619712*
Y599512*
X973626Y595832*
X974141*
X980781Y589192*
Y573842*
X984263Y570360*
X985172*
X992198Y563335*
Y561519*
X341640Y639923D02*
X351186D01*
X351416Y639692*
Y638672*
X351646Y638442*
X351972*
X352203Y638672*
Y641960*
X352433Y642191*
X352759*
X352989Y641960*
Y637865*
X354868Y635986*
X358441*
X358631Y635796*
X359053*
X359283Y636026*
Y637584*
X359513Y637814*
X359839*
X360070Y637584*
Y634357*
X362378Y632049*
X397044*
X401772Y636777*
X456603*
X456834Y636547*
Y627971*
X457064Y627740*
X457390*
X457621Y627971*
Y637261*
X457851Y637492*
X458177*
X458407Y637261*
Y628582*
X458638Y628352*
X458964*
X459194Y628582*
Y637261*
X459424Y637492*
X459750*
X459981Y637261*
Y628582*
X460211Y628352*
X460537*
X460767Y628582*
Y637728*
X460998Y637958*
X461324*
X461554Y637728*
Y628656*
X461785Y628425*
X462110*
X462341Y628656*
Y637335*
X462571Y637565*
X462897*
X463127Y637335*
Y628656*
X463358Y628425*
X463684*
X463914Y628656*
Y637728*
X464145Y637958*
X464470*
X464701Y637728*
Y628582*
X464931Y628352*
X465257*
X465488Y628582*
Y637261*
X465718Y637492*
X466044*
X466274Y637261*
Y628582*
X466505Y628352*
X466831*
X467061Y628582*
Y637261*
X467291Y637492*
X467617*
X467848Y637261*
Y628582*
X468078Y628352*
X468404*
X468634Y628582*
Y637261*
X468865Y637492*
X469191*
X469421Y637261*
Y628582*
X469652Y628352*
X469977*
X470208Y628582*
Y637261*
X470438Y637492*
X470764*
X470995Y637261*
Y628582*
X471225Y628352*
X471551*
X471781Y628582*
Y639935*
X472012Y640165*
X472337*
X472568Y639935*
Y637007*
X472798Y636777*
X498714*
X512092Y623399*
X549700*
X553487Y619612*
X570658*
X572075Y621029*
X618304*
X619879Y619454*
X621521*
X364160Y643860D02*
X422516D01*
X425115Y641261*
X451837*
X452068Y641491*
Y646764*
X452298Y646995*
X452624*
X452855Y646764*
Y637812*
X453085Y637581*
X453411*
X453641Y637812*
Y646764*
X453872Y646995*
X454198*
X454428Y646764*
Y637812*
X454658Y637581*
X454984*
X455215Y637812*
Y646764*
X455445Y646995*
X455771*
X456001Y646764*
Y637812*
X456232Y637581*
X456558*
X456788Y637812*
Y647089*
X457018Y647319*
X457344*
X457575Y647089*
Y638509*
X457805Y638278*
X458131*
X458361Y638509*
Y647089*
X458592Y647319*
X458918*
X459148Y647089*
Y638509*
X459379Y638278*
X459704*
X459935Y638509*
Y647089*
X460165Y647319*
X460491*
X460722Y647089*
Y640262*
X460952Y640031*
X461278*
X461508Y640262*
Y647089*
X461739Y647319*
X462065*
X462295Y647089*
Y640944*
X462525Y640713*
X462851*
X463082Y640944*
Y647089*
X463312Y647319*
X463638*
X463868Y647089*
Y640587*
X464099Y640357*
X464425*
X464655Y640587*
Y647089*
X464885Y647319*
X465211*
X465442Y647089*
Y638509*
X465672Y638278*
X465998*
X466228Y638509*
Y647089*
X466459Y647319*
X466785*
X467015Y647089*
Y638509*
X467246Y638278*
X467571*
X467802Y638509*
Y647089*
X468032Y647319*
X468358*
X468589Y647089*
Y638509*
X468819Y638278*
X469145*
X469375Y638509*
Y647089*
X469606Y647319*
X469932*
X470162Y647089*
Y638509*
X470392Y638278*
X470718*
X470949Y638509*
Y647089*
X471179Y647319*
X471505*
X471735Y647089*
Y641491*
X471966Y641261*
X498714*
X507151Y632824*
X553862*
X555610Y634572*
X565914*
X575520Y624966*
X630115*
X631690Y623391*
X633332*
X645167Y643324D02*
X647112Y641379D01*
Y638882*
X648823Y637171*
X649338*
X651049Y635460*
Y634945*
X652760Y633234*
X653275*
X654591Y631917*
Y630613*
X629395Y635202D02*
X631364Y633234D01*
X633590*
X635301Y631523*
X676639Y647013D02*
X676735Y647109D01*
X684513Y635202D02*
X686156D01*
X688124Y633234*
X704456*
X706167Y631523*
Y631008*
X707485Y629690*
X709711*
X710498Y628903*
X712724*
X713647Y627980*
Y626352*
X715032Y624967*
X723884*
X758948Y660031*
X763873*
X764104Y660261*
Y663138*
X764334Y663368*
X764660*
X764890Y663138*
Y659080*
X765121Y658850*
X765447*
X765677Y659080*
Y663154*
X765907Y663384*
X766233*
X766464Y663154*
Y659080*
X766694Y658850*
X767020*
X767250Y659080*
Y663157*
X767481Y663387*
X767807*
X768037Y663157*
Y659080*
X768268Y658850*
X768593*
X768824Y659080*
Y666052*
X769054Y666282*
X769380*
X769611Y666052*
Y660261*
X769841Y660031*
X786371*
X814435Y688095*
Y688610*
X816145Y690320*
X820597*
X822309Y692032*
Y692547*
X824019Y694257*
X824534*
X826246Y695969*
Y696484*
X827956Y698194*
X828471*
X830183Y699906*
Y700421*
X831893Y702131*
X832408*
X834120Y703843*
Y704358*
X835831Y706069*
X838057*
X843962Y711974*
X696996Y653619D02*
X698687Y651929D01*
Y648588*
X700261Y647013*
X697899Y651603D02*
Y645439D01*
X700261Y643076*
X713647Y644722D02*
X712037Y643112D01*
X712072Y643076*
X716009D02*
X716045Y643112D01*
X708135Y639139D02*
Y637300D01*
X710104Y635331*
Y631008*
X711422Y629690*
X713049*
X714435Y628304*
Y626677*
X715358Y625754*
X720598*
X721915Y627071*
Y627586*
X723626Y629297*
X725621*
X763306Y666982*
Y673102*
X763537Y673332*
X763863*
X764093Y673102*
Y664562*
X764324Y664332*
X764649*
X764880Y664562*
Y673102*
X765110Y673332*
X765436*
X765667Y673102*
Y664579*
X765897Y664348*
X766223*
X766453Y664579*
Y673102*
X766684Y673332*
X767010*
X767240Y673102*
Y664581*
X767470Y664351*
X767796*
X768027Y664581*
Y673102*
X768257Y673332*
X768583*
X768813Y673102*
Y668172*
X769044Y667941*
X769370*
X769600Y668172*
Y677593*
X769830Y677823*
X770156*
X770387Y677593*
Y674004*
X770617Y673774*
X790484*
X811088Y694378*
X812844*
X814435Y695969*
Y696484*
X816145Y698194*
X820597*
X822309Y699906*
Y700421*
X824019Y702131*
X826245*
X832151Y708037*
X364160Y659608D02*
X422516D01*
X423033Y659091*
X451769*
X452000Y658861*
Y654828*
X452230Y654598*
X452556*
X452786Y654828*
Y663354*
X453017Y663584*
X453343*
X453573Y663354*
Y654828*
X453804Y654598*
X454129*
X454360Y654828*
Y663354*
X454590Y663584*
X454916*
X455147Y663354*
Y654828*
X455377Y654598*
X455703*
X455933Y654828*
Y663354*
X456164Y663584*
X456490*
X456720Y663354*
Y654828*
X456950Y654598*
X457276*
X457507Y654828*
Y663354*
X457737Y663584*
X458063*
X458293Y663354*
Y654828*
X458524Y654598*
X458850*
X459080Y654828*
Y658861*
X459310Y659091*
X510484*
X511792Y660399*
X545387*
X545617Y660169*
Y658267*
X545848Y658036*
X546173*
X546404Y658267*
Y660169*
X546634Y660400*
X546960*
X547191Y660169*
Y658267*
X547421Y658036*
X547747*
X547977Y658267*
Y660169*
X548208Y660400*
X548533*
X548764Y660169*
Y658267*
X548994Y658036*
X549320*
X549551Y658267*
Y660169*
X549781Y660400*
X550107*
X550337Y660169*
Y658267*
X550568Y658036*
X550894*
X551124Y658267*
Y660169*
X551354Y660400*
X551680*
X551911Y660169*
Y657106*
X552141Y656876*
X552467*
X552697Y657106*
Y660169*
X552928Y660400*
X553254*
X553484Y660169*
Y655533*
X553715Y655303*
X553715D02*
X554040D01*
X554040D02*
X554271Y655533D01*
Y660169*
X554501Y660400*
X554827*
X555058Y660169*
Y653960*
X555288Y653729*
X555614*
X555844Y653960*
Y660169*
X556075Y660400*
X556401*
X556631Y660169*
Y652503*
X556861Y652273*
X557187*
X557418Y652503*
Y659917*
X557648Y660147*
X557974*
X558204Y659917*
Y652503*
X558435Y652273*
X558761*
X558991Y652503*
Y659917*
X559221Y660147*
X559547*
X559778Y659917*
Y652503*
X560008Y652273*
X560334*
X560564Y652503*
Y659917*
X560795Y660147*
X561121*
X561351Y659917*
Y652503*
X561582Y652273*
X561907*
X562138Y652503*
Y659917*
X562368Y660147*
X562694*
X562925Y659917*
Y656440*
X563155Y656210*
X589354*
X595970Y649594*
Y638842*
X601578Y633234*
X606031*
X607742Y631523*
Y631007*
X609452Y629297*
X633590*
X635301Y627586*
Y627071*
X637012Y625360*
X641532*
X643501Y623391*
X645143*
X356660Y655671D02*
X359920Y652411D01*
Y651242*
X360185Y650977*
Y646677*
X360937Y645925*
X361263*
X361493Y646155*
Y648787*
X361724Y649017*
X362145*
X362915Y648247*
X429706*
X429936Y648017*
Y643865*
X430167Y643634*
X430493*
X430723Y643865*
Y652629*
X430953Y652860*
X431279*
X431510Y652629*
Y643865*
X431740Y643634*
X432066*
X432296Y643865*
Y652629*
X432527Y652860*
X432853*
X433083Y652629*
Y643865*
X433313Y643634*
X433639*
X433870Y643865*
Y652629*
X434100Y652860*
X434426*
X434656Y652629*
Y643865*
X434887Y643634*
X435213*
X435443Y643865*
Y652629*
X435674Y652860*
X435999*
X436230Y652629*
Y643865*
X436460Y643634*
X436786*
X437017Y643865*
Y652629*
X437247Y652860*
X437573*
X437803Y652629*
Y643865*
X438034Y643634*
X438360*
X438590Y643865*
Y652629*
X438820Y652860*
X439146*
X439377Y652629*
Y643865*
X439607Y643634*
X439933*
X440163Y643865*
Y652629*
X440394Y652860*
X440720*
X440950Y652629*
Y643865*
X441180Y643634*
X441506*
X441737Y643865*
Y652629*
X441967Y652860*
X442293*
X442523Y652629*
Y643865*
X442754Y643634*
X443080*
X443310Y643865*
Y652629*
X443541Y652860*
X443866*
X444097Y652629*
Y643865*
X444327Y643634*
X444653*
X444884Y643865*
Y652629*
X445114Y652860*
X445440*
X445670Y652629*
Y643865*
X445901Y643634*
X446227*
X446457Y643865*
Y652629*
X446687Y652860*
X447013*
X447244Y652629*
Y643865*
X447474Y643634*
X447800*
X448030Y643865*
Y652629*
X448261Y652860*
X448587*
X448817Y652629*
Y648477*
X449047Y648247*
X497457*
X512092Y633612*
X550642*
X552389Y635359*
X568164*
X577769Y625754*
X602094*
X603608Y627268*
Y627389*
X605122Y628903*
X608136*
X609710Y627328*
X543569Y658824D02*
X545143Y657250D01*
X550424*
X577984Y629691*
X603017*
X603411Y630084*
Y630478*
X543569Y654887D02*
X545143Y656462D01*
X550098*
X577657Y628903*
X603805*
X604592Y629691*
Y630084*
X605773Y631265*
X543569Y662761D02*
X545143Y664336D01*
X590677*
X603411Y651603*
Y641502*
X605773Y639139*
X543569Y666698D02*
X545143Y665124D01*
X591004*
X604198Y651929*
Y644651*
X605773Y643076*
X674671Y655675D02*
X678213Y652132D01*
Y626608*
X670734Y655675D02*
Y627002D01*
X672702Y625034*
Y623391*
X718372Y632081D02*
Y660286D01*
X726639Y668554*
X364160Y683230D02*
X467785D01*
X484317Y666698*
X509597*
X511285Y665010*
Y664450*
X514548Y661187*
X523363*
X523593Y661417*
Y670303*
X523823Y670533*
X524149*
X524380Y670303*
Y661416*
X524610Y661186*
X524936*
X525166Y661416*
Y670303*
X525397Y670533*
X525723*
X525953Y670303*
Y661416*
X526184Y661186*
X526509*
X526740Y661416*
Y670303*
X526970Y670533*
X527296*
X527526Y670303*
Y661416*
X527757Y661186*
X528083*
X528313Y661416*
Y670303*
X528544Y670533*
X528869*
X529100Y670303*
Y661416*
X529330Y661186*
X529656*
X529887Y661416*
Y670303*
X530117Y670533*
X530443*
X530673Y670303*
Y661416*
X530904Y661186*
X531230*
X531460Y661416*
Y670303*
X531690Y670533*
X532016*
X532247Y670303*
Y661416*
X532477Y661186*
X532803*
X533033Y661416*
Y670303*
X533264Y670533*
X533590*
X533820Y670303*
Y661417*
X534051Y661187*
X545390*
X545621Y661417*
Y663319*
X545851Y663550*
X546177*
X546407Y663319*
Y661417*
X546638Y661186*
X546964*
X547194Y661417*
Y663319*
X547424Y663550*
X547750*
X547981Y663319*
Y661417*
X548211Y661186*
X548537*
X548767Y661417*
Y663319*
X548998Y663550*
X549324*
X549554Y663319*
Y661417*
X549785Y661186*
X550110*
X550341Y661417*
Y663319*
X550571Y663550*
X550897*
X551128Y663319*
Y661417*
X551358Y661186*
X551684*
X551914Y661417*
Y663319*
X552145Y663550*
X552470*
X552701Y663319*
Y661417*
X552931Y661186*
X553257*
X553488Y661417*
Y663319*
X553718Y663550*
X554044*
X554274Y663319*
Y661417*
X554505Y661186*
X554831*
X555061Y661417*
Y663319*
X555291Y663550*
X555617*
X555848Y663319*
Y661417*
X556078Y661186*
X556404*
X556634Y661417*
Y663319*
X556865Y663550*
X557191*
X557421Y663319*
Y661164*
X557652Y660934*
X557977*
X558208Y661164*
Y663319*
X558438Y663550*
X558764*
X558995Y663319*
Y661164*
X559225Y660934*
X559551*
X559781Y661164*
Y663319*
X560012Y663550*
X560338*
X560568Y663319*
Y661164*
X560798Y660934*
X561124*
X561355Y661164*
Y663319*
X561585Y663550*
X561911*
X562141Y663319*
Y661417*
X562372Y661187*
X568983*
X571865Y658305*
X590313*
X595699Y652919*
X598157*
X599868Y651208*
Y642818*
X601578Y641108*
X602094*
X603805Y639397*
Y638881*
X605515Y637171*
X637527*
X639238Y635460*
Y634945*
X640949Y633234*
X649406*
X651375Y631265*
X653017*
X930970Y687565D02*
X939333Y679202D01*
X962935*
X983313Y658824*
X1005706*
X1007674Y656856*
X1017191*
X543569Y706069D02*
X545143Y707643D01*
X635925*
X638450Y705118*
Y698770*
X650984Y686236*
X652242*
X672309Y666170*
Y653571*
X674277Y651603*
Y645439*
X676639Y643076*
X543569Y710006D02*
X545143Y708431D01*
X636251*
X639238Y705444*
Y699096*
X651163Y687171*
X652421*
X673096Y666496*
Y653897*
X675065Y651929*
Y649376*
X675621Y648819*
Y648222*
X676735Y647109*
X543569Y713943D02*
X545143Y715517D01*
X650098*
X664828Y700787*
Y696340*
X665616D02*
Y696109D01*
X673373Y688352*
X674095*
X682496Y679950*
Y679579*
X688959Y673116*
X690097*
X696717Y666495*
Y653898*
X696996Y653619*
X664828Y696340D02*
Y695783D01*
X673047Y687565*
X673768*
X681709Y679624*
Y679253*
X688633Y672328*
X689771*
X695930Y666169*
Y653572*
X697899Y651603*
X847899Y700163D02*
X853410Y705674D01*
X543569Y729691D02*
X545143Y731265D01*
X691831*
X725852Y697244*
Y668880*
X543569Y733628D02*
X545143Y732053D01*
X692157*
X726639Y697570*
Y668554*
X543569Y725754D02*
X545143Y724179D01*
X668141*
X690813Y701507*
Y694766*
X698703Y686876*
X699193*
X706801Y679268*
Y665520*
X714435Y657886*
Y644722*
X716045Y643112*
X543569Y721817D02*
X545143Y723391D01*
X667815*
X690025Y701181*
Y694440*
X698377Y686088*
X698867*
X706013Y678942*
Y665194*
X713647Y657560*
Y644722*
X543569Y717880D02*
X545143Y716305D01*
X650424*
X665616Y701113*
Y696340*
X277033Y847801D02*
X278676D01*
X280636Y849761*
X293863*
X314670Y870568*
X380924*
X386653Y876297*
X447532*
X459350Y888115*
X537321*
X545841Y896635*
X548671*
X549489Y895817*
X551034*
X551852Y896635*
X553396*
X554214Y895817*
X555758*
X565820Y905879*
X636879*
X641000Y910000*
G54D115*
X1033167Y131824D03*
X1080167D03*
X377902Y919190D03*
X377602Y953690D03*
G54D127*
X1193631Y740614D03*
Y240693D03*
X379869Y215986D03*
Y715907D03*
G54D131*
X1258858Y675591D03*
Y692126D03*
Y708661D03*
Y725197D03*
Y741732D03*
Y758268D03*
Y774803D03*
Y791339D03*
Y807874D03*
Y824409D03*
Y840945D03*
Y857480D03*
X1280512Y675591D03*
Y692126D03*
Y708661D03*
Y725197D03*
Y741732D03*
Y758268D03*
Y774803D03*
Y791339D03*
Y807874D03*
Y824409D03*
Y840945D03*
Y857480D03*
G54D132*
X1278701Y657087D03*
G54D133*
X760891Y549139D03*
X560891Y627092D03*
G54D134*
X920225Y129392D02*
X918601Y127767D01*
Y124983*
X920359Y123225*
X926737*
X929492Y125980*
X914829Y137727D02*
Y140379D01*
X918372Y143922*
X915615Y137727D02*
Y140053D01*
X919158Y143597*
X914829Y137727D02*
Y137402D01*
X920225Y132006*
Y129392*
X915615Y137727D02*
X921011Y132331D01*
Y129392*
X921500Y128903*
Y125980*
Y153814D02*
X924710D01*
X925103Y154207*
X720340Y229297D02*
Y230872D01*
X721325Y231857*
Y234147*
X721555Y234377*
X721881*
X722111Y234607*
Y231857D02*
Y233361D01*
X722341Y233591*
X722710*
X722940Y233822*
X722111Y231857D02*
X723096Y230872D01*
Y229297*
X721325Y235393D02*
Y248922D01*
X724670Y252267*
X722111Y236179D02*
Y248597D01*
X725456Y251941*
X722111Y236179D02*
X722341Y235949D01*
X722710*
X722940Y235719*
Y233822*
X721325Y235393D02*
X721555Y235163D01*
X721881*
X722111Y234933*
Y234607*
X720340Y252919D02*
X722113Y254691D01*
X712861Y259218D02*
Y261347D01*
X713649Y262134*
X712861Y259218D02*
Y258566D01*
X713783Y257644*
X715617*
X717191Y259218*
X714435D02*
Y260792D01*
X693401Y334285D02*
X725456Y302230D01*
Y251941*
X692615Y333959D02*
X724670Y301904D01*
Y252267*
X664040Y346782D02*
X685663Y325160D01*
X686179*
X686409Y325390*
Y327326*
X687100Y328016*
X688077*
X688767Y327326*
Y303719*
X688997Y303489*
X689323*
X689553Y303719*
Y324182*
X690244Y324872*
X691220*
X691220D02*
X691911Y324182D01*
Y318912*
X714435Y296388*
Y260792*
X663254Y346457D02*
X685337Y324374D01*
X686505*
X687195Y325065*
Y327000*
X687425Y327230*
X687751*
X687981Y327000*
Y303393*
X688672Y302703*
X689649*
X690339Y303393*
Y323856*
X690569Y324086*
X690895*
X691125Y323856*
Y318586*
X713649Y296062*
Y262134*
X692615Y333959D02*
Y350473D01*
X693305Y351164*
X700973*
X701203Y351394*
X693401Y334285D02*
Y350147D01*
X693631Y350378*
X701298*
X701989Y351068*
X671579Y365008D02*
Y365985D01*
X672270Y366676*
X685845*
X686075Y366906*
X672365Y365334D02*
Y365660D01*
X672595Y365890*
X686170*
X686861Y366580*
X672365Y365334D02*
X672595Y365104D01*
X686170*
X688450Y362824*
Y334578*
X722899Y300129*
X722899D02*
Y254691D01*
X722899D02*
X723096Y254494D01*
Y252919*
X671579Y365008D02*
X672270Y364318D01*
X685845*
X687664Y362499*
Y334252*
X722113Y299803*
Y254691*
X664040Y346782D02*
Y377953D01*
X675064Y388977*
X663254Y346457D02*
Y378279D01*
X674278Y389302*
X711627Y397911D02*
Y398888D01*
X712317Y399579*
X731974*
X732204Y399809*
X712413Y398237D02*
Y398562D01*
X712643Y398793*
X732300*
X732990Y399483*
X712413Y398237D02*
X712643Y398007D01*
X722011*
X722702Y397316*
Y345612*
X919158Y149155*
Y143597*
X711627Y397911D02*
X712317Y397221D01*
X721685*
X721916Y396990*
Y345287*
X918372Y148830*
Y143922*
X686075Y366906D02*
Y470808D01*
X686089Y470822*
X686861Y366580D02*
Y470250D01*
X686875Y470264*
X690812Y476147D02*
Y490510D01*
X690813Y490511*
X690812Y476147D02*
Y471149D01*
X693401Y468560*
Y352966*
X693631Y352736*
X701298*
X701989Y352045*
Y351068*
X690025Y490185D02*
X690026Y490184D01*
Y470824*
X692615Y468235*
Y352640*
X693305Y351950*
X700973*
X701203Y351719*
Y351394*
X698686Y503475D02*
X704361Y497800D01*
X715017*
X726243Y486573*
Y415153*
X757446Y383951*
X757962*
X758193Y384181*
Y392727*
X758883Y393418*
X759860*
X760550Y392727*
Y370537*
X760781Y370307*
X761106*
X761336Y370537*
Y389583*
X762027Y390274*
X763004*
X763694Y389583*
Y377702*
X796551Y344846*
Y284327*
X925889Y154988*
Y154207*
X926282Y153814*
X929492*
X697900Y503150D02*
X704036Y497014D01*
X714691*
X725457Y486248*
Y414828*
X757120Y383165*
X758288*
X758978Y383855*
X758978D02*
Y392401D01*
X758978D02*
X759209Y392632D01*
X759534*
X759764Y392401*
Y370212*
X760455Y369521*
X761432*
X762122Y370212*
Y389258*
X762353Y389488*
X762678*
X762908Y389258*
Y377377*
X795765Y344520*
Y284001*
X925103Y154663*
Y154207*
X694749Y502320D02*
Y574572D01*
X696324Y576147*
X694749Y502320D02*
X710891Y486178D01*
Y464499*
X722702Y452688*
Y401381*
X722932Y401151*
X732300*
X732990Y400460*
Y399483*
X693963Y562137D02*
Y501994D01*
X710105Y485852*
Y464173*
X721916Y452362*
Y401055*
X722606Y400365*
X731974*
X732204Y400134*
Y399809*
X675064Y388977D02*
Y558824D01*
X676639Y560399*
X672702D02*
X674278Y558824D01*
Y389302*
X692387Y572210D02*
X693963Y570635D01*
Y562137*
X686089Y470822D02*
Y581060D01*
X687475Y582446*
X690812*
X692387Y584021*
X697900Y503150D02*
Y576149D01*
X700261Y578511*
X698686Y503475D02*
Y574572D01*
X700261Y576147*
X686875Y470264D02*
Y580734D01*
X687800Y581660*
X694749*
X696324Y580084*
X700261D02*
Y578511D01*
G54D135*
X483390Y114492D02*
Y112594D01*
X483784Y112200*
X486992*
X475852Y115862D02*
Y111451D01*
X478085Y109218*
X487907*
X495930Y117242*
X475064Y116189D02*
Y111125D01*
X477759Y108430*
X488234*
X496718Y116915*
X479000Y112200D02*
X482208D01*
X482602Y112594*
Y114819*
X485732Y117948*
Y119062*
X485962Y119293*
X487903*
X488133Y119523*
Y119849*
X484237Y141176D02*
Y127062D01*
X486520Y124780*
X483449Y141502D02*
Y126736D01*
X485732Y124453*
Y121884*
X485962Y121654*
X487903*
X488133Y121423*
X485732Y120636D02*
Y120310D01*
X485962Y120080*
X487903*
X488133Y119849*
X470988Y132314D02*
Y131988D01*
X471219Y131757*
X473160*
X473390Y131527*
X470988Y130740D02*
Y130414D01*
X471219Y130183*
X473160*
X473390Y129953*
Y126374*
X473784Y125980*
X476992*
X470200Y133102D02*
Y129626D01*
X470431Y129395*
X472372*
X472602Y129165*
X470200Y133102D02*
X470431Y133332D01*
X472372*
X472602Y133563*
Y140979*
X470988Y132314D02*
X471219Y132544D01*
X473160*
X473390Y132775*
Y141305*
X470988Y130740D02*
X471219Y130970D01*
X473160*
X473390Y131201*
Y131527*
X475064Y116189D02*
X481757Y122882D01*
Y141174*
X475852Y115862D02*
X482545Y122555D01*
Y141500*
X485732Y120636D02*
X485962Y120867D01*
X487903*
X488133Y121097*
Y121423*
X483390Y114492D02*
X486520Y117622D01*
Y118274*
X486750Y118505*
X488691*
X488921Y118735*
Y122211*
X469000Y125980D02*
X472208D01*
X472602Y126374*
Y129165*
X493962Y123115D02*
Y126847D01*
X503390Y136274*
X493175Y122788D02*
Y127173D01*
X502602Y136600*
X486520Y124780D02*
Y122672D01*
X486750Y122442*
X488691*
X488921Y122211*
X493962Y123115D02*
X496718Y120359D01*
Y116915*
X493175Y122788D02*
X495930Y120032D01*
Y117242*
X529374Y130385D02*
Y130059D01*
X529605Y129829*
X529931*
X530492Y130390*
X530818*
X531048Y130159*
X530487Y129272D02*
Y128946D01*
X530718Y128716*
X531044*
X531605Y129277*
X531930*
X531930D02*
X532161Y129046D01*
X532714Y128159D02*
Y127833D01*
X533390Y127158*
Y126374*
X533784Y125980*
X536992*
X531600Y128159D02*
Y127833D01*
X532602Y126831*
X529374Y130385D02*
X529935Y130946D01*
Y131272*
X530487Y129272D02*
X531048Y129833D01*
Y130159*
X531600Y128159D02*
X532161Y128720D01*
Y129046*
X532714Y128159D02*
X533275Y128720D01*
Y129046*
X529000Y125980D02*
X532208D01*
X532602Y126374*
Y126831*
X572467Y131030D02*
Y130704D01*
X572698Y130474*
X573160*
X573390Y130243*
X572467Y129456D02*
Y129130D01*
X572698Y128900*
X573160*
X573390Y128669*
Y126374*
X573784Y125980*
X576992*
X571679Y131818D02*
Y128342D01*
X571910Y128112*
X572372*
X572602Y127881*
X571679Y131818D02*
X571910Y132049D01*
X572372*
X572602Y132279*
Y142032*
X573294Y142724*
X590200*
X590431Y142955*
Y143281*
X572467Y129456D02*
X572698Y129687D01*
X573160*
X573390Y129917*
Y130243*
X572467Y131030D02*
X572698Y131261D01*
X573160*
X573390Y131491*
Y141706*
X573621Y141936*
X590527*
X591219Y142628*
Y143607*
X569000Y125980D02*
X572208D01*
X572602Y126374*
Y127881*
X375064Y144889D02*
Y138959D01*
X378428Y135596*
X380740*
X383390Y138246*
Y139641*
X383784Y140035*
X386992*
X375852Y144563D02*
Y139286D01*
X378754Y136384*
X380413*
X382602Y138573*
X375064Y144889D02*
X427820Y197645D01*
Y265414*
X375852Y144563D02*
X428608Y197319D01*
Y265740*
X379000Y140035D02*
X382208D01*
X382602Y139641*
Y138573*
X445457Y293961D02*
Y148124D01*
X445732Y147849*
X443390Y142327D02*
Y140429D01*
X443784Y140035*
X446992*
X443390Y142327D02*
X445034Y143972D01*
X447993*
X448223Y144202*
Y144528*
X439000Y140035D02*
X442208D01*
X442602Y140429*
Y142653*
X445732Y145783*
Y147849*
X465457Y304246D02*
Y148124D01*
X472602Y140979*
X446245Y294287D02*
Y148451D01*
X446520Y148176*
X446473Y145410D02*
Y144989D01*
X446704Y144758*
X447993*
X448223Y144528*
X446473Y145410D02*
X446520Y145457D01*
Y148176*
X485457Y327551D02*
Y148124D01*
X485732Y147849*
X480183Y148028D02*
Y143863D01*
X482545Y141500*
X479395Y148354D02*
Y143536D01*
X481757Y141174*
X466245Y304573D02*
Y148451D01*
X473390Y141305*
X479395Y148354D02*
X483726Y152685D01*
Y248387*
X480183Y148028D02*
X484514Y152358D01*
Y248713*
X483449Y141502D02*
X485732Y143785D01*
Y147849*
X484237Y141176D02*
X486520Y143459D01*
Y148176*
X503390Y136274D02*
Y139641D01*
X503784Y140035*
X506992*
X486245Y327225D02*
Y148451D01*
X486520Y148176*
X499000Y140035D02*
X502208D01*
X502602Y139641*
Y136600*
X523572Y151763D02*
Y151437D01*
X523802Y151207*
X525226*
X525457Y150976*
X524670Y150189D02*
Y149863D01*
X524900Y149633*
X525226*
X525457Y149402*
Y148124*
X525732Y147849*
X523390Y142327D02*
Y140429D01*
X523784Y140035*
X526992*
X516245Y143912D02*
Y138893D01*
X521882Y133256*
X527291*
X528492Y132056*
X528818*
X529379Y132617*
X529705*
X533275Y129046*
X515457Y144238D02*
Y138567D01*
X521555Y132468*
X526965*
X528492Y130942*
X528818*
X529379Y131503*
X529705*
X529935Y131272*
X515457Y144238D02*
X519747Y148529D01*
Y239827*
X516245Y143912D02*
X520535Y148203D01*
Y240154*
X523572Y151763D02*
X523802Y151994D01*
X525226*
X525457Y152224*
Y287647*
X524670Y150189D02*
X524900Y150420D01*
X525226*
X525457Y150650*
Y150976*
X523390Y142327D02*
X526520Y145457D01*
Y148176*
X519000Y140035D02*
X522208D01*
X522602Y140429*
Y142653*
X525732Y145783*
Y147849*
X526245Y287974D02*
Y148451D01*
X526520Y148176*
X573390Y201868D02*
Y154208D01*
X573784Y153814*
X576992*
X579260Y148197D02*
Y147679D01*
X579490Y147449*
X590187*
X590879Y146757*
X578472Y148523D02*
Y147353D01*
X579164Y146661*
X589861*
X590091Y146431*
X576380Y144856D02*
Y144530D01*
X576610Y144299*
X590527*
X591219Y143607*
X575592Y145182D02*
Y144203D01*
X576284Y143511*
X590200*
X590431Y143281*
X575592Y145182D02*
X576284Y145874D01*
X589861*
X590091Y146105*
Y146431*
X578472Y148523D02*
X586088Y156140D01*
Y314334*
X670340Y398586*
Y581062*
X675661Y586384*
X698687*
X700261Y587958*
X576380Y144856D02*
X576610Y145086D01*
X590187*
X590879Y145778*
Y146757*
X579260Y148197D02*
X586876Y155813D01*
Y314008*
X671128Y398259*
Y580736*
X675988Y585596*
X698687*
X700261Y584021*
X569000Y153814D02*
X572208D01*
X572602Y154208*
Y202195*
X581757Y211350*
Y361350*
X611284Y390877*
X612454*
X613146Y390185*
Y382741*
X613377Y382511*
X613377D02*
X613703D01*
X613703D02*
X613933Y382741D01*
Y402736*
X614625Y403428*
X615604*
X616296Y402736*
Y385891*
X616527Y385660*
X616853*
X617083Y385891*
Y405886*
X617775Y406578*
X618754*
X619446Y405886*
Y389041*
X619677Y388810*
X620003*
X620233Y389041*
Y399826*
X650655Y430247*
Y443267*
X666403Y459015*
Y584999*
X671724Y590321*
X686876*
X688450Y591895*
X573390Y201868D02*
X582545Y211023D01*
Y361023*
X611611Y390089*
X612128*
X612358Y389858*
Y382415*
X613050Y381723*
X614029*
X614721Y382415*
Y402409*
X614952Y402640*
X615278*
X615508Y402409*
Y385565*
X616200Y384872*
X617179*
X617871Y385565*
Y405559*
X618102Y405790*
X618428*
X618658Y405559*
Y388714*
X619350Y388022*
X620329*
X621021Y388714*
Y399499*
X651443Y429921*
Y442941*
X667191Y458689*
Y584673*
X672051Y589533*
X686876*
X688450Y587958*
X708658Y229381D02*
Y230956D01*
X709587Y231885*
Y233630*
X709606Y233649*
X710375Y232126D02*
Y232878D01*
X710394Y232897*
X710375Y232126D02*
Y231914D01*
X711322Y230967*
Y229393*
X471210Y249962D02*
Y249636D01*
X471441Y249405*
X483822*
X484514Y248713*
X470422Y250288D02*
Y249310D01*
X471114Y248617*
X483495*
X483726Y248387*
X470422Y250288D02*
X471114Y250980D01*
X483495*
X483726Y251211*
Y347204*
X609519Y472998*
X622145*
X627033Y477885*
Y543077*
X471210Y249962D02*
X471441Y250192D01*
X483822*
X484514Y250885*
Y346878*
X609846Y472210*
X622472*
X627821Y477559*
Y543077*
X629395Y544651*
X510066Y307937D02*
Y250623D01*
X520535Y240154*
X509278Y307611D02*
Y250296D01*
X519747Y239827*
X709606Y233649D02*
Y245526D01*
X719159Y255078*
X710394Y232897D02*
Y245199D01*
X719947Y254752*
X417778Y270139D02*
Y269813D01*
X418009Y269582*
X438746*
X439438Y268890*
X416990Y270465D02*
Y269487D01*
X417682Y268794*
X438420*
X438650Y268564*
X417778Y266989D02*
Y266663D01*
X418009Y266432*
X427916*
X428608Y265740*
X416990Y267315D02*
Y266337D01*
X417682Y265645*
X427590*
X427820Y265414*
X416990Y270465D02*
X417682Y271157D01*
X438420*
X438650Y271388*
Y271714*
X416990Y267315D02*
X417682Y268007D01*
X438420*
X438650Y268238*
Y268564*
X417778Y270139D02*
X418009Y270369D01*
X438746*
X439438Y271061*
Y272040*
X417778Y266989D02*
X418009Y267219D01*
X438746*
X439438Y267912*
Y268890*
X428608Y338216D02*
Y272963D01*
X428839Y272732*
X438746*
X439438Y272040*
X427820Y338543D02*
Y272636D01*
X428512Y271944*
X438420*
X438650Y271714*
X511641Y292372D02*
Y292046D01*
X511872Y291816*
X540156*
X540848Y291123*
X510853Y292698D02*
Y291720D01*
X511545Y291028*
X539830*
X540060Y290797*
X511641Y289222D02*
Y288896D01*
X511872Y288666*
X525553*
X526245Y287974*
X510853Y289548D02*
Y288570D01*
X511545Y287878*
X525226*
X525457Y287647*
X510853Y292698D02*
X511545Y293390D01*
X539830*
X540060Y293621*
Y293947*
X510853Y289548D02*
X511545Y290241D01*
X539830*
X540060Y290471*
Y290797*
X511641Y292372D02*
X511872Y292602D01*
X511872D02*
X540156D01*
X540156D02*
X540848Y293295D01*
Y294273*
X511641Y289222D02*
X511872Y289453D01*
X540156*
X540848Y290145*
Y291123*
X430544Y298686D02*
Y298360D01*
X430775Y298129*
X461253*
X461945Y297437*
X429756Y299012D02*
Y298034D01*
X429756D02*
X430448Y297341D01*
X460927*
X461157Y297111*
X430544Y295536D02*
Y295210D01*
X430775Y294979*
X445553*
X446245Y294287*
X429756Y295862D02*
Y294884D01*
X430448Y294192*
X445226*
X445457Y293961*
X429756Y299012D02*
X430448Y299704D01*
X445226*
X445457Y299935*
Y340453*
X546454Y441451*
X553590*
X591831Y479691*
X591831D02*
X613905D01*
X619159Y484944*
Y539140*
X429756Y295862D02*
X430448Y296554D01*
X460927*
X461157Y296785*
Y297111*
X430544Y298686D02*
X430775Y298916D01*
X445553*
X446245Y299608*
Y340127*
X546780Y440663*
X553917*
X592157Y478903*
X614232*
X619947Y484618*
Y535203*
X621521Y536777*
X430544Y295536D02*
X430775Y295766D01*
X461253*
X461945Y296459*
Y297437*
X450571Y308971D02*
Y308645D01*
X450801Y308415*
X479155*
X479847Y307723*
X449783Y309297D02*
Y308319D01*
X450475Y307627*
X478829*
X479059Y307396*
X450571Y305821D02*
Y305495D01*
X450801Y305265*
X465553*
X466245Y304573*
X449783Y306148D02*
Y305169D01*
X450475Y304477*
X465226*
X465457Y304246*
X449783Y309297D02*
X450475Y309990D01*
X465226*
X465457Y310220*
Y336809*
X589833Y461186*
X592950*
X609487Y477722*
X619811*
X623096Y481007*
Y536777*
X625458Y539140*
Y540714*
X449783Y306148D02*
X450475Y306840D01*
X478829*
X479059Y307070*
Y307396*
X450571Y308971D02*
X450801Y309202D01*
X465553*
X466245Y309894*
Y336483*
X590159Y460398*
X593276*
X609813Y476934*
X620137*
X623884Y480681*
Y535203*
X625458Y536777*
X450571Y305821D02*
X450801Y306052D01*
X479155*
X479847Y306744*
Y307723*
X491277Y312335D02*
Y312009D01*
X491508Y311779*
X521911*
X522603Y311087*
X490489Y312662D02*
Y311683D01*
X491181Y310991*
X521584*
X521815Y310760*
X491277Y309186D02*
Y308860D01*
X491508Y308629*
X509374*
X510066Y307937*
X490489Y309512D02*
Y308533D01*
X491181Y307841*
X509048*
X509278Y307611*
X490489Y312662D02*
X491181Y313354D01*
X509048*
X509278Y313584*
Y342317*
X634812Y467851*
Y474247*
X634907Y474342*
Y535203*
X490489Y309512D02*
X491181Y310204D01*
X521584*
X521815Y310434*
Y310760*
X491277Y312335D02*
X491508Y312566D01*
X509374*
X510066Y313258*
Y341991*
X635600Y467525*
Y473921*
X635695Y474016*
Y539140*
X637269Y540714*
X491277Y309186D02*
X491508Y309416D01*
X521911*
X522603Y310108*
Y311087*
X525457Y316487D02*
Y294870D01*
X526149Y294177*
X539830*
X540060Y293947*
X526245Y316160D02*
Y295196D01*
X526475Y294965*
X540156*
X540848Y294273*
X485457Y327551D02*
X596025Y438119D01*
Y438636*
X486245Y327225D02*
X596813Y437793D01*
Y438963*
X525457Y316487D02*
X638820Y429850D01*
Y477074*
X638844Y477098*
Y554888*
X526245Y316160D02*
X639608Y429524D01*
Y476748*
X639632Y476771*
Y556462*
X427820Y338543D02*
X537866Y448588D01*
X551307*
X586875Y484157*
Y515237*
X590305Y518667*
X590419*
X595537Y523785*
Y527328*
X428608Y338216D02*
X538192Y447800D01*
X538192D02*
X551633D01*
X551633D02*
X587663Y483830D01*
Y514911*
X590394Y517641*
X590469*
X590813Y517984*
Y517946*
X596325Y523459*
Y527329*
X597899Y528903*
X670793Y348299D02*
X678841Y340251D01*
X679358*
X679588Y340482*
Y353541*
X679588D02*
X680280Y354233D01*
X681259*
X681951Y353540*
X681951D02*
Y337997D01*
X719947Y300001*
Y254752*
X670005Y347973D02*
X678514Y339463D01*
X679684*
X680376Y340155*
Y353214*
X680607Y353445*
X680933*
X681163Y353214*
Y336814*
X719159Y298819*
Y255078*
X670005Y347973D02*
Y370070D01*
X678214Y378279*
Y534578*
X670793Y348299D02*
Y369743D01*
X679002Y377953*
Y554888*
X680576Y556462*
X583335Y443361D02*
Y443035D01*
X583565Y442805*
X602546*
X603238Y442113*
X582547Y443688D02*
Y442709D01*
X583239Y442017*
X602220*
X602450Y441786*
X580185Y440211D02*
Y439885D01*
X580416Y439655*
X596121*
X596813Y438963*
X579397Y440538D02*
Y439559D01*
X580089Y438867*
X595794*
X596025Y438636*
X582547Y443688D02*
X583239Y444380D01*
X602285*
X630970Y473064*
Y547014*
X579397Y440538D02*
X580089Y441230D01*
X602220*
X602450Y441460*
Y441786*
X583335Y443361D02*
X583565Y443592D01*
X602612*
X631758Y472738*
Y548588*
X580185Y440211D02*
X580416Y440442D01*
X602546*
X603238Y441134*
Y442113*
X938583Y438976D02*
Y564425D01*
X953440Y579282*
X955138*
X956494Y577926*
X958463*
X944488Y448031D02*
Y564061D01*
X954198Y573771*
X954331Y448031D02*
X955905Y446457D01*
X958920*
X961678Y449216*
Y504680*
X964419Y492739D02*
X966142Y491017D01*
Y448031*
X781500Y497000D02*
X800343D01*
X810593Y507250*
X828472*
X830183Y508961*
Y509476*
X831894Y511187*
X832409*
X834120Y512898*
Y513413*
X835831Y515124*
X838057*
X845931Y522998*
X852762*
X872646Y542881*
Y543020*
X882151Y552525*
X960482Y574883D02*
Y505876D01*
X961678Y504680*
X593962Y528903D02*
X595537Y527328D01*
X1000922Y518201D02*
Y521853D01*
X1003017Y523948*
X1000922Y518201D02*
X1003509Y515614D01*
X1004382*
X1009709Y510287*
Y416306*
X1015616Y410399*
X617584Y540714D02*
X619159Y539140D01*
X625458Y544651D02*
X627033Y543077D01*
X629395Y552525D02*
Y550951D01*
X631758Y548588*
X629395D02*
X630970Y547014D01*
X633332Y536777D02*
X634907Y535203D01*
X1001443Y534809D02*
Y533166D01*
X1003017Y531592*
Y523948*
X637269Y560399D02*
Y558825D01*
X639632Y556462*
X637269D02*
X638844Y554888D01*
X676639Y556462D02*
X678214Y554888D01*
Y534578*
X702032Y594062D02*
Y568145D01*
X704198Y565979*
Y564336D02*
Y565979D01*
X962072Y566305D02*
Y567947D01*
X963647Y569521*
X964419Y492739D02*
Y556261D01*
X964434Y556275*
X497112Y588746D02*
X499474D01*
X500037Y589309*
X521066*
X521684Y589926*
X548428*
X552365Y593863*
X570621*
X570621D02*
X571409Y593076D01*
X587432*
X587826Y593470*
X593760*
X495332Y590659D02*
X499474D01*
X500037Y590096*
X520740*
X521358Y590714*
X548101*
X552038Y594651*
X570948*
X571735Y593864*
X587106*
X587500Y594258*
X593760*
X617584Y576147D02*
X619552Y574179D01*
X621779*
X623490Y572468*
Y571952*
X625200Y570242*
X629653*
X631364Y568531*
Y568015*
X637011Y562368*
X637527*
X639238Y560657*
Y560141*
X640948Y558431*
X641464*
X643175Y556720*
Y520242*
X664828Y498588*
X690813Y490511D02*
Y578509D01*
X692387Y580084*
X688450D02*
X690025Y578509D01*
Y490185*
X845931Y587958D02*
X847573D01*
X849560Y585971*
X945434*
X945434D02*
X947065Y584340D01*
X947065D02*
X958726D01*
X963647Y579420*
Y569521*
X960482Y574883D02*
X962072Y576473D01*
Y578116*
Y593864D02*
Y589381D01*
X964041Y587413*
Y582924*
X964434Y582531*
Y556275*
X954091Y577707D02*
Y576119D01*
X956167Y574043*
Y489180*
X958268Y487080*
Y448031*
X621521Y607643D02*
X623490Y609612D01*
X625716*
X627427Y611323*
Y611838*
X629138Y613549*
X635549*
X637500Y615500*
X617584Y607643D02*
X619227D01*
X620801Y606069*
X627821*
X631118Y609366*
X637281*
X639238Y611323*
Y611838*
X640949Y613549*
X649338*
X651049Y615260*
Y615775*
X652760Y617486*
X653275*
X655379Y619590*
Y649375*
X660891Y654887*
X698687Y606069D02*
Y610006D01*
X700261Y611580*
X697900Y611445D02*
Y598194D01*
X702032Y594062*
X697900Y611445D02*
X700398Y613943D01*
X726097*
X727671Y615517*
X759449*
X781638Y637706*
X900009*
X909710Y647407*
X698687Y606069D02*
X699474Y605281D01*
X735694*
X745143Y595832*
Y558915*
X753017Y551041*
Y527404*
X765222Y515199*
Y480478*
X819553Y426147*
X901049*
X700261Y611580D02*
X701836Y613155D01*
X725852*
X727033Y611974*
X744051*
X745233Y613155*
X763326*
X764901Y611580*
X781041*
X796028Y596593*
Y573023*
X811156Y557894*
X880554*
X891828Y546620*
X914435*
X828608Y608295D02*
Y599509D01*
X830317Y597801*
X834446*
X836414Y595832*
X838057*
X827821Y608689D02*
Y596132D01*
X832054Y591900*
X845926*
X849868Y587958*
X827821Y608689D02*
X830186Y611054D01*
Y612038*
X841933Y623785*
X890419*
X828608Y608295D02*
X830318Y610005D01*
X867092*
X872407Y615320*
X936875*
X941009Y619454*
X962398*
X964367Y621423*
X966009*
X830183Y607643D02*
X831825D01*
X833724Y605744*
X893575*
X898664Y600655*
X947729*
X950583Y597801*
X962072*
X830575Y599769D02*
X832150Y601344D01*
X867057*
X869321Y599080*
X933601*
X937242Y595438*
X963049*
X849868Y603706D02*
X851510D01*
X853085Y602131*
X881380*
X883643Y599868*
X942702*
X946344Y596226*
X962724*
X963647Y597149*
Y598453*
X912073Y604358D02*
Y603054D01*
X913487Y601640*
X952558*
X954822Y599376*
X962724*
X963647Y598453*
X912073Y604358D02*
X913648Y605933D01*
X954457*
X964434Y596823D02*
X963049Y595438D01*
X964041Y594447*
Y589669*
X965744Y587966*
X966282*
X967978Y586270*
Y491672*
X970079Y489571*
Y448031*
X952624Y603313D02*
X955774Y600163D01*
X958787*
X960096Y601472*
Y602010*
X961414Y603328*
X962731*
X964434Y601625*
Y596823*
X625458Y647013D02*
X625553Y647108D01*
X653017Y647013D02*
X653067Y647063D01*
X909710Y647407D02*
X913253Y650950D01*
X958393*
X960104Y652661*
Y653177*
X961814Y654887*
X1025064*
X1029001Y658824*
X1045075*
X1047044Y660793*
X1048687*
X543569Y670635D02*
X545143Y672210D01*
X547789*
X551844Y668155*
X612798*
X623096Y657857*
Y645439*
X625458Y643076*
X543569Y674572D02*
X545143Y672998D01*
X548115*
X552170Y668943*
X613124*
X623884Y658183*
Y648777*
X625553Y647108*
X543569Y682446D02*
X545143Y680872D01*
X546685*
X551361Y676196*
Y673561*
X553572Y671351*
X632090*
X635796Y667645*
Y664383*
X637624Y662554*
X647173*
X651443Y658284*
Y648687*
X653067Y647063*
X543569Y678509D02*
X545143Y680084D01*
X546359*
X550573Y675869*
Y673235*
X553245Y670563*
X631764*
X635008Y667319*
Y664056*
X637298Y661766*
X646846*
X650655Y657958*
Y645439*
X653017Y643076*
X733332Y705567D02*
X741511Y713746D01*
X801974*
X805714Y717486*
X814828*
X818371Y713943*
X850090*
X858878Y705155*
X877300*
X890419Y692036*
Y685202*
G54D154*
X1122735Y203513D03*
X0Y0D02*
M02*
