%
T1C.008F0S0
X021496Y020866
X021614Y010906
X022047Y010906
X023819Y011614
X029449Y011299
X029685Y011299
X029921Y011299
X032402Y020354
X034016Y017283
X036181Y017283
X059213Y017087
X064528Y015709
X068465Y01748
X07063Y01748
X094377Y015714
X094646Y017283
X099961Y014134
X10252Y015906
X103527Y020599
X103927Y020599
X108227Y020599
X108627Y020599
X121889Y023858
X12116Y023858
X07252Y023346
X07252Y025709
X072244Y023346
X072244Y025709
X071933Y023356
X071666Y023355
X071342Y023356
X071339Y025827
X071076Y023355
X071063Y025827
X070752Y023356
X070748Y025827
X070485Y023355
X070472Y025827
X070161Y023356
X069895Y023355
X069571Y023356
X069567Y025827
X069304Y023355
X069291Y025827
X06898Y023356
X068976Y025827
X068714Y023355
X068701Y025827
X068389Y023356
X068123Y023355
X067799Y023356
X067795Y025827
X067533Y023355
X06752Y025827
X067208Y023356
X067205Y025827
X066942Y023355
X066929Y025827
X064649Y023356
X064646Y025827
X064383Y023355
X06437Y025827
X064059Y023356
X063792Y023355
X063468Y023356
X063465Y025827
X063202Y023355
X063189Y025827
X062878Y023356
X062874Y025827
X062611Y023355
X062598Y025827
X062287Y023356
X062283Y025827
X062021Y023355
X062008Y025827
X061697Y023356
X06143Y023355
X061106Y023356
X061102Y025827
X06084Y023355
X060827Y025827
X060515Y023356
X060512Y025827
X060249Y023355
X060236Y025827
X059925Y023356
X059921Y025827
X059659Y023355
X059646Y025827
X059334Y023356
X059331Y025827
X059068Y023355
X059055Y025827
X034951Y021094
X024764Y023543
X023858Y025669
X023701Y023976
X022087Y021772
X020827Y031417
X023504Y02752
X024685Y027008
X027717Y032441
X06811Y026339
X068386Y026339
X069882Y026339
X070157Y026339
X071654Y026339
X071929Y026339
X08626Y031102
X08626Y032165
X087727Y030949
X087795Y032362
X088597Y030914
X088976Y031102
X088976Y032165
X089384Y029556
X092638Y02752
X093701Y02752
X094685Y02752
X095709Y02752
X097244Y027559
X098228Y027559
X099252Y027559
X100276Y027559
X102827Y032199
X103858Y032205
X110197Y032559
X111132Y032667
X113346Y03252
X120065Y026203
X128307Y031457
X128307Y029055
X13126Y030276
X112992Y036653
X112441Y034252
X112402Y036693
X112165Y034921
X111877Y035849
X111801Y034606
X111496Y03622
X111417Y03378
X111388Y03499
X111378Y034252
X110236Y035827
X109055Y037008
X108346Y038189
X107402Y037835
X105906Y037047
X100354Y035906
X100157Y036811
X099961Y035906
X099777Y036799
X095427Y037799
X092477Y038099
X092441Y037323
X092441Y038346
X09189Y038346
X091299Y03815
X091102Y037835
X090827Y037992
X085Y037244
X084961Y037638
X028661Y038268
X013307Y037913
X011811Y041457
X014291Y040591
X020079Y039173
X020118Y040472
X02748Y040354
X02815Y039528
X030827Y043012
X030827Y042421
X032638Y041299
X033622Y041693
X038937Y041969
X043465Y041496
X047227Y042299
X06748Y042756
X089961Y041299
X089961Y042874
X090315Y043031
X090866Y04189
X091614Y042402
X092244Y039488
X092244Y039882
X092283Y040669
X092283Y040276
X092441Y041063
X092441Y041457
X092441Y038701
X092441Y039291
X092441Y039685
X092441Y040079
X093377Y038499
X093543Y042835
X093582Y042442
X100866Y043031
X100905Y042639
X101771Y042442
X101772Y041457
X101772Y042835
X10626Y039921
X106277Y038899
X107388Y039852
X107913Y040787
X108295Y038532
X108386Y040827
X109016Y039764
X128189Y038425
X129764Y040455
X13063Y042756
X126575Y043524
X126575Y044114
X126575Y044508
X126575Y045098
X126575Y045571
X126573Y043815
X126573Y044799
X126573Y045862
X101771Y043623
X098994Y045354
X0988Y045512
X0986Y045354
X098386Y044331
X098189Y045236
X097795Y045236
X097617Y043807
X097598Y044331
X097205Y045236
X097008Y045472
X096929Y044173
X096811Y045236
X096614Y044331
X096417Y044094
X096024Y045236
X095827Y044331
X09563Y045236
X095236Y045236
X094843Y044331
X094646Y045236
X094449Y044331
X094252Y045236
X094055Y044331
X093858Y044094
X092441Y043819
X090563Y043408
X090551Y044488
X089827Y043439
X089803Y044528
X084734Y045546
X083621Y045546
X082538Y045546
X081811Y043701
X081743Y044664
X081503Y045546
X08126Y043701
X078504Y043465
X075354Y043465
X072205Y043465
X069055Y043465
X066693Y044094
X065906Y045039
X063583Y045
X061181Y043465
X058819Y045039
X056457Y043465
X054094Y045039
X045039Y043858
X043465Y043858
X038937Y045118
X038898Y043504
X030827Y043484
X030827Y044075
X030827Y045374
X030827Y044783
X025551Y049764
X026142Y047598
X026142Y048386
X028504Y049567
X028858Y049567
X030827Y046083
X030827Y04935
X030827Y046673
X030827Y049941
X033127Y049149
X033127Y050149
X033228Y047205
X033228Y048189
X033527Y049299
X038898Y046417
X038898Y047638
X038898Y048976
X038937Y050157
X043425Y04622
X043465Y048976
X045039Y04622
X045039Y048976
X049827Y048649
X058425Y048976
X058425Y048583
X059213Y048976
X059213Y048583
X06Y048976
X06Y048583
X060787Y048976
X060787Y048583
X061575Y048976
X061575Y048583
X062362Y048976
X062362Y048583
X06315Y048976
X06315Y048583
X063937Y048976
X063937Y048583
X064724Y048976
X064724Y048583
X065512Y048976
X065512Y048583
X066299Y048976
X066299Y048583
X067087Y048976
X067087Y048583
X067874Y048976
X067874Y048583
X068661Y048976
X068661Y049528
X068661Y048583
X068661Y050394
X069449Y048976
X069449Y048583
X070236Y048976
X070236Y048583
X071024Y048976
X071024Y048583
X071811Y048976
X071811Y048583
X072598Y048976
X072598Y048583
X073386Y048976
X073386Y048583
X074173Y048976
X074173Y048583
X076929Y048976
X076929Y047402
X076929Y050551
X077649Y046518
X078504Y048976
X078504Y050551
X078931Y048975
X080044Y048975
X080463Y047239
X080463Y048352
X081177Y047449
X081417Y048189
X081457Y049764
X081457Y048976
X08185Y048583
X08185Y048976
X08185Y04937
X08185Y049764
X08185Y048189
X08185Y050551
X08185Y050157
X082244Y049764
X082244Y04937
X082244Y048976
X082244Y048189
X082244Y050551
X082244Y050157
X082244Y048543
X082638Y048189
X082638Y048583
X082638Y04937
X082638Y050157
X082638Y050551
X082638Y049764
X082638Y048976
X083031Y048976
X083031Y04937
X083031Y049764
X083031Y050551
X083031Y050157
X083425Y048583
X083425Y048976
X083425Y048189
X083425Y04937
X083425Y049764
X083425Y050157
X083425Y050551
X083819Y048189
X083819Y048976
X083819Y04937
X083819Y048583
X083819Y049764
X083819Y050551
X083819Y050157
X084213Y048189
X084213Y048583
X084606Y048583
X084606Y050551
X085Y049764
X085Y048583
X085Y048976
X085Y04937
X085Y050551
X085Y050157
X085394Y049764
X085394Y050157
X085799Y047239
X085811Y048352
X086785Y048352
X086797Y047239
X088509Y049954
X088509Y048961
X089528Y048465
X09622Y048386
X097402Y048386
X102126Y046693
X105512Y050089
X126573Y049405
X126573Y050586
X126575Y046161
X126575Y049114
X126575Y049705
X126575Y050295
X126575Y050886
X12937Y046269
X126575Y051358
X126575Y051949
X126575Y053091
X126573Y051649
X126573Y053382
X109016Y05311
X108622Y05311
X108228Y05311
X107047Y05311
X106654Y05311
X10626Y05311
X105669Y051535
X105079Y05311
X104291Y05311
X103898Y05311
X103504Y05311
X10311Y05311
X102717Y05311
X101535Y05311
X101142Y05311
X100748Y05311
X100354Y05311
X099961Y05311
X09937Y052756
X099173Y05311
X098386Y05311
X090551Y051339
X090315Y051535
X088509Y050938
X088509Y051923
X088509Y052904
X086535Y052165
X085394Y051732
X085394Y052126
X085394Y053307
X085394Y052913
X085Y051732
X085Y053307
X085Y05252
X085Y050945
X085Y052126
X084606Y050945
X084213Y050945
X083819Y050945
X083819Y052126
X083819Y052913
X083819Y05252
X083819Y053307
X083819Y051339
X083819Y051732
X083425Y052126
X083425Y05252
X083425Y053307
X083425Y050945
X083425Y051339
X083425Y051732
X083031Y052126
X083031Y05252
X083031Y050945
X083031Y051732
X083031Y051339
X082638Y052126
X082638Y05252
X082638Y053307
X082638Y050945
X082638Y051732
X082638Y051339
X082244Y052126
X082244Y052913
X082244Y05252
X082244Y051732
X082244Y051339
X082244Y050945
X08185Y05252
X08185Y052126
X08185Y052913
X08185Y050945
X08185Y051339
X08185Y051732
X081457Y053307
X081457Y052126
X081457Y05252
X081457Y050945
X081457Y051732
X080827Y051142
X075533Y052913
X07553Y051339
X075528Y052126
X075177Y052126
X075177Y052913
X075175Y051339
X072992Y052913
X072992Y053307
X072598Y052913
X072598Y053307
X072598Y05252
X072205Y053307
X072205Y052913
X071811Y053307
X071811Y052913
X071024Y053307
X07063Y053307
X070236Y053307
X070236Y052913
X070236Y05252
X069843Y053307
X069843Y052913
X069449Y052913
X069449Y053307
X069055Y052913
X069055Y053307
X068661Y052913
X068661Y05252
X068661Y052126
X068661Y053307
X068661Y051772
X068268Y053307
X068268Y051496
X068268Y051732
X067874Y053307
X067874Y051929
X067874Y052913
X067874Y051339
X06748Y052087
X06748Y052913
X06748Y051181
X06748Y05252
X067087Y05252
X067087Y052913
X067087Y053307
X066693Y052913
X066693Y053307
X066299Y05252
X066299Y053307
X066299Y052913
X065906Y053307
X065512Y053307
X065512Y052913
X065118Y053307
X065118Y052913
X064724Y052913
X064724Y053307
X064331Y05252
X064331Y052913
X064331Y053307
X063937Y053307
X063543Y052913
X063543Y053307
X06315Y053307
X06315Y052913
X062756Y053307
X062756Y05252
X062756Y052913
X062362Y053307
X061969Y052913
X061969Y053307
X061575Y053307
X061181Y053307
X060787Y053307
X060787Y05252
X06Y053307
X059606Y053307
X059606Y052913
X057244Y051732
X05685Y050945
X05685Y05252
X055866Y051732
X055866Y053307
X055866Y050945
X055866Y05252
X055472Y053307
X055472Y051732
X055472Y05252
X055472Y050945
X052877Y053199
X050227Y051749
X045039Y051339
X043465Y051339
X038898Y051378
X038898Y052559
X037977Y053149
X030827Y051319
X030827Y053209
X030827Y051909
X02752Y051339
X02752Y051929
X026063Y051063
X030827Y053799
X032795Y054094
X033622Y055669
X033661Y054567
X033661Y054094
X038898Y054843
X038937Y053701
X038937Y055866
X043465Y054094
X045039Y054094
X055472Y054094
X055472Y055669
X055472Y054882
X055866Y055669
X055866Y054094
X055866Y054882
X05685Y054882
X057244Y054094
X057244Y055669
X059606Y053701
X059606Y055669
X059606Y054882
X059606Y054094
X059606Y055276
X059606Y054488
X06Y053701
X06Y055669
X06Y054488
X06Y054094
X06Y054882
X06Y055276
X060394Y053701
X060394Y054488
X060394Y055669
X060394Y054882
X060394Y055276
X060394Y054094
X060787Y053701
X060787Y054882
X060787Y055276
X060787Y055669
X060787Y054488
X060787Y054094
X061181Y053701
X061181Y055669
X061181Y054882
X061181Y055276
X061181Y054488
X061181Y054094
X061575Y053701
X061575Y054094
X061575Y055669
X061575Y055276
X061575Y054488
X061575Y054882
X061969Y053701
X061969Y054094
X061969Y054882
X061969Y055276
X061969Y054488
X061969Y055669
X062362Y053701
X062362Y054882
X062362Y055669
X062362Y055276
X062362Y054094
X062362Y054488
X062756Y053701
X062756Y055669
X062756Y054488
X062756Y054094
X062756Y054882
X062756Y055276
X06315Y053701
X06315Y054488
X06315Y054882
X06315Y055276
X06315Y055669
X06315Y054094
X063543Y053701
X063543Y054488
X063543Y055276
X063543Y054094
X063543Y055669
X063543Y054882
X063937Y053701
X063937Y054882
X063937Y054094
X063937Y055276
X063937Y054488
X063937Y055669
X064331Y054094
X064331Y055276
X064331Y053701
X064331Y054488
X064331Y054882
X064331Y055669
X064724Y053701
X064724Y054488
X064724Y054094
X064724Y055669
X064724Y055276
X064724Y054882
X065118Y053701
X065118Y055276
X065118Y054094
X065118Y055669
X065118Y054882
X065118Y054488
X065512Y053701
X065512Y055276
X065512Y054488
X065512Y054882
X065512Y054094
X065512Y055669
X065906Y053701
X065906Y054882
X065906Y055276
X065906Y054488
X065906Y055669
X065906Y054094
X066299Y055669
X066693Y053701
X066693Y055669
X066693Y054488
X066693Y054882
X066693Y055276
X066693Y054094
X067087Y053701
X067087Y054488
X067087Y054882
X067087Y055276
X067087Y054094
X067087Y055669
X06748Y053701
X06748Y054882
X06748Y054488
X06748Y054094
X06748Y055276
X06748Y055669
X067874Y055276
X067874Y054488
X067874Y054882
X067874Y055669
X068268Y053701
X068268Y054882
X068268Y054094
X068268Y055276
X068268Y054488
X068268Y055669
X068661Y054882
X068661Y054094
X068661Y055669
X068661Y054488
X068661Y053701
X069055Y053701
X069055Y055669
X069055Y054094
X069055Y054882
X069055Y054488
X069055Y055276
X069449Y053701
X069449Y054882
X069449Y055276
X069449Y055669
X069449Y054488
X069449Y054094
X069843Y053701
X069843Y054094
X069843Y054488
X069843Y055276
X069843Y055669
X069843Y054882
X070236Y053701
X070236Y054488
X070236Y054094
X070236Y055276
X070236Y054882
X070236Y055669
X07063Y053701
X07063Y055669
X07063Y055276
X07063Y054094
X07063Y054882
X07063Y054488
X071024Y053701
X071024Y055276
X071024Y055669
X071024Y054094
X071024Y054882
X071024Y054488
X071417Y053701
X071417Y055276
X071417Y055669
X071417Y054882
X071417Y054488
X071417Y054094
X071811Y054882
X071811Y053701
X071811Y055669
X071811Y055276
X071811Y054094
X071811Y054488
X072205Y054488
X072205Y055669
X072205Y053701
X072205Y055276
X072205Y054882
X072205Y054094
X072598Y053701
X072598Y054882
X072598Y055276
X072598Y054488
X072598Y054094
X072598Y055669
X072992Y053701
X072992Y055669
X072992Y054094
X072992Y054488
X073071Y054803
X073189Y055472
X073386Y055079
X073936Y054094
X074552Y053701
X077731Y055669
X078091Y055669
X080457Y053932
X080497Y055045
X081063Y054094
X081457Y053701
X08185Y053701
X082244Y053701
X082244Y054134
X082477Y054349
X082638Y053701
X082677Y054094
X083031Y053701
X083425Y054094
X083425Y053701
X083819Y053701
X084213Y053701
X084606Y053701
X085Y054094
X085012Y054764
X085781Y055045
X08677Y055045
X091535Y054291
X091654Y055472
X091654Y054685
X091654Y053898
X091654Y055079
X091654Y055866
X092527Y054549
X094843Y055079
X095577Y054799
X09563Y054291
X096417Y054685
X096417Y055118
X096811Y055866
X097205Y055118
X097992Y055118
X098093Y055375
X098386Y055118
X098386Y053504
X098447Y055375
X09878Y053898
X09878Y054291
X09878Y055079
X09878Y054685
X099173Y053504
X099173Y054291
X099173Y053898
X099173Y055118
X099173Y054685
X099193Y055375
X099547Y055375
X099567Y054685
X099567Y054291
X099567Y055079
X099961Y053504
X099961Y055079
X099961Y054291
X099977Y054699
X100193Y055375
X100354Y055079
X100354Y054291
X100354Y053504
X100354Y053898
X100547Y055375
X100748Y053898
X100748Y055079
X100748Y053504
X100748Y054291
X101142Y053504
X101142Y055079
X101142Y053898
X101193Y055375
X101535Y055079
X101535Y053898
X101535Y054291
X101547Y055375
X101929Y053504
X101929Y055079
X101929Y053898
X101929Y054291
X102323Y053504
X102323Y055079
X102323Y054291
X102589Y055374
X102717Y055079
X102717Y053504
X102717Y053898
X102717Y054291
X102942Y055374
X10311Y055079
X10311Y054291
X10311Y053898
X10311Y053504
X103393Y055375
X103504Y053504
X103504Y054291
X103504Y055079
X103504Y053898
X103747Y055375
X103898Y055079
X103898Y053898
X103898Y054291
X103898Y053504
X104291Y055079
X104291Y053898
X104291Y054291
X104291Y053504
X104313Y055394
X104685Y054291
X104685Y053898
X104685Y055079
X104685Y053504
X105079Y055079
X105079Y053898
X105079Y054291
X105079Y053504
X105293Y055375
X105472Y055079
X105472Y053898
X105472Y054291
X105472Y053504
X105647Y055375
X105866Y055079
X105866Y054291
X105866Y053898
X105866Y053504
X10626Y055079
X10626Y054685
X10626Y053898
X10626Y054291
X10626Y053504
X106393Y055375
X106654Y054685
X106654Y053898
X106654Y054291
X106654Y053504
X106747Y055375
X107047Y053504
X107047Y054685
X107047Y054291
X107047Y053898
X107441Y055472
X107441Y055079
X107441Y054685
X107441Y054291
X107441Y053898
X107441Y053504
X107441Y055866
X107835Y055079
X107835Y054685
X107835Y054291
X107835Y053898
X107835Y053504
X107835Y055472
X107835Y055866
X108228Y053898
X108228Y055472
X108228Y055079
X108228Y054685
X108228Y054291
X108228Y055866
X108228Y053504
X108622Y054685
X108622Y055079
X108622Y053898
X108622Y055866
X108622Y053504
X108622Y054291
X108622Y055472
X109016Y053504
X109016Y053898
X109016Y055472
X109016Y054685
X109016Y055079
X109016Y055866
X109134Y054173
X126575Y053681
X109016Y057441
X109016Y057835
X109016Y058228
X108622Y057441
X108622Y057047
X108622Y057835
X108622Y056654
X108622Y05626
X108622Y058228
X108228Y056654
X108228Y05626
X108228Y057047
X108228Y057835
X108228Y057441
X108228Y058228
X107835Y056654
X107835Y05626
X107835Y057047
X107835Y057835
X107835Y057441
X107835Y058228
X107441Y05626
X107441Y056654
X107047Y057835
X107047Y057441
X107047Y057047
X107047Y058228
X106751Y05728
X106751Y05628
X106751Y057634
X106751Y056634
X106751Y05828
X105964Y05728
X105964Y05628
X105964Y056634
X105964Y057634
X104784Y057264
X104784Y057618
X104631Y056162
X104567Y05685
X104338Y057539
X104291Y058228
X104277Y056162
X103983Y057539
X103898Y057835
X103631Y056162
X103504Y058228
X103277Y056162
X103133Y057521
X10311Y058228
X102783Y057539
X102717Y058228
X102531Y056162
X102323Y058228
X102177Y056162
X102038Y057539
X101929Y058228
X101683Y057539
X101535Y058228
X101431Y056162
X101142Y058228
X101077Y056162
X101043Y057541
X100748Y058228
X100683Y057539
X100531Y056162
X100472Y05685
X100177Y056162
X100138Y057539
X099861Y058051
X099783Y057539
X099272Y05628
X099272Y056634
X098701Y058169
X098682Y056276
X098682Y057276
X098682Y05663
X098682Y05763
X097894Y05626
X097894Y05726
X097894Y056614
X097894Y057614
X097894Y05816
X097598Y057047
X097598Y057441
X097598Y057835
X097598Y058228
X096811Y05626
X096811Y057441
X096811Y057047
X096811Y057835
X096811Y058228
X096417Y057835
X096417Y057047
X096417Y057441
X096417Y058228
X096024Y057835
X096024Y05626
X096024Y057047
X096024Y058228
X095669Y057047
X09563Y057835
X09563Y057441
X09563Y058228
X093268Y057047
X09252Y05626
X09252Y056693
X091811Y058228
X091654Y05626
X090787Y058228
X085768Y057638
X085591Y058031
X085413Y057638
X085327Y056699
X085197Y058031
X084803Y058031
X084735Y056699
X084409Y058031
X084016Y058031
X083622Y058031
X083352Y056699
X083209Y057638
X082854Y057638
X082532Y056712
X081365Y056419
X080477Y055999
X08Y058307
X079977Y057799
X079677Y055999
X079527Y057899
X078627Y057549
X078091Y056654
X078091Y057638
X077756Y056693
X07774Y057638
X07553Y057638
X075277Y056699
X074927Y056949
X074449Y056063
X074291Y058189
X073977Y056149
X073189Y057441
X07311Y057126
X072992Y057638
X072992Y056811
X072992Y056063
X072992Y058031
X072598Y057244
X072598Y057638
X072598Y056063
X072598Y05685
X072598Y058031
X072598Y056457
X072205Y05685
X072205Y056457
X072205Y057638
X072205Y058031
X072205Y056063
X072165Y057244
X071811Y05685
X071811Y056063
X071811Y056457
X071811Y057638
X071811Y058031
X071417Y056063
X071417Y057244
X071417Y056457
X071417Y058031
X071417Y057638
X071417Y05685
X071024Y05685
X071024Y058386
X071024Y056063
X071024Y057598
X071024Y058071
X071024Y057244
X071024Y056457
X07063Y058031
X07063Y057244
X07063Y05685
X07063Y057638
X07063Y056063
X07063Y056457
X070236Y058031
X070236Y057638
X070236Y056457
X070236Y05685
X070236Y057244
X070236Y056063
X069843Y058031
X069843Y05685
X069843Y057244
X069843Y057638
X069843Y056063
X069843Y056457
X069449Y058031
X069449Y057244
X069449Y05685
X069449Y057638
X069449Y056063
X069449Y056457
X069055Y058071
X069055Y057638
X069055Y056457
X069055Y056063
X068661Y058031
X068661Y057638
X068661Y056457
X068661Y056063
X068661Y05685
X068661Y057244
X068268Y05685
X068268Y056063
X068268Y057244
X068268Y057638
X067874Y056457
X067874Y056063
X067874Y057638
X067874Y05685
X067874Y057244
X06748Y056063
X06748Y05685
X06748Y056457
X06748Y057638
X067087Y056063
X067087Y057638
X067087Y05685
X067087Y056457
X066693Y05685
X066693Y056457
X066693Y057638
X066693Y056063
X066299Y05685
X066299Y057638
X066299Y056457
X065906Y057638
X065906Y05685
X065906Y056063
X065906Y056457
X065512Y05685
X065512Y056063
X065512Y057638
X065512Y056457
X065118Y05685
X065118Y057638
X065118Y056457
X065118Y056063
X064724Y056063
X064724Y057638
X064724Y05685
X064724Y056457
X064331Y057638
X064331Y05685
X064331Y056063
X064331Y056457
X063937Y057244
X063937Y056063
X063937Y05685
X063937Y056457
X063543Y058031
X063543Y056063
X063543Y057638
X063543Y056457
X063543Y057244
X06315Y058031
X06315Y057638
X06315Y057244
X06315Y056457
X06315Y05685
X06315Y056063
X062756Y058031
X062756Y057244
X062756Y05685
X062756Y057638
X062756Y056063
X062756Y056457
X062362Y058031
X062362Y056457
X062362Y05685
X062362Y056063
X062362Y057638
X061969Y058031
X061969Y057638
X061969Y05685
X061969Y056457
X061969Y056063
X061575Y058031
X061575Y05685
X061575Y056457
X061575Y056063
X061575Y057638
X061575Y057244
X061181Y057244
X061181Y058031
X061181Y05685
X061181Y057638
X061181Y056457
X061181Y056063
X060787Y056063
X060787Y058031
X060787Y057244
X060787Y056457
X060787Y05685
X060787Y057638
X060394Y058031
X060394Y056457
X060394Y057638
X060394Y056063
X060394Y05685
X060394Y057244
X06Y057638
X06Y056063
X06Y057244
X06Y058031
X06Y05685
X059606Y057244
X059606Y058031
X059606Y056063
X059606Y05685
X058427Y057549
X058227Y057149
X057913Y057913
X057527Y056349
X057244Y057244
X05685Y058031
X055866Y058031
X055472Y057244
X055472Y058031
X055472Y056457
X055227Y057749
X053927Y058149
X053427Y056999
X050118Y056142
X0464Y056511
X045039Y056654
X043465Y056654
X038543Y05685
X033622Y05685
X032874Y057382
X032657Y057185
X043465Y059016
X046535Y060236
X047992Y059803
X048386Y060591
X049743Y059483
X049921Y059291
X053976Y059213
X053976Y06
X054127Y058549
X054842Y059213
X054842Y06
X055472Y059606
X055472Y058819
X055472Y060394
X055866Y059606
X055866Y058819
X055866Y060394
X05685Y058819
X05685Y059606
X05685Y060394
X058425Y06
X058819Y060394
X059528Y059606
X059606Y058819
X059606Y058425
X059606Y060787
X06Y059606
X06Y058819
X06Y059213
X06Y058425
X06Y06
X06Y060787
X06Y060394
X060394Y058819
X060394Y058425
X060394Y059213
X060394Y059606
X060394Y060394
X060394Y06
X060787Y058819
X060787Y059213
X060787Y058425
X060787Y060394
X060787Y06
X060787Y060787
X060827Y059606
X061181Y059213
X061181Y058819
X061181Y058425
X061181Y059606
X061181Y06
X061181Y060394
X061181Y060787
X061575Y059213
X061575Y058819
X061575Y059606
X061575Y058425
X061575Y060787
X061575Y06
X061575Y060394
X061969Y058819
X061969Y059606
X061969Y058425
X061969Y060787
X061969Y06
X061969Y060394
X062362Y059213
X062362Y058819
X062362Y058425
X062362Y059606
X062362Y060787
X062362Y06
X062362Y060394
X062756Y059606
X062756Y059213
X062756Y058819
X062756Y06
X062795Y058425
X06315Y059606
X06315Y058425
X06315Y058819
X06315Y059213
X06315Y060787
X06315Y06
X063177Y060399
X063543Y058819
X063543Y058425
X063543Y059213
X063543Y060394
X063543Y060787
X063543Y06
X063937Y058425
X063937Y059213
X063937Y060394
X063937Y060787
X063937Y06
X064331Y059213
X064331Y058425
X064331Y060394
X064331Y060787
X064724Y059213
X064724Y058425
X064724Y06
X064724Y060787
X065118Y059213
X065118Y058425
X065118Y06
X065118Y060787
X065512Y059606
X065512Y059213
X065512Y058425
X065512Y06
X065512Y060787
X065906Y058425
X065906Y06
X065906Y059213
X065906Y060787
X066299Y059213
X066299Y058425
X066299Y06
X066299Y060787
X066693Y058425
X066693Y059606
X066693Y06
X066693Y060787
X067087Y058425
X067087Y06
X067087Y060787
X06748Y058425
X06748Y059213
X06748Y060787
X06748Y06
X067874Y059213
X067874Y058425
X067874Y060787
X067874Y060394
X068268Y059213
X068268Y058425
X068268Y060787
X068268Y060394
X068268Y06
X068661Y058425
X068661Y059213
X068661Y060787
X068661Y060394
X069055Y058425
X069055Y059606
X069055Y059213
X069055Y060787
X069055Y06
X069055Y060394
X069449Y058425
X069449Y058819
X069449Y059606
X069449Y060787
X069449Y06
X069449Y060394
X069843Y058425
X069843Y058819
X069843Y06
X069843Y060787
X069843Y060394
X069843Y059606
X070236Y059606
X070236Y058819
X070236Y058425
X070236Y060394
X070236Y060787
X070236Y059213
X070627Y060787
X07063Y059213
X07063Y058819
X07063Y058425
X07063Y059606
X07063Y060394
X07063Y06
X071024Y059606
X071024Y059213
X071024Y058858
X071024Y060394
X071417Y059606
X071417Y058425
X071417Y059213
X071417Y058819
X071417Y06
X071417Y060787
X071811Y059606
X071811Y058425
X071811Y058819
X071811Y060787
X071811Y06
X071811Y060394
X072205Y059213
X072205Y059606
X072205Y058425
X072205Y058819
X072205Y060787
X072205Y060394
X072598Y059606
X072598Y058425
X072598Y06
X072638Y060787
X072992Y058425
X072992Y059606
X073071Y059921
X073189Y059409
X073346Y058819
X073427Y059599
X073927Y059449
X074127Y059299
X074961Y060079
X075178Y059213
X075178Y060787
X075197Y060039
X075528Y058425
X075534Y060787
X075534Y059213
X075777Y059399
X077933Y060591
X078307Y060669
X082527Y060099
X082835Y060787
X082877Y059199
X083228Y058425
X083228Y060394
X083228Y06
X083228Y060787
X083622Y058819
X083622Y059213
X083622Y058425
X083622Y060394
X083622Y059961
X083622Y060787
X084016Y058425
X084016Y058819
X084016Y059213
X084016Y059961
X084377Y060399
X084409Y06
X084427Y060749
X084803Y058858
X084803Y059213
X084803Y060394
X084803Y06
X085197Y059213
X085197Y058425
X085197Y058858
X085197Y060394
X085197Y06
X085197Y060787
X085591Y058425
X085591Y059213
X085591Y060787
X085591Y060394
X085591Y06
X085984Y058425
X085984Y058819
X085984Y059213
X085984Y060787
X086577Y060749
X086827Y060849
X086977Y058799
X089646Y059646
X090591Y059646
X091575Y059646
X091575Y058701
X091575Y059173
X091575Y060118
X091575Y060787
X092559Y060157
X094449Y060197
X095551Y060669
X09563Y059016
X09563Y058622
X096024Y058622
X096024Y060591
X096417Y059803
X096417Y058622
X096417Y060197
X096811Y059409
X096811Y058622
X096811Y060197
X096811Y060591
X097205Y059409
X097598Y059016
X097598Y058622
X097598Y059803
X097598Y059409
X097598Y060591
X097598Y060197
X097894Y060315
X097894Y05906
X097894Y058514
X097894Y059414
X097894Y06086
X097894Y05996
X098701Y058524
X098701Y059388
X098701Y059903
X098701Y060809
X098701Y060257
X099861Y059306
X099861Y058951
X099861Y059851
X099861Y058406
X099861Y060751
X099861Y060206
X100748Y059409
X100748Y058622
X100748Y059803
X100748Y060591
X100748Y059016
X100748Y060197
X101142Y059803
X101142Y059016
X101142Y058622
X101142Y059409
X101142Y060591
X101142Y060197
X101535Y058622
X101535Y059409
X101535Y059803
X101535Y059016
X101535Y060591
X101535Y060197
X101929Y059409
X101929Y058622
X101929Y059016
X101929Y059803
X101929Y060591
X101929Y060197
X102323Y058622
X102323Y059016
X102323Y059409
X102323Y059803
X102323Y060591
X102323Y060197
X102717Y059803
X102717Y059016
X102717Y059409
X102717Y058622
X102717Y060591
X102717Y060197
X10311Y059409
X10311Y058622
X10311Y059803
X10311Y059016
X10311Y060591
X10311Y060197
X103504Y059409
X103504Y058622
X103504Y059803
X103504Y060591
X103504Y060197
X103504Y059016
X103898Y059409
X103898Y059016
X103898Y058622
X103898Y059803
X103898Y060591
X103898Y060197
X104291Y059016
X104291Y058622
X104291Y059803
X104291Y059409
X104291Y060591
X104291Y060197
X104784Y060364
X104784Y060718
X104803Y058443
X104803Y059428
X105945Y058443
X105945Y059428
X105964Y06028
X105964Y060634
X106751Y05938
X106751Y059734
X106751Y06038
X106751Y058634
X106751Y060734
X107047Y058622
X107047Y060591
X107441Y059409
X107441Y059803
X107441Y059016
X107441Y060197
X107835Y059803
X107835Y059016
X107835Y059409
X107835Y060197
X107835Y058622
X107835Y060591
X108228Y058622
X108228Y059803
X108228Y059409
X108228Y059016
X108228Y060197
X108228Y060591
X108622Y059016
X108622Y060197
X108622Y059409
X108622Y059803
X108622Y058622
X108622Y060591
X109016Y059016
X109016Y059803
X109016Y059409
X109016Y058622
X109016Y060591
X125309Y060591
X125508Y060197
X124961Y063346
X114213Y062756
X112559Y062756
X110512Y062362
X110512Y061969
X110512Y062756
X109843Y063268
X109134Y061969
X109016Y060984
X109016Y061378
X108622Y060984
X108622Y061378
X108228Y060984
X108228Y061378
X108228Y062165
X107835Y061378
X107835Y060984
X107441Y063346
X107441Y062953
X107047Y061772
X107047Y061378
X107047Y060984
X107047Y062165
X106751Y06128
X106751Y061634
X106751Y06228
X106751Y062634
X105964Y06128
X105964Y061634
X105964Y06228
X105964Y062634
X105373Y062264
X105373Y062618
X104784Y061264
X104784Y061618
X104291Y061378
X104291Y061772
X104291Y060984
X104203Y062278
X103898Y061772
X103898Y061378
X103898Y060984
X103849Y062278
X103504Y061772
X103504Y061378
X103504Y060984
X103307Y062283
X10311Y061378
X10311Y061772
X10311Y060984
X102949Y062278
X102717Y061772
X102717Y061378
X102717Y060984
X102323Y061772
X102323Y061378
X102323Y060984
X102203Y062278
X101929Y061772
X101929Y061378
X101929Y060984
X101849Y062278
X101535Y061772
X101535Y061378
X101535Y060984
X101142Y061772
X101142Y061378
X101142Y060984
X101122Y062265
X100768Y062265
X100748Y060984
X100748Y061378
X100748Y061772
X100004Y062794
X099861Y061651
X099861Y061106
X099861Y062006
X09965Y062794
X098701Y06179
X098701Y062775
X097894Y06276
X097894Y062114
X097894Y063114
X097894Y061214
X097894Y06176
X097598Y061378
X097598Y060984
X097598Y061772
X097598Y062165
X097598Y062953
X097598Y063346
X097598Y062559
X096811Y060984
X096811Y061772
X096811Y061378
X096811Y062953
X096811Y062559
X096811Y063346
X096811Y062165
X096417Y061772
X096417Y061378
X096417Y063346
X096417Y062559
X096417Y062953
X096417Y060984
X096378Y062165
X096024Y060984
X096024Y062165
X096024Y062559
X09563Y061378
X09563Y062559
X09563Y062165
X09563Y060984
X09563Y061772
X092795Y062362
X092795Y061496
X092717Y063228
X092717Y062756
X092087Y062402
X092087Y061535
X090709Y062402
X089528Y061535
X089528Y062402
X088937Y061535
X088937Y062402
X088346Y062402
X088346Y061535
X085768Y061575
X085591Y061339
X085394Y061614
X085197Y06126
X084803Y06122
X084381Y063223
X084227Y061249
X083504Y06122
X083406Y061575
X083189Y06126
X083142Y063223
X083052Y061575
X081927Y063223
X080856Y063184
X078288Y062165
X078288Y061378
X077677Y062559
X077677Y061772
X075984Y063228
X075709Y062638
X075526Y061575
X075175Y061575
X074927Y061499
X074427Y061999
X074173Y062165
X074173Y061772
X074055Y063346
X074055Y062953
X07311Y061772
X07311Y061378
X072953Y062087
X072598Y061969
X072598Y06315
X072598Y061181
X072205Y062362
X072205Y062756
X072205Y06315
X072205Y061969
X072205Y061575
X072205Y061181
X071811Y062362
X071811Y06315
X071811Y062756
X071811Y061969
X071811Y061181
X071811Y061575
X071417Y062362
X071417Y06315
X071417Y062756
X071417Y061969
X071417Y061575
X071417Y061181
X071024Y06315
X071024Y062756
X071024Y062362
X071024Y061969
X071024Y061575
X071024Y061181
X07063Y062756
X07063Y062362
X07063Y06315
X07063Y061969
X07063Y061181
X07063Y061575
X070236Y061969
X070236Y062362
X070236Y062756
X070236Y06315
X070236Y061575
X069843Y06315
X069843Y061969
X069843Y061181
X069843Y061575
X069449Y062362
X069449Y061969
X069449Y06315
X069449Y062756
X069449Y061575
X069449Y061181
X069055Y061969
X069055Y062362
X069055Y06315
X069055Y062756
X069055Y061575
X068661Y062756
X068661Y061969
X068661Y06315
X068661Y062362
X068661Y061575
X068268Y061969
X068268Y062756
X068268Y06315
X068268Y062362
X068268Y061575
X067874Y062362
X067874Y06315
X067874Y061969
X067874Y061575
X067874Y062756
X06748Y062756
X06748Y061969
X06748Y06315
X06748Y061575
X06748Y062362
X067087Y061969
X067087Y062756
X067087Y062362
X067087Y06315
X067087Y061575
X066693Y062362
X066693Y06315
X066693Y061575
X066327Y062749
X066299Y062362
X066299Y061969
X066299Y061575
X065906Y062362
X065906Y06315
X065906Y062756
X065906Y061575
X065512Y061969
X065512Y061575
X065512Y062362
X065512Y062756
X065512Y06315
X065118Y062756
X065118Y061969
X065118Y062362
X065118Y061575
X065118Y06315
X064724Y062756
X064724Y06311
X064724Y062362
X064724Y061575
X064331Y06315
X064331Y061181
X064331Y062362
X064331Y062756
X064331Y061575
X063937Y062362
X063937Y062756
X063937Y06315
X063937Y061575
X063543Y061181
X063543Y061969
X063543Y06315
X063543Y062362
X063543Y061575
X063543Y062756
X06315Y06315
X06315Y061969
X06315Y062362
X06315Y062756
X06315Y061575
X062756Y061969
X062756Y062362
X062756Y061575
X062756Y061181
X062756Y06315
X062756Y062756
X062362Y062756
X062362Y06315
X062362Y061575
X062362Y062362
X062362Y061181
X062362Y061969
X061969Y061181
X061969Y061575
X061969Y06315
X061969Y062362
X061969Y062756
X061575Y062756
X061575Y06315
X061575Y062362
X061575Y061969
X061575Y061575
X061181Y062756
X061181Y062362
X061181Y061969
X061181Y061575
X061181Y061181
X061181Y06315
X060787Y061181
X060787Y062362
X060787Y06315
X060787Y062756
X060787Y061969
X060394Y062362
X060394Y061969
X060394Y062756
X060394Y061142
X060354Y06315
X06Y061181
X06Y062756
X06Y061969
X059606Y061969
X059331Y061457
X058977Y061449
X05878Y061614
X058504Y06315
X058504Y062756
X058227Y061599
X058031Y062244
X054921Y06315
X054921Y062362
X053898Y06315
X052927Y062449
X051227Y061499
X05122Y06126
X050877Y061149
X050177Y061449
X049627Y063367
X049627Y063131
X049527Y061499
X048677Y061299
X043465Y061378
X033465Y062992
X017992Y06315
X017638Y062835
X033465Y063898
X043465Y06374
X045039Y06374
X046496Y064331
X047992Y063937
X048189Y064724
X052677Y065499
X053898Y064724
X054921Y063937
X054921Y064724
X058504Y063543
X058504Y063937
X059173Y065787
X06Y063543
X06Y065512
X060394Y063543
X060394Y063937
X060394Y064724
X060394Y065118
X060394Y064331
X060394Y065512
X060787Y063543
X060787Y065118
X060787Y064331
X060787Y064724
X060787Y063937
X061181Y063543
X061181Y064331
X061181Y065118
X061181Y064724
X061181Y063937
X061575Y063543
X061575Y065118
X061575Y064724
X061575Y064331
X061575Y063937
X061969Y063543
X061969Y065118
X061969Y064331
X061969Y064724
X061969Y063937
X062362Y063543
X062362Y064724
X062362Y065118
X062362Y063937
X062362Y065512
X062362Y064331
X062756Y063543
X062756Y064724
X062756Y065118
X062756Y065512
X062756Y064331
X062756Y063937
X06315Y063543
X06315Y065118
X06315Y064724
X06315Y064331
X06315Y063937
X063543Y063543
X063543Y065118
X063543Y063937
X063543Y064331
X063543Y064724
X063937Y063543
X063937Y065118
X063937Y063937
X063937Y064331
X063937Y064724
X064331Y063543
X064331Y065118
X064331Y064724
X064331Y063937
X064331Y064331
X064724Y063543
X064724Y065512
X064724Y063937
X064724Y064331
X064727Y064749
X065118Y063543
X065118Y064724
X065118Y065118
X065118Y065512
X065118Y064331
X065118Y063937
X065512Y063543
X065512Y065118
X065512Y064724
X065512Y064331
X065512Y063937
X065906Y063543
X065906Y064331
X065906Y065118
X065906Y063937
X065906Y064724
X066299Y063543
X066299Y065118
X066299Y063937
X066693Y063543
X066693Y065118
X067087Y063543
X067087Y065118
X067087Y064331
X067087Y064724
X067087Y063937
X067127Y065499
X06748Y063543
X06748Y064724
X06748Y065118
X06748Y064331
X06748Y065512
X06748Y063937
X067874Y063543
X067874Y064724
X067874Y065118
X067874Y065512
X067874Y064331
X067874Y063937
X068268Y063543
X068268Y065118
X068268Y063937
X068268Y064724
X068268Y064331
X068661Y063543
X068661Y065118
X068661Y064724
X068661Y063937
X068661Y064331
X069055Y063543
X069055Y065118
X069055Y064331
X069055Y063937
X069055Y064724
X069449Y063543
X069449Y065118
X069449Y064331
X069449Y064724
X069449Y063937
X069843Y064724
X069843Y065118
X069843Y065512
X069843Y063937
X069843Y064331
X070236Y064724
X070236Y065118
X070236Y063937
X070236Y065512
X070236Y064331
X07063Y065118
X07063Y063543
X07063Y064724
X07063Y064331
X07063Y063937
X071024Y063543
X071024Y064724
X071024Y065118
X071024Y064331
X071024Y063937
X071417Y063543
X071417Y065118
X071417Y064724
X071417Y064331
X071417Y063937
X071811Y063543
X071811Y064331
X071811Y065118
X071811Y064724
X071811Y063937
X072205Y063543
X072205Y064331
X072205Y064724
X072205Y065118
X072205Y063937
X072205Y065512
X072598Y063543
X072598Y065512
X073077Y065899
X074055Y06374
X074055Y064134
X074327Y064199
X075527Y065649
X075709Y064488
X07626Y063819
X080727Y065299
X08578Y065152
X086761Y065152
X091181Y065157
X092717Y06374
X095477Y064349
X09563Y06374
X09563Y064921
X09563Y065315
X09563Y065709
X09563Y064134
X095669Y064528
X096024Y06374
X096024Y064134
X096024Y064528
X096024Y064921
X096024Y065709
X096024Y065315
X096417Y06374
X096417Y064528
X096417Y064134
X096417Y065709
X096417Y065315
X096811Y064134
X096811Y065709
X096811Y065315
X096811Y064921
X096811Y06374
X097205Y065709
X097205Y065315
X097205Y064921
X097598Y06374
X097598Y064134
X097598Y064921
X097894Y06376
X097894Y064114
X097992Y064921
X098386Y065709
X098386Y064921
X09878Y064921
X098799Y064231
X099154Y064231
X099173Y064921
X099567Y064528
X099587Y063444
X099699Y064231
X099941Y063444
X099961Y064528
X100054Y064231
X100354Y064528
X100487Y063444
X100599Y064231
X100748Y064528
X100841Y063444
X100954Y064231
X101142Y064528
X101487Y063444
X101535Y065709
X101535Y064921
X101599Y064231
X101841Y063444
X101929Y065709
X101929Y064921
X101954Y064231
X102323Y065709
X102323Y064921
X102387Y063444
X102499Y064231
X102717Y065315
X102717Y065709
X102717Y064921
X102741Y063444
X102854Y064231
X10311Y064528
X103487Y063444
X103504Y064528
X103599Y064231
X103841Y063444
X103898Y065709
X103898Y064528
X103954Y064231
X104291Y064921
X104291Y065315
X104291Y064528
X104291Y065709
X104587Y063444
X104685Y065315
X104685Y064528
X104685Y065709
X104685Y064921
X104699Y064231
X104941Y063444
X105054Y064231
X105079Y065315
X105079Y065709
X105079Y064528
X105472Y065315
X105472Y065709
X105472Y064528
X105687Y063444
X105799Y064231
X105866Y065315
X105866Y065709
X105866Y064528
X106041Y063444
X106154Y064231
X10626Y064528
X10626Y065709
X10626Y065315
X106556Y063547
X106556Y063902
X106654Y065709
X106654Y065315
X106654Y064528
X107441Y06374
X107441Y064134
X107441Y064528
X107441Y065315
X107441Y064921
X107835Y064134
X107835Y065709
X107835Y065315
X107835Y064921
X107835Y064528
X107835Y06374
X108228Y065709
X108228Y065315
X108228Y064134
X108622Y065315
X108622Y065709
X108622Y064134
X108622Y064921
X108622Y064528
X109016Y064528
X109016Y065709
X110472Y063937
X112598Y064331
X112638Y063543
X113661Y063543
X114213Y064331
X126457Y063661
X109016Y066496
X109016Y066102
X108622Y066496
X108622Y066102
X108228Y066496
X108228Y066102
X107835Y066496
X107441Y066496
X107441Y066102
X107047Y066102
X105079Y066102
X104685Y066496
X104291Y066102
X103898Y066102
X10311Y066496
X101929Y066102
X101929Y066496
X101535Y066496
X099961Y066102
X097205Y066102
X096811Y066102
X096417Y066496
X096417Y066102
X096024Y066496
X096024Y066102
X09563Y066102
X09563Y066496
X091181Y066024
X088627Y06686
X088627Y067821
X087971Y065984
X086776Y066266
X086577Y066949
X086577Y066549
X085772Y066266
X085394Y067677
X085394Y067283
X085394Y066496
X085394Y06689
X085Y066496
X085Y067283
X085Y068071
X084606Y066102
X084606Y068071
X084213Y066102
X083819Y067677
X083819Y06689
X083819Y067283
X083819Y066102
X083819Y066496
X083819Y068071
X083425Y067677
X083425Y067283
X083425Y066496
X083425Y06689
X083425Y066102
X083425Y068071
X083031Y067677
X083031Y067283
X083031Y06689
X083031Y066496
X083031Y068071
X082638Y06689
X082638Y066102
X082638Y067283
X082638Y066496
X082638Y067677
X082638Y068071
X082244Y066102
X082244Y066535
X082244Y06689
X082244Y067677
X082244Y068071
X082244Y067283
X08185Y067283
X08185Y06689
X08185Y068071
X08185Y068386
X08185Y067677
X08185Y066102
X08185Y066496
X081457Y066102
X081457Y067677
X081457Y06689
X081063Y066102
X072598Y065906
X072008Y066969
X071614Y066969
X07122Y066969
X070433Y066969
X070039Y066969
X069646Y066969
X069252Y066969
X068465Y066969
X068071Y066969
X067677Y065984
X067677Y066969
X067283Y066969
X067283Y065984
X06689Y066969
X066496Y066969
X065709Y066969
X065315Y066969
X064921Y066969
X064528Y066969
X064134Y066969
X063346Y066969
X062953Y066969
X062559Y066969
X062165Y066969
X061378Y067008
X060984Y066969
X060591Y066969
X06Y065906
X057953Y066535
X054567Y066299
X054567Y068268
X054567Y065906
X054567Y066693
X054567Y067087
X054567Y067874
X054567Y06748
X052377Y067499
X041077Y068249
X047992Y069843
X054567Y068661
X057727Y068599
X059134Y068425
X05937Y068976
X060039Y06878
X061496Y07063
X062559Y070079
X063898Y07063
X065118Y070433
X06622Y070079
X067402Y07063
X068583Y070433
X069803Y070079
X07Y07063
X070906Y070433
X071457Y069961
X072638Y06874
X072992Y07063
X074134Y06874
X079764Y069055
X079764Y068622
X080709Y069055
X080718Y068622
X081457Y069252
X081457Y069646
X081457Y070827
X081457Y070039
X08185Y069646
X08185Y068858
X08185Y069252
X08185Y070039
X08185Y070433
X08185Y070827
X082244Y069252
X082244Y068465
X082244Y068858
X082244Y069646
X082244Y070039
X082244Y070433
X082244Y070827
X082638Y069646
X082638Y068465
X082638Y069252
X082638Y070039
X082638Y070433
X082638Y068858
X082638Y070827
X083031Y068465
X083031Y069252
X083031Y068858
X083031Y069646
X083031Y070433
X083031Y070039
X083425Y069252
X083425Y068858
X083425Y068465
X083425Y069646
X083425Y070039
X083425Y070433
X083425Y070827
X083819Y069252
X083819Y068858
X083819Y069646
X083819Y068465
X083819Y070039
X083819Y070433
X083819Y070827
X084213Y068858
X084606Y068465
X084606Y068858
X085Y069646
X085Y068465
X085Y068858
X085Y070039
X085Y070433
X085Y070827
X085394Y070039
X085394Y069646
X08561Y068406
X086339Y068858
X088627Y069737
X088628Y068787
X088628Y070856
X091535Y069173
X091535Y070039
X092126Y069173
X092126Y070039
X092717Y069173
X092717Y070039
X093307Y069173
X093307Y070039
X093898Y069173
X093898Y070039
X094488Y069173
X094488Y070039
X095079Y069173
X095079Y070039
X095669Y070039
X095669Y069173
X096427Y070799
X100354Y068898
X101417Y068858
X102244Y068898
X103268Y068898
X10063Y073858
X100551Y074606
X099527Y075432
X094488Y071811
X090394Y075591
X086775Y071845
X086763Y072958
X085906Y074193
X085798Y071845
X085794Y072958
X085394Y07122
X085Y07122
X085Y071614
X084928Y07473
X084606Y071614
X084213Y071614
X084213Y07122
X083819Y071614
X083425Y07122
X083418Y07473
X083031Y07122
X083031Y071614
X082638Y071614
X082244Y07122
X082244Y072008
X082055Y07473
X08185Y071614
X08185Y07122
X081457Y072008
X081457Y071614
X081063Y072008
X080867Y072829
X080863Y073943
X080242Y072355
X080241Y071222
X079764Y073801
X079129Y072372
X079129Y07121
X078701Y074173
X078701Y075748
X076142Y074173
X076142Y075748
X072992Y075748
X072992Y074173
X070039Y074173
X070039Y075748
X067677Y074173
X067677Y075748
X063627Y071449
X059213Y075748
X059213Y074173
X057638Y074173
X057638Y075748
X055472Y074173
X055472Y075748
X054567Y072992
X054567Y07378
X054567Y071811
X054567Y073386
X054567Y072205
X054567Y072598
X054567Y071024
X054567Y071417
X047992Y075197
X045276Y075748
X045079Y075276
X041299Y075197
X036614Y072559
X036614Y071693
X035866Y071299
X035866Y072165
X034852Y075748
X033967Y075748
X015512Y079882
X015709Y079291
X021417Y080669
X022402Y078031
X022402Y080866
X023189Y077717
X023189Y079291
X023189Y080079
X023583Y077323
X023583Y080079
X023583Y080472
X023976Y077717
X023976Y080079
X023976Y080472
X02437Y077323
X024764Y076929
X025157Y080472
X025551Y079685
X025551Y080472
X025945Y079685
X026732Y079685
X027913Y080866
X027913Y080079
X027913Y080472
X03185Y077776
X034016Y079685
X034803Y080866
X035394Y080669
X03626Y078937
X036772Y079094
X044882Y076024
X045472Y07622
X046377Y078599
X090236Y075906
X090472Y078729
X090906Y080079
X09126Y078524
X092283Y079882
X050472Y081929
X050315Y082953
X050118Y083307
X049961Y082874
X049803Y083189
X034409Y081063
X034213Y08185
X034213Y082441
X034016Y082244
X033819Y082835
X028307Y083228
X028307Y082835
X028307Y082441
X027913Y082835
X027913Y082441
X027913Y083228
X027913Y081654
X027913Y08126
X02752Y082835
X027126Y081654
X027126Y08126
X026732Y083228
X026732Y082835
X026339Y082835
X025945Y082835
X02437Y082441
X023976Y082441
X023976Y082047
X023976Y083228
X023976Y081654
X023583Y082441
X023583Y082835
X023583Y081654
X023583Y082047
X023189Y082047
X023189Y083228
X023189Y082441
X022795Y082047
X022795Y083228
X022795Y082835
X022795Y08126
X022795Y081654
X017874Y082047
X017598Y082323
X017283Y082047
X01689Y082047
X016693Y082638
X016378Y081063
X015827Y081654
X012953Y08185
X012283Y081063
X011732Y08126
X011457Y081457
X010591Y082008
X010748Y085787
X010787Y084606
X017874Y084409
X020433Y084409
X022008Y083642
X022402Y083622
X022402Y084803
X022795Y083622
X022795Y084016
X023189Y083622
X023583Y084016
X023583Y084409
X024764Y084409
X025157Y085591
X025157Y085197
X025157Y084803
X025157Y085984
X025551Y084016
X025945Y085984
X026339Y085984
X026339Y085591
X027126Y084016
X027126Y085984
X02752Y083622
X027913Y084409
X027913Y084803
X027913Y084016
X027913Y085197
X028307Y085197
X028307Y084803
X028307Y084016
X03339Y088034
X033622Y085787
X034099Y08766
X037562Y087784
X037968Y086849
X039331Y086654
X040328Y087523
X043218Y087796
X047831Y086456
X048633Y087794
X089173Y087402
X090531Y086614
X09126Y087835
X09126Y087315
X092126Y087315
X099331Y088031
X109764Y089055
X106105Y091162
X090531Y089764
X089173Y088976
X065453Y088543
X065197Y091299
X064653Y092069
X064429Y090433
X064327Y091449
X060335Y088543
X060079Y091299
X05978Y092087
X059427Y091449
X059311Y090433
X055217Y088543
X054961Y091299
X054642Y092066
X054277Y091449
X054193Y090433
X052377Y092916
X051491Y092916
X050063Y091391
X047172Y093335
X04685Y093307
X045338Y092823
X044709Y093079
X043346Y092559
X042972Y093335
X04161Y092045
X034996Y091698
X034419Y091078
X033855Y092014
X029036Y089173
X029036Y089882
X027913Y089331
X027913Y089685
X027126Y08935
X027126Y089704
X025945Y08935
X025945Y090472
X025945Y089704
X024961Y090433
X024764Y08935
X024764Y089704
X023583Y08935
X023583Y089704
X022402Y08935
X022402Y089704
X021417Y08935
X021417Y089704
X014882Y093813
X014882Y095814
X014882Y094813
X014882Y096811
X028457Y094417
X028614Y093571
X028772Y094417
X028929Y093571
X029401Y093548
X02982Y093673
X032457Y094417
X032614Y093571
X032772Y094417
X032929Y093571
X0334Y093504
X03398Y094647
X043129Y093571
X047014Y093571
X047329Y093571
X048577Y094899
X098228Y093937
X112012Y093927
X127205Y09565
X128122Y098387
X129724Y097677
X025315Y105
X025118Y105551
X024882Y104528
X024646Y105236
X024409Y105
X024173Y104764
X020945Y099094
X020748Y099331
X015197Y100079
X01248Y098504
T2C.00984F0S0
X055327Y068858
X055709Y068858
X056102Y068858
X056311Y069567
X056484Y068858
X056693Y069567
X057087Y069567
X057469Y069567
X057689Y068858
X058071Y068858
X058465Y068858
X058846Y068858
X060406Y069567
X060787Y069567
X061181Y069567
X061563Y069567
X061783Y068858
X062165Y068858
X062559Y068858
X062768Y069567
X062941Y068858
X06315Y069567
X063543Y069567
X063925Y069567
X064146Y068858
X064528Y068858
X064921Y068858
X06513Y069567
X065303Y068858
X065512Y069567
X065906Y069567
X066287Y069567
X066508Y068858
X06689Y068858
X067283Y068858
X067492Y069567
X067665Y068858
X067874Y069567
X068268Y069567
X06865Y069567
X06887Y068858
X069252Y068858
X069646Y068858
X069854Y069567
X070028Y068858
X070236Y069567
X07063Y069567
X071012Y069567
X071232Y068858
X071614Y068858
X072008Y068858
X07239Y068858
X07324Y069606
X073622Y069606
X074016Y069606
X074398Y069606
X074972Y068898
X075354Y068898
X075748Y068898
X076114Y069646
X07613Y068898
X076496Y069646
X07689Y069646
X077272Y069646
X09176Y09874
X091378Y09874
X091327Y099685
X090984Y09874
X090945Y099685
X090602Y09874
X090551Y099685
X090185Y09874
X090169Y099685
X089803Y09874
X089752Y099685
X089409Y09874
X08937Y099685
X089028Y09874
X088976Y099685
X088594Y099685
X086445Y09874
X086063Y09874
X086012Y099685
X085669Y09874
X08563Y099685
X085287Y09874
X085236Y099685
X08487Y09874
X084854Y099685
X084488Y09874
X084437Y099685
X084094Y09874
X084055Y099685
X083713Y09874
X083661Y099685
X08328Y099685
X080539Y09874
X080157Y09874
X080106Y099685
X079764Y09874
X079724Y099685
X079382Y09874
X079331Y099685
X078965Y09874
X078949Y099685
X078583Y09874
X078531Y099685
X078189Y09874
X07815Y099685
X077807Y09874
X077756Y099685
X077374Y099685
X075224Y09874
X074843Y09874
X074791Y099724
X074449Y09874
X074409Y099724
X074067Y09874
X074016Y099724
X07365Y09874
X073634Y099724
X073268Y09874
X073138Y099724
X072874Y09874
X072756Y099724
X072492Y09874
X072362Y099724
X07198Y099724
T3C.01F095S3
X035591Y017283
X035687Y016083
X036179Y016083
X037756Y017283
X060456Y016079
X060984Y017087
X061024Y016079
X066102Y015709
X070039Y01748
X070865Y016105
X071453Y016101
X072205Y01748
X095643Y016064
X09622Y017283
X096292Y016064
X099961Y015709
X102527Y017299
X103027Y017299
X104527Y017299
X105027Y017299
X105027Y018299
X105527Y017299
X105527Y018289
X107227Y017299
X107727Y017299
X109227Y017299
X109727Y01721
X109727Y018349
X110227Y018369
X110227Y01721
X117994Y017534
X120971Y017534
X125711Y017905
X125741Y015395
X126081Y017915
X126081Y015394
X126431Y017915
X126451Y015404
X118971Y019305
X109904Y020282
X109904Y020636
X10939Y019696
X108543Y019646
X108543Y01937
X108427Y018536
X108427Y020462
X108268Y019646
X108268Y01937
X107464Y019302
X107464Y019696
X10709Y019496
X10709Y019142
X10709Y020252
X10709Y020606
X106017Y018479
X105184Y020252
X105184Y020606
X10469Y019696
X104153Y021602
X103882Y023189
X103858Y01937
X103858Y019646
X103727Y020462
X103727Y018579
X103583Y019646
X103583Y01937
X102764Y019302
X102757Y019689
X10253Y020412
X10253Y020766
X1025Y019506
X1025Y019162
X098858Y023189
X022425Y026484
X023212Y025107
X023212Y023532
X026165Y025894
X086234Y027756
X087022Y027756
X087809Y027756
X088597Y027756
X089384Y027756
X090171Y027756
X090959Y027756
X102559Y029528
X103012Y024827
X10311Y027283
X10311Y02685
X103543Y029528
X104252Y026417
X104252Y02685
X104528Y029528
X105553Y029546
X105743Y025402
X105843Y026002
X106943Y025002
X107543Y025502
X107543Y024602
X120076Y026554
X128307Y030276
X13126Y029094
X10419Y032545
X103214Y032545
X102209Y032545
X100638Y037137
X100341Y03706
X099882Y032598
X099405Y03744
X099051Y03744
X098898Y032598
X098801Y03706
X097913Y032598
X097905Y03744
X097621Y03706
X097551Y03744
X097031Y03736
X09685Y032598
X096831Y03706
X096405Y03744
X096051Y03744
X095847Y03706
X095315Y032598
X094905Y03744
X094551Y03744
X094291Y032598
X093871Y03696
X093613Y037247
X093307Y032598
X025748Y032441
X01166Y037516
X032638Y041693
X033622Y041299
X038543Y041929
X045079Y041496
X092231Y038905
X093613Y040467
X093613Y039107
X093613Y042047
X093932Y040559
X093932Y039414
X093932Y039059
X093932Y040914
X093932Y042059
X093932Y042414
X094451Y04329
X094811Y043285
X099251Y04329
X099605Y04329
X100025Y039414
X100025Y039059
X100025Y040914
X100025Y040559
X100025Y042059
X100025Y042414
X100638Y040667
X100638Y039877
X104078Y040736
X104078Y040036
X104078Y041336
X104828Y041698
X104829Y041008
X10483Y040395
X105178Y041036
X105178Y041686
X105178Y040386
X119428Y040486
X119428Y041486
X119428Y039486
X119428Y042486
X119828Y039486
X119828Y041486
X119828Y042486
X119828Y040486
X124784Y042932
X129499Y045772
X12873Y045926
X119828Y043486
X119828Y044486
X119828Y045486
X119828Y046486
X119828Y047286
X119828Y048086
X119428Y044486
X119428Y045486
X119428Y043486
X119428Y046486
X119428Y047286
X119428Y048086
X108504Y043937
X100638Y044017
X100638Y043427
X100311Y044085
X099196Y044162
X09801Y045512
X09742Y04535
X096239Y045354
X095451Y044085
X095061Y044085
X093681Y045372
X093613Y044007
X089528Y047008
X087067Y047238
X087067Y048352
X086476Y047239
X086476Y048352
X086083Y047238
X086083Y048352
X085492Y047239
X085492Y048352
X08502Y045546
X084429Y045546
X083917Y045546
X083327Y045546
X082854Y045546
X082264Y045546
X081791Y045546
X081201Y045546
X080768Y047238
X080768Y048352
X080177Y047239
X080177Y048352
X078504Y045039
X078504Y047402
X075354Y045039
X072205Y045039
X069055Y045039
X065906Y043465
X063543Y043465
X061181Y045039
X058819Y043465
X056457Y045039
X054094Y043465
X038583Y045118
X038543Y047598
X038543Y046417
X038543Y043465
X033228Y047598
X027717Y047598
X027323Y048386
X025354Y050157
X026654Y049685
X026654Y050118
X026654Y050591
X026929Y050354
X026929Y049921
X027165Y049685
X027205Y050118
X027205Y050591
X028504Y050354
X029764Y050984
X033228Y048583
X038543Y048976
X038543Y051378
X038543Y052559
X038583Y050197
X05685Y051732
X05685Y053307
X057244Y050945
X057244Y05252
X057244Y053307
X078931Y048681
X078932Y049272
X079803Y050748
X079803Y051142
X080045Y048681
X080045Y049272
X086297Y051142
X086299Y050756
X088509Y049665
X088509Y05065
X088509Y051634
X088509Y048681
X088509Y052618
X08851Y049272
X08851Y05124
X08851Y052225
X08851Y053209
X08851Y050256
X089528Y049685
X089528Y050197
X089685Y049921
X089724Y051417
X089882Y050197
X089882Y049685
X089921Y048543
X090079Y049961
X090276Y049685
X090276Y050236
X091496Y04878
X09563Y05311
X096024Y05311
X097795Y051654
X098386Y051654
X098693Y052304
X098976Y051654
X099567Y051654
X100157Y051654
X100461Y052303
X100748Y051654
X101339Y051654
X101929Y051654
X10685Y048465
X119428Y048886
X119428Y049686
X119428Y050486
X119428Y051286
X119428Y052886
X119428Y052086
X119828Y049686
X119828Y050486
X119828Y051286
X119828Y052886
X119828Y052086
X119828Y048886
X12787Y049206
X119828Y053686
X119828Y055286
X119828Y054486
X119828Y056086
X119428Y053686
X119428Y055286
X119428Y054486
X119428Y056086
X104664Y055394
X097598Y055118
X097598Y055472
X097598Y055866
X097598Y05626
X097598Y056654
X097205Y054685
X097205Y053504
X096811Y054291
X096811Y053898
X096811Y054685
X096417Y054291
X096417Y053898
X096417Y053504
X096417Y055866
X096024Y054685
X096024Y054291
X096024Y053898
X096024Y053504
X096024Y057441
X09563Y053898
X09563Y053504
X093307Y053898
X087067Y053931
X087067Y055045
X086476Y053932
X086476Y055045
X086083Y053931
X086083Y055045
X085492Y053932
X085492Y055045
X085059Y056698
X084468Y056699
X083642Y056698
X083051Y056699
X080768Y053931
X080768Y055045
X080177Y053932
X080177Y055045
X075529Y05685
X074745Y056063
X074567Y055079
X058819Y057244
X058819Y054882
X058543Y056063
X058425Y05685
X057244Y054882
X057244Y056457
X057244Y058031
X05685Y057244
X05685Y055669
X05685Y056457
X05685Y054094
X046732Y054882
X045748Y056063
X038937Y05685
X038543Y055866
X038543Y054843
X038543Y053701
X033622Y056063
X033622Y057244
X01085Y059746
X011106Y061886
X011113Y06107
X01149Y062706
X01167Y063099
X01221Y060126
X01224Y059416
X01224Y059766
X012509Y063094
X01252Y062246
X01277Y062246
X01301Y062236
X013051Y063094
X01327Y062236
X013438Y061451
X013448Y061861
X013454Y061046
X013526Y063094
X01384Y061206
X0144Y063346
X01534Y062736
X045039Y061378
X045039Y059016
X047992Y058622
X047992Y059409
X047992Y062756
X053898Y062362
X057244Y059606
X057244Y058819
X057244Y060394
X058425Y060787
X058504Y058425
X058819Y058819
X059213Y060394
X075532Y06
X080571Y063183
X081162Y063183
X081634Y063223
X082225Y063223
X082854Y063223
X083228Y05878
X083445Y063223
X084075Y063223
X084409Y058425
X084665Y063223
X085591Y058819
X086063Y059724
X092795Y059173
X093031Y058701
X095039Y06311
X096024Y059016
X096024Y061772
X096024Y061378
X096024Y063346
X096417Y060591
X096417Y059016
X096811Y059016
X098701Y059035
X098701Y061157
X098701Y062142
X098701Y06312
X104803Y058795
X104803Y059787
X105945Y059783
X105945Y058799
X109409Y062362
X109409Y062756
X125354Y061654
X125354Y062165
X125512Y06189
X125708Y063306
X125709Y062165
X125709Y061654
X125902Y060593
X125906Y061929
X126102Y062205
X126102Y061654
X12752Y061181
X126732Y065118
X124968Y065356
X109409Y063543
X109409Y063937
X097795Y06758
X097402Y06689
X097008Y067283
X096614Y067087
X09622Y06748
X095827Y067499
X095433Y06748
X095039Y063425
X094331Y065276
X094331Y064488
X094331Y064921
X088628Y067146
X088628Y06813
X088628Y066555
X088628Y067539
X088325Y065984
X087067Y065152
X087067Y066265
X086476Y065152
X086476Y066265
X086083Y065152
X086083Y066265
X085492Y065152
X085492Y066265
X072795Y066969
X059803Y066969
X053898Y063937
X051811Y065079
X051811Y065512
X051535Y06689
X051535Y067283
X051142Y06689
X051142Y067283
X050748Y065512
X04808Y066485
X047992Y063543
X045433Y067598
X01927Y066376
X01534Y063876
X01531Y066726
X0153Y066366
X0153Y066026
X01526Y068286
X015254Y06792
X01474Y067066
X01442Y064116
X01441Y063856
X0144Y063606
X013533Y064122
X01353Y064956
X013526Y063611
X01345Y065266
X01327Y064956
X013012Y064118
X01301Y064956
X013005Y063622
X01283Y065296
X01275Y064956
X012512Y064111
X012509Y063611
X0125Y064966
X01167Y06386
X011669Y064118
X011668Y063606
X01072Y067066
X010711Y066706
X010711Y067406
X010684Y07136
X010684Y0728
X010725Y068594
X010725Y069386
X010725Y069994
X010725Y070786
X010725Y072176
X01073Y070376
X01073Y071776
X01073Y073196
X01074Y068976
X01305Y070386
X01305Y068976
X01305Y072836
X01306Y071786
X01306Y071384
X01306Y072176
X01306Y073196
X01366Y072696
X01439Y073166
X01439Y072196
X015234Y06934
X015264Y0707
X01527Y069726
X01528Y07008
X01528Y07148
X01528Y06868
X01529Y071086
X01622Y072835
X017205Y073346
X017205Y072835
X01759Y069676
X017615Y07148
X017615Y06868
X017615Y069289
X017615Y070689
X01762Y071096
X017627Y070051
X045433Y073071
X04815Y072008
X050669Y068465
X050709Y069449
X050787Y071024
X051142Y072402
X051142Y072795
X051535Y072795
X051535Y072402
X051811Y07063
X051811Y069055
X051811Y069449
X079128Y070925
X079128Y072067
X079128Y071516
X079128Y072657
X080242Y070925
X080242Y072067
X080242Y071516
X080242Y072658
X080571Y072829
X081162Y072829
X085492Y072958
X085492Y071845
X086083Y072958
X086083Y071845
X086476Y072958
X086476Y071845
X087067Y072958
X087067Y071845
X088628Y068484
X088628Y069429
X088628Y070571
X088628Y069075
X088628Y07002
X088628Y071162
X094287Y072799
X095297Y073299
X095307Y072299
X097317Y072299
X098387Y071799
X098907Y072979
X099627Y072839
X100645Y072093
X100645Y073093
X100645Y072593
X100645Y072343
X103425Y072593
X103425Y073343
X103425Y073093
X103425Y072843
X103425Y072343
X103425Y072093
X109961Y068819
X110472Y068819
X110906Y068819
X111339Y068819
X111772Y068819
X112205Y068819
X122815Y074685
X103425Y073843
X103425Y073593
X103425Y075343
X103425Y074843
X103425Y074593
X103425Y074343
X103425Y074093
X103425Y076593
X103425Y076093
X100645Y075843
X100645Y075343
X100645Y074843
X100645Y073593
X100645Y076593
X099627Y074339
X099173Y07437
X099047Y075179
X099047Y073449
X098417Y075889
X097237Y076299
X094247Y077799
X092283Y07811
X09122Y076969
X09122Y07752
X091063Y075827
X091024Y077244
X090827Y076969
X090827Y07748
X09063Y077205
X090472Y076969
X090472Y07748
X085906Y074544
X085217Y07473
X084626Y07473
X08372Y07473
X08313Y07473
X082343Y07473
X081752Y07473
X081161Y073942
X080571Y073943
X079764Y074154
X051811Y074961
X051811Y074567
X050748Y074961
X050591Y074016
X032551Y07752
X031637Y077137
X029488Y078327
X02752Y078327
X026339Y078325
X025157Y078325
X023976Y078326
X022795Y078327
X021614Y078327
X017244Y073976
X017205Y074528
X01622Y074488
X016181Y074016
X016181Y073425
X014964Y07647
X01306Y073586
X011559Y075264
X01152Y074595
X010725Y073586
X014921Y078472
X014921Y080472
X017677Y078543
X018434Y080079
X018482Y082441
X018486Y08126
X018793Y080079
X018837Y08126
X018841Y082441
X020236Y080669
X021614Y078683
X022008Y079685
X022008Y080866
X022402Y079685
X022795Y080472
X022795Y078681
X022795Y082441
X023189Y079685
X023189Y080472
X023189Y080866
X023189Y08126
X023583Y079685
X023583Y080866
X023976Y080866
X023976Y078678
X02437Y080079
X02437Y081654
X02437Y082835
X02437Y083228
X024764Y081654
X024764Y082441
X024764Y083228
X024764Y082047
X024764Y082835
X025157Y078681
X025157Y082835
X025157Y082441
X025157Y083228
X025551Y081654
X025551Y082441
X025551Y083228
X025551Y082835
X025945Y080472
X026339Y079685
X026339Y078679
X026339Y082047
X026732Y081654
X026732Y080866
X02752Y080472
X02752Y078681
X02752Y079685
X02752Y080079
X02752Y08126
X027913Y079685
X027913Y082047
X028307Y080079
X028307Y08126
X028307Y079685
X029488Y078683
X03167Y082638
X031672Y079291
X031672Y081654
X031672Y080472
X032025Y079291
X032028Y080472
X032028Y082638
X03203Y081654
X090861Y078622
X091498Y080021
X103307Y083386
X122598Y087008
X121205Y088029
X107992Y085118
X107441Y088346
X107244Y08811
X104983Y087422
X104983Y087028
X104983Y087816
X104786Y087619
X104786Y087225
X104786Y088013
X104656Y086686
X104471Y087639
X104471Y087993
X104459Y086883
X104134Y084488
X104066Y086686
X103672Y086883
X103585Y087147
X103475Y086686
X103231Y087147
X102874Y084094
X102688Y086883
X102491Y086686
X102404Y087147
X102404Y087935
X102362Y083583
X10205Y087147
X10205Y087935
X101929Y083898
X101704Y086883
X101507Y086686
X101223Y087147
X100869Y087147
X100709Y084094
X100522Y086883
X100326Y086686
X099984Y087639
X099984Y087993
X099578Y087028
X099578Y087422
X099578Y087816
X099381Y087619
X099381Y087225
X09732Y087778
X09607Y086328
X094864Y086912
X094864Y087512
X094864Y088212
X093284Y086912
X093284Y087512
X093284Y088212
X087323Y087402
X087323Y086614
X087323Y085039
X087323Y088189
X087323Y085827
X065118Y083819
X06Y083819
X054685Y083819
X045463Y087796
X045463Y087296
X045463Y088296
X044878Y086936
X043626Y086455
X040936Y087796
X040936Y087296
X040936Y088296
X039468Y087586
X039078Y086676
X037458Y086236
X03527Y087784
X035268Y088286
X035254Y087286
X03229Y088031
X032271Y087661
X032028Y084803
X032028Y083622
X032027Y085984
X031675Y085984
X031673Y083622
X03167Y084803
X028307Y085591
X028307Y085984
X028307Y084409
X027913Y083622
X02752Y085197
X02752Y084803
X02752Y085984
X02752Y085591
X027126Y084409
X027126Y085591
X026732Y085984
X026732Y084803
X026339Y083622
X025945Y085591
X025551Y084409
X025551Y083622
X025157Y084409
X024764Y085591
X024764Y083622
X02437Y083622
X02437Y084409
X023976Y085984
X023976Y083622
X023583Y084803
X023189Y084803
X023189Y084409
X022795Y085984
X022795Y085591
X022795Y085197
X022402Y085984
X022008Y085984
X018849Y083622
X018838Y087559
X018836Y086378
X018503Y083622
X018483Y087559
X018483Y086378
X017874Y085
X016693Y083425
X016693Y084213
X016693Y083819
X035258Y088776
X038688Y088786
X040915Y088798
X043626Y089948
X044302Y088798
X045463Y088796
X048791Y088791
X053307Y090709
X054014Y089665
X054014Y089921
X054014Y090177
X055Y089449
X055Y090394
X055Y089921
X055236Y089685
X055236Y090157
X055472Y089449
X055472Y089921
X055472Y090394
X055709Y089685
X055709Y090157
X055945Y089488
X055945Y089921
X055945Y090394
X05693Y089665
X05693Y089921
X05693Y090177
X058425Y090709
X059133Y089665
X059133Y089921
X059133Y090177
X060118Y089449
X060118Y090394
X060118Y089921
X060354Y089685
X060354Y090157
X060591Y089449
X060591Y090394
X060591Y089921
X060827Y090157
X060827Y089685
X061063Y089488
X061063Y089921
X061063Y090394
X062049Y089665
X062049Y089921
X062049Y090177
X063543Y090709
X064251Y089665
X064251Y089921
X064252Y090176
X065236Y089409
X065236Y090354
X065236Y089882
X065472Y089646
X065472Y090118
X065709Y089409
X065709Y089882
X065709Y090354
X065945Y089646
X065945Y090118
X066181Y089449
X066181Y089882
X066181Y090354
X067167Y089665
X067167Y089921
X067167Y090177
X087323Y088976
X087323Y089764
X093284Y088912
X094864Y088912
X095794Y089612
X095794Y090212
X095794Y090802
X099381Y0888
X099381Y089587
X099381Y090769
X099381Y090375
X099578Y088603
X099578Y089391
X099578Y090178
X099578Y090572
X099984Y088623
X099984Y088977
X099984Y089607
X099984Y090591
X099984Y089961
X104471Y089607
X104471Y088977
X104471Y088623
X104471Y090591
X104471Y089961
X104786Y0888
X104786Y089587
X104786Y090572
X104983Y088603
X104983Y089391
X104983Y090375
X106728Y089982
X107084Y089422
X107756Y088898
X108007Y08974
X108189Y089213
X108217Y090359
X108647Y088689
X121172Y08983
X122283Y090354
X12252Y089252
X123543Y089252
X123543Y090354
X123819Y091772
X123715Y093103
X123519Y09334
X123264Y092833
X123031Y091535
X122717Y09189
X122615Y093096
X122419Y09334
X122238Y092917
X121519Y093093
X121316Y093357
X108057Y091419
X108057Y091949
X107873Y090969
X10682Y093228
X104983Y092343
X104983Y093131
X104983Y09195
X104786Y093328
X104786Y09254
X104786Y092147
X104471Y09256
X104471Y092914
X104471Y09193
X104471Y091576
X104471Y090946
X10397Y093238
X103689Y092936
X103689Y092581
X100739Y092936
X100739Y092581
X099984Y09256
X099984Y092914
X099984Y09193
X099984Y091576
X099984Y090946
X099578Y091359
X099578Y092147
X099381Y091556
X099381Y092343
X095794Y092612
X095794Y093312
X095794Y091412
X095794Y092012
X067717Y091772
X064685Y092559
X062953Y091732
X059558Y092519
X057655Y09185
X05461Y092598
X051164Y092436
X050224Y092386
X044618Y091278
X044025Y09278
X044005Y09314
X042615Y091224
X03478Y090906
X034741Y091655
X0298Y093326
X026732Y09189
X02378Y091969
X011Y093811
X011Y095811
X011Y094811
X02726Y094286
X0283Y093536
X02983Y094596
X02984Y094246
X03072Y095896
X0312Y094266
X0323Y093466
X03395Y094296
X034309Y095151
X04156Y094176
X0425Y093466
X0436Y094636
X04461Y095826
X04465Y094026
X04468Y094386
X04567Y094206
X0467Y093526
X04825Y095816
X04825Y094276
X049054Y094086
X049764Y094676
X051164Y093516
X05364Y095756
X05477Y095156
X057706Y095156
X05882Y095656
X06302Y094876
X06342Y094888
X06382Y094876
X065823Y094829
X066923Y094829
X067923Y094829
X068923Y094829
X095794Y093912
X095794Y095212
X095794Y094612
X099381Y093721
X099578Y093524
X099735Y094666
X099984Y093898
X099984Y093544
X100326Y094666
X100522Y094272
X100719Y094666
X100865Y093737
X100916Y094272
X101215Y093737
X101507Y094666
X101704Y094272
X1019Y094666
X102097Y094272
X102688Y094272
X102885Y094666
X103081Y094272
X103278Y094666
X103325Y093757
X103685Y093767
X103869Y094272
X104066Y094666
X104263Y094272
X104459Y094666
X104471Y093544
X104471Y093898
X104656Y094272
X104983Y093721
X104983Y094115
X106164Y093918
X106164Y093524
X10652Y093918
X107567Y095549
X107847Y093539
X10785Y094628
X120118Y094724
X120394Y094685
X120787Y094685
X121063Y093937
X121732Y094252
X121929Y094646
X122835Y094252
X123583Y094291
X123937Y094252
X12437Y094213
X124646Y094213
X125669Y094646
X127205Y096003
X125906Y095906
X125394Y095906
X122165Y095906
X121693Y095945
X111024Y096108
X10781Y097188
X10531Y097178
X10254Y096466
X10226Y096476
X06858Y097696
X06757Y097806
X06653Y097776
X06547Y097886
X06431Y096646
X06382Y097226
X06342Y097238
X06302Y097226
X05897Y098006
X05882Y096156
X05882Y096656
X05847Y096656
X05809Y097506
X05772Y097106
X05747Y096156
X05602Y098356
X05592Y095906
X05487Y097606
X05374Y098206
X05364Y096856
X052114Y097836
X051214Y097836
X050314Y097836
X049414Y097836
X04659Y096866
X04574Y096856
X04504Y096856
X042373Y09699
X04155Y096106
X04124Y097446
X03524Y097656
X03325Y097896
X03223Y096946
X03071Y097716
X03001Y097696
X02812Y097006
X02726Y096106
X0271Y097266
X011Y096811
X014906Y099079
X016339Y099528
X016339Y100079
X021716Y100581
X022029Y10007
X02337Y101918
X04945Y100501
X05374Y099306
X05377Y103106
X05379Y100656
X05379Y101756
X05492Y100056
X05492Y102506
X05607Y100806
X05607Y103256
X05756Y098596
X0576Y101046
X057806Y100056
X05782Y099556
X05787Y102006
X05807Y102456
X05857Y099106
X05862Y101556
X05897Y100506
X05897Y099006
X05897Y101006
X05897Y101506
X05897Y098506
X059Y102986
X06302Y099726
X06302Y102206
X06342Y099738
X06342Y102218
X06382Y099726
X06382Y102206
X06425Y101496
X06434Y098996
X06764Y103386
X072734Y102326
X073324Y102322
X073663Y102326
X073915Y102322
X07412Y102322
X074505Y102322
X075096Y102322
X075348Y102322
X075686Y10233
X076281Y102322
X076537Y102318
X076868Y102314
X077206Y102322
X077458Y102322
X078057Y102318
X078639Y102326
X07923Y102322
X07982Y102326
X080411Y102326
X081001Y102326
X081592Y102326
X08168Y103076
X081903Y102358
X082183Y102326
X082777Y102322
X083364Y102326
X083954Y102326
X084545Y102322
X085135Y102326
X085726Y102326
X08632Y102322
X086903Y102326
X087497Y102326
X08759Y103106
X08778Y102326
X088084Y102326
X088679Y102318
X089269Y102326
X08986Y102322
X090446Y102326
X091041Y102326
X091627Y102326
X092222Y102322
X0923Y103066
X092812Y102322
X09311Y102336
X093403Y102326
X09399Y102326
X10097Y101676
X10147Y100636
X10147Y102096
X10149Y101006
X10198Y101686
X10246Y100666
X10248Y101026
X10248Y102096
X10297Y101716
X10346Y100666
X10349Y102086
X1035Y100996
X10398Y101696
X10445Y101006
X10446Y100656
X10907Y098626
X110054Y102948
X110674Y102948
X111484Y100468
X120551Y099803
X121614Y099803
X122795Y099803
X124252Y099803
X125354Y099803
X126339Y099803
X12811Y101063
X06809Y103496
X06509Y105976
X06469Y105966
X06429Y103986
X06376Y105976
X06341Y105966
X06248Y105986
X06218Y105966
X06155Y105976
X06121Y105986
X06089Y105966
X06027Y105976
X059Y103486
X05899Y103986
X05862Y104006
X05787Y104216
X05762Y103506
X05377Y104206
X04945Y103606
X04845Y103606
X04745Y103606
X04645Y103606
X04545Y103606
X04445Y103606
X04345Y103606
X04245Y103606
X04145Y103606
X04045Y103606
X03525Y103606
X03425Y103606
X03325Y103606
X03225Y103606
X03125Y103606
X03025Y103606
X02925Y103606
X02825Y103606
X02725Y103606
X02625Y103606
X02337Y105856
X016614Y104606
X016614Y104134
X014906Y104079
X010984Y104094
T4C.02362F197S55
X034075Y012901
X035295Y012901
X036516Y012901
X03811Y011637
X038508Y012326
X038909Y011637
X03911Y013015
X039508Y012326
X039909Y013015
X04011Y011637
X040508Y012326
X040909Y011637
X04111Y013015
X041508Y012326
X041909Y013015
X04211Y011637
X042508Y012326
X042909Y011637
X04311Y013015
X043508Y012326
X043909Y013015
X04411Y011637
X044508Y012326
X044909Y011637
X04511Y013015
X045508Y012326
X045909Y013015
X04611Y011637
X046508Y012326
X046909Y011637
X04711Y013015
X047508Y012326
X047909Y013015
X04811Y011637
X048508Y012326
X048909Y011637
X04911Y013015
X049508Y012326
X049909Y013015
X05011Y011637
X050508Y012326
X050909Y011637
X05111Y013015
X051508Y012326
X051909Y013015
X05211Y011637
X052508Y012326
X052909Y011637
X05311Y013015
X053508Y012326
X053909Y013015
X05411Y011637
X054508Y012326
X054909Y011637
X05511Y013015
X055508Y012326
X055909Y013015
X05611Y011637
X056508Y012326
X056909Y011637
X05711Y013015
X057508Y012326
X057909Y013015
X060098Y012901
X061319Y012901
X062539Y012901
X069325Y012901
X070545Y012901
X071766Y012901
X07336Y011637
X073758Y012326
X074159Y011637
X07436Y013015
X074758Y012326
X075159Y013015
X07536Y011637
X075758Y012326
X076159Y011637
X07636Y013015
X076758Y012326
X077159Y013015
X07736Y011637
X077758Y012326
X078159Y011637
X07836Y013015
X078758Y012326
X079159Y013015
X07936Y011637
X079758Y012326
X080159Y011637
X08036Y013015
X080758Y012326
X081159Y013015
X08136Y011637
X081758Y012326
X082159Y011637
X08236Y013015
X082758Y012326
X083159Y013015
X08336Y011637
X083758Y012326
X084159Y011637
X08436Y013015
X084758Y012326
X085159Y013015
X08536Y011637
X085758Y012326
X086159Y011637
X08636Y013015
X086758Y012326
X087159Y013015
X08736Y011637
X087758Y012326
X088159Y011637
X08836Y013015
X088758Y012326
X089159Y013015
X08936Y011637
X089758Y012326
X090159Y011637
X09036Y013015
X090758Y012326
X091159Y013015
X09136Y011637
X091758Y012326
X092159Y011637
X09236Y013015
X092758Y012326
X093159Y013015
X095348Y012901
X096569Y012901
X097789Y012901
X097789Y013688
X097789Y014475
X097789Y015263
X096569Y013688
X096569Y014475
X096569Y015263
X095348Y013688
X095348Y014475
X095348Y015263
X093159Y015798
X092758Y015109
X09236Y015798
X092159Y01442
X091758Y015109
X09136Y01442
X091159Y015798
X090758Y015109
X09036Y015798
X090159Y01442
X089758Y015109
X08936Y01442
X089159Y015798
X088758Y015109
X08836Y015798
X088159Y01442
X087758Y015109
X08736Y01442
X087159Y015798
X086758Y015109
X08636Y015798
X086159Y01442
X085758Y015109
X08536Y01442
X085159Y015798
X084758Y015109
X08436Y015798
X084159Y01442
X083758Y015109
X08336Y01442
X083159Y015798
X082758Y015109
X08236Y015798
X082159Y01442
X081758Y015109
X08136Y01442
X081159Y015798
X080758Y015109
X08036Y015798
X080159Y01442
X079758Y015109
X07936Y01442
X079159Y015798
X078758Y015109
X07836Y015798
X078159Y01442
X077758Y015109
X07736Y01442
X077159Y015798
X076758Y015109
X07636Y015798
X076159Y01442
X075758Y015109
X07536Y01442
X075159Y015798
X074758Y015109
X07436Y015798
X074159Y01442
X073758Y015109
X07336Y01442
X071766Y013688
X071766Y014475
X071766Y015263
X070545Y013688
X070545Y014475
X070545Y015263
X069325Y014475
X069325Y015263
X069325Y013688
X062539Y013688
X062539Y014475
X062539Y015263
X061319Y013688
X061319Y014475
X061319Y015263
X060098Y013688
X060098Y014475
X060098Y015263
X057909Y015798
X057508Y015109
X05711Y015798
X056909Y01442
X056508Y015109
X05611Y01442
X055909Y015798
X055508Y015109
X05511Y015798
X054909Y01442
X054508Y015109
X05411Y01442
X053909Y015798
X053508Y015109
X05311Y015798
X052909Y01442
X052508Y015109
X05211Y01442
X051909Y015798
X051508Y015109
X05111Y015798
X050909Y01442
X050508Y015109
X05011Y01442
X049909Y015798
X049508Y015109
X04911Y015798
X048909Y01442
X048508Y015109
X04811Y01442
X047909Y015798
X047508Y015109
X04711Y015798
X046909Y01442
X046508Y015109
X04611Y01442
X045909Y015798
X045508Y015109
X04511Y015798
X044909Y01442
X044508Y015109
X04411Y01442
X043909Y015798
X043508Y015109
X04311Y015798
X042909Y01442
X042508Y015109
X04211Y01442
X041909Y015798
X041508Y015109
X04111Y015798
X040909Y01442
X040508Y015109
X04011Y01442
X039909Y015798
X039508Y015109
X03911Y015798
X038909Y01442
X038508Y015109
X03811Y01442
X036516Y013688
X036516Y014475
X036516Y015263
X035295Y013688
X035295Y014475
X035295Y015263
X034075Y013688
X034075Y014475
X034075Y015263
T5C.02756F197S55
X034374Y022677
X034374Y023464
X034374Y024252
X034374Y025039
X034374Y025826
X035124Y023858
X035124Y024645
X035124Y02307
X035124Y025433
X035876Y024236
X035876Y025023
X035876Y025811
X035876Y022661
X035876Y023448
X036626Y024645
X036626Y02307
X036626Y023858
X036626Y025433
X121144Y025392
X121894Y025785
X122646Y025392
X123396Y025785
X123396Y028147
X123396Y02736
X123396Y026573
X123396Y03051
X123396Y029722
X123396Y028935
X122646Y027754
X122646Y026966
X122646Y026179
X122646Y030903
X122646Y030116
X122646Y029329
X122646Y028541
X121894Y03051
X121894Y029722
X121894Y028935
X121894Y028147
X121894Y02736
X121894Y026573
X121144Y030903
X121144Y030116
X121144Y029329
X121144Y028541
X121144Y026966
X121144Y027754
X121144Y026179
X036626Y027007
X036626Y027795
X036626Y02622
X036626Y028582
X036626Y02937
X036626Y030157
X035876Y028173
X035876Y026598
X035876Y027385
X035876Y02896
X035876Y029748
X035876Y030535
X035124Y02622
X035124Y027795
X035124Y027007
X035124Y028582
X035124Y02937
X035124Y030157
X034374Y028189
X034374Y028976
X034374Y026614
X034374Y029763
X034374Y027401
X034374Y030551
X034374Y031338
X034374Y032126
X034374Y032913
X034374Y0337
X034374Y034488
X034374Y035275
X035124Y030944
X035124Y031732
X035124Y032519
X035124Y033307
X035124Y034094
X035124Y034881
X035124Y035669
X035876Y031322
X035876Y03211
X035876Y032897
X035876Y033685
X035876Y034472
X035876Y035259
X036626Y032519
X036626Y034094
X036626Y031732
X036626Y034881
X036626Y033307
X036626Y035669
X036626Y030944
X121144Y033266
X121144Y032478
X121144Y035628
X121144Y03484
X121144Y034053
X121144Y031691
X121894Y033659
X121894Y032872
X121894Y035234
X121894Y034447
X121894Y032084
X121894Y031297
X122646Y035628
X122646Y03484
X122646Y033266
X122646Y031691
X122646Y034053
X122646Y032478
X123396Y033659
X123396Y035234
X123396Y032872
X123396Y031297
X123396Y034447
X123396Y032084
X123396Y038384
X123396Y037596
X123396Y036809
X123396Y036021
X123396Y040746
X123396Y039959
X123396Y039171
X122646Y03799
X122646Y040352
X122646Y036415
X122646Y039565
X122646Y037203
X122646Y038777
X121894Y036021
X121894Y038384
X121894Y037596
X121894Y036809
X121894Y040746
X121894Y039959
X121894Y039171
X121144Y03799
X121144Y037203
X121144Y040352
X121144Y036415
X121144Y039565
X121144Y038777
X036626Y037244
X036626Y038031
X036626Y036456
X036626Y038819
X036626Y039606
X036626Y040393
X035876Y036834
X035876Y038409
X035876Y039196
X035876Y037622
X035876Y039984
X035876Y036047
X035876Y040771
X035124Y036456
X035124Y037244
X035124Y038031
X035124Y038819
X035124Y039606
X035124Y040393
X034374Y038425
X034374Y036063
X034374Y039212
X034374Y037637
X034374Y04
X034374Y03685
X034374Y040787
X034374Y041574
X034374Y042362
X034374Y043149
X034374Y043937
X034374Y044724
X034374Y045511
X035124Y041181
X035124Y041968
X035124Y042756
X035124Y043543
X035124Y04433
X035124Y045118
X035124Y045905
X035876Y041559
X035876Y042346
X035876Y043133
X035876Y043921
X035876Y044708
X035876Y045496
X036626Y043543
X036626Y042756
X036626Y04433
X036626Y041968
X036626Y045118
X036626Y045905
X036626Y041181
X121144Y042714
X121144Y045864
X121144Y045077
X121144Y044289
X121144Y041927
X121144Y04114
X121144Y043502
X121894Y042321
X121894Y043108
X121894Y043896
X121894Y04547
X121894Y044683
X121894Y041533
X122646Y042714
X122646Y045077
X122646Y043502
X122646Y044289
X122646Y041927
X122646Y04114
X122646Y045864
X123396Y043896
X123396Y04547
X123396Y041533
X123396Y043108
X123396Y042321
X123396Y044683
X123396Y046258
X123396Y047045
X123396Y050195
X123396Y049407
X122646Y046651
X122646Y050588
X122646Y049801
X122646Y049014
X121894Y05021
X121894Y049423
X121894Y047045
X121894Y046258
X121144Y046651
X121144Y049801
X121144Y049014
X121144Y050588
X036626Y046693
X036626Y049842
X036626Y05063
X036626Y04748
X035876Y050236
X035876Y04707
X035876Y049448
X035876Y046283
X035124Y04748
X035124Y046693
X035124Y049842
X035124Y05063
X034374Y049448
X034374Y047086
X034374Y050236
X034374Y046299
X034374Y051023
X034374Y051811
X034374Y052598
X034374Y053385
X034374Y054173
X034374Y05496
X034374Y055748
X035124Y051417
X035124Y052204
X035124Y052992
X035124Y053779
X035124Y054567
X035124Y055354
X035876Y051811
X035876Y052598
X035876Y054173
X035876Y05496
X035876Y055748
X035876Y053385
X035876Y051023
X036626Y052204
X036626Y053779
X036626Y054567
X036626Y055354
X036626Y052992
X036626Y051417
X121144Y051376
X121144Y055313
X121144Y052163
X121144Y054525
X121144Y053738
X121144Y052951
X121894Y05336
X121894Y054935
X121894Y055722
X121894Y054147
X121894Y052573
X121894Y050998
X121894Y051785
X122646Y055313
X122646Y054525
X122646Y053738
X122646Y052163
X122646Y052951
X122646Y051376
X123396Y053344
X123396Y054132
X123396Y054919
X123396Y05177
X123396Y055707
X123396Y050982
X123396Y052557
X123396Y058069
X123396Y057281
X123396Y056494
X123396Y058856
X123396Y060431
X123396Y059644
X122646Y057675
X122646Y056888
X122646Y0561
X122646Y060825
X122646Y058462
X122646Y060037
X122646Y05925
X121894Y058084
X121894Y057297
X121894Y060447
X121894Y059659
X121894Y05651
X121894Y058872
X121144Y056888
X121144Y057675
X121144Y060037
X121144Y05925
X121144Y0561
X121144Y060825
X121144Y058462
X036626Y056929
X036626Y057716
X036626Y056141
X036626Y058504
X036626Y059291
X036626Y060078
X036626Y060866
X035876Y05811
X035876Y057322
X035876Y056535
X035876Y058897
X035876Y059685
X035876Y060472
X035124Y057716
X035124Y056929
X035124Y056141
X035124Y058504
X035124Y059291
X035124Y060078
X035124Y060866
X034374Y058897
X034374Y05811
X034374Y059685
X034374Y057322
X034374Y060472
X034374Y056535
X034374Y061259
X034374Y062047
X034374Y062834
X034374Y063622
X034374Y064409
X034374Y065196
X035124Y061653
X035124Y062441
X035124Y063228
X035124Y064015
X035124Y064803
X035124Y06559
X035876Y062047
X035876Y063622
X035876Y064409
X035876Y065196
X035876Y061259
X035876Y062834
X036626Y062441
X036626Y064015
X036626Y064803
X036626Y06559
X036626Y061653
X036626Y063228
X121144Y063974
X121144Y061612
X121144Y065549
X121144Y064762
X121144Y062399
X121144Y063187
X121894Y062021
X121894Y062809
X121894Y064384
X121894Y061234
X121894Y063596
X121894Y065171
X122646Y063974
X122646Y065549
X122646Y061612
X122646Y063187
X122646Y064762
X122646Y062399
X123396Y062793
X123396Y062006
X123396Y063581
X123396Y065155
X123396Y061218
X123396Y064368
X123396Y067518
X123396Y06673
X123396Y065943
X123396Y068305
X123396Y06988
X123396Y070667
X123396Y069092
X122646Y066336
X122646Y067124
X122646Y070273
X122646Y067911
X122646Y069486
X122646Y068699
X121894Y066746
X121894Y067533
X121894Y065959
X121894Y070683
X121894Y069896
X121894Y068321
X121894Y069108
X121144Y066336
X121144Y067124
X121144Y067911
X121144Y070273
X121144Y069486
X121144Y068699
X036626Y06874
X036626Y069527
X036626Y070315
X036626Y066378
X036626Y067165
X036626Y067952
X035876Y069921
X035876Y068346
X035876Y070708
X035876Y066771
X035876Y067559
X035876Y065984
X035876Y069133
X035124Y066378
X035124Y067952
X035124Y067165
X035124Y06874
X035124Y069527
X035124Y070315
X034374Y067559
X034374Y066771
X034374Y069133
X034374Y068346
X034374Y069921
X034374Y065984
X034374Y070708
X035124Y071102
X036626Y071102
X121144Y071848
X121144Y072636
X121144Y071061
X121144Y073423
X121894Y073045
X121894Y07147
X121894Y072258
X121894Y073833
X122646Y071061
X122646Y071848
X122646Y072636
X122646Y073423
X123396Y072242
X123396Y073029
X123396Y071455
X123396Y073817
T6C.032F197S55
X101535Y072343
X101535Y073343
X101535Y074343
X101535Y075343
X101535Y076343
T7C.035F197S55
X01102Y017406
X01102Y022406
X01227Y017406
X01477Y017406
X01602Y017406
X01727Y017406
X01852Y017406
X02102Y017406
X02227Y017406
X02352Y018656
X02352Y019906
X02352Y017406
X02352Y021156
X02352Y022406
X129471Y089969
X129471Y088969
X128471Y089969
X128471Y088969
X127471Y089969
X127471Y088969
X126471Y089969
X126471Y088969
X125471Y089969
X125471Y088969
X09997Y100167
X10047Y099167
X10097Y100167
X10147Y099167
X10197Y100167
X10247Y099167
X10297Y100167
X10347Y099167
X10397Y100167
X10447Y099167
X10483Y104267
X10383Y104267
X10061Y104267
X09961Y104267
T8C.03543F197S55
X129825Y056061
X12986Y054778
X12986Y047691
X129825Y063148
X11766Y100087
X11716Y099087
X11666Y100087
X11616Y099087
X11566Y100087
X11516Y099087
X11466Y100087
X11416Y099087
T9C.03543F197S55
X115306Y016825
T10C.03622F197S55
X107722Y101387
X108706Y101387
X109494Y101387
X110478Y101387
T11C.03937F197S55
X086615Y029398
X090565Y029448
X089066Y085433
X089016Y089383
T12C.03937F197S55
X02459Y017429
X025551Y012559
X02588Y023256
X02656Y017446
X02663Y023236
X02739Y023256
X027717Y012559
X02815Y023246
X028307Y021024
X028307Y022008
X02851Y017466
X029094Y021024
X029094Y022008
X032047Y015118
X032638Y011575
X032638Y013937
X032638Y012756
X032638Y019252
X056772Y023071
X063976Y020039
X065787Y022913
X066772Y020039
X074961Y022835
X09563Y023189
X098386Y023189
X13042Y026306
X1297Y026276
X12898Y026256
X12824Y026256
X117874Y026929
X115118Y026929
X098386Y026339
X098386Y024764
X09563Y026339
X09563Y024764
X074961Y024882
X065787Y024882
X056772Y024882
X032244Y026339
X032244Y030669
X029882Y030669
X029882Y026339
X02815Y030806
X0274Y030796
X02662Y030806
X02586Y030826
X022607Y028626
X016209Y028605
X01087Y038306
X030276Y032835
X030276Y034409
X030276Y037559
X030276Y035984
X033031Y034409
X033031Y032835
X033031Y037559
X033031Y035984
X087165Y033591
X087165Y036346
X08874Y033622
X08874Y036378
X090315Y033622
X090315Y036378
X092087Y034016
X092087Y035984
X115118Y031654
X117874Y031654
X124567Y032638
X125748Y034606
X126929Y032638
X1283Y033856
X12838Y035856
X12907Y033876
X12918Y035836
X12982Y033856
X12995Y035836
X13058Y033856
X13067Y035826
X13063Y044326
X12992Y044306
X12918Y044306
X12841Y044316
X125748Y038937
X109567Y044606
X107992Y044606
X10626Y044646
X104094Y044646
X086772Y044429
X086772Y041713
X085Y041693
X084961Y044409
X083228Y044449
X083228Y041693
X033031Y039134
X030354Y042362
X030276Y039134
X02811Y044488
X027913Y042362
X023409Y042036
X023409Y042744
X022622Y042744
X022622Y042036
X01352Y043706
X01087Y040456
X01087Y039756
X01087Y039006
X019164Y047815
X028031Y05248
X02811Y048386
X02811Y047008
X091102Y052323
X100236Y050551
X100236Y047874
X101654Y048504
X101654Y050551
X102598Y050551
X102598Y048504
X103543Y048504
X103543Y050551
X104094Y051142
X104567Y050551
X104567Y048504
X105512Y048504
X10626Y051142
X127868Y045928
X127865Y054605
X127323Y058425
X126732Y055472
X126732Y05685
X124961Y058425
X091102Y053701
X087559Y053701
X030991Y065866
X028235Y065866
X02175Y061157
X02175Y059621
X02175Y06036
X019079Y057784
X028235Y067638
X028235Y069409
X030991Y067638
X030991Y069409
X087598Y072992
X089685Y071614
X092126Y071614
X092126Y072992
X092126Y07437
X113346Y067677
X113346Y069843
X114528Y067677
X114528Y070433
X116102Y070433
X116102Y067677
X118465Y079094
X118465Y084409
X115709Y079094
X115709Y084409
X083819Y078701
X083819Y075945
X08126Y075945
X08126Y078701
X067717Y083898
X063543Y085787
X062283Y08374
X058228Y085787
X057087Y083819
X053307Y085787
X045236Y080472
X045236Y078898
X04248Y080472
X04248Y078898
X049764Y086575
X053987Y093622
X054291Y087756
X056614Y093661
X059077Y093661
X059409Y087756
X06185Y093268
X064107Y093661
X064528Y087756
X06685Y093386
X110591Y093858
X110591Y095236
X115709Y085984
X118465Y085984
T13C.04016F139S55
X057997Y024898
X073796Y024898
T14C.04016F139S55
X023836Y071403
X023836Y072403
X023836Y073403
X027086Y071403
X027086Y072403
X027086Y073403
X030436Y071403
X030436Y072403
X030436Y073403
X030436Y074403
X027086Y074403
X023836Y074403
T15C.04291F139S55
X123248Y101838
X123795Y102956
X124338Y101838
X124886Y102956
X125429Y101838
X125976Y102956
X126519Y101838
X127067Y102956
X12761Y101838
T16C.047F139S55
X12966Y096887
T17C.04921F139S55
X022985Y073403
X026235Y073403
X029585Y073403
T18C.05118F107S55
X12314Y016825
T19C.055F107S55
X01102Y030206
X01302Y030206
X01602Y030206
X01782Y030206
X01782Y031456
X01907Y030206
X02282Y031456
X02282Y030206
X02282Y035206
X02282Y037706
X02157Y037706
X02032Y037706
X01907Y037706
X01782Y037706
X01602Y035206
X01602Y036456
X01502Y036456
X01402Y036456
X01302Y036456
X01202Y036456
X01102Y036456
X01122Y050856
X01122Y049606
X01122Y057106
X01247Y057106
X01372Y057106
X01497Y057106
X01622Y057106
X01747Y050856
X01747Y057106
X01747Y055856
X01747Y052106
T20C.05512F107S55
X071377Y102548
X095353Y102548
T21C.057F107S55
X127477Y067172
X127477Y070479
X127477Y068826
X129643Y067172
X129643Y068826
X129643Y070479
X129643Y072133
X129643Y073786
X129643Y07544
X129643Y077094
X129643Y078747
X129643Y080401
X129643Y082054
X127477Y07544
X127477Y078747
X127477Y080401
X127477Y072133
X127477Y073786
X127477Y082054
X127477Y077094
X127477Y085361
X127477Y083708
X129643Y083708
X129643Y085361
T22C.05906F107S55
X103527Y013599
X108227Y013599
X038Y092336
X03797Y095786
T23C.06299F089S55
X112751Y097902
X11907Y097902
T24C.063F089S55
X09917Y101467
X10527Y101467
T25C.06693F089S55
X102527Y012599
X102527Y014599
X104527Y014599
X104527Y012599
X107227Y014599
X107227Y012599
X109227Y014599
X109227Y012599
X039Y093336
X039Y091336
X037Y091336
X037Y093336
X03697Y094786
X03697Y096786
X03897Y096786
X03897Y094786
T26C.07F081S55
X12966Y099887
T27C.07087F081S55
X122142Y048029G85X122398Y048029
X035628Y048464G85X035372Y048464
T28C.07165F081S55
X070558Y103265
T29C.07165F081S55
X096294Y103257G85X096066Y103257
T30C.09055F066S55
X106513Y102454
X111687Y102454
T31C.094F066S55
X101535Y069843
T32C.09646F066S55
X038197Y022015
X038197Y072007
X119573Y024486
X119573Y074478
T33C.11811F069S658
X069979Y099054
X096751Y099054
X096751Y105521
X069979Y105521
T34C.12008F035S794
X120511Y102397
X13035Y102397
T35C.125F035S794
X129462Y065322
T36C.12795F035S794
X113491Y102587
X118333Y102587
T37C.128F035S794
X09997Y102667
X10447Y102667
T38C.1378F035S794
X056299Y063126
X076299Y055331
T39C.15F035S9
X01671Y012917
X01671Y041417
X06571Y012917
X06571Y041417
X12671Y012917
X12671Y041417
X12671Y093417
X06571Y102417
X01671Y102417
M30
