%
T1C.008F0S0
X021286Y020449
X021404Y010489
X021837Y010489
X023609Y011197
X029239Y010882
X029475Y010882
X029711Y010882
X032191Y019938
X033806Y016867
X035971Y016867
X059003Y01667
X064317Y015292
X068254Y017064
X07042Y017064
X094167Y015298
X094436Y016867
X099751Y013717
X10231Y015489
X103317Y020182
X103717Y020182
X121679Y023441
X12095Y023441
X102757Y022357
X10259Y02219
X07231Y02293
X07231Y025292
X072034Y02293
X072034Y025292
X071723Y022939
X071456Y022938
X071132Y022939
X071129Y02541
X070866Y022938
X070853Y02541
X070542Y022939
X070538Y02541
X070275Y022938
X070262Y02541
X069951Y022939
X069685Y022938
X069361Y022939
X069357Y02541
X069094Y022938
X069081Y02541
X06877Y022939
X068766Y02541
X068504Y022938
X068491Y02541
X068179Y022939
X067913Y022938
X067589Y022939
X067585Y02541
X067322Y022938
X06731Y02541
X066998Y022939
X066995Y02541
X066732Y022938
X066719Y02541
X064439Y022939
X064436Y02541
X064173Y022938
X06416Y02541
X063849Y022939
X063582Y022938
X063258Y022939
X063254Y02541
X062992Y022938
X062979Y02541
X062668Y022939
X062664Y02541
X062401Y022938
X062388Y02541
X062077Y022939
X062073Y02541
X061811Y022938
X061798Y02541
X061487Y022939
X06122Y022938
X060896Y022939
X060892Y02541
X06063Y022938
X060617Y02541
X060305Y022939
X060302Y02541
X060039Y022938
X060026Y02541
X059715Y022939
X059711Y02541
X059448Y022938
X059436Y02541
X059124Y022939
X059121Y02541
X058858Y022938
X058845Y02541
X034741Y020677
X024554Y023127
X023648Y025253
X023491Y02356
X021877Y021355
X020617Y031001
X023294Y027103
X024475Y026591
X027506Y032024
X0679Y025922
X068176Y025922
X069672Y025922
X069947Y025922
X071443Y025922
X071719Y025922
X08605Y030686
X08605Y031749
X0875Y0305
X087585Y031945
X088386Y030497
X088766Y030686
X088766Y031749
X089174Y029139
X092428Y027103
X093491Y027103
X094475Y027103
X095499Y027103
X097034Y027142
X098018Y027142
X099042Y027142
X100066Y027142
X10265Y0318
X103648Y031788
X1049Y02635
X109987Y032142
X110922Y032251
X113136Y032103
X119855Y025786
X128097Y03104
X128097Y028638
X13105Y029859
X112782Y036237
X112231Y033835
X112191Y036276
X111955Y034504
X1117Y03455
X111591Y03419
X111286Y035804
X111207Y033363
X111178Y034573
X111168Y033835
X110026Y03541
X108845Y036591
X108136Y037772
X107191Y037418
X105695Y03663
X100144Y035489
X099947Y036394
X099751Y035489
X0952Y0374
X09315Y0377
X092231Y036906
X092231Y03789
X09168Y03793
X091089Y037733
X090892Y037418
X090617Y037575
X08479Y036827
X084751Y037221
X028451Y037851
X013097Y037497
X011601Y04104
X014081Y040174
X019869Y038756
X019908Y040056
X02727Y039938
X02794Y039111
X030617Y042595
X030617Y042004
X032428Y040882
X033412Y041276
X038727Y041552
X043254Y041079
X0473Y04215
X06727Y042339
X07125Y0415
X07615Y04195
X089751Y040882
X089751Y042457
X090105Y042615
X090656Y041473
X091404Y041985
X092034Y039465
X092034Y039071
X092073Y040253
X092073Y039859
X092231Y040646
X092231Y038875
X092231Y039268
X092231Y038284
X092231Y04104
X092231Y039662
X09315Y0381
X093333Y042418
X093372Y042025
X100656Y042615
X100695Y042222
X101561Y042813
X101561Y042025
X101562Y04104
X101562Y042418
X10605Y039504
X10605Y0385
X107178Y039436
X107703Y040371
X108085Y038115
X108176Y04041
X108806Y039347
X127979Y038008
X129554Y040039
X13042Y042339
X126365Y043107
X126365Y043697
X126365Y044091
X126365Y044682
X126365Y045154
X126363Y043398
X126363Y044382
X126363Y045445
X101561Y043207
X098784Y044938
X09859Y045095
X09839Y044938
X098176Y043914
X097979Y044819
X097585Y044819
X097407Y04339
X097388Y043914
X096995Y044819
X096798Y045056
X096719Y043756
X096601Y044819
X096404Y043914
X096207Y043678
X095617Y043914
X09542Y044819
X095026Y044819
X094632Y043914
X094436Y044819
X094239Y043914
X094042Y044819
X093845Y043914
X093648Y043678
X092231Y043402
X092231Y043008
X090353Y042991
X090341Y044071
X089617Y043022
X089593Y044111
X084524Y045129
X083411Y045129
X082328Y045129
X081601Y043284
X081533Y044247
X081293Y045129
X08105Y043284
X078294Y043048
X075144Y043048
X071995Y043048
X068845Y043048
X066483Y043678
X065695Y044623
X063373Y044583
X060971Y043048
X058609Y044623
X056247Y043048
X053884Y044623
X044829Y043441
X043254Y043441
X038727Y044701
X038688Y043087
X030617Y043067
X030617Y044957
X030617Y044367
X030617Y043658
X025341Y049347
X025932Y047182
X025932Y047969
X028294Y04915
X028648Y04915
X030617Y045666
X030617Y048934
X030617Y046256
X030617Y049524
X032917Y048732
X032917Y049732
X033018Y046788
X033018Y047772
X033317Y048882
X038688Y046001
X038688Y047221
X038688Y04856
X038727Y049741
X043215Y045804
X043254Y04856
X044829Y045804
X044829Y04856
X049617Y048232
X05005Y0495
X058215Y04856
X058215Y048166
X059003Y048166
X059003Y04856
X05979Y04856
X05979Y048166
X060577Y048166
X060577Y04856
X061365Y04856
X061365Y048166
X062152Y04856
X062152Y048166
X06245Y0479
X06294Y04856
X06294Y048166
X063727Y04856
X063727Y048166
X064514Y04856
X064514Y048166
X065302Y04856
X065302Y048166
X066089Y04856
X066089Y048166
X066877Y04856
X066877Y048166
X067664Y04856
X067664Y048166
X068451Y04856
X068451Y049111
X068451Y048166
X068451Y049977
X069239Y04856
X069239Y048166
X070026Y04856
X070026Y048166
X070814Y04856
X070814Y048166
X071601Y04856
X071601Y048166
X072388Y04856
X072388Y048166
X073176Y04856
X073176Y048166
X073963Y04856
X073963Y048166
X076719Y04856
X076719Y046985
X076719Y050134
X07695Y0479
X077439Y046102
X07815Y0497
X078294Y04856
X078294Y050134
X078721Y048558
X079834Y048558
X08Y05005
X080252Y046822
X080252Y047935
X08095Y04705
X081247Y049347
X081247Y04856
X08164Y048166
X08164Y04856
X08164Y048953
X08164Y049347
X08164Y047772
X08164Y049741
X08164Y050134
X082034Y04856
X082034Y048953
X082034Y047772
X082034Y048166
X082034Y049347
X082034Y050134
X082034Y049741
X082428Y047772
X082428Y048166
X082428Y049347
X082428Y048953
X082428Y049741
X082428Y050134
X082428Y04856
X082821Y04856
X082821Y048953
X082821Y049347
X082821Y050134
X082821Y049741
X083215Y048166
X083215Y04856
X083215Y047772
X083215Y048953
X083215Y049347
X083215Y049741
X083215Y050134
X083609Y04856
X083609Y048953
X083609Y049347
X083609Y047772
X083609Y048166
X083609Y050134
X083609Y049741
X084003Y047772
X084003Y048166
X084396Y048166
X084396Y050134
X084396Y049741
X08479Y049347
X08479Y048166
X08479Y048953
X08479Y04856
X08479Y047772
X08479Y050134
X085184Y048166
X085184Y049347
X085184Y049741
X085588Y046822
X0856Y047935
X086575Y047935
X086587Y046822
X088299Y049537
X088299Y048544
X089317Y048048
X09601Y047969
X097191Y047969
X101916Y047221
X101916Y046276
X1045Y0455
X105302Y049672
X126363Y048988
X126363Y05017
X126365Y048697
X126365Y045745
X126365Y049288
X126365Y049878
X126365Y050469
X12916Y045852
X126365Y050941
X126365Y051532
X126365Y052674
X126363Y051233
X126363Y052965
X108806Y052693
X108412Y052693
X108018Y052693
X106837Y052693
X106443Y052693
X10605Y052693
X105459Y051119
X104869Y052693
X104081Y052693
X103688Y052693
X103294Y052693
X1029Y052693
X102506Y052693
X101325Y052693
X100932Y052693
X100538Y052693
X100144Y052693
X099751Y052693
X09916Y052339
X098963Y052693
X098176Y052693
X090341Y050922
X090105Y051119
X088299Y050521
X088299Y051506
X088299Y052487
X08479Y050528
X08479Y051316
X08479Y050922
X08479Y051709
X08479Y05289
X08479Y052103
X08479Y052497
X084396Y052497
X084396Y051709
X084396Y050528
X084003Y050528
X083609Y050528
X083609Y051709
X083609Y052497
X083609Y052103
X083609Y05289
X083609Y050922
X083609Y051316
X083215Y051709
X083215Y052103
X083215Y05289
X083215Y052497
X083215Y050528
X083215Y050922
X083215Y051316
X082821Y051709
X082821Y052103
X082821Y05289
X082821Y050528
X082821Y051316
X082821Y050922
X082428Y051709
X082428Y052103
X082428Y052497
X082428Y050528
X082428Y051316
X082428Y050922
X082034Y051709
X082034Y052497
X082034Y052103
X082034Y051316
X082034Y050922
X082034Y050528
X08164Y052103
X08164Y051709
X08164Y052497
X08164Y050528
X08164Y051316
X08164Y050922
X081247Y05289
X081247Y051709
X081247Y052103
X081247Y050528
X081247Y051316
X080501Y050725
X075323Y052497
X07532Y050922
X075318Y051709
X074967Y051709
X074967Y052497
X074964Y050922
X072782Y052497
X072782Y05289
X072388Y052497
X072388Y05289
X072388Y052103
X071995Y05289
X071995Y052497
X071601Y05289
X071601Y052497
X070814Y05289
X07042Y05289
X070026Y05289
X070026Y052497
X070026Y052103
X069632Y05289
X069632Y052497
X069239Y052497
X069239Y05289
X068845Y052497
X068845Y05289
X068451Y052497
X068451Y051709
X068451Y052103
X068451Y05289
X068451Y051355
X068058Y05289
X068058Y051079
X068058Y051316
X067664Y052497
X067664Y051512
X067664Y050922
X067664Y05289
X06727Y052497
X06727Y05167
X06727Y052103
X06727Y050764
X066877Y052497
X066877Y05289
X066877Y052103
X066483Y052497
X066483Y05289
X066089Y052103
X066089Y052497
X066089Y05289
X065695Y05289
X065302Y052497
X065302Y05289
X064908Y05289
X064908Y052497
X064514Y052497
X064514Y05289
X064121Y05289
X064121Y052103
X064121Y052497
X063727Y05289
X063333Y05289
X063333Y052497
X06294Y05289
X06294Y052497
X062546Y05289
X062546Y052497
X062546Y052103
X062152Y05289
X061758Y052497
X061758Y05289
X061365Y05289
X060971Y05289
X060577Y052103
X060577Y05289
X05979Y05289
X059396Y05289
X059396Y052497
X057034Y051316
X05664Y050528
X05664Y052103
X055656Y052103
X055656Y051316
X055656Y050528
X055656Y05289
X055262Y050528
X055262Y051316
X055262Y052103
X055262Y05289
X052667Y052782
X050017Y051332
X044829Y050922
X043254Y050922
X038688Y050961
X038688Y052142
X037767Y052732
X030617Y051493
X030617Y052792
X030617Y050902
X02731Y051512
X02731Y050922
X025853Y050646
X030617Y053382
X032585Y053678
X033412Y055253
X033451Y05415
X033451Y053678
X038688Y054426
X038727Y053284
X038727Y055449
X043254Y053678
X044829Y053678
X055262Y053678
X055262Y055253
X055262Y054465
X055656Y055253
X055656Y053678
X055656Y054465
X05664Y054465
X057034Y053678
X057034Y055253
X059396Y053284
X059396Y055253
X059396Y054465
X059396Y053678
X059396Y054859
X059396Y054071
X05979Y053284
X05979Y055253
X05979Y054071
X05979Y053678
X05979Y054465
X05979Y054859
X060184Y053284
X060184Y054071
X060184Y055253
X060184Y054465
X060184Y054859
X060184Y053678
X060577Y053284
X060577Y054465
X060577Y054859
X060577Y055253
X060577Y054071
X060577Y053678
X060971Y053284
X060971Y055253
X060971Y054465
X060971Y054859
X060971Y054071
X060971Y053678
X061365Y053678
X061365Y055253
X061365Y054859
X061365Y053284
X061365Y054071
X061365Y054465
X061758Y053284
X061758Y053678
X061758Y054465
X061758Y054859
X061758Y054071
X061758Y055253
X062152Y053284
X062152Y054465
X062152Y055253
X062152Y054859
X062152Y053678
X062152Y054071
X062546Y053284
X062546Y055253
X062546Y054071
X062546Y053678
X062546Y054465
X062546Y054859
X06294Y053284
X06294Y054071
X06294Y054465
X06294Y054859
X06294Y055253
X06294Y053678
X063333Y053284
X063333Y054071
X063333Y054859
X063333Y053678
X063333Y055253
X063333Y054465
X063727Y053284
X063727Y054465
X063727Y053678
X063727Y054859
X063727Y054071
X063727Y055253
X064121Y053678
X064121Y054859
X064121Y053284
X064121Y055253
X064121Y054465
X064121Y054071
X064514Y053284
X064514Y054071
X064514Y053678
X064514Y055253
X064514Y054465
X064514Y054859
X064908Y053284
X064908Y054071
X064908Y054465
X064908Y055253
X064908Y054859
X064908Y053678
X065302Y053284
X065302Y055253
X065302Y054859
X065302Y054071
X065302Y053678
X065302Y054465
X065695Y053284
X065695Y054465
X065695Y054859
X065695Y054071
X065695Y055253
X065695Y053678
X066089Y055253
X066483Y053284
X066483Y055253
X066483Y054071
X066483Y053678
X066483Y054859
X066483Y054465
X066877Y053284
X066877Y054071
X066877Y055253
X066877Y054465
X066877Y053678
X066877Y054859
X06727Y053284
X06727Y055253
X06727Y054859
X06727Y054465
X06727Y054071
X06727Y053678
X067664Y055253
X067664Y054859
X067664Y054071
X067664Y054465
X068058Y053284
X068058Y054465
X068058Y053678
X068058Y054859
X068058Y054071
X068058Y055253
X068451Y054465
X068451Y053678
X068451Y055253
X068451Y053284
X068451Y054071
X068845Y053284
X068845Y055253
X068845Y053678
X068845Y054465
X068845Y054071
X068845Y054859
X069239Y053284
X069239Y054465
X069239Y054859
X069239Y055253
X069239Y054071
X069239Y053678
X069632Y053284
X069632Y053678
X069632Y054071
X069632Y054859
X069632Y055253
X069632Y054465
X070026Y053284
X070026Y054071
X070026Y053678
X070026Y054859
X070026Y054465
X070026Y055253
X07042Y053284
X07042Y055253
X07042Y054859
X07042Y053678
X07042Y054465
X07042Y054071
X070814Y053284
X070814Y054859
X070814Y055253
X070814Y053678
X070814Y054465
X070814Y054071
X071207Y054859
X071207Y055253
X071207Y054465
X071207Y053284
X071207Y054071
X071207Y053678
X071601Y053284
X071601Y054465
X071601Y055253
X071601Y054859
X071601Y053678
X071601Y054071
X071995Y053284
X071995Y054071
X071995Y055253
X071995Y054859
X071995Y054465
X071995Y053678
X072345Y055253
X072388Y053284
X072388Y054465
X072388Y054859
X072388Y054071
X072388Y053678
X072782Y053284
X072782Y055253
X072782Y053678
X072782Y054071
X072856Y054391
X072979Y055056
X073176Y054662
X073726Y053678
X074342Y053284
X07752Y055253
X077881Y055253
X0797Y05385
X080246Y053515
X080287Y054628
X080853Y053678
X081247Y053284
X08164Y053284
X082034Y053284
X082034Y053678
X082428Y053284
X082428Y053678
X082821Y053284
X083425Y054331
X083609Y053284
X084003Y053284
X084396Y053284
X08479Y053284
X085571Y054628
X08656Y054628
X091325Y053875
X091444Y055056
X091444Y054268
X091444Y053481
X091444Y054662
X091444Y055449
X09235Y05415
X094632Y054662
X09542Y053875
X096207Y054662
X096207Y054268
X096601Y055449
X096995Y054662
X097782Y054662
X097883Y054958
X098176Y054662
X098176Y053087
X098237Y054958
X098569Y053481
X098569Y053875
X098569Y054662
X098569Y054268
X098963Y053875
X098963Y053481
X098963Y054662
X098963Y054268
X098963Y053087
X098983Y054958
X099337Y054958
X099357Y054268
X099357Y053875
X099357Y053481
X099357Y054662
X099751Y054662
X099751Y053087
X099751Y053875
X099983Y054958
X100144Y053875
X100144Y053481
X100144Y053087
X10015Y0543
X100176Y054694
X100337Y054958
X100538Y053087
X100538Y053481
X100538Y054662
X100538Y053875
X100932Y053087
X100932Y054662
X100932Y053481
X100983Y054958
X101325Y054662
X101325Y053481
X101325Y053875
X101337Y054958
X101719Y053087
X101719Y054662
X101719Y053481
X101719Y053875
X102113Y054662
X102113Y053087
X102113Y053875
X102379Y054957
X102506Y054662
X102506Y053087
X102506Y053481
X102506Y053875
X102732Y054957
X1029Y053087
X1029Y054662
X1029Y053875
X1029Y053481
X103183Y054958
X103294Y053875
X103294Y054662
X103294Y053087
X103294Y053481
X103537Y054958
X103688Y054662
X103688Y053087
X103688Y053481
X103688Y053875
X104081Y054662
X104081Y053087
X104081Y053481
X104081Y053875
X104103Y054977
X104475Y054662
X104475Y053087
X104475Y053875
X104475Y053481
X104869Y054662
X104869Y053481
X104869Y053875
X104869Y053087
X105083Y054958
X105262Y054662
X105262Y053481
X105262Y053875
X105262Y053087
X105437Y054958
X105656Y054662
X105656Y053875
X105656Y053481
X105656Y053087
X10605Y054662
X10605Y054268
X10605Y053481
X10605Y053875
X10605Y053087
X106183Y054958
X106443Y054268
X106443Y053481
X106443Y053875
X106443Y053087
X106537Y054958
X106837Y054268
X106837Y053875
X106837Y053481
X106837Y053087
X107231Y055056
X107231Y054662
X107231Y054268
X107231Y053875
X107231Y053481
X107231Y053087
X107231Y055449
X107625Y054662
X107625Y054268
X107625Y053875
X107625Y053481
X107625Y055056
X107625Y053087
X107625Y055449
X108018Y053087
X108018Y055056
X108018Y054662
X108018Y054268
X108018Y053481
X108018Y053875
X108018Y055449
X108412Y054662
X108412Y054268
X108412Y053481
X108412Y055449
X108412Y053875
X108412Y055056
X108412Y053087
X108806Y053087
X108806Y053481
X108806Y055056
X108806Y054268
X108806Y054662
X108806Y055449
X108924Y053756
X126365Y053264
X108806Y057024
X108806Y057418
X108806Y057812
X108412Y057024
X108412Y05663
X108412Y057418
X108412Y056237
X108412Y055843
X108412Y057812
X108018Y056237
X108018Y055843
X108018Y05663
X108018Y057418
X108018Y057024
X108018Y057812
X107625Y056237
X107625Y055843
X107625Y05663
X107625Y057418
X107625Y057024
X107625Y057812
X107231Y055843
X107231Y056237
X106837Y057418
X106837Y057024
X106837Y05663
X106837Y057812
X106541Y056863
X106541Y055863
X106541Y057217
X106541Y056217
X106541Y057863
X105754Y056863
X105754Y055863
X105754Y056217
X105754Y057217
X104574Y056847
X104574Y057201
X104421Y055745
X104357Y056434
X104128Y057122
X104081Y057812
X104067Y055745
X103773Y057122
X103688Y057418
X103421Y055745
X103294Y057812
X103067Y055745
X102923Y057104
X1029Y057812
X102573Y057122
X102506Y057812
X102321Y055745
X102113Y057812
X101967Y055745
X101828Y057122
X101719Y057812
X101473Y057122
X101325Y057812
X101221Y055745
X100932Y057812
X100867Y055745
X100833Y057124
X100538Y057812
X100473Y057122
X100321Y055745
X100262Y056434
X099967Y055745
X099928Y057122
X099651Y057634
X099573Y057122
X099062Y055863
X099062Y056217
X098491Y057753
X098472Y055859
X098472Y056859
X098472Y056213
X098472Y057213
X097684Y055843
X097684Y056843
X097684Y056197
X097684Y057197
X097684Y057743
X097388Y05663
X097388Y057024
X097388Y057418
X097388Y057812
X096601Y055843
X096601Y05663
X096601Y057418
X096601Y057024
X096601Y05776
X096207Y057024
X096207Y05663
X096207Y057418
X096207Y057812
X095846Y057793
X095814Y055843
X095814Y05663
X095814Y057418
X09542Y057024
X09542Y05663
X09542Y057377
X095409Y057771
X093058Y05663
X09231Y056276
X09231Y055843
X091601Y057654
X091444Y055843
X090577Y057812
X085558Y057221
X08538Y057615
X085203Y057221
X084935Y057615
X084593Y057615
X084525Y056282
X084199Y057503
X083806Y057615
X083412Y057615
X083142Y056282
X082999Y057221
X082644Y057221
X082322Y056295
X081155Y056002
X07975Y05605
X077881Y056237
X077881Y057221
X077532Y056238
X07753Y057221
X07532Y057221
X074711Y056827
X074711Y057615
X0747Y0563
X074239Y055646
X072979Y057024
X072926Y056735
X072782Y055646
X072782Y056434
X072782Y05764
X072756Y057247
X072388Y05604
X072388Y057221
X072388Y056827
X072388Y055646
X072388Y056434
X072388Y057615
X071995Y056827
X071995Y055646
X071995Y05604
X071995Y057221
X071995Y057615
X071601Y056827
X071601Y055646
X071601Y05604
X071601Y056434
X071601Y057615
X071207Y057221
X071207Y056827
X071207Y05604
X071207Y057615
X071207Y055646
X071207Y056434
X070814Y056827
X070814Y056434
X070814Y05604
X070814Y057615
X070814Y057221
X070814Y055646
X07042Y055646
X07042Y057615
X07042Y057221
X07042Y056434
X07042Y056827
X07042Y05604
X070026Y057615
X070026Y056434
X070026Y057221
X070026Y056827
X070026Y05604
X070026Y055646
X069632Y057615
X069632Y056434
X069632Y055646
X069632Y056827
X069632Y057221
X069632Y05604
X069239Y057221
X069239Y057615
X069239Y056434
X069239Y056827
X069239Y05604
X069239Y055646
X068845Y057615
X068845Y05604
X068845Y057221
X068845Y055646
X068451Y05604
X068451Y056434
X068451Y057615
X068451Y056827
X068451Y055646
X068451Y057221
X068058Y057221
X068058Y055646
X068058Y056827
X068058Y056434
X067664Y056434
X067664Y056827
X067664Y057221
X067664Y05604
X067664Y055646
X06727Y05604
X06727Y055646
X06727Y056434
X06727Y057221
X066877Y057221
X066877Y055646
X066877Y05604
X066877Y056434
X066483Y05604
X066483Y056434
X066483Y055646
X066483Y057221
X066089Y05604
X066089Y056434
X066089Y057221
X065695Y055646
X065695Y056434
X065695Y05604
X065695Y057221
X065302Y05604
X065302Y057221
X065302Y055646
X065302Y056434
X064908Y056434
X064908Y055646
X064908Y05604
X064908Y057221
X064514Y056434
X064514Y05604
X064514Y057221
X064514Y055646
X064121Y057221
X064121Y056434
X064121Y05604
X064121Y055646
X063727Y056434
X063727Y056827
X063727Y05604
X063727Y055646
X063333Y057615
X063333Y055646
X063333Y057221
X063333Y056827
X063333Y05604
X06294Y057615
X06294Y055646
X06294Y05604
X06294Y057221
X06294Y056434
X06294Y056827
X062546Y057615
X062546Y056434
X062546Y056827
X062546Y05604
X062546Y055646
X062546Y057221
X062152Y057615
X062152Y055646
X062152Y057221
X062152Y056434
X062152Y05604
X061758Y057615
X061758Y056434
X061758Y055646
X061758Y05604
X061758Y057221
X061365Y057615
X061365Y056434
X061365Y057221
X061365Y056827
X061365Y05604
X061365Y055646
X060971Y056827
X060971Y057221
X060971Y056434
X060971Y055646
X060971Y05604
X060971Y057615
X060577Y057615
X060577Y056434
X060577Y05604
X060577Y055646
X060577Y057221
X060577Y056827
X060184Y055646
X060184Y057615
X060184Y05604
X060184Y056434
X060184Y056827
X060184Y057221
X05979Y057615
X05979Y056434
X05979Y056827
X05979Y055646
X05979Y057221
X059396Y056827
X059396Y055646
X059396Y056434
X059396Y057615
X058217Y057132
X058017Y056732
X057703Y057497
X057317Y055932
X057034Y056827
X05664Y057615
X05615Y05675
X055656Y057615
X055262Y056827
X055262Y05604
X055262Y057615
X055017Y057332
X053217Y056582
X05265Y0566
X049908Y055725
X04619Y056094
X044829Y056237
X043254Y056237
X038333Y056434
X033412Y056434
X032664Y056965
X032447Y056768
X043254Y058599
X046325Y059819
X047782Y059386
X048176Y060174
X049533Y059066
X0497Y0593
X049711Y058875
X053766Y058796
X053766Y059583
X053917Y058132
X054632Y058796
X054632Y059583
X055262Y05919
X055262Y058402
X055262Y059977
X055656Y05919
X055656Y058402
X055656Y059977
X05664Y05919
X05664Y058402
X05664Y059977
X058215Y059583
X058609Y059977
X059317Y05919
X059396Y058402
X059396Y058008
X059396Y060371
X05979Y05919
X05979Y058402
X05979Y058796
X05979Y058008
X05979Y059583
X05979Y060371
X05979Y059977
X060184Y058402
X060184Y058008
X060184Y058796
X060184Y05919
X060184Y059977
X060184Y059583
X060577Y058402
X060577Y058796
X060577Y058008
X060577Y059977
X060577Y059583
X060577Y060371
X060617Y05919
X060971Y058796
X060971Y058402
X060971Y058008
X060971Y05919
X060971Y059583
X060971Y059977
X060971Y060371
X061365Y058796
X061365Y058402
X061365Y05919
X061365Y058008
X061365Y060371
X061365Y059583
X061365Y059977
X061758Y058402
X061758Y058008
X061758Y05919
X061758Y059977
X061758Y059583
X061758Y060371
X062101Y058008
X062152Y058796
X062152Y058402
X062152Y05919
X062152Y060371
X062152Y059583
X062152Y059977
X062546Y058796
X062546Y05919
X062546Y058008
X062546Y058402
X062546Y059583
X062546Y060371
X06294Y058402
X06294Y05919
X06294Y058796
X06294Y058008
X06294Y060371
X06294Y059583
X063333Y058402
X063333Y058796
X063333Y058008
X063333Y059977
X063333Y060371
X063333Y059583
X063727Y058008
X063727Y058796
X063727Y059977
X063727Y060371
X063727Y059583
X064121Y058796
X064121Y058008
X064121Y059977
X064121Y060371
X064514Y058796
X064514Y058008
X064514Y059583
X064514Y060371
X064908Y058796
X064908Y058008
X064908Y059583
X064908Y060371
X065302Y058008
X065302Y058796
X065302Y05919
X065302Y059583
X065302Y060371
X065695Y058008
X065695Y058796
X065695Y059583
X065695Y060371
X066089Y058008
X066089Y058796
X066089Y059583
X066089Y060371
X066483Y058008
X066483Y059583
X066483Y060371
X066877Y058008
X066877Y059583
X066877Y060371
X06727Y058796
X06727Y058008
X06727Y060371
X06727Y059583
X06765Y0596
X067664Y058796
X067664Y058008
X067664Y060371
X067664Y059977
X068058Y058008
X068058Y058796
X068058Y060371
X068058Y059583
X068058Y059977
X06845Y0596
X068451Y058008
X068451Y058796
X068451Y060371
X068451Y059977
X068845Y05919
X068845Y058796
X068845Y058008
X068845Y059977
X068845Y059583
X068845Y060371
X069239Y05919
X069239Y058008
X069239Y058402
X069239Y060371
X069239Y059583
X069239Y059977
X069632Y058402
X069632Y05919
X069632Y058008
X069632Y059583
X069632Y060371
X069632Y059977
X06965Y0588
X070026Y05919
X070026Y058008
X070026Y058796
X070026Y058402
X070026Y059977
X070026Y060371
X07038Y058402
X07042Y058796
X07042Y05919
X07042Y058008
X07042Y059977
X07042Y059583
X070814Y058008
X070814Y058402
X070814Y058796
X070814Y059977
X070814Y060371
X070814Y059583
X071207Y058847
X071207Y058375
X071207Y059241
X071207Y060371
X071207Y058008
X071207Y059583
X071566Y058796
X071601Y05919
X071601Y058402
X071601Y058008
X071601Y060371
X071601Y059583
X071601Y059977
X071995Y058796
X071995Y060371
X071995Y059938
X071995Y05919
X071995Y058008
X071995Y058402
X072388Y058402
X072388Y058008
X072388Y059977
X072388Y059583
X0724Y059189
X0724Y058796
X072428Y060371
X072782Y058034
X072782Y059977
X072794Y059253
X072979Y058993
X073136Y058442
X0743Y05865
X0743Y058178
X0747Y05895
X074968Y058796
X074968Y060371
X074987Y059583
X075318Y058008
X075324Y060371
X075324Y058796
X0756Y05875
X075877Y058087
X076105Y058305
X077722Y060174
X078097Y060233
X08035Y05995
X082625Y060371
X08265Y0584
X083018Y058008
X083018Y05886
X083038Y05958
X083058Y060371
X083058Y059977
X083412Y058796
X083412Y058008
X083412Y058402
X083412Y060371
X083412Y059583
X083412Y059977
X083806Y058402
X083806Y058008
X083806Y058796
X083806Y060371
X083806Y059977
X083806Y059583
X08425Y0588
X084593Y058796
X084593Y060371
X084593Y059583
X084593Y059977
X084593Y058404
X084987Y058796
X084987Y058402
X084987Y060371
X084987Y059583
X084987Y059977
X08537Y058785
X08538Y059583
X08538Y059977
X08538Y060371
X085421Y059179
X08576Y060384
X085774Y058796
X085774Y058402
X08615Y0582
X089436Y059229
X09038Y059229
X091365Y059229
X091365Y058284
X091365Y058756
X091365Y059701
X091365Y060371
X092349Y059741
X094239Y05978
X095262Y060331
X09542Y058599
X09542Y058205
X095814Y058271
X095814Y060174
X096207Y059386
X096207Y05978
X096601Y058993
X096601Y058205
X096601Y060174
X096601Y05978
X096995Y058993
X097388Y059386
X097388Y058599
X097388Y058993
X097388Y058205
X097388Y060174
X097388Y05978
X097684Y059898
X097684Y058643
X097684Y058997
X097684Y058097
X097684Y060443
X097684Y059543
X098491Y058971
X098491Y059486
X098491Y060392
X098491Y05984
X098491Y058107
X099651Y058534
X099651Y058889
X099651Y057989
X099651Y059434
X099651Y060334
X099651Y059789
X100538Y058205
X100538Y059386
X100538Y058599
X100538Y060174
X100538Y05978
X100538Y058993
X100932Y058599
X100932Y058205
X100932Y059386
X100932Y058993
X100932Y060174
X100932Y05978
X101325Y059386
X101325Y058993
X101325Y058599
X101325Y058205
X101325Y060174
X101325Y05978
X101719Y059386
X101719Y058993
X101719Y058599
X101719Y058205
X101719Y060174
X101719Y05978
X102113Y059386
X102113Y058993
X102113Y058599
X102113Y060174
X102113Y05978
X102113Y058205
X102506Y058993
X102506Y059386
X102506Y058599
X102506Y058205
X102506Y060174
X102506Y05978
X1029Y059386
X1029Y058205
X1029Y058993
X1029Y058599
X1029Y060174
X1029Y05978
X103294Y058993
X103294Y058599
X103294Y058205
X103294Y059386
X103294Y060174
X103294Y05978
X103688Y059386
X103688Y058993
X103688Y058205
X103688Y060174
X103688Y05978
X103688Y058599
X104081Y059386
X104081Y058205
X104081Y058993
X104081Y060174
X104081Y05978
X104081Y058599
X104574Y059947
X104574Y060301
X104593Y059011
X104593Y058027
X105735Y059011
X105735Y058027
X105754Y059863
X105754Y060217
X106541Y059317
X106541Y058963
X106541Y058217
X106541Y059963
X106541Y060317
X106837Y058205
X106837Y060174
X107231Y058599
X107231Y059386
X107231Y058993
X107231Y05978
X107625Y058599
X107625Y058205
X107625Y059386
X107625Y058993
X107625Y05978
X107625Y060174
X108018Y059386
X108018Y058205
X108018Y058599
X108018Y058993
X108018Y05978
X108018Y060174
X108412Y058599
X108412Y059386
X108412Y058205
X108412Y058993
X108412Y05978
X108412Y060174
X108806Y058993
X108806Y058599
X108806Y058205
X108806Y059386
X108806Y060174
X125099Y060174
X125298Y05978
X124751Y06293
X114003Y062339
X112349Y062339
X110302Y061945
X110302Y061552
X110302Y062339
X109632Y062851
X108924Y061552
X108806Y060567
X108806Y060961
X108412Y060567
X108412Y060961
X108018Y060567
X108018Y060961
X108018Y061749
X107625Y060961
X107625Y060567
X107231Y06293
X107231Y062536
X106837Y061355
X106837Y060961
X106837Y060567
X106837Y061749
X106541Y060863
X106541Y061217
X106541Y061863
X106541Y062217
X105754Y060863
X105754Y061217
X105754Y061863
X105754Y062217
X105163Y061847
X105163Y062201
X104574Y060847
X104574Y061201
X104081Y060961
X104081Y061355
X104081Y060567
X103993Y061861
X103688Y061355
X103688Y060961
X103688Y060567
X103639Y061861
X103294Y061355
X103294Y060961
X103294Y060567
X103097Y061867
X1029Y060961
X1029Y061355
X1029Y060567
X102739Y061861
X102506Y061355
X102506Y060961
X102506Y060567
X102113Y061355
X102113Y060961
X102113Y060567
X101993Y061861
X101719Y061355
X101719Y060961
X101719Y060567
X101639Y061861
X101325Y061355
X101325Y060961
X101325Y060567
X100932Y061355
X100932Y060961
X100932Y060567
X100912Y061848
X100558Y061848
X100538Y060567
X100538Y061355
X100538Y060961
X099794Y062377
X099651Y061234
X099651Y060689
X099651Y061589
X09944Y062377
X098491Y061373
X098491Y062358
X097684Y061343
X097684Y062343
X097684Y061697
X097684Y062697
X097684Y060797
X097388Y061355
X097388Y061749
X097388Y062536
X097388Y06293
X097388Y062142
X097388Y060567
X097388Y060961
X096601Y060961
X096601Y060567
X096601Y061749
X096601Y06293
X096601Y062142
X096601Y062536
X096601Y061355
X096207Y061355
X096207Y060567
X096207Y060961
X096207Y062142
X096207Y062536
X096207Y06293
X096168Y061749
X095814Y062142
X095814Y061749
X095814Y060567
X095446Y060593
X09542Y061749
X09542Y062142
X09542Y060961
X09542Y061355
X092585Y061945
X092585Y061079
X092506Y062339
X092506Y062812
X091877Y061985
X091877Y061119
X090499Y061985
X090499Y061119
X089317Y061985
X089317Y061119
X088727Y061985
X088727Y061119
X088136Y061119
X088136Y061985
X085558Y061158
X08538Y060764
X085223Y061197
X084987Y060764
X084593Y060843
X084171Y062806
X083806Y060764
X083412Y060764
X083195Y061158
X083018Y060764
X082932Y062806
X082842Y061158
X081716Y062806
X080646Y062767
X08015Y0609
X07885Y06145
X078078Y061749
X078078Y060961
X077467Y062142
X077467Y061355
X075774Y062812
X075499Y062182
X075316Y061158
X074965Y061158
X07465Y0605
X073963Y061749
X073963Y061355
X073845Y06293
X073845Y062536
X07305Y0607
X0729Y060961
X0729Y061355
X0724Y060764
X072388Y061552
X072388Y062733
X071995Y060764
X071995Y061945
X071995Y062339
X071995Y062733
X071995Y061552
X071995Y061158
X071601Y061945
X071601Y062733
X071601Y062339
X071601Y061552
X071601Y061158
X071601Y060764
X071207Y061945
X071207Y062733
X071207Y061552
X071207Y062339
X071207Y061158
X071207Y060764
X070814Y062733
X070814Y062339
X070814Y061945
X070814Y061552
X070814Y061158
X070814Y060764
X07042Y062339
X07042Y061945
X07042Y062733
X07042Y061552
X07042Y060764
X07042Y061158
X070026Y061552
X070026Y061945
X070026Y062733
X070026Y062339
X070026Y061158
X069632Y062733
X069632Y061552
X069632Y061158
X069632Y060764
X069239Y061945
X069239Y061552
X069239Y062733
X069239Y062339
X069239Y060764
X069239Y061158
X068845Y061552
X068845Y061945
X068845Y062733
X068845Y062339
X068845Y061158
X068451Y062339
X068451Y061552
X068451Y061945
X068451Y062733
X068451Y061158
X068058Y061552
X068058Y061945
X068058Y062339
X068058Y062733
X068058Y061158
X067664Y062339
X067664Y061945
X067664Y062733
X067664Y061552
X067664Y061158
X06727Y061945
X06727Y062339
X06727Y062733
X06727Y061552
X06727Y061158
X066877Y062733
X066877Y062339
X066877Y061945
X066877Y061552
X066877Y061158
X066483Y062733
X066483Y061945
X066483Y061158
X06645Y06155
X066089Y061945
X066089Y061552
X066089Y061158
X065695Y062339
X065695Y061945
X065695Y061158
X065695Y062733
X065302Y062733
X065302Y061158
X065302Y061945
X065302Y062339
X065302Y061552
X064908Y062339
X064908Y061945
X064908Y061158
X064908Y061552
X064908Y062733
X064514Y061945
X064514Y062339
X064514Y062693
X064514Y061158
X064121Y061158
X064121Y062339
X064121Y062733
X064121Y061945
X064121Y060764
X06375Y06155
X063727Y062339
X063727Y061945
X063727Y061158
X063727Y062733
X063333Y060764
X063333Y061158
X063333Y061945
X063333Y061552
X063333Y062733
X063333Y062339
X06294Y062339
X06294Y062733
X06294Y061158
X06294Y061552
X06294Y061945
X062546Y061552
X062546Y061158
X062546Y060764
X062546Y061945
X062546Y062733
X062546Y062339
X062152Y062339
X062152Y062733
X062152Y061945
X062152Y060764
X062152Y061158
X062152Y061552
X061758Y061158
X061758Y062733
X061758Y061945
X061758Y060764
X061758Y062339
X061365Y062733
X061365Y061552
X061365Y062339
X061365Y061945
X061365Y061158
X060971Y061945
X060971Y061158
X060971Y061552
X060971Y062339
X060971Y062733
X060971Y060764
X060577Y061945
X060577Y062733
X060577Y062339
X060577Y061552
X060577Y060764
X060184Y060725
X060184Y062339
X060184Y061552
X060184Y061945
X060144Y062733
X05979Y060764
X05979Y061552
X05979Y062339
X059396Y061552
X059121Y06104
X058767Y061032
X058569Y061197
X058294Y062339
X058294Y062733
X058017Y061182
X057821Y061827
X054711Y062733
X054711Y061945
X053688Y062733
X051017Y061082
X050967Y060832
X049967Y061032
X049417Y062714
X049417Y062951
X049317Y061082
X048467Y060882
X04405Y06105
X043254Y060961
X033254Y062575
X017782Y062733
X017428Y062418
X033254Y063481
X043254Y063323
X044829Y063323
X046286Y063914
X047782Y06352
X047979Y064308
X05135Y0636
X052467Y065082
X053688Y064308
X054711Y06352
X054711Y064308
X058294Y063127
X058294Y06352
X058963Y065371
X05979Y063127
X05979Y065095
X060184Y06352
X060184Y064308
X060184Y064701
X060184Y063914
X060184Y063127
X060184Y065095
X060577Y064701
X060577Y063127
X060577Y063914
X060577Y064308
X060577Y06352
X060971Y063127
X060971Y063914
X060971Y064701
X060971Y064308
X060971Y06352
X061365Y063127
X061365Y064701
X061365Y064308
X061365Y063914
X061365Y06352
X061758Y063127
X061758Y064701
X061758Y063914
X061758Y064308
X061758Y06352
X062152Y063127
X062152Y064308
X062152Y064701
X062152Y06352
X062152Y065095
X062152Y063914
X062546Y063127
X062546Y064308
X062546Y064701
X062546Y065095
X062546Y063914
X062546Y06352
X06294Y063127
X06294Y064701
X06294Y064308
X06294Y063914
X06294Y06352
X063333Y063127
X063333Y064701
X063333Y06352
X063333Y063914
X063333Y064308
X063727Y063127
X063727Y064701
X063727Y06352
X063727Y063914
X063727Y064308
X064121Y063127
X064121Y064701
X064121Y064308
X064121Y06352
X064121Y063914
X064514Y063127
X064514Y065095
X064514Y06352
X064514Y063914
X064517Y064332
X064908Y063127
X064908Y064308
X064908Y064701
X064908Y065095
X064908Y063914
X064908Y06352
X065302Y063127
X065302Y064701
X065302Y064308
X065302Y063914
X065302Y06352
X065695Y063127
X065695Y063914
X065695Y064701
X065695Y06352
X065695Y064308
X066089Y063127
X066089Y064701
X066089Y06352
X0661Y06505
X066483Y063127
X066483Y064701
X066877Y063127
X066877Y064701
X066877Y063914
X066877Y064308
X066877Y06352
X0669Y0651
X06727Y063127
X06727Y064308
X06727Y064701
X06727Y063914
X06727Y065095
X06727Y06352
X067664Y063127
X067664Y064308
X067664Y064701
X067664Y065095
X067664Y063914
X067664Y06352
X068058Y064701
X068058Y063127
X068058Y06352
X068058Y064308
X068058Y063914
X068451Y063127
X068451Y064701
X068451Y064308
X068451Y063914
X068451Y06352
X068845Y063127
X068845Y064701
X068845Y063914
X068845Y06352
X068845Y064308
X069239Y064701
X069239Y063127
X069239Y063914
X069239Y064308
X069239Y06352
X069632Y064308
X069632Y064701
X069632Y065095
X069632Y063914
X069632Y06352
X070026Y064308
X070026Y06352
X070026Y065095
X070026Y064701
X070026Y063914
X07042Y064701
X07042Y063127
X07042Y064308
X07042Y063914
X07042Y06352
X070814Y063481
X070814Y063127
X070814Y064308
X070814Y064701
X070814Y063914
X071207Y063127
X071207Y064701
X071207Y064308
X071207Y063914
X071207Y06352
X071601Y063127
X071601Y063914
X071601Y064701
X071601Y064308
X071601Y06352
X071995Y063127
X071995Y063914
X071995Y064308
X071995Y064701
X071995Y06352
X071995Y065095
X072388Y063127
X072388Y065095
X0728Y06535
X073845Y063323
X073845Y063717
X07411Y06356
X075499Y064071
X07605Y063441
X0803Y0648
X080684Y064803
X08088Y065
X08557Y064735
X086551Y064735
X090971Y064741
X092506Y063323
X09542Y063323
X09542Y064111
X09542Y064504
X09542Y064898
X09542Y065292
X09542Y063717
X095814Y063323
X095814Y063717
X095814Y064111
X095814Y064504
X095814Y065292
X095814Y064898
X096207Y063323
X096207Y064111
X096207Y063717
X096207Y065292
X096207Y064898
X096601Y063717
X096601Y063323
X096601Y065292
X096601Y064898
X096601Y064504
X096995Y065292
X096995Y064898
X096995Y064504
X097388Y063323
X097388Y063717
X097388Y064504
X097684Y063343
X097684Y063697
X097782Y064504
X098176Y065292
X098176Y064504
X098569Y064504
X098589Y063815
X098943Y063815
X098963Y064504
X099357Y064111
X099377Y063027
X099489Y063815
X099731Y063027
X099751Y064111
X099843Y063815
X100144Y064111
X100277Y063027
X100389Y063815
X100538Y064111
X100631Y063027
X100743Y063815
X100932Y064111
X101277Y063027
X101325Y065292
X101325Y064504
X101389Y063815
X101631Y063027
X101719Y065292
X101719Y064504
X101743Y063815
X102113Y065292
X102113Y064504
X102177Y063027
X102289Y063815
X102506Y065292
X102506Y064504
X102531Y063027
X102643Y063815
X1029Y064111
X103277Y063027
X103294Y064111
X103389Y063815
X103631Y063027
X103688Y065292
X103688Y064111
X103743Y063815
X104081Y064504
X104081Y064898
X104081Y064111
X104081Y065292
X104377Y063027
X104475Y064898
X104475Y064111
X104475Y064504
X104475Y065292
X104489Y063815
X104731Y063027
X104843Y063815
X104869Y064898
X104869Y065292
X104869Y064111
X105262Y064898
X105262Y065292
X105262Y064111
X105477Y063027
X105589Y063815
X105656Y064898
X105656Y064111
X105656Y065292
X105831Y063027
X105943Y063815
X10605Y064111
X10605Y065292
X10605Y064898
X106346Y06313
X106346Y063485
X106443Y064111
X106443Y065292
X106443Y064898
X107231Y063323
X107231Y063717
X107231Y064111
X107231Y064898
X107231Y064504
X107625Y063717
X107625Y065292
X107625Y064898
X107625Y064504
X107625Y064111
X107625Y063323
X108018Y065292
X108018Y064898
X108018Y063717
X108412Y065292
X108412Y064898
X108412Y064111
X108412Y063717
X108412Y064504
X108806Y064111
X108806Y065292
X110262Y06352
X112388Y063914
X112428Y063127
X113451Y063127
X114003Y063914
X126247Y063245
X108806Y066079
X108806Y065686
X108412Y066079
X108412Y065686
X108018Y066079
X108018Y065686
X107625Y066079
X107231Y066079
X107231Y065686
X106837Y065686
X104869Y066079
X104869Y065686
X104475Y066079
X104081Y065686
X103688Y065686
X101719Y065686
X101325Y066079
X099751Y065686
X0972Y06615
X096995Y065686
X096601Y065686
X096207Y066079
X096207Y065686
X095814Y066079
X095814Y065686
X09542Y065686
X09542Y066079
X090971Y065607
X088417Y066443
X088417Y067405
X087761Y065567
X086566Y065849
X086339Y066575
X085562Y065849
X085184Y06726
X085184Y066079
X08479Y066473
X08479Y066079
X08479Y066867
X08479Y067654
X084396Y065686
X084396Y066867
X084396Y067654
X084003Y065641
X083609Y06726
X083609Y066473
X083609Y066867
X083609Y066079
X083609Y067654
X083609Y065641
X083215Y06726
X083215Y066867
X083215Y066079
X083215Y066473
X083215Y067654
X083215Y065641
X082821Y06726
X082821Y066867
X082821Y066473
X082821Y066079
X082821Y067654
X082428Y066867
X082428Y06726
X082428Y065686
X082428Y066473
X082428Y066079
X082428Y067654
X082034Y06726
X082034Y066867
X082034Y067654
X082034Y066079
X082034Y065686
X082034Y066473
X08164Y065686
X08164Y067654
X08164Y06726
X08164Y066079
X08164Y066473
X08164Y066867
X081247Y065686
X081247Y06726
X080853Y065686
X07845Y0663
X07485Y0669
X07365Y0658
X072388Y065489
X071798Y066552
X071404Y066552
X07101Y066552
X070223Y066552
X069829Y066552
X069436Y066552
X069042Y066552
X068254Y066552
X067861Y066552
X067467Y065567
X067467Y066552
X067073Y065567
X067073Y066552
X06668Y066552
X066286Y066552
X065499Y066552
X065105Y066552
X064711Y066552
X064317Y066552
X063924Y066552
X063136Y066552
X062743Y066552
X062349Y066552
X061955Y066552
X061168Y066591
X060774Y066552
X06038Y066552
X05979Y065489
X057743Y066119
X054357Y066276
X054357Y067457
X054357Y06667
X054357Y065489
X054357Y067064
X054357Y065882
X054357Y067851
X0385Y06775
X047782Y069426
X054357Y068245
X058924Y068008
X05916Y06856
X059829Y068363
X061286Y070213
X062349Y069662
X063688Y070213
X064908Y070016
X067191Y070213
X068373Y070016
X06979Y070213
X070695Y070016
X071247Y069544
X072428Y068323
X072782Y070213
X073924Y068323
X079554Y068205
X079554Y068638
X080568Y068529
X081247Y069253
X081247Y068835
X081247Y069623
X081247Y070016
X08164Y068048
X08164Y068441
X08164Y069229
X08164Y068835
X08164Y069623
X08164Y070016
X08164Y07041
X082034Y068835
X082034Y068048
X082034Y069229
X082034Y068441
X082034Y069623
X082034Y070016
X082034Y07041
X082428Y069229
X082428Y068048
X082428Y068835
X082428Y068441
X082428Y069623
X082428Y070016
X082428Y07041
X082821Y069229
X082821Y068048
X082821Y068835
X082821Y068441
X082821Y070016
X082821Y069623
X083215Y068048
X083215Y069229
X083215Y068835
X083215Y068441
X083215Y069623
X083215Y070016
X083215Y07041
X083609Y068048
X083609Y068441
X083609Y068835
X083609Y069229
X083609Y069623
X083609Y070016
X083609Y07041
X084003Y068441
X084396Y068048
X084396Y068441
X084396Y069623
X08479Y068835
X08479Y068048
X08479Y068441
X08479Y07041
X08479Y070016
X085184Y069229
X085184Y069623
X0854Y067989
X086129Y068441
X088417Y06932
X088417Y06837
X088417Y070439
X091325Y068757
X091325Y069623
X091916Y068757
X091916Y069623
X092506Y068757
X092506Y069623
X093097Y068757
X093097Y069623
X093688Y068757
X093688Y069623
X094278Y068756
X094278Y069623
X094869Y068757
X094869Y069623
X095459Y068757
X095459Y069623
X0962Y0704
X100144Y068481
X101207Y068441
X102034Y068481
X103058Y068481
X10042Y073441
X100341Y07419
X099317Y075015
X094278Y071394
X090184Y075174
X086565Y071428
X086553Y072542
X085695Y073776
X085587Y071428
X085584Y072542
X085184Y070804
X08479Y071197
X08479Y070804
X084718Y074313
X084396Y071197
X084003Y071197
X083609Y071197
X083609Y070804
X083215Y070804
X083208Y074313
X082821Y070804
X082821Y071197
X082428Y071197
X082034Y071591
X082034Y070804
X081844Y074313
X08164Y071197
X08164Y070804
X08128Y071164
X081247Y071591
X080853Y071591
X080657Y072412
X080652Y073526
X080032Y071938
X080031Y070805
X079554Y073384
X078919Y070793
X078919Y071956
X078491Y073756
X078491Y075331
X075932Y073756
X075932Y075331
X072782Y075331
X072782Y073756
X069829Y073756
X069829Y075331
X067467Y073756
X067467Y075331
X059003Y075331
X059003Y073756
X057428Y073756
X057428Y075331
X055262Y073756
X055262Y075331
X054357Y073363
X054357Y072575
X054357Y072969
X054357Y072182
X054357Y070607
X054357Y071001
X054357Y071788
X054357Y071394
X047782Y07478
X045066Y075331
X044869Y074859
X041089Y07478
X036404Y072142
X036404Y071276
X035656Y070883
X035656Y071749
X034642Y075331
X033757Y075331
X015302Y079465
X015499Y078875
X021207Y080253
X022191Y077615
X022191Y080449
X022979Y0773
X022979Y078875
X022979Y079662
X023373Y076906
X023373Y079662
X023373Y080056
X023766Y0773
X023766Y079662
X023766Y080056
X02416Y076906
X024554Y076512
X024947Y080056
X025341Y079268
X025341Y080056
X025735Y079268
X026522Y079268
X027703Y080449
X027703Y079662
X027703Y080056
X03164Y077359
X033806Y079268
X034593Y080449
X035184Y080253
X03605Y07852
X036562Y078678
X044672Y075607
X045262Y075804
X090026Y075489
X090262Y078312
X090695Y079662
X09105Y078107
X092073Y079465
X050262Y081512
X050105Y082536
X049908Y08289
X049751Y082457
X049593Y082772
X034199Y080646
X034003Y081434
X034003Y082024
X033806Y081827
X033609Y082418
X028097Y082812
X028097Y082418
X028097Y082024
X027703Y082418
X027703Y082024
X027703Y082812
X027703Y081237
X027703Y080843
X02731Y082418
X026916Y081237
X026916Y080843
X026522Y082812
X026522Y082418
X026129Y082418
X025735Y082418
X02416Y082024
X023766Y082024
X023766Y08163
X023766Y082812
X023766Y081237
X023373Y082024
X023373Y082418
X023373Y081237
X023373Y08163
X022979Y08163
X022979Y082812
X022979Y082024
X022585Y08163
X022585Y082812
X022585Y082418
X022585Y080843
X022585Y081237
X017664Y08163
X017388Y081906
X017073Y08163
X01668Y08163
X016483Y082221
X016168Y080646
X015617Y081237
X012743Y081434
X012073Y080646
X011522Y080843
X011247Y08104
X01038Y081591
X010538Y085371
X010577Y08419
X017664Y083993
X020223Y083993
X021798Y083225
X022191Y083205
X022191Y084386
X022585Y083205
X022585Y083599
X022979Y083205
X023373Y083599
X023373Y083993
X024554Y083993
X024947Y085174
X024947Y08478
X024947Y084386
X024947Y085567
X025341Y083599
X025735Y085567
X026129Y085567
X026129Y085174
X026916Y083599
X026916Y085567
X02731Y083205
X027703Y083993
X027703Y084386
X027703Y083599
X027703Y08478
X028097Y08478
X028097Y084386
X028097Y083599
X03318Y087617
X033412Y085371
X033888Y087243
X037352Y087367
X037758Y086433
X039121Y086237
X040118Y087107
X043008Y08738
X047621Y08604
X048423Y087377
X088963Y086985
X09105Y087418
X09105Y086898
X091916Y086898
X099121Y087615
X109554Y088638
X105895Y090745
X090321Y089347
X088963Y08856
X065243Y088127
X064987Y090882
X064443Y091652
X064219Y090016
X0641Y091
X060125Y088127
X059869Y090882
X05957Y09167
X0592Y091
X059101Y090016
X055006Y088127
X054751Y090882
X054432Y091649
X0541Y091
X053983Y090016
X052167Y092499
X051281Y092499
X049853Y090974
X046961Y092918
X04664Y09289
X045128Y092406
X044498Y092662
X043136Y092142
X043136Y091788
X042761Y092918
X0414Y091629
X034786Y091281
X034209Y090661
X033645Y091597
X028825Y088756
X028825Y089465
X027703Y088914
X027703Y089268
X026916Y088933
X026916Y089287
X025735Y088933
X025735Y090056
X025735Y089287
X024751Y090016
X024554Y089287
X024554Y088933
X023373Y088933
X023373Y089287
X022191Y088933
X022191Y089287
X021207Y089287
X021207Y088933
X014672Y093396
X014672Y095398
X014672Y094396
X014672Y096394
X028247Y094001
X028404Y093154
X028561Y094001
X028719Y093154
X029191Y093131
X02961Y093256
X032247Y094001
X032404Y093154
X032561Y094001
X032719Y093154
X03319Y093087
X03377Y094231
X042919Y093154
X046804Y093154
X047119Y093154
X048367Y094482
X098018Y09352
X111802Y09351
X126995Y095234
X127912Y09797
X129514Y09726
X025105Y104583
X024908Y105134
X024672Y104111
X024436Y104819
X024199Y104583
X023963Y104347
X020735Y098678
X020538Y098914
X014987Y099662
X01227Y098087
T2C.00984F0S0
X055117Y068441
X055499Y068441
X055892Y068441
X056101Y06915
X056274Y068441
X056483Y06915
X056877Y06915
X057258Y06915
X057479Y068441
X057861Y068441
X058254Y068441
X058636Y068441
X060195Y06915
X060577Y06915
X060971Y06915
X061353Y06915
X061573Y068441
X061955Y068441
X062349Y068441
X062558Y06915
X062731Y068441
X06294Y06915
X063333Y06915
X063715Y06915
X063936Y068441
X064317Y068441
X064711Y068441
X06492Y06915
X065093Y068441
X065302Y06915
X065695Y06915
X066077Y06915
X066298Y068441
X06668Y068441
X067073Y068441
X067282Y06915
X067455Y068441
X067664Y06915
X068058Y06915
X06844Y06915
X06866Y068441
X069042Y068441
X069436Y068441
X069644Y06915
X069817Y068441
X070026Y06915
X07042Y06915
X070802Y06915
X071022Y068441
X071404Y068441
X071798Y068441
X07218Y068441
X07303Y06919
X073412Y06919
X073806Y06919
X074188Y06919
X074762Y068481
X075144Y068481
X075538Y068481
X075904Y069229
X07592Y068481
X076286Y069229
X07668Y069229
X077062Y069229
X091642Y098307
X09126Y098307
X091117Y099268
X090866Y098307
X090735Y099268
X090484Y098307
X090341Y099268
X089975Y098323
X089959Y099268
X089593Y098323
X089476Y099291
X089199Y098323
X089094Y099291
X088817Y098323
X088701Y099291
X088319Y099291
X086327Y098307
X085945Y098307
X085802Y099268
X085551Y098307
X08542Y099268
X085169Y098307
X085026Y099268
X08466Y098323
X084644Y099268
X084278Y098323
X084122Y099291
X083884Y098323
X08374Y099291
X083503Y098323
X083346Y099291
X082965Y099291
X080421Y098307
X080039Y098307
X079896Y099268
X079646Y098307
X079514Y099268
X079264Y098307
X079121Y099268
X078754Y098323
X078739Y099268
X078373Y098323
X078217Y099291
X077979Y098323
X077835Y099291
X077597Y098323
X077441Y099291
X077059Y099291
X075146Y098346
X074764Y098346
X074581Y099308
X07437Y098346
X074199Y099308
X073988Y098346
X073806Y099308
X07344Y098323
X073424Y099308
X073058Y098323
X072928Y099308
X072664Y098323
X072546Y099308
X072282Y098323
X072152Y099308
X07177Y099308
T3C.01F095S3
X03538Y016867
X035477Y015666
X035969Y015666
X037546Y016867
X060246Y015662
X060774Y01667
X060814Y015662
X065892Y015292
X069829Y017064
X070655Y015688
X071243Y015684
X071995Y017064
X095433Y015648
X09601Y016867
X096082Y015648
X099751Y015292
X102317Y016882
X102817Y016882
X104317Y016882
X104817Y016882
X104817Y017882
X105317Y016882
X105317Y017872
X107017Y016882
X107517Y016882
X109017Y016882
X109517Y016793
X109517Y017932
X110017Y017952
X110017Y016793
X117784Y017117
X120761Y017117
X125501Y017488
X125531Y014978
X125871Y017498
X125871Y014977
X126221Y017498
X126241Y014987
X118761Y018889
X109694Y019865
X109694Y02022
X10918Y019279
X108333Y019229
X108333Y018953
X108217Y018119
X108217Y020046
X108058Y019229
X108058Y018953
X107254Y018886
X107254Y019279
X10688Y01908
X10688Y018725
X10688Y019835
X10688Y02019
X105807Y018062
X104974Y019835
X104974Y02019
X10448Y019279
X103943Y021185
X103672Y022772
X103648Y018953
X103648Y019229
X103517Y020046
X103517Y018162
X103373Y019229
X103373Y018953
X102554Y018886
X102547Y019272
X10232Y019995
X10232Y02035
X10229Y01909
X10229Y018745
X098648Y022772
X022215Y026068
X023002Y02469
X023002Y023115
X025955Y025477
X086024Y027339
X086812Y027339
X087599Y027339
X088386Y027339
X089174Y027339
X089961Y027339
X090749Y027339
X102349Y029111
X102802Y02441
X1029Y026867
X1029Y026434
X103333Y029111
X104042Y026001
X104042Y026434
X104317Y029111
X105342Y029129
X105533Y024985
X105633Y025585
X106733Y024585
X107333Y025085
X107333Y024185
X119866Y026137
X128097Y029859
X13105Y028678
X10398Y032128
X103004Y032128
X101998Y032128
X100428Y03672
X100131Y036643
X099672Y032182
X099195Y037023
X098841Y037023
X098688Y032182
X098591Y036643
X097703Y032182
X097695Y037023
X097411Y036643
X097341Y037023
X096821Y036943
X09664Y032182
X096621Y036643
X096195Y037023
X095841Y037023
X095636Y036643
X095105Y032182
X094695Y037023
X094341Y037023
X094081Y032182
X093661Y036543
X093403Y03683
X093097Y032182
X025538Y032024
X01145Y037099
X032428Y041276
X033412Y040882
X038333Y041512
X044869Y041079
X092021Y038488
X093403Y04005
X093403Y03869
X093403Y04163
X093722Y040143
X093722Y038997
X093722Y038643
X093722Y040497
X093722Y041643
X093722Y041997
X094241Y042873
X094601Y042868
X099041Y042873
X099395Y042873
X099814Y038997
X099814Y038643
X099814Y040497
X099814Y040143
X099814Y041643
X099814Y041997
X100428Y04025
X100428Y03946
X103868Y04032
X103868Y03962
X103868Y04092
X104618Y041282
X104619Y040591
X10462Y039978
X104968Y04062
X104968Y04127
X104968Y03997
X119218Y04007
X119218Y04107
X119218Y03907
X119218Y04207
X119618Y03907
X119618Y04107
X119618Y04207
X119618Y04007
X124574Y042515
X129289Y045355
X12852Y045509
X119618Y04307
X119618Y04407
X119618Y04507
X119618Y04607
X119618Y04687
X119618Y04767
X119218Y04407
X119218Y04507
X119218Y04307
X119218Y04607
X119218Y04687
X119218Y04767
X108294Y04352
X100428Y0436
X100428Y04301
X100101Y043668
X098986Y043745
X0978Y045095
X09721Y044933
X096029Y044938
X095241Y043668
X094851Y043668
X093471Y044955
X093403Y04359
X089317Y046591
X086857Y046822
X086857Y047935
X086266Y046822
X086266Y047935
X085873Y046822
X085873Y047935
X085282Y046822
X085282Y047935
X08481Y045129
X084219Y045129
X083707Y045129
X083117Y045129
X082644Y045129
X082054Y045129
X081581Y045129
X080991Y045129
X080558Y046822
X080558Y047935
X079967Y046822
X079967Y047935
X078294Y044623
X078294Y046985
X075144Y044623
X071995Y044623
X068845Y044623
X065695Y043048
X063333Y043048
X060971Y044623
X058609Y043048
X056247Y044623
X053884Y043048
X038373Y044701
X038333Y047182
X038333Y046001
X038333Y043048
X033018Y047182
X027506Y047182
X027113Y047969
X025144Y049741
X026443Y049268
X026443Y049701
X026443Y050174
X026719Y049938
X026719Y049504
X026955Y049268
X026995Y049701
X026995Y050174
X028294Y049938
X029554Y050567
X033018Y048166
X038333Y04856
X038333Y050961
X038333Y052142
X038373Y04978
X05664Y051316
X05664Y05289
X057034Y050528
X057034Y052103
X057034Y05289
X078721Y048264
X078721Y048855
X079593Y050331
X079593Y050725
X079835Y048264
X079835Y048855
X086087Y050725
X086089Y050339
X088299Y049249
X088299Y050233
X088299Y051217
X088299Y048264
X088299Y052201
X088299Y048855
X088299Y050824
X088299Y051808
X088299Y052792
X088299Y049839
X089317Y049268
X089317Y04978
X089475Y049504
X089514Y051001
X089672Y04978
X089672Y049268
X089711Y048127
X089869Y049544
X090066Y049268
X090066Y049819
X091286Y048363
X09542Y052693
X095814Y052693
X097585Y051237
X098176Y051237
X098483Y051887
X098766Y051237
X099357Y051237
X099947Y051237
X100251Y051886
X100538Y051237
X101129Y051237
X101719Y051237
X10664Y048048
X119218Y04847
X119218Y04927
X119218Y05007
X119218Y05087
X119218Y05247
X119218Y05167
X119618Y04927
X119618Y05007
X119618Y05087
X119618Y05247
X119618Y05167
X119618Y04847
X12766Y048789
X119618Y05327
X119618Y05487
X119618Y05407
X119618Y05567
X119218Y05327
X119218Y05487
X119218Y05407
X119218Y05567
X104454Y054977
X097388Y054662
X097388Y055056
X097388Y055449
X097388Y055843
X097388Y056237
X096995Y054268
X096995Y053087
X096601Y053875
X096601Y053481
X096601Y054268
X096207Y053875
X096207Y053481
X096207Y053087
X096207Y055449
X095814Y054268
X095814Y053875
X095814Y053481
X095814Y053087
X095814Y057024
X09542Y053481
X09542Y053087
X093097Y053481
X086857Y053515
X086857Y054628
X086266Y053515
X086266Y054628
X085873Y053515
X085873Y054628
X085282Y053515
X085282Y054628
X084849Y056282
X084258Y056282
X083432Y056282
X082841Y056282
X080558Y053515
X080558Y054628
X079967Y053515
X079967Y054628
X075319Y056434
X074535Y055646
X074357Y054662
X058609Y056827
X058609Y054465
X058333Y055646
X058215Y056434
X057034Y054465
X057034Y05604
X057034Y057615
X05664Y056827
X05664Y055253
X05664Y05604
X05664Y053678
X046522Y054465
X045538Y055646
X038727Y056434
X038333Y055449
X038333Y054426
X038333Y053284
X033412Y055646
X033412Y056827
X01064Y059329
X010896Y061469
X010903Y060653
X01128Y062289
X01146Y062682
X012Y059709
X01203Y058999
X01203Y059349
X012299Y062677
X01231Y061829
X01256Y061829
X0128Y061819
X012841Y062677
X01306Y061819
X013228Y061035
X013238Y061445
X013244Y060629
X013316Y062677
X01363Y060789
X01419Y062929
X01513Y062319
X044829Y060961
X044829Y058599
X047782Y058205
X047782Y058993
X047782Y062339
X053688Y061945
X057034Y05919
X057034Y058402
X057034Y059977
X058215Y060371
X058294Y058008
X058609Y058402
X059003Y059977
X075322Y059583
X080361Y062767
X080951Y062767
X081424Y062806
X082014Y062806
X082644Y062806
X083235Y062806
X083865Y062806
X084455Y062806
X084593Y058008
X085381Y058438
X085853Y059308
X092585Y058756
X092821Y058284
X094829Y062693
X095814Y058599
X095814Y061355
X095814Y060961
X095814Y06293
X096207Y060174
X096207Y058599
X096601Y058599
X098491Y06074
X098491Y058618
X098491Y061725
X098491Y062703
X104593Y05937
X104593Y058379
X105735Y058382
X105735Y059366
X109199Y061945
X109199Y062339
X125144Y061237
X125144Y061749
X125302Y061473
X125498Y06289
X125499Y061749
X125499Y061237
X125692Y060176
X125695Y061512
X125892Y061788
X125892Y061237
X12731Y060764
X126522Y064701
X124758Y06494
X109199Y063127
X109199Y06352
X097585Y067164
X097192Y066487
X096798Y066867
X096404Y06667
X09601Y067064
X095617Y067082
X095223Y067064
X094829Y063008
X094121Y064859
X094121Y064071
X094121Y064504
X088418Y066729
X088418Y067713
X088417Y066138
X088417Y067123
X088115Y065567
X086857Y064735
X086857Y065849
X086266Y064735
X086266Y065849
X085873Y064735
X085873Y065849
X085282Y064735
X085282Y065849
X072585Y066552
X059593Y066552
X053688Y06352
X051601Y064662
X051601Y065095
X051325Y066473
X051325Y066867
X050932Y066473
X050932Y066867
X050538Y065095
X04787Y066068
X047782Y063127
X045223Y067182
X01906Y065959
X01513Y063459
X0151Y066309
X01509Y065949
X01509Y065609
X01505Y067869
X015044Y067503
X01453Y066649
X01421Y063699
X0142Y063439
X01419Y063189
X013323Y063705
X01332Y064539
X013316Y063194
X01324Y064849
X01306Y064539
X012802Y063701
X0128Y064539
X012795Y063205
X01262Y064879
X01254Y064539
X012302Y063694
X012299Y063194
X01229Y064549
X01146Y063443
X011458Y063701
X011458Y06319
X01051Y066649
X010501Y066289
X010501Y066989
X010474Y070943
X010474Y072383
X010515Y068177
X010515Y068969
X010515Y069577
X010515Y070369
X010515Y071759
X01052Y069959
X01052Y071359
X01052Y072779
X01053Y068559
X01284Y069969
X01284Y068559
X01284Y072419
X01285Y070967
X01285Y071369
X01285Y071759
X01285Y072779
X01345Y072279
X01418Y072749
X01418Y071779
X015024Y068923
X015054Y070283
X01506Y069309
X015069Y069663
X015069Y071063
X015069Y068263
X01508Y070669
X01601Y072418
X016995Y07293
X016995Y072418
X01738Y069259
X017405Y071063
X017405Y068263
X017405Y068872
X017405Y070272
X01741Y070679
X017417Y069635
X045223Y072654
X04794Y071591
X050459Y068048
X050499Y069032
X050577Y070607
X050932Y071985
X050932Y072379
X051325Y072379
X051325Y071985
X051601Y069032
X051601Y068638
X051601Y070213
X06601Y069662
X068689Y069657
X078918Y070508
X078918Y07165
X078918Y071099
X078918Y072241
X080032Y070508
X080032Y07165
X080032Y071099
X080032Y072241
X080361Y072412
X080951Y072412
X085282Y072542
X085282Y071428
X085873Y072541
X085873Y071428
X086266Y072542
X086266Y071428
X086857Y072541
X086857Y071428
X088417Y069012
X088417Y068067
X088417Y070154
X088418Y070745
X088418Y068658
X088418Y069603
X094077Y072382
X095087Y072882
X095097Y071882
X097107Y071882
X098177Y071382
X098697Y072562
X099417Y072422
X100435Y071676
X100435Y072676
X100435Y072176
X100435Y071926
X103215Y072176
X103215Y072926
X103215Y072676
X103215Y072426
X103215Y071926
X103215Y071676
X109751Y068402
X110262Y068402
X110695Y068402
X111129Y068402
X111562Y068402
X111995Y068402
X122605Y074268
X103215Y073426
X103215Y073176
X103215Y074926
X103215Y074426
X103215Y074176
X103215Y073926
X103215Y073676
X103215Y076176
X103215Y075676
X100435Y075426
X100435Y074926
X100435Y074426
X100435Y073176
X100435Y076176
X099417Y073922
X098963Y073953
X098837Y074762
X098837Y073032
X098207Y075472
X097027Y075882
X094037Y077382
X092073Y077693
X09101Y076552
X09101Y077103
X090853Y07541
X090814Y076827
X090617Y076552
X090617Y077064
X09042Y076788
X090262Y076552
X090262Y077064
X085695Y074127
X085006Y074313
X084416Y074313
X08351Y074313
X08292Y074313
X082132Y074313
X081542Y074313
X080951Y073526
X080361Y073526
X079554Y073737
X051601Y074544
X051601Y07415
X050538Y074544
X05038Y073599
X032341Y077103
X031427Y07672
X029278Y07791
X02731Y07791
X026129Y077909
X024947Y077909
X023766Y077909
X022585Y07791
X021404Y07791
X017034Y07356
X016995Y074111
X01601Y074071
X015971Y073599
X015971Y073008
X014754Y076053
X01285Y073169
X011349Y074847
X011309Y074178
X010515Y073169
X014711Y078056
X014711Y080056
X017467Y078127
X018224Y079662
X018272Y082024
X018276Y080843
X018583Y079662
X018627Y080843
X018631Y082024
X020026Y080253
X021404Y078266
X021798Y079268
X021798Y080449
X022191Y079268
X022585Y080056
X022585Y078264
X022585Y082024
X022979Y079268
X022979Y080056
X022979Y080449
X022979Y080843
X023373Y079268
X023373Y080449
X023766Y080449
X023766Y078261
X02416Y079662
X02416Y081237
X02416Y082418
X02416Y082812
X024554Y081237
X024554Y082024
X024554Y082812
X024554Y08163
X024554Y082418
X024947Y078264
X024947Y082418
X024947Y082024
X024947Y082812
X025341Y081237
X025341Y082024
X025341Y082812
X025341Y082418
X025735Y080056
X026129Y079268
X026129Y078262
X026129Y08163
X026522Y081237
X026522Y080449
X02731Y080056
X02731Y078264
X02731Y079268
X02731Y079662
X02731Y080843
X027703Y079268
X027703Y08163
X028097Y079662
X028097Y080843
X028097Y079268
X029278Y078266
X031459Y082221
X031462Y078875
X031462Y081237
X031462Y080056
X031815Y078875
X031818Y080056
X031818Y082221
X03182Y081237
X090651Y078205
X091288Y079604
X103097Y082969
X122388Y086591
X120995Y087612
X107782Y084701
X107231Y08793
X107034Y087693
X104773Y087005
X104773Y086612
X104773Y087399
X104576Y087202
X104576Y086808
X104576Y087596
X104446Y086269
X104261Y087222
X104261Y087576
X104249Y086466
X103924Y084071
X103856Y086269
X103462Y086466
X103375Y08673
X103265Y086269
X103021Y08673
X102664Y083678
X102478Y086466
X102281Y086269
X102194Y08673
X102194Y087518
X102152Y083166
X10184Y08673
X10184Y087518
X101719Y083481
X101493Y086466
X101297Y086269
X101013Y08673
X100659Y08673
X100499Y083678
X100312Y086466
X100115Y086269
X099774Y087222
X099774Y087576
X099367Y086612
X099367Y087005
X099367Y087399
X099171Y087202
X099171Y086808
X09711Y087362
X09586Y085912
X094654Y086495
X094654Y087095
X094654Y087795
X093074Y086495
X093074Y087095
X093074Y087795
X087113Y086985
X087113Y086197
X087113Y084623
X087113Y087772
X087113Y08541
X064908Y083402
X05979Y083402
X054475Y083402
X045253Y08738
X045253Y08688
X045253Y08788
X044668Y08652
X043416Y086038
X040726Y08738
X040726Y08688
X040726Y08788
X039258Y08717
X038868Y08626
X037248Y08582
X03506Y087368
X035058Y08787
X035044Y086869
X03208Y087614
X032061Y087244
X031818Y084386
X031817Y083205
X031817Y085567
X031465Y085567
X031463Y083205
X031459Y084386
X028097Y085174
X028097Y085567
X028097Y083993
X027703Y083205
X02731Y08478
X02731Y084386
X02731Y085567
X02731Y085174
X026916Y083993
X026916Y085174
X026522Y085567
X026522Y084386
X026129Y083205
X025735Y085174
X025341Y083993
X025341Y083205
X024947Y083993
X024554Y085174
X024554Y083205
X02416Y083205
X02416Y083993
X023766Y085567
X023766Y083205
X023373Y084386
X022979Y084386
X022979Y083993
X022585Y085567
X022585Y085174
X022585Y08478
X022191Y085567
X021798Y085567
X018639Y083205
X018628Y087142
X018626Y085961
X018293Y083205
X018273Y087142
X018273Y085961
X017664Y084583
X016483Y083008
X016483Y083796
X016483Y083402
X035048Y08836
X038478Y08837
X040705Y088381
X043416Y089532
X044092Y088381
X045253Y08838
X048581Y088374
X053097Y090292
X053804Y089249
X053804Y089504
X053804Y08976
X05479Y089032
X05479Y089977
X05479Y089504
X055026Y089268
X055026Y089741
X055262Y089032
X055262Y089504
X055262Y089977
X055499Y089268
X055499Y089741
X055735Y089071
X055735Y089504
X055735Y089977
X05672Y089249
X05672Y089504
X05672Y08976
X058215Y090292
X058922Y089249
X058922Y089504
X058922Y08976
X059908Y089032
X059908Y089977
X059908Y089504
X060144Y089268
X060144Y089741
X06038Y089032
X06038Y089977
X06038Y089504
X060617Y089741
X060617Y089268
X060853Y089071
X060853Y089504
X060853Y089977
X061838Y089249
X061838Y089504
X061838Y08976
X063333Y090292
X064041Y089249
X064041Y089504
X064042Y08976
X065026Y088993
X065026Y089938
X065026Y089465
X065262Y089229
X065262Y089701
X065499Y088993
X065499Y089465
X065499Y089938
X065735Y089229
X065735Y089701
X065971Y089032
X065971Y089465
X065971Y089938
X066957Y089249
X066957Y089504
X066957Y08976
X087113Y08856
X087113Y089347
X093074Y088495
X094654Y088495
X095584Y089195
X095584Y089795
X095584Y090385
X099171Y088383
X099171Y089171
X099171Y090352
X099171Y089958
X099367Y088186
X099367Y088974
X099367Y089761
X099367Y090155
X099774Y088206
X099774Y08856
X099774Y08919
X099774Y090175
X099774Y089545
X104261Y08919
X104261Y08856
X104261Y088206
X104261Y090175
X104261Y089545
X104576Y088383
X104576Y089171
X104576Y090155
X104773Y088186
X104773Y088974
X104773Y089958
X106518Y089565
X106873Y089005
X107546Y088481
X107797Y089323
X107979Y088796
X108007Y089942
X108437Y088272
X120962Y089413
X122073Y089938
X12231Y088835
X123333Y088835
X123333Y089938
X123609Y091355
X123505Y092686
X123309Y092923
X123054Y092416
X122821Y091119
X122506Y091473
X122405Y092679
X122209Y092923
X122028Y0925
X121309Y092676
X121106Y09294
X107847Y091002
X107847Y091532
X107663Y090552
X10661Y092812
X104773Y091927
X104773Y092714
X104773Y091533
X104576Y092911
X104576Y092123
X104576Y09173
X104261Y092143
X104261Y092497
X104261Y091513
X104261Y091159
X104261Y090529
X10376Y092822
X103478Y092519
X103478Y092164
X100529Y092519
X100529Y092164
X099774Y092143
X099774Y092497
X099774Y091513
X099774Y091159
X099774Y090529
X099367Y090942
X099367Y09173
X099171Y091139
X099171Y091927
X095584Y092195
X095584Y092895
X095584Y090995
X095584Y091595
X067506Y091355
X064475Y092142
X062743Y091316
X059348Y092102
X057445Y091434
X0544Y092182
X050954Y092019
X050014Y091969
X044408Y090861
X043815Y092363
X043795Y092723
X042405Y090808
X03457Y090489
X034531Y091238
X02959Y092909
X026522Y091473
X023569Y091552
X01079Y093394
X01079Y095394
X01079Y094394
X02705Y093869
X02809Y093119
X02962Y094179
X02963Y093829
X03051Y095479
X03099Y093849
X03209Y093049
X03374Y093879
X034099Y094735
X04135Y093759
X04229Y093049
X04339Y094219
X0444Y095409
X04444Y093609
X04447Y093969
X04546Y093789
X04649Y093109
X04804Y095399
X04804Y093859
X048844Y093669
X049554Y094259
X050954Y093099
X05343Y095339
X05456Y094739
X057496Y094739
X05861Y095239
X06281Y094459
X06321Y094471
X06361Y094459
X065613Y094412
X066713Y094412
X067713Y094412
X068713Y094412
X095584Y093495
X095584Y094795
X095584Y094195
X099171Y093305
X099367Y093108
X099525Y094249
X099774Y093482
X099774Y093127
X100115Y094249
X100312Y093856
X100509Y094249
X100655Y09332
X100706Y093856
X101005Y09332
X101297Y094249
X101493Y093856
X10169Y094249
X101887Y093856
X102478Y093856
X102675Y094249
X102871Y093856
X103068Y094249
X103115Y09334
X103475Y09335
X103659Y093856
X103856Y094249
X104052Y093856
X104249Y094249
X104261Y093127
X104261Y093482
X104446Y093856
X104773Y093305
X104773Y093698
X105954Y093501
X105954Y093108
X10631Y093502
X107357Y095132
X107637Y093122
X10764Y094212
X119908Y094308
X120184Y094268
X120577Y094268
X120853Y09352
X121522Y093835
X121719Y094229
X122625Y093835
X123373Y093875
X123727Y093835
X12416Y093796
X124436Y093796
X125459Y094229
X126995Y095587
X125695Y095489
X125184Y095489
X121955Y095489
X121483Y095528
X110814Y095692
X1076Y096772
X1051Y096762
X10233Y096049
X10205Y096059
X06837Y097279
X06736Y097389
X06632Y097359
X06526Y097469
X0641Y096229
X06361Y096809
X06321Y096821
X06281Y096809
X05876Y097589
X05861Y095739
X05861Y096239
X05826Y096239
X05788Y097089
X05751Y096689
X05726Y095739
X05581Y097939
X05571Y095489
X05466Y097189
X05353Y097789
X05343Y096439
X051904Y097419
X051004Y097419
X050104Y097419
X049204Y097419
X04638Y096449
X04553Y096439
X04483Y096439
X042162Y096573
X04134Y095689
X04103Y097029
X03503Y097239
X03304Y097479
X03202Y096529
X0305Y097299
X0298Y097279
X02791Y096589
X02705Y095689
X02689Y096849
X01079Y096394
X014695Y098662
X016129Y099111
X016129Y099662
X021506Y100165
X021819Y099653
X02316Y101501
X04924Y100084
X05353Y098889
X05356Y102689
X05358Y100239
X05358Y101339
X05471Y099639
X05471Y102089
X05586Y100389
X05586Y102839
X05735Y098179
X05739Y100629
X057596Y099639
X05761Y099139
X05766Y101589
X05786Y102039
X05836Y098689
X05841Y101139
X05876Y100089
X05876Y098589
X05876Y100589
X05876Y101089
X05876Y098089
X05879Y102569
X06281Y099309
X06281Y101789
X06321Y099321
X06321Y101801
X06361Y099309
X06361Y101789
X06404Y101079
X06413Y098579
X06743Y102969
X072524Y101909
X073114Y101906
X073453Y101909
X073705Y101906
X073909Y101906
X074295Y101906
X074886Y101906
X075138Y101906
X075476Y101913
X076071Y101906
X076327Y101902
X076657Y101898
X076996Y101906
X077248Y101906
X077846Y101902
X078429Y101909
X07902Y101906
X07961Y101909
X080201Y101909
X080791Y101909
X081382Y101909
X08147Y102659
X081693Y101942
X081972Y101909
X082567Y101906
X083154Y101909
X083744Y101909
X084335Y101906
X084925Y101909
X085516Y101909
X08611Y101906
X086693Y101909
X087287Y101909
X08738Y102689
X08757Y101909
X087874Y101909
X088469Y101902
X089059Y101909
X08965Y101906
X090236Y101909
X090831Y101909
X091417Y101909
X092012Y101906
X09209Y102649
X092602Y101906
X0929Y101919
X093193Y101909
X09378Y101909
X10076Y101259
X10126Y100219
X10126Y101679
X10128Y100589
X10177Y101269
X10225Y100249
X10227Y100609
X10227Y101679
X10276Y101299
X10325Y100249
X10328Y101669
X10329Y100579
X10377Y101279
X10424Y100589
X10425Y100239
X10886Y098209
X109844Y102532
X110464Y102532
X111274Y100052
X120341Y099386
X121404Y099386
X122585Y099386
X124042Y099386
X125144Y099386
X126129Y099386
X1279Y100646
X06788Y103079
X06488Y105559
X06448Y105549
X06408Y103569
X06355Y105559
X0632Y105549
X06227Y105569
X06197Y105549
X06134Y105559
X061Y105569
X06068Y105549
X06006Y105559
X05879Y103069
X05878Y103569
X05841Y103589
X05766Y103799
X05741Y103089
X05356Y103789
X04924Y103189
X04824Y103189
X04724Y103189
X04624Y103189
X04524Y103189
X04424Y103189
X04324Y103189
X04224Y103189
X04124Y103189
X04024Y103189
X03504Y103189
X03404Y103189
X03304Y103189
X03204Y103189
X03104Y103189
X03004Y103189
X02904Y103189
X02804Y103189
X02704Y103189
X02604Y103189
X02316Y105439
X016404Y10419
X016404Y103717
X014695Y103662
X010774Y103678
T4C.02362F197S55
X033865Y012484
X035085Y012484
X036306Y012484
X0379Y01122
X038298Y011909
X038699Y01122
X0389Y012598
X039298Y011909
X039699Y012598
X0399Y01122
X040298Y011909
X040699Y01122
X0409Y012598
X041298Y011909
X041699Y012598
X0419Y01122
X042298Y011909
X042699Y01122
X0429Y012598
X043298Y011909
X043699Y012598
X0439Y01122
X044298Y011909
X044699Y01122
X0449Y012598
X045298Y011909
X045699Y012598
X0459Y01122
X046298Y011909
X046699Y01122
X0469Y012598
X047298Y011909
X047699Y012598
X0479Y01122
X048298Y011909
X048699Y01122
X0489Y012598
X049298Y011909
X049699Y012598
X0499Y01122
X050298Y011909
X050699Y01122
X0509Y012598
X051298Y011909
X051699Y012598
X0519Y01122
X052298Y011909
X052699Y01122
X0529Y012598
X053298Y011909
X053699Y012598
X0539Y01122
X054298Y011909
X054699Y01122
X0549Y012598
X055298Y011909
X055699Y012598
X0559Y01122
X056298Y011909
X056699Y01122
X0569Y012598
X057298Y011909
X057699Y012598
X059888Y012484
X061109Y012484
X062329Y012484
X069115Y012484
X070335Y012484
X071556Y012484
X07315Y01122
X073548Y011909
X073949Y01122
X07415Y012598
X074548Y011909
X074949Y012598
X07515Y01122
X075548Y011909
X075949Y01122
X07615Y012598
X076548Y011909
X076949Y012598
X07715Y01122
X077548Y011909
X077949Y01122
X07815Y012598
X078548Y011909
X078949Y012598
X07915Y01122
X079548Y011909
X079949Y01122
X08015Y012598
X080548Y011909
X080949Y012598
X08115Y01122
X081548Y011909
X081949Y01122
X08215Y012598
X082548Y011909
X082949Y012598
X08315Y01122
X083548Y011909
X083949Y01122
X08415Y012598
X084548Y011909
X084949Y012598
X08515Y01122
X085548Y011909
X085949Y01122
X08615Y012598
X086548Y011909
X086949Y012598
X08715Y01122
X087548Y011909
X087949Y01122
X08815Y012598
X088548Y011909
X088949Y012598
X08915Y01122
X089548Y011909
X089949Y01122
X09015Y012598
X090548Y011909
X090949Y012598
X09115Y01122
X091548Y011909
X091949Y01122
X09215Y012598
X092548Y011909
X092949Y012598
X095138Y012484
X096359Y012484
X097579Y012484
X097579Y013271
X097579Y014059
X097579Y014846
X096359Y013271
X096359Y014059
X096359Y014846
X095138Y013271
X095138Y014059
X095138Y014846
X092949Y015381
X092548Y014692
X09215Y015381
X091949Y014003
X091548Y014692
X09115Y014003
X090949Y015381
X090548Y014692
X09015Y015381
X089949Y014003
X089548Y014692
X08915Y014003
X088949Y015381
X088548Y014692
X08815Y015381
X087949Y014003
X087548Y014692
X08715Y014003
X086949Y015381
X086548Y014692
X08615Y015381
X085949Y014003
X085548Y014692
X08515Y014003
X084949Y015381
X084548Y014692
X08415Y015381
X083949Y014003
X083548Y014692
X08315Y014003
X082949Y015381
X082548Y014692
X08215Y015381
X081949Y014003
X081548Y014692
X08115Y014003
X080949Y015381
X080548Y014692
X08015Y015381
X079949Y014003
X079548Y014692
X07915Y014003
X078949Y015381
X078548Y014692
X07815Y015381
X077949Y014003
X077548Y014692
X07715Y014003
X076949Y015381
X076548Y014692
X07615Y015381
X075949Y014003
X075548Y014692
X07515Y014003
X074949Y015381
X074548Y014692
X07415Y015381
X073949Y014003
X073548Y014692
X07315Y014003
X071556Y013271
X071556Y014059
X071556Y014846
X070335Y013271
X070335Y014059
X070335Y014846
X069115Y014059
X069115Y014846
X069115Y013271
X062329Y013271
X062329Y014059
X062329Y014846
X061109Y013271
X061109Y014059
X061109Y014846
X059888Y013271
X059888Y014059
X059888Y014846
X057699Y015381
X057298Y014692
X0569Y015381
X056699Y014003
X056298Y014692
X0559Y014003
X055699Y015381
X055298Y014692
X0549Y015381
X054699Y014003
X054298Y014692
X0539Y014003
X053699Y015381
X053298Y014692
X0529Y015381
X052699Y014003
X052298Y014692
X0519Y014003
X051699Y015381
X051298Y014692
X0509Y015381
X050699Y014003
X050298Y014692
X0499Y014003
X049699Y015381
X049298Y014692
X0489Y015381
X048699Y014003
X048298Y014692
X0479Y014003
X047699Y015381
X047298Y014692
X0469Y015381
X046699Y014003
X046298Y014692
X0459Y014003
X045699Y015381
X045298Y014692
X0449Y015381
X044699Y014003
X044298Y014692
X0439Y014003
X043699Y015381
X043298Y014692
X0429Y015381
X042699Y014003
X042298Y014692
X0419Y014003
X041699Y015381
X041298Y014692
X0409Y015381
X040699Y014003
X040298Y014692
X0399Y014003
X039699Y015381
X039298Y014692
X0389Y015381
X038699Y014003
X038298Y014692
X0379Y014003
X036306Y013271
X036306Y014059
X036306Y014846
X035085Y013271
X035085Y014059
X035085Y014846
X033865Y013271
X033865Y014059
X033865Y014846
T5C.02756F197S55
X034164Y02226
X034164Y023047
X034164Y023835
X034164Y024622
X034164Y02541
X034914Y023441
X034914Y024229
X034914Y022654
X034914Y025016
X035666Y023819
X035666Y024606
X035666Y025394
X035666Y022244
X035666Y023032
X036416Y024229
X036416Y022654
X036416Y023441
X036416Y025016
X120934Y024975
X121684Y025369
X122436Y024975
X123186Y025369
X123186Y027731
X123186Y026943
X123186Y026156
X123186Y030093
X123186Y029306
X123186Y028518
X122436Y027337
X122436Y02655
X122436Y025762
X122436Y030487
X122436Y029699
X122436Y028912
X122436Y028124
X121684Y030093
X121684Y029306
X121684Y028518
X121684Y027731
X121684Y026943
X121684Y026156
X120934Y030487
X120934Y029699
X120934Y028912
X120934Y028124
X120934Y02655
X120934Y027337
X120934Y025762
X036416Y026591
X036416Y027378
X036416Y025803
X036416Y028166
X036416Y028953
X036416Y02974
X035666Y027756
X035666Y026181
X035666Y026969
X035666Y028543
X035666Y029331
X035666Y030118
X034914Y025803
X034914Y027378
X034914Y026591
X034914Y028166
X034914Y028953
X034914Y02974
X034164Y027772
X034164Y028559
X034164Y026197
X034164Y029347
X034164Y026984
X034164Y030134
X034164Y030921
X034164Y031709
X034164Y032496
X034164Y033284
X034164Y034071
X034164Y034858
X034914Y030528
X034914Y031315
X034914Y032103
X034914Y03289
X034914Y033677
X034914Y034465
X034914Y035252
X035666Y030906
X035666Y031693
X035666Y03248
X035666Y033268
X035666Y034055
X035666Y034843
X036416Y032103
X036416Y033677
X036416Y031315
X036416Y034465
X036416Y03289
X036416Y035252
X036416Y030528
X120934Y032849
X120934Y032061
X120934Y035211
X120934Y034424
X120934Y033636
X120934Y031274
X121684Y033243
X121684Y032455
X121684Y034817
X121684Y03403
X121684Y031668
X121684Y03088
X122436Y035211
X122436Y034424
X122436Y032849
X122436Y031274
X122436Y033636
X122436Y032061
X123186Y033243
X123186Y034817
X123186Y032455
X123186Y03088
X123186Y03403
X123186Y031668
X123186Y037967
X123186Y03718
X123186Y036392
X123186Y035605
X123186Y040329
X123186Y039542
X123186Y038754
X122436Y037573
X122436Y039935
X122436Y035998
X122436Y039148
X122436Y036786
X122436Y038361
X121684Y035605
X121684Y037967
X121684Y03718
X121684Y036392
X121684Y040329
X121684Y039542
X121684Y038754
X120934Y037573
X120934Y036786
X120934Y039935
X120934Y035998
X120934Y039148
X120934Y038361
X036416Y036827
X036416Y037614
X036416Y03604
X036416Y038402
X036416Y039189
X036416Y039977
X035666Y036417
X035666Y037992
X035666Y03878
X035666Y037205
X035666Y039567
X035666Y03563
X035666Y040354
X034914Y03604
X034914Y036827
X034914Y037614
X034914Y038402
X034914Y039189
X034914Y039977
X034164Y038008
X034164Y035646
X034164Y038795
X034164Y037221
X034164Y039583
X034164Y036433
X034164Y04037
X034164Y041158
X034164Y041945
X034164Y042732
X034164Y04352
X034164Y044307
X034164Y045095
X034914Y040764
X034914Y041551
X034914Y042339
X034914Y043126
X034914Y043914
X034914Y044701
X034914Y045488
X035666Y041142
X035666Y041929
X035666Y042717
X035666Y043504
X035666Y044291
X035666Y045079
X036416Y043126
X036416Y042339
X036416Y043914
X036416Y041551
X036416Y044701
X036416Y045488
X036416Y040764
X120934Y042298
X120934Y045447
X120934Y04466
X120934Y043872
X120934Y04151
X120934Y040723
X120934Y043085
X121684Y041904
X121684Y042691
X121684Y043479
X121684Y045054
X121684Y044266
X121684Y041117
X122436Y042298
X122436Y04466
X122436Y043085
X122436Y043872
X122436Y04151
X122436Y040723
X122436Y045447
X123186Y043479
X123186Y045054
X123186Y041117
X123186Y042691
X123186Y041904
X123186Y044266
X123186Y045841
X123186Y046628
X123186Y049778
X123186Y048991
X122436Y046235
X122436Y050172
X122436Y049384
X122436Y048597
X121684Y049794
X121684Y049006
X121684Y046628
X121684Y045841
X120934Y046235
X120934Y049384
X120934Y048597
X120934Y050172
X036416Y046276
X036416Y049425
X036416Y050213
X036416Y047063
X035666Y049819
X035666Y046654
X035666Y049032
X035666Y045866
X034914Y047063
X034914Y046276
X034914Y049425
X034914Y050213
X034164Y049032
X034164Y046669
X034164Y049819
X034164Y045882
X034164Y050606
X034164Y051394
X034164Y052181
X034164Y052969
X034164Y053756
X034164Y054543
X034164Y055331
X034914Y051
X034914Y051788
X034914Y052575
X034914Y053362
X034914Y05415
X034914Y054937
X035666Y051394
X035666Y052181
X035666Y053756
X035666Y054543
X035666Y055331
X035666Y052969
X035666Y050606
X036416Y051788
X036416Y053362
X036416Y05415
X036416Y054937
X036416Y052575
X036416Y051
X120934Y050959
X120934Y054896
X120934Y051746
X120934Y054109
X120934Y053321
X120934Y052534
X121684Y052943
X121684Y054518
X121684Y055306
X121684Y053731
X121684Y052156
X121684Y050581
X121684Y051369
X122436Y054896
X122436Y054109
X122436Y053321
X122436Y051746
X122436Y052534
X122436Y050959
X123186Y052928
X123186Y053715
X123186Y054502
X123186Y051353
X123186Y05529
X123186Y050565
X123186Y05214
X123186Y057652
X123186Y056865
X123186Y056077
X123186Y058439
X123186Y060014
X123186Y059227
X122436Y057258
X122436Y056471
X122436Y055683
X122436Y060408
X122436Y058046
X122436Y05962
X122436Y058833
X121684Y057668
X121684Y05688
X121684Y06003
X121684Y059243
X121684Y056093
X121684Y058455
X120934Y056471
X120934Y057258
X120934Y05962
X120934Y058833
X120934Y055683
X120934Y060408
X120934Y058046
X036416Y056512
X036416Y057299
X036416Y055725
X036416Y058087
X036416Y058874
X036416Y059662
X036416Y060449
X035666Y057693
X035666Y056906
X035666Y056118
X035666Y05848
X035666Y059268
X035666Y060055
X034914Y057299
X034914Y056512
X034914Y055725
X034914Y058087
X034914Y058874
X034914Y059662
X034914Y060449
X034164Y05848
X034164Y057693
X034164Y059268
X034164Y056906
X034164Y060055
X034164Y056118
X034164Y060843
X034164Y06163
X034164Y062417
X034164Y063205
X034164Y063992
X034164Y06478
X034914Y061236
X034914Y062024
X034914Y062811
X034914Y063599
X034914Y064386
X034914Y065173
X035666Y06163
X035666Y063205
X035666Y063992
X035666Y06478
X035666Y060843
X035666Y062417
X036416Y062024
X036416Y063599
X036416Y064386
X036416Y065173
X036416Y061236
X036416Y062811
X120934Y063557
X120934Y061195
X120934Y065132
X120934Y064345
X120934Y061983
X120934Y06277
X121684Y061605
X121684Y062392
X121684Y063967
X121684Y060817
X121684Y06318
X121684Y064754
X122436Y063557
X122436Y065132
X122436Y061195
X122436Y06277
X122436Y064345
X122436Y061983
X123186Y062376
X123186Y061589
X123186Y063164
X123186Y064739
X123186Y060802
X123186Y063951
X123186Y067101
X123186Y066313
X123186Y065526
X123186Y067888
X123186Y069463
X123186Y07025
X123186Y068676
X122436Y06592
X122436Y066707
X122436Y069857
X122436Y067494
X122436Y069069
X122436Y068282
X121684Y066329
X121684Y067117
X121684Y065542
X121684Y070266
X121684Y069479
X121684Y067904
X121684Y068691
X120934Y06592
X120934Y066707
X120934Y067494
X120934Y069857
X120934Y069069
X120934Y068282
X036416Y068323
X036416Y06911
X036416Y069898
X036416Y065961
X036416Y066748
X036416Y067536
X035666Y069504
X035666Y067929
X035666Y070291
X035666Y066354
X035666Y067142
X035666Y065567
X035666Y068717
X034914Y065961
X034914Y067536
X034914Y066748
X034914Y068323
X034914Y06911
X034914Y069898
X034164Y067142
X034164Y066354
X034164Y068717
X034164Y067929
X034164Y069504
X034164Y065567
X034164Y070291
X034914Y070685
X036416Y070685
X120934Y071431
X120934Y072219
X120934Y070644
X120934Y073006
X121684Y072628
X121684Y071054
X121684Y071841
X121684Y073416
X122436Y070644
X122436Y071431
X122436Y072219
X122436Y073006
X123186Y071825
X123186Y072613
X123186Y071038
X123186Y0734
T6C.032F197S55
X101325Y071926
X101325Y072926
X101325Y073926
X101325Y074926
X101325Y075926
T7C.035F197S55
X01081Y016989
X01081Y021989
X01206Y016989
X01456Y016989
X01581Y016989
X01706Y016989
X01831Y016989
X02081Y016989
X02206Y016989
X02331Y018239
X02331Y019489
X02331Y016989
X02331Y020739
X02331Y021989
X129261Y089553
X129261Y088553
X128261Y089553
X128261Y088553
X127261Y089553
X127261Y088553
X126261Y089553
X126261Y088553
X125261Y089553
X125261Y088553
X09976Y09975
X10026Y09875
X10076Y09975
X10126Y09875
X10176Y09975
X10226Y09875
X10276Y09975
X10326Y09875
X10376Y09975
X10426Y09875
X10462Y10385
X10362Y10385
X1004Y10385
X0994Y10385
T8C.03543F197S55
X129615Y055644
X12965Y054361
X12965Y047275
X129615Y062731
X11745Y09967
X11695Y09867
X11645Y09967
X11595Y09867
X11545Y09967
X11495Y09867
X11445Y09967
X11395Y09867
T9C.03543F197S55
X115095Y016408
T10C.03622F197S55
X107512Y10097
X108496Y10097
X109284Y10097
X110268Y10097
T11C.03937F197S55
X086405Y028982
X090355Y029032
X088856Y085016
X088806Y088966
T12C.03937F197S55
X02438Y017013
X025341Y012142
X02567Y022839
X02635Y017029
X02642Y022819
X02718Y022839
X027506Y012142
X02794Y022829
X028097Y020607
X028097Y021591
X0283Y017049
X028884Y020607
X028884Y021591
X031837Y014701
X032428Y011158
X032428Y01352
X032428Y012339
X032428Y018835
X056562Y022654
X063766Y019623
X065577Y022497
X066562Y019623
X074751Y022418
X09542Y022772
X098176Y022772
X13021Y025889
X12949Y025859
X12877Y025839
X12803Y025839
X117664Y026512
X114908Y026512
X098176Y025922
X098176Y024347
X09542Y025922
X09542Y024347
X074751Y024465
X065577Y024465
X056562Y024465
X032034Y025922
X032034Y030253
X029672Y030253
X029672Y025922
X02794Y030389
X02719Y030379
X02641Y030389
X02565Y030409
X022397Y028209
X015999Y028188
X01066Y037889
X030066Y032418
X030066Y033993
X030066Y037142
X030066Y035567
X032821Y033993
X032821Y032418
X032821Y037142
X032821Y035567
X086955Y033174
X086955Y03593
X08853Y033205
X08853Y035961
X090105Y033205
X090105Y035961
X091877Y033599
X091877Y035567
X114908Y031237
X117664Y031237
X124357Y032221
X125538Y03419
X126719Y032221
X12809Y033439
X12817Y035439
X12886Y033459
X12897Y035419
X12961Y033439
X12974Y035419
X13037Y033439
X13046Y035409
X13042Y043909
X12971Y043889
X12897Y043889
X1282Y043899
X125538Y03852
X109357Y04419
X107782Y04419
X10605Y044229
X103884Y044229
X086562Y044012
X086562Y041296
X08479Y041276
X084751Y043993
X083018Y044032
X083018Y041276
X032821Y038717
X030144Y041945
X030066Y038717
X0279Y044071
X027703Y041945
X023199Y041619
X023199Y042328
X022412Y042328
X022412Y041619
X01331Y043289
X01066Y040039
X01066Y039339
X01066Y038589
X018954Y047398
X027821Y052064
X0279Y047969
X0279Y046591
X090892Y051906
X100026Y050134
X100026Y047457
X101443Y048087
X101443Y050134
X102388Y050134
X102388Y048087
X103333Y048087
X103333Y050134
X103884Y050725
X104357Y050134
X104357Y048087
X105302Y048087
X10605Y050725
X127658Y045511
X127655Y054188
X127113Y058008
X126522Y055056
X126522Y056434
X124751Y058008
X090892Y053284
X087349Y053284
X030781Y065449
X028025Y065449
X02154Y06074
X02154Y059204
X02154Y059944
X018869Y057367
X028025Y067221
X028025Y068993
X030781Y067221
X030781Y068993
X087388Y072575
X089475Y071197
X091916Y071197
X091916Y072575
X091916Y073953
X113136Y06726
X113136Y069426
X114317Y06726
X114317Y070016
X115892Y070016
X115892Y06726
X118254Y078678
X118254Y083993
X115499Y078678
X115499Y083993
X083609Y078284
X083609Y075528
X08105Y075528
X08105Y078284
X067506Y083481
X063333Y085371
X062073Y083323
X058018Y085371
X056877Y083402
X053097Y085371
X045026Y080056
X045026Y078481
X04227Y080056
X04227Y078481
X049554Y086158
X053777Y093205
X054081Y087339
X056404Y093245
X058867Y093245
X059199Y087339
X06164Y092851
X063897Y093245
X064317Y087339
X06664Y092969
X11038Y093441
X11038Y094819
X115499Y085567
X118254Y085567
T13C.04016F139S55
X057787Y024481
X073586Y024481
T14C.04016F139S55
X023626Y070986
X023626Y071986
X023626Y072986
X026876Y070986
X026876Y071986
X026876Y072986
X030226Y070986
X030226Y071986
X030226Y072986
X030226Y073986
X026876Y073986
X023626Y073986
T15C.04291F139S55
X123038Y101421
X123585Y102539
X124128Y101421
X124675Y102539
X125219Y101421
X125766Y102539
X126309Y101421
X126857Y102539
X1274Y101421
T16C.047F139S55
X12945Y09647
T17C.04921F139S55
X022775Y072986
X026025Y072986
X029375Y072986
T18C.05118F107S55
X12293Y016408
T19C.055F107S55
X01081Y029789
X01281Y029789
X01581Y029789
X01761Y029789
X01761Y031039
X01886Y029789
X02261Y031039
X02261Y029789
X02261Y034789
X02261Y037289
X02136Y037289
X02011Y037289
X01886Y037289
X01761Y037289
X01581Y034789
X01581Y036039
X01481Y036039
X01381Y036039
X01281Y036039
X01181Y036039
X01081Y036039
X01101Y050439
X01101Y049189
X01101Y056689
X01226Y056689
X01351Y056689
X01476Y056689
X01601Y056689
X01726Y050439
X01726Y056689
X01726Y055439
X01726Y051689
T20C.05512F107S55
X071167Y102131
X095143Y102131
T21C.057F107S55
X127267Y066755
X127267Y070063
X127267Y068409
X129433Y066755
X129433Y068409
X129433Y070063
X129433Y071716
X129433Y07337
X129433Y075023
X129433Y076677
X129433Y07833
X129433Y079984
X129433Y081637
X127267Y075023
X127267Y07833
X127267Y079984
X127267Y071716
X127267Y07337
X127267Y081637
X127267Y076677
X127267Y084944
X127267Y083291
X129433Y083291
X129433Y084944
T22C.05906F107S55
X103317Y013182
X108017Y013182
X03779Y091919
X03776Y095369
T23C.06299F089S55
X112541Y097485
X118859Y097485
T24C.063F089S55
X09896Y10105
X10506Y10105
T25C.06693F089S55
X102317Y012182
X102317Y014182
X104317Y014182
X104317Y012182
X107017Y014182
X107017Y012182
X109017Y014182
X109017Y012182
X03879Y092919
X03879Y090919
X03679Y090919
X03679Y092919
X03676Y094369
X03676Y096369
X03876Y096369
X03876Y094369
T26C.07F081S55
X12945Y09947
T27C.07087F081S55
X121932Y047613G85X122188Y047613
X035418Y048047G85X035162Y048047
T28C.07165F081S55
X070348Y102848
T29C.07165F081S55
X096084Y10284G85X095856Y10284
T30C.09055F066S55
X106303Y102037
X111477Y102037
T31C.094F066S55
X101325Y069426
T32C.09646F066S55
X037987Y021599
X037987Y071591
X119363Y024069
X119363Y074061
T33C.11811F069S658
X069769Y098637
X096541Y098637
X096541Y105104
X069769Y105104
T34C.12008F035S794
X120301Y10198
X13014Y10198
T35C.125F035S794
X129252Y064905
T36C.12795F035S794
X113281Y10217
X118123Y10217
T37C.128F035S794
X09976Y10225
X10426Y10225
T38C.1378F035S794
X056089Y062709
X076089Y054914
T39C.15F035S9
X0165Y0125
X0165Y041
X0655Y0125
X0655Y041
X1265Y0125
X1265Y041
X1265Y093
X0655Y102
X0165Y102
M30
