%
T1C.008F0S0
X01311Y03752
X014094Y040197
X017795Y062756
X017454Y063212
X015512Y078898
X015315Y079488
X012087Y080669
X016181Y080669
X011535Y080866
X01126Y081063
X01563Y08126
X012756Y081457
X010394Y081614
X017677Y081654
X016693Y081654
X017087Y081654
X017402Y081929
X016496Y082244
X017677Y084016
X010591Y084213
X010551Y085394
X014685Y093419
X014685Y094419
X014685Y095421
X014685Y096417
X012283Y09811
X015Y099685
X020551Y098937
X020748Y098701
X019764Y095276
X020118Y095276
X017953Y094449
X022126Y094449
X02248Y094213
X02252Y09189
X022205Y08931
X02122Y08931
X02122Y088956
X022205Y088956
X022598Y085591
X022205Y085591
X021811Y085591
X022598Y085197
X022598Y084803
X022205Y084409
X020236Y084016
X022598Y083622
X021811Y083248
X022598Y083228
X022205Y083228
X022598Y082835
X022598Y082441
X022598Y082047
X022598Y081654
X022598Y08126
X022598Y080866
X022205Y080472
X021811Y080472
X02122Y080276
X022598Y080079
X022205Y079291
X021811Y079291
X022205Y077638
X019921Y040079
X019882Y03878
X02063Y031024
X02189Y021378
X021304Y021372
X02185Y010512
X021417Y010512
X023622Y01122
X024567Y02315
X023504Y023583
X023661Y025276
X024488Y026614
X023307Y027126
X025Y052015
X024567Y076535
X024173Y076929
X023386Y076929
X02378Y077323
X022992Y077323
X022992Y078898
X025354Y079291
X022992Y079291
X023386Y079291
X023386Y079685
X022992Y079685
X024173Y079685
X02378Y079685
X022992Y080079
X02378Y080079
X024961Y080079
X025354Y080079
X023386Y080079
X022992Y080472
X02378Y080472
X023386Y080472
X022992Y080866
X024567Y08126
X024173Y08126
X02378Y08126
X025354Y08126
X023386Y08126
X02378Y081654
X022992Y081654
X023386Y081654
X024567Y081654
X02378Y082047
X024173Y082047
X023386Y082047
X022992Y082047
X024567Y082047
X025354Y082047
X024961Y082047
X024173Y082441
X024567Y082441
X023386Y082441
X024961Y082441
X025354Y082441
X024567Y082835
X024173Y082835
X02378Y082835
X025354Y082835
X022992Y082835
X024961Y082835
X02378Y083228
X024173Y083228
X022992Y083228
X024567Y083228
X025354Y083228
X023386Y083622
X025354Y083622
X023386Y084016
X024567Y084016
X024173Y084016
X022992Y084016
X024961Y084016
X025354Y084016
X024961Y084409
X023386Y084409
X022992Y084409
X024961Y084803
X024567Y085197
X024961Y085197
X02378Y085591
X024961Y085591
X023386Y088956
X024567Y088956
X024567Y08931
X023386Y08931
X024764Y090039
X022992Y094173
X024685Y104134
X023976Y10437
X024213Y104606
X025118Y104606
X024449Y104843
X024921Y105157
X026063Y097402
X0277Y095173
X025748Y090079
X025748Y08931
X026929Y08931
X027717Y089291
X025748Y088956
X026929Y088956
X027717Y088937
X026142Y085591
X025748Y085591
X026535Y085591
X026929Y085591
X027323Y085591
X025748Y085197
X026142Y085197
X026929Y085197
X027323Y085197
X027717Y084803
X027323Y084803
X026535Y084409
X027717Y084409
X027323Y084409
X027717Y084016
X026929Y084016
X027717Y083622
X026929Y083622
X026142Y083228
X027323Y083228
X027717Y083228
X026535Y082835
X027717Y082835
X027323Y082441
X026535Y082441
X027717Y082441
X025748Y082441
X026142Y082441
X027717Y082047
X026142Y081654
X027717Y081654
X027717Y08126
X026929Y08126
X026535Y08126
X027323Y080866
X027717Y080866
X026929Y080866
X027717Y080472
X026535Y080472
X027323Y080079
X027717Y080079
X025748Y080079
X027323Y079685
X027717Y079685
X027717Y079291
X026142Y079291
X027323Y079291
X026535Y079291
X025748Y079291
X026968Y05418
X026968Y053589
X025513Y053152
X02559Y050637
X02559Y049849
X027842Y043402
X027659Y03885
X02752Y032047
X029252Y010906
X029488Y010906
X029724Y010906
X02799Y038472
X030275Y044672
X030275Y045263
X030275Y045735
X030275Y046326
X030275Y047034
X030275Y047625
X030275Y048333
X030275Y048924
X030275Y051601
X027953Y051818
X028307Y051818
X030275Y052192
X030275Y05357
X030275Y05416
X030275Y055459
X030275Y05605
X030186Y060021
X030022Y060507
X02811Y079291
X02811Y079685
X02811Y080866
X02811Y082047
X02811Y082441
X02811Y082835
X02811Y083622
X02811Y084016
X02811Y084409
X02811Y084803
X02811Y085197
X02811Y085591
X028839Y08878
X028839Y089488
X029204Y093154
X028732Y093177
X028417Y093177
X029623Y093279
X02826Y094024
X028575Y094024
X029213Y095354
X030157Y095472
X033189Y095354
X03374Y094724
X033783Y094254
X032575Y094024
X03226Y094024
X032417Y093177
X032732Y093177
X033203Y09311
X033193Y087641
X033902Y087267
X033425Y085394
X033622Y082441
X034016Y082047
X033819Y08185
X034016Y081457
X034213Y080669
X034606Y080472
X035197Y080276
X033819Y079291
X031654Y077382
X033478Y060887
X033481Y060533
X033422Y059704
X033471Y059353
X032088Y055167
X032677Y05044
X032677Y049456
X033071Y043944
X032086Y04355
X035345Y02385
X034566Y019961
X037283Y016575
X040328Y016637
X037283Y017953
X0378Y038223
X03925Y0402
X03874Y041575
X038701Y04311
X03874Y044724
X038701Y046024
X038701Y047244
X038701Y048583
X03874Y049764
X038701Y050984
X038701Y052165
X03874Y053307
X038701Y054449
X03874Y055472
X038346Y056457
X035591Y075157
X036378Y075354
X036063Y078543
X037771Y086456
X040131Y08713
X037365Y08739
X040276Y097402
X040669Y097087
X043386Y095472
X044449Y095079
X04295Y093173
X043386Y09315
X042598Y09315
X042756Y092913
X0424Y092823
X045276Y075827
X044685Y07563
X045079Y075354
X044882Y074882
X041102Y074803
X043268Y063346
X044843Y063346
X043268Y060984
X043268Y058622
X043268Y05626
X044843Y05626
X044843Y053701
X043268Y053701
X044843Y050945
X043268Y050945
X043268Y048583
X044843Y048583
X04455Y0473
X044843Y045827
X043228Y045827
X044843Y043465
X043268Y043465
X0404Y0413
X043268Y041102
X044186Y016677
X046312Y016598
X048297Y016598
X050328Y016598
X046517Y018217
X046683Y018383
X047332Y03245
X047568Y03245
X049921Y055748
X046203Y056117
X0455Y0587
X0483Y0588
X04765Y0588
X049724Y058898
X049546Y059089
X047795Y059409
X046339Y059843
X048189Y060197
X05035Y06225
X04943Y062737
X04943Y062974
X047795Y063545
X046299Y063937
X047992Y064331
X047795Y069449
X0503Y070023
X047795Y074803
X049764Y08248
X050118Y082559
X049606Y082795
X049921Y082913
X047634Y086063
X049866Y090997
X046654Y092913
X046975Y092941
X046817Y093177
X047132Y093177
X04838Y094506
X048031Y095079
X047598Y096378
X051295Y092522
X05218Y092522
X054445Y091672
X054113Y091023
X054764Y090905
X053996Y090039
X05502Y08815
X05185Y080173
X05395Y076823
X055276Y075354
X055276Y07378
X05437Y073386
X05437Y072992
X05437Y072598
X05437Y072205
X05437Y071811
X05437Y071417
X05437Y071024
X05437Y07063
X05437Y068268
X05437Y067874
X05437Y06748
X05437Y067087
X05437Y066693
X05437Y066299
X05437Y065906
X05437Y065512
X053701Y064331
X054724Y064331
X054724Y063543
X054724Y062756
X053701Y062756
X05325Y06235
X054724Y061969
X05105Y060873
X05135Y0608
X0508Y060423
X05325Y0604
X055276Y06
X05378Y059606
X054646Y059606
X0531Y0593
X055276Y059213
X054646Y058819
X05378Y058819
X0529Y0588
X055276Y058425
X055276Y057638
X05505Y05745
X055276Y05685
X055276Y056063
X055276Y055276
X05375Y05495
X055276Y054488
X055276Y053701
X05275Y053
X055276Y052913
X055276Y052126
X055276Y051339
X055276Y050551
X053898Y044646
X054344Y016598
X056419Y01657
X05626Y043071
X055967Y046017
X056133Y046183
X055669Y050551
X056654Y050551
X055669Y051339
X057047Y051339
X056654Y052126
X055669Y052126
X055669Y052913
X057047Y053701
X055669Y053701
X055669Y054488
X056654Y054488
X0559Y0546
X057047Y055276
X055669Y055276
X057047Y05685
X05565Y056873
X056654Y057638
X055669Y057657
X05595Y0584
X056654Y058425
X055669Y058425
X056386Y0591
X05615Y0591
X056654Y059213
X055669Y059213
X057635Y06
X055669Y06
X05595Y06
X056654Y06
X0573Y061
X056567Y061026
X056733Y061193
X057835Y06185
X056676Y062126
X057756Y066142
X057441Y07378
X057441Y075354
X05595Y076823
X059584Y091693
X059213Y091023
X059882Y090905
X059114Y090039
X060138Y08815
X059016Y075354
X059016Y07378
X059173Y068583
X059843Y068386
X058937Y068031
X059803Y065512
X058976Y065394
X059803Y065118
X060197Y065118
X060197Y064724
X060197Y064331
X060197Y063937
X058307Y063543
X060197Y063543
X058307Y06315
X060197Y06315
X059803Y06315
X058307Y062756
X060157Y062756
X058307Y062362
X060197Y062362
X059803Y062362
X060197Y061969
X060197Y061575
X059803Y061575
X059409Y061575
X060248Y061181
X0598Y061181
X059409Y061142
X059803Y060787
X059803Y060445
X05795Y060415
X059409Y060394
X060197Y060342
X058386Y060187
X05925Y06015
X05795Y0601
X058622Y06
X060197Y06
X058228Y059606
X05795Y0596
X059803Y059213
X059803Y058425
X059409Y058425
X060197Y058425
X05835Y0584
X060197Y058031
X059409Y058031
X059803Y058031
X059775Y057666
X059409Y057638
X060197Y057638
X059803Y057244
X060197Y057244
X060197Y05685
X059803Y05685
X059409Y056457
X060197Y056457
X059803Y056457
X060197Y056063
X059409Y055669
X060197Y055669
X059803Y055669
X060197Y055276
X059803Y055276
X059409Y055276
X0579Y0551
X060197Y054882
X059803Y054882
X060197Y054488
X059803Y054488
X059409Y054488
X059409Y054094
X059803Y054094
X060197Y054094
X060197Y053701
X059409Y053701
X059803Y053701
X059409Y053307
X059803Y053307
X060197Y053307
X059803Y052913
X059409Y052913
X059409Y05252
X0592Y04935
X058228Y048583
X059016Y048583
X059803Y048583
X058228Y048189
X059803Y048189
X059016Y048189
X058622Y044646
X059449Y025433
X059134Y025433
X060039Y025433
X060315Y025433
X058858Y025433
X059724Y025433
X059138Y022962
X059728Y022962
X060319Y022962
X058871Y022961
X059462Y022961
X060052Y022961
X058387Y01657
X062244Y017362
X061233Y022961
X061824Y022961
X060643Y022961
X062414Y022961
X0615Y022962
X06209Y022962
X060909Y022962
X062681Y022962
X06063Y025433
X061811Y025433
X062087Y025433
X062402Y025433
X060906Y025433
X062677Y025433
X060984Y043071
X060591Y048189
X061378Y048189
X062165Y048189
X060591Y048583
X062165Y048583
X061378Y048583
X060591Y052126
X062559Y052126
X061772Y052126
X061772Y05252
X062559Y05252
X060591Y052913
X062559Y052913
X060984Y052913
X061772Y052913
X061378Y052913
X062165Y052913
X060591Y053307
X061772Y053307
X060984Y053307
X062165Y053307
X061378Y053307
X062559Y053307
X061378Y053701
X061772Y053701
X062559Y053701
X062165Y053701
X060591Y053701
X060984Y053701
X061772Y054094
X060984Y054094
X062559Y054094
X061378Y054094
X060591Y054094
X062165Y054094
X060984Y054488
X062165Y054488
X061772Y054488
X060591Y054488
X062559Y054488
X061378Y054488
X062165Y054882
X060984Y054882
X061772Y054882
X061378Y054882
X062559Y054882
X060591Y054882
X060984Y055276
X062165Y055276
X061772Y055276
X061378Y055276
X062559Y055276
X060591Y055276
X061378Y055669
X060591Y055669
X060984Y055669
X061772Y055669
X062165Y055669
X062559Y055669
X062559Y056063
X060591Y056063
X060984Y056063
X061772Y056063
X062165Y056063
X061378Y056063
X061378Y056457
X060984Y056457
X062165Y056457
X061772Y056457
X060591Y056457
X062559Y056457
X062559Y05685
X061378Y05685
X060984Y05685
X060591Y05685
X062559Y057244
X062165Y057244
X061378Y057244
X060984Y057244
X061772Y057244
X060591Y057244
X061378Y057638
X060984Y057638
X060591Y057638
X062559Y057638
X061772Y057638
X062165Y057638
X062114Y058031
X061772Y058031
X061378Y058031
X060591Y058031
X060984Y058031
X062559Y058031
X060591Y058425
X060984Y058425
X062165Y058425
X061378Y058425
X062559Y058425
X060591Y058819
X060984Y058819
X062559Y058819
X061378Y058819
X062126Y058819
X062559Y059213
X062165Y059213
X061378Y059213
X060984Y059213
X061772Y059213
X062165Y059606
X062559Y059606
X061378Y059606
X061772Y059606
X060984Y059606
X061Y06
X060539Y06
X062165Y06
X061772Y06
X061378Y060052
X062559Y060342
X062165Y060394
X060984Y060394
X061772Y060394
X060591Y060394
X061378Y060394
X062559Y060736
X062165Y060787
X061772Y060787
X060984Y060787
X061378Y060787
X060566Y060812
X062165Y061181
X061772Y061181
X060984Y061181
X062559Y061181
X061378Y061181
X06095Y061575
X061378Y061575
X062165Y061575
X060591Y061575
X062559Y061575
X062165Y061969
X061378Y061969
X060984Y061969
X060591Y061969
X061772Y061969
X062165Y062362
X060591Y062362
X060984Y062362
X061772Y062362
X062559Y062362
X061378Y062362
X061378Y062756
X062165Y062756
X061772Y062756
X062559Y062756
X060984Y062756
X060591Y062756
X061378Y06315
X062559Y06315
X061772Y06315
X060984Y06315
X062165Y06315
X060591Y06315
X061772Y063543
X060591Y063543
X060984Y063543
X061378Y063543
X062165Y063543
X062559Y063543
X060984Y063937
X060591Y063937
X062559Y063937
X061378Y063937
X061772Y063937
X061378Y064331
X060591Y064331
X060984Y064331
X062559Y064331
X062165Y064331
X061772Y064331
X062559Y064724
X061772Y064724
X060984Y064724
X061378Y064724
X060591Y064724
X062165Y064724
X062139Y065141
X062572Y065141
X060787Y066575
X060394Y066575
X062756Y066575
X062362Y066575
X061969Y066575
X061181Y066614
X062362Y069685
X061299Y070236
X06055Y072173
X064456Y091675
X064113Y091023
X065Y090906
X064232Y090039
X065256Y08815
X063701Y070236
X064921Y070039
X064331Y066575
X063937Y066575
X06315Y066575
X065118Y066575
X064724Y066575
X064528Y065118
X064921Y065118
X06374Y064724
X063346Y064724
X062953Y064724
X064134Y064724
X064921Y064724
X065315Y064724
X063346Y064331
X06374Y064331
X064134Y064331
X062953Y064331
X064921Y064331
X065315Y064331
X063346Y063937
X064134Y063937
X06374Y063937
X064528Y063937
X062953Y063937
X065315Y063937
X064921Y063937
X06374Y063543
X062953Y063543
X063346Y063543
X06415Y063543
X064528Y063543
X064921Y063543
X065315Y063543
X064134Y06315
X06375Y06315
X062953Y06315
X064528Y06315
X064921Y06315
X065315Y06315
X06335Y0631
X06374Y062756
X064134Y062756
X064489Y062756
X063346Y062756
X065315Y062756
X064882Y062756
X0629Y06275
X064134Y062362
X06374Y062362
X063346Y062362
X064528Y062362
X064921Y062362
X062953Y062311
X06335Y061969
X06374Y061969
X064528Y061969
X064134Y061969
X062953Y061969
X065315Y061969
X064921Y061969
X063398Y061575
X06374Y061575
X062953Y061575
X065315Y061575
X064921Y061575
X062953Y061181
X064134Y061181
X063346Y061181
X064528Y061181
X06374Y061181
X064921Y061181
X065315Y061181
X064134Y060787
X062953Y060787
X063346Y060787
X064134Y060394
X063346Y060394
X064528Y060394
X062953Y060394
X06374Y060394
X064921Y060394
X065315Y060394
X063346Y06
X064134Y06
X06374Y06
X063346Y059606
X06374Y059606
X064921Y059606
X064528Y059606
X065315Y059606
X062953Y059606
X062953Y059213
X065315Y059213
X063346Y059213
X063346Y058819
X064921Y058819
X06374Y058819
X064134Y058819
X065315Y058819
X064528Y058819
X062953Y058819
X063346Y058465
X062953Y058425
X062953Y058031
X064921Y058031
X064134Y058031
X064528Y058031
X065315Y058031
X06374Y058031
X063346Y057992
X062953Y057638
X063346Y057638
X064528Y057244
X065315Y057244
X064921Y057244
X063346Y057244
X064134Y057244
X062953Y057244
X063346Y05685
X062953Y05685
X06374Y05685
X064921Y056457
X06374Y056457
X065315Y056457
X064134Y056457
X064528Y056457
X062953Y056457
X064528Y056063
X064134Y056063
X06374Y056063
X063346Y056063
X062953Y056063
X064921Y056063
X065315Y056063
X064134Y055669
X064921Y055669
X06374Y055669
X065315Y055669
X063346Y055669
X062953Y055669
X064528Y055669
X064528Y055276
X064134Y055276
X06374Y055276
X062953Y055276
X063346Y055276
X065315Y055276
X064921Y055276
X064528Y054882
X063346Y054882
X06374Y054882
X062953Y054882
X064134Y054882
X065315Y054882
X064921Y054882
X064134Y054488
X064528Y054488
X063346Y054488
X065315Y054488
X062953Y054488
X06374Y054488
X064921Y054488
X064528Y054094
X064134Y054094
X064921Y054094
X063346Y054094
X06374Y054094
X062953Y054094
X065315Y054094
X06374Y053701
X062953Y053701
X064134Y053701
X064528Y053701
X063346Y053701
X064921Y053701
X065315Y053701
X064921Y053307
X062953Y053307
X065315Y053307
X064528Y053307
X06374Y053307
X063346Y053307
X064134Y053307
X064528Y052913
X06374Y052913
X062953Y052913
X063346Y052913
X064134Y052913
X065315Y052913
X064921Y052913
X065315Y05252
X063346Y05252
X062953Y05252
X064921Y05252
X064528Y05252
X064134Y05252
X064134Y052126
X065315Y048583
X06374Y048583
X062953Y048583
X064528Y048583
X065315Y048189
X062953Y048189
X064528Y048189
X06374Y048189
X063386Y044606
X063268Y025433
X064173Y025433
X064449Y025433
X062992Y025433
X064452Y022962
X063862Y022962
X063271Y022962
X064186Y022961
X063005Y022961
X063596Y022961
X064331Y015315
X067336Y022961
X066745Y022961
X067012Y022962
X067602Y022962
X066732Y025433
X067008Y025433
X067598Y025433
X067323Y025433
X067283Y042362
X065828Y042713
X065709Y044646
X066102Y048189
X06689Y048189
X067677Y048189
X066102Y048583
X067677Y048583
X06689Y048583
X067283Y050787
X067677Y050945
X067677Y051535
X067283Y051693
X066102Y052126
X06689Y052126
X067283Y052126
X066496Y05252
X066102Y05252
X067283Y05252
X06689Y05252
X067677Y05252
X066496Y052913
X066102Y052913
X065709Y052913
X067677Y052913
X06689Y052913
X066496Y053307
X065709Y053307
X06689Y053307
X067283Y053307
X06689Y053701
X066496Y053701
X065709Y053701
X067283Y053701
X06689Y054094
X067677Y054094
X067283Y054094
X066496Y054094
X065709Y054094
X067283Y054488
X06689Y054488
X067677Y054488
X066496Y054488
X065709Y054488
X06689Y054882
X067283Y054882
X066496Y054882
X067677Y054882
X065709Y054882
X06689Y055276
X066496Y055276
X065709Y055276
X066102Y055276
X067677Y055276
X067283Y055276
X066496Y055669
X06689Y055669
X067677Y055669
X065709Y055669
X067283Y055669
X066496Y056063
X067677Y056063
X067283Y056063
X065709Y056063
X06689Y056063
X066102Y056063
X066496Y056457
X066102Y056457
X06689Y056457
X067677Y056457
X065709Y056457
X067283Y056457
X067677Y05685
X066496Y057244
X067677Y057244
X065709Y057244
X06689Y057244
X067283Y057244
X066102Y057244
X066496Y058031
X067283Y058031
X065709Y058031
X067677Y058031
X06689Y058031
X066102Y058031
X066102Y058819
X067283Y058819
X065709Y058819
X067677Y058819
X06689Y059606
X066102Y059606
X066496Y059606
X065709Y059606
X067283Y059606
X067677Y06
X066102Y060394
X067677Y060394
X06689Y060394
X066496Y060394
X065709Y060394
X067283Y060394
X067677Y061181
X066102Y061181
X06689Y061181
X067283Y061181
X066496Y061181
X065709Y061181
X066463Y061573
X066102Y061575
X067677Y061575
X067283Y061575
X065709Y061575
X06689Y061575
X06689Y061969
X067677Y061969
X065709Y061969
X066102Y061969
X066496Y061969
X067283Y061969
X06689Y062362
X065709Y062362
X067677Y062362
X067283Y062362
X066102Y062362
X067283Y062756
X065709Y062756
X066496Y062756
X06689Y062756
X067677Y062756
X06689Y06315
X066102Y06315
X065709Y06315
X067283Y06315
X066496Y06315
X067677Y06315
X06689Y063543
X067283Y063543
X066102Y063543
X065709Y063543
X067677Y063543
X065709Y063937
X067677Y063937
X067283Y063937
X06689Y063937
X065709Y064331
X067677Y064331
X06689Y064331
X067283Y064331
X067283Y064724
X066496Y064724
X066102Y064724
X06689Y064724
X067677Y064724
X065709Y064724
X066158Y065118
X067677Y065118
X067283Y065118
X066913Y065123
X067087Y065591
X06748Y065591
X067087Y066575
X067874Y066575
X066299Y066575
X066693Y066575
X065512Y066575
X06748Y066575
X067205Y070236
X06748Y07378
X06748Y075354
X069843Y075354
X069843Y07378
X069803Y070236
X068386Y070039
X068268Y066575
X069055Y066575
X069449Y066575
X069843Y066575
X070236Y066575
X070039Y065118
X069646Y065118
X068465Y064724
X068071Y064724
X069646Y064724
X069252Y064724
X068858Y064724
X070039Y064724
X068465Y064331
X068071Y064331
X069646Y064331
X070039Y064331
X068858Y064331
X069252Y064331
X068071Y063937
X068465Y063937
X068858Y063937
X069646Y063937
X070039Y063937
X069252Y063937
X068071Y063543
X068465Y063543
X069646Y063543
X069252Y063543
X068858Y063543
X070039Y063543
X068071Y06315
X068465Y06315
X070039Y06315
X069646Y06315
X069252Y06315
X068858Y06315
X068071Y062756
X068465Y062756
X068858Y062756
X069646Y062756
X069252Y062756
X070039Y062756
X068465Y062362
X068071Y062362
X069646Y062362
X069252Y062362
X070039Y062362
X068858Y062362
X068071Y061969
X068465Y061969
X069646Y061969
X068858Y061969
X070039Y061969
X069252Y061969
X068465Y061575
X068071Y061575
X068858Y061575
X070039Y061575
X069252Y061575
X069646Y061575
X069646Y061181
X070039Y061181
X068858Y061181
X068071Y061181
X068465Y061181
X069252Y061181
X069252Y060787
X069646Y060787
X068465Y060394
X070039Y060394
X069646Y060394
X068858Y060394
X068071Y060394
X069252Y060394
X069252Y06
X070039Y06
X069646Y06
X068071Y06
X068465Y06
X068858Y06
X068071Y059606
X068465Y059606
X068858Y059606
X070039Y059606
X069252Y059606
X069646Y059606
X068858Y059213
X069252Y059213
X069646Y059213
X070039Y059213
X069663Y058823
X068858Y058819
X070039Y058819
X068071Y058819
X068465Y058819
X070394Y058425
X070039Y058425
X068465Y058425
X069252Y058425
X069646Y058425
X070039Y058031
X068858Y058031
X069646Y058031
X068071Y058031
X068465Y058031
X069252Y058031
X068465Y057638
X069252Y057638
X068858Y057638
X070039Y057638
X069646Y057638
X068465Y057244
X068071Y057244
X068858Y057244
X070039Y057244
X069646Y057244
X069252Y057244
X069646Y05685
X069252Y05685
X070039Y05685
X068071Y05685
X068465Y05685
X068465Y056457
X069252Y056457
X070039Y056457
X068071Y056457
X069646Y056457
X068465Y056063
X068858Y056063
X070039Y056063
X069252Y056063
X069646Y056063
X069252Y055669
X068465Y055669
X068071Y055669
X069646Y055669
X068858Y055669
X070039Y055669
X068465Y055276
X068858Y055276
X069646Y055276
X068071Y055276
X069252Y055276
X070039Y055276
X068071Y054882
X069646Y054882
X070039Y054882
X069252Y054882
X068858Y054882
X068465Y054488
X068071Y054488
X069252Y054488
X068858Y054488
X070039Y054488
X069646Y054488
X068465Y054094
X068858Y054094
X069646Y054094
X069252Y054094
X070039Y054094
X068071Y054094
X068858Y053701
X070039Y053701
X068071Y053701
X068465Y053701
X069646Y053701
X069252Y053701
X068071Y053307
X068465Y053307
X070039Y053307
X069646Y053307
X068858Y053307
X069252Y053307
X068071Y052913
X068858Y052913
X069252Y052913
X070039Y052913
X069646Y052913
X068465Y05252
X068858Y05252
X069646Y05252
X070039Y05252
X069252Y05252
X070039Y052126
X068465Y052126
X068465Y051732
X068465Y051378
X068071Y051339
X068071Y051102
X068465Y05
X068465Y049134
X070039Y048583
X068465Y048583
X069252Y048583
X069252Y048189
X070039Y048189
X068465Y048189
X068858Y043071
X067913Y025945
X068189Y025945
X069685Y025945
X069961Y025945
X070276Y025433
X06878Y025433
X068504Y025433
X06937Y025433
X069094Y025433
X069964Y022962
X068783Y022962
X069374Y022962
X068193Y022962
X069107Y022961
X067926Y022961
X070288Y022961
X068517Y022961
X069698Y022961
X070669Y018425
X07063Y019646
X072323Y022953
X072047Y022953
X070879Y022961
X07147Y022961
X070555Y022962
X071145Y022962
X071736Y022962
X072323Y025315
X072047Y025315
X070551Y025433
X070866Y025433
X071142Y025433
X071457Y025945
X071732Y025945
X071263Y041523
X072008Y043071
X072402Y048189
X070827Y048189
X071614Y048189
X070827Y048583
X071614Y048583
X072402Y048583
X072402Y052126
X071614Y05252
X072008Y05252
X072402Y05252
X072795Y05252
X070827Y052913
X071614Y052913
X072008Y052913
X072402Y052913
X072795Y052913
X070433Y052913
X072402Y053307
X072008Y053307
X07122Y053307
X070827Y053307
X072795Y053307
X070433Y053307
X071614Y053307
X070827Y053701
X072795Y053701
X071614Y053701
X072008Y053701
X072402Y053701
X070433Y053701
X07122Y053701
X070827Y054094
X07122Y054094
X072795Y054094
X072008Y054094
X072402Y054094
X070433Y054094
X071614Y054094
X072869Y054414
X07122Y054488
X071614Y054488
X070827Y054488
X072402Y054488
X072008Y054488
X070433Y054488
X072402Y054882
X072008Y054882
X070827Y054882
X071614Y054882
X07122Y054882
X070433Y054882
X072358Y055276
X070827Y055276
X071614Y055276
X07122Y055276
X072008Y055276
X070433Y055276
X072795Y055276
X07122Y055669
X070433Y055669
X070827Y055669
X072008Y055669
X072795Y055669
X072402Y055669
X071614Y055669
X070433Y056063
X07122Y056063
X071614Y056063
X070827Y056063
X072008Y056063
X072402Y056063
X070433Y056457
X071614Y056457
X07122Y056457
X070827Y056457
X072402Y056457
X070433Y05685
X07122Y05685
X072008Y05685
X072402Y05685
X071614Y05685
X070827Y05685
X070433Y057244
X070827Y057244
X072795Y057244
X072402Y057244
X07122Y057244
X072008Y057244
X072402Y057638
X070433Y057638
X07122Y057638
X071614Y057638
X070827Y057638
X072008Y057638
X070433Y058031
X070827Y058031
X072402Y058031
X071614Y058031
X07122Y058031
X072008Y058031
X072795Y058057
X07122Y058398
X070827Y058425
X071614Y058425
X071614Y058819
X072008Y058819
X070827Y058819
X070433Y058819
X07122Y05887
X072413Y059212
X072008Y059213
X070433Y059213
X071614Y059213
X072835Y059252
X07122Y059264
X071614Y059606
X070433Y059606
X072402Y059606
X070827Y059606
X07122Y059606
X072008Y059961
X072795Y06
X071614Y06
X070827Y06
X072402Y06
X070433Y06
X07122Y060394
X072008Y060394
X071614Y060394
X072441Y060394
X070827Y060394
X072008Y060787
X072413Y060787
X071614Y060787
X070827Y060787
X070433Y060787
X07122Y060787
X070827Y061181
X07122Y061181
X070433Y061181
X071614Y061181
X072008Y061181
X070827Y061575
X070433Y061575
X072008Y061575
X072402Y061575
X07122Y061575
X071614Y061575
X072008Y061969
X070827Y061969
X07122Y061969
X070433Y061969
X071614Y061969
X070433Y062362
X072008Y062362
X071614Y062362
X07122Y062362
X070827Y062362
X072008Y062756
X072402Y062756
X071614Y062756
X070433Y062756
X07122Y062756
X070827Y062756
X070433Y06315
X071614Y06315
X070827Y06315
X072008Y06315
X07122Y06315
X072402Y06315
X070827Y063504
X071614Y063543
X070433Y063543
X072008Y063543
X07122Y063543
X071614Y063937
X072008Y063937
X070433Y063937
X07122Y063937
X070827Y063937
X072008Y064331
X07122Y064331
X071614Y064331
X070433Y064331
X070827Y064331
X072008Y064724
X070827Y064724
X07122Y064724
X071614Y064724
X070433Y064724
X072402Y065118
X072008Y065118
X072813Y065373
X072402Y065512
X071024Y066575
X071811Y066575
X071417Y066575
X072441Y068346
X07126Y069567
X070709Y070039
X072795Y070236
X072795Y07378
X072795Y075354
X073937Y068346
X073863Y066234
X073663Y065823
X073858Y06374
X074123Y063583
X073858Y063346
X073858Y062953
X073858Y062559
X073976Y061772
X073976Y061378
X072913Y061378
X074979Y061181
X075329Y061181
X072913Y060984
X07315Y060748
X074606Y06063
X074981Y060394
X075337Y060394
X075Y059606
X072992Y059016
X074764Y058976
X075337Y058819
X074981Y058819
X074331Y05874
X07315Y058465
X073858Y058268
X074331Y058268
X075331Y058031
X074724Y057638
X072992Y057638
X075333Y057244
X072992Y057047
X0746Y057023
X074724Y056811
X072992Y056654
X072992Y056339
X074713Y056323
X074252Y055669
X072992Y055079
X073189Y054685
X073739Y053701
X074355Y053307
X07498Y05252
X075336Y05252
X07498Y051732
X075331Y051732
X074978Y050945
X075334Y050945
X073976Y048583
X073189Y048583
X073976Y048189
X073189Y048189
X075157Y043071
X073478Y016598
X077494Y015574
X079541Y015574
X077494Y016598
X079541Y016598
X076163Y041973
X078307Y043071
X080266Y046845
X076732Y047008
X080266Y047958
X079848Y048581
X078735Y048581
X078307Y048583
X076732Y048583
X080013Y050073
X078307Y050157
X076732Y050157
X08026Y053538
X079713Y053873
X080301Y054651
X077894Y055276
X077534Y055276
X079763Y056073
X077894Y05626
X077545Y056261
X077894Y057244
X0777Y0574
X075866Y058031
X076118Y058279
X080363Y059973
X077736Y060197
X0795Y0602
X07811Y060256
X079Y06055
X080163Y060923
X078091Y060984
X07835Y061373
X07748Y061378
X078863Y061473
X078091Y061772
X07748Y062165
X075512Y062205
X075787Y062835
X076063Y063465
X075512Y064094
X080313Y064823
X078463Y066323
X079567Y068228
X079567Y068661
X078932Y070816
X080045Y070829
X080045Y071961
X078932Y071979
X079567Y073407
X075945Y07378
X078504Y07378
X075945Y075354
X078504Y075354
X081858Y074336
X080666Y073549
X080671Y072436
X08126Y071614
X082047Y071614
X080866Y071614
X081654Y07122
X082441Y07122
X082835Y07122
X081294Y071187
X081654Y070827
X082047Y070827
X082835Y070827
X081654Y070433
X082441Y070433
X082047Y070433
X08126Y070039
X081654Y070039
X082441Y070039
X082047Y070039
X082835Y070039
X082047Y069646
X081654Y069646
X08126Y069646
X082441Y069646
X082835Y069646
X08126Y069276
X082047Y069252
X082441Y069252
X081654Y069252
X082835Y069252
X08126Y068858
X082047Y068858
X082441Y068858
X081654Y068858
X082835Y068858
X080581Y068552
X081654Y068465
X082047Y068465
X082441Y068465
X082835Y068465
X082047Y068071
X082441Y068071
X081654Y068071
X082835Y068071
X082047Y067677
X082441Y067677
X081654Y067677
X082835Y067677
X082047Y067283
X081654Y067283
X08126Y067283
X082441Y067283
X082835Y067283
X081654Y06689
X082047Y06689
X082441Y06689
X082835Y06689
X081654Y066496
X082047Y066496
X082441Y066496
X082835Y066496
X081654Y066102
X082835Y066102
X082047Y066102
X082441Y066102
X082047Y065709
X082441Y065709
X081654Y065709
X08126Y065709
X080866Y065709
X080894Y065023
X080697Y064826
X08173Y062829
X080659Y06279
X082855Y061181
X08045Y06065
X082638Y060394
X082677Y058425
X082402Y057874
X082335Y056318
X081169Y056025
X080866Y053701
X082441Y053701
X082047Y053701
X082047Y053307
X08126Y053307
X081654Y053307
X082441Y053307
X082835Y053307
X08085Y053223
X08126Y052913
X082835Y052913
X081654Y05252
X082047Y05252
X082441Y05252
X08126Y052126
X081654Y052126
X082047Y052126
X082441Y052126
X082835Y052126
X08126Y051732
X082047Y051732
X082441Y051732
X081654Y051732
X082835Y051732
X08126Y051339
X082835Y051339
X082047Y051339
X082441Y051339
X081654Y051339
X082835Y050945
X082047Y050945
X082441Y050945
X081654Y050945
X080514Y050748
X082441Y050551
X082047Y050551
X082835Y050551
X08126Y050551
X081654Y050551
X082835Y050157
X081654Y050157
X082441Y050157
X082047Y050157
X082835Y049764
X081654Y049764
X082441Y049764
X082047Y049764
X08126Y04937
X082047Y04937
X081654Y04937
X082835Y04937
X082441Y04937
X082835Y048976
X081654Y048976
X082047Y048976
X082441Y048976
X08126Y048583
X082835Y048583
X081654Y048583
X082047Y048583
X082441Y048583
X081654Y048189
X082047Y048189
X082441Y048189
X080866Y047795
X081654Y047795
X082047Y047795
X082441Y047795
X080963Y047073
X082341Y045152
X081306Y045152
X081546Y044271
X081614Y043307
X081063Y043307
X081588Y016598
X081588Y015574
X083557Y015496
X083557Y016519
X084754Y036851
X084747Y037187
X083424Y045152
X084537Y045152
X083228Y047795
X083622Y047795
X084016Y047795
X084803Y047795
X085295Y047958
X083622Y048189
X085197Y048189
X083228Y048189
X084409Y048189
X084016Y048189
X084803Y048189
X083228Y048583
X083622Y048583
X084803Y048583
X083622Y048976
X083228Y048976
X084803Y048976
X083228Y04937
X083622Y04937
X084803Y04937
X085197Y04937
X084409Y049764
X083622Y049764
X085197Y049764
X083228Y049764
X084803Y050157
X084409Y050157
X083622Y050157
X083228Y050157
X084409Y050551
X083228Y050551
X084016Y050551
X083622Y050551
X084803Y050551
X084803Y050945
X083622Y050945
X083228Y050945
X083228Y051339
X083622Y051339
X084803Y051339
X084409Y051732
X084803Y051732
X083622Y051732
X083228Y051732
X083622Y052126
X083228Y052126
X084803Y052126
X084803Y05252
X083228Y05252
X083622Y05252
X084409Y05252
X084803Y052913
X083622Y052913
X083228Y052913
X083622Y053307
X084016Y053307
X084803Y053307
X084409Y053307
X085295Y053538
X083438Y054354
X084539Y056305
X083155Y056305
X085217Y057244
X083012Y057244
X084213Y057526
X084606Y057598
X084961Y057598
X083425Y057638
X083819Y057638
X084589Y058014
X083425Y058031
X083819Y058031
X085013Y058073
X083386Y058425
X083819Y058425
X085Y058425
X084606Y058427
X085383Y058808
X083425Y058819
X085Y058819
X084606Y058819
X083819Y058819
X084263Y058823
X083032Y058883
X083051Y059603
X084606Y059606
X083819Y059606
X083425Y059606
X085Y059606
X083425Y06
X083071Y06
X083819Y06
X084606Y06
X085Y06
X083071Y060394
X085Y060394
X083819Y060394
X084606Y060394
X083425Y060394
X083425Y060787
X085Y060787
X083031Y060787
X083819Y060787
X084606Y060866
X083209Y061181
X085236Y06122
X082945Y062829
X084184Y062829
X083622Y065664
X084016Y065664
X083228Y065664
X084409Y065709
X085295Y065872
X085197Y066102
X084803Y066102
X083228Y066102
X083622Y066102
X083228Y066496
X083622Y066496
X084803Y066496
X084803Y06689
X083228Y06689
X083622Y06689
X084409Y06689
X085197Y067283
X083622Y067283
X083228Y067283
X084803Y067677
X083622Y067677
X083228Y067677
X084409Y067677
X084409Y068071
X083622Y068071
X084803Y068071
X083228Y068071
X084803Y068465
X083228Y068465
X084016Y068465
X084409Y068465
X083622Y068465
X084803Y068858
X083228Y068858
X083622Y068858
X085197Y069252
X083622Y069252
X083228Y069252
X085197Y069646
X083622Y069646
X083228Y069646
X084409Y069646
X083622Y070039
X084803Y070039
X083228Y070039
X083622Y070433
X083228Y070433
X084803Y070433
X084803Y070827
X083622Y070827
X085197Y070827
X083228Y070827
X084803Y07122
X084016Y07122
X083622Y07122
X084409Y07122
X085295Y071451
X083221Y074336
X084731Y074336
X089488Y086732
X08935Y085723
X086457Y081575
X090275Y078335
X090039Y075512
X090197Y075197
X085709Y073799
X088106Y072595
X089219Y072582
X085597Y072565
X085601Y071451
X088431Y070462
X08843Y069343
X086142Y068465
X088431Y068393
X085413Y068012
X08843Y067428
X086352Y066598
X08843Y066466
X086579Y065872
X085575Y065872
X087774Y065591
X085583Y064758
X086564Y064758
X08815Y062008
X089331Y062008
X08874Y062008
X085571Y061181
X08815Y061142
X089331Y061142
X08874Y061142
X085394Y060787
X085774Y060407
X085394Y060394
X085394Y06
X085394Y059606
X085866Y059331
X089449Y059252
X085435Y059202
X085787Y058819
X0863Y058773
X085394Y058461
X085787Y058425
X086163Y058223
X085394Y057638
X085571Y057244
X088325Y054894
X085585Y054651
X088337Y05378
X088312Y05251
X088312Y051529
X090118Y051142
X090354Y050945
X088313Y050545
X088312Y04956
X088313Y048567
X089331Y048071
X085614Y047958
X086588Y047958
X085602Y046845
X0866Y046845
X089606Y044134
X090354Y044094
X08963Y043045
X090366Y043014
X090118Y042638
X089764Y04248
X089764Y040906
X087598Y031969
X086063Y031772
X08878Y031772
X08878Y030709
X087513Y030523
X087572Y016598
X089474Y016598
X087572Y015574
X089474Y015574
X091667Y015574
X091352Y016244
X092441Y027126
X092244Y036929
X090906Y037441
X09063Y037598
X092244Y037913
X091693Y037953
X092244Y038307
X092244Y038898
X092047Y039094
X092244Y039291
X092047Y039488
X092244Y039685
X092087Y039882
X092087Y040276
X092244Y040669
X092244Y041063
X090669Y041496
X091417Y042008
X092021Y042818
X092021Y043409
X091339Y052559
X091457Y053504
X091339Y053898
X092363Y054173
X091457Y054291
X091457Y054685
X091457Y055079
X091457Y055472
X091457Y055866
X092323Y055866
X092323Y056299
X091614Y057677
X090591Y057835
X091378Y058307
X091378Y05878
X090394Y059252
X091378Y059252
X091378Y059724
X092362Y059764
X091378Y060394
X092598Y061102
X09189Y061142
X090512Y061142
X092598Y061968
X090512Y062008
X09189Y062008
X09252Y062362
X09252Y062835
X09252Y063346
X090984Y064764
X090984Y06563
X09252Y06878
X091929Y06878
X091339Y06878
X091929Y069646
X09252Y069646
X091339Y069646
X091063Y07813
X092087Y079488
X090709Y079685
X091457Y086772
X092402Y086772
X090512Y086811
X092848Y090614
X092848Y091165
X092887Y094472
X092966Y095259
X095079Y084606
X096772Y084606
X096496Y083031
X094843Y082598
X094488Y082008
X095079Y081457
X096457Y080669
X094291Y071417
X096213Y070423
X093701Y069646
X09311Y069646
X094882Y069646
X095472Y069646
X094291Y069646
X094882Y06878
X095472Y06878
X09311Y06878
X093701Y06878
X094291Y06878
X09622Y066102
X095827Y066102
X095433Y066102
X097413Y065723
X096614Y065709
X09622Y065709
X095827Y065709
X095433Y065709
X097008Y065709
X096614Y065315
X09622Y065315
X095827Y065315
X095433Y065315
X097008Y065315
X095433Y064921
X096614Y064921
X09622Y064921
X095827Y064921
X097008Y064921
X095433Y064528
X095827Y064528
X096614Y064528
X097402Y064528
X097795Y064528
X097008Y064528
X095433Y064134
X095827Y064134
X09622Y064134
X095827Y06374
X095433Y06374
X09622Y06374
X097402Y06374
X096614Y06374
X097698Y06372
X097698Y063366
X09622Y063346
X095433Y063346
X095827Y063346
X096614Y063346
X097402Y063346
X096614Y062953
X09622Y062953
X095827Y062953
X097402Y062953
X097698Y06272
X096614Y062559
X09622Y062559
X097402Y062559
X097698Y062366
X095433Y062165
X095827Y062165
X096614Y062165
X09622Y062165
X097402Y062165
X096181Y061772
X095433Y061772
X096614Y061772
X095827Y061772
X097402Y061772
X097698Y06172
X095827Y061378
X095433Y061378
X09622Y061378
X096614Y061378
X097402Y061378
X097698Y061366
X095827Y060984
X095433Y060984
X096614Y060984
X09622Y060984
X097402Y060984
X097698Y06082
X095459Y060616
X095827Y060591
X096614Y060591
X09622Y060591
X097402Y060591
X097698Y060466
X095276Y060354
X096614Y060197
X095827Y060197
X09622Y060197
X097402Y060197
X097697Y059921
X09622Y059803
X096614Y059803
X097402Y059803
X097698Y059566
X095827Y059409
X09622Y059409
X097402Y059409
X097698Y05902
X097008Y059016
X096614Y059016
X097402Y059016
X097698Y058666
X09622Y058622
X095433Y058622
X097402Y058622
X096614Y058622
X095827Y058622
X095827Y058294
X097402Y058228
X096614Y058228
X095433Y058228
X097698Y05812
X097402Y057835
X09622Y057835
X09586Y057816
X095422Y057794
X096614Y057783
X097698Y057766
X096614Y057441
X09622Y057441
X097402Y057441
X095827Y057441
X095433Y0574
X097698Y05722
X09622Y057047
X097402Y057047
X095827Y057047
X095433Y057047
X096614Y057047
X097698Y056866
X095825Y056654
X093071Y056654
X097402Y056654
X09622Y056654
X096614Y056654
X095433Y056654
X097402Y05626
X097698Y05622
X095825Y055866
X097402Y055866
X096614Y055866
X097698Y055866
X097402Y055472
X09622Y055472
X096614Y055472
X097402Y055079
X097402Y054739
X096614Y054685
X095433Y054685
X09622Y054685
X097795Y054685
X09622Y054291
X095827Y054291
X097008Y054291
X096614Y054291
X09622Y053898
X096614Y053898
X095433Y053898
X095827Y053898
X095827Y053504
X095433Y053504
X09622Y053504
X096614Y053504
X097008Y05311
X09622Y05311
X095827Y05311
X095433Y05311
X095433Y052717
X095827Y052717
X09695Y052523
X097205Y047992
X096024Y047992
X097612Y045062
X097218Y045062
X096824Y045062
X094462Y044826
X096627Y044826
X095446Y044826
X095053Y044826
X09584Y044826
X097809Y044826
X094068Y044826
X093675Y044826
X097021Y044826
X097415Y044826
X094659Y043921
X095643Y043921
X096431Y043921
X093871Y043921
X094265Y043921
X096037Y043921
X096732Y04378
X097533Y043763
X09742Y043413
X093163Y043015
X093346Y042441
X093385Y042048
X093163Y038123
X093163Y037723
X097047Y027165
X093504Y027126
X094488Y027126
X095512Y027126
X096244Y017662
X09418Y015321
X099764Y01374
X098031Y027165
X100079Y027165
X099055Y027165
X100157Y035512
X099764Y035512
X099961Y036417
X098399Y043921
X098793Y043921
X098596Y044826
X099186Y044826
X098202Y044826
X099777Y044826
X098005Y045062
X098189Y046654
X099173Y052362
X098189Y052717
X099764Y052717
X098976Y052717
X100157Y052717
X098189Y05311
X099764Y05311
X100157Y05311
X098976Y05311
X100157Y053504
X098583Y053504
X098976Y053504
X09937Y053504
X100157Y053898
X098583Y053898
X098976Y053898
X09937Y053898
X099764Y053898
X098583Y054291
X09937Y054291
X098976Y054291
X098583Y054685
X098189Y054685
X09937Y054685
X099764Y054685
X098976Y054685
X100189Y054717
X09825Y054981
X10035Y054981
X099996Y054981
X098996Y054981
X09935Y054981
X097896Y054981
X100335Y055769
X09998Y055769
X098485Y055882
X099076Y055886
X098485Y056236
X099076Y05624
X098485Y056882
X099587Y057145
X099941Y057145
X098485Y057236
X099665Y057657
X098504Y057776
X099665Y058012
X098504Y05813
X099665Y058557
X098504Y058641
X099665Y058912
X098504Y058994
X099665Y059457
X098504Y059509
X099665Y059812
X098504Y059863
X099665Y060357
X098504Y060415
X099665Y060712
X098504Y060764
X099665Y061257
X098504Y061396
X099665Y061612
X098504Y061748
X098504Y062381
X099807Y0624
X099453Y0624
X098504Y062726
X09939Y06305
X099744Y06305
X10029Y06305
X099857Y063838
X098602Y063838
X098957Y063838
X099502Y063838
X099764Y064134
X09937Y064134
X100157Y064134
X098583Y064528
X098976Y064528
X098189Y064528
X098189Y065315
X099764Y065709
X100157Y068504
X100354Y074213
X09933Y075039
X099567Y083031
X099606Y083819
X100326Y083819
X099134Y087638
X098031Y093543
X101617Y102083
X101783Y101917
X1017Y10015
X10135Y0993
X102205Y083819
X101732Y083819
X100916Y083819
X102677Y083819
X100433Y073465
X102047Y068504
X10122Y068465
X101339Y066102
X101732Y065709
X101339Y065315
X101732Y065315
X102126Y065315
X10252Y065315
X10252Y064528
X102126Y064528
X101339Y064528
X101732Y064528
X100551Y064134
X100945Y064134
X101402Y063838
X102302Y063838
X100402Y063838
X100757Y063838
X101757Y063838
X102657Y063838
X100644Y06305
X101644Y06305
X102544Y06305
X10129Y06305
X10219Y06305
X102007Y061884
X101652Y061884
X102752Y061884
X100571Y061871
X100925Y061871
X100551Y061378
X101339Y061378
X101732Y061378
X100945Y061378
X10252Y061378
X102126Y061378
X101339Y060984
X100551Y060984
X101732Y060984
X100945Y060984
X10252Y060984
X102126Y060984
X101732Y060591
X100551Y060591
X101339Y060591
X100945Y060591
X10252Y060591
X102126Y060591
X100551Y060197
X101339Y060197
X101732Y060197
X100945Y060197
X10252Y060197
X102126Y060197
X101339Y059803
X101732Y059803
X100551Y059803
X100945Y059803
X10252Y059803
X102126Y059803
X10252Y059409
X100551Y059409
X102126Y059409
X100945Y059409
X101339Y059409
X101732Y059409
X101732Y059016
X100551Y059016
X102126Y059016
X10252Y059016
X100945Y059016
X101339Y059016
X101732Y058622
X100551Y058622
X102126Y058622
X100945Y058622
X10252Y058622
X101339Y058622
X101339Y058228
X100945Y058228
X100551Y058228
X101732Y058228
X102126Y058228
X10252Y058228
X101339Y057835
X100945Y057835
X100551Y057835
X102126Y057835
X10252Y057835
X101732Y057835
X100847Y057147
X102587Y057145
X101841Y057145
X100487Y057145
X101487Y057145
X102335Y055769
X101235Y055769
X10198Y055769
X10088Y055769
X100996Y054981
X10135Y054981
X102746Y05498
X102392Y05498
X100551Y054685
X102126Y054685
X101339Y054685
X100945Y054685
X10252Y054685
X101732Y054685
X101339Y053898
X10252Y053898
X100551Y053898
X100945Y053898
X101732Y053898
X102126Y053898
X101339Y053504
X100945Y053504
X100551Y053504
X10252Y053504
X101732Y053504
X100551Y05311
X100945Y05311
X102126Y05311
X101732Y05311
X10252Y05311
X100945Y052717
X101339Y052717
X10252Y052717
X100551Y052717
X101929Y047244
X101929Y046299
X101588Y043409
X100669Y042638
X101575Y042441
X100708Y042245
X101574Y042048
X101575Y041063
X102638Y031811
X10277Y02238
X102603Y022213
X102323Y015512
X10333Y020206
X10373Y020206
X104913Y026373
X103701Y031811
X104606Y031811
X104513Y045523
X105315Y049695
X104094Y052717
X104882Y052717
X103701Y052717
X102913Y052717
X103307Y052717
X103701Y05311
X102913Y05311
X105276Y05311
X104882Y05311
X103307Y05311
X104094Y05311
X104488Y05311
X103701Y053504
X104488Y053504
X104094Y053504
X105276Y053504
X104882Y053504
X102913Y053504
X103307Y053504
X103701Y053898
X104094Y053898
X103307Y053898
X105276Y053898
X104882Y053898
X102913Y053898
X104488Y053898
X102913Y054685
X104882Y054685
X104488Y054685
X104094Y054685
X103701Y054685
X103307Y054685
X105276Y054685
X103196Y054981
X10355Y054981
X105096Y054981
X104468Y055
X104116Y055
X103435Y055769
X10308Y055769
X10408Y055769
X104435Y055769
X104587Y05687
X102936Y057127
X103787Y057145
X104141Y057145
X104587Y057224
X103701Y057441
X102913Y057835
X104094Y057835
X103307Y057835
X104606Y05805
X104094Y058228
X102913Y058228
X103307Y058228
X103701Y058228
X104606Y058402
X104094Y058622
X102913Y058622
X103701Y058622
X103307Y058622
X104094Y059016
X103701Y059016
X102913Y059016
X103307Y059016
X104606Y059034
X104606Y059393
X104094Y059409
X102913Y059409
X103701Y059409
X103307Y059409
X104094Y059803
X103307Y059803
X103701Y059803
X102913Y059803
X104587Y05997
X103701Y060197
X102913Y060197
X104094Y060197
X103307Y060197
X104587Y060324
X103307Y060591
X102913Y060591
X104094Y060591
X103701Y060591
X104587Y06087
X102913Y060984
X104094Y060984
X103307Y060984
X103701Y060984
X104587Y061224
X103701Y061378
X103307Y061378
X104094Y061378
X102913Y061378
X105176Y06187
X104007Y061884
X103652Y061884
X10311Y06189
X105176Y062224
X10439Y06305
X10329Y06305
X103644Y06305
X104744Y06305
X103757Y063838
X104502Y063838
X104857Y063838
X103402Y063838
X104488Y064134
X102913Y064134
X104882Y064134
X104094Y064134
X103307Y064134
X105276Y064134
X103701Y064134
X104488Y064528
X104094Y064528
X105276Y064921
X104882Y064921
X104488Y064921
X104094Y064921
X104094Y065315
X104488Y065315
X105276Y065315
X103701Y065315
X104882Y065315
X103701Y065709
X104094Y065709
X104882Y065709
X104882Y066102
X104488Y066102
X103071Y068504
X10311Y083819
X105131Y097976
X105908Y090769
X107613Y090576
X107638Y066102
X107244Y066102
X10685Y065709
X107244Y065709
X105669Y065315
X106457Y065315
X107638Y065315
X106063Y065315
X10685Y064921
X106063Y064921
X105669Y064921
X107638Y064921
X107244Y064921
X107638Y064528
X107244Y064528
X107244Y064134
X106457Y064134
X106063Y064134
X105669Y064134
X107638Y064134
X105957Y063838
X105602Y063838
X107244Y06374
X107638Y06374
X106359Y063508
X107244Y063346
X107638Y063346
X106359Y063154
X105844Y06305
X10549Y06305
X107244Y062953
X107244Y062559
X10685Y0625
X106554Y06224
X105767Y06224
X106554Y061886
X105767Y061886
X10685Y061772
X10685Y061378
X106554Y06124
X105767Y06124
X10685Y060984
X107638Y060984
X105767Y060886
X106554Y060886
X10685Y060591
X107638Y060591
X106554Y06034
X105767Y06024
X10685Y060197
X107638Y060197
X106554Y059986
X105767Y059886
X107244Y059803
X107638Y059803
X107638Y059409
X107244Y059409
X105748Y05939
X106554Y05934
X105748Y059034
X107638Y059016
X107244Y059016
X106554Y058986
X107244Y058622
X107638Y058622
X105748Y058405
X106554Y05824
X10685Y058228
X107638Y058228
X105748Y05805
X106554Y057886
X107638Y057835
X10685Y057835
X107638Y057441
X10685Y057441
X105767Y05724
X106554Y05724
X107638Y057047
X10685Y057047
X105767Y056886
X106554Y056886
X107638Y056654
X10685Y056654
X107244Y05626
X107638Y05626
X106554Y05624
X105767Y05624
X106554Y055886
X105767Y055886
X107638Y055866
X107244Y055866
X107638Y055472
X107244Y055472
X107244Y055079
X107638Y055079
X106196Y054981
X10655Y054981
X10545Y054981
X105669Y054685
X107244Y054685
X106063Y054685
X107638Y054685
X107244Y054291
X107638Y054291
X106063Y054291
X106457Y054291
X10685Y054291
X105669Y053898
X10685Y053898
X106457Y053898
X107638Y053898
X107244Y053898
X106063Y053898
X10685Y053504
X106063Y053504
X107638Y053504
X106457Y053504
X107244Y053504
X105669Y053504
X105669Y05311
X106063Y05311
X106457Y05311
X107244Y05311
X107638Y05311
X10685Y05311
X106063Y052717
X106457Y052717
X10685Y052717
X107454Y040141
X106063Y039528
X107191Y039459
X106063Y038523
X107205Y037441
X105709Y036654
X11Y032165
X10899Y033803
X11Y033858
X108858Y036614
X10815Y037795
X108098Y038138
X108819Y03937
X108189Y040433
X108031Y052717
X108425Y052717
X108819Y052717
X108031Y05311
X108425Y05311
X108819Y05311
X108425Y053504
X108031Y053504
X108819Y053504
X108937Y05378
X108425Y053898
X108031Y053898
X108425Y054291
X108819Y054291
X108031Y054291
X108819Y054685
X108425Y054685
X108031Y054685
X108031Y055079
X108425Y055079
X108819Y055079
X108819Y055472
X108425Y055472
X108031Y055472
X108425Y055866
X108031Y055866
X108031Y05626
X108425Y05626
X108031Y056654
X108425Y056654
X108425Y057047
X108819Y057047
X108031Y057047
X108031Y057441
X108425Y057441
X108819Y057441
X108425Y057835
X108031Y057835
X108819Y057835
X108425Y058228
X108031Y058228
X108819Y058228
X108819Y058622
X108031Y058622
X108425Y058622
X108819Y059016
X108031Y059016
X108425Y059016
X108031Y059409
X108819Y059409
X108425Y059409
X108425Y059803
X108031Y059803
X108031Y060197
X108819Y060197
X108425Y060197
X108031Y060591
X108425Y060591
X108819Y060591
X108819Y060984
X108031Y060984
X108425Y060984
X108937Y061575
X110315Y061575
X108031Y061772
X110315Y061969
X109213Y061969
X109213Y062362
X110315Y062362
X109646Y062874
X109213Y06315
X110276Y063543
X109213Y063543
X108031Y06374
X108399Y063766
X108845Y064108
X108399Y06416
X108425Y064528
X108031Y064921
X108425Y064921
X108031Y065315
X108425Y065315
X108819Y065315
X108425Y065709
X108031Y065709
X108819Y065709
X108819Y066102
X108425Y066102
X108031Y066102
X1103Y0674
X109567Y088661
X112402Y063937
X114016Y063937
X112441Y06315
X113465Y06315
X112362Y062362
X114016Y062362
X11485Y05685
X1149Y0564
X1149Y05615
X1118Y05605
X112205Y036299
X112795Y03626
X111102Y033858
X11315Y032126
X116076Y021598
X117572Y021519
X124383Y018803
X118202Y021677
X120964Y023465
X121692Y023465
X119868Y025809
X125289Y026755
X119331Y027008
X119331Y027362
X1201Y027573
X125919Y03337
X126667Y033645
X126194Y033724
X126903Y033999
X127297Y03459
X126155Y035692
X126785Y035771
X127415Y035771
X127494Y038055
X126942Y038055
X126378Y04313
X126378Y04372
X126378Y044114
X126378Y044705
X126378Y045177
X126378Y045768
X127809Y046244
X126378Y04872
X126378Y049311
X126378Y049902
X126378Y050492
X126378Y050965
X126378Y051555
X126378Y052697
X126378Y053287
X127887Y055692
X125311Y059803
X125112Y060197
X124764Y062953
X127809Y097267
X1271Y100732
X128675Y096244
X129226Y055653
X128753Y046283
X128832Y038488
X128793Y037582
X128517Y036952
T2C.00984F0S0
X05513Y068465
X055906Y068465
X055512Y068465
X056287Y068465
X057874Y068465
X057492Y068465
X057272Y069173
X056114Y069173
X05689Y069173
X056496Y069173
X060209Y069173
X060591Y069173
X061366Y069173
X060984Y069173
X062571Y069173
X062953Y069173
X063728Y069173
X063346Y069173
X065315Y069173
X064933Y069173
X058268Y068465
X05865Y068465
X061969Y068465
X062362Y068465
X064331Y068465
X064724Y068465
X063949Y068465
X065106Y068465
X061587Y068465
X062744Y068465
X066693Y068465
X067087Y068465
X066311Y068465
X067469Y068465
X069055Y068465
X069449Y068465
X068673Y068465
X069831Y068465
X071417Y068465
X071811Y068465
X071035Y068465
X072193Y068465
X067677Y069173
X067295Y069173
X070039Y069173
X069657Y069173
X070815Y069173
X070433Y069173
X068453Y069173
X068071Y069173
X066091Y069173
X065709Y069173
X072677Y098346
X072295Y098346
X071783Y099331
X072165Y099331
X072559Y099331
X072941Y099331
X073819Y099331
X074213Y099331
X073437Y099331
X074594Y099331
X077454Y099314
X077848Y099314
X077072Y099314
X074777Y09837
X074383Y09837
X075159Y09837
X074001Y09837
X073071Y098346
X073453Y098346
X07761Y098346
X076693Y069252
X076299Y069252
X077075Y069252
X075917Y069252
X073425Y069213
X074201Y069213
X073043Y069213
X073819Y069213
X074776Y068504
X075551Y068504
X075157Y068504
X075933Y068504
X080053Y09833
X079659Y09833
X079277Y09833
X080434Y09833
X085183Y09833
X078386Y098346
X077992Y098346
X078768Y098346
X084291Y098346
X083898Y098346
X084673Y098346
X083516Y098346
X079134Y099291
X079528Y099291
X079909Y099291
X078752Y099291
X085039Y099291
X084657Y099291
X08336Y099314
X083753Y099314
X082978Y099314
X07823Y099314
X084135Y099314
X088714Y099314
X089108Y099314
X088332Y099314
X08949Y099314
X085815Y099291
X085433Y099291
X090354Y099291
X089972Y099291
X090748Y099291
X09113Y099291
X089213Y098346
X089988Y098346
X088831Y098346
X089606Y098346
X08634Y09833
X085564Y09833
X085958Y09833
X091273Y09833
X090879Y09833
X091655Y09833
X090497Y09833
T3C.01F095S3
X01145Y037356
X01198Y037417
X012043Y059022
X010653Y059352
X012043Y059372
X012014Y059732
X010916Y060676
X01091Y061492
X012813Y061842
X012323Y061852
X012573Y061852
X011293Y062312
X012312Y0627
X012854Y0627
X011474Y062705
X011471Y063213
X012312Y063217
X012809Y063228
X011474Y063467
X012316Y063717
X011472Y063724
X012816Y063724
X012553Y064562
X012813Y064562
X012303Y064572
X012633Y064902
X010514Y066312
X010523Y066672
X010514Y067012
X010528Y068201
X012848Y068212
X010543Y068582
X012853Y068582
X012848Y06896
X010528Y068992
X012848Y06959
X010528Y069601
X010533Y069982
X012853Y069992
X012848Y070377
X010528Y070392
X010487Y070966
X012863Y070991
X010533Y071382
X012863Y071392
X010528Y071782
X012863Y071782
X010487Y072406
X012853Y072442
X012863Y072802
X010533Y072802
X010528Y073192
X012863Y073192
X011323Y074201
X011362Y07487
X010803Y093417
X010803Y094417
X010803Y095417
X010803Y096417
X010787Y103701
X014709Y103685
X014709Y098685
X014724Y080079
X014724Y078079
X014767Y076076
X014193Y072772
X013463Y072302
X015083Y071087
X015093Y070692
X015067Y070306
X015083Y069687
X015073Y069332
X015037Y068946
X015083Y068287
X015063Y067892
X015057Y067526
X014541Y067031
X014543Y066672
X015113Y066332
X014541Y066283
X015103Y065972
X015103Y065632
X013253Y064872
X013333Y064562
X013073Y064562
X013337Y063728
X014223Y063722
X015143Y063482
X014213Y063462
X01333Y063217
X014203Y063212
X014203Y062952
X01333Y0627
X015143Y062342
X013073Y061842
X013251Y061468
X013241Y061058
X013643Y060812
X013257Y060652
X019108Y065614
X019073Y065982
X019108Y066322
X017297Y067503
X017336Y067897
X017418Y068287
X017418Y068895
X017393Y069282
X01743Y069658
X017418Y070295
X017423Y070702
X017418Y071087
X017008Y072441
X016024Y072441
X017008Y072953
X015984Y073031
X017047Y073583
X015984Y073622
X016024Y074094
X017008Y074134
X01748Y07815
X018237Y079685
X018596Y079685
X020039Y080276
X01829Y080866
X01864Y080866
X018285Y082047
X018644Y082047
X016496Y083031
X018306Y083228
X018652Y083228
X016496Y083425
X016496Y083819
X017677Y084606
X018286Y085984
X018639Y085984
X018286Y087165
X018642Y087165
X016142Y099134
X016142Y099685
X016417Y10374
X016417Y104213
X023173Y105462
X026053Y103212
X027053Y103212
X023173Y101524
X02152Y100188
X021832Y099676
X026903Y096872
X027063Y095712
X027063Y093892
X023583Y091575
X026535Y091496
X021417Y078289
X024961Y078287
X027323Y078287
X022598Y078287
X026142Y078285
X02378Y078285
X022598Y077933
X027323Y077933
X021417Y077933
X02378Y077933
X026142Y077932
X024961Y077932
X026653Y052841
X026102Y052841
X026378Y052605
X024803Y052408
X026102Y052369
X026653Y052369
X026378Y052172
X026614Y051936
X026102Y051936
X026772Y050637
X027165Y049849
X025551Y032047
X022228Y026091
X025968Y0255
X023016Y024713
X023016Y023138
X032086Y043944
X032677Y049849
X032677Y050833
X027953Y052605
X029212Y053235
X03144Y076743
X032354Y077126
X029291Y077933
X029291Y078289
X031475Y078898
X031828Y078898
X031831Y080079
X031475Y080079
X031475Y08126
X031834Y08126
X031473Y082244
X031831Y082244
X031476Y083228
X031831Y083228
X031831Y084409
X031473Y084409
X031478Y085591
X03183Y085591
X032074Y087268
X032093Y087637
X029603Y092932
X032103Y093072
X028103Y093142
X029643Y093852
X031003Y093872
X029633Y094202
X030523Y095502
X032033Y096552
X027923Y096612
X030053Y103212
X029053Y103212
X028053Y103212
X032053Y103212
X031053Y103212
X034053Y103212
X033053Y103212
X035053Y103212
X040253Y103212
X033053Y097502
X035043Y097262
X034112Y094758
X033753Y093902
X034016Y088543
X038491Y088393
X035061Y088383
X040125Y088097
X035071Y087893
X035073Y087391
X039271Y087193
X035057Y086892
X037261Y085843
X03874Y056457
X038346Y055472
X038346Y054449
X038346Y053307
X038346Y052165
X038346Y050984
X038386Y049803
X038346Y048583
X038346Y047205
X038346Y046024
X038386Y044724
X033071Y04355
X038346Y043071
X038346Y041535
X038858Y017953
X038858Y016575
X035491Y015689
X035982Y015689
X040328Y015614
X042297Y015692
X044186Y015692
X042554Y016301
X044882Y041102
X044843Y058622
X044843Y060984
X045236Y067205
X045236Y072677
X043429Y086061
X040739Y086903
X045266Y086903
X040739Y087403
X045266Y087403
X045266Y087903
X045266Y088403
X044226Y088404
X040718Y088404
X04343Y089555
X042418Y090831
X044422Y090884
X042303Y093072
X044453Y093632
X041363Y093782
X044483Y093992
X044413Y095432
X041353Y095712
X042176Y096596
X041043Y097052
X042253Y103212
X041253Y103212
X044253Y103212
X043253Y103212
X045253Y103212
X046253Y103212
X047253Y103212
X048253Y103212
X049253Y103212
X049253Y100107
X049217Y097442
X050117Y097442
X046393Y096472
X048053Y095422
X049567Y094282
X048053Y093882
X045473Y093812
X048857Y093692
X046503Y093132
X047605Y092992
X050027Y091992
X048594Y088398
X047953Y071614
X047883Y066091
X047795Y06315
X047795Y062362
X047795Y059016
X047795Y058228
X045551Y055669
X046535Y054488
X047079Y015614
X048281Y015614
X050328Y015614
X052297Y015614
X054344Y015614
X052302Y016632
X053898Y043071
X053701Y061969
X053701Y063543
X051614Y064685
X050551Y065118
X051614Y065118
X051339Y066496
X050945Y066496
X050945Y06689
X051339Y06689
X050472Y068071
X051614Y068661
X051614Y069055
X050512Y069055
X051614Y070236
X050591Y07063
X050945Y072008
X051339Y072008
X050945Y072402
X051339Y072402
X050394Y073622
X051614Y074173
X050551Y074567
X051614Y074567
X054488Y083425
X055276Y089055
X054803Y089055
X053818Y089272
X055039Y089291
X053818Y089528
X054803Y089528
X055276Y089528
X055039Y089764
X053818Y089783
X054803Y09
X055276Y09
X05311Y090315
X050967Y092042
X054414Y092205
X050967Y093122
X054573Y094762
X053443Y095362
X053443Y096462
X054673Y097212
X051917Y097442
X051017Y097442
X053543Y097812
X053543Y098912
X054723Y099662
X053593Y100262
X053593Y101362
X054723Y102112
X053573Y102712
X053573Y103812
X057673Y103822
X057423Y103112
X055873Y102862
X057873Y102062
X057673Y101612
X057403Y100652
X055873Y100412
X057609Y099662
X057623Y099162
X057363Y098202
X055823Y097962
X057893Y097112
X057523Y096712
X057273Y095762
X055723Y095512
X057509Y094762
X057458Y091457
X055748Y09
X056734Y089783
X055512Y089764
X056734Y089528
X055748Y089528
X055512Y089291
X056734Y089272
X055748Y089094
X057047Y06
X057047Y059213
X057047Y058425
X057047Y057638
X056654Y05685
X056654Y056063
X057047Y056063
X056654Y055276
X057047Y054488
X056654Y053701
X057047Y052913
X056654Y052913
X057047Y052126
X056654Y051339
X057047Y050551
X05626Y044646
X056391Y015614
X05836Y015614
X060259Y015685
X058622Y043071
X058622Y054488
X058346Y055669
X058228Y056457
X058622Y05685
X058307Y058031
X058622Y058425
X059016Y06
X058228Y060394
X059606Y066575
X059803Y083425
X059921Y089055
X058936Y089272
X060157Y089291
X058936Y089528
X059921Y089528
X060157Y089764
X058936Y089783
X059921Y09
X058228Y090315
X059362Y092125
X058623Y095262
X058623Y095762
X058623Y096262
X058273Y096262
X058773Y097612
X058773Y098112
X058773Y098612
X058373Y098712
X058773Y100112
X058773Y100612
X058773Y101112
X058423Y101162
X058803Y102592
X058803Y103092
X058793Y103592
X058423Y103612
X060073Y105582
X061013Y105592
X062283Y105592
X061353Y105582
X063563Y105582
X064893Y105582
X060693Y105572
X061983Y105572
X064493Y105572
X063213Y105572
X064093Y103592
X063223Y101824
X062823Y101812
X063623Y101812
X064053Y101102
X063223Y099344
X062823Y099332
X063623Y099332
X064143Y098602
X063223Y096844
X063623Y096832
X062823Y096832
X064113Y096252
X063223Y094494
X063623Y094482
X062823Y094482
X064488Y092165
X062756Y091339
X063346Y090315
X060394Y09
X060866Y09
X065039Y089961
X061852Y089783
X064055Y089783
X06063Y089764
X065276Y089724
X064054Y089528
X061852Y089528
X060394Y089528
X060866Y089528
X065039Y089488
X06063Y089291
X064054Y089272
X061852Y089272
X065276Y089252
X060866Y089094
X060394Y089055
X065039Y089016
X064921Y083425
X060984Y044646
X063346Y043071
X064016Y017362
X060827Y015685
X065906Y015315
X065709Y043071
X068858Y044646
X068702Y06968
X066024Y069685
X065512Y089016
X065984Y089055
X065748Y089252
X06697Y089272
X065984Y089488
X065512Y089488
X06697Y089528
X065748Y089724
X06697Y089783
X065984Y089961
X065512Y089961
X06752Y091378
X066726Y094435
X067726Y094435
X068726Y094435
X065626Y094435
X067505Y100857
X067807Y10113
X068109Y101418
X068354Y101677
X067443Y102992
X067893Y103102
X072537Y101933
X073466Y101933
X073127Y101929
X074309Y101929
X073718Y101929
X073923Y101929
X074899Y101929
X075151Y101929
X072598Y066575
X075335Y059606
X075332Y056457
X074548Y055669
X07437Y054685
X075157Y044646
X072008Y044646
X072205Y019646
X072516Y018425
X070669Y015711
X071257Y015707
X073478Y015614
X075525Y015614
X075525Y016559
X078307Y044646
X078307Y047008
X07998Y047958
X078735Y048287
X079848Y048287
X078735Y048878
X079848Y048878
X079606Y050354
X079606Y050748
X07998Y053538
X07998Y054651
X078968Y056296
X080374Y06279
X078931Y070531
X080045Y070531
X078932Y071122
X080045Y071122
X078931Y071673
X080045Y071673
X078932Y072264
X080045Y072264
X080374Y072435
X080374Y073549
X079567Y07376
X076671Y101921
X07786Y101925
X07634Y101925
X076084Y101929
X077009Y101929
X077261Y101929
X079033Y101929
X078442Y101933
X079623Y101933
X080214Y101933
X07549Y101936
X081483Y102682
X081706Y101965
X080805Y101933
X081986Y101933
X081395Y101933
X083757Y101933
X083167Y101933
X084938Y101933
X08258Y101929
X084348Y101929
X081555Y074336
X084429Y074336
X082933Y074336
X082146Y074336
X083524Y074336
X08502Y074336
X080965Y073549
X085295Y072565
X080965Y072435
X085295Y064758
X081437Y062829
X082657Y062829
X083878Y062829
X082028Y062829
X083248Y062829
X084469Y062829
X080965Y06279
X082297Y056834
X084272Y056305
X082854Y056305
X083445Y056305
X084862Y056305
X085295Y054651
X080571Y054651
X080571Y053538
X080571Y047958
X085295Y046845
X080571Y046845
X084232Y045152
X081004Y045152
X08313Y045152
X082067Y045152
X083721Y045152
X081595Y045152
X084823Y045152
X082658Y045152
X085604Y015614
X085604Y016559
X086037Y027362
X086825Y027362
X087612Y027362
X089187Y027362
X0884Y027362
X089974Y027362
X089331Y046614
X085886Y046845
X08687Y046845
X08628Y046845
X085886Y047958
X08687Y047958
X086279Y047958
X089724Y04815
X088313Y048287
X088313Y048878
X088313Y049272
X089331Y049291
X089685Y049291
X090079Y049291
X089488Y049528
X089882Y049567
X089331Y049803
X089685Y049803
X090079Y049843
X088313Y049862
X088313Y050256
X086102Y050362
X086101Y050748
X088313Y050847
X089528Y051024
X088313Y05124
X088313Y051831
X088313Y052224
X088313Y052815
X085886Y053538
X088626Y05378
X088036Y05378
X085886Y054651
X088626Y054893
X088036Y054894
X085886Y064758
X08687Y064758
X08628Y064758
X088129Y065591
X08687Y065872
X085886Y065872
X086279Y065872
X088431Y066161
X088431Y066752
X088431Y067146
X088431Y067736
X088431Y068091
X088431Y068681
X088431Y069035
X088431Y069626
X088431Y070177
X088431Y070768
X085886Y071451
X088106Y072293
X089219Y072293
X085886Y072565
X088106Y072884
X089219Y072884
X085709Y07415
X090276Y076575
X090276Y077087
X088482Y101925
X089663Y101929
X086123Y101929
X087583Y101932
X090249Y101933
X089072Y101933
X087887Y101933
X086706Y101933
X085529Y101933
X087301Y101933
X087393Y102712
X092103Y102672
X092913Y101942
X090844Y101933
X091431Y101933
X093206Y101933
X093793Y101933
X092025Y101929
X092616Y101929
X093087Y088518
X094667Y088518
X093087Y087818
X094667Y087818
X093087Y087118
X094667Y087118
X093087Y086518
X094667Y086518
X091301Y079628
X090664Y078228
X092087Y077717
X09405Y077406
X091024Y077126
X09063Y077087
X090827Y07685
X090433Y076811
X09063Y076575
X091024Y076575
X090866Y075433
X0951Y072906
X09409Y072406
X09511Y071906
X095236Y067087
X094134Y064882
X094134Y064528
X094134Y064094
X094843Y063031
X094843Y062717
X092598Y05878
X092835Y058307
X09311Y053504
X091299Y048386
X093484Y044979
X095254Y043691
X094864Y043691
X093416Y043613
X094254Y042896
X094614Y042891
X093735Y04202
X093735Y041666
X093416Y041653
X093735Y04052
X093735Y040166
X093416Y040073
X093735Y03902
X093416Y038713
X093735Y038666
X094354Y037046
X094709Y037046
X093416Y036853
X093674Y036566
X09311Y032205
X095118Y032205
X094094Y032205
X090762Y027362
X099764Y015315
X096095Y015671
X095447Y015671
X097819Y017662
X096654Y032205
X097717Y032205
X098701Y032205
X099685Y032205
X097424Y036666
X096634Y036666
X09565Y036666
X098604Y036666
X100144Y036666
X096834Y036966
X097709Y037046
X097354Y037046
X096209Y037046
X095854Y037046
X099209Y037046
X098854Y037046
X099828Y038666
X099828Y03902
X099828Y040166
X099828Y04052
X099828Y041666
X099828Y04202
X099409Y042896
X099054Y042896
X100114Y043691
X099Y043768
X09937Y05126
X09878Y05126
X098189Y05126
X099961Y05126
X097598Y05126
X100264Y051909
X098496Y05191
X097205Y06651
X096417Y066693
X096811Y06689
X096024Y067087
X09563Y067106
X097598Y067187
X09819Y071406
X09712Y071906
X09943Y072446
X09871Y072586
X09885Y073056
X09943Y073946
X098976Y073976
X09885Y074786
X09822Y075496
X09704Y075906
X099218Y084235
X095873Y085935
X100129Y086292
X100326Y086489
X099381Y086635
X099184Y086832
X099381Y087028
X099184Y087225
X099787Y087245
X097123Y087385
X099381Y087422
X099787Y087599
X099381Y08821
X099787Y088229
X099184Y088406
X099787Y088584
X099381Y088997
X099184Y089194
X099787Y089213
X095597Y089218
X099787Y089568
X099381Y089784
X095597Y089818
X099184Y089981
X099381Y090178
X099787Y090198
X099184Y090375
X095597Y090408
X099787Y090552
X099381Y090965
X095597Y091018
X099184Y091162
X099787Y091182
X099787Y091536
X095597Y091618
X099381Y091753
X099184Y09195
X099787Y092166
X095597Y092218
X099787Y092521
X095597Y092918
X099381Y093131
X099787Y09315
X099184Y093328
X099787Y093505
X095597Y093518
X100326Y093879
X095597Y094218
X099538Y094272
X100129Y094272
X095597Y094818
X099947Y101282
X100447Y101702
X101457Y101702
X102467Y101692
X101947Y101322
X100957Y101292
X101457Y100632
X100467Y100612
X102477Y100602
X101437Y100272
X102437Y100272
X100447Y100242
X102063Y096082
X102343Y096072
X100522Y094272
X101704Y094272
X10131Y094272
X102688Y094272
X100719Y093879
X101507Y093879
X1019Y093879
X102491Y093879
X102885Y093879
X100668Y093343
X101018Y093343
X100542Y092542
X100542Y092188
X102207Y087541
X101853Y087541
X101026Y086753
X102207Y086753
X101853Y086753
X100672Y086753
X101507Y086489
X102491Y086489
X10131Y086292
X102294Y086292
X100449Y076199
X100449Y075449
X100449Y074949
X100449Y074449
X100449Y073199
X100449Y072699
X100449Y072199
X100449Y071949
X100449Y071699
X101142Y05126
X101732Y05126
X100551Y05126
X100441Y043624
X100441Y043034
X100441Y040274
X100441Y039484
X100441Y036744
X102012Y032151
X102433Y025321
X102333Y020373
X102333Y020018
X10256Y019296
X102303Y019113
X102567Y018909
X102303Y018768
X10233Y016906
X10283Y016906
X10433Y016906
X10533Y016906
X10483Y016906
X10533Y017896
X10483Y017906
X10353Y018186
X103661Y018976
X103386Y018976
X103661Y019252
X103386Y019252
X104493Y019302
X104987Y019858
X10353Y020069
X104987Y020213
X103956Y021208
X103221Y025321
X104134Y025395
X104055Y026024
X102913Y026457
X104055Y026457
X102913Y02689
X103993Y032151
X103017Y032151
X103881Y039643
X104981Y039993
X104634Y040001
X103881Y040343
X104633Y040614
X104981Y040643
X103881Y040943
X104981Y041293
X104631Y041305
X103229Y071699
X103229Y071949
X103229Y072199
X103229Y072449
X103229Y072699
X103229Y072949
X103229Y073199
X103229Y073449
X103229Y073699
X103229Y073949
X103229Y074199
X103229Y074449
X103229Y074949
X103229Y075699
X103229Y076199
X103971Y083699
X104459Y086292
X103869Y086292
X103278Y086292
X103475Y086489
X104263Y086489
X104786Y086635
X103034Y086753
X103389Y086753
X104589Y086832
X104786Y087028
X104589Y087225
X104274Y087245
X104786Y087422
X104274Y087599
X104589Y087619
X104786Y08821
X104274Y088229
X104589Y088406
X104274Y088584
X104786Y088997
X104589Y089194
X104274Y089213
X104274Y089568
X104786Y089981
X104589Y090178
X104274Y090198
X104274Y090552
X104274Y091182
X104274Y091536
X104786Y091556
X104589Y091753
X104786Y09195
X104589Y092147
X104274Y092166
X103492Y092188
X104274Y092521
X103492Y092542
X104786Y092737
X103773Y092845
X104589Y092934
X104274Y09315
X104786Y093328
X103128Y093363
X103488Y093373
X104274Y093505
X104786Y093721
X104459Y093879
X104066Y093879
X103672Y093879
X103081Y094272
X104263Y094272
X103869Y094272
X105113Y096785
X103437Y100262
X103427Y100612
X102957Y101302
X107927Y102661
X108438Y102621
X109659Y099984
X107651Y098606
X109423Y097385
X107613Y096795
X10737Y095156
X107653Y094235
X106323Y093525
X105967Y093524
X10765Y093146
X105967Y093131
X106623Y092835
X10786Y091556
X10786Y091026
X10802Y089966
X106531Y089588
X10781Y089346
X10845Y088296
X110051Y052854
X110101Y05208
X106654Y048071
X108307Y043543
X107346Y025108
X105637Y024872
X106746Y024608
X107346Y024208
X109707Y020243
X106893Y020213
X10823Y020069
X109707Y019888
X106893Y019858
X109193Y019302
X107267Y019302
X108071Y019252
X108346Y019252
X106893Y019103
X108071Y018976
X108346Y018976
X107267Y018909
X106893Y018748
X10823Y018142
X10582Y018086
X11003Y017976
X10953Y017956
X10703Y016906
X10903Y016906
X10753Y016906
X10953Y016816
X11003Y016816
X111588Y033881
X112297Y034275
X110486Y035692
X111273Y035692
X112182Y051507
X113173Y051514
X110889Y052039
X113667Y052039
X110744Y052236
X112127Y052431
X113667Y052433
X112459Y052433
X111793Y052434
X112772Y052438
X110889Y052629
X112771Y052735
X112444Y052753
X11213Y052758
X11179Y05277
X110744Y052826
X112771Y053077
X11213Y05308
X112442Y053092
X11179Y053109
X111793Y053414
X112772Y053414
X112419Y053416
X11211Y053416
X113663Y053417
X110885Y05381
X113168Y054289
X112183Y054289
X120354Y099409
X119921Y094331
X120197Y094291
X117809Y090614
X117809Y088684
X119631Y055693
X119231Y055693
X119631Y054893
X119231Y054893
X119231Y054093
X119631Y054093
X119231Y053293
X119631Y053293
X119631Y052493
X119231Y052493
X119631Y051693
X119231Y051693
X119631Y050893
X119231Y050893
X119631Y050093
X119231Y050093
X119231Y049293
X119631Y049293
X119231Y048493
X119631Y048493
X119231Y047693
X119631Y047693
X119631Y046893
X119231Y046893
X119631Y046093
X119231Y046093
X119231Y045093
X119631Y045093
X119631Y044093
X119231Y044093
X119231Y043093
X119631Y043093
X119631Y042093
X119231Y042093
X119231Y041093
X119631Y041093
X119631Y040093
X119231Y040093
X119231Y039093
X119631Y039093
X119879Y02616
X124588Y042538
X125157Y06126
X125315Y061496
X125157Y061772
X124771Y064963
X122618Y074291
X122402Y086614
X121008Y087635
X122427Y08862
X120975Y089437
X1224Y090612
X122248Y091658
X12205Y091891
X122382Y092096
X123617Y092294
X123057Y092458
X121699Y092458
X12436Y092462
X122692Y09247
X123532Y092788
X121118Y092795
X122474Y092795
X123765Y09319
X124365Y093559
X121699Y093568
X123061Y093568
X121732Y094252
X120591Y094291
X121969Y095512
X125197Y095512
X121496Y095551
X121417Y099409
X122598Y099409
X124055Y099409
X125157Y099409
X126142Y099409
X125709Y095512
X126535Y064724
X12626Y063268
X125511Y062913
X125906Y061811
X125512Y061772
X125709Y061535
X125512Y06126
X125906Y06126
X127323Y060787
X125706Y060199
T4C.02362F197S55
X035098Y012507
X033878Y012507
X035098Y013294
X033878Y013294
X035098Y014082
X033878Y014082
X035098Y014869
X033878Y014869
X038913Y014983
X039712Y014983
X036319Y014869
X038311Y014294
X039311Y014294
X040311Y014294
X036319Y014082
X037913Y013605
X038712Y013605
X039913Y013605
X036319Y013294
X039712Y012621
X038913Y012621
X036319Y012507
X039311Y011932
X038311Y011932
X040311Y011932
X039913Y011243
X037913Y011243
X038712Y011243
X040712Y011243
X041913Y011243
X042712Y011243
X043913Y011243
X044712Y011243
X041311Y011932
X042311Y011932
X043311Y011932
X044311Y011932
X045311Y011932
X040913Y012621
X041712Y012621
X042913Y012621
X043712Y012621
X044913Y012621
X040712Y013605
X041913Y013605
X042712Y013605
X043913Y013605
X044712Y013605
X042311Y014294
X041311Y014294
X043311Y014294
X044311Y014294
X045311Y014294
X043712Y014983
X044913Y014983
X041712Y014983
X040913Y014983
X042913Y014983
X045712Y014983
X046913Y014983
X047712Y014983
X048913Y014983
X049712Y014983
X046311Y014294
X047311Y014294
X048311Y014294
X049311Y014294
X050311Y014294
X047913Y013605
X048712Y013605
X049913Y013605
X045913Y013605
X046712Y013605
X048913Y012621
X049712Y012621
X046913Y012621
X045712Y012621
X047712Y012621
X046311Y011932
X048311Y011932
X047311Y011932
X049311Y011932
X050311Y011932
X046712Y011243
X048712Y011243
X049913Y011243
X047913Y011243
X045913Y011243
X050712Y011243
X051913Y011243
X052712Y011243
X053913Y011243
X054712Y011243
X051311Y011932
X052311Y011932
X053311Y011932
X054311Y011932
X055311Y011932
X050913Y012621
X051712Y012621
X052913Y012621
X053712Y012621
X054913Y012621
X050712Y013605
X051913Y013605
X052712Y013605
X053913Y013605
X054712Y013605
X052311Y014294
X051311Y014294
X053311Y014294
X054311Y014294
X055311Y014294
X053712Y014983
X054913Y014983
X051712Y014983
X050913Y014983
X052913Y014983
X055712Y014983
X056913Y014983
X057712Y014983
X059901Y014869
X062342Y014869
X061122Y014869
X056311Y014294
X057311Y014294
X059901Y014082
X062342Y014082
X061122Y014082
X055913Y013605
X056712Y013605
X059901Y013294
X062342Y013294
X061122Y013294
X057712Y012621
X055712Y012621
X056913Y012621
X061122Y012507
X059901Y012507
X062342Y012507
X057311Y011932
X056311Y011932
X056712Y011243
X055913Y011243
X070348Y012507
X069128Y012507
X071569Y012507
X069128Y013294
X070348Y013294
X071569Y013294
X069128Y014082
X070348Y014082
X071569Y014082
X071569Y014869
X070348Y014869
X069128Y014869
X074163Y014983
X074962Y014983
X076163Y014983
X076962Y014983
X074561Y014294
X077561Y014294
X075561Y014294
X076561Y014294
X073561Y014294
X073962Y013605
X075163Y013605
X075962Y013605
X077163Y013605
X073163Y013605
X074962Y012621
X074163Y012621
X076163Y012621
X076962Y012621
X076561Y011932
X077561Y011932
X074561Y011932
X073561Y011932
X075561Y011932
X075163Y011243
X073962Y011243
X073163Y011243
X075962Y011243
X077163Y011243
X077962Y011243
X079163Y011243
X079962Y011243
X081163Y011243
X081962Y011243
X079561Y011932
X078561Y011932
X080561Y011932
X081561Y011932
X082561Y011932
X078163Y012621
X080163Y012621
X080962Y012621
X082163Y012621
X078962Y012621
X077962Y013605
X081163Y013605
X081962Y013605
X079163Y013605
X079962Y013605
X082561Y014294
X078561Y014294
X079561Y014294
X080561Y014294
X081561Y014294
X080163Y014983
X078163Y014983
X082163Y014983
X080962Y014983
X078962Y014983
X084163Y014983
X084962Y014983
X082962Y014983
X086163Y014983
X086962Y014983
X084561Y014294
X085561Y014294
X086561Y014294
X087561Y014294
X083561Y014294
X083163Y013605
X083962Y013605
X085163Y013605
X085962Y013605
X087163Y013605
X084163Y012621
X086962Y012621
X082962Y012621
X084962Y012621
X086163Y012621
X083561Y011932
X084561Y011932
X085561Y011932
X087561Y011932
X086561Y011932
X083962Y011243
X085962Y011243
X087163Y011243
X085163Y011243
X083163Y011243
X087962Y011243
X089163Y011243
X089962Y011243
X091962Y011243
X091163Y011243
X088561Y011932
X089561Y011932
X091561Y011932
X092561Y011932
X090561Y011932
X088163Y012621
X088962Y012621
X092163Y012621
X090163Y012621
X090962Y012621
X087962Y013605
X089163Y013605
X091962Y013605
X089962Y013605
X091163Y013605
X090561Y014294
X091561Y014294
X088561Y014294
X089561Y014294
X092561Y014294
X092163Y014983
X088962Y014983
X090962Y014983
X088163Y014983
X090163Y014983
X092962Y014983
X095151Y014869
X097592Y014869
X096372Y014869
X096372Y014082
X097592Y014082
X095151Y014082
X096372Y013294
X095151Y013294
X097592Y013294
X092962Y012621
X095151Y012507
X096372Y012507
X097592Y012507
T5C.02559F197S55
X12268Y010689G85X12268Y010965
T6C.02756F197S55
X034177Y025039
X034927Y025433
X034177Y025826
X034927Y02622
X034177Y026614
X034927Y027007
X034177Y027401
X034927Y027795
X034177Y028189
X034927Y028582
X034177Y028976
X034927Y02937
X034177Y029763
X034927Y030157
X034177Y030551
X034927Y030944
X034177Y031338
X034927Y031732
X034177Y032126
X034927Y032519
X034177Y032913
X034927Y033307
X034177Y0337
X034927Y034094
X034177Y034488
X034927Y034881
X034177Y035275
X034927Y035669
X034177Y036063
X034927Y036456
X034177Y03685
X034927Y037244
X034177Y037637
X034927Y038031
X034177Y038425
X034927Y038819
X034177Y039212
X034927Y039606
X034177Y04
X034927Y040393
X034177Y040787
X034927Y041181
X034177Y041574
X034927Y041968
X034177Y042362
X034927Y042756
X034177Y043149
X034927Y043543
X034177Y043937
X034927Y04433
X034177Y044724
X034927Y045118
X034177Y045511
X034927Y045905
X034177Y046299
X034927Y046693
X034177Y047086
X034927Y04748
X034177Y047874
X034927Y048267
X034177Y048661
X034927Y049055
X034177Y049448
X034927Y049842
X034177Y051811
X034927Y052204
X034177Y052598
X034927Y052992
X034177Y053385
X034927Y053779
X034177Y054173
X034927Y054567
X034177Y05496
X034927Y055354
X034177Y055748
X034927Y056141
X034177Y056535
X034927Y056929
X034177Y057322
X034927Y057716
X034177Y05811
X034927Y058504
X034177Y058897
X034927Y059291
X034177Y059685
X034927Y060078
X034177Y060472
X034927Y060866
X034177Y061259
X034927Y061653
X034177Y062047
X034927Y062441
X034177Y062834
X034927Y063228
X034177Y063622
X034927Y064015
X034177Y064409
X034927Y064803
X034177Y065196
X034927Y06559
X034177Y065984
X034927Y066378
X034177Y066771
X034927Y067165
X034177Y067559
X034927Y067952
X034177Y068346
X034927Y06874
X034177Y069133
X034927Y069527
X034177Y069921
X034927Y070315
X034177Y070708
X034927Y071102
X034177Y071496
X034927Y071889
X034177Y072283
X034927Y072677
X034177Y07307
X034927Y073464
X036429Y073464
X035679Y07307
X036429Y072677
X035679Y072283
X036429Y071889
X035679Y071496
X036429Y071102
X035679Y070708
X036429Y070315
X035679Y069921
X036429Y069527
X035679Y069133
X036429Y06874
X035679Y068346
X036429Y067952
X035679Y067559
X036429Y067165
X035679Y066771
X036429Y066378
X035679Y065984
X036429Y06559
X035679Y065196
X036429Y064803
X035679Y064409
X036429Y064015
X035679Y063622
X036429Y063228
X035679Y062834
X036429Y062441
X035679Y062047
X036429Y061653
X035679Y061259
X036429Y060866
X035679Y060472
X036429Y060078
X035679Y059685
X036429Y059291
X035679Y058897
X036429Y058504
X035679Y05811
X036429Y057716
X035679Y057322
X036429Y056929
X035679Y056535
X036429Y056141
X035679Y055748
X036429Y055354
X035679Y05496
X036429Y054567
X035679Y054173
X036429Y053779
X035679Y053385
X036429Y052992
X035679Y052598
X036429Y052204
X035679Y051811
X036429Y049842
X035679Y049433
X036429Y049055
X035679Y048645
X036429Y048267
X035679Y047858
X036429Y04748
X035679Y04707
X036429Y046693
X035679Y046283
X036429Y045905
X035679Y045496
X036429Y045118
X035679Y044708
X036429Y04433
X035679Y043921
X036429Y043543
X035679Y043133
X036429Y042756
X035679Y042346
X036429Y041968
X035679Y041559
X036429Y041181
X035679Y040771
X036429Y040393
X035679Y039984
X036429Y039606
X035679Y039196
X036429Y038819
X035679Y038409
X036429Y038031
X035679Y037622
X036429Y037244
X035679Y036834
X036429Y036456
X035679Y036047
X036429Y035669
X035679Y035259
X036429Y034881
X035679Y034472
X036429Y034094
X035679Y033685
X036429Y033307
X035679Y032897
X036429Y032519
X035679Y03211
X036429Y031732
X035679Y031322
X036429Y030944
X035679Y030535
X036429Y030157
X035679Y029748
X036429Y02937
X035679Y02896
X036429Y028582
X035679Y028173
X036429Y027795
X035679Y027385
X036429Y027007
X035679Y026598
X036429Y02622
X035679Y025811
X036429Y025433
X035679Y025023
X122449Y024998
X120947Y024998
X121697Y025392
X122449Y025785
X120947Y025785
X121697Y026179
X122449Y026573
X120947Y026573
X121697Y026966
X122449Y02736
X120947Y02736
X121697Y027754
X122449Y028147
X120947Y028147
X121697Y028541
X122449Y028935
X120947Y028935
X121697Y029329
X122449Y029722
X120947Y029722
X121697Y030116
X122449Y03051
X120947Y03051
X121697Y030903
X122449Y031297
X120947Y031297
X121697Y031691
X122449Y032084
X120947Y032084
X121697Y032478
X122449Y032872
X120947Y032872
X121697Y033266
X122449Y033659
X120947Y033659
X121697Y034053
X122449Y034447
X120947Y034447
X121697Y03484
X122449Y035234
X120947Y035234
X121697Y035628
X122449Y036021
X120947Y036021
X121697Y036415
X120947Y036809
X122449Y036809
X121697Y037203
X120947Y037596
X122449Y037596
X121697Y03799
X120947Y038384
X122449Y038384
X121697Y038777
X120947Y039171
X122449Y039171
X121697Y039565
X120947Y039959
X122449Y039959
X121697Y040352
X120947Y040746
X122449Y040746
X121697Y04114
X120947Y041533
X122449Y041533
X121697Y041927
X120947Y042321
X122449Y042321
X121697Y042714
X120947Y043108
X122449Y043108
X121697Y043502
X120947Y043896
X122449Y043896
X121697Y044289
X120947Y044683
X122449Y044683
X121697Y045077
X120947Y04547
X122449Y04547
X121697Y045864
X120947Y046258
X122449Y046258
X121697Y046651
X120947Y04862
X122449Y04862
X121697Y049029
X120947Y049407
X122449Y049407
X121697Y049817
X120947Y050195
X122449Y050195
X121697Y050604
X120947Y050982
X122449Y050982
X121697Y051392
X120947Y05177
X122449Y05177
X121697Y052179
X120947Y052557
X122449Y052557
X121697Y052966
X120947Y053344
X122449Y053344
X121697Y053754
X120947Y054132
X122449Y054132
X121697Y054541
X120947Y054919
X122449Y054919
X121697Y055329
X120947Y055707
X122449Y055707
X121697Y056116
X122449Y056494
X120947Y056494
X121697Y056903
X120947Y057281
X122449Y057281
X121697Y057691
X120947Y058069
X122449Y058069
X121697Y058478
X122449Y058856
X120947Y058856
X121697Y059266
X120947Y059644
X122449Y059644
X121697Y060053
X120947Y060431
X122449Y060431
X121697Y06084
X122449Y061218
X120947Y061218
X121697Y061628
X120947Y062006
X122449Y062006
X121697Y062415
X120947Y062793
X122449Y062793
X121697Y063203
X122449Y063581
X120947Y063581
X121697Y06399
X120947Y064368
X122449Y064368
X121697Y064777
X120947Y065155
X122449Y065155
X121697Y065565
X122449Y065943
X120947Y065943
X121697Y066352
X120947Y06673
X122449Y06673
X121697Y06714
X120947Y067518
X122449Y067518
X121697Y067927
X120947Y068305
X122449Y068305
X121697Y068714
X120947Y069092
X122449Y069092
X121697Y069502
X120947Y06988
X122449Y06988
X121697Y070289
X120947Y070667
X122449Y070667
X121697Y071077
X120947Y071455
X122449Y071455
X121697Y071864
X120947Y072242
X122449Y072242
X121697Y072651
X122449Y073029
X120947Y073029
X121697Y073439
X123199Y073423
X123199Y072636
X123199Y071848
X123199Y071061
X123199Y070273
X123199Y069486
X123199Y068699
X123199Y067911
X123199Y067124
X123199Y066336
X123199Y065549
X123199Y064762
X123199Y063974
X123199Y063187
X123199Y062399
X123199Y061612
X123199Y060825
X123199Y060037
X123199Y05925
X123199Y058462
X123199Y057675
X123199Y056888
X123199Y0561
X123199Y055313
X123199Y054525
X123199Y053738
X123199Y052951
X123199Y052163
X123199Y051376
X123199Y050588
X123199Y049801
X123199Y049014
X123199Y046651
X123199Y045864
X123199Y045077
X123199Y044289
X123199Y043502
X123199Y042714
X123199Y041927
X123199Y04114
X123199Y040352
X123199Y039565
X123199Y038777
X123199Y03799
X123199Y037203
X123199Y036415
X123199Y035628
X123199Y03484
X123199Y034053
X123199Y033266
X123199Y032478
X123199Y031691
X123199Y030903
X123199Y030116
X123199Y029329
X123199Y028541
X123199Y027754
X123199Y026966
X123199Y026179
X123199Y025392
T7C.032F197S55
X101339Y071949
X101339Y072949
X101339Y073949
X101339Y074949
X101339Y075949
T8C.035F197S55
X099446Y098773
X099946Y099773
X098946Y099773
X099586Y103873
X098586Y103873
X102806Y103873
X103806Y103873
X100946Y099773
X101946Y099773
X102946Y099773
X101446Y098773
X102446Y098773
X103446Y098773
X100446Y098773
X12532Y088747
X12432Y088747
X12632Y088747
X12732Y088747
X12632Y089747
X12432Y089747
X12732Y089747
X12532Y089747
X12832Y089747
X12832Y088747
T9C.03543F197S55
X112379Y098719
X112879Y099719
X113879Y099719
X114879Y099719
X115879Y099719
X113379Y098719
X115379Y098719
X114379Y098719
X128163Y033291
X128163Y026204
X128163Y023566
X128163Y01648
T10C.03622F197S55
X107218Y101007
X106234Y101007
X10899Y101007
X108005Y101007
T11C.03937F197S55
X086444Y028948
X090394Y028998
X096564Y084213
X096614Y080263
T12C.03937F197S55
X016012Y028211
X02241Y028233
X010673Y037912
X010673Y038612
X010673Y039362
X010673Y040062
X022425Y041642
X022425Y042351
X013323Y043312
X018967Y047421
X018882Y05739
X022415Y058645
X021627Y058645
X021627Y059629
X022415Y059629
X021627Y060614
X022415Y060614
X022415Y061598
X021627Y061598
X028039Y069016
X028039Y067244
X028039Y065472
X02748Y054731
X027559Y050637
X027559Y049259
X027559Y046739
X027362Y044613
X029803Y044613
X023212Y042351
X023212Y041642
X030079Y03874
X030079Y037165
X030079Y035591
X030079Y034016
X030079Y032441
X025663Y030432
X027953Y030412
X026423Y030412
X027203Y030402
X029685Y030276
X029685Y025945
X025683Y022862
X027193Y022862
X027953Y022852
X026433Y022842
X030012Y021752
X025599Y021736
X029041Y021721
X02801Y021721
X029041Y020735
X029981Y02072
X02801Y020705
X025583Y020705
X028313Y017072
X026363Y017052
X024394Y017036
X02752Y012165
X025354Y012165
X032441Y011181
X032441Y012362
X032441Y013543
X03185Y014724
X035171Y016559
X036312Y016559
X036312Y017346
X035171Y017385
X032441Y018858
X030876Y020705
X030876Y021736
X032047Y025945
X032047Y030276
X032835Y032441
X032835Y034016
X032835Y035591
X032835Y037165
X032835Y03874
X030794Y065472
X030794Y067244
X030794Y069016
X05379Y093228
X054094Y087362
X049567Y086181
X05311Y085394
X045039Y080079
X042283Y080079
X045039Y078504
X042283Y078504
X059856Y016598
X059856Y017464
X059724Y020512
X06252Y020512
X056575Y022677
X056575Y024488
X062087Y083346
X05689Y083425
X058031Y085394
X059213Y087362
X061654Y092874
X05888Y093268
X056417Y093268
X06391Y093268
X066654Y092992
X064331Y087362
X063346Y085394
X06752Y083504
X065591Y024488
X065591Y02252
X070328Y017425
X071549Y017425
X070328Y016598
X071588Y016559
X074764Y022441
X074764Y024488
X083031Y041299
X084803Y041299
X084764Y044016
X083031Y044055
X083622Y075551
X081063Y075551
X081063Y078307
X083622Y078307
X091929Y073976
X087402Y072598
X091929Y072598
X089488Y07122
X091929Y07122
X090906Y053307
X087362Y053307
X090906Y051929
X086575Y044035
X086575Y041319
X090118Y035984
X088543Y035984
X086969Y035953
X09189Y035591
X09189Y033622
X090118Y033228
X088543Y033228
X086969Y033197
X095171Y016677
X095171Y017503
X095433Y022795
X098189Y022795
X095433Y02437
X098189Y02437
X095433Y025945
X098189Y025945
X100039Y04748
X102402Y04811
X101457Y04811
X100039Y050157
X101457Y050157
X102402Y050157
X110394Y094843
X110394Y093465
X103898Y050748
X106063Y050748
X10437Y050157
X103346Y050157
X112844Y049813
X103346Y04811
X105315Y04811
X10437Y04811
X103898Y044252
X106063Y044252
X107795Y044213
X10937Y044213
X114921Y026535
X117677Y026535
X114921Y03126
X117677Y03126
X11307Y05067
X11315Y067283
X115906Y067283
X114331Y067283
X11315Y069449
X114331Y070039
X115906Y070039
X115512Y078701
X118268Y078701
X115512Y084016
X118268Y084016
X115512Y085591
X118268Y085591
X125486Y092614
X124764Y058031
X127126Y058031
X126535Y056457
X126535Y055079
X127454Y053251
X127572Y052267
X127533Y051559
X127651Y044314
X12769Y043566
X124961Y040551
X124961Y03622
X124918Y035246
X124918Y032884
X125919Y023606
X121663Y016968
X126509Y016125
X128596Y043566
X128635Y044314
X128675Y051519
X128635Y052228
X128557Y053291
X127966Y053684
X129108Y053724
X127966Y062425
X128793Y062464
X127966Y063212
X128871Y063212
T13C.04016F139S55
X0578Y024504
X073599Y024504
T14C.04016F139S55
X023639Y071009
X026889Y071009
X023639Y072009
X026889Y072009
X023639Y073009
X026889Y073009
X023639Y074009
X026889Y074009
X030239Y074009
X030239Y073009
X030239Y072009
X030239Y071009
T15C.04291F139S55
X122781Y101708
X12169Y101708
X122238Y102826
X124419Y102826
X123328Y102826
X125509Y102826
X123871Y101708
X124962Y101708
X126053Y101708
T16C.047F139S55
X128202Y095759
T17C.04921F139S55
X022788Y073009
X026038Y073009
X029388Y073009
X112287Y020374
T18C.055F107S55
X010823Y017012
X012073Y017012
X014573Y017012
X015823Y017012
X017073Y017012
X010823Y022012
X012823Y029812
X015823Y029812
X017623Y029812
X010823Y029812
X017623Y031062
X015823Y034812
X014823Y036062
X013823Y036062
X011823Y036062
X015823Y036062
X010823Y036062
X012823Y036062
X017623Y037312
X011023Y049212
X017273Y050462
X011023Y050462
X017273Y051712
X017273Y055462
X016023Y056712
X012273Y056712
X013523Y056712
X011023Y056712
X014773Y056712
X017273Y056712
X020123Y037312
X018873Y037312
X022623Y037312
X021373Y037312
X022623Y034812
X022623Y031062
X022623Y029812
X018873Y029812
X023323Y022012
X023323Y020762
X023323Y019512
X023323Y018262
X023323Y017012
X022073Y017012
X020823Y017012
X018323Y017012
T19C.05512F107S55
X07118Y102154
X095156Y102154
T20C.057F107S55
X125899Y067582
X125899Y069236
X125899Y070889
X125899Y072543
X125899Y074196
X125899Y07585
X125899Y077503
X125899Y079157
X125899Y08081
X125899Y082464
X125899Y084118
X125899Y085771
X128064Y085771
X128064Y084118
X128064Y082464
X128064Y08081
X128064Y079157
X128064Y077503
X128064Y07585
X128064Y074196
X128064Y072543
X128064Y070889
X128064Y069236
X128064Y067582
T21C.05906F107S55
X037803Y091942
X037773Y095392
X10333Y013206
X10803Y013206
T22C.06299F089S55
X11097Y097534
X117289Y097534
T23C.063F089S55
X098146Y101073
X104246Y101073
T24C.06693F089S55
X036803Y090942
X036803Y092942
X036773Y094392
X036773Y096392
X038773Y096392
X038773Y094392
X038803Y092942
X038803Y090942
X10233Y012206
X10433Y012206
X10433Y014206
X10233Y014206
X10703Y014206
X10903Y014206
X10703Y012206
X10903Y012206
T25C.07F081S55
X128202Y098759
T26C.07087F081S55
X121945Y047636G85X122201Y047636
X035431Y050826G85X035175Y050826
T27C.07165F081S55
X070361Y102871
T28C.07165F081S55
X096097Y102863G85X095869Y102863
T29C.09055F066S55
X105025Y102074
X110198Y102074
T30C.094F066S55
X101339Y069449
T31C.09646F066S55
X038Y024378
X038Y07437
X119376Y074084
X119376Y024092
T32C.11811F069S658
X069782Y09866
X069782Y105127
X096554Y105127
X096554Y09866
T33C.12008F035S794
X118954Y102267
X128793Y102267
T34C.125F035S794
X127883Y065732
T35C.12598F035S794
X076102Y054945
X056102Y06274
T36C.12795F035S794
X11171Y102219
X116553Y102219
T37C.128F035S794
X098946Y102273
X103446Y102273
T38C.15F035S9
X016513Y012523
X016513Y041023
X016513Y102023
X065513Y102023
X065513Y041023
X065513Y012523
X127513Y012523
X127513Y041023
X127513Y093023
M30
