%
T1C.008F0S0
X006597Y035497
X007581Y038174
X011282Y060733
X010941Y061189
X008999Y076875
X008802Y077465
X005573Y078646
X009668Y078646
X005022Y078843
X004747Y07904
X009117Y079237
X006243Y079434
X00388Y079591
X011164Y07963
X010573Y07963
X01018Y07963
X010888Y079906
X009983Y080221
X011164Y081993
X004077Y08219
X004038Y083371
X008172Y091396
X008172Y092396
X008172Y093398
X008172Y094394
X00577Y096087
X008487Y097662
X014038Y096914
X014235Y096678
X013251Y093253
X013605Y093253
X01144Y092426
X015613Y092426
X015967Y09219
X016006Y089867
X015691Y087287
X014707Y087287
X014707Y086933
X015691Y086933
X016085Y083567
X015691Y083567
X015298Y083567
X016085Y083174
X016085Y08278
X015691Y082386
X013723Y081993
X016085Y081599
X015298Y081225
X016085Y081205
X015691Y081205
X016085Y080812
X016085Y080418
X016085Y080024
X016085Y07963
X016085Y079237
X016085Y078843
X015691Y078449
X015298Y078449
X014707Y078253
X016085Y078056
X015691Y077268
X015298Y077268
X015691Y075615
X013408Y038056
X013369Y036756
X014117Y029001
X015377Y019355
X014791Y019349
X015337Y008489
X014904Y008489
X017109Y009197
X018054Y021127
X016991Y02156
X017148Y023253
X017975Y024591
X016794Y025103
X018487Y049991
X0175Y0694
X017421Y070984
X017421Y072165
X017633Y073
X018054Y074512
X01766Y074906
X016873Y074906
X016479Y0753
X017266Y0753
X016479Y076875
X018841Y077268
X016479Y077268
X016873Y077268
X016873Y077662
X016479Y077662
X01766Y077662
X018841Y077662
X016873Y078056
X016479Y078056
X016873Y078449
X016479Y078449
X017266Y078449
X016479Y078843
X018841Y078843
X018054Y079237
X017266Y079237
X016873Y079237
X018841Y079237
X01766Y079237
X017266Y07963
X016873Y07963
X016479Y07963
X018054Y07963
X017266Y080024
X016873Y080024
X016479Y080024
X01766Y080024
X018841Y080024
X018447Y080024
X018054Y080024
X016873Y080418
X01766Y080418
X018054Y080418
X018447Y080418
X018841Y080418
X01766Y080812
X018054Y080812
X018841Y080812
X017266Y080812
X018447Y080812
X016479Y080812
X016479Y081205
X01766Y081205
X018054Y081205
X018841Y081205
X017266Y081205
X016873Y081599
X018841Y081599
X016873Y081993
X01766Y081993
X018054Y081993
X018447Y081993
X018841Y081993
X016479Y081993
X018447Y082386
X016873Y082386
X016479Y082386
X018447Y08278
X018054Y083174
X018447Y083174
X018447Y083567
X017266Y083567
X016873Y086933
X018054Y086933
X018054Y087287
X016873Y087287
X018251Y088016
X016479Y09215
X01955Y095379
X021187Y09315
X019235Y088056
X019235Y087287
X020416Y087287
X021203Y087268
X019235Y086933
X020416Y086933
X021203Y086914
X019629Y083567
X019235Y083567
X020022Y083567
X020416Y083567
X02081Y083567
X019629Y083174
X019235Y083174
X020416Y083174
X02081Y083174
X021203Y08278
X02081Y08278
X020022Y082386
X021203Y082386
X02081Y082386
X021203Y081993
X020416Y081993
X021203Y081599
X020416Y081599
X019629Y081205
X02081Y081205
X021203Y081205
X020022Y080812
X021203Y080812
X020022Y080418
X019629Y080418
X019235Y080418
X02081Y080418
X021203Y080418
X0192Y08005
X02045Y08005
X021203Y080024
X02005Y08
X01965Y08
X020416Y07965
X019629Y07963
X021203Y07963
X0196Y07925
X02075Y07925
X020416Y079237
X020022Y079237
X021203Y079237
X019216Y079218
X02081Y078843
X020416Y078843
X021203Y078843
X021203Y078449
X020022Y078449
X019235Y078056
X021203Y078056
X02081Y078056
X02081Y077662
X021203Y077662
X019629Y077268
X021203Y077268
X02081Y077268
X019235Y077268
X020022Y077268
X018883Y0739
X020223Y073644
X0212Y07165
X02045Y0705
X020455Y052157
X020455Y051566
X019Y051129
X019077Y048614
X019077Y047826
X021328Y041379
X021146Y036827
X021006Y030024
X022975Y008882
X022739Y008882
X023211Y008882
X021477Y036449
X023762Y042649
X023762Y04324
X023762Y043712
X023762Y044303
X023762Y045011
X023762Y045602
X023762Y04631
X023762Y046901
X023762Y049578
X021439Y049795
X021794Y049795
X023762Y050169
X023762Y051547
X023762Y052137
X023762Y053436
X023762Y054027
X023673Y057998
X023508Y058484
X0222Y07
X021485Y07099
X021476Y072165
X02265Y0765
X021597Y077268
X0218Y0775
X021597Y077662
X021597Y078843
X0225Y07925
X021597Y080024
X021597Y080418
X021597Y080812
X021597Y081599
X021597Y081993
X021597Y082386
X021597Y08278
X021597Y083174
X021597Y083567
X022325Y086756
X022325Y087465
X022691Y091131
X022219Y091154
X021904Y091154
X02311Y091256
X021747Y092001
X022061Y092001
X022699Y093331
X023644Y093449
X026676Y093331
X027227Y092701
X02727Y092231
X026061Y092001
X025747Y092001
X025904Y091154
X026219Y091154
X02669Y091087
X026365Y085992
X02668Y085617
X027388Y085243
X026912Y083371
X027109Y080418
X027503Y080024
X027306Y079827
X027503Y079434
X027699Y078646
X028093Y078449
X028684Y078253
X02615Y0775
X027306Y077268
X02514Y075359
X02687Y072165
X0252Y07165
X0269Y07125
X0252Y07055
X0259Y07045
X026965Y058863
X026968Y05851
X026909Y057681
X026958Y05733
X025575Y053144
X026164Y048417
X026164Y047432
X026558Y041921
X025573Y041527
X028831Y021827
X028053Y017938
X03077Y014552
X033815Y014614
X03077Y01593
X031287Y0362
X032737Y038177
X032227Y039552
X032188Y041087
X032227Y042701
X032188Y044001
X032188Y045221
X032188Y04656
X032227Y047741
X032188Y048961
X032188Y050142
X032227Y051284
X032188Y052426
X032227Y053449
X031833Y054434
X029077Y073134
X029865Y073331
X029911Y076417
X02955Y07652
X0322Y07655
X0308Y0767
X030934Y0769
X0299Y07705
X030769Y077181
X033081Y07752
X03355Y07755
X0296Y0783
X029882Y081118
X031258Y084433
X033618Y085107
X030852Y085367
X030852Y085867
X033762Y095379
X034156Y095064
X036873Y093449
X037936Y093056
X036437Y09115
X036085Y091127
X036873Y091127
X036243Y09089
X035887Y0908
X03585Y084145
X03497Y07752
X036447Y07752
X034124Y077047
X03497Y07689
X034124Y076732
X035207Y076575
X037293Y076417
X034124Y076417
X038762Y073804
X038172Y073607
X038566Y073331
X038369Y072859
X034589Y07278
X036754Y061323
X038329Y061323
X036754Y058961
X036754Y056599
X036754Y054237
X038329Y054237
X036754Y051678
X038329Y051678
X036754Y048922
X038329Y048922
X036754Y04656
X038329Y04656
X038037Y045277
X038329Y043804
X036715Y043804
X038329Y041441
X036754Y041441
X033887Y039277
X036754Y039079
X037673Y014654
X03825Y014068
X03825Y013832
X038667Y013383
X038833Y013217
X039799Y014575
X041784Y014575
X043815Y014575
X043408Y053725
X03969Y054094
X038987Y056677
X041137Y056777
X041787Y056777
X043211Y056875
X043033Y057066
X041282Y057386
X039825Y057819
X041676Y058174
X043837Y060227
X042917Y060714
X042917Y060951
X041282Y061522
X039786Y061914
X041479Y062308
X0412Y06405
X041282Y067426
X043787Y068
X041282Y07278
X043251Y080457
X043605Y080536
X043093Y080772
X043408Y08089
X041121Y08404
X043353Y088974
X04014Y09089
X040461Y090918
X040304Y091154
X040619Y091154
X041867Y092482
X041518Y093056
X041085Y094355
X044781Y090499
X045667Y090499
X047932Y089649
X0476Y089
X048251Y088882
X047483Y088016
X048506Y086127
X045337Y07815
X047437Y0748
X048762Y073331
X048762Y071756
X047857Y070575
X047857Y070182
X048682Y0679
X047882Y06745
X048118Y06745
X047857Y066245
X047857Y065851
X047188Y062308
X048211Y062308
X04425Y06195
X048211Y06152
X047188Y060733
X048211Y060733
X046737Y060327
X048211Y059945
X044537Y05885
X044837Y058777
X046737Y058377
X048762Y057977
X048132Y057583
X047266Y057583
X046587Y057277
X048762Y05719
X048132Y056796
X047266Y056796
X046387Y056777
X048762Y056402
X04855Y05575
X048762Y055615
X048537Y055427
X048762Y054827
X048762Y05404
X048762Y053253
X047237Y052927
X048762Y052465
X048762Y051678
X046237Y050977
X048762Y05089
X048762Y050103
X048762Y049316
X048762Y048528
X047384Y042623
X047831Y014575
X049906Y014547
X049747Y041048
X05014Y048528
X049156Y048528
X049156Y049316
X050534Y049316
X049156Y050103
X05014Y050103
X049156Y05089
X050534Y051678
X049156Y051678
X049156Y052465
X05014Y052465
X049387Y052577
X050534Y053253
X049156Y053253
X050534Y054827
X049137Y05485
X05014Y055615
X049156Y055634
X049437Y056377
X05014Y056402
X049156Y056402
X049637Y057077
X049873Y057077
X05014Y05719
X049156Y05719
X05014Y057977
X051122Y057977
X049156Y057977
X049437Y057977
X050787Y058977
X050053Y059003
X05022Y05917
X051321Y059827
X05065Y0603
X051243Y064119
X048918Y0679
X050928Y071756
X050928Y073331
X049437Y0748
X05307Y08967
X0527Y089
X053369Y088882
X052601Y088016
X053625Y086127
X052503Y073331
X052503Y071756
X05266Y06656
X053329Y066363
X052424Y066008
X05329Y063489
X052463Y063371
X05329Y063095
X053684Y063095
X053684Y062701
X053684Y062308
X053684Y061914
X051794Y06152
X053684Y06152
X051794Y061127
X05329Y061127
X051794Y060733
X053644Y060733
X051794Y060339
X053684Y060339
X05329Y060339
X053684Y059945
X053684Y059552
X052896Y059552
X05329Y059552
X053735Y059158
X053287Y059158
X052896Y059119
X05329Y058764
X05329Y058422
X051437Y058392
X052896Y058371
X053684Y058319
X051873Y058164
X052737Y058127
X051437Y058077
X052109Y057977
X053684Y057977
X051715Y057583
X051437Y057577
X05329Y05719
X052896Y056402
X05329Y056402
X053684Y056402
X051837Y056377
X05329Y056008
X053684Y056008
X052896Y056008
X053262Y055643
X053684Y055615
X052896Y055615
X05329Y055221
X053684Y055221
X053684Y054827
X05329Y054827
X052896Y054434
X05329Y054434
X053684Y054434
X053684Y05404
X053684Y053646
X05329Y053646
X052896Y053646
X053684Y053253
X05329Y053253
X052896Y053253
X051387Y053077
X05329Y052859
X053684Y052859
X053684Y052465
X052896Y052465
X05329Y052465
X052896Y052071
X053684Y052071
X05329Y052071
X05329Y051678
X053684Y051678
X052896Y051678
X05329Y051284
X053684Y051284
X052896Y051284
X05329Y05089
X053684Y05089
X052896Y05089
X052896Y050497
X05329Y050497
X05329Y050103
X051715Y04656
X052503Y04656
X05329Y04656
X05329Y046166
X052503Y046166
X051715Y046166
X052109Y042623
X052395Y023381
X052985Y023381
X053576Y023381
X052985Y023144
X052395Y023144
X053576Y023144
X052985Y019716
X052395Y019716
X053576Y019716
X053576Y019479
X052985Y019479
X052395Y019479
X051874Y014547
X055731Y015339
X055348Y019479
X054757Y019479
X054167Y019479
X055938Y019479
X055348Y019716
X054757Y019716
X054167Y019716
X055938Y019716
X054167Y023144
X054757Y023144
X055348Y023144
X055938Y023144
X054167Y023381
X054757Y023381
X055348Y023381
X055938Y023381
X054471Y041048
X054077Y046166
X054865Y046166
X055652Y046166
X054077Y04656
X055652Y04656
X054865Y04656
X054077Y050103
X055258Y050103
X055652Y050103
X054471Y050103
X054865Y050103
X056046Y050103
X054077Y050497
X054471Y050497
X054865Y050497
X055652Y050497
X056046Y050497
X055258Y050497
X054077Y05089
X055258Y05089
X055652Y05089
X054865Y05089
X054471Y05089
X056046Y05089
X054077Y051284
X055258Y051284
X054471Y051284
X055652Y051284
X054865Y051284
X056046Y051284
X054471Y051678
X054865Y051678
X055258Y051678
X055652Y051678
X056046Y051678
X054077Y051678
X055258Y052071
X055652Y052071
X054077Y052071
X056046Y052071
X054471Y052071
X054865Y052071
X055652Y052465
X054471Y052465
X054077Y052465
X054865Y052465
X055258Y052465
X056046Y052465
X055258Y052859
X055652Y052859
X054077Y052859
X054865Y052859
X054471Y052859
X056046Y052859
X055652Y053253
X054471Y053253
X055258Y053253
X054077Y053253
X056046Y053253
X054865Y053253
X054077Y053646
X056046Y053646
X054865Y053646
X054471Y053646
X055258Y053646
X055652Y053646
X054471Y05404
X054077Y05404
X054865Y05404
X055258Y05404
X056046Y05404
X055652Y05404
X055258Y054434
X054077Y054434
X054471Y054434
X056046Y054434
X055652Y054434
X054865Y054434
X056046Y054827
X054077Y054827
X054471Y054827
X054865Y054827
X054471Y055221
X056046Y055221
X054077Y055221
X054865Y055221
X055258Y055221
X055652Y055221
X055258Y055615
X056046Y055615
X055652Y055615
X054077Y055615
X054865Y055615
X054471Y055615
X055601Y056008
X055258Y056008
X054077Y056008
X054471Y056008
X054865Y056008
X056046Y056008
X056046Y056402
X054865Y056402
X054471Y056402
X054077Y056402
X055652Y056402
X055613Y056796
X054077Y056796
X054471Y056796
X054865Y056796
X056046Y056796
X054865Y05719
X056046Y05719
X055652Y05719
X054471Y05719
X055258Y05719
X055652Y057583
X056046Y057583
X055258Y057583
X054865Y057583
X054471Y057583
X055258Y057977
X055652Y057977
X054026Y057977
X054487Y057977
X054865Y058028
X056046Y058319
X055652Y058371
X054077Y058371
X054471Y058371
X054865Y058371
X055258Y058371
X056046Y058713
X054471Y058764
X055652Y058764
X055258Y058764
X054865Y058764
X054053Y058789
X055652Y059158
X056046Y059158
X054471Y059158
X055258Y059158
X054865Y059158
X054437Y059552
X054865Y059552
X054077Y059552
X056046Y059552
X055652Y059552
X054471Y059945
X055652Y059945
X054865Y059945
X055258Y059945
X054077Y059945
X054077Y060339
X056046Y060339
X054865Y060339
X054471Y060339
X055652Y060339
X055258Y060339
X054471Y060733
X055652Y060733
X054077Y060733
X055258Y060733
X056046Y060733
X054865Y060733
X054865Y061127
X056046Y061127
X054471Y061127
X055652Y061127
X055258Y061127
X055652Y06152
X055258Y06152
X056046Y06152
X054471Y06152
X054865Y06152
X054077Y06152
X054865Y061914
X055258Y061914
X056046Y061914
X054471Y061914
X055652Y062308
X054471Y062308
X054865Y062308
X055258Y062308
X056046Y062308
X055652Y062701
X055258Y062701
X054471Y062701
X056046Y062701
X054865Y062701
X054077Y062701
X056059Y063118
X055626Y063118
X056243Y064552
X055849Y064552
X055455Y064552
X05388Y064552
X054274Y064552
X054668Y064591
X055849Y067662
X054786Y068213
X054037Y07015
X057943Y089652
X0576Y089
X058487Y088882
X057719Y088016
X058743Y086127
X057083Y068633
X056917Y068467
X057188Y068213
X058408Y068016
X057817Y064552
X057424Y064552
X056636Y064552
X058605Y064552
X058211Y064552
X058014Y063095
X058408Y063095
X057621Y062701
X057227Y062701
X05644Y062701
X056833Y062701
X058408Y062701
X058802Y062701
X057227Y062308
X056833Y062308
X05644Y062308
X057621Y062308
X058408Y062308
X058802Y062308
X056833Y061914
X057227Y061914
X058014Y061914
X057621Y061914
X05644Y061914
X058408Y061914
X058802Y061914
X05644Y06152
X058014Y06152
X057637Y06152
X056833Y06152
X057227Y06152
X058802Y06152
X058408Y06152
X057621Y061127
X05644Y061127
X057237Y061127
X058014Y061127
X058802Y061127
X058408Y061127
X056837Y061077
X057227Y060733
X057621Y060733
X057975Y060733
X056833Y060733
X058369Y060733
X058802Y060733
X056387Y060727
X057227Y060339
X056833Y060339
X058014Y060339
X057621Y060339
X058408Y060339
X05644Y060288
X056837Y059946
X057227Y059945
X057621Y059945
X058014Y059945
X05644Y059945
X058802Y059945
X058408Y059945
X056885Y059552
X057227Y059552
X05644Y059552
X058408Y059552
X058802Y059552
X057621Y059158
X05644Y059158
X057227Y059158
X058014Y059158
X056833Y059158
X058408Y059158
X058802Y059158
X057621Y058764
X056833Y058764
X0564Y05875
X056833Y058371
X05644Y058371
X057227Y058371
X058014Y058371
X058408Y058371
X058802Y058371
X057227Y057977
X057621Y057977
X056833Y057977
X05644Y057583
X057227Y057583
X056833Y057583
X058014Y057583
X058408Y057583
X058802Y057583
X057621Y057583
X058802Y05719
X05644Y05719
X056833Y05719
X058802Y056796
X058408Y056796
X058014Y056796
X05644Y056796
X057227Y056796
X056833Y056796
X057621Y056796
X05644Y056402
X056833Y0564
X058014Y056008
X058802Y056008
X057621Y056008
X057227Y056008
X058408Y056008
X05644Y056007
X05644Y055615
X056833Y055615
X0572Y05525
X058014Y055221
X057621Y055221
X058802Y055221
X058408Y055221
X05644Y055221
X056833Y055221
X05644Y054827
X056833Y054827
X057227Y054827
X058802Y054434
X058408Y054434
X057227Y054434
X057621Y054434
X05644Y054434
X058014Y054434
X058408Y05404
X05644Y05404
X058802Y05404
X057227Y05404
X056833Y05404
X057621Y05404
X058014Y05404
X058802Y053646
X057621Y053646
X05644Y053646
X056833Y053646
X058408Y053646
X058014Y053646
X057227Y053646
X058802Y053253
X058408Y053253
X057227Y053253
X056833Y053253
X058014Y053253
X05644Y053253
X057621Y053253
X058802Y052859
X058014Y052859
X05644Y052859
X058408Y052859
X057621Y052859
X056833Y052859
X057227Y052859
X056833Y052465
X05644Y052465
X058802Y052465
X057227Y052465
X058408Y052465
X058014Y052465
X057621Y052465
X05644Y052071
X058014Y052071
X058408Y052071
X058802Y052071
X056833Y052071
X057227Y052071
X057621Y052071
X056833Y051678
X058802Y051678
X058408Y051678
X057227Y051678
X057621Y051678
X058014Y051678
X05644Y051678
X056833Y051284
X057227Y051284
X05644Y051284
X057621Y051284
X058802Y051284
X058408Y051284
X058014Y051284
X056833Y05089
X058014Y05089
X058802Y05089
X058408Y05089
X057621Y05089
X057227Y05089
X05644Y05089
X058408Y050497
X05644Y050497
X057621Y050497
X056833Y050497
X058802Y050497
X057227Y050497
X058014Y050497
X057621Y050103
X057227Y050103
X056833Y050103
X05644Y050103
X05644Y04656
X058014Y04656
X058802Y04656
X057227Y04656
X058802Y046166
X058014Y046166
X057227Y046166
X05644Y046166
X056873Y042583
X05771Y023381
X057119Y023381
X056529Y023381
X05771Y023144
X056529Y023144
X057119Y023144
X05771Y019716
X057119Y019716
X056529Y019716
X057119Y019479
X056529Y019479
X05771Y019479
X057817Y013292
X060859Y019479
X060269Y019479
X060859Y019716
X060269Y019716
X060269Y023144
X06077Y023144
X060269Y023381
X06077Y023381
X06077Y040339
X059315Y04069
X059195Y042623
X059589Y046166
X060377Y046166
X061164Y046166
X059589Y04656
X061164Y04656
X060377Y04656
X06077Y048764
X061164Y048922
X061164Y049512
X06077Y04967
X060377Y050103
X06077Y050103
X059589Y050103
X061164Y050497
X060377Y050497
X059589Y050497
X059195Y050497
X059983Y050497
X06077Y050497
X060377Y05089
X059983Y05089
X059589Y05089
X059195Y05089
X061164Y05089
X06077Y051284
X060377Y051284
X059195Y051284
X059983Y051284
X061164Y051678
X059195Y051678
X060377Y051678
X059589Y051678
X059983Y051678
X06077Y051678
X059983Y052071
X059589Y052071
X059195Y052071
X06077Y052071
X061164Y052071
X060377Y052071
X061164Y052465
X06077Y052465
X059195Y052465
X060377Y052465
X059983Y052465
X061164Y052859
X059195Y052859
X059983Y052859
X059589Y052859
X06077Y052859
X060377Y052859
X06077Y053253
X061164Y053253
X059589Y053253
X059983Y053253
X059195Y053253
X060377Y053253
X059195Y053646
X060377Y053646
X059589Y053646
X059983Y053646
X06077Y053646
X061164Y053646
X059195Y05404
X059589Y05404
X06077Y05404
X060377Y05404
X061164Y05404
X059589Y054434
X06077Y054434
X059195Y054434
X059983Y054434
X060377Y054434
X061164Y054434
X061164Y054827
X059195Y055221
X06077Y055221
X061164Y055221
X059589Y055221
X059983Y055221
X060377Y055221
X059589Y056008
X059983Y056008
X061164Y056008
X06077Y056008
X059195Y056008
X060377Y056008
X061164Y056796
X059589Y056796
X059195Y056796
X06077Y056796
X06077Y057583
X059983Y057583
X059589Y057583
X059195Y057583
X060377Y057583
X061164Y057977
X061164Y058371
X059589Y058371
X060377Y058371
X059983Y058371
X059195Y058371
X06077Y058371
X059983Y059158
X061164Y059158
X059195Y059158
X060377Y059158
X059589Y059158
X06077Y059158
X05995Y05955
X060377Y059552
X061164Y059552
X06077Y059552
X059195Y059552
X059589Y059552
X059983Y059945
X060377Y059945
X061164Y059945
X059195Y059945
X059589Y059945
X06077Y059945
X060377Y060339
X059195Y060339
X06077Y060339
X059589Y060339
X061164Y060339
X060377Y060733
X061164Y060733
X059983Y060733
X059195Y060733
X06077Y060733
X059195Y061127
X061164Y061127
X06077Y061127
X059589Y061127
X060377Y061127
X059983Y061127
X06077Y06152
X059195Y06152
X059589Y06152
X060377Y06152
X061164Y06152
X060377Y061914
X061164Y061914
X06077Y061914
X059195Y061914
X060377Y062308
X06077Y062308
X059195Y062308
X060377Y062701
X059589Y062701
X06077Y062701
X059195Y062701
X059983Y062701
X06077Y063095
X061164Y063095
X060967Y063567
X060573Y063567
X060573Y064552
X059786Y064552
X061361Y064552
X06018Y064552
X060967Y064552
X058999Y064552
X060691Y068213
X060967Y071756
X060967Y073331
X063329Y073331
X063329Y071756
X06329Y068213
X061873Y068016
X061754Y064552
X062542Y064552
X062936Y064552
X063329Y064552
X063723Y064552
X063132Y063095
X063526Y063095
X061558Y062701
X061951Y062701
X063132Y062701
X062739Y062701
X062345Y062701
X061558Y062308
X061951Y062308
X063132Y062308
X062345Y062308
X062739Y062308
X061951Y061914
X061558Y061914
X063132Y061914
X063526Y061914
X062345Y061914
X062739Y061914
X061558Y06152
X061951Y06152
X062345Y06152
X062739Y06152
X063132Y06152
X063526Y06152
X061951Y061127
X061558Y061127
X063526Y061127
X063132Y061127
X062739Y061127
X062345Y061127
X061951Y060733
X061558Y060733
X063132Y060733
X063526Y060733
X062345Y060733
X062739Y060733
X061951Y060339
X061558Y060339
X063132Y060339
X063526Y060339
X062739Y060339
X062345Y060339
X061558Y059945
X061951Y059945
X062345Y059945
X063132Y059945
X063526Y059945
X062739Y059945
X061951Y059552
X061558Y059552
X063526Y059552
X062345Y059552
X063132Y059552
X062739Y059552
X061558Y059158
X061951Y059158
X062345Y059158
X063526Y059158
X063132Y059158
X062739Y059158
X063132Y058764
X062739Y058764
X06355Y058764
X061951Y058371
X061558Y058371
X063526Y058371
X063132Y058371
X062345Y058371
X062739Y058371
X061558Y057977
X063526Y057977
X062739Y057977
X063132Y057977
X062345Y057977
X061951Y057977
X063526Y057583
X062345Y057583
X063132Y057583
X061558Y057583
X062739Y057583
X062345Y05719
X063132Y05719
X063526Y05719
X062739Y05719
X06315Y0568
X062345Y056796
X063526Y056796
X061558Y056796
X061951Y056796
X06388Y056402
X062739Y056402
X062345Y056402
X063526Y056402
X063132Y056402
X063132Y056008
X063526Y056008
X061558Y056008
X062345Y056008
X061951Y056008
X062739Y056008
X062739Y055615
X062345Y055615
X063526Y055615
X063132Y055615
X061951Y055615
X063132Y055221
X063526Y055221
X061558Y055221
X061951Y055221
X062345Y055221
X061558Y054827
X061951Y054827
X062739Y054827
X063526Y054827
X063132Y054827
X063132Y054434
X061558Y054434
X061951Y054434
X062739Y054434
X063526Y054434
X061558Y05404
X063132Y05404
X062739Y05404
X061951Y05404
X062345Y05404
X063526Y05404
X062739Y053646
X063526Y053646
X062345Y053646
X061558Y053646
X061951Y053646
X063132Y053646
X062345Y053253
X063526Y053253
X063132Y053253
X062739Y053253
X061558Y053253
X061951Y053253
X061558Y052859
X062739Y052859
X062345Y052859
X063132Y052859
X061951Y052859
X063526Y052859
X061558Y052465
X062345Y052465
X063132Y052465
X062739Y052465
X061951Y052465
X063526Y052465
X063526Y052071
X062345Y052071
X062739Y052071
X061558Y052071
X063132Y052071
X061951Y052071
X061558Y051678
X062739Y051678
X063526Y051678
X063132Y051678
X061951Y051678
X062345Y051678
X061951Y051284
X063132Y051284
X062345Y051284
X061558Y051284
X063526Y051284
X062739Y051284
X063526Y05089
X062739Y05089
X063132Y05089
X061558Y05089
X062345Y05089
X062739Y050497
X063132Y050497
X062345Y050497
X061951Y050497
X063526Y050497
X061951Y050103
X063132Y050103
X063526Y050103
X061951Y049709
X063817Y049367
X061951Y049355
X061558Y049316
X061558Y049079
X061951Y047977
X063667Y047233
X061951Y047111
X063833Y047067
X062739Y04656
X061951Y04656
X063526Y04656
X062739Y046166
X061951Y046166
X063526Y046166
X063383Y041733
X063217Y041567
X062345Y041048
X062833Y026983
X062667Y026817
X063067Y024283
X063233Y024117
X062631Y023381
X063812Y023381
X06145Y023381
X063222Y023381
X062041Y023381
X063222Y023144
X062631Y023144
X062041Y023144
X063812Y023144
X06145Y023144
X062631Y019716
X06145Y019716
X063812Y019716
X063222Y019716
X062041Y019716
X062041Y019479
X062631Y019479
X063222Y019479
X06145Y019479
X063812Y019479
X064156Y016402
X064117Y017623
X064993Y019479
X064403Y019479
X065584Y019479
X064403Y019716
X065584Y019716
X064993Y019716
X065584Y023144
X064363Y023144
X064993Y023144
X065584Y023381
X064363Y023381
X064993Y023381
X06445Y036182
X06445Y036418
X06475Y0395
X065495Y041048
X065888Y046166
X064314Y046166
X065101Y046166
X065101Y04656
X065888Y04656
X064314Y04656
X064017Y046867
X064183Y047033
X066317Y048983
X063983Y049533
X064314Y050103
X065101Y050103
X065888Y050103
X06392Y050103
X064707Y050103
X064707Y050497
X065495Y050497
X064314Y050497
X065888Y050497
X065101Y050497
X066282Y050497
X06392Y050497
X065495Y05089
X065888Y05089
X064314Y05089
X066282Y05089
X065101Y05089
X06392Y05089
X064707Y051284
X065495Y051284
X065888Y051284
X065101Y051284
X066282Y051284
X06392Y051284
X064314Y051284
X064707Y051678
X064314Y051678
X065888Y051678
X065101Y051678
X065495Y051678
X066282Y051678
X06392Y051678
X064314Y052071
X064707Y052071
X065888Y052071
X065495Y052071
X065101Y052071
X066282Y052071
X06392Y052071
X066356Y052391
X065101Y052465
X064707Y052465
X064314Y052465
X065495Y052465
X065888Y052465
X06392Y052465
X065888Y052859
X065101Y052859
X065495Y052859
X064707Y052859
X06392Y052859
X064314Y052859
X065845Y053253
X064314Y053253
X065101Y053253
X064707Y053253
X066282Y053253
X06392Y053253
X065495Y053253
X06392Y053646
X065101Y053646
X065495Y053646
X065888Y053646
X066282Y053646
X064314Y053646
X064707Y053646
X064707Y05404
X065495Y05404
X06392Y05404
X064314Y05404
X065101Y05404
X065888Y05404
X064314Y054434
X065888Y054434
X064707Y054434
X065101Y054434
X06392Y054434
X065101Y054827
X065495Y054827
X065888Y054827
X06392Y054827
X064707Y054827
X064314Y054827
X065079Y055221
X066282Y055221
X06392Y055221
X064707Y055221
X064314Y055221
X065495Y055221
X065888Y055221
X064707Y055615
X06392Y055615
X065888Y055615
X065495Y055615
X064314Y055615
X065101Y055615
X065888Y056008
X064707Y056008
X06392Y056008
X0651Y056008
X064314Y056008
X065495Y056008
X066282Y056034
X064707Y056375
X064314Y056402
X065101Y056402
X065495Y056796
X065101Y056796
X064314Y056796
X06392Y056796
X064707Y056847
X0659Y057189
X065495Y05719
X06392Y05719
X065101Y05719
X066321Y057229
X064707Y057241
X064707Y057583
X06392Y057583
X065888Y057583
X065101Y057583
X064314Y057583
X065495Y057938
X065101Y057977
X064314Y057977
X066282Y057977
X06392Y057977
X065888Y057977
X06435Y05837
X065495Y058371
X064707Y058371
X065928Y058371
X065101Y058371
X065495Y058764
X0659Y058764
X064314Y058764
X064707Y058764
X06392Y058764
X065101Y058764
X064707Y059158
X065495Y059158
X065101Y059158
X06392Y059158
X064314Y059158
X065101Y059552
X065495Y059552
X064707Y059552
X06392Y059552
X064314Y059552
X065888Y059552
X064707Y059945
X064314Y059945
X065495Y059945
X065101Y059945
X06392Y059945
X065101Y060339
X065495Y060339
X0647Y060339
X064314Y060339
X06392Y060339
X064314Y060733
X065101Y060733
X065495Y060733
X064707Y060733
X06392Y060733
X065888Y060733
X065495Y061127
X06392Y061127
X064314Y061127
X065101Y061127
X065888Y061127
X064707Y06115
X064314Y061481
X06392Y06152
X064707Y06152
X065101Y06152
X065495Y06152
X065101Y061914
X064707Y061914
X065495Y061914
X064314Y061914
X06392Y061914
X06392Y062308
X065495Y062308
X065101Y062308
X064314Y062308
X064707Y062308
X06392Y062701
X064707Y062701
X064314Y062701
X065495Y062701
X065101Y062701
X065495Y063095
X065888Y063095
X065888Y063489
X065298Y064552
X064904Y064552
X06451Y064552
X065928Y066323
X064747Y067544
X064195Y068016
X066282Y068213
X066282Y071756
X066282Y073331
X067424Y066323
X067349Y064211
X0674Y0639
X067345Y061717
X06761Y06156
X067345Y061323
X067345Y06093
X067345Y060536
X067463Y059749
X0664Y059355
X067463Y059355
X068465Y059158
X068816Y059158
X0664Y058961
X066636Y058725
X068093Y058607
X068468Y058371
X068824Y058371
X068487Y057583
X066479Y056993
X068251Y056953
X068824Y056796
X068468Y056796
X067817Y056717
X066636Y056442
X067345Y056245
X067817Y056245
X068818Y056008
X066479Y055615
X068211Y055615
X06882Y055221
X066479Y055024
X068087Y055
X068211Y054788
X066479Y05463
X066479Y054316
X0682Y0543
X067739Y053646
X066479Y053056
X066676Y052662
X066917Y052083
X067083Y051917
X067226Y051678
X067842Y051284
X068823Y050497
X068467Y050497
X06815Y05005
X068467Y049709
X068818Y049709
X068464Y048922
X06882Y048922
X066483Y048817
X068167Y047233
X068333Y047067
X067463Y04656
X066676Y04656
X066676Y046166
X067463Y046166
X066633Y045633
X066467Y045467
X068644Y041048
X066467Y039733
X066633Y039567
X066965Y014575
X07098Y013551
X073028Y013551
X07098Y014575
X073028Y014575
X06965Y03995
X072167Y040967
X071794Y041048
X072333Y041133
X073752Y044822
X070219Y044985
X073752Y045935
X073334Y046558
X072221Y046558
X071794Y04656
X070219Y04656
X0735Y04805
X070219Y048134
X071794Y048134
X073746Y051515
X0732Y05185
X073787Y052628
X071381Y053253
X07102Y053253
X07325Y05405
X071381Y054237
X071032Y054238
X071381Y055221
X0738Y05555
X07Y05565
X069353Y056008
X069605Y056256
X07385Y05795
X07245Y058
X071222Y058174
X0698Y0582
X071597Y058233
X07185Y0584
X07365Y0589
X071578Y058961
X071837Y05935
X070967Y059355
X07235Y05945
X071578Y059749
X070967Y060142
X068999Y060182
X069274Y060812
X06955Y061441
X068999Y062071
X0738Y0628
X07195Y0643
X073054Y066205
X073054Y066638
X072419Y068793
X073531Y068805
X073532Y069938
X072419Y069956
X073054Y071384
X069432Y071756
X071991Y071756
X071991Y073331
X069432Y073331
X075344Y072313
X074152Y071526
X074157Y070412
X074353Y069591
X075534Y069591
X074747Y069591
X0743Y06935
X075928Y069197
X07514Y069197
X076321Y069197
X07478Y069164
X075534Y068804
X07514Y068804
X076321Y068804
X07514Y06841
X075928Y06841
X075534Y06841
X074747Y068016
X07514Y068016
X075928Y068016
X075534Y068016
X076321Y068016
X075534Y067623
X07514Y067623
X074747Y067623
X075928Y067623
X076321Y067623
X074747Y067253
X075534Y067229
X07514Y067229
X075928Y067229
X076321Y067229
X075534Y066835
X074747Y066835
X07514Y066835
X075928Y066835
X076321Y066835
X07514Y066441
X075534Y066441
X075928Y066441
X076321Y066441
X074Y0664
X075534Y066048
X07514Y066048
X075928Y066048
X076321Y066048
X075534Y065654
X07514Y065654
X075928Y065654
X076321Y065654
X075928Y06526
X076321Y06526
X074747Y06526
X07514Y06526
X075534Y06526
X076321Y064867
X07514Y064867
X075534Y064867
X075928Y064867
X075534Y064473
X076321Y064473
X07514Y064473
X075928Y064473
X074747Y064473
X075534Y064079
X07514Y064079
X076321Y064079
X075928Y064079
X075928Y063686
X074353Y063686
X07514Y063686
X074747Y063686
X075534Y063686
X07438Y063
X07495Y06275
X075216Y060806
X074146Y060767
X076342Y059158
X076125Y058371
X0744Y0582
X076164Y056402
X075888Y055851
X075822Y054295
X074655Y054002
X074353Y051678
X075928Y051678
X075534Y051678
X074747Y051678
X07514Y051284
X075534Y051284
X075928Y051284
X076321Y051284
X074337Y0512
X074747Y05089
X076321Y05089
X075534Y050497
X07514Y050497
X075928Y050497
X075534Y050103
X074747Y050103
X07514Y050103
X075928Y050103
X076321Y050103
X07514Y049709
X074747Y049709
X076321Y049709
X075534Y049709
X075928Y049709
X075534Y049316
X076321Y049316
X07514Y049316
X074747Y049316
X075928Y049316
X076321Y048922
X074353Y048922
X07514Y048922
X075534Y048922
X075928Y048922
X07514Y048528
X074747Y048528
X076321Y048528
X075928Y048528
X075534Y048528
X075928Y048134
X076321Y048134
X07514Y048134
X075534Y048134
X076321Y047741
X075928Y047741
X075534Y047741
X07514Y047741
X07514Y047347
X076321Y047347
X075928Y047347
X075534Y047347
X074747Y047347
X075534Y046953
X075928Y046953
X076321Y046953
X07514Y046953
X076321Y04656
X075928Y04656
X07514Y04656
X075534Y04656
X074747Y04656
X075534Y046166
X07514Y046166
X075928Y046166
X074353Y045772
X075928Y045772
X075534Y045772
X07514Y045772
X07445Y04505
X074793Y043129
X075828Y043129
X075033Y042247
X075101Y041284
X07455Y041284
X075075Y014575
X075075Y013551
X077043Y013472
X077043Y014496
X07824Y034828
X078233Y035164
X076911Y043129
X078024Y043129
X0775Y0443
X07829Y045772
X077503Y045772
X077109Y045772
X076715Y045772
X078782Y045935
X076715Y046166
X077896Y046166
X078684Y046166
X077109Y046166
X077503Y046166
X07829Y046166
X077109Y04656
X076715Y04656
X07829Y04656
X0775Y0466
X077109Y046953
X076715Y046953
X07829Y046953
X078684Y047347
X077109Y047347
X07829Y047347
X076715Y047347
X078684Y047741
X077896Y047741
X076715Y047741
X077109Y047741
X07829Y048134
X076715Y048134
X077896Y048134
X077109Y048134
X077503Y048528
X076715Y048528
X077109Y048528
X07829Y048528
X077896Y048528
X076715Y048922
X077109Y048922
X07829Y048922
X077109Y049316
X07829Y049316
X076715Y049316
X07829Y049709
X077109Y049709
X076715Y049709
X077896Y049709
X07829Y050103
X077109Y050103
X076715Y050103
X07829Y050497
X077109Y050497
X077896Y050497
X076715Y050497
X07829Y05089
X077109Y05089
X076715Y05089
X077503Y051284
X077109Y051284
X077896Y051284
X07829Y051284
X078782Y051515
X076925Y052331
X076642Y054282
X078025Y054282
X078703Y055221
X076499Y055221
X0769Y05535
X078447Y055575
X078093Y055575
X076912Y055615
X077306Y055615
X078076Y055991
X076912Y056008
X077306Y056008
X0785Y05605
X076873Y056402
X078487Y056402
X077306Y056402
X078093Y056404
X07887Y056785
X078487Y056796
X076912Y056796
X078093Y056796
X077306Y056796
X07775Y0568
X076518Y05686
X076538Y05758
X076912Y057583
X078093Y057583
X078487Y057583
X077306Y057583
X076558Y057977
X076912Y057977
X078487Y057977
X078093Y057977
X077306Y057977
X07845Y05835
X076558Y058371
X077306Y058371
X078093Y058371
X076912Y058371
X078487Y058764
X076912Y058764
X076518Y058764
X077306Y058764
X078093Y058843
X076695Y059158
X078723Y059197
X077671Y060806
X076432Y060806
X077109Y063641
X077503Y063641
X076715Y063641
X077896Y063686
X078782Y063849
X07829Y064079
X077109Y064079
X076715Y064079
X078684Y064079
X076715Y064473
X077109Y064473
X07829Y064473
X07829Y064867
X077896Y064867
X077109Y064867
X076715Y064867
X077109Y06526
X076715Y06526
X078684Y06526
X076715Y065654
X077109Y065654
X077896Y065654
X07829Y065654
X077109Y066048
X076715Y066048
X07829Y066048
X077896Y066048
X076715Y066441
X077109Y066441
X07829Y066441
X077503Y066441
X077896Y066441
X076715Y066835
X07829Y066835
X077109Y066835
X077109Y067229
X076715Y067229
X078684Y067229
X077896Y067623
X076715Y067623
X078684Y067623
X077109Y067623
X076715Y068016
X077109Y068016
X07829Y068016
X076715Y06841
X077109Y06841
X07829Y06841
X07829Y068804
X078684Y068804
X076715Y068804
X077109Y068804
X077896Y069197
X077503Y069197
X077109Y069197
X07829Y069197
X078782Y069428
X076708Y072313
X078218Y072313
X082975Y084709
X082837Y0837
X079943Y079552
X08375Y0762
X083526Y073489
X083684Y073174
X079195Y071776
X081593Y070572
X082706Y070559
X079084Y070542
X079087Y069428
X081917Y068439
X083228Y067677
X081917Y06732
X08325Y0668
X079629Y066441
X081917Y06637
X0789Y065989
X081917Y065405
X079839Y064575
X081917Y064443
X080066Y063849
X079062Y063849
X081261Y063567
X080051Y062735
X07907Y062735
X081636Y059985
X082817Y059985
X082227Y059985
X079058Y059158
X081636Y059119
X082817Y059119
X082227Y059119
X07888Y058764
X0827Y05845
X07926Y058384
X07888Y058371
X07888Y057977
X07888Y057583
X079353Y057308
X082936Y057229
X078921Y057179
X079274Y056796
X079787Y05675
X078881Y056438
X079274Y056402
X079484Y056166
X07888Y055615
X079058Y055221
X081812Y05287
X079071Y052628
X081824Y051757
X081799Y050487
X081799Y049506
X083605Y049119
X083841Y048922
X081799Y048521
X081799Y047537
X081799Y046544
X082817Y046048
X080075Y045935
X0791Y045935
X079088Y044822
X080087Y044822
X083093Y042111
X083841Y042071
X083117Y041022
X083853Y040991
X083605Y040615
X083251Y040457
X083251Y038882
X082266Y029749
X082266Y028686
X081059Y014575
X082961Y014575
X082117Y013933
X082283Y013767
X082961Y013551
X081059Y013551
X085154Y013551
X084839Y01422
X085928Y025103
X085731Y034906
X084392Y035418
X084117Y035575
X085534Y035695
X085731Y03589
X08518Y03593
X085731Y036284
X085731Y036875
X085534Y037071
X085731Y037268
X085534Y037465
X085731Y037662
X085573Y037859
X085573Y038253
X085731Y038646
X085731Y03904
X084156Y039473
X084904Y039985
X085508Y040795
X085508Y041386
X084825Y050536
X084944Y051481
X084825Y051875
X08585Y05215
X084944Y052268
X084944Y052662
X084944Y053056
X084944Y053449
X08581Y053843
X084944Y053843
X08581Y054276
X085101Y055654
X084077Y055812
X084865Y056284
X084865Y056756
X084865Y057229
X08388Y057229
X084865Y057701
X085849Y057741
X084865Y058371
X086085Y059079
X085377Y059119
X083999Y059119
X086085Y059945
X083999Y059985
X085377Y059985
X086006Y060339
X086006Y060812
X086006Y061323
X084471Y062741
X084471Y063607
X0854Y06635
X086Y06635
X08485Y06635
X086Y06725
X08485Y06725
X0854Y06725
X084114Y067382
X08455Y076107
X0856Y0772
X0842Y07755
X084943Y084749
X085888Y084749
X083999Y084788
X086374Y092449
X086453Y093236
X089195Y08315
X091105Y08315
X090945Y081496
X09025Y0808
X090118Y080315
X090197Y079528
X08745Y07075
X08755Y0692
X08965Y0679
X0872Y06725
X0866Y06725
X0878Y06725
X0866Y06635
X0872Y06635
X0878Y06635
X089707Y064079
X089314Y064079
X08892Y064079
X0909Y0637
X090101Y063686
X089707Y063686
X089314Y063686
X08892Y063686
X090495Y063686
X090101Y063292
X089707Y063292
X089314Y063292
X08892Y063292
X090495Y063292
X08892Y062898
X090101Y062898
X089707Y062898
X089314Y062898
X090495Y062898
X08892Y062504
X089314Y062504
X090101Y062504
X090888Y062504
X091282Y062504
X090495Y062504
X08892Y062111
X089707Y062111
X089314Y062111
X090101Y061717
X089707Y061717
X089314Y061717
X08892Y061717
X090888Y061717
X091184Y061697
X091184Y061343
X089314Y061323
X090888Y061323
X089707Y061323
X090101Y061323
X08892Y061323
X089314Y06093
X090101Y06093
X089707Y06093
X090888Y06093
X091184Y060697
X090101Y060536
X089707Y060536
X090888Y060536
X091184Y060343
X089314Y060142
X08892Y060142
X089707Y060142
X090101Y060142
X090888Y060142
X089668Y059749
X089314Y059749
X090101Y059749
X08892Y059749
X090888Y059749
X091184Y059697
X089314Y059355
X08892Y059355
X090101Y059355
X089707Y059355
X090888Y059355
X091184Y059343
X08892Y058961
X090101Y058961
X089707Y058961
X089314Y058961
X090888Y058961
X091184Y058797
X089314Y058567
X090101Y058567
X089707Y058567
X090888Y058567
X091184Y058443
X088762Y058331
X089314Y058174
X090101Y058174
X089707Y058174
X090888Y058174
X091184Y057898
X089707Y05778
X090101Y05778
X090888Y05778
X091184Y057543
X090888Y057386
X089314Y057386
X089707Y057386
X091184Y056997
X090888Y056993
X090495Y056993
X090101Y056993
X091184Y056643
X090888Y056599
X089314Y056599
X08892Y056599
X089707Y056599
X090101Y056599
X089314Y056271
X090101Y056205
X08892Y056205
X090888Y056205
X091184Y056097
X0871Y056
X089707Y055812
X090888Y055812
X089346Y055793
X088909Y055771
X090101Y05576
X091184Y055743
X089314Y055418
X090101Y055418
X089707Y055418
X090888Y055418
X08892Y055377
X091184Y055197
X08892Y055024
X090888Y055024
X089314Y055024
X089707Y055024
X091184Y054843
X089312Y054631
X08892Y05463
X090888Y05463
X086558Y05463
X089707Y05463
X090101Y05463
X090888Y054237
X091184Y054197
X08805Y05385
X08975Y05385
X089312Y053843
X090888Y053843
X091184Y053843
X090101Y053843
X090101Y053449
X089707Y053449
X090888Y053449
X090888Y053056
X090888Y052716
X091282Y052662
X089707Y052662
X090101Y052662
X08892Y052662
X089707Y052268
X090495Y052268
X090101Y052268
X089314Y052268
X08892Y051875
X089707Y051875
X090101Y051875
X089314Y051875
X089314Y051481
X08892Y051481
X090101Y051481
X089707Y051481
X089707Y051087
X089314Y051087
X08892Y051087
X090495Y051087
X089314Y050693
X08892Y050693
X090437Y0505
X090691Y045969
X08951Y045969
X090705Y043039
X090311Y043039
X091098Y043039
X090114Y042803
X088933Y042803
X089327Y042803
X087555Y042803
X090902Y042803
X091295Y042803
X087949Y042803
X090508Y042803
X087161Y042803
X088539Y042803
X087752Y041898
X087358Y041898
X08913Y041898
X088146Y041898
X089917Y041898
X089524Y041898
X090219Y041756
X09102Y04174
X090907Y04139
X08665Y040992
X086833Y040418
X086872Y040025
X086636Y039435
X086636Y038844
X086636Y038451
X086636Y036482
X086636Y036088
X090534Y025142
X088999Y025103
X086991Y025103
X087975Y025103
X089731Y015639
X087667Y013298
X093251Y011717
X092542Y025142
X091518Y025142
X093566Y025142
X093251Y033489
X093644Y033489
X093447Y034394
X09228Y041898
X091886Y041898
X091689Y042803
X092083Y042803
X092673Y042803
X093264Y042803
X091492Y043039
X091676Y04463
X09266Y050339
X091676Y050693
X093251Y050693
X093644Y050693
X092463Y051087
X091676Y051087
X093644Y051087
X093251Y051087
X093644Y051481
X092857Y051481
X092463Y051481
X092069Y051481
X092857Y051875
X093644Y051875
X092463Y051875
X092069Y051875
X093251Y051875
X092463Y052268
X092069Y052268
X092857Y052268
X092857Y052662
X092463Y052662
X091676Y052662
X092069Y052662
X093251Y052662
X093676Y052694
X093837Y052958
X093483Y052958
X092483Y052958
X091737Y052958
X091383Y052958
X092837Y052958
X093467Y053745
X093821Y053745
X091972Y053859
X092562Y053863
X091972Y054213
X092562Y054217
X091972Y054859
X093428Y055122
X093073Y055122
X091972Y055213
X093151Y055634
X091991Y055753
X093151Y055989
X091991Y056107
X093151Y056534
X091991Y056618
X093151Y056889
X091991Y056971
X093151Y057434
X091991Y057486
X093151Y057789
X091991Y05784
X093151Y058334
X091991Y058392
X093151Y058689
X091991Y05874
X093151Y059234
X091991Y059373
X093151Y059589
X091991Y059725
X091991Y060358
X093294Y060377
X09294Y060377
X091991Y060703
X093231Y061027
X093777Y061027
X092877Y061027
X092089Y061815
X092443Y061815
X092989Y061815
X093343Y061815
X093251Y062111
X092857Y062111
X093644Y062111
X092069Y062504
X092463Y062504
X091676Y062504
X091676Y063292
X093251Y063686
X09235Y064318
X093841Y07219
X092817Y073015
X093054Y081008
X093093Y081796
X093812Y081796
X091518Y09152
X095219Y081796
X095691Y081796
X094403Y081796
X096164Y081796
X09392Y071441
X095534Y066481
X094707Y066441
X096006Y064079
X094825Y064079
X095219Y063686
X095613Y063292
X095219Y063292
X096006Y063292
X094825Y063292
X095219Y062504
X096006Y062504
X095613Y062504
X094825Y062504
X094038Y062111
X094432Y062111
X093889Y061815
X094243Y061815
X095243Y061815
X094889Y061815
X095789Y061815
X096143Y061815
X096031Y061027
X094131Y061027
X095131Y061027
X094777Y061027
X095677Y061027
X095493Y059861
X095139Y059861
X096239Y059861
X094058Y059848
X094412Y059848
X094038Y059355
X094825Y059355
X095219Y059355
X094432Y059355
X096006Y059355
X095613Y059355
X094038Y058961
X094825Y058961
X094432Y058961
X095219Y058961
X096006Y058961
X095613Y058961
X094432Y058567
X094038Y058567
X095219Y058567
X094825Y058567
X096006Y058567
X095613Y058567
X094038Y058174
X094825Y058174
X095219Y058174
X094432Y058174
X096006Y058174
X095613Y058174
X094432Y05778
X094038Y05778
X095219Y05778
X094825Y05778
X095613Y05778
X096006Y05778
X094038Y057386
X094825Y057386
X094432Y057386
X095613Y057386
X096006Y057386
X095219Y057386
X094432Y056993
X094038Y056993
X095219Y056993
X094825Y056993
X095613Y056993
X096006Y056993
X095219Y056599
X094038Y056599
X094825Y056599
X094432Y056599
X095613Y056599
X096006Y056599
X095219Y056205
X094825Y056205
X094038Y056205
X095613Y056205
X094432Y056205
X096006Y056205
X096006Y055812
X095219Y055812
X094825Y055812
X094038Y055812
X094432Y055812
X095613Y055812
X094333Y055124
X096073Y055122
X095328Y055122
X093973Y055122
X094973Y055122
X095467Y053745
X095821Y053745
X094367Y053745
X094721Y053745
X094837Y052958
X094483Y052958
X096232Y052957
X095879Y052957
X095613Y052662
X095219Y052662
X096006Y052662
X094825Y052662
X094432Y052662
X094038Y052662
X095219Y051875
X096006Y051875
X094432Y051875
X094038Y051875
X094825Y051875
X095613Y051875
X094038Y051481
X095219Y051481
X096006Y051481
X094825Y051481
X094432Y051481
X096006Y051087
X094432Y051087
X095613Y051087
X095219Y051087
X094038Y051087
X094038Y050693
X094825Y050693
X094432Y050693
X096006Y050693
X095167Y050483
X095333Y050317
X095416Y045221
X095416Y044276
X095075Y041386
X094156Y040615
X095062Y040418
X094195Y040222
X095061Y040025
X095062Y03904
X095061Y03727
X09415Y0369
X0951Y0367
X095234Y0365
X095061Y036264
X095061Y035664
X095319Y035476
X095297Y035104
X095061Y034907
X096125Y029788
X096257Y020357
X09609Y02019
X09581Y013489
X097217Y018182
X096817Y018182
X0984Y02435
X097188Y029788
X098093Y029788
X098Y0435
X098802Y047672
X097581Y050693
X0964Y050693
X098369Y050693
X097188Y050693
X096794Y050693
X0964Y051087
X097581Y051087
X098369Y051087
X096794Y051087
X097188Y051087
X098762Y051087
X097975Y051087
X098369Y051481
X098762Y051481
X097581Y051481
X096794Y051481
X097188Y051481
X0964Y051481
X097975Y051481
X098369Y051875
X096794Y051875
X098762Y051875
X097975Y051875
X097188Y051875
X097581Y051875
X0964Y051875
X097975Y052662
X097581Y052662
X097188Y052662
X096794Y052662
X098762Y052662
X0964Y052662
X098369Y052662
X097037Y052958
X098583Y052958
X096683Y052958
X097603Y052977
X097954Y052977
X097921Y053745
X096921Y053745
X096567Y053745
X097567Y053745
X098074Y054847
X096423Y055104
X097628Y055122
X097273Y055122
X098074Y055201
X097188Y055418
X097581Y055812
X0964Y055812
X096794Y055812
X098093Y056027
X097188Y056205
X0964Y056205
X096794Y056205
X097581Y056205
X098093Y056379
X097188Y056599
X096794Y056599
X097581Y056599
X0964Y056599
X096794Y056993
X0964Y056993
X097581Y056993
X097188Y056993
X098093Y057011
X098093Y05737
X097188Y057386
X0964Y057386
X096794Y057386
X097581Y057386
X096794Y05778
X097188Y05778
X0964Y05778
X097581Y05778
X098074Y057947
X096794Y058174
X097188Y058174
X0964Y058174
X097581Y058174
X098074Y058301
X097188Y058567
X0964Y058567
X096794Y058567
X097581Y058567
X098074Y058847
X0964Y058961
X097188Y058961
X097581Y058961
X096794Y058961
X098074Y059201
X096794Y059355
X097581Y059355
X097188Y059355
X0964Y059355
X098663Y059847
X097493Y059861
X097139Y059861
X096597Y059867
X098663Y060201
X098231Y061027
X096777Y061027
X097131Y061027
X097877Y061027
X096889Y061815
X097989Y061815
X098343Y061815
X097243Y061815
X097188Y062111
X098369Y062111
X098762Y062111
X096794Y062111
X0964Y062111
X097975Y062111
X097581Y062111
X097975Y062504
X097581Y062504
X098762Y062898
X098369Y062898
X097581Y062898
X097975Y062898
X098369Y063292
X097581Y063292
X097188Y063292
X098762Y063292
X097975Y063292
X098369Y063686
X097188Y063686
X097581Y063686
X097975Y064079
X098369Y064079
X096558Y066481
X09685Y07095
X096597Y081796
X099961Y099321
X098976Y098888
X100984Y097943
X099449Y09691
X099395Y088745
X1011Y088552
X101125Y064079
X100731Y064079
X100731Y063686
X100337Y063686
X099156Y063292
X09955Y063292
X099943Y063292
X101125Y063292
X100731Y062898
X100337Y062898
X099156Y062898
X101125Y062898
X09955Y062898
X100731Y062504
X101125Y062504
X099943Y062111
X09955Y062111
X099156Y062111
X100731Y062111
X101125Y062111
X099443Y061815
X099089Y061815
X100731Y061717
X101125Y061717
X099846Y061485
X101125Y061323
X100731Y061323
X099846Y06113
X099331Y061027
X098977Y061027
X100731Y06093
X100731Y060536
X100337Y060477
X100041Y060217
X099254Y060217
X099254Y059863
X100041Y059863
X100337Y059749
X100337Y059355
X100041Y059217
X099254Y059217
X100337Y058961
X101125Y058961
X099254Y058863
X100041Y058863
X101125Y058567
X100337Y058567
X100041Y058317
X099254Y058217
X100337Y058174
X101125Y058174
X100041Y057963
X099254Y057863
X101125Y05778
X100731Y05778
X100731Y057386
X101125Y057386
X099235Y057366
X100041Y057317
X099235Y057011
X100731Y056993
X101125Y056993
X100041Y056963
X100731Y056599
X101125Y056599
X099235Y056382
X100041Y056217
X100337Y056205
X101125Y056205
X099235Y056027
X100041Y055863
X100337Y055812
X101125Y055812
X101125Y055418
X100337Y055418
X099254Y055217
X100041Y055217
X100337Y055024
X101125Y055024
X099254Y054863
X100041Y054863
X101125Y05463
X100337Y05463
X101125Y054237
X100731Y054237
X100041Y054217
X099254Y054217
X099254Y053863
X100041Y053863
X100731Y053843
X101125Y053843
X101125Y053449
X100731Y053449
X101125Y053056
X100731Y053056
X099683Y052958
X098937Y052958
X100037Y052958
X09955Y052662
X100731Y052662
X101125Y052662
X099156Y052662
X09955Y052268
X099943Y052268
X100731Y052268
X100337Y052268
X101125Y052268
X09955Y051875
X099943Y051875
X100731Y051875
X099156Y051875
X101125Y051875
X100337Y051875
X101125Y051481
X100337Y051481
X099943Y051481
X09955Y051481
X100731Y051481
X099156Y051481
X099156Y051087
X100731Y051087
X09955Y051087
X100337Y051087
X099943Y051087
X101125Y051087
X099943Y050693
X09955Y050693
X100337Y050693
X100941Y038118
X09955Y037504
X100678Y037436
X09955Y0365
X100691Y035418
X099195Y03463
X103487Y030142
X102476Y03178
X103487Y031835
X102345Y034591
X101636Y035772
X101585Y036115
X102306Y037347
X101676Y03841
X101912Y050693
X101518Y050693
X102306Y050693
X101912Y051087
X101518Y051087
X102306Y051087
X102306Y051481
X101912Y051481
X101518Y051481
X102424Y051756
X101518Y051875
X101912Y051875
X101518Y052268
X101912Y052268
X102306Y052268
X102306Y052662
X101518Y052662
X101912Y052662
X102306Y053056
X101912Y053056
X101518Y053056
X102306Y053449
X101912Y053449
X101518Y053449
X101912Y053843
X101518Y053843
X101518Y054237
X101912Y054237
X101912Y05463
X101518Y05463
X101912Y055024
X102306Y055024
X101518Y055024
X102306Y055418
X101518Y055418
X101912Y055418
X101518Y055812
X102306Y055812
X101912Y055812
X102306Y056205
X101912Y056205
X101518Y056205
X101518Y056599
X102306Y056599
X101912Y056599
X101912Y056993
X102306Y056993
X101518Y056993
X101912Y057386
X102306Y057386
X101518Y057386
X101518Y05778
X101912Y05778
X102306Y058174
X101912Y058174
X101518Y058174
X101912Y058567
X101518Y058567
X102306Y058567
X102306Y058961
X101912Y058961
X101518Y058961
X103802Y059552
X102424Y059552
X101518Y059749
X102699Y059945
X103802Y059945
X103802Y060339
X102699Y060339
X103132Y060851
X102699Y061127
X102699Y06152
X103762Y06152
X101518Y061717
X101886Y061743
X102331Y062085
X101886Y062137
X101912Y062504
X101518Y062898
X101912Y062898
X101518Y063292
X101912Y063292
X102306Y063292
X102306Y063686
X101518Y063686
X101912Y063686
X101518Y064079
X102306Y064079
X101912Y064079
X103787Y065377
X103054Y086638
X105896Y095866
X1071Y09015
X109395Y0876
X105888Y061914
X107503Y061914
X106951Y061127
X105928Y061127
X105849Y060339
X107503Y060339
X108337Y054827
X108387Y054377
X108387Y054127
X105287Y054027
X105691Y034276
X106282Y034237
X104589Y031835
X106636Y030103
X109069Y019276
X111037Y019276
X107592Y019276
X110545Y018214
X109561Y018214
X11787Y01678
X111533Y018214
X11301Y018214
X113994Y018214
X115144Y018214
X113502Y019276
X114455Y019276
X11445Y021441
X115179Y021441
X113355Y023786
X118776Y024732
X112817Y024985
X112817Y025339
X113587Y02555
X118798Y05778
X118599Y058174
X118251Y06093
X1176Y07055
X120587Y098709
X121295Y095244
X12275Y094695
X121374Y053669
X122713Y05363
X119865Y051264
X119865Y050674
X119865Y049532
X119865Y048941
X119865Y048469
X119865Y047878
X119865Y047288
X119865Y046697
X12224Y04426
X121295Y04422
X119865Y043745
X119865Y043154
X119865Y042682
X119865Y042091
X119865Y041697
X119865Y041107
X122319Y036465
X12098Y036031
X120429Y036031
X12228Y035559
X122004Y034929
X120272Y033748
X120902Y033748
X119642Y033669
X120783Y032567
X12039Y031976
X119681Y031701
X120154Y031622
X119406Y031346
T2C.00984F0S0
X048617Y066441
X049392Y066441
X048999Y066441
X049774Y066441
X051361Y066441
X050979Y066441
X050758Y06715
X049601Y06715
X050377Y06715
X049983Y06715
X053695Y06715
X054077Y06715
X054853Y06715
X054471Y06715
X056058Y06715
X05644Y06715
X057215Y06715
X056833Y06715
X058802Y06715
X05842Y06715
X051754Y066441
X052136Y066441
X055455Y066441
X055849Y066441
X057817Y066441
X058211Y066441
X057436Y066441
X058593Y066441
X055073Y066441
X056231Y066441
X06018Y066441
X060573Y066441
X059798Y066441
X060955Y066441
X062542Y066441
X062936Y066441
X06216Y066441
X063317Y066441
X064904Y066441
X065298Y066441
X064522Y066441
X06568Y066441
X061164Y06715
X060782Y06715
X063526Y06715
X063144Y06715
X064302Y06715
X06392Y06715
X06194Y06715
X061558Y06715
X059577Y06715
X059195Y06715
X066164Y096323
X065782Y096323
X06527Y097308
X065652Y097308
X066046Y097308
X066428Y097308
X067306Y097308
X067699Y097308
X066924Y097308
X068081Y097308
X070941Y097291
X071335Y097291
X070559Y097291
X068264Y096346
X06787Y096346
X068646Y096346
X067488Y096346
X066558Y096323
X06694Y096323
X071097Y096323
X07018Y067229
X069786Y067229
X070562Y067229
X069404Y067229
X066912Y06719
X067688Y06719
X06653Y06719
X067306Y06719
X068262Y066481
X069038Y066481
X068644Y066481
X06942Y066481
X073539Y096307
X073146Y096307
X072764Y096307
X073921Y096307
X078669Y096307
X071873Y096323
X071479Y096323
X072254Y096323
X077778Y096323
X077384Y096323
X07816Y096323
X077003Y096323
X072621Y097268
X073014Y097268
X073396Y097268
X072239Y097268
X078526Y097268
X078144Y097268
X076846Y097291
X07724Y097291
X076465Y097291
X071717Y097291
X077622Y097291
X082201Y097291
X082594Y097291
X081819Y097291
X082976Y097291
X079302Y097268
X07892Y097268
X083841Y097268
X083459Y097268
X084235Y097268
X084617Y097268
X082699Y096323
X083475Y096323
X082317Y096323
X083093Y096323
X079827Y096307
X079051Y096307
X079445Y096307
X08476Y096307
X084366Y096307
X085142Y096307
X083984Y096307
T3C.01F095S3
X004936Y035333
X005467Y035394
X00553Y056999
X00414Y057329
X00553Y057349
X0055Y057709
X004403Y058653
X0044Y05905
X004396Y059469
X0063Y059819
X00581Y059829
X00606Y059829
X00478Y060289
X006341Y060677
X00496Y060682
X004958Y06119
X00496Y061443
X005802Y061694
X004958Y061701
X00604Y062539
X0063Y062539
X00579Y062549
X00612Y062879
X004001Y064289
X00401Y064649
X004001Y064989
X00635Y06615
X004015Y066177
X00635Y06655
X00403Y066559
X006335Y066937
X004015Y066969
X006335Y067567
X004015Y067577
X00402Y067959
X00634Y067969
X006335Y068354
X004015Y068369
X003974Y068943
X00635Y068967
X004Y06935
X00635Y069369
X004015Y069759
X00635Y069759
X003974Y070383
X00634Y070419
X00635Y0708
X004Y0708
X004015Y071169
X00635Y071169
X004809Y072178
X004849Y072847
X00429Y091394
X00429Y092394
X00429Y093394
X00429Y094394
X004274Y101678
X008195Y101662
X008195Y096662
X008211Y078056
X008211Y076056
X008254Y074053
X00768Y070749
X00695Y070279
X008569Y069063
X00858Y068669
X008554Y068283
X008569Y067663
X00856Y067309
X008524Y066923
X008569Y066263
X00855Y065869
X008544Y065503
X008028Y065008
X00803Y064649
X0086Y064309
X008028Y06426
X00859Y063949
X00859Y063609
X00674Y062849
X00682Y062539
X00656Y062539
X006823Y061705
X00771Y061699
X00863Y061459
X0077Y061439
X006816Y061194
X00769Y061189
X00769Y060929
X006816Y060677
X00863Y060319
X00656Y059819
X006738Y059445
X006728Y059035
X00713Y058789
X006744Y058629
X012594Y063591
X01256Y063959
X012594Y064299
X010783Y06548
X010823Y065874
X010905Y066263
X010905Y066872
X01088Y067259
X010917Y067635
X010905Y068272
X01091Y068679
X010905Y069063
X010495Y070418
X00951Y070418
X010495Y07093
X009471Y071008
X010534Y07156
X009471Y071599
X00951Y072071
X010495Y072111
X010967Y076127
X011724Y077662
X012083Y077662
X013526Y078253
X011776Y078843
X012127Y078843
X011772Y080024
X012131Y080024
X009983Y081008
X011793Y081205
X012139Y081205
X009983Y081402
X009983Y081796
X011164Y082583
X011773Y083961
X012126Y083961
X011773Y085142
X012128Y085142
X009629Y097111
X009629Y097662
X009904Y101717
X009904Y10219
X01666Y103439
X01954Y101189
X02054Y101189
X01666Y099501
X015006Y098165
X015319Y097653
X02039Y094849
X02055Y093689
X02055Y091869
X017069Y089552
X020022Y089473
X014904Y076266
X018447Y076264
X02081Y076264
X016085Y076264
X019629Y076262
X017266Y076261
X016085Y07591
X02081Y07591
X014904Y07591
X017266Y075909
X019629Y075909
X018447Y075909
X02014Y050818
X019589Y050818
X019865Y050582
X01829Y050385
X019589Y050346
X02014Y050346
X019865Y050149
X020101Y049913
X019589Y049913
X020258Y048614
X020652Y047826
X019038Y030024
X015715Y024068
X019455Y023477
X016502Y02269
X016502Y021115
X025573Y041921
X026164Y047826
X026164Y04881
X021439Y050582
X022699Y051212
X024927Y07472
X025841Y075103
X022778Y07591
X022778Y076266
X024962Y076875
X025315Y076875
X025318Y078056
X024962Y078056
X024962Y079237
X02532Y079237
X024959Y080221
X025318Y080221
X024963Y081205
X025317Y081205
X025318Y082386
X024959Y082386
X024965Y083567
X025317Y083567
X025561Y085244
X02558Y085614
X02309Y090909
X02559Y091049
X02159Y091119
X02313Y091829
X02449Y091849
X02312Y092179
X02401Y093479
X02552Y094529
X02141Y094589
X02254Y101189
X02154Y101189
X02554Y101189
X02454Y101189
X02354Y101189
X02754Y101189
X02654Y101189
X02854Y101189
X03374Y101189
X02654Y095479
X02853Y095239
X027599Y092735
X02724Y091879
X027503Y08652
X031978Y08637
X028548Y08636
X033612Y086074
X028558Y08587
X02856Y085368
X032758Y08517
X028544Y084869
X030748Y08382
X032227Y054434
X031833Y053449
X031833Y052426
X031833Y051284
X031833Y050142
X031833Y048961
X031873Y04778
X031833Y04656
X031833Y045182
X031833Y044001
X031873Y042701
X026558Y041527
X031833Y041048
X031833Y039512
X032345Y01593
X032345Y014552
X028977Y013666
X029469Y013666
X033815Y013591
X035787Y013543
X037673Y013669
X036041Y014278
X038369Y039079
X038329Y056599
X038329Y058961
X038723Y065182
X038723Y070654
X036916Y084038
X034226Y08488
X038753Y08488
X034226Y08538
X038753Y08538
X038753Y08588
X038753Y08638
X037712Y086381
X034205Y086381
X036916Y087532
X037908Y088861
X03579Y091049
X03794Y091609
X03485Y091759
X03797Y091969
X0379Y093409
X03484Y093689
X035662Y094573
X03453Y095029
X03474Y101189
X03574Y101189
X03774Y101189
X03674Y101189
X03874Y101189
X04274Y101189
X04274Y098084
X042704Y095419
X043604Y095419
X03988Y094449
X04154Y093399
X043054Y092259
X04154Y091859
X03896Y091789
X042344Y091669
X03999Y091109
X041091Y090969
X043514Y089969
X042081Y086374
X04144Y069591
X041282Y061127
X041282Y060339
X041282Y056993
X041282Y056205
X039038Y053646
X040022Y052465
X043815Y013591
X041768Y013591
X040565Y013591
X045783Y013591
X047831Y013591
X045789Y014609
X047384Y041048
X044606Y058268
X047188Y059945
X047188Y06152
X045101Y062662
X045101Y063095
X044038Y063095
X044825Y064473
X044432Y064473
X044432Y064867
X044825Y064867
X043959Y066048
X045101Y066638
X043999Y067032
X045101Y067032
X045101Y068213
X044077Y068607
X044432Y069985
X044825Y069985
X044432Y070379
X044825Y070379
X04388Y071599
X045101Y07215
X044038Y072544
X045101Y072544
X047975Y081402
X048762Y087032
X04829Y087032
X047304Y087249
X048526Y087268
X047304Y087504
X04829Y087504
X048762Y087504
X048526Y087741
X047304Y08776
X04829Y087977
X048762Y087977
X046597Y088292
X044454Y090019
X0479Y090182
X044454Y091099
X04806Y092739
X04693Y093339
X04693Y094439
X04816Y095189
X045404Y095419
X044504Y095419
X04703Y095789
X04703Y096889
X04821Y097639
X04708Y098239
X04708Y099339
X04821Y100089
X04706Y100689
X04706Y101789
X05116Y101799
X05091Y101089
X04936Y100839
X05136Y100039
X05116Y099589
X05089Y098629
X04936Y098389
X051096Y097639
X05111Y097139
X04931Y095939
X050433Y095866
X05138Y095089
X05101Y094689
X04921Y093489
X050315Y093425
X050996Y092739
X050945Y089434
X049235Y087977
X05022Y08776
X048999Y087741
X05022Y087504
X049235Y087504
X048999Y087268
X05022Y087249
X049235Y087071
X050534Y057977
X050534Y05719
X050534Y056402
X050534Y055615
X05014Y054827
X050534Y05404
X05014Y05404
X05014Y053253
X050534Y052465
X05014Y051678
X05014Y05089
X050534Y05089
X050534Y050103
X05014Y049316
X050534Y048528
X049747Y042623
X049878Y013591
X051846Y013591
X053746Y013662
X052109Y041048
X052109Y052465
X051833Y053646
X051715Y054434
X052109Y054827
X051794Y056008
X052109Y056402
X052503Y057977
X051715Y058371
X053093Y064552
X05329Y081402
X053408Y087032
X052422Y087249
X053644Y087268
X053408Y087504
X052422Y087504
X053644Y087741
X052422Y08776
X053408Y087977
X051715Y088292
X052848Y090102
X05211Y093239
X05211Y093739
X05211Y094239
X051811Y094252
X05226Y095589
X05226Y096089
X05226Y096589
X05186Y096689
X05226Y098089
X05226Y098589
X05226Y099089
X05191Y099139
X05229Y100569
X05229Y101069
X05228Y101569
X05191Y101589
X05758Y101569
X05671Y099801
X05631Y099789
X05711Y099789
X05754Y099079
X05671Y097321
X05631Y097309
X05711Y097309
X05763Y096579
X05671Y094821
X05631Y094809
X05711Y094809
X0576Y094229
X05671Y092471
X05631Y092459
X05711Y092459
X057975Y090142
X056243Y089316
X056833Y088292
X05388Y087977
X054353Y087977
X058526Y087938
X055338Y08776
X057542Y08776
X054117Y087741
X058762Y087701
X055338Y087504
X057541Y087504
X054353Y087504
X05388Y087504
X058526Y087465
X054117Y087268
X057541Y087249
X055338Y087249
X058762Y087229
X054353Y087071
X05388Y087032
X058526Y086993
X058408Y081402
X054471Y042623
X056833Y041048
X057503Y015339
X054314Y013662
X059392Y013292
X059195Y041048
X062345Y042623
X062189Y067657
X05951Y067662
X058999Y086993
X059471Y087032
X059235Y087229
X060457Y087249
X058999Y087465
X059471Y087465
X060457Y087504
X059235Y087701
X060457Y08776
X058999Y087938
X059471Y087938
X061006Y089355
X059113Y092412
X061213Y092412
X060213Y092412
X062213Y092412
X060992Y098834
X061294Y099107
X061596Y099395
X06184Y099654
X07134Y09995
X068976Y099913
X066024Y099909
X067795Y099906
X067205Y099906
X068386Y099906
X068638Y099906
X069571Y099906
X070748Y099906
X069827Y099902
X066616Y0999
X070157Y099898
X066085Y064552
X068822Y057583
X068819Y054434
X068035Y053646
X067857Y052662
X065495Y042623
X068644Y042623
X065691Y017623
X066003Y016402
X069012Y014535
X064155Y013688
X064743Y013684
X066965Y013591
X069012Y013591
X071794Y042623
X075081Y043129
X076144Y043129
X074491Y043129
X075554Y043129
X074058Y044822
X071794Y044985
X074058Y045935
X073467Y045935
X072221Y046264
X073335Y046264
X072221Y046855
X073335Y046855
X073093Y048331
X073093Y048725
X074058Y051515
X073467Y051515
X074058Y052628
X073467Y052628
X072455Y054273
X076341Y054282
X075783Y054811
X074451Y060767
X073861Y060767
X075514Y060806
X074924Y060806
X076144Y060806
X072418Y068508
X073532Y068508
X072418Y069099
X073532Y069099
X072418Y06965
X073532Y06965
X072418Y070241
X073532Y070241
X074451Y070412
X073861Y070412
X074451Y071526
X073861Y071526
X073054Y071737
X075632Y072313
X075042Y072313
X07252Y099906
X076067Y099906
X073701Y099909
X07311Y099909
X075472Y099909
X074882Y099909
X074291Y099909
X075193Y099942
X071931Y09995
X07497Y100659
X08088Y100689
X076654Y099909
X078425Y099909
X079016Y099909
X081374Y099909
X080787Y099909
X080193Y099909
X08107Y099909
X07961Y099906
X077836Y0999
X077246Y0999
X07642Y072313
X077916Y072313
X07701Y072313
X078506Y072313
X079195Y072127
X078782Y070542
X079373Y070541
X079373Y069428
X079766Y063849
X079373Y063849
X080357Y063849
X079766Y062735
X078782Y062735
X079373Y062735
X080357Y062735
X077365Y060806
X076735Y060806
X077955Y060806
X077758Y054282
X078349Y054282
X076932Y054282
X078782Y052628
X079373Y052628
X079373Y051515
X079587Y048725
X079589Y048339
X079766Y045935
X079373Y045935
X080357Y045935
X078782Y044822
X079766Y044822
X080357Y044822
X079373Y044822
X077719Y043129
X076617Y043129
X07831Y043129
X077207Y043129
X079091Y014535
X079091Y013591
X082817Y044591
X083211Y046127
X081799Y046264
X081799Y046855
X081799Y047249
X082817Y047268
X083172Y047268
X083566Y047268
X082975Y047504
X083369Y047544
X082817Y04778
X083172Y04778
X083566Y047819
X081799Y047839
X081799Y048233
X081799Y048824
X083014Y049001
X081799Y049217
X081799Y049808
X081799Y050201
X081799Y050792
X082113Y051757
X081523Y051757
X082113Y05287
X081522Y05287
X081615Y063567
X081917Y064138
X081918Y064729
X081917Y065123
X081918Y065713
X081917Y066067
X081918Y066658
X081917Y067012
X081918Y067603
X081917Y068154
X081918Y068745
X081593Y07027
X082706Y07027
X081593Y070861
X082706Y070861
X083762Y074552
X083762Y075064
X083605Y0766
X083151Y0999
X08256Y0999
X081969Y099902
X083736Y099909
X08559Y100649
X0864Y099919
X084331Y099909
X084917Y099909
X086693Y099909
X08728Y099909
X086102Y099906
X085512Y099906
X08665Y091485
X08665Y090885
X086574Y086495
X088154Y086495
X086574Y085795
X088154Y085795
X086574Y085095
X088154Y085095
X086574Y084495
X088154Y084495
X088268Y082677
X0848Y07755
X084151Y076205
X085573Y075693
X087537Y075382
X08451Y075103
X084117Y075064
X084314Y074827
X08392Y074788
X084117Y074552
X08451Y074552
X084353Y07341
X08875Y0714
X08865Y0704
X088723Y065064
X087621Y062859
X087621Y062504
X087621Y062071
X088329Y061008
X088329Y060693
X086085Y056756
X086321Y056284
X086597Y051481
X084786Y046363
X086971Y042955
X088741Y041668
X088351Y041668
X086903Y04159
X087741Y040873
X088101Y040868
X087222Y039997
X087222Y039643
X086903Y03963
X087222Y038497
X087222Y038143
X086903Y03805
X087222Y036997
X086903Y03669
X087222Y036643
X087841Y035023
X088195Y035023
X086903Y03483
X087161Y034543
X087581Y030182
X086597Y030182
X088605Y030182
X093251Y013292
X089582Y013648
X088933Y013648
X091306Y015639
X091203Y030182
X09014Y030182
X092188Y030182
X093172Y030182
X089136Y034643
X090911Y034643
X090121Y034643
X093631Y034643
X092091Y034643
X090321Y034943
X089695Y035023
X091195Y035023
X089341Y035023
X090841Y035023
X092695Y035023
X092341Y035023
X093314Y036643
X093314Y036997
X093314Y038143
X093314Y038497
X093314Y039643
X093314Y039997
X092541Y040873
X092895Y040873
X093601Y041668
X092486Y041745
X092266Y049237
X091085Y049237
X091676Y049237
X093447Y049237
X092857Y049237
X093751Y049886
X091983Y049887
X090692Y064487
X089904Y06467
X090298Y064867
X08951Y065064
X089117Y065082
X091085Y065164
X091677Y069382
X090432Y0704
X092917Y070422
X092197Y070562
X092337Y071032
X092917Y071922
X092463Y071953
X092337Y072762
X09035Y0734
X091707Y073472
X092705Y082212
X08936Y083912
X093615Y084269
X093812Y084466
X092867Y084612
X092671Y084808
X092867Y085005
X092671Y085202
X093274Y085222
X09061Y085362
X092867Y085399
X093274Y085576
X092874Y085787
X092867Y086186
X093274Y086206
X092671Y086383
X093274Y08656
X092867Y086974
X092671Y087171
X093274Y08719
X089084Y087195
X093274Y087545
X092867Y087761
X089084Y087795
X092671Y087958
X092867Y088155
X093274Y088175
X092671Y088352
X089084Y088385
X093274Y088529
X092867Y088942
X089084Y088995
X092671Y089139
X093274Y089159
X093274Y089513
X089084Y089595
X092867Y08973
X092671Y089927
X093274Y090143
X089084Y090195
X093274Y090497
X089084Y090895
X092867Y091108
X093274Y091127
X092671Y091305
X093274Y091482
X089084Y091495
X093812Y091856
X089084Y092195
X093025Y092249
X093615Y092249
X089084Y092795
X09382Y0932
X0928Y0932
X093Y094323
X093Y094677
X0942Y094677
X0953Y094677
X096028Y094323
X09415Y094323
X094001Y0935
X095001Y0935
X096364Y0935
X095182Y0932
X096182Y0932
X094009Y092249
X09519Y092249
X094797Y092249
X096175Y092249
X094206Y091856
X094993Y091856
X095387Y091856
X095978Y091856
X096371Y091856
X094505Y09132
X094155Y09132
X094029Y090519
X094029Y090164
X09534Y085518
X095694Y085518
X09534Y08473
X094513Y08473
X094159Y08473
X095694Y08473
X095978Y084466
X094993Y084466
X095781Y084269
X094797Y084269
X093935Y074176
X093935Y073426
X093935Y072926
X093935Y072426
X093935Y071176
X093935Y070676
X093935Y070176
X093935Y069926
X093935Y069676
X094038Y049237
X095219Y049237
X094629Y049237
X093928Y0416
X093928Y04101
X093928Y03825
X093928Y03746
X093928Y03472
X09592Y023298
X09582Y01835
X09582Y017995
X096047Y017272
X09579Y01709
X096054Y016886
X09579Y016745
X096317Y014882
X095817Y014882
X098317Y014882
X098817Y014882
X097817Y014882
X098817Y015872
X098317Y015882
X097017Y016162
X097148Y016953
X096873Y016953
X097148Y017229
X096873Y017229
X09798Y017279
X098474Y017835
X097017Y018046
X098474Y01819
X097443Y019185
X096707Y023298
X097621Y023372
X097542Y024001
X0964Y024434
X097542Y024434
X0964Y024867
X096504Y030128
X097368Y03762
X098468Y03797
X09812Y037978
X097368Y03832
X098119Y038591
X098468Y03862
X097368Y03892
X098468Y03927
X098118Y039282
X096715Y069676
X096715Y069926
X096715Y070176
X096715Y070426
X096715Y070676
X096715Y071176
X096715Y071426
X096715Y071676
X096715Y071926
X096715Y072176
X096715Y072426
X096715Y072926
X096715Y073676
X096715Y074176
X097458Y081676
X096765Y084269
X097946Y084269
X097356Y084269
X097749Y084466
X096962Y084466
X098273Y084612
X096875Y08473
X096521Y08473
X098076Y084808
X098273Y085005
X098076Y085202
X097761Y085222
X098273Y085399
X097761Y085576
X098076Y085596
X098273Y086186
X097761Y086206
X098076Y086383
X097761Y08656
X098273Y086974
X098076Y087171
X097761Y08719
X097761Y087545
X098273Y087958
X098076Y088155
X097761Y088175
X097761Y088529
X097761Y089159
X097761Y089513
X098273Y089533
X098076Y08973
X098273Y089927
X098076Y090123
X097761Y090143
X096978Y090164
X097761Y090497
X096978Y090519
X098273Y090714
X09726Y090822
X098076Y090911
X097761Y091127
X098273Y091305
X096615Y09134
X096975Y09135
X097761Y091482
X098273Y091698
X097946Y091856
X097159Y091856
X097552Y091856
X097749Y092249
X096568Y092249
X097356Y092249
X097364Y0935
X0965Y094323
X0972Y094677
X0986Y094762
X1Y097264
X0989Y097264
X1011Y094772
X100857Y093132
X10114Y092212
X09981Y091502
X099454Y091501
X101137Y091122
X099454Y091108
X10011Y090812
X101347Y089532
X101347Y089002
X101507Y087942
X100018Y087565
X101297Y087323
X101937Y086272
X103537Y050831
X103587Y050057
X10014Y046048
X101794Y04152
X100833Y023085
X099124Y022849
X100233Y022585
X100833Y022185
X103194Y01822
X10038Y01819
X101717Y018046
X103194Y017865
X10038Y017835
X10268Y017279
X100754Y017279
X101558Y017229
X101833Y017229
X10038Y01708
X101833Y016953
X101558Y016953
X100754Y016886
X10038Y016725
X101717Y016119
X099307Y016062
X103517Y015952
X103017Y015932
X100517Y014882
X101017Y014882
X102517Y014882
X103017Y014793
X103517Y014793
X105075Y031858
X105783Y032252
X103972Y033669
X10476Y033669
X107283Y049994
X104284Y050019
X104185Y050258
X107301Y050393
X105614Y050407
X105946Y05041
X105279Y050411
X106259Y050415
X106258Y050712
X105931Y050729
X105616Y050734
X105277Y050747
X10423Y050803
X106258Y051054
X105616Y051056
X105928Y051069
X105277Y051086
X107301Y051376
X106259Y051391
X105279Y051391
X105906Y051393
X105596Y051393
X104282Y051768
X105576Y052415
X106643Y052452
X10505Y090157
X1068Y095866
X113841Y097386
X113408Y092308
X113684Y092268
X111295Y088591
X111295Y086661
X113118Y05367
X112718Y05367
X112718Y05287
X113118Y05287
X112718Y05207
X113118Y05207
X112718Y05127
X113118Y05127
X112718Y05047
X113118Y05047
X112718Y04967
X113118Y04967
X112718Y04887
X113118Y04887
X112718Y04807
X113118Y04807
X113118Y04727
X112718Y04727
X112718Y04647
X113118Y04647
X113118Y04567
X112718Y04567
X112718Y04487
X113118Y04487
X113118Y04407
X112718Y04407
X112718Y04307
X113118Y04307
X112718Y04207
X113118Y04207
X112718Y04107
X113118Y04107
X113118Y04007
X112718Y04007
X113118Y03907
X112718Y03907
X112718Y03807
X113118Y03807
X112718Y03707
X113118Y03707
X113366Y024137
X118074Y040515
X118644Y059237
X118802Y059473
X118644Y059749
X118258Y06294
X116105Y072268
X115888Y084591
X114495Y085612
X115914Y086597
X115887Y088589
X115735Y089635
X115537Y089868
X115869Y090073
X117104Y09027
X115185Y090435
X116543Y090435
X117847Y090439
X116179Y090447
X117019Y090765
X11596Y090772
X114605Y090772
X117252Y091167
X117852Y091536
X115185Y091545
X116548Y091545
X115219Y092229
X114077Y092268
X115455Y093489
X118684Y093489
X114983Y093528
X116085Y097386
X114904Y097386
X118644Y097386
X117542Y097386
X11565Y10179
X1212Y098354
X119629Y097386
X12275Y0967
X119195Y093489
X120022Y062701
X119747Y061245
X118998Y06089
X119392Y059788
X118999Y059749
X119195Y059512
X119392Y059237
X118999Y059237
X12081Y058764
X119192Y058176
T4C.02362F197S55
X028585Y010484
X027365Y010484
X028585Y011271
X027365Y011271
X028585Y012059
X027365Y012059
X028585Y012846
X027365Y012846
X0324Y01296
X033199Y01296
X029806Y012846
X031798Y012271
X032798Y012271
X033798Y012271
X029806Y012059
X0314Y011582
X032199Y011582
X0334Y011582
X029806Y011271
X033199Y010598
X0324Y010598
X029806Y010484
X032798Y009909
X031798Y009909
X033798Y009909
X0334Y00922
X0314Y00922
X032199Y00922
X034199Y00922
X0354Y00922
X036199Y00922
X0374Y00922
X038199Y00922
X034798Y009909
X035798Y009909
X036798Y009909
X037798Y009909
X038798Y009909
X0344Y010598
X035199Y010598
X0364Y010598
X037199Y010598
X0384Y010598
X034199Y011582
X0354Y011582
X036199Y011582
X0374Y011582
X038199Y011582
X035798Y012271
X034798Y012271
X036798Y012271
X037798Y012271
X038798Y012271
X037199Y01296
X0384Y01296
X035199Y01296
X0344Y01296
X0364Y01296
X039199Y01296
X0404Y01296
X041199Y01296
X0424Y01296
X043199Y01296
X039798Y012271
X040798Y012271
X041798Y012271
X042798Y012271
X043798Y012271
X0414Y011582
X042199Y011582
X0434Y011582
X0394Y011582
X040199Y011582
X0424Y010598
X043199Y010598
X0404Y010598
X039199Y010598
X041199Y010598
X039798Y009909
X041798Y009909
X040798Y009909
X042798Y009909
X043798Y009909
X040199Y00922
X042199Y00922
X0434Y00922
X0414Y00922
X0394Y00922
X044199Y00922
X0454Y00922
X046199Y00922
X0474Y00922
X048199Y00922
X044798Y009909
X045798Y009909
X046798Y009909
X047798Y009909
X048798Y009909
X0444Y010598
X045199Y010598
X0464Y010598
X047199Y010598
X0484Y010598
X044199Y011582
X0454Y011582
X046199Y011582
X0474Y011582
X048199Y011582
X045798Y012271
X044798Y012271
X046798Y012271
X047798Y012271
X048798Y012271
X047199Y01296
X0484Y01296
X045199Y01296
X0444Y01296
X0464Y01296
X049199Y01296
X0504Y01296
X051199Y01296
X053388Y012846
X055829Y012846
X054609Y012846
X049798Y012271
X050798Y012271
X053388Y012059
X055829Y012059
X054609Y012059
X0494Y011582
X050199Y011582
X053388Y011271
X055829Y011271
X054609Y011271
X051199Y010598
X049199Y010598
X0504Y010598
X054609Y010484
X053388Y010484
X055829Y010484
X050798Y009909
X049798Y009909
X050199Y00922
X0494Y00922
X063835Y010484
X062615Y010484
X065056Y010484
X062615Y011271
X063835Y011271
X065056Y011271
X062615Y012059
X063835Y012059
X065056Y012059
X065056Y012846
X063835Y012846
X062615Y012846
X06765Y01296
X068449Y01296
X06965Y01296
X070449Y01296
X068048Y012271
X071048Y012271
X069048Y012271
X070048Y012271
X067048Y012271
X067449Y011582
X06865Y011582
X069449Y011582
X07065Y011582
X06665Y011582
X068449Y010598
X06765Y010598
X06965Y010598
X070449Y010598
X070048Y009909
X071048Y009909
X068048Y009909
X067048Y009909
X069048Y009909
X06865Y00922
X067449Y00922
X06665Y00922
X069449Y00922
X07065Y00922
X071449Y00922
X07265Y00922
X073449Y00922
X07465Y00922
X075449Y00922
X073048Y009909
X072048Y009909
X074048Y009909
X075048Y009909
X076048Y009909
X07165Y010598
X07365Y010598
X074449Y010598
X07565Y010598
X072449Y010598
X071449Y011582
X07465Y011582
X075449Y011582
X07265Y011582
X073449Y011582
X076048Y012271
X072048Y012271
X073048Y012271
X074048Y012271
X075048Y012271
X07365Y01296
X07165Y01296
X07565Y01296
X074449Y01296
X072449Y01296
X07765Y01296
X078449Y01296
X076449Y01296
X07965Y01296
X080449Y01296
X078048Y012271
X079048Y012271
X080048Y012271
X081048Y012271
X077048Y012271
X07665Y011582
X077449Y011582
X07865Y011582
X079449Y011582
X08065Y011582
X07765Y010598
X080449Y010598
X076449Y010598
X078449Y010598
X07965Y010598
X077048Y009909
X078048Y009909
X079048Y009909
X081048Y009909
X080048Y009909
X077449Y00922
X079449Y00922
X08065Y00922
X07865Y00922
X07665Y00922
X081449Y00922
X08265Y00922
X083449Y00922
X085449Y00922
X08465Y00922
X082048Y009909
X083048Y009909
X085048Y009909
X086048Y009909
X084048Y009909
X08165Y010598
X082449Y010598
X08565Y010598
X08365Y010598
X084449Y010598
X081449Y011582
X08265Y011582
X085449Y011582
X083449Y011582
X08465Y011582
X084048Y012271
X085048Y012271
X082048Y012271
X083048Y012271
X086048Y012271
X08565Y01296
X082449Y01296
X084449Y01296
X08165Y01296
X08365Y01296
X086449Y01296
X088638Y012846
X091079Y012846
X089859Y012846
X089859Y012059
X091079Y012059
X088638Y012059
X089859Y011271
X088638Y011271
X091079Y011271
X086449Y010598
X088638Y010484
X089859Y010484
X091079Y010484
T5C.02559F197S55
X116167Y008666G85X116167Y008942
T6C.02756F197S55
X027664Y023016
X028414Y02341
X027664Y023803
X028414Y024197
X027664Y024591
X028414Y024984
X027664Y025378
X028414Y025772
X027664Y026166
X028414Y026559
X027664Y026953
X028414Y027347
X027664Y02774
X028414Y028134
X027664Y028528
X028414Y028921
X027664Y029315
X028414Y029709
X027664Y030103
X028414Y030496
X027664Y03089
X028414Y031284
X027664Y031677
X028414Y032071
X027664Y032465
X028414Y032858
X027664Y033252
X028414Y033646
X027664Y03404
X028414Y034433
X027664Y034827
X028414Y035221
X027664Y035614
X028414Y036008
X027664Y036402
X028414Y036795
X027664Y037189
X028414Y037583
X027664Y037977
X028414Y03837
X027664Y038764
X028414Y039158
X027664Y039551
X028414Y039945
X027664Y040339
X028414Y040732
X027664Y041126
X028414Y04152
X027664Y041914
X028414Y042307
X027664Y042701
X028414Y043095
X027664Y043488
X028414Y043882
X027664Y044276
X028414Y044669
X027664Y045063
X028414Y045457
X027664Y045851
X028414Y046244
X027664Y046638
X028414Y047032
X027664Y047425
X028414Y047819
X027664Y049788
X028414Y050181
X027664Y050575
X028414Y050969
X027664Y051362
X028414Y051756
X027664Y05215
X028414Y052543
X027664Y052937
X028414Y053331
X027664Y053725
X028414Y054118
X027664Y054512
X028414Y054906
X027664Y055299
X028414Y055693
X027664Y056087
X028414Y05648
X027664Y056874
X028414Y057268
X027664Y057662
X028414Y058055
X027664Y058449
X028414Y058843
X027664Y059236
X028414Y05963
X027664Y060024
X028414Y060417
X027664Y060811
X028414Y061205
X027664Y061599
X028414Y061992
X027664Y062386
X028414Y06278
X027664Y063173
X028414Y063567
X027664Y063961
X028414Y064354
X027664Y064748
X028414Y065142
X027664Y065536
X028414Y065929
X027664Y066323
X028414Y066717
X027664Y06711
X028414Y067504
X027664Y067898
X028414Y068291
X027664Y068685
X028414Y069079
X027664Y069473
X028414Y069866
X027664Y07026
X028414Y070654
X027664Y071047
X028414Y071441
X029916Y071441
X029166Y071047
X029916Y070654
X029166Y07026
X029916Y069866
X029166Y069473
X029916Y069079
X029166Y068685
X029916Y068291
X029166Y067898
X029916Y067504
X029166Y06711
X029916Y066717
X029166Y066323
X029916Y065929
X029166Y065536
X029916Y065142
X029166Y064748
X029916Y064354
X029166Y063961
X029916Y063567
X029166Y063173
X029916Y06278
X029166Y062386
X029916Y061992
X029166Y061599
X029916Y061205
X029166Y060811
X029916Y060417
X029166Y060024
X029916Y05963
X029166Y059236
X029916Y058843
X029166Y058449
X029916Y058055
X029166Y057662
X029916Y057268
X029166Y056874
X029916Y05648
X029166Y056087
X029916Y055693
X029166Y055299
X029916Y054906
X029166Y054512
X029916Y054118
X029166Y053725
X029916Y053331
X029166Y052937
X029916Y052543
X029166Y05215
X029916Y051756
X029166Y051362
X029916Y050969
X029166Y050575
X029916Y050181
X029166Y049788
X029916Y047819
X029166Y04741
X029916Y047032
X029166Y046622
X029916Y046244
X029166Y045835
X029916Y045457
X029166Y045047
X029916Y044669
X029166Y04426
X029916Y043882
X029166Y043473
X029916Y043095
X029166Y042685
X029916Y042307
X029166Y041898
X029916Y04152
X029166Y04111
X029916Y040732
X029166Y040323
X029916Y039945
X029166Y039536
X029916Y039158
X029166Y038748
X029916Y03837
X029166Y037961
X029916Y037583
X029166Y037173
X029916Y036795
X029166Y036386
X029916Y036008
X029166Y035599
X029916Y035221
X029166Y034811
X029916Y034433
X029166Y034024
X029916Y033646
X029166Y033236
X029916Y032858
X029166Y032449
X029916Y032071
X029166Y031662
X029916Y031284
X029166Y030874
X029916Y030496
X029166Y030087
X029916Y029709
X029166Y029299
X029916Y028921
X029166Y028512
X029916Y028134
X029166Y027725
X029916Y027347
X029166Y026937
X029916Y026559
X029166Y02615
X029916Y025772
X029166Y025362
X029916Y024984
X029166Y024575
X029916Y024197
X029166Y023788
X029916Y02341
X029166Y023
X115936Y022975
X114434Y022975
X115184Y023369
X115936Y023762
X114434Y023762
X115184Y024156
X115936Y02455
X114434Y02455
X115184Y024943
X115936Y025337
X114434Y025337
X115184Y025731
X115936Y026124
X114434Y026124
X115184Y026518
X115936Y026912
X114434Y026912
X115184Y027306
X115936Y027699
X114434Y027699
X115184Y028093
X115936Y028487
X114434Y028487
X115184Y02888
X115936Y029274
X114434Y029274
X115184Y029668
X115936Y030061
X114434Y030061
X115184Y030455
X115936Y030849
X114434Y030849
X115184Y031243
X115936Y031636
X114434Y031636
X115184Y03203
X115936Y032424
X114434Y032424
X115184Y032817
X115936Y033211
X114434Y033211
X115184Y033605
X115936Y033998
X114434Y033998
X115184Y034392
X114434Y034786
X115936Y034786
X115184Y03518
X114434Y035573
X115936Y035573
X115184Y035967
X114434Y036361
X115936Y036361
X115184Y036754
X114434Y037148
X115936Y037148
X115184Y037542
X114434Y037935
X115936Y037935
X115184Y038329
X114434Y038723
X115936Y038723
X115184Y039117
X114434Y03951
X115936Y03951
X115184Y039904
X114434Y040298
X115936Y040298
X115184Y040691
X114434Y041085
X115936Y041085
X115184Y041479
X114434Y041872
X115936Y041872
X115184Y042266
X114434Y04266
X115936Y04266
X115184Y043054
X114434Y043447
X115936Y043447
X115184Y043841
X114434Y044235
X115936Y044235
X115184Y044628
X114434Y046597
X115936Y046597
X115184Y047006
X114434Y047384
X115936Y047384
X115184Y047794
X114434Y048172
X115936Y048172
X115184Y048581
X114434Y048959
X115936Y048959
X115184Y049369
X114434Y049746
X115936Y049746
X115184Y050156
X114434Y050534
X115936Y050534
X115184Y050943
X114434Y051321
X115936Y051321
X115184Y051731
X114434Y052109
X115936Y052109
X115184Y052518
X114434Y052896
X115936Y052896
X115184Y053306
X114434Y053683
X115936Y053683
X115184Y054093
X115936Y054471
X114434Y054471
X115184Y05488
X114434Y055258
X115936Y055258
X115184Y055668
X114434Y056046
X115936Y056046
X115184Y056455
X115936Y056833
X114434Y056833
X115184Y057243
X114434Y05762
X115936Y05762
X115184Y05803
X114434Y058408
X115936Y058408
X115184Y058817
X115936Y059195
X114434Y059195
X115184Y059605
X114434Y059983
X115936Y059983
X115184Y060392
X114434Y06077
X115936Y06077
X115184Y06118
X115936Y061557
X114434Y061557
X115184Y061967
X114434Y062345
X115936Y062345
X115184Y062754
X114434Y063132
X115936Y063132
X115184Y063542
X115936Y06392
X114434Y06392
X115184Y064329
X114434Y064707
X115936Y064707
X115184Y065117
X114434Y065494
X115936Y065494
X115184Y065904
X114434Y066282
X115936Y066282
X115184Y066691
X114434Y067069
X115936Y067069
X115184Y067479
X114434Y067857
X115936Y067857
X115184Y068266
X114434Y068644
X115936Y068644
X115184Y069054
X114434Y069431
X115936Y069431
X115184Y069841
X114434Y070219
X115936Y070219
X115184Y070628
X115936Y071006
X114434Y071006
X115184Y071416
X116686Y0714
X116686Y070613
X116686Y069825
X116686Y069038
X116686Y06825
X116686Y067463
X116686Y066676
X116686Y065888
X116686Y065101
X116686Y064313
X116686Y063526
X116686Y062739
X116686Y061951
X116686Y061164
X116686Y060376
X116686Y059589
X116686Y058802
X116686Y058014
X116686Y057227
X116686Y056439
X116686Y055652
X116686Y054865
X116686Y054077
X116686Y05329
X116686Y052502
X116686Y051715
X116686Y050928
X116686Y05014
X116686Y049353
X116686Y048565
X116686Y047778
X116686Y046991
X116686Y044628
X116686Y043841
X116686Y043054
X116686Y042266
X116686Y041479
X116686Y040691
X116686Y039904
X116686Y039117
X116686Y038329
X116686Y037542
X116686Y036754
X116686Y035967
X116686Y03518
X116686Y034392
X116686Y033605
X116686Y032817
X116686Y03203
X116686Y031243
X116686Y030455
X116686Y029668
X116686Y02888
X116686Y028093
X116686Y027306
X116686Y026518
X116686Y025731
X116686Y024943
X116686Y024156
X116686Y023369
T7C.0315F197S55
X100243Y100528
X100794Y100528
X101346Y100528
X101897Y100528
X101385Y103528G85X100755Y103528
T8C.032F197S55
X094825Y069926
X094825Y070926
X094825Y071926
X094825Y072926
X094825Y073926
T9C.035F197S55
X092933Y097547
X093433Y098547
X092433Y098547
X093073Y102647
X092073Y102647
X096293Y102647
X097293Y102647
X094433Y098547
X095433Y098547
X096433Y098547
X094933Y097547
X095933Y097547
X096933Y097547
X093933Y097547
X118807Y086724
X117807Y086724
X119807Y086724
X120807Y086724
X119807Y087724
X117807Y087724
X120807Y087724
X118807Y087724
X121807Y087724
X121807Y086724
T10C.03543F197S55
X105866Y097696
X106366Y098696
X107366Y098696
X108366Y098696
X109366Y098696
X106866Y097696
X108866Y097696
X107866Y097696
X12165Y031268
X12165Y024181
X12165Y021543
X12165Y014457
T11C.03937F197S55
X090101Y078333
X090051Y082283
T12C.03937F197S55
X009499Y026188
X015897Y026209
X004016Y035945
X004016Y036654
X004016Y037362
X004016Y038071
X015912Y039619
X015912Y040328
X00681Y041289
X012454Y045398
X012369Y055367
X015902Y056622
X015114Y056622
X015114Y057606
X015902Y057606
X015114Y058591
X015902Y058591
X015902Y059575
X015114Y059575
X021525Y066993
X021525Y065221
X021525Y063449
X020967Y052708
X021046Y048614
X021046Y047236
X021046Y044716
X020849Y04259
X02329Y04259
X016699Y040328
X016699Y039619
X023566Y036717
X023566Y035142
X023566Y033567
X023566Y031993
X023566Y030418
X01915Y028409
X02144Y028389
X01991Y028389
X02069Y028379
X023172Y028253
X023172Y023922
X01917Y020839
X02068Y020839
X02144Y020829
X01992Y020819
X023498Y019729
X019085Y019713
X022528Y019698
X021497Y019698
X022528Y018712
X023468Y018697
X021497Y018682
X01907Y018682
X0218Y015049
X01985Y015029
X01788Y015013
X021006Y010142
X018841Y010142
X025928Y009158
X025928Y010339
X025928Y01152
X025337Y012701
X028657Y014535
X029799Y014535
X029799Y015323
X028657Y015362
X025928Y016835
X024363Y018682
X024363Y019713
X025534Y023922
X025534Y028253
X026321Y030418
X026321Y031993
X026321Y033567
X026321Y035142
X026321Y036717
X024281Y063449
X024281Y065221
X024281Y066993
X047277Y091205
X047581Y085339
X043054Y084158
X046597Y083371
X044077Y076914
X041321Y076914
X044077Y075339
X041321Y075339
X053343Y014575
X053343Y015441
X053211Y018489
X056006Y018489
X050062Y020654
X050062Y022465
X055573Y081323
X050377Y081402
X051518Y083371
X052699Y085339
X05514Y090851
X052367Y091245
X049904Y091245
X057397Y091245
X06014Y090969
X057817Y085339
X056833Y083371
X061006Y081481
X059077Y022465
X059077Y020497
X063815Y015402
X065035Y015402
X063815Y014575
X065075Y014535
X068251Y020418
X068251Y022465
X07829Y039276
X076518Y039276
X078251Y041993
X076518Y042032
X07455Y073528
X077109Y073528
X077109Y076284
X07455Y076284
X085416Y071953
X080888Y070575
X085416Y070575
X082975Y069197
X085416Y069197
X084392Y051284
X080849Y051284
X084392Y049906
X080062Y042012
X080062Y039296
X08203Y033961
X083605Y033961
X080455Y03393
X083605Y031205
X08203Y031205
X080455Y031174
X088657Y014654
X088657Y01548
X08892Y020772
X091676Y020772
X08892Y022347
X091676Y022347
X08892Y023922
X091676Y023922
X093526Y045457
X094943Y046087
X095888Y046087
X093526Y048134
X094943Y048134
X095888Y048134
X1029Y0957
X10388Y092819
X10388Y091441
X09955Y048725
X097384Y048725
X097857Y048134
X096833Y048134
X106331Y04779
X096833Y046087
X098802Y046087
X097857Y046087
X09955Y042229
X097384Y042229
X101282Y04219
X102857Y04219
X108408Y024512
X111164Y024512
X108408Y029237
X111164Y029237
X106557Y048647
X106636Y06526
X107817Y06526
X109392Y06526
X106636Y067426
X109392Y068016
X107817Y068016
X108999Y076678
X111754Y076678
X108999Y081993
X111754Y081993
X108999Y083567
X111754Y083567
X118972Y090591
X118251Y056008
X120613Y056008
X120022Y054434
X120022Y053056
X120941Y051228
X120945Y050276
X121138Y042291
X121177Y041543
X118447Y038528
X118447Y034197
X118405Y033223
X118405Y030861
X119406Y021583
X115149Y014945
X119996Y014102
X122083Y041543
X122122Y042291
X121457Y049764
X12248Y049764
X121969Y050276
X122043Y051268
X121453Y051661
X122594Y051701
X121453Y060402
X12228Y060441
X121453Y061189
X122358Y061189
X100007Y101461G85X100007Y101106
X102133Y101461G85X102133Y101106
T13C.04016F139S55
X051287Y022481
X067086Y022481
T14C.04016F139S55
X013937Y068986
X018661Y068986
X013937Y069986
X018661Y069986
X013937Y070986
X018661Y070986
X013937Y071986
X018661Y071986
X023386Y071986
X023386Y070986
X023386Y069986
X023386Y068986
T15C.04291F139S55
X116268Y099685
X115177Y099685
X115724Y100803
X117906Y100803
X116815Y100803
X118996Y100803
X117358Y099685
X118449Y099685
X119539Y099685
T16C.047F139S55
X121689Y093736
T17C.04921F139S55
X013087Y070986
X017811Y070986
X022535Y070986
X105773Y018351
T18C.055F107S55
X00431Y014989
X00556Y014989
X00806Y014989
X00931Y014989
X01056Y014989
X00431Y019989
X00631Y027789
X00931Y027789
X01111Y027789
X00431Y027789
X01111Y029039
X00931Y032789
X00831Y034039
X00731Y034039
X00531Y034039
X00931Y034039
X00431Y034039
X00631Y034039
X01111Y035289
X00451Y047189
X01076Y048439
X00451Y048439
X01076Y049689
X01076Y053439
X00951Y054689
X00576Y054689
X00701Y054689
X00451Y054689
X00826Y054689
X01076Y054689
X01361Y035289
X01236Y035289
X01611Y035289
X01486Y035289
X01611Y032789
X01611Y029039
X01611Y027789
X01236Y027789
X01681Y019989
X01681Y018739
X01681Y017489
X01681Y016239
X01681Y014989
X01556Y014989
X01431Y014989
X01181Y014989
T19C.05512F107S55
X064667Y100131
X088643Y100131
T20C.057F107S55
X119386Y065559
X119386Y067213
X119386Y068866
X119386Y07052
X119386Y072173
X119386Y073827
X119386Y07548
X119386Y077134
X119386Y078787
X119386Y080441
X119386Y082094
X119386Y083748
X121551Y083748
X121551Y082094
X121551Y080441
X121551Y078787
X121551Y077134
X121551Y07548
X121551Y073827
X121551Y072173
X121551Y07052
X121551Y068866
X121551Y067213
X121551Y065559
T21C.05906F107S55
X03129Y089525
X03126Y093763
X096817Y011182
X101517Y011182
T22C.06299F089S55
X104457Y096511
X110776Y096511
T23C.063F089S55
X091633Y099847
X097733Y099847
T24C.06693F089S55
X03029Y088525
X03029Y090525
X03026Y092763
X03026Y094763
X03226Y094763
X03226Y092763
X03229Y090525
X03229Y088525
X095817Y010182
X097817Y010182
X097817Y012182
X095817Y012182
X100517Y012182
X102517Y012182
X100517Y010182
X102517Y010182
T25C.07F081S55
X121689Y096736
T26C.07087F081S55
X115432Y045613G85X115688Y045613
X028918Y048803G85X028662Y048803
T27C.07165F081S55
X063848Y100848
T28C.07165F081S55
X089584Y10084G85X089356Y10084
T29C.094F066S55
X094825Y067426
T30C.09646F066S55
X031487Y022354
X031487Y072347
X112863Y072061
X112863Y022069
T31C.11811F069S658
X063269Y096637
X063269Y103104
X090041Y103104
X090041Y096637
T32C.12008F035S794
X112441Y100244
X12228Y100244
T33C.125F035S794
X12137Y063709
T34C.12598F035S794
X069589Y052922
X049589Y060717
T35C.12795F035S794
X105197Y101196
X110039Y101196
T36C.128F035S794
X092433Y101047
X096933Y101047
T37C.15F035S9
X01Y0105
X01Y039
X01Y1
X059Y1
X059Y039
X059Y0105
X121Y0105
X121Y039
X121Y091
M30
