%
T1C.008F0S0
X016282Y053607
X017266Y056284
X020967Y078843
X020626Y079299
X018684Y094985
X018487Y095575
X015258Y096756
X019353Y096756
X014707Y096953
X014432Y09715
X018802Y097347
X015928Y097544
X013566Y097701
X020849Y097741
X020258Y097741
X019865Y097741
X020573Y098016
X019668Y098331
X020849Y100103
X013762Y1003
X013723Y101481
X017857Y109507
X017857Y110506
X017857Y111508
X017857Y112504
X015455Y114197
X018172Y115772
X023723Y115024
X02392Y114788
X02329Y111363
X022936Y111363
X021125Y110536
X025298Y110536
X025652Y1103
X025691Y107977
X025377Y105397
X024392Y105397
X025377Y105043
X024392Y105043
X02577Y101678
X024983Y101678
X025377Y101678
X02577Y101284
X02577Y10089
X025377Y100497
X023408Y100103
X02577Y099709
X024983Y099335
X02577Y099316
X025377Y099316
X02577Y098922
X02577Y098528
X02577Y098134
X02577Y097741
X02577Y097347
X02577Y096953
X025377Y09656
X024983Y09656
X024392Y096363
X02577Y096166
X024983Y095379
X025377Y095379
X025377Y093725
X023093Y056166
X023054Y054867
X023802Y047111
X025062Y037465
X024476Y037459
X025022Y026599
X024589Y026599
X026794Y027308
X027739Y039237
X026676Y03967
X026833Y041363
X02766Y042701
X026479Y043213
X028172Y068102
X027185Y08751
X027106Y089094
X027106Y090276
X027318Y09111
X027739Y092623
X027345Y093016
X026558Y093016
X026951Y09341
X026164Y09341
X026164Y094985
X028526Y095379
X026164Y095379
X026558Y095379
X026558Y095772
X026164Y095772
X027345Y095772
X028526Y095772
X026558Y096166
X026164Y096166
X026558Y09656
X026164Y09656
X026951Y09656
X026164Y096953
X028526Y096953
X026951Y097347
X027739Y097347
X026558Y097347
X028526Y097347
X027345Y097347
X026951Y097741
X026558Y097741
X026164Y097741
X027739Y097741
X026951Y098134
X026558Y098134
X026164Y098134
X027345Y098134
X028526Y098134
X028132Y098134
X027739Y098134
X026558Y098528
X027345Y098528
X027739Y098528
X028132Y098528
X028526Y098528
X026951Y098922
X027739Y098922
X028526Y098922
X027345Y098922
X028132Y098922
X026164Y098922
X026164Y099316
X027345Y099316
X026951Y099316
X028526Y099316
X027739Y099316
X026558Y099709
X028526Y099709
X026558Y100103
X027345Y100103
X028132Y100103
X028526Y100103
X027739Y100103
X026164Y100103
X028132Y100497
X026164Y100497
X026558Y100497
X028132Y10089
X027739Y101284
X028132Y101284
X028132Y101678
X026951Y101678
X026558Y105043
X027739Y105043
X027739Y105397
X026558Y105397
X027936Y106127
X026164Y11026
X027857Y120221
X027148Y120457
X027384Y120693
X02829Y120693
X027621Y12093
X028093Y121245
X029235Y113489
X030872Y11126
X029235Y10846
X02892Y106166
X02892Y105397
X030101Y105397
X030888Y105379
X02892Y105043
X030101Y105043
X030888Y105024
X029314Y101678
X02892Y101678
X029707Y101678
X030101Y101678
X030495Y101678
X029314Y101284
X02892Y101284
X030495Y101284
X030101Y101284
X030888Y10089
X030495Y10089
X029707Y100497
X030888Y100497
X030495Y100497
X030888Y100103
X030101Y100103
X030888Y099709
X030101Y099709
X029314Y099316
X030495Y099316
X030888Y099316
X029707Y098922
X030888Y098922
X029707Y098528
X029314Y098528
X02892Y098528
X030495Y098528
X030888Y098528
X028885Y09816
X030135Y09816
X030888Y098134
X029335Y09811
X029735Y09811
X030101Y09776
X029314Y097741
X030888Y097741
X030435Y09736
X029285Y09736
X030101Y097347
X030888Y097347
X029707Y097347
X028901Y097328
X030888Y096953
X030101Y096953
X030495Y096953
X029707Y09656
X030888Y09656
X030888Y096166
X030495Y096166
X02892Y096166
X030888Y095772
X030495Y095772
X030888Y095379
X030495Y095379
X02892Y095379
X029314Y095379
X029707Y095379
X028568Y09201
X029908Y091754
X030885Y08976
X030135Y08861
X03014Y070267
X03014Y069677
X028685Y069239
X028762Y066724
X028762Y065936
X031013Y059489
X030831Y054937
X030691Y048134
X03266Y026993
X032424Y026993
X032896Y026993
X031162Y054559
X033447Y060759
X033447Y06135
X033447Y061822
X033447Y062413
X033447Y063121
X033447Y063712
X033447Y064421
X033447Y065011
X033447Y067688
X031124Y067905
X031479Y067905
X033447Y068279
X033447Y069657
X033447Y070247
X033447Y071547
X033447Y072137
X033358Y076108
X033193Y076594
X031885Y08811
X03117Y0891
X031161Y090276
X032335Y09461
X031282Y095379
X031485Y09561
X031282Y095772
X031282Y096953
X032185Y09736
X031282Y098134
X031282Y098528
X031282Y098922
X031282Y099709
X031282Y100103
X031282Y100497
X031282Y10089
X031282Y101284
X031282Y101678
X03201Y104867
X03201Y105575
X032376Y109241
X031904Y109265
X031589Y109265
X032795Y109366
X031432Y110111
X031747Y110111
X032384Y111441
X033329Y11156
X036361Y111441
X036912Y110812
X036955Y110341
X035747Y110111
X035432Y110111
X035589Y109265
X035904Y109265
X036375Y109197
X03605Y104102
X036365Y103728
X037074Y103354
X036597Y101481
X036794Y098528
X037188Y098134
X036991Y097938
X037188Y097544
X037384Y096756
X037778Y09656
X038369Y096363
X035835Y09561
X036991Y095379
X034825Y093469
X036555Y090276
X034885Y08976
X036585Y08936
X034885Y08866
X035585Y08856
X03665Y076974
X036653Y07662
X036594Y075791
X036643Y07544
X03526Y071254
X035849Y066527
X035849Y065543
X036243Y060031
X035258Y059637
X038516Y039937
X037738Y036048
X040455Y032662
X0435Y032724
X040455Y03404
X040972Y05431
X042422Y056287
X041912Y057662
X041873Y059197
X041912Y060812
X041873Y062111
X041873Y063331
X041873Y06467
X041912Y065851
X041873Y067071
X041873Y068253
X041912Y069394
X041873Y070536
X041912Y07156
X041518Y072544
X038762Y091245
X03955Y091441
X039597Y094528
X039235Y09463
X041885Y09466
X040485Y09481
X040619Y09501
X039585Y09516
X040454Y095291
X042766Y09563
X043235Y09566
X039285Y09641
X039567Y099228
X040943Y102543
X043303Y103217
X040537Y103477
X040537Y103977
X043447Y113489
X043841Y113174
X046558Y11156
X047621Y111166
X046122Y10926
X04577Y109237
X046558Y109237
X045928Y109001
X045572Y10891
X045535Y102256
X044655Y09563
X046132Y09563
X043809Y095157
X044655Y095
X043809Y094843
X044892Y094685
X046978Y094528
X043809Y094528
X048447Y091914
X047857Y091717
X048251Y091441
X048054Y090969
X044274Y09089
X04644Y079434
X048014Y079434
X04644Y077071
X04644Y074709
X04644Y072347
X048014Y072347
X048014Y069788
X04644Y069788
X04644Y067032
X048014Y067032
X04644Y06467
X048014Y06467
X047722Y063387
X0464Y061914
X048014Y061914
X048014Y059552
X04644Y059552
X043572Y057387
X04644Y05719
X047358Y032764
X047935Y032178
X047935Y031942
X048352Y031494
X048519Y031327
X049484Y032685
X051469Y032685
X0535Y032685
X053093Y071835
X049375Y072205
X048672Y074787
X050822Y074887
X051472Y074887
X052896Y074985
X052718Y075176
X050967Y075497
X04951Y07593
X051361Y076284
X053522Y078337
X052602Y078825
X052602Y079061
X050967Y079632
X049471Y080024
X051164Y080418
X050885Y08216
X050967Y085536
X053472Y08611
X050967Y09089
X052936Y098567
X05329Y098646
X052778Y098882
X053093Y099001
X050806Y10215
X053038Y107084
X049825Y109001
X050147Y109028
X049989Y109265
X050304Y109265
X051552Y110593
X051203Y111166
X05077Y112465
X055352Y108609
X054466Y108609
X057617Y107759
X057285Y10711
X057936Y106993
X057168Y106127
X058191Y104237
X055022Y09626
X057122Y09291
X058447Y091441
X058447Y089867
X057542Y088686
X057542Y088292
X058367Y08601
X057567Y08556
X057803Y08556
X057542Y084355
X057542Y083961
X056873Y080418
X057896Y080418
X053935Y08006
X057896Y07963
X056873Y078843
X057896Y078843
X056422Y078437
X057896Y078056
X054222Y07696
X054522Y076887
X056422Y076487
X058447Y076087
X057817Y075693
X056951Y075693
X056272Y075387
X058447Y0753
X057817Y074906
X056951Y074906
X056072Y074887
X058447Y074512
X058235Y07386
X058447Y073725
X058222Y073537
X058447Y072938
X058447Y07215
X058447Y071363
X056922Y071037
X058447Y070575
X058447Y069788
X055922Y069087
X058447Y069001
X058447Y068213
X058447Y067426
X058447Y066638
X057069Y060733
X057516Y032685
X059591Y032657
X059432Y059158
X058841Y066638
X059825Y066638
X058841Y067426
X060219Y067426
X059825Y068213
X058841Y068213
X058841Y069001
X058841Y069788
X060219Y069788
X059825Y070575
X058841Y070575
X059072Y070687
X058841Y071363
X060219Y071363
X060219Y072938
X058822Y07296
X059825Y073725
X058841Y073745
X059122Y074487
X059825Y074512
X058841Y074512
X059322Y075187
X059558Y075187
X058841Y0753
X059825Y0753
X059825Y076087
X058841Y076087
X059122Y076087
X060807Y076087
X060472Y077087
X059738Y077114
X059905Y077281
X061006Y077938
X059848Y078213
X060928Y082229
X058603Y08601
X060613Y089867
X060613Y091441
X059122Y09291
X062755Y10778
X062385Y10711
X063054Y106993
X062286Y106127
X06331Y104237
X062188Y091441
X062188Y089867
X062345Y08467
X063014Y084473
X062109Y084119
X062975Y081599
X062148Y081481
X062975Y081205
X063369Y081205
X063369Y080812
X063369Y080418
X063369Y080024
X061479Y07963
X063369Y07963
X061479Y079237
X062975Y079237
X061479Y078843
X063329Y078843
X061479Y078449
X063369Y078449
X062975Y078449
X063369Y078056
X063369Y077662
X062581Y077662
X062975Y077662
X06342Y077268
X062972Y077268
X062581Y077229
X062975Y076875
X062975Y076532
X061122Y076502
X062581Y076481
X063369Y076429
X061558Y076274
X062422Y076237
X061122Y076187
X061794Y076087
X063369Y076087
X0614Y075693
X061122Y075687
X062975Y0753
X062581Y074512
X062975Y074512
X063369Y074512
X061522Y074487
X063369Y074119
X062581Y074119
X062975Y074119
X062947Y073753
X062581Y073725
X063369Y073725
X062975Y073331
X063369Y073331
X062975Y072938
X063369Y072938
X062975Y072544
X063369Y072544
X062581Y072544
X063369Y07215
X062581Y071756
X062975Y071756
X063369Y071756
X062975Y071363
X063369Y071363
X062581Y071363
X061072Y071187
X062975Y070969
X063369Y070969
X062581Y070575
X063369Y070575
X062975Y070575
X062581Y070182
X062975Y070182
X063369Y070182
X063369Y069788
X062581Y069788
X062975Y069788
X062581Y069394
X062975Y069394
X063369Y069394
X062975Y069001
X063369Y069001
X062581Y069001
X062975Y068607
X062581Y068607
X062975Y068213
X062975Y06467
X0614Y06467
X062188Y06467
X062975Y064276
X062188Y064276
X0614Y064276
X061794Y060733
X06267Y041491
X063261Y041491
X06208Y041491
X063261Y041255
X06267Y041255
X06208Y041255
X06208Y037826
X06267Y037826
X063261Y037826
X06267Y03759
X063261Y03759
X06208Y03759
X061559Y032657
X065416Y033449
X065033Y03759
X064442Y03759
X063852Y03759
X065623Y03759
X065033Y037826
X064442Y037826
X063852Y037826
X065623Y037826
X063852Y041255
X064442Y041255
X065033Y041255
X065623Y041255
X063852Y041491
X064442Y041491
X065033Y041491
X065623Y041491
X064156Y059158
X06455Y064276
X065337Y064276
X063762Y064276
X065337Y06467
X06455Y06467
X063762Y06467
X063762Y068213
X065731Y068213
X064943Y068213
X065337Y068213
X064156Y068213
X06455Y068213
X063762Y068607
X064943Y068607
X064156Y068607
X06455Y068607
X065337Y068607
X065731Y068607
X063762Y069001
X065731Y069001
X064943Y069001
X065337Y069001
X06455Y069001
X064156Y069001
X064943Y069394
X064156Y069394
X065337Y069394
X06455Y069394
X065731Y069394
X063762Y069394
X06455Y069788
X063762Y069788
X065731Y069788
X064943Y069788
X065337Y069788
X064156Y069788
X064943Y070182
X065731Y070182
X064156Y070182
X065337Y070182
X06455Y070182
X063762Y070182
X064943Y070575
X064156Y070575
X065337Y070575
X063762Y070575
X065731Y070575
X06455Y070575
X065337Y070969
X06455Y070969
X064156Y070969
X064943Y070969
X063762Y070969
X065731Y070969
X064156Y071363
X063762Y071363
X065337Y071363
X06455Y071363
X065731Y071363
X064943Y071363
X064943Y071756
X063762Y071756
X065337Y071756
X065731Y071756
X06455Y071756
X064156Y071756
X06455Y07215
X064943Y07215
X064156Y07215
X063762Y07215
X065731Y07215
X065337Y07215
X065337Y072544
X064943Y072544
X063762Y072544
X064156Y072544
X06455Y072544
X065731Y072544
X064156Y072938
X06455Y072938
X063762Y072938
X065731Y072938
X065337Y073331
X063762Y073331
X06455Y073331
X064156Y073331
X064943Y073331
X065731Y073331
X065337Y073725
X063762Y073725
X064943Y073725
X06455Y073725
X065731Y073725
X064156Y073725
X065286Y074119
X063762Y074119
X064156Y074119
X064943Y074119
X065731Y074119
X06455Y074119
X063762Y074512
X065731Y074512
X065337Y074512
X06455Y074512
X064156Y074512
X065731Y074906
X063762Y074906
X065298Y074906
X064156Y074906
X06455Y074906
X06455Y0753
X065731Y0753
X065337Y0753
X064156Y0753
X064944Y0753
X065337Y075693
X064156Y075693
X06455Y075693
X065731Y075693
X064943Y075693
X065337Y076087
X064943Y076087
X064172Y076087
X063711Y076087
X06455Y076139
X065731Y076429
X065337Y076481
X06455Y076481
X064943Y076481
X063762Y076481
X064156Y076481
X065731Y076823
X064156Y076875
X064943Y076875
X065337Y076875
X06455Y076875
X063738Y076899
X06455Y077268
X065337Y077268
X065731Y077268
X064943Y077268
X064156Y077268
X064122Y077662
X065337Y077662
X063762Y077662
X065731Y077662
X06455Y077662
X064156Y078056
X063762Y078056
X065337Y078056
X06455Y078056
X064943Y078056
X065337Y078449
X063762Y078449
X065731Y078449
X06455Y078449
X064156Y078449
X064943Y078449
X064943Y078843
X06455Y078843
X063762Y078843
X064156Y078843
X065337Y078843
X065731Y078843
X06455Y079237
X065337Y079237
X065731Y079237
X064156Y079237
X064943Y079237
X064943Y07963
X063762Y07963
X06455Y07963
X065337Y07963
X065731Y07963
X064156Y07963
X06455Y080024
X064943Y080024
X065731Y080024
X064156Y080024
X064943Y080418
X065337Y080418
X065731Y080418
X06455Y080418
X064156Y080418
X064156Y080812
X06455Y080812
X065337Y080812
X064943Y080812
X065731Y080812
X063762Y080812
X065744Y081228
X065311Y081228
X06514Y082662
X065534Y082662
X065928Y082662
X063959Y082662
X063566Y082662
X064353Y082701
X065534Y085772
X064471Y086323
X063722Y08826
X067628Y107762
X067285Y10711
X068172Y106993
X067404Y106127
X068428Y104237
X066769Y086744
X066602Y086577
X066873Y086323
X068093Y086127
X067503Y082662
X067109Y082662
X066321Y082662
X06829Y082662
X067896Y082662
X067699Y081205
X068093Y081205
X067306Y080812
X066912Y080812
X066125Y080812
X066518Y080812
X068093Y080812
X068487Y080812
X066912Y080418
X066518Y080418
X066125Y080418
X067306Y080418
X068093Y080418
X068487Y080418
X066518Y080024
X066912Y080024
X067699Y080024
X067306Y080024
X066125Y080024
X068093Y080024
X068487Y080024
X066125Y07963
X067699Y07963
X067322Y07963
X066518Y07963
X066912Y07963
X068487Y07963
X068093Y07963
X067306Y079237
X066125Y079237
X066922Y079237
X067699Y079237
X068487Y079237
X068093Y079237
X066522Y079187
X066912Y078843
X067306Y078843
X06766Y078843
X066518Y078843
X068054Y078843
X068487Y078843
X066072Y078837
X066912Y078449
X066518Y078449
X067699Y078449
X067306Y078449
X068093Y078449
X066125Y078398
X066522Y078056
X066912Y078056
X067306Y078056
X067699Y078056
X066125Y078056
X068487Y078056
X068093Y078056
X06657Y077662
X066912Y077662
X066125Y077662
X068093Y077662
X068487Y077662
X067306Y077268
X066125Y077268
X066912Y077268
X067699Y077268
X066518Y077268
X068093Y077268
X068487Y077268
X066518Y076875
X067306Y076875
X066085Y07686
X066125Y076481
X066912Y076481
X067699Y076481
X066518Y076481
X068093Y076481
X068487Y076481
X066912Y076087
X067306Y076087
X066518Y076087
X066125Y075693
X067699Y075693
X066912Y075693
X068093Y075693
X068487Y075693
X067306Y075693
X066518Y075693
X068487Y0753
X066518Y0753
X066125Y0753
X068487Y074906
X067306Y074906
X066912Y074906
X066125Y074906
X068093Y074906
X066518Y074906
X067699Y074906
X066125Y074512
X066518Y07451
X068487Y074119
X066912Y074119
X068093Y074119
X067306Y074119
X067699Y074119
X066125Y074117
X066125Y073725
X066518Y073725
X066885Y07336
X067699Y073331
X068487Y073331
X068093Y073331
X066125Y073331
X067306Y073331
X066518Y073331
X066518Y072938
X066125Y072938
X066912Y072938
X068487Y072544
X068093Y072544
X066125Y072544
X066912Y072544
X067699Y072544
X067306Y072544
X066912Y07215
X066518Y07215
X068487Y07215
X068093Y07215
X067699Y07215
X067306Y07215
X066125Y07215
X066912Y071756
X068487Y071756
X067699Y071756
X067306Y071756
X066518Y071756
X066125Y071756
X068093Y071756
X068487Y071363
X068093Y071363
X066518Y071363
X067306Y071363
X066125Y071363
X066912Y071363
X067699Y071363
X067306Y070969
X068487Y070969
X068093Y070969
X066912Y070969
X066125Y070969
X066518Y070969
X067699Y070969
X068093Y070575
X068487Y070575
X066125Y070575
X066912Y070575
X067306Y070575
X066518Y070575
X067699Y070575
X067699Y070182
X068093Y070182
X068487Y070182
X066125Y070182
X066518Y070182
X066912Y070182
X067306Y070182
X066518Y069788
X068093Y069788
X068487Y069788
X066912Y069788
X066125Y069788
X067699Y069788
X067306Y069788
X067699Y069394
X066518Y069394
X068487Y069394
X068093Y069394
X067306Y069394
X066125Y069394
X066912Y069394
X066518Y069001
X067306Y069001
X067699Y069001
X068487Y069001
X068093Y069001
X066125Y069001
X066912Y069001
X066912Y068607
X068093Y068607
X066518Y068607
X067699Y068607
X068487Y068607
X067306Y068607
X066125Y068607
X066518Y068213
X066912Y068213
X067306Y068213
X066125Y068213
X066125Y06467
X067699Y06467
X066912Y06467
X068487Y06467
X068487Y064276
X066125Y064276
X066912Y064276
X067699Y064276
X066558Y060693
X066214Y041491
X066804Y041491
X067395Y041491
X066804Y041255
X067395Y041255
X066214Y041255
X066214Y037826
X066804Y037826
X067395Y037826
X066214Y03759
X067395Y03759
X066804Y03759
X067503Y031402
X070544Y03759
X069954Y03759
X070544Y037826
X069954Y037826
X069954Y041255
X070455Y041255
X069954Y041491
X070455Y041491
X070455Y058449
X069Y0588
X06888Y060733
X069274Y064276
X070062Y064276
X070849Y064276
X069274Y06467
X070849Y06467
X070062Y06467
X070455Y066875
X070849Y067032
X070849Y067623
X070455Y06778
X069274Y068213
X070062Y068213
X070455Y068213
X069274Y068607
X06888Y068607
X069668Y068607
X070455Y068607
X070849Y068607
X070062Y068607
X070062Y069001
X069668Y069001
X069274Y069001
X06888Y069001
X070849Y069001
X06888Y069394
X069668Y069394
X070455Y069394
X070062Y069394
X070849Y069788
X069668Y069788
X070455Y069788
X06888Y069788
X069274Y069788
X070062Y069788
X06888Y070182
X069274Y070182
X069668Y070182
X070455Y070182
X070062Y070182
X070849Y070182
X070849Y070575
X070062Y070575
X06888Y070575
X069668Y070575
X070455Y070575
X069668Y070969
X070849Y070969
X06888Y070969
X069274Y070969
X070062Y070969
X070455Y070969
X06888Y071363
X069274Y071363
X069668Y071363
X070455Y071363
X070849Y071363
X070062Y071363
X069274Y071756
X070062Y071756
X070455Y071756
X069668Y071756
X070849Y071756
X06888Y071756
X069274Y07215
X070849Y07215
X070062Y07215
X06888Y07215
X070455Y07215
X070455Y072544
X070849Y072544
X070062Y072544
X06888Y072544
X069274Y072544
X069668Y072544
X070849Y072938
X070062Y073331
X070849Y073331
X069668Y073331
X069274Y073331
X070455Y073331
X06888Y073331
X070849Y074119
X069274Y074119
X070455Y074119
X069668Y074119
X06888Y074119
X070062Y074119
X069274Y074906
X070849Y074906
X06888Y074906
X070455Y074906
X070455Y075693
X069274Y075693
X069668Y075693
X06888Y075693
X070062Y075693
X070849Y076087
X070849Y076481
X069274Y076481
X069668Y076481
X070062Y076481
X06888Y076481
X070455Y076481
X070455Y077268
X06888Y077268
X070849Y077268
X070062Y077268
X069668Y077268
X069274Y077268
X069635Y07766
X070849Y077662
X070062Y077662
X069274Y077662
X070455Y077662
X06888Y077662
X070849Y078056
X06888Y078056
X070062Y078056
X070455Y078056
X069274Y078056
X069668Y078056
X070455Y078449
X070062Y078449
X06888Y078449
X069274Y078449
X070849Y078449
X070062Y078843
X070455Y078843
X070849Y078843
X06888Y078843
X069668Y078843
X06888Y079237
X069668Y079237
X069274Y079237
X070849Y079237
X070062Y079237
X070455Y079237
X070062Y07963
X070849Y07963
X069274Y07963
X06888Y07963
X070455Y07963
X070849Y080024
X070455Y080024
X06888Y080024
X070062Y080024
X06888Y080418
X070062Y080418
X070455Y080418
X070455Y080812
X069668Y080812
X070062Y080812
X069274Y080812
X06888Y080812
X070455Y081205
X070849Y081205
X070652Y081678
X070258Y081678
X071046Y082662
X070258Y082662
X069865Y082662
X068684Y082662
X070652Y082662
X069471Y082662
X070377Y086323
X070652Y089867
X070652Y091441
X073014Y091441
X073014Y089867
X072975Y086323
X071558Y086127
X07144Y082662
X072227Y082662
X072621Y082662
X073014Y082662
X073408Y082662
X072817Y081205
X073211Y081205
X071243Y080812
X071636Y080812
X072817Y080812
X072424Y080812
X07203Y080812
X071243Y080418
X071636Y080418
X072817Y080418
X07203Y080418
X072424Y080418
X071636Y080024
X071243Y080024
X072817Y080024
X073211Y080024
X07203Y080024
X072424Y080024
X071243Y07963
X071636Y07963
X07203Y07963
X072424Y07963
X072817Y07963
X073211Y07963
X071636Y079237
X071243Y079237
X073211Y079237
X072817Y079237
X072424Y079237
X07203Y079237
X071636Y078843
X071243Y078843
X072817Y078843
X073211Y078843
X07203Y078843
X072424Y078843
X071636Y078449
X071243Y078449
X072817Y078449
X073211Y078449
X072424Y078449
X07203Y078449
X071243Y078056
X071636Y078056
X07203Y078056
X072817Y078056
X073211Y078056
X072424Y078056
X071636Y077662
X071243Y077662
X073211Y077662
X07203Y077662
X072817Y077662
X072424Y077662
X07203Y077268
X073211Y077268
X072817Y077268
X072424Y077268
X071243Y077268
X071636Y077268
X072817Y076875
X072424Y076875
X073235Y076874
X071636Y076481
X07203Y076481
X072817Y076481
X072424Y076481
X071243Y076481
X073211Y076481
X07203Y076087
X072424Y076087
X072817Y076087
X073211Y076087
X071243Y076087
X071636Y076087
X073211Y075693
X072424Y075693
X072817Y075693
X071243Y075693
X07203Y075693
X073211Y0753
X07203Y0753
X072424Y0753
X072817Y0753
X072835Y07491
X073211Y074906
X071636Y074906
X071243Y074906
X07203Y074906
X073565Y074512
X072817Y074512
X073211Y074512
X072424Y074512
X07203Y074512
X073211Y074119
X071636Y074119
X071243Y074119
X07203Y074119
X072424Y074119
X072817Y074119
X073211Y073725
X072817Y073725
X07203Y073725
X071636Y073725
X072424Y073725
X071243Y073331
X071636Y073331
X073211Y073331
X07203Y073331
X072817Y073331
X071243Y072938
X071636Y072938
X072424Y072938
X073211Y072938
X072817Y072938
X071243Y072544
X071636Y072544
X072424Y072544
X073211Y072544
X072817Y072544
X071243Y07215
X071636Y07215
X07203Y07215
X073211Y07215
X072424Y07215
X072817Y07215
X073211Y071756
X07203Y071756
X071243Y071756
X071636Y071756
X072424Y071756
X072817Y071756
X071243Y071363
X071636Y071363
X073211Y071363
X072424Y071363
X07203Y071363
X072817Y071363
X072424Y070969
X07203Y070969
X071636Y070969
X071243Y070969
X072817Y070969
X073211Y070969
X071636Y070575
X071243Y070575
X072817Y070575
X072424Y070575
X07203Y070575
X073211Y070575
X073211Y070182
X071243Y070182
X072817Y070182
X072424Y070182
X071636Y070182
X07203Y070182
X071243Y069788
X071636Y069788
X072817Y069788
X073211Y069788
X072424Y069788
X07203Y069788
X072424Y069394
X072817Y069394
X073211Y069394
X071243Y069394
X071636Y069394
X07203Y069394
X07203Y069001
X072424Y069001
X071243Y069001
X072817Y069001
X073211Y069001
X073211Y068607
X072424Y068607
X07203Y068607
X072817Y068607
X071636Y068607
X071636Y068213
X073211Y068213
X072817Y068213
X071636Y067819
X073502Y067477
X071636Y067465
X071243Y067426
X071243Y06719
X071636Y066087
X073352Y065344
X071636Y065221
X073519Y065177
X073211Y06467
X071636Y06467
X072424Y06467
X071636Y064276
X072424Y064276
X073211Y064276
X073069Y059844
X072902Y059677
X07203Y059158
X072519Y045094
X072352Y044927
X072752Y042394
X072919Y042227
X072316Y041491
X071726Y041491
X073497Y041491
X071135Y041491
X072907Y041491
X073497Y041255
X071135Y041255
X072316Y041255
X072907Y041255
X071726Y041255
X071726Y037826
X073497Y037826
X072907Y037826
X071135Y037826
X072316Y037826
X071726Y03759
X073497Y03759
X071135Y03759
X072907Y03759
X072316Y03759
X073841Y034512
X073802Y035733
X074678Y03759
X074088Y03759
X075269Y03759
X074088Y037826
X075269Y037826
X074678Y037826
X075269Y041255
X074048Y041255
X074678Y041255
X075269Y041491
X074048Y041491
X074678Y041491
X074135Y054292
X074135Y054528
X074435Y05761
X07518Y059158
X074786Y064276
X075573Y064276
X073999Y064276
X073999Y06467
X075573Y06467
X074786Y06467
X073702Y064977
X073869Y065144
X076002Y067094
X073669Y067644
X073605Y068213
X073999Y068213
X074786Y068213
X075573Y068213
X074392Y068213
X075573Y068607
X075967Y068607
X073605Y068607
X074392Y068607
X07518Y068607
X074786Y068607
X073999Y068607
X075967Y069001
X073605Y069001
X07518Y069001
X073999Y069001
X075573Y069001
X074786Y069001
X074392Y069394
X075967Y069394
X073605Y069394
X074786Y069394
X075573Y069394
X07518Y069394
X073999Y069394
X074392Y069788
X07518Y069788
X074786Y069788
X075573Y069788
X073999Y069788
X075967Y069788
X073605Y069788
X074786Y070182
X075573Y070182
X073999Y070182
X074392Y070182
X075967Y070182
X07518Y070182
X073605Y070182
X076041Y070502
X074786Y070575
X073999Y070575
X07518Y070575
X074392Y070575
X075573Y070575
X073605Y070575
X07518Y070969
X074392Y070969
X074786Y070969
X073605Y070969
X073999Y070969
X075573Y070969
X07553Y071363
X074786Y071363
X073999Y071363
X074392Y071363
X075967Y071363
X07518Y071363
X073605Y071363
X073999Y071756
X075967Y071756
X074786Y071756
X074392Y071756
X07518Y071756
X073605Y071756
X075573Y071756
X07518Y07215
X075573Y07215
X073605Y07215
X074392Y07215
X074786Y07215
X073999Y07215
X073605Y072544
X074786Y072544
X075573Y072544
X073999Y072544
X074392Y072544
X07518Y072938
X073605Y072938
X073999Y072938
X074786Y072938
X075573Y072938
X074392Y072938
X074764Y073331
X075967Y073331
X074392Y073331
X07518Y073331
X073605Y073331
X075573Y073331
X073999Y073331
X07518Y073725
X074786Y073725
X074392Y073725
X073605Y073725
X075573Y073725
X073999Y073725
X074392Y074119
X073999Y074119
X07518Y074119
X073605Y074119
X074785Y074119
X075573Y074119
X075967Y074144
X074392Y074485
X073999Y074512
X074786Y074512
X074786Y074906
X07518Y074906
X073999Y074906
X073605Y074906
X074392Y074958
X075585Y0753
X073605Y0753
X074786Y0753
X07518Y0753
X076006Y075339
X074392Y075351
X073999Y075693
X074392Y075693
X074786Y075693
X073605Y075693
X075573Y075693
X07518Y076048
X074786Y076087
X075967Y076087
X075573Y076087
X073605Y076087
X073999Y076087
X074035Y076481
X07518Y076481
X074392Y076481
X074786Y076481
X075613Y076481
X07518Y076874
X075585Y076874
X073605Y076875
X074392Y076875
X073999Y076875
X074786Y076875
X074392Y077268
X074786Y077268
X073999Y077268
X073605Y077268
X07518Y077268
X07518Y077662
X074392Y077662
X073999Y077662
X074786Y077662
X075573Y077662
X073605Y077662
X074786Y078056
X073605Y078056
X073999Y078056
X074392Y078056
X07518Y078056
X07518Y078449
X073999Y078449
X074786Y078449
X074385Y078449
X073605Y078449
X073999Y078843
X074786Y078843
X073605Y078843
X074392Y078843
X07518Y078843
X075573Y078843
X073999Y079237
X073605Y079237
X074786Y079237
X07518Y079237
X075573Y079237
X074392Y07926
X073999Y079591
X074786Y07963
X073605Y07963
X074392Y07963
X07518Y07963
X074392Y080024
X073605Y080024
X074786Y080024
X07518Y080024
X073999Y080024
X074786Y080418
X07518Y080418
X074392Y080418
X073605Y080418
X073999Y080418
X073605Y080812
X074786Y080812
X074392Y080812
X073999Y080812
X07518Y080812
X07518Y081205
X075573Y081205
X075573Y081599
X074589Y082662
X074983Y082662
X074195Y082662
X075613Y084434
X074432Y085654
X07388Y086127
X075967Y086323
X075967Y089867
X075967Y091441
X077109Y084434
X077034Y082321
X077085Y08201
X07703Y079827
X077295Y07967
X07703Y079434
X07703Y07904
X07703Y078646
X077148Y077859
X076085Y077465
X077148Y077465
X078501Y077268
X07815Y077268
X076085Y077071
X076321Y076835
X077778Y076717
X078509Y076481
X078153Y076481
X078172Y075694
X076164Y075103
X077936Y075064
X078153Y074906
X078509Y074906
X077503Y074827
X076321Y074552
X077503Y074355
X07703Y074355
X078503Y074119
X076164Y073725
X077896Y073725
X078505Y073331
X076164Y073134
X077772Y07311
X077896Y072898
X076164Y072741
X076164Y072426
X077885Y07241
X077424Y071756
X076164Y071166
X076361Y070772
X076602Y070194
X076769Y070027
X076911Y069788
X077527Y069394
X078152Y068607
X078508Y068607
X077835Y06816
X078503Y067819
X078152Y067819
X078505Y067032
X07815Y067032
X076169Y066927
X077852Y065344
X078019Y065177
X077148Y06467
X076361Y06467
X076361Y064276
X077148Y064276
X076319Y063744
X076152Y063577
X078329Y059158
X076152Y057844
X076319Y057677
X07665Y032685
X080665Y031661
X082713Y031661
X080665Y032685
X082713Y032685
X079335Y05806
X081852Y059077
X081479Y059158
X082019Y059244
X083438Y062932
X079904Y063095
X083438Y064046
X083019Y064668
X081906Y064668
X079904Y06467
X081479Y06467
X083185Y06616
X081479Y066245
X079904Y066245
X083432Y069625
X082885Y06996
X083472Y070738
X081066Y071363
X080706Y071363
X082935Y07216
X081066Y072347
X080717Y072349
X081066Y073331
X083485Y07366
X079685Y07376
X079038Y074119
X07929Y074367
X083535Y07606
X082135Y07611
X080908Y076284
X079485Y07631
X081282Y076343
X081535Y07651
X083335Y07701
X081263Y077071
X081522Y07746
X080652Y077465
X082035Y07756
X081263Y077859
X080652Y078253
X078684Y078292
X078959Y078922
X079235Y079552
X078684Y080182
X083485Y08091
X081635Y08241
X082739Y084316
X082739Y084749
X082104Y086903
X083216Y086916
X083217Y088048
X082104Y088066
X082739Y089494
X081676Y089867
X079117Y089867
X081676Y091441
X079117Y091441
X08503Y090423
X083838Y089636
X083842Y088523
X084038Y087701
X085219Y087701
X084432Y087701
X083985Y08746
X085613Y087308
X084825Y087308
X086006Y087308
X084465Y087274
X085219Y086914
X084825Y086914
X086006Y086914
X084825Y08652
X085613Y08652
X085219Y08652
X084432Y086127
X084825Y086127
X085613Y086127
X085219Y086127
X086006Y086127
X085219Y085733
X084825Y085733
X084432Y085733
X085613Y085733
X086006Y085733
X084432Y085363
X085219Y085339
X084825Y085339
X085613Y085339
X086006Y085339
X085219Y084945
X084432Y084945
X084825Y084945
X085613Y084945
X086006Y084945
X084825Y084552
X085219Y084552
X085613Y084552
X086006Y084552
X083685Y08451
X085219Y084158
X084825Y084158
X085613Y084158
X086006Y084158
X085219Y083764
X084825Y083764
X085613Y083764
X086006Y083764
X084825Y083371
X085613Y083371
X086006Y083371
X084432Y083371
X085219Y083371
X084825Y082977
X085219Y082977
X085613Y082977
X086006Y082977
X084432Y082583
X085219Y082583
X084825Y082583
X086006Y082583
X085613Y082583
X086006Y08219
X085219Y08219
X085613Y08219
X084825Y08219
X084432Y081796
X084038Y081796
X085219Y081796
X084825Y081796
X085613Y081796
X084066Y08111
X084635Y08086
X084902Y078916
X083831Y078877
X086027Y077268
X08581Y076481
X084085Y07631
X085849Y074512
X085573Y073961
X085507Y072405
X08434Y072112
X084038Y069788
X084432Y069788
X085219Y069788
X085613Y069788
X084825Y069394
X085219Y069394
X085613Y069394
X086006Y069394
X084022Y06931
X084432Y069001
X086006Y069001
X085219Y068607
X084825Y068607
X085613Y068607
X084432Y068213
X084825Y068213
X085219Y068213
X085613Y068213
X086006Y068213
X084432Y067819
X085219Y067819
X085613Y067819
X084825Y067819
X086006Y067819
X085219Y067426
X085613Y067426
X086006Y067426
X084432Y067426
X084825Y067426
X085613Y067032
X084038Y067032
X084825Y067032
X085219Y067032
X086006Y067032
X085613Y066638
X084432Y066638
X086006Y066638
X085219Y066638
X084825Y066638
X084825Y066245
X085613Y066245
X086006Y066245
X085219Y066245
X085219Y065851
X084825Y065851
X086006Y065851
X085613Y065851
X085219Y065457
X084825Y065457
X084432Y065457
X086006Y065457
X085613Y065457
X084825Y065064
X085613Y065064
X085219Y065064
X086006Y065064
X086006Y06467
X084432Y06467
X085613Y06467
X084825Y06467
X085219Y06467
X085219Y064276
X085613Y064276
X084825Y064276
X085219Y063882
X084825Y063882
X085613Y063882
X084038Y063882
X084135Y06316
X085513Y061239
X084478Y061239
X084718Y060358
X084235Y059394
X084786Y059394
X08476Y032685
X08476Y031661
X086728Y031583
X086728Y032606
X087926Y052938
X087919Y053274
X086596Y061239
X087709Y061239
X087185Y06241
X087975Y063882
X087188Y063882
X086794Y063882
X0864Y063882
X088467Y064046
X088369Y064276
X087581Y064276
X086794Y064276
X0864Y064276
X087975Y064276
X087188Y064276
X086794Y06467
X087975Y06467
X0864Y06467
X087185Y06471
X087975Y065064
X086794Y065064
X0864Y065064
X086794Y065457
X0864Y065457
X088369Y065457
X087975Y065457
X086794Y065851
X087581Y065851
X088369Y065851
X0864Y065851
X086794Y066245
X0864Y066245
X087581Y066245
X087975Y066245
X0864Y066638
X087581Y066638
X087975Y066638
X086794Y066638
X087188Y066638
X0864Y067032
X086794Y067032
X087975Y067032
X086794Y067426
X0864Y067426
X087975Y067426
X086794Y067819
X087581Y067819
X0864Y067819
X087975Y067819
X086794Y068213
X0864Y068213
X087975Y068213
X0864Y068607
X087581Y068607
X086794Y068607
X087975Y068607
X0864Y069001
X086794Y069001
X087975Y069001
X086794Y069394
X087188Y069394
X087581Y069394
X087975Y069394
X088467Y069625
X08661Y070441
X08771Y072392
X086327Y072392
X086184Y073331
X088388Y073331
X086585Y07346
X087778Y073686
X088132Y073686
X086991Y073725
X086597Y073725
X087761Y074101
X086991Y074119
X086597Y074119
X088185Y07416
X086991Y074512
X088172Y074512
X086558Y074512
X087778Y074514
X088555Y074895
X087778Y074906
X086991Y074906
X086597Y074906
X088172Y074906
X087435Y07491
X086203Y074971
X086223Y07569
X086597Y075693
X088172Y075693
X087778Y075693
X086991Y075693
X086243Y076087
X086597Y076087
X086991Y076087
X087778Y076087
X088172Y076087
X088135Y07646
X086243Y076481
X086597Y076481
X087778Y076481
X086991Y076481
X086597Y076875
X086203Y076875
X088172Y076875
X086991Y076875
X087778Y076953
X08638Y077268
X088408Y077308
X086117Y078916
X087356Y078916
X0864Y081751
X086794Y081751
X087188Y081751
X087581Y081796
X088467Y081959
X088369Y08219
X086794Y08219
X087975Y08219
X0864Y08219
X087975Y082583
X0864Y082583
X086794Y082583
X087975Y082977
X086794Y082977
X087581Y082977
X0864Y082977
X088369Y083371
X0864Y083371
X086794Y083371
X087975Y083764
X086794Y083764
X087581Y083764
X0864Y083764
X0864Y084158
X086794Y084158
X087975Y084158
X087581Y084158
X086794Y084552
X087581Y084552
X0864Y084552
X087188Y084552
X087975Y084552
X086794Y084945
X087975Y084945
X0864Y084945
X0864Y085339
X088369Y085339
X086794Y085339
X086794Y085733
X087581Y085733
X0864Y085733
X088369Y085733
X086794Y086127
X087975Y086127
X0864Y086127
X087975Y08652
X0864Y08652
X086794Y08652
X087975Y086914
X088369Y086914
X0864Y086914
X086794Y086914
X087975Y087308
X087188Y087308
X086794Y087308
X087581Y087308
X088467Y087538
X087903Y090423
X086393Y090423
X09266Y102819
X092522Y10181
X089629Y097662
X093447Y094422
X093211Y091599
X093369Y091284
X08888Y089886
X091278Y088682
X092391Y088669
X088769Y088652
X088773Y087538
X091603Y086549
X092913Y085787
X091602Y08543
X092935Y08491
X089314Y084552
X091603Y08448
X088585Y084099
X091602Y083515
X089524Y082685
X091602Y082553
X089751Y081959
X088747Y081959
X090946Y081678
X088755Y080845
X089736Y080845
X091321Y078095
X092503Y078095
X091912Y078095
X088743Y077268
X091321Y077229
X092503Y077229
X091912Y077229
X088566Y076875
X092385Y07656
X088945Y076495
X088566Y076481
X088566Y076087
X088566Y075693
X089038Y075418
X092621Y075339
X088606Y075289
X088959Y074906
X089472Y07486
X088566Y074548
X088959Y074512
X089169Y074277
X088566Y073725
X088743Y073331
X091497Y070981
X088756Y070738
X091509Y069867
X091484Y068597
X091484Y067616
X09329Y067229
X093526Y067032
X091484Y066632
X091484Y065647
X091484Y064655
X092503Y064158
X08976Y064046
X088786Y064046
X088774Y062932
X089772Y062932
X092778Y060221
X093526Y060182
X092802Y059133
X093538Y059101
X09329Y058725
X092936Y058567
X092936Y056993
X091951Y047859
X091951Y046796
X092646Y032685
X090744Y032685
X091802Y032044
X091969Y031877
X092646Y031661
X090744Y031661
X094839Y031661
X094524Y032331
X095613Y043213
X095416Y053016
X094077Y053528
X093802Y053686
X095219Y053805
X095416Y054001
X094865Y05404
X095416Y054394
X095416Y054985
X095219Y055182
X095416Y055379
X095219Y055575
X095416Y055772
X095258Y055969
X095258Y056363
X095416Y056756
X095416Y05715
X093841Y057583
X094589Y058095
X095193Y058906
X095193Y059496
X09451Y068646
X094629Y069591
X09451Y069985
X095535Y07026
X094629Y070379
X094629Y070772
X094629Y071166
X094629Y07156
X094629Y071953
X095495Y071953
X095495Y072386
X094786Y073764
X093762Y073922
X09455Y074394
X09455Y074867
X09455Y075339
X093566Y075339
X09455Y075812
X095534Y075851
X09455Y076481
X09577Y07719
X095062Y077229
X093684Y077229
X09577Y078056
X095062Y078095
X093684Y078095
X095691Y078449
X095691Y078922
X095691Y079434
X094156Y080851
X094156Y081717
X09451Y084867
X095691Y084867
X095101Y084867
X093799Y085492
X09451Y085733
X095691Y085733
X095101Y085733
X094235Y094217
X095258Y095575
X09388Y095772
X095573Y102859
X094629Y102859
X093684Y102898
X09602Y106701
X09602Y107252
X096059Y110559
X096138Y111346
X096385Y10711
X09888Y10126
X10079Y10126
X10063Y099606
X099935Y09891
X099803Y098425
X099882Y097638
X097435Y08926
X097463Y087504
X099385Y08651
X096873Y085733
X097463Y085733
X096282Y085733
X096873Y084867
X096282Y084867
X097463Y084867
X099392Y08219
X098999Y08219
X098605Y08219
X100585Y08181
X099786Y081796
X099392Y081796
X098999Y081796
X098605Y081796
X10018Y081796
X099786Y081402
X099392Y081402
X098999Y081402
X098605Y081402
X10018Y081402
X098605Y081008
X099786Y081008
X099392Y081008
X098999Y081008
X10018Y081008
X098605Y080615
X098999Y080615
X099786Y080615
X100573Y080615
X100967Y080615
X10018Y080615
X098605Y080221
X099392Y080221
X098999Y080221
X099786Y079827
X099392Y079827
X098999Y079827
X098605Y079827
X100573Y079827
X100869Y079808
X100869Y079453
X098999Y079434
X100573Y079434
X099392Y079434
X099786Y079434
X098605Y079434
X098999Y07904
X100573Y07904
X099786Y07904
X099392Y07904
X100869Y078808
X099392Y078646
X099786Y078646
X100573Y078646
X100869Y078453
X098999Y078253
X098605Y078253
X099392Y078253
X099786Y078253
X100573Y078253
X099353Y077859
X098999Y077859
X099786Y077859
X098605Y077859
X100573Y077859
X100869Y077808
X098999Y077465
X098605Y077465
X099786Y077465
X099392Y077465
X100573Y077465
X100869Y077453
X098605Y077071
X099786Y077071
X099392Y077071
X098999Y077071
X100573Y077071
X100869Y076908
X098999Y076678
X099786Y076678
X099392Y076678
X100573Y076678
X100869Y076553
X098447Y076442
X098999Y076284
X099786Y076284
X099392Y076284
X100573Y076284
X100869Y076008
X099392Y07589
X099786Y07589
X100573Y07589
X100869Y075653
X098999Y075497
X099392Y075497
X100573Y075497
X100869Y075108
X100573Y075103
X10018Y075103
X099786Y075103
X100869Y074753
X100573Y074709
X098999Y074709
X098605Y074709
X099392Y074709
X099786Y074709
X098999Y074381
X099786Y074316
X098605Y074316
X100573Y074316
X100869Y074208
X096785Y07411
X099392Y073922
X100573Y073922
X099031Y073903
X098594Y073881
X099786Y07387
X100869Y073853
X100573Y073528
X098999Y073528
X099786Y073528
X099392Y073528
X098605Y073487
X100869Y073308
X098605Y073134
X098999Y073134
X099392Y073134
X100573Y073134
X100869Y072953
X098997Y072741
X096243Y072741
X100573Y072741
X099786Y072741
X099392Y072741
X098605Y072741
X100573Y072347
X100869Y072308
X097735Y07196
X099435Y07196
X098997Y071953
X100869Y071953
X100573Y071953
X099786Y071953
X099786Y07156
X099392Y07156
X100573Y07156
X100573Y071166
X100573Y070826
X099786Y070772
X098605Y070772
X099392Y070772
X100967Y070772
X098999Y070379
X10018Y070379
X099392Y070379
X099786Y070379
X098605Y069985
X098999Y069985
X099392Y069985
X099786Y069985
X099786Y069591
X099392Y069591
X098999Y069591
X098605Y069591
X099392Y069197
X098999Y069197
X098605Y069197
X10018Y069197
X098999Y068804
X098605Y068804
X100122Y06861
X100377Y064079
X099195Y064079
X10039Y06115
X100783Y06115
X099996Y06115
X09724Y060913
X096846Y060913
X100193Y060913
X098224Y060913
X099799Y060913
X097634Y060913
X10098Y060913
X100587Y060913
X099012Y060913
X098618Y060913
X099209Y060008
X099602Y060008
X097043Y060008
X097831Y060008
X098815Y060008
X097437Y060008
X099904Y059867
X100705Y05985
X100592Y0595
X096335Y059102
X096518Y058528
X096557Y058136
X096321Y057545
X096321Y056955
X096321Y056561
X096321Y054592
X096321Y054199
X100219Y043253
X09766Y043213
X098684Y043213
X096676Y043213
X099416Y033749
X097352Y031408
X102936Y029827
X102227Y043253
X101203Y043253
X103251Y043253
X102936Y051599
X103329Y051599
X103132Y052504
X101571Y060008
X101965Y060008
X101374Y060913
X101768Y060913
X102949Y060913
X102358Y060913
X101177Y06115
X101361Y062741
X102345Y068449
X103329Y068804
X102936Y068804
X101361Y068804
X102936Y069197
X102148Y069197
X103329Y069197
X101361Y069197
X101754Y069591
X103329Y069591
X102542Y069591
X102148Y069591
X102936Y069985
X101754Y069985
X102542Y069985
X102148Y069985
X103329Y069985
X101754Y070379
X102542Y070379
X102148Y070379
X101361Y070772
X101754Y070772
X102936Y070772
X102148Y070772
X102542Y070772
X103361Y070804
X101068Y071068
X101422Y071068
X103522Y071068
X103168Y071068
X102522Y071068
X102168Y071068
X103506Y071856
X103152Y071856
X101657Y071969
X102247Y071973
X101657Y072323
X102247Y072327
X101657Y072969
X103113Y073232
X102758Y073232
X101657Y073323
X102836Y073745
X101676Y073863
X102836Y074099
X101676Y074217
X102836Y074645
X101676Y074728
X102836Y074999
X101676Y075081
X102836Y075545
X101676Y075596
X102836Y075899
X101676Y075951
X102836Y076445
X101676Y076502
X102836Y076799
X101676Y076851
X102836Y077345
X101676Y077483
X102836Y077699
X101676Y077835
X101676Y078468
X102979Y078487
X102625Y078487
X101676Y078813
X102562Y079138
X102916Y079138
X103462Y079138
X102129Y079925
X102674Y079925
X103029Y079925
X101774Y079925
X102542Y080221
X103329Y080221
X102936Y080221
X101754Y080615
X102148Y080615
X101361Y080615
X101361Y081402
X102936Y081796
X102035Y082428
X103526Y0903
X102502Y091126
X102739Y099119
X102778Y099906
X103497Y099906
X101203Y10963
X103104Y111255
X102907Y111491
X10311Y116693
X10311Y117559
X10362Y1179
X10563Y1179
X10461Y1179
X10511Y116693
X10411Y116693
X10361Y11654
X10561Y116539
X10461Y116539
X104285Y111255
X105269Y111255
X104088Y110251
X105466Y110251
X104904Y099906
X105377Y099906
X104088Y099906
X105849Y099906
X103605Y089552
X105219Y084591
X104392Y084552
X10451Y08219
X105691Y08219
X104904Y081796
X105298Y081402
X104904Y081402
X105691Y081402
X10451Y081402
X104904Y080615
X105691Y080615
X105298Y080615
X10451Y080615
X103723Y080221
X104117Y080221
X103574Y079925
X103929Y079925
X104929Y079925
X104574Y079925
X105474Y079925
X105829Y079925
X105716Y079138
X103816Y079138
X104816Y079138
X104462Y079138
X105362Y079138
X105178Y077971
X104824Y077971
X105924Y077971
X103743Y077958
X104097Y077958
X103723Y077465
X104904Y077465
X104117Y077465
X105691Y077465
X105298Y077465
X10451Y077465
X103723Y077071
X104904Y077071
X105691Y077071
X105298Y077071
X10451Y077071
X104117Y077071
X103723Y076678
X105691Y076678
X105298Y076678
X104904Y076678
X10451Y076678
X104117Y076678
X103723Y076284
X104117Y076284
X105691Y076284
X105298Y076284
X104904Y076284
X10451Y076284
X103723Y07589
X105691Y07589
X105298Y07589
X104117Y07589
X104904Y07589
X10451Y07589
X104904Y075497
X105691Y075497
X103723Y075497
X105298Y075497
X104117Y075497
X10451Y075497
X104904Y075103
X105691Y075103
X103723Y075103
X104117Y075103
X105298Y075103
X10451Y075103
X104904Y074709
X104117Y074709
X105691Y074709
X105298Y074709
X103723Y074709
X10451Y074709
X103723Y074316
X105691Y074316
X105298Y074316
X10451Y074316
X104117Y074316
X104904Y074316
X104117Y073922
X105691Y073922
X103723Y073922
X10451Y073922
X104904Y073922
X105298Y073922
X104018Y073234
X105013Y073232
X103658Y073232
X105758Y073232
X104658Y073232
X104052Y071856
X104406Y071856
X105506Y071856
X105152Y071856
X104522Y071068
X104168Y071068
X105564Y071067
X105917Y071067
X104904Y070772
X103723Y070772
X105691Y070772
X104117Y070772
X10451Y070772
X105298Y070772
X104117Y069985
X10451Y069985
X103723Y069985
X104904Y069985
X105691Y069985
X105298Y069985
X105691Y069591
X103723Y069591
X10451Y069591
X104904Y069591
X104117Y069591
X104117Y069197
X105298Y069197
X104904Y069197
X103723Y069197
X105691Y069197
X105691Y068804
X103723Y068804
X10451Y068804
X104117Y068804
X104852Y068594
X105019Y068427
X105101Y063331
X105101Y062386
X10476Y059496
X103841Y058725
X104747Y058528
X10388Y058333
X104746Y058136
X104747Y05715
X104746Y05538
X103835Y05501
X104785Y05481
X104919Y05461
X104746Y054374
X104746Y053774
X105004Y053587
X104982Y053214
X104746Y053018
X10581Y047898
X105942Y038467
X105775Y0383
X105495Y031599
X106902Y036293
X106502Y036293
X108085Y04246
X106873Y047898
X107778Y047898
X107685Y06161
X108487Y065782
X106873Y068804
X107266Y068804
X106085Y068804
X106479Y068804
X108054Y068804
X106085Y069197
X107266Y069197
X108447Y069197
X106873Y069197
X108054Y069197
X10766Y069197
X106479Y069197
X10766Y069591
X106085Y069591
X108447Y069591
X108054Y069591
X106873Y069591
X106479Y069591
X107266Y069591
X106479Y069985
X106085Y069985
X107266Y069985
X106873Y069985
X10766Y069985
X108054Y069985
X108447Y069985
X10766Y070772
X107266Y070772
X106873Y070772
X106479Y070772
X106085Y070772
X108447Y070772
X108054Y070772
X108268Y071068
X106722Y071068
X106368Y071068
X107288Y071087
X107639Y071087
X106252Y071856
X106606Y071856
X107252Y071856
X107606Y071856
X107759Y072957
X106108Y073214
X106958Y073232
X107313Y073232
X107759Y073312
X106873Y073528
X106479Y073922
X107266Y073922
X106085Y073922
X107778Y074137
X106479Y074316
X106085Y074316
X107266Y074316
X106873Y074316
X107778Y074489
X106479Y074709
X106085Y074709
X107266Y074709
X106873Y074709
X106873Y075103
X106085Y075103
X106479Y075103
X107266Y075103
X107778Y075121
X107778Y07548
X106085Y075497
X106873Y075497
X107266Y075497
X106479Y075497
X106479Y07589
X106873Y07589
X106085Y07589
X107266Y07589
X107759Y076057
X107266Y076284
X106479Y076284
X106873Y076284
X106085Y076284
X107759Y076412
X106085Y076678
X106479Y076678
X106873Y076678
X107266Y076678
X107759Y076957
X106479Y077071
X107266Y077071
X106085Y077071
X106873Y077071
X107759Y077312
X106479Y077465
X106085Y077465
X106873Y077465
X107266Y077465
X108348Y077957
X107178Y077971
X106824Y077971
X106282Y077977
X108348Y078312
X107916Y079138
X107562Y079138
X106816Y079138
X106462Y079138
X106929Y079925
X107674Y079925
X106574Y079925
X108029Y079925
X106873Y080221
X106479Y080221
X108054Y080221
X10766Y080221
X107266Y080221
X108447Y080221
X106085Y080221
X10766Y080615
X107266Y080615
X108054Y081008
X107266Y081008
X108447Y081008
X10766Y081008
X107266Y081402
X108054Y081402
X106873Y081402
X108447Y081402
X10766Y081402
X107266Y081796
X106873Y081796
X108054Y081796
X108054Y08219
X10766Y08219
X106243Y084591
X106535Y08906
X106282Y099906
X106647Y110251
X10645Y111255
X106846Y115929
X106629Y116577
X106366Y11693
X10659Y11791
X109646Y118317
X108661Y11812
X109646Y117431
X108661Y116998
X109134Y116949
X110669Y116053
X109134Y11502
X10908Y106856
X110785Y106663
X11081Y08219
X110416Y08219
X110416Y081796
X110022Y081796
X109235Y081402
X11081Y081402
X109629Y081402
X108841Y081402
X110022Y081008
X11081Y081008
X108841Y081008
X110416Y081008
X109235Y081008
X11081Y080615
X110416Y080615
X108841Y080221
X110416Y080221
X11081Y080221
X109629Y080221
X109235Y080221
X109129Y079925
X108774Y079925
X110416Y079827
X11081Y079827
X109531Y079595
X11081Y079434
X110416Y079434
X109531Y079241
X109016Y079138
X108662Y079138
X110416Y07904
X110416Y078646
X110022Y078587
X109726Y078327
X108939Y078327
X108939Y077973
X109726Y077973
X110022Y077859
X110022Y077465
X108939Y077327
X109726Y077327
X110022Y077071
X11081Y077071
X108939Y076973
X109726Y076973
X110022Y076678
X11081Y076678
X109726Y076427
X108939Y076327
X11081Y076284
X110022Y076284
X109726Y076073
X108939Y075973
X11081Y07589
X110416Y07589
X110416Y075497
X11081Y075497
X10892Y075477
X109726Y075427
X10892Y075121
X11081Y075103
X110416Y075103
X109726Y075073
X11081Y074709
X110416Y074709
X10892Y074492
X109726Y074327
X110022Y074316
X11081Y074316
X10892Y074137
X109726Y073973
X11081Y073922
X110022Y073922
X11081Y073528
X110022Y073528
X109726Y073327
X108939Y073327
X110022Y073134
X11081Y073134
X109726Y072973
X108939Y072973
X110022Y072741
X11081Y072741
X110416Y072347
X11081Y072347
X109726Y072327
X108939Y072327
X109726Y071973
X108939Y071973
X110416Y071953
X11081Y071953
X110416Y07156
X11081Y07156
X110416Y071166
X11081Y071166
X109722Y071068
X108622Y071068
X109368Y071068
X110416Y070772
X11081Y070772
X108841Y070772
X109235Y070772
X109235Y070379
X110416Y070379
X109629Y070379
X11081Y070379
X110022Y070379
X110416Y069985
X109235Y069985
X108841Y069985
X109629Y069985
X11081Y069985
X110022Y069985
X110022Y069591
X108841Y069591
X109235Y069591
X110416Y069591
X109629Y069591
X11081Y069591
X109235Y069197
X11081Y069197
X109629Y069197
X108841Y069197
X110416Y069197
X110022Y069197
X109235Y068804
X110022Y068804
X109629Y068804
X110626Y056228
X109235Y055615
X110363Y055546
X109235Y05461
X110377Y053528
X10888Y052741
X113172Y048253
X112161Y04989
X113172Y049945
X11203Y052701
X111321Y053882
X11127Y054226
X111991Y055457
X111361Y05652
X111597Y068804
X111203Y068804
X111991Y068804
X111203Y069197
X111597Y069197
X111991Y069197
X111991Y069591
X111597Y069591
X111203Y069591
X112109Y069867
X111597Y069985
X111203Y069985
X111991Y070379
X111597Y070379
X111203Y070379
X111203Y070772
X111597Y070772
X111991Y070772
X111597Y071166
X111991Y071166
X111203Y071166
X111597Y07156
X111203Y07156
X111991Y07156
X111597Y071953
X111203Y071953
X111203Y072347
X111597Y072347
X111597Y072741
X111203Y072741
X111203Y073134
X111991Y073134
X111597Y073134
X111203Y073528
X111991Y073528
X111597Y073528
X111597Y073922
X111203Y073922
X111991Y073922
X111203Y074316
X111597Y074316
X111991Y074316
X111203Y074709
X111597Y074709
X111991Y074709
X111597Y075103
X111203Y075103
X111991Y075103
X111597Y075497
X111991Y075497
X111203Y075497
X111203Y07589
X111597Y07589
X111991Y076284
X111203Y076284
X111597Y076284
X111597Y076678
X111203Y076678
X111991Y076678
X111203Y077071
X111597Y077071
X111991Y077071
X113487Y077662
X112109Y077662
X111203Y077859
X113487Y078056
X112384Y078056
X113487Y078449
X112384Y078449
X112817Y078961
X112384Y079237
X113447Y07963
X112384Y07963
X111203Y079827
X111571Y079853
X112016Y080195
X111571Y080247
X111597Y080615
X111203Y081008
X111597Y081008
X111203Y081402
X111991Y081402
X111597Y081402
X111203Y081796
X111991Y081796
X111597Y081796
X111597Y08219
X111991Y08219
X111203Y08219
X113472Y083487
X112739Y104749
X112283Y113789
X112283Y11623
X115581Y113976
X115635Y10826
X11908Y10571
X115573Y080024
X117188Y080024
X116636Y079237
X115613Y079237
X115534Y078449
X117188Y078449
X118022Y072937
X118072Y072487
X118072Y072237
X114972Y072137
X115377Y052386
X115967Y052347
X114274Y049945
X116321Y048213
X117277Y037387
X118754Y037387
X120722Y037387
X12023Y036324
X119246Y036324
X127555Y03489
X122695Y036324
X124829Y036324
X123679Y036324
X121218Y036324
X123187Y037387
X12414Y037387
X124135Y039552
X124864Y039552
X12304Y041896
X128461Y042843
X122503Y043095
X122503Y043449
X123272Y04366
X128483Y07589
X128284Y076284
X127936Y07904
X127285Y08866
X130272Y116819
X13098Y113354
X132435Y112806
X131059Y07178
X132398Y07174
X12955Y069375
X12955Y068784
X12955Y067642
X12955Y067052
X12955Y066579
X12955Y065989
X12955Y065398
X12955Y064808
X131925Y06237
X13098Y062331
X12955Y061855
X12955Y061264
X12955Y060792
X12955Y060201
X12955Y059808
X12955Y059217
X132004Y054575
X130665Y054142
X130114Y054142
X131965Y053669
X131689Y053039
X130587Y051858
X129957Y051858
X129327Y05178
X130469Y050677
X130075Y050087
X129366Y049811
X129839Y049732
X129091Y049457
T2C.00984F0S0
X058302Y084552
X059077Y084552
X058684Y084552
X059459Y084552
X061046Y084552
X060664Y084552
X060443Y08526
X059286Y08526
X060062Y08526
X059668Y08526
X06338Y08526
X063762Y08526
X064538Y08526
X064156Y08526
X065743Y08526
X066125Y08526
X0669Y08526
X066518Y08526
X068487Y08526
X068105Y08526
X06144Y084552
X061821Y084552
X06514Y084552
X065534Y084552
X067503Y084552
X067896Y084552
X067121Y084552
X068278Y084552
X064758Y084552
X065916Y084552
X069865Y084552
X070258Y084552
X069483Y084552
X07064Y084552
X072227Y084552
X072621Y084552
X071845Y084552
X073003Y084552
X074589Y084552
X074983Y084552
X074207Y084552
X075365Y084552
X070849Y08526
X070467Y08526
X073211Y08526
X072829Y08526
X073987Y08526
X073605Y08526
X071625Y08526
X071243Y08526
X069262Y08526
X06888Y08526
X075849Y114434
X075467Y114434
X074955Y115418
X075337Y115418
X075731Y115418
X076113Y115418
X076991Y115418
X077384Y115418
X076609Y115418
X077766Y115418
X080626Y115402
X08102Y115402
X080244Y115402
X077949Y114457
X077555Y114457
X078331Y114457
X077173Y114457
X076243Y114434
X076625Y114434
X080782Y114434
X079865Y085339
X079471Y085339
X080247Y085339
X079089Y085339
X076597Y0853
X077373Y0853
X076215Y0853
X076991Y0853
X077947Y084591
X078723Y084591
X078329Y084591
X079105Y084591
X083224Y114417
X082831Y114417
X082449Y114417
X083606Y114417
X088354Y114417
X081558Y114434
X081164Y114434
X08194Y114434
X087463Y114434
X087069Y114434
X087845Y114434
X086688Y114434
X082306Y115379
X082699Y115379
X083081Y115379
X081924Y115379
X088211Y115379
X087829Y115379
X086531Y115402
X086925Y115402
X08615Y115402
X081402Y115402
X087307Y115402
X091886Y115402
X09228Y115402
X091504Y115402
X092661Y115402
X088987Y115379
X088605Y115379
X093526Y115379
X093144Y115379
X09392Y115379
X094302Y115379
X092384Y114434
X09316Y114434
X092003Y114434
X092778Y114434
X089512Y114417
X088736Y114417
X08913Y114417
X094445Y114417
X094051Y114417
X094827Y114417
X093669Y114417
T3C.01F095S3
X014621Y053443
X015152Y053504
X015215Y075109
X013825Y075439
X015215Y075459
X015185Y075819
X014088Y076763
X014081Y077579
X015985Y077929
X015495Y077939
X015745Y077939
X014465Y078399
X016026Y078787
X014645Y078792
X014643Y0793
X014645Y079554
X015487Y079805
X014643Y079811
X015725Y080649
X015985Y080649
X015475Y080659
X015805Y080989
X013686Y082399
X013695Y082759
X013686Y083099
X0137Y084288
X013715Y084669
X01602Y085047
X0137Y085079
X01602Y085677
X0137Y085688
X013705Y086069
X016025Y086079
X01602Y086465
X0137Y086479
X013659Y087053
X016035Y087078
X016035Y087479
X0137Y087869
X016035Y087869
X013659Y088493
X016025Y088529
X0137Y089279
X016035Y089279
X014494Y090288
X014534Y090957
X013975Y109504
X013975Y110504
X013975Y111504
X013975Y112504
X013959Y119788
X01788Y119772
X01788Y114772
X017896Y096166
X017896Y094166
X017939Y092163
X017365Y088859
X016635Y088389
X018254Y087174
X018265Y086779
X018239Y086393
X018254Y085774
X018245Y085419
X018209Y085033
X018254Y084374
X018235Y083979
X018229Y083613
X017713Y083118
X017715Y082759
X018285Y082419
X017713Y08237
X018275Y082059
X018275Y081719
X016425Y080959
X016505Y080649
X016245Y080649
X016508Y079815
X017395Y079809
X018315Y079569
X017385Y079549
X016501Y079304
X017375Y079299
X017375Y079039
X016501Y078787
X018315Y078429
X016245Y077929
X016423Y077555
X016413Y077145
X016815Y076899
X016429Y076739
X02228Y081701
X022245Y082069
X02228Y082409
X020469Y083591
X020508Y083984
X02059Y084374
X02059Y084982
X020565Y085369
X020602Y085745
X02059Y086382
X020595Y086789
X02059Y087174
X02018Y088528
X019195Y088528
X02018Y08904
X019156Y089119
X020219Y08967
X019156Y089709
X019195Y090182
X02018Y090221
X020652Y094237
X021768Y095772
X021409Y095772
X023211Y096363
X021461Y096953
X021812Y096953
X021457Y098134
X021816Y098134
X019668Y099119
X021478Y099316
X021824Y099316
X019668Y099512
X019668Y099906
X020849Y100693
X021458Y102071
X021811Y102071
X021458Y103253
X021813Y103253
X019314Y115221
X019314Y115772
X019589Y119827
X019589Y1203
X026345Y121549
X029225Y119299
X030225Y119299
X026345Y117611
X024691Y116275
X025004Y115763
X030075Y112959
X030235Y111799
X030235Y109979
X026754Y107662
X029707Y107583
X024589Y094376
X028132Y094374
X02577Y094374
X030495Y094374
X029314Y094373
X026951Y094372
X024589Y09402
X030495Y09402
X02577Y09402
X026951Y09402
X029314Y094019
X028132Y094019
X029825Y068929
X029274Y068929
X02955Y068692
X027975Y068495
X029274Y068456
X029825Y068456
X02955Y068259
X029274Y068023
X029786Y068023
X029943Y066724
X030337Y065936
X028723Y048134
X0254Y042178
X02914Y041587
X026187Y0408
X026187Y039225
X035258Y060031
X035849Y065936
X035849Y066921
X031124Y068692
X032384Y069322
X034612Y092831
X035526Y093213
X032463Y09402
X032463Y094376
X035Y094985
X034647Y094985
X035003Y096166
X034647Y096166
X035005Y097347
X034647Y097347
X035003Y098331
X034645Y098331
X035003Y099316
X034648Y099316
X035003Y100497
X034645Y100497
X035002Y101678
X03465Y101678
X035246Y103355
X035265Y103724
X032775Y109019
X035275Y109159
X031275Y109229
X032815Y109939
X034175Y109959
X032805Y110289
X033695Y111589
X035205Y112639
X031095Y112699
X033225Y119299
X032225Y119299
X031225Y119299
X035225Y119299
X034225Y119299
X037225Y119299
X036225Y119299
X038225Y119299
X043425Y119299
X036225Y113589
X038215Y113349
X037284Y110845
X036925Y109989
X037188Y10463
X041663Y10448
X038233Y10447
X043297Y104184
X038243Y10398
X038245Y103478
X042443Y10328
X038229Y102979
X040433Y10193
X041912Y072544
X041518Y07156
X041518Y070536
X041518Y069394
X041518Y068253
X041518Y067071
X041558Y06589
X041518Y06467
X041518Y063292
X041518Y062111
X041558Y060812
X036243Y059637
X041518Y059158
X041518Y057623
X04203Y03404
X04203Y032662
X039154Y031776
X038662Y031776
X0435Y031701
X045472Y031654
X047358Y03178
X045726Y032388
X048054Y05719
X048014Y074709
X048014Y077071
X048408Y083292
X048408Y088764
X046601Y102148
X043911Y10299
X048438Y10299
X048438Y10349
X043911Y10349
X048438Y10399
X048438Y10449
X047397Y104491
X04389Y104491
X046601Y105642
X047593Y106972
X045475Y109159
X047625Y109719
X044535Y109869
X047655Y110079
X047585Y111519
X044525Y111799
X045348Y112683
X044215Y113139
X044425Y119299
X045425Y119299
X047425Y119299
X046425Y119299
X048425Y119299
X052425Y119299
X052425Y116194
X052389Y113529
X053289Y113529
X049565Y112559
X051225Y111509
X052739Y110369
X051225Y109969
X048645Y109899
X052029Y109779
X049675Y109219
X050776Y109079
X053199Y108079
X051766Y104485
X051125Y087701
X050967Y079237
X050967Y078449
X050967Y075103
X050967Y074316
X048723Y071756
X049707Y070575
X051453Y031701
X0535Y031701
X05025Y031701
X055469Y031701
X057516Y031701
X055474Y032719
X057069Y059158
X054291Y076378
X056873Y078056
X056873Y07963
X054786Y080772
X054786Y081205
X053723Y081205
X05451Y082583
X054117Y082583
X054117Y082977
X05451Y082977
X053644Y084158
X054786Y084749
X053684Y085142
X054786Y085142
X054786Y086323
X053762Y086717
X054117Y088095
X05451Y088095
X054117Y088489
X05451Y088489
X053566Y089709
X054786Y09026
X053723Y090654
X054786Y090654
X05766Y099512
X058447Y105142
X057975Y105142
X056989Y105359
X058211Y105379
X056989Y105615
X057975Y105615
X058447Y105615
X058211Y105851
X056989Y105871
X057975Y106087
X058447Y106087
X056282Y106402
X054139Y108129
X057585Y108292
X054139Y109209
X057745Y110849
X056615Y111449
X056615Y112549
X057845Y113299
X054189Y113529
X055089Y113529
X056715Y113899
X056715Y114999
X057895Y115749
X056765Y116349
X056765Y117449
X057895Y118199
X056745Y118799
X056745Y119899
X060845Y119909
X060595Y119199
X059045Y118949
X061045Y118149
X060845Y117699
X060575Y116739
X059045Y116499
X060781Y115749
X060795Y115249
X058995Y114049
X060118Y113976
X061065Y113199
X060695Y112799
X058895Y111599
X06Y111535
X060681Y110849
X06063Y107544
X05892Y106087
X059905Y105871
X058684Y105851
X059905Y105615
X05892Y105615
X058684Y105379
X059905Y105359
X05892Y105182
X060219Y076087
X060219Y0753
X060219Y074512
X060219Y073725
X059825Y072938
X059825Y07215
X060219Y07215
X059825Y071363
X060219Y070575
X059825Y069788
X059825Y069001
X060219Y069001
X060219Y068213
X059825Y067426
X060219Y066638
X059432Y060733
X059563Y031701
X061531Y031701
X063431Y031773
X061794Y059158
X061794Y070575
X061518Y071756
X0614Y072544
X061794Y072938
X061479Y074119
X061794Y074512
X062188Y076087
X0614Y076481
X062778Y082662
X062975Y099512
X063093Y105142
X062108Y105359
X063329Y105379
X062108Y105615
X063093Y105615
X063329Y105851
X062108Y105871
X063093Y106087
X0614Y106402
X062533Y108212
X061795Y111349
X061795Y111849
X061795Y112349
X061496Y112362
X061945Y113699
X061945Y114199
X061945Y114699
X061545Y114799
X061945Y116199
X061945Y116699
X061945Y117199
X061595Y117249
X061975Y118679
X061975Y119179
X061965Y119679
X061595Y119699
X067265Y119679
X066395Y117912
X065995Y117899
X066795Y117899
X067225Y117189
X066395Y115432
X065995Y115419
X066795Y115419
X067315Y114689
X066395Y112932
X065995Y112919
X066795Y112919
X067285Y112339
X066395Y110582
X065995Y110569
X066795Y110569
X06766Y108253
X065928Y107426
X066518Y106402
X063566Y106087
X064038Y106087
X068211Y106048
X065024Y105871
X067227Y10587
X063802Y105851
X068447Y105812
X065024Y105615
X064038Y105615
X067226Y105615
X063566Y105615
X068211Y105575
X063802Y105379
X067226Y105359
X065024Y105359
X068447Y105339
X064038Y105182
X063566Y105142
X068211Y105103
X068093Y099512
X064156Y060733
X066518Y059158
X067188Y033449
X063999Y031773
X069077Y031402
X06888Y059158
X07203Y060733
X071874Y085767
X069195Y085772
X068684Y105103
X069156Y105142
X06892Y105339
X070142Y105359
X069156Y105575
X068684Y105575
X070142Y105615
X06892Y105812
X070142Y105871
X069156Y106048
X068684Y106048
X070691Y107465
X069898Y110522
X070898Y110522
X071898Y110522
X068798Y110522
X070677Y116944
X070979Y117218
X071281Y117505
X071525Y117764
X081025Y11806
X078661Y118024
X075709Y11802
X07748Y118016
X07689Y118016
X078071Y118016
X078323Y118016
X079256Y118016
X080433Y118016
X080181Y118016
X079512Y118012
X076301Y11801
X079843Y118008
X07577Y082662
X078507Y075693
X078504Y072544
X07772Y071756
X077542Y070772
X078329Y060733
X07518Y060733
X075377Y035733
X075688Y034512
X078697Y032646
X07384Y031798
X074428Y031794
X078697Y031701
X07665Y031701
X081479Y060733
X084766Y061239
X085829Y061239
X084176Y061239
X085239Y061239
X083743Y062932
X081479Y063095
X083743Y064045
X083152Y064046
X081906Y064374
X08302Y064375
X081906Y064965
X08302Y064965
X082778Y066441
X082778Y066835
X083743Y069625
X083152Y069625
X083743Y070738
X083152Y070738
X08214Y072383
X086026Y072392
X085469Y072921
X084137Y078877
X083546Y078877
X0852Y078916
X084609Y078916
X085829Y078916
X082103Y086619
X083217Y086619
X082103Y087209
X083217Y087209
X082103Y08776
X083217Y08776
X082103Y088351
X083217Y088351
X084137Y088522
X083546Y088523
X084136Y089636
X083546Y089636
X082739Y089847
X085317Y090423
X084727Y090423
X082205Y118016
X085752Y118016
X083386Y11802
X082795Y11802
X085157Y11802
X084567Y11802
X083976Y11802
X084878Y118052
X081616Y11806
X084655Y118769
X090565Y118799
X086339Y11802
X08811Y11802
X088701Y11802
X091059Y11802
X090472Y11802
X089878Y11802
X090755Y118019
X089295Y118016
X087521Y11801
X086931Y11801
X086105Y090423
X087601Y090423
X086695Y090423
X088191Y090423
X08888Y090237
X088467Y088652
X089058Y088652
X089058Y087538
X089451Y081959
X089058Y081959
X090042Y081959
X089451Y080845
X088467Y080845
X090042Y080845
X089058Y080845
X08705Y078916
X08764Y078916
X08642Y078916
X087443Y072392
X086617Y072392
X088034Y072392
X088467Y070738
X089058Y070738
X089058Y069625
X089272Y066835
X089274Y066449
X089451Y064046
X089058Y064045
X090042Y064045
X088467Y062932
X089451Y062932
X089058Y062932
X090042Y062932
X086302Y061239
X087404Y061239
X087995Y061239
X086892Y061239
X088776Y032646
X088776Y031701
X092503Y062701
X092896Y064237
X091484Y064375
X091485Y064965
X091484Y065359
X093251Y065379
X092857Y065379
X092503Y065379
X09266Y065615
X093054Y065654
X092857Y06589
X092503Y06589
X093251Y06593
X091485Y06595
X091484Y066343
X091485Y066934
X092699Y067111
X091484Y067327
X091485Y067918
X091484Y068312
X091485Y068902
X091798Y069867
X091208Y069867
X091798Y070981
X091207Y070981
X0913Y081678
X091602Y082249
X091603Y082839
X091602Y083233
X091603Y083824
X091602Y084178
X091603Y084768
X091602Y085123
X091603Y085713
X091602Y086264
X091603Y086855
X091278Y08838
X092391Y08838
X091278Y088971
X092391Y088971
X093447Y092662
X093447Y093174
X092836Y11801
X092246Y11801
X091654Y118012
X093421Y11802
X095275Y118759
X096085Y118029
X094016Y11802
X094602Y11802
X096378Y11802
X096965Y11802
X095787Y118016
X095197Y118016
X096259Y104605
X097839Y104605
X096259Y103905
X097839Y103905
X096259Y103205
X097839Y103205
X096259Y102605
X097839Y102605
X097953Y100787
X094473Y095715
X093836Y094316
X095258Y093804
X097222Y093493
X094195Y093213
X093802Y093174
X093999Y092938
X093605Y092898
X094195Y092662
X093802Y092662
X094038Y09152
X098272Y088993
X098282Y087993
X098408Y083174
X097306Y080969
X097306Y080615
X097306Y080182
X098014Y079119
X098014Y078804
X09577Y074867
X096006Y074394
X096282Y069591
X094471Y064473
X096656Y061066
X098036Y059778
X098426Y059778
X096588Y0597
X097426Y058984
X097786Y058978
X096907Y058107
X096907Y057753
X096588Y05774
X096907Y056607
X096907Y056253
X096588Y05616
X096907Y055107
X096588Y0548
X096907Y054753
X097526Y053134
X09788Y053134
X096588Y05294
X096846Y052653
X096282Y048292
X09829Y048292
X097266Y048292
X102936Y031402
X099267Y031758
X098618Y031758
X100991Y033749
X100888Y048292
X099825Y048292
X101873Y048292
X102857Y048292
X098821Y052753
X099806Y052753
X100596Y052753
X101776Y052753
X103316Y052753
X100006Y053053
X09938Y053134
X100526Y053134
X10088Y053134
X099026Y053134
X10238Y053134
X102026Y053134
X102999Y054753
X102999Y055107
X102999Y056253
X102999Y056607
X102999Y057753
X102999Y058107
X10258Y058984
X102226Y058984
X103286Y059778
X102171Y059855
X103132Y067347
X101361Y067347
X102542Y067347
X101951Y067347
X10077Y067347
X103436Y067996
X101668Y067998
X100377Y082597
X099589Y08278
X099983Y082977
X099195Y083174
X098802Y083193
X10077Y083274
X101362Y087493
X100292Y087993
X102602Y088533
X101882Y088673
X102022Y089143
X102602Y090033
X102148Y090064
X102022Y090873
X101392Y091583
X100212Y091993
X10239Y100322
X099045Y102022
X103301Y102379
X103497Y102576
X102552Y102722
X102356Y102919
X102552Y103116
X102356Y103312
X102959Y103332
X100295Y103472
X102552Y103509
X102959Y103686
X102559Y103898
X102552Y104297
X102959Y104316
X102356Y104494
X102959Y104671
X102552Y105084
X102356Y105281
X102959Y105301
X098769Y105305
X102959Y105655
X102552Y105871
X098769Y105905
X102356Y106068
X102552Y106265
X102959Y106285
X102356Y106462
X098769Y106495
X102959Y106639
X102552Y107053
X098769Y107105
X102356Y107249
X102959Y107269
X102959Y107623
X098769Y107705
X102552Y10784
X102356Y108037
X102959Y108253
X098769Y108305
X102959Y108608
X098769Y109005
X102552Y109218
X102959Y109238
X102356Y109415
X102959Y109592
X098769Y109605
X103497Y109966
X098769Y110305
X10271Y11036
X103301Y11036
X098769Y110905
X103694Y11036
X104482Y11036
X104875Y11036
X10586Y11036
X103891Y109966
X104678Y109966
X105072Y109966
X105663Y109966
X106056Y109966
X10384Y10943
X10419Y10943
X103714Y108629
X103714Y108275
X105379Y103628
X105025Y103628
X105025Y102841
X103844Y102841
X105379Y102841
X104198Y102841
X105663Y102576
X104678Y102576
X105466Y102379
X104482Y102379
X10362Y092286
X10362Y091536
X10362Y091036
X10362Y090536
X10362Y089286
X10362Y088786
X10362Y088286
X10362Y088036
X10362Y087786
X103723Y067347
X104314Y067347
X104904Y067347
X103613Y059711
X103613Y059121
X103613Y056361
X103613Y055571
X103613Y052831
X105183Y048239
X105605Y041408
X105505Y03646
X105505Y036106
X105732Y035383
X105475Y0352
X105739Y034996
X105475Y034856
X106002Y032993
X105502Y032993
X107502Y032993
X108502Y032993
X108002Y032993
X108502Y033983
X108002Y033993
X106702Y034273
X106558Y035064
X106833Y035064
X106833Y035339
X106558Y035339
X107665Y03539
X108159Y035946
X106702Y036156
X108159Y0363
X107128Y037295
X106393Y041408
X107306Y041482
X107227Y042111
X106085Y042544
X107227Y042544
X106085Y042977
X107165Y048239
X106189Y048239
X107053Y05573
X108153Y05608
X107805Y056088
X107053Y05643
X107804Y056701
X108153Y05673
X107053Y05703
X108153Y05738
X107803Y057392
X1064Y087786
X1064Y088036
X1064Y088286
X1064Y088536
X1064Y088786
X1064Y089286
X1064Y089536
X1064Y089786
X1064Y090036
X1064Y090286
X1064Y090536
X1064Y091036
X1064Y091786
X1064Y092286
X107143Y099786
X10645Y102379
X107631Y102379
X107041Y102379
X107434Y102576
X106647Y102576
X107958Y102722
X10656Y102841
X106206Y102841
X107761Y102919
X107958Y103116
X107761Y103312
X107446Y103332
X107958Y103509
X107446Y103686
X107761Y103706
X107958Y104297
X107446Y104316
X107761Y104494
X107446Y104671
X107958Y105084
X107761Y105281
X107446Y105301
X107446Y105655
X107958Y106068
X107761Y106265
X107446Y106285
X107446Y106639
X107446Y107269
X107446Y107623
X107958Y107643
X107761Y10784
X107958Y108037
X107761Y108234
X107446Y108253
X106664Y108275
X107446Y108608
X106664Y108629
X107958Y108824
X106945Y108932
X107761Y109021
X107446Y109238
X107958Y109415
X1063Y10945
X10666Y10946
X107446Y109592
X107958Y109808
X107631Y109966
X106844Y109966
X107238Y109966
X106253Y11036
X107041Y11036
X107434Y11036
X108285Y112872
X110785Y112882
X110542Y111243
X110825Y110322
X109495Y109612
X109139Y109612
X110822Y109233
X109139Y109218
X109795Y108922
X111032Y107643
X111032Y107113
X111192Y106053
X109703Y105675
X110982Y105433
X111622Y104383
X113222Y068941
X113272Y068168
X109825Y064158
X111479Y05963
X110518Y041195
X108809Y040959
X109918Y040695
X110518Y040295
X112879Y03633
X110065Y0363
X111402Y036156
X112879Y035976
X110065Y035946
X112365Y03539
X110439Y03539
X111518Y035339
X111243Y035339
X110065Y03519
X111243Y035064
X111518Y035064
X110439Y034996
X110065Y034836
X111402Y03423
X108992Y034173
X113202Y034063
X112702Y034043
X112202Y032993
X110702Y032993
X110202Y032993
X112702Y032904
X113202Y032904
X11476Y049969
X115469Y050362
X113657Y05178
X114445Y05178
X116968Y068104
X113969Y06813
X11387Y068369
X116986Y068503
X115299Y068518
X115631Y06852
X114964Y068521
X115944Y068525
X115943Y068822
X115616Y06884
X115301Y068845
X114962Y068857
X113916Y068913
X115943Y069164
X115301Y069167
X115613Y069179
X114962Y069197
X116986Y069486
X114964Y069501
X115944Y069501
X115282Y069504
X115591Y069504
X113967Y069878
X115261Y070525
X116328Y070562
X123526Y115497
X123093Y110418
X123369Y110379
X12098Y106701
X12098Y104772
X122803Y07178
X122403Y07178
X122803Y07098
X122403Y07098
X122803Y07018
X122403Y07018
X122803Y06938
X122403Y06938
X122803Y06858
X122403Y06858
X122403Y06778
X122803Y06778
X122403Y06698
X122803Y06698
X122803Y06618
X122403Y06618
X122803Y06538
X122403Y06538
X122403Y06458
X122803Y06458
X122403Y06378
X122803Y06378
X122403Y06298
X122803Y06298
X122403Y06218
X122803Y06218
X122803Y06118
X122403Y06118
X122403Y06018
X122803Y06018
X122803Y05918
X122403Y05918
X122403Y05818
X122803Y05818
X122803Y05718
X122403Y05718
X122803Y05618
X122403Y05618
X122803Y05518
X122403Y05518
X123051Y042248
X127759Y058625
X128329Y077347
X128487Y077583
X128329Y077859
X127943Y08105
X12579Y090379
X125573Y102701
X12418Y103722
X125599Y104707
X125572Y106699
X12542Y107746
X125222Y107978
X125554Y108183
X126789Y108381
X126228Y108545
X12487Y108545
X127532Y10855
X125864Y108557
X126704Y108875
X125645Y108882
X12429Y108882
X126937Y109277
X127537Y109647
X126233Y109656
X12487Y109656
X124904Y110339
X123762Y110379
X128369Y111599
X12514Y111599
X124668Y111638
X127227Y115497
X12577Y115497
X124589Y115497
X128329Y115497
X129314Y115497
X12888Y111599
X129707Y080812
X129432Y079355
X128683Y079
X129077Y077898
X128684Y077859
X12888Y077623
X128684Y077347
X129077Y077347
X130495Y076875
X128877Y076286
T4C.02362F197S55
X03827Y028594
X03705Y028594
X03827Y029381
X03705Y029381
X03827Y030169
X03705Y030169
X03827Y030956
X03705Y030956
X042085Y03107
X042884Y03107
X039491Y030956
X041483Y030381
X042483Y030381
X043483Y030381
X039491Y030169
X041085Y029692
X041884Y029692
X043085Y029692
X039491Y029381
X042884Y028708
X042085Y028708
X039491Y028594
X042483Y028019
X041483Y028019
X043483Y028019
X043085Y02733
X041085Y02733
X041884Y02733
X043884Y02733
X045085Y02733
X045884Y02733
X047085Y02733
X047884Y02733
X044483Y028019
X045483Y028019
X046483Y028019
X047483Y028019
X048483Y028019
X044085Y028708
X044884Y028708
X046085Y028708
X046884Y028708
X048085Y028708
X043884Y029692
X045085Y029692
X045884Y029692
X047085Y029692
X047884Y029692
X045483Y030381
X044483Y030381
X046483Y030381
X047483Y030381
X048483Y030381
X046884Y03107
X048085Y03107
X044884Y03107
X044085Y03107
X046085Y03107
X048884Y03107
X050085Y03107
X050884Y03107
X052085Y03107
X052884Y03107
X049483Y030381
X050483Y030381
X051483Y030381
X052483Y030381
X053483Y030381
X051085Y029692
X051884Y029692
X053085Y029692
X049085Y029692
X049884Y029692
X052085Y028708
X052884Y028708
X050085Y028708
X048884Y028708
X050884Y028708
X049483Y028019
X051483Y028019
X050483Y028019
X052483Y028019
X053483Y028019
X049884Y02733
X051884Y02733
X053085Y02733
X051085Y02733
X049085Y02733
X053884Y02733
X055085Y02733
X055884Y02733
X057085Y02733
X057884Y02733
X054483Y028019
X055483Y028019
X056483Y028019
X057483Y028019
X058483Y028019
X054085Y028708
X054884Y028708
X056085Y028708
X056884Y028708
X058085Y028708
X053884Y029692
X055085Y029692
X055884Y029692
X057085Y029692
X057884Y029692
X055483Y030381
X054483Y030381
X056483Y030381
X057483Y030381
X058483Y030381
X056884Y03107
X058085Y03107
X054884Y03107
X054085Y03107
X056085Y03107
X058884Y03107
X060085Y03107
X060884Y03107
X063073Y030956
X065514Y030956
X064294Y030956
X059483Y030381
X060483Y030381
X063073Y030169
X065514Y030169
X064294Y030169
X059085Y029692
X059884Y029692
X063073Y029381
X065514Y029381
X064294Y029381
X060884Y028708
X058884Y028708
X060085Y028708
X064294Y028594
X063073Y028594
X065514Y028594
X060483Y028019
X059483Y028019
X059884Y02733
X059085Y02733
X07352Y028594
X0723Y028594
X074741Y028594
X0723Y029381
X07352Y029381
X074741Y029381
X0723Y030169
X07352Y030169
X074741Y030169
X074741Y030956
X07352Y030956
X0723Y030956
X077335Y03107
X078134Y03107
X079335Y03107
X080134Y03107
X077733Y030381
X080733Y030381
X078733Y030381
X079733Y030381
X076733Y030381
X077134Y029692
X078335Y029692
X079134Y029692
X080335Y029692
X076335Y029692
X078134Y028708
X077335Y028708
X079335Y028708
X080134Y028708
X079733Y028019
X080733Y028019
X077733Y028019
X076733Y028019
X078733Y028019
X078335Y02733
X077134Y02733
X076335Y02733
X079134Y02733
X080335Y02733
X081134Y02733
X082335Y02733
X083134Y02733
X084335Y02733
X085134Y02733
X082733Y028019
X081733Y028019
X083733Y028019
X084733Y028019
X085733Y028019
X081335Y028708
X083335Y028708
X084134Y028708
X085335Y028708
X082134Y028708
X081134Y029692
X084335Y029692
X085134Y029692
X082335Y029692
X083134Y029692
X085733Y030381
X081733Y030381
X082733Y030381
X083733Y030381
X084733Y030381
X083335Y03107
X081335Y03107
X085335Y03107
X084134Y03107
X082134Y03107
X087335Y03107
X088134Y03107
X086134Y03107
X089335Y03107
X090134Y03107
X087733Y030381
X088733Y030381
X089733Y030381
X090733Y030381
X086733Y030381
X086335Y029692
X087134Y029692
X088335Y029692
X089134Y029692
X090335Y029692
X087335Y028708
X090134Y028708
X086134Y028708
X088134Y028708
X089335Y028708
X086733Y028019
X087733Y028019
X088733Y028019
X090733Y028019
X089733Y028019
X087134Y02733
X089134Y02733
X090335Y02733
X088335Y02733
X086335Y02733
X091134Y02733
X092335Y02733
X093134Y02733
X095134Y02733
X094335Y02733
X091733Y028019
X092733Y028019
X094733Y028019
X095733Y028019
X093733Y028019
X091335Y028708
X092134Y028708
X095335Y028708
X093335Y028708
X094134Y028708
X091134Y029692
X092335Y029692
X095134Y029692
X093134Y029692
X094335Y029692
X093733Y030381
X094733Y030381
X091733Y030381
X092733Y030381
X095733Y030381
X095335Y03107
X092134Y03107
X094134Y03107
X091335Y03107
X093335Y03107
X096134Y03107
X098323Y030956
X100764Y030956
X099544Y030956
X099544Y030169
X100764Y030169
X098323Y030169
X099544Y029381
X098323Y029381
X100764Y029381
X096134Y028708
X098323Y028594
X099544Y028594
X100764Y028594
T5C.02559F197S55
X125852Y026777G85X125852Y027052
T6C.02756F197S55
X037349Y041126
X038099Y04152
X037349Y041914
X038099Y042307
X037349Y042701
X038099Y043095
X037349Y043488
X038099Y043882
X037349Y044276
X038099Y044669
X037349Y045063
X038099Y045457
X037349Y045851
X038099Y046244
X037349Y046638
X038099Y047032
X037349Y047425
X038099Y047819
X037349Y048213
X038099Y048606
X037349Y049
X038099Y049394
X037349Y049788
X038099Y050181
X037349Y050575
X038099Y050969
X037349Y051362
X038099Y051756
X037349Y05215
X038099Y052543
X037349Y052937
X038099Y053331
X037349Y053725
X038099Y054118
X037349Y054512
X038099Y054906
X037349Y055299
X038099Y055693
X037349Y056087
X038099Y05648
X037349Y056874
X038099Y057268
X037349Y057662
X038099Y058055
X037349Y058449
X038099Y058843
X037349Y059236
X038099Y05963
X037349Y060024
X038099Y060417
X037349Y060811
X038099Y061205
X037349Y061599
X038099Y061992
X037349Y062386
X038099Y06278
X037349Y063173
X038099Y063567
X037349Y063961
X038099Y064354
X037349Y064748
X038099Y065142
X037349Y065536
X038099Y065929
X037349Y067898
X038099Y068291
X037349Y068685
X038099Y069079
X037349Y069473
X038099Y069866
X037349Y07026
X038099Y070654
X037349Y071047
X038099Y071441
X037349Y071835
X038099Y072229
X037349Y072622
X038099Y073016
X037349Y07341
X038099Y073803
X037349Y074197
X038099Y074591
X037349Y074984
X038099Y075378
X037349Y075772
X038099Y076166
X037349Y076559
X038099Y076953
X037349Y077347
X038099Y07774
X037349Y078134
X038099Y078528
X037349Y078921
X038099Y079315
X037349Y079709
X038099Y080103
X037349Y080496
X038099Y08089
X037349Y081284
X038099Y081677
X037349Y082071
X038099Y082465
X037349Y082858
X038099Y083252
X037349Y083646
X038099Y08404
X037349Y084433
X038099Y084827
X037349Y085221
X038099Y085614
X037349Y086008
X038099Y086402
X037349Y086795
X038099Y087189
X037349Y087583
X038099Y087977
X037349Y08837
X038099Y088764
X037349Y089158
X038099Y089551
X039601Y089551
X038851Y089158
X039601Y088764
X038851Y08837
X039601Y087977
X038851Y087583
X039601Y087189
X038851Y086795
X039601Y086402
X038851Y086008
X039601Y085614
X038851Y085221
X039601Y084827
X038851Y084433
X039601Y08404
X038851Y083646
X039601Y083252
X038851Y082858
X039601Y082465
X038851Y082071
X039601Y081677
X038851Y081284
X039601Y08089
X038851Y080496
X039601Y080103
X038851Y079709
X039601Y079315
X038851Y078921
X039601Y078528
X038851Y078134
X039601Y07774
X038851Y077347
X039601Y076953
X038851Y076559
X039601Y076166
X038851Y075772
X039601Y075378
X038851Y074984
X039601Y074591
X038851Y074197
X039601Y073803
X038851Y07341
X039601Y073016
X038851Y072622
X039601Y072229
X038851Y071835
X039601Y071441
X038851Y071047
X039601Y070654
X038851Y07026
X039601Y069866
X038851Y069473
X039601Y069079
X038851Y068685
X039601Y068291
X038851Y067898
X039601Y065929
X038851Y06552
X039601Y065142
X038851Y064732
X039601Y064354
X038851Y063945
X039601Y063567
X038851Y063158
X039601Y06278
X038851Y06237
X039601Y061992
X038851Y061583
X039601Y061205
X038851Y060795
X039601Y060417
X038851Y060008
X039601Y05963
X038851Y059221
X039601Y058843
X038851Y058433
X039601Y058055
X038851Y057646
X039601Y057268
X038851Y056858
X039601Y05648
X038851Y056071
X039601Y055693
X038851Y055284
X039601Y054906
X038851Y054496
X039601Y054118
X038851Y053709
X039601Y053331
X038851Y052921
X039601Y052543
X038851Y052134
X039601Y051756
X038851Y051347
X039601Y050969
X038851Y050559
X039601Y050181
X038851Y049772
X039601Y049394
X038851Y048984
X039601Y048606
X038851Y048197
X039601Y047819
X038851Y04741
X039601Y047032
X038851Y046622
X039601Y046244
X038851Y045835
X039601Y045457
X038851Y045047
X039601Y044669
X038851Y04426
X039601Y043882
X038851Y043473
X039601Y043095
X038851Y042685
X039601Y042307
X038851Y041898
X039601Y04152
X038851Y04111
X125621Y041085
X124119Y041085
X124869Y041479
X125621Y041872
X124119Y041872
X124869Y042266
X125621Y04266
X124119Y04266
X124869Y043054
X125621Y043447
X124119Y043447
X124869Y043841
X125621Y044235
X124119Y044235
X124869Y044628
X125621Y045022
X124119Y045022
X124869Y045416
X125621Y045809
X124119Y045809
X124869Y046203
X125621Y046597
X124119Y046597
X124869Y046991
X125621Y047384
X124119Y047384
X124869Y047778
X125621Y048172
X124119Y048172
X124869Y048565
X125621Y048959
X124119Y048959
X124869Y049353
X125621Y049746
X124119Y049746
X124869Y05014
X125621Y050534
X124119Y050534
X124869Y050928
X125621Y051321
X124119Y051321
X124869Y051715
X125621Y052109
X124119Y052109
X124869Y052502
X124119Y052896
X125621Y052896
X124869Y05329
X124119Y053683
X125621Y053683
X124869Y054077
X124119Y054471
X125621Y054471
X124869Y054865
X124119Y055258
X125621Y055258
X124869Y055652
X124119Y056046
X125621Y056046
X124869Y056439
X124119Y056833
X125621Y056833
X124869Y057227
X124119Y05762
X125621Y05762
X124869Y058014
X124119Y058408
X125621Y058408
X124869Y058802
X124119Y059195
X125621Y059195
X124869Y059589
X124119Y059983
X125621Y059983
X124869Y060376
X124119Y06077
X125621Y06077
X124869Y061164
X124119Y061557
X125621Y061557
X124869Y061951
X124119Y062345
X125621Y062345
X124869Y062739
X124119Y064707
X125621Y064707
X124869Y065117
X124119Y065494
X125621Y065494
X124869Y065904
X124119Y066282
X125621Y066282
X124869Y066691
X124119Y067069
X125621Y067069
X124869Y067479
X124119Y067857
X125621Y067857
X124869Y068266
X124119Y068644
X125621Y068644
X124869Y069054
X124119Y069431
X125621Y069431
X124869Y069841
X124119Y070219
X125621Y070219
X124869Y070628
X124119Y071006
X125621Y071006
X124869Y071416
X124119Y071794
X125621Y071794
X124869Y072203
X125621Y072581
X124119Y072581
X124869Y072991
X124119Y073369
X125621Y073369
X124869Y073778
X124119Y074156
X125621Y074156
X124869Y074565
X125621Y074943
X124119Y074943
X124869Y075353
X124119Y075731
X125621Y075731
X124869Y07614
X124119Y076518
X125621Y076518
X124869Y076928
X125621Y077306
X124119Y077306
X124869Y077715
X124119Y078093
X125621Y078093
X124869Y078502
X124119Y07888
X125621Y07888
X124869Y07929
X125621Y079668
X124119Y079668
X124869Y080077
X124119Y080455
X125621Y080455
X124869Y080865
X124119Y081243
X125621Y081243
X124869Y081652
X125621Y08203
X124119Y08203
X124869Y082439
X124119Y082817
X125621Y082817
X124869Y083227
X124119Y083605
X125621Y083605
X124869Y084014
X124119Y084392
X125621Y084392
X124869Y084802
X124119Y08518
X125621Y08518
X124869Y085589
X124119Y085967
X125621Y085967
X124869Y086376
X124119Y086754
X125621Y086754
X124869Y087164
X124119Y087542
X125621Y087542
X124869Y087951
X124119Y088329
X125621Y088329
X124869Y088739
X125621Y089117
X124119Y089117
X124869Y089526
X126371Y08951
X126371Y088723
X126371Y087935
X126371Y087148
X126371Y086361
X126371Y085573
X126371Y084786
X126371Y083998
X126371Y083211
X126371Y082424
X126371Y081636
X126371Y080849
X126371Y080061
X126371Y079274
X126371Y078487
X126371Y077699
X126371Y076912
X126371Y076124
X126371Y075337
X126371Y07455
X126371Y073762
X126371Y072975
X126371Y072187
X126371Y0714
X126371Y070613
X126371Y069825
X126371Y069038
X126371Y06825
X126371Y067463
X126371Y066676
X126371Y065888
X126371Y065101
X126371Y062739
X126371Y061951
X126371Y061164
X126371Y060376
X126371Y059589
X126371Y058802
X126371Y058014
X126371Y057227
X126371Y056439
X126371Y055652
X126371Y054865
X126371Y054077
X126371Y05329
X126371Y052502
X126371Y051715
X126371Y050928
X126371Y05014
X126371Y049353
X126371Y048565
X126371Y047778
X126371Y046991
X126371Y046203
X126371Y045416
X126371Y044628
X126371Y043841
X126371Y043054
X126371Y042266
X126371Y041479
T7C.0315F197S55
X109928Y118638
X110479Y118638
X111031Y118638
X111582Y118638
X11107Y121638G85X11044Y121638
T8C.032F197S55
X10451Y088036
X10451Y089036
X10451Y090036
X10451Y091036
X10451Y092036
T9C.035F197S55
X102618Y115254
X103118Y116254
X102118Y116254
X102758Y120354
X101758Y120354
X105978Y120354
X106978Y120354
X104118Y116254
X105118Y116254
X106118Y116254
X104618Y115254
X105618Y115254
X106618Y115254
X103618Y115254
X128492Y104835
X127492Y104835
X129492Y104835
X130492Y104835
X129492Y105835
X127492Y105835
X130492Y105835
X128492Y105835
X131492Y105835
X131492Y104835
T10C.03543F197S55
X115551Y1152
X116051Y1162
X117051Y1162
X118051Y1162
X119051Y1162
X116551Y1152
X118551Y1152
X117551Y1152
X131335Y049378
X131335Y042291
X131335Y039654
X131335Y032567
T11C.03937F197S55
X099786Y096444
X099736Y100394
T12C.03937F197S55
X019184Y044298
X025582Y04432
X013701Y054055
X013701Y054764
X013701Y055472
X013701Y056181
X025597Y057729
X025597Y058438
X016495Y059399
X022139Y063508
X022054Y073477
X025587Y074732
X024799Y074732
X024799Y075717
X025587Y075717
X024799Y076701
X025587Y076701
X025587Y077685
X024799Y077685
X03121Y085103
X03121Y083331
X03121Y08156
X030652Y070818
X030731Y066724
X030731Y065346
X030731Y062826
X030534Y0607
X032975Y0607
X026384Y058438
X026384Y057729
X033251Y054827
X033251Y053253
X033251Y051678
X033251Y050103
X033251Y048528
X028835Y046519
X031125Y046499
X029595Y046499
X030375Y046489
X032857Y046363
X032857Y042032
X028855Y038949
X030365Y038949
X031125Y038939
X029605Y038929
X033183Y037839
X02877Y037824
X032213Y037808
X031182Y037808
X032213Y036823
X033153Y036808
X031182Y036792
X028755Y036792
X031485Y033159
X029535Y033139
X027565Y033123
X030691Y028253
X028526Y028253
X035613Y027268
X035613Y028449
X035613Y02963
X035022Y030812
X038343Y032646
X039484Y032646
X039484Y033433
X038343Y033472
X035613Y034945
X034048Y036792
X034048Y037824
X035219Y042032
X035219Y046363
X036006Y048528
X036006Y050103
X036006Y051678
X036006Y053253
X036006Y054827
X033966Y08156
X033966Y083331
X033966Y085103
X056962Y109316
X057266Y103449
X052739Y102268
X056282Y101481
X053762Y095024
X051006Y095024
X053762Y093449
X051006Y093449
X063028Y032685
X063028Y033551
X062896Y036599
X065691Y036599
X059747Y038764
X059747Y040575
X065258Y099434
X060062Y099512
X061203Y101481
X062384Y103449
X064825Y108961
X062052Y109355
X059589Y109355
X067082Y109355
X069825Y109079
X067503Y103449
X066518Y101481
X070691Y099591
X068762Y040575
X068762Y038607
X0735Y033512
X07472Y033512
X0735Y032685
X07476Y032646
X077936Y038528
X077936Y040575
X087975Y057386
X086203Y057386
X087936Y060103
X086203Y060142
X084235Y091638
X086794Y091638
X086794Y094394
X084235Y094394
X095101Y090064
X090573Y088686
X095101Y088686
X09266Y087308
X095101Y087308
X094077Y069394
X090534Y069394
X094077Y068016
X089747Y060123
X089747Y057406
X091715Y052071
X09329Y052071
X09014Y05204
X09329Y049316
X091715Y049316
X09014Y049284
X098343Y032764
X098343Y033591
X098605Y038882
X101361Y038882
X098605Y040457
X101361Y040457
X098605Y042032
X101361Y042032
X103211Y063567
X104629Y064197
X105573Y064197
X103211Y066245
X104629Y066245
X105573Y066245
X113566Y11093
X113566Y109552
X109235Y066835
X107069Y066835
X107542Y066245
X106518Y066245
X116016Y0659
X108487Y064197
X106518Y064197
X107542Y064197
X109235Y060339
X107069Y060339
X110967Y0603
X112542Y0603
X118093Y042623
X120849Y042623
X118093Y047347
X120849Y047347
X116242Y066757
X117503Y083371
X116321Y083371
X119077Y083371
X116321Y085536
X119077Y086127
X117503Y086127
X118684Y094788
X12144Y094788
X118684Y100103
X12144Y100103
X118684Y101678
X12144Y101678
X128657Y108702
X127936Y074119
X130298Y074119
X129707Y072544
X129707Y071166
X130626Y069339
X13063Y068386
X130823Y060402
X130862Y059654
X128132Y056638
X128132Y052308
X12809Y051333
X12809Y048971
X129091Y039693
X124834Y033055
X129681Y032213
X131768Y059654
X131807Y060402
X132165Y067874
X131142Y067874
X131654Y068386
X131728Y069378
X131138Y069772
X13228Y069811
X131138Y078512
X131965Y078551
X131138Y079299
X132043Y079299
X109692Y119571G85X109692Y119217
X111818Y119571G85X111818Y119217
T13C.04016F139S55
X060972Y040591
X076771Y040591
T14C.04016F139S55
X023622Y087096
X028346Y087096
X023622Y088096
X028346Y088096
X023622Y089096
X028346Y089096
X023622Y090096
X028346Y090096
X033071Y090096
X033071Y089096
X033071Y088096
X033071Y087096
T15C.04291F139S55
X125953Y117795
X124862Y117795
X125409Y118913
X127591Y118913
X1265Y118913
X128681Y118913
X127043Y117795
X128134Y117795
X129224Y117795
T16C.047F139S55
X131374Y111846
T17C.04921F139S55
X022772Y089096
X027496Y089096
X03222Y089096
X115459Y036462
T18C.055F107S55
X013995Y033099
X015245Y033099
X017745Y033099
X018995Y033099
X020245Y033099
X013995Y038099
X015995Y045899
X018995Y045899
X020795Y045899
X013995Y045899
X020795Y047149
X018995Y050899
X017995Y052149
X016995Y052149
X014995Y052149
X018995Y052149
X013995Y052149
X015995Y052149
X020795Y053399
X014195Y065299
X020445Y066549
X014195Y066549
X020445Y067799
X020445Y071549
X019195Y072799
X015445Y072799
X016695Y072799
X014195Y072799
X017945Y072799
X020445Y072799
X023295Y053399
X022045Y053399
X025795Y053399
X024545Y053399
X025795Y050899
X025795Y047149
X025795Y045899
X022045Y045899
X026495Y038099
X026495Y036849
X026495Y035599
X026495Y034349
X026495Y033099
X025245Y033099
X023995Y033099
X021495Y033099
T19C.05512F107S55
X074352Y118242
X098328Y118242
T20C.057F107S55
X129071Y083669
X129071Y085323
X129071Y086976
X129071Y08863
X129071Y090283
X129071Y091937
X129071Y093591
X129071Y095244
X129071Y096898
X129071Y098551
X129071Y100205
X129071Y101858
X131236Y101858
X131236Y100205
X131236Y098551
X131236Y096898
X131236Y095244
X131236Y093591
X131236Y091937
X131236Y090283
X131236Y08863
X131236Y086976
X131236Y085323
X131236Y083669
T21C.05906F107S55
X040975Y108029
X040945Y111479
X106502Y029293
X111202Y029293
T22C.06299F089S55
X114142Y114015
X120461Y114015
T23C.063F089S55
X101318Y117554
X107418Y117554
T24C.06693F089S55
X039975Y107029
X039975Y109029
X039945Y110479
X039945Y112479
X041945Y112479
X041945Y110479
X041975Y109029
X041975Y107029
X105502Y028293
X107502Y028293
X107502Y030293
X105502Y030293
X110202Y030293
X112202Y030293
X110202Y028293
X112202Y028293
T25C.07F081S55
X131374Y114846
T26C.07087F081S55
X125117Y063723G85X125373Y063723
X038603Y066914G85X038347Y066914
T27C.07165F081S55
X073533Y118958
T28C.07165F081S55
X099269Y11895G85X099041Y11895
T29C.094F066S55
X10451Y085536
T30C.09646F066S55
X041172Y040465
X041172Y090457
X122548Y090172
X122548Y04018
T31C.11811F069S658
X072954Y114747
X072954Y121214
X099726Y121214
X099726Y114747
T32C.12008F035S794
X122126Y118354
X131965Y118354
T33C.125F035S794
X131055Y081819
T34C.12598F035S794
X079274Y071032
X059274Y078827
T35C.12795F035S794
X114882Y1187
X119724Y1187
T36C.128F035S794
X102118Y118754
X106618Y118754
T37C.15F035S9
X019685Y02861
X019685Y05711
X019685Y11811
X068685Y11811
X068685Y05711
X068685Y02861
X130685Y02861
X130685Y05711
X130685Y10911
M30
