*
*
G04 PADS Layout (Build Number 2007.21.1) generated Gerber (RS-274-X) file*
G04 PC Version=2.1*
*
%IN "roach101.pcb"*%
*
%MOIN*%
*
%FSLAX35Y35*%
*
*
*
*
G04 PC Standard Apertures*
*
*
G04 Thermal Relief Aperture macro.*
%AMTER*
1,1,$1,0,0*
1,0,$1-$2,0,0*
21,0,$3,$4,0,0,45*
21,0,$3,$4,0,0,135*
%
*
*
G04 Annular Aperture macro.*
%AMANN*
1,1,$1,0,0*
1,0,$2,0,0*
%
*
*
G04 Odd Aperture macro.*
%AMODD*
1,1,$1,0,0*
1,0,$1-0.005,0,0*
%
*
*
G04 PC Custom Aperture Macros*
*
*
*
*
*
*
G04 PC Aperture Table*
*
%ADD010C,0.01*%
%ADD014C,0.06*%
%ADD016C,0.04331*%
%ADD017C,0.05512*%
%ADD020C,0.07874*%
%ADD021C,0.06299*%
%ADD023C,0.07087*%
%ADD025C,0.085*%
%ADD027C,0.02165*%
%ADD028C,0.05906*%
%ADD029C,0.02*%
%ADD030C,0.01969*%
%ADD032C,0.03937*%
%ADD035R,0.02362X0.02362*%
%ADD068C,0.02559*%
%ADD080C,0.001*%
%ADD115C,0.0748*%
%ADD127C,0.09646*%
%ADD131C,0.09449*%
%ADD132ANN,0.09843X0.05906*%
%ADD133C,0.1378*%
%ADD149C,0.05413*%
%ADD154C,0.04921*%
%ADD160TER,0.06X0.015X0.01X0.06364*%
%ADD161TER,0.06299X0.01575X0.0105X0.06681*%
%ADD162TER,0.085X0.02125X0.01417X0.09015*%
%ADD163TER,0.288X0.072X0.048X0.30545*%
%ADD164TER,0.02165X0.00541X0.00361X0.02297*%
%ADD165TER,0.19685X0.04921X0.03281X0.20878*%
%ADD166TER,0.09449X0.02362X0.01575X0.10021*%
%ADD167TER,0.11811X0.02953X0.01969X0.12527*%
%ADD168TER,0.07087X0.01772X0.01181X0.07516*%
%ADD169TER,0.09843X0.02461X0.0164X0.10439*%
%ADD170TER,0.07874X0.01969X0.01312X0.08351*%
%ADD171TER,0.07X0.0175X0.01167X0.07424*%
%ADD172TER,0.05512X0.01378X0.00919X0.05846*%
%ADD173TER,0.04331X0.01083X0.00722X0.04593*%
%ADD174TER,0.09X0.0225X0.015X0.09545*%
%ADD175TER,0.05906X0.01476X0.00984X0.06263*%
%ADD176TER,0.02X0.005X0.00333X0.02121*%
%ADD177TER,0.01969X0.00492X0.00328X0.02088*%
*
*
*
*
G04 PC Circuitry*
G04 Layer Name roach101.pcb - circuitry*
%LPD*%
*
*
G04 PC Custom Flashes*
G04 Layer Name roach101.pcb - flashes*
%LPD*%
*
*
G04 PC Circuitry*
G04 Layer Name roach101.pcb - circuitry*
%LPD*%
*
G54D10*
G01X1155089Y821373D02*
X1154862Y821998D01*
X1154180Y822311*
X1153726*
X1153044Y821998*
X1152589Y821061*
X1152362Y819498*
Y817936*
X1152589Y816686*
X1153044Y816061*
X1153726Y815748*
X1153953*
X1154635Y816061*
X1155089Y816686*
X1155317Y817623*
Y817936*
X1155089Y818873*
X1154635Y819498*
X1153953Y819811*
X1153726*
X1153044Y819498*
X1152589Y818873*
X1152362Y817936*
G54D14*
X1034464Y987731D03*
X1029464Y997731D03*
X1024464Y987731D03*
X1019464Y997731D03*
X1014464Y987731D03*
X1009464Y997731D03*
X1004464Y987731D03*
X999464Y997731D03*
X994464Y987731D03*
X1038064Y1038731D03*
X1028064D03*
X995864D03*
X985864D03*
X1283203Y887475D03*
X1273203D03*
X1263203D03*
X1253203D03*
X1243203D03*
G54D16*
X731632Y112431D03*
X739624D03*
X751632D03*
X759624D03*
X771632D03*
X779624D03*
X791632D03*
X799624D03*
X811632D03*
X819624D03*
X831632D03*
X839624D03*
X851632D03*
X859624D03*
X871632D03*
X879624D03*
X891632D03*
X899624D03*
X911632D03*
X919624D03*
X741632Y126210D03*
X749624D03*
X761632D03*
X769624D03*
X781632D03*
X789624D03*
X801632D03*
X809624D03*
X821632D03*
X829624D03*
X841632D03*
X849624D03*
X861632D03*
X869624D03*
X881632D03*
X889624D03*
X901632D03*
X909624D03*
X921632D03*
X929624D03*
X731632Y136053D03*
X739624D03*
X741632Y149832D03*
X749624D03*
X751632Y136053D03*
X759624D03*
X771632D03*
X779624D03*
X791632D03*
X799624D03*
X811632D03*
X819624D03*
X831632D03*
X839624D03*
X851632D03*
X859624D03*
X871632D03*
X879624D03*
X891632D03*
X899624D03*
X911632D03*
X919624D03*
X761632Y149832D03*
X769624D03*
X781632D03*
X789624D03*
X801632D03*
X809624D03*
X821632D03*
X829624D03*
X841632D03*
X849624D03*
X861632D03*
X869624D03*
X881632D03*
X889624D03*
X901632D03*
X909624D03*
X921632D03*
X929624D03*
X963719Y125069D03*
X951514D03*
X963719Y132943D03*
Y140817D03*
Y148691D03*
X951514Y132943D03*
Y140817D03*
Y148691D03*
X715687Y125069D03*
X703483D03*
X715687Y132943D03*
Y140817D03*
Y148691D03*
X703483Y132943D03*
Y140817D03*
Y148691D03*
X379132Y112431D03*
X387124D03*
X399132D03*
X407124D03*
X419132D03*
X427124D03*
X439132D03*
X447124D03*
X459132D03*
X467124D03*
X479132D03*
X487124D03*
X499132D03*
X507124D03*
X519132D03*
X527124D03*
X539132D03*
X547124D03*
X559132D03*
X567124D03*
X389132Y126210D03*
X397124D03*
X409132D03*
X417124D03*
X429132D03*
X437124D03*
X449132D03*
X457124D03*
X469132D03*
X477124D03*
X489132D03*
X497124D03*
X509132D03*
X517124D03*
X529132D03*
X537124D03*
X549132D03*
X557124D03*
X569132D03*
X577124D03*
X379132Y136053D03*
X387124D03*
X389132Y149832D03*
X397124D03*
X399132Y136053D03*
X407124D03*
X419132D03*
X427124D03*
X439132D03*
X447124D03*
X459132D03*
X467124D03*
X479132D03*
X487124D03*
X499132D03*
X507124D03*
X519132D03*
X527124D03*
X539132D03*
X547124D03*
X559132D03*
X567124D03*
X409132Y149832D03*
X417124D03*
X429132D03*
X437124D03*
X449132D03*
X457124D03*
X469132D03*
X477124D03*
X489132D03*
X497124D03*
X509132D03*
X517124D03*
X529132D03*
X537124D03*
X549132D03*
X557124D03*
X569132D03*
X577124D03*
X611219Y125069D03*
X599014D03*
X611219Y132943D03*
Y140817D03*
Y148691D03*
X599014Y132943D03*
Y140817D03*
Y148691D03*
X363187Y125069D03*
X350983D03*
X363187Y132943D03*
Y140817D03*
Y148691D03*
X350983Y132943D03*
Y140817D03*
Y148691D03*
G54D17*
X1216972Y734388D03*
Y726514D03*
X1209472Y722420D03*
Y714546D03*
X1216972Y710766D03*
Y702892D03*
X1209472Y698798D03*
Y690924D03*
X1216972Y687144D03*
Y679270D03*
X1209472Y675176D03*
Y667302D03*
X1216972Y663522D03*
Y655648D03*
X1209472Y651554D03*
Y643680D03*
X1216972Y639900D03*
Y632026D03*
X1209472Y627931D03*
Y620057D03*
X1216972Y616278D03*
Y608404D03*
X1209472Y604309D03*
Y596435D03*
X1216972Y592656D03*
Y584782D03*
X1209472Y580687D03*
Y572813D03*
X1216972Y569034D03*
Y561160D03*
X1209472Y557065D03*
Y549191D03*
X1216972Y545412D03*
Y537538D03*
X1209472Y533443D03*
X1216972Y529664D03*
X1209472Y525569D03*
X1216972Y521790D03*
X1209472Y517695D03*
X1216972Y513916D03*
X1209472Y509821D03*
X1216972Y506042D03*
X1209472Y501947D03*
X1216972Y498168D03*
X1209472Y494073D03*
X1216972Y490294D03*
X1209472Y486199D03*
X1216972Y458640D03*
X1209472Y454703D03*
X1216972Y450766D03*
X1209472Y446829D03*
X1216972Y442892D03*
X1209472Y438955D03*
X1216972Y435018D03*
X1209472Y431081D03*
X1216972Y427144D03*
X1209472Y423207D03*
X1216972Y419270D03*
X1209472Y415333D03*
Y407459D03*
X1216972Y403522D03*
Y395648D03*
X1209472Y391711D03*
Y383837D03*
X1216972Y379900D03*
Y372026D03*
X1209472Y368089D03*
Y360215D03*
X1216972Y356278D03*
Y348404D03*
X1209472Y344467D03*
Y336593D03*
X1216972Y332656D03*
X1209472Y320845D03*
Y312971D03*
X1216972Y309034D03*
Y301160D03*
X1209472Y297223D03*
Y289349D03*
X1216972Y285412D03*
Y277538D03*
X1209472Y273601D03*
Y265727D03*
X1216972Y261790D03*
Y253916D03*
X1209472Y249979D03*
X1224492Y730294D03*
X1231992Y726357D03*
Y718483D03*
X1224492Y714546D03*
Y706672D03*
X1231992Y702735D03*
Y694861D03*
X1224492Y690924D03*
Y683050D03*
X1231992Y679113D03*
Y671239D03*
X1224492Y667302D03*
Y659428D03*
X1231992Y655491D03*
Y647617D03*
X1224492Y643680D03*
Y635806D03*
X1231992Y631869D03*
Y623994D03*
X1224492Y620057D03*
Y612183D03*
X1231992Y608246D03*
Y600372D03*
X1224492Y596435D03*
Y588561D03*
X1231992Y584624D03*
Y576750D03*
X1224492Y572813D03*
Y564939D03*
X1231992Y561002D03*
Y553128D03*
X1224492Y549191D03*
Y541317D03*
X1231992Y537380D03*
X1224492Y533443D03*
X1231992Y529506D03*
X1224492Y525569D03*
X1231992Y521632D03*
X1224492Y517695D03*
X1231992Y513758D03*
X1224492Y509821D03*
X1231992Y505884D03*
X1224492Y501947D03*
X1231992Y498010D03*
X1224492Y494073D03*
X1231992Y490136D03*
X1224492Y486199D03*
X1231992Y466514D03*
X1224492Y462577D03*
X1231992Y458640D03*
X1224492Y454703D03*
X1231992Y450766D03*
X1224492Y446829D03*
X1231992Y442892D03*
X1224492Y438955D03*
X1231992Y435018D03*
X1224492Y431081D03*
X1231992Y427144D03*
X1224492Y423207D03*
X1231992Y419270D03*
Y411396D03*
X1224492Y407459D03*
Y399585D03*
X1231992Y395648D03*
Y387774D03*
X1224492Y383837D03*
Y375963D03*
X1231992Y372026D03*
Y364152D03*
X1224492Y360215D03*
Y352341D03*
X1231992Y348404D03*
Y340530D03*
X1224492Y336593D03*
Y328719D03*
X1231992Y324782D03*
Y316908D03*
X1224492Y312971D03*
Y305097D03*
X1231992Y301160D03*
Y293286D03*
X1224492Y289349D03*
Y281475D03*
X1231992Y277538D03*
Y269664D03*
X1224492Y265727D03*
Y257853D03*
X1220732Y476357D03*
X356792Y250232D03*
Y258106D03*
X364292Y262201D03*
Y270075D03*
X356792Y273854D03*
Y281728D03*
X364292Y285823D03*
Y293697D03*
X356792Y297476D03*
Y305350D03*
X364292Y309445D03*
Y317319D03*
X356792Y321098D03*
Y328972D03*
X364292Y333067D03*
Y340941D03*
X356792Y344720D03*
Y352594D03*
X364292Y356689D03*
Y364563D03*
X356792Y368343D03*
Y376217D03*
X364292Y380311D03*
Y388185D03*
X356792Y391965D03*
Y399839D03*
X364292Y403933D03*
Y411807D03*
X356792Y415587D03*
Y423461D03*
X364292Y427555D03*
Y435429D03*
X356792Y439209D03*
Y447083D03*
X364292Y451177D03*
X356792Y454957D03*
X364292Y459051D03*
X356792Y462831D03*
X364292Y466925D03*
X356792Y470705D03*
X364292Y474799D03*
X356792Y478579D03*
X364292Y482673D03*
X356792Y486453D03*
X364292Y490547D03*
X356792Y494327D03*
X364292Y498421D03*
X356792Y525980D03*
X364292Y529917D03*
X356792Y533854D03*
X364292Y537791D03*
X356792Y541728D03*
X364292Y545665D03*
X356792Y549602D03*
X364292Y553539D03*
X356792Y557476D03*
X364292Y561413D03*
X356792Y565350D03*
X364292Y569287D03*
Y577161D03*
X356792Y581098D03*
Y588972D03*
X364292Y592909D03*
Y600783D03*
X356792Y604720D03*
Y612594D03*
X364292Y616531D03*
Y624406D03*
X356792Y628343D03*
Y636217D03*
X364292Y640154D03*
Y648028D03*
X356792Y651965D03*
X364292Y663776D03*
Y671650D03*
X356792Y675587D03*
Y683461D03*
X364292Y687398D03*
Y695272D03*
X356792Y699209D03*
Y707083D03*
X364292Y711020D03*
Y718894D03*
X356792Y722831D03*
Y730705D03*
X364292Y734642D03*
X349272Y254327D03*
X341772Y258264D03*
Y266138D03*
X349272Y270075D03*
Y277949D03*
X341772Y281886D03*
Y289760D03*
X349272Y293697D03*
Y301571D03*
X341772Y305508D03*
Y313382D03*
X349272Y317319D03*
Y325193D03*
X341772Y329130D03*
Y337004D03*
X349272Y340941D03*
Y348815D03*
X341772Y352752D03*
Y360626D03*
X349272Y364563D03*
Y372437D03*
X341772Y376374D03*
Y384248D03*
X349272Y388185D03*
Y396059D03*
X341772Y399996D03*
Y407870D03*
X349272Y411807D03*
Y419681D03*
X341772Y423618D03*
Y431492D03*
X349272Y435429D03*
Y443303D03*
X341772Y447240D03*
X349272Y451177D03*
X341772Y455114D03*
X349272Y459051D03*
X341772Y462988D03*
X349272Y466925D03*
X341772Y470862D03*
X349272Y474799D03*
X341772Y478736D03*
X349272Y482673D03*
X341772Y486610D03*
X349272Y490547D03*
X341772Y494484D03*
X349272Y498421D03*
X341772Y518106D03*
X349272Y522043D03*
X341772Y525980D03*
X349272Y529917D03*
X341772Y533854D03*
X349272Y537791D03*
X341772Y541728D03*
X349272Y545665D03*
X341772Y549602D03*
X349272Y553539D03*
X341772Y557476D03*
X349272Y561413D03*
X341772Y565350D03*
Y573224D03*
X349272Y577161D03*
Y585035D03*
X341772Y588972D03*
Y596846D03*
X349272Y600783D03*
Y608657D03*
X341772Y612594D03*
Y620469D03*
X349272Y624406D03*
Y632280D03*
X341772Y636217D03*
Y644091D03*
X349272Y648028D03*
Y655902D03*
X341772Y659839D03*
Y667713D03*
X349272Y671650D03*
Y679524D03*
X341772Y683461D03*
Y691335D03*
X349272Y695272D03*
Y703146D03*
X341772Y707083D03*
Y714957D03*
X349272Y718894D03*
Y726768D03*
X353032Y508264D03*
G54D20*
X236388Y720089D03*
Y730089D03*
Y740089D03*
X268888Y720089D03*
Y730089D03*
Y740089D03*
X302388Y720089D03*
Y730089D03*
Y740089D03*
X1281628Y164798D03*
Y235664D03*
Y262042D03*
Y332908D03*
G54D21*
X1128793Y997192D03*
X1133793Y987192D03*
X1138793Y997192D03*
X1143793Y987192D03*
X1148793Y997192D03*
X1153793Y987192D03*
X1158793Y997192D03*
X1260526Y1017081D03*
X1249620D03*
X1238715D03*
X1227809D03*
X1255093Y1028262D03*
X1244187D03*
X1233282D03*
X1222376D03*
G54D23*
X1089896Y1010073D03*
X1080054D03*
X1072180D03*
G54D25*
X172735Y504620D03*
Y567120D03*
X160235D03*
X135235D03*
X122735D03*
X110235D03*
Y504620D03*
X188735Y298120D03*
X226235Y348120D03*
Y373120D03*
X201235D03*
X188735D03*
X176235D03*
Y310620D03*
X128235Y298120D03*
X158235Y348120D03*
Y360620D03*
X138235D03*
X128235D03*
X118235D03*
X108235D03*
Y220120D03*
Y170120D03*
X158235D03*
X170735D03*
X220735D03*
X233235D03*
Y195120D03*
Y207620D03*
Y220120D03*
G54D27*
X555118Y684646D03*
X559055D03*
X568898Y691732D03*
X564961D03*
X578740Y684646D03*
X582677D03*
X609843Y691732D03*
X605906D03*
X619685Y684646D03*
X623622D03*
X633465Y691732D03*
X629528D03*
X643307Y684646D03*
X647244D03*
X657087Y691732D03*
X653150D03*
X666929Y684646D03*
X670866D03*
X680709Y691732D03*
X676772D03*
X690551Y684646D03*
X694488D03*
X704331Y691732D03*
X700394D03*
X714173Y684646D03*
X718110D03*
X738189Y692126D03*
X734252D03*
X751575Y685039D03*
X755512D03*
X766929Y692520D03*
X762992D03*
X774542Y993144D03*
X778479D03*
X783858Y983465D03*
X779921D03*
X791339Y992913D03*
X795276D03*
X800526Y983302D03*
X796589D03*
X833597Y993144D03*
X837534D03*
X842913Y983465D03*
X838976D03*
X850394Y992913D03*
X854331D03*
X859581Y983302D03*
X855644D03*
X721654Y993307D03*
X725591D03*
X730709Y983465D03*
X726772D03*
X738189Y993307D03*
X742126D03*
X747770Y983695D03*
X743833D03*
X887140Y993144D03*
X891077D03*
X896063Y983465D03*
X892126D03*
X903543Y992913D03*
X907480D03*
X912731Y983302D03*
X908794D03*
G54D28*
X324409Y111811D03*
Y123622D03*
Y135433D03*
X318504Y147244D03*
X351707Y173853D03*
Y165585D03*
X363124D03*
Y173459D03*
X598557Y165979D03*
Y174640D03*
X703282Y174246D03*
Y165979D03*
X715487Y174246D03*
X715880Y165585D03*
X951707Y166766D03*
X1216625Y169677D03*
X951707Y175034D03*
X255833Y207052D03*
X280097D03*
X299811Y207204D03*
X290409Y207355D03*
X308758Y207052D03*
X597244Y205118D03*
X264335Y228420D03*
X256835Y228620D03*
X255985Y217364D03*
X271935Y228620D03*
X279535Y228520D03*
X280097Y217213D03*
X300115Y217516D03*
X290409Y217213D03*
X308758Y217365D03*
X954331Y227953D03*
Y243701D03*
Y259449D03*
X1149213Y265354D03*
X160122Y282110D03*
X224098Y282325D03*
X256635Y304320D03*
X264235Y304120D03*
X272035Y304020D03*
X279535Y304120D03*
X296850Y302756D03*
X320472D03*
X1149213Y312598D03*
X300787Y324409D03*
X1249182Y328839D03*
X300787Y340157D03*
Y371654D03*
Y355906D03*
X885433Y359843D03*
X869685Y359528D03*
X901181Y359843D03*
X918898Y355906D03*
X106735Y386120D03*
Y393620D03*
Y379120D03*
X300787Y387402D03*
X106735Y400620D03*
X1249606Y405512D03*
X224250Y423506D03*
Y416420D03*
X232124D03*
Y423506D03*
X298030Y446130D03*
X830315Y440551D03*
X865748Y440354D03*
X847638Y440157D03*
X1285959Y435664D03*
X1276904D03*
X1276510Y443144D03*
X1286353D03*
X189673Y474211D03*
X1024016Y481102D03*
X1014567D03*
X1043701D03*
X1033465D03*
X1053150D03*
X1000394Y501575D03*
X1024016D03*
X1014567D03*
X1033465D03*
X1043701D03*
X1038976Y507480D03*
X1060630D03*
X1128440Y498127D03*
X873622Y533071D03*
X1286353Y522278D03*
X1275723Y522672D03*
X1275329Y515585D03*
X1274542Y532514D03*
X1285565Y532908D03*
X1286746Y515191D03*
X1279660Y536845D03*
X1291077Y537239D03*
X224148Y586451D03*
X216274D03*
X1247638Y580315D03*
X216274Y606136D03*
Y596294D03*
X224148D03*
Y606136D03*
Y615979D03*
X216274D03*
X1279660Y624246D03*
Y632120D03*
X1288715D03*
X1287928Y624640D03*
X280386Y672441D03*
Y654724D03*
X1131496Y672835D03*
X1143307D03*
X1159055D03*
X280386Y690157D03*
X1131496Y694488D03*
X894882Y712205D03*
X874016Y725984D03*
X422835Y785039D03*
X810630Y783071D03*
X836220D03*
X1155118Y787008D03*
X422835Y800787D03*
X568898Y834252D03*
X620866Y833465D03*
X675197Y835039D03*
X1155118Y840157D03*
Y855906D03*
X564173Y932677D03*
X616535Y928740D03*
X666535Y929921D03*
X1254856Y926144D03*
G54D29*
X403282Y156136D03*
X422967Y156924D03*
X425541Y163011D03*
X441865Y156924D03*
X470785Y156136D03*
X503282D03*
X522967D03*
X523023Y166316D03*
X543439Y156136D03*
X563912D03*
X734778D03*
X755250D03*
Y165585D03*
X856038Y156136D03*
Y165585D03*
X1023299Y169055D03*
X1043299D03*
X1070299D03*
X1090299D03*
X1023028Y191127D03*
X1025599Y192955D03*
X1058199Y180855D03*
X1048299Y179055D03*
X1068928Y191027D03*
X1072668Y193024D03*
X1095299Y179555D03*
X1023328Y203727D03*
X1049871Y202127D03*
X1068928D03*
X1097071Y202427D03*
X1056374Y248722D03*
X1073465Y242079D03*
X259683Y255002D03*
X1040551Y260236D03*
Y264567D03*
X940945Y322047D03*
X931102D03*
X951181D03*
X977165D03*
X966535D03*
X987008D03*
X996850D03*
X1115880Y338813D03*
X119804Y374169D03*
X936739Y365658D03*
X956497Y366658D03*
X947085Y370464D03*
X962085D03*
X974239Y366658D03*
X977085Y370464D03*
X1004414Y367435D03*
X992085Y370464D03*
X1104857Y356924D03*
X1112731D03*
X937350Y386656D03*
X998277D03*
X1196313Y390928D03*
X937350Y401656D03*
X934162Y400733D03*
X1004414Y402735D03*
X998277Y401656D03*
X1046336Y400012D03*
X1046325Y406140D03*
X1046311Y413046D03*
X1038813Y396428D03*
Y409428D03*
Y403428D03*
X1196313Y400928D03*
Y410928D03*
X937350Y416656D03*
X946139Y428910D03*
X1004414Y430335D03*
X998277Y416656D03*
X994085Y428964D03*
X1196313Y420928D03*
Y430928D03*
X934162Y436133D03*
X952539Y436910D03*
X1001139D03*
X989995Y437678D03*
X1083071Y435433D03*
X1196313Y440928D03*
Y450928D03*
X805710Y468448D03*
X852953Y468449D03*
X858860Y468448D03*
X862795Y468449D03*
X868702Y468448D03*
X1196313Y460928D03*
Y468928D03*
X798481Y488781D03*
X798480Y482874D03*
X1066535Y480709D03*
X1196313Y476928D03*
Y484928D03*
Y492928D03*
Y500928D03*
Y508928D03*
X566535Y529134D03*
X984962Y519104D03*
X1002644Y519090D03*
X1107437Y522357D03*
Y528262D03*
X1121819Y515067D03*
X1131734Y515144D03*
X1136671Y524325D03*
Y520388D03*
X1136631Y534168D03*
X1196313Y524928D03*
Y532928D03*
Y516928D03*
X465354Y544882D03*
X799803Y535378D03*
X805710Y535377D03*
X858860D03*
X880358Y537801D03*
X886265Y537799D03*
X931102Y535039D03*
X1108848Y538105D03*
X1121835Y542890D03*
X1131677D03*
X1196313Y548928D03*
Y540928D03*
X566535Y560630D03*
X822967Y568341D03*
X1196313Y556928D03*
X925984Y587795D03*
X928346Y583071D03*
X109159Y606763D03*
X112935Y623120D03*
X114736Y627048D03*
X114713Y632126D03*
X114736Y634665D03*
X109095Y614920D03*
X123235Y618520D03*
X142135Y634620D03*
X142035Y632120D03*
X151435Y623420D03*
X948425Y627165D03*
Y630315D03*
X1262598Y632677D03*
X114717Y637239D03*
X123035Y645720D03*
X132535Y648720D03*
X142235Y637220D03*
X133335Y645620D03*
X505512Y651181D03*
X862795Y647583D03*
X858860Y647582D03*
X852953Y647583D03*
X868702Y647582D03*
X145408Y670309D03*
Y662829D03*
X145435Y666720D03*
X191077Y656136D03*
Y663223D03*
X190735Y659820D03*
X964173Y666929D03*
X960236Y670866D03*
X956299Y671055D03*
X952362Y670866D03*
X972047Y665102D03*
X975984Y671866D03*
X968110Y668898D03*
X128479Y689601D03*
Y682120D03*
X128535Y685820D03*
X172967Y675034D03*
X173361Y678971D03*
X174178Y682865D03*
Y688950D03*
X173935Y692820D03*
X505118Y690551D03*
X128479Y703774D03*
Y695900D03*
X128535Y699920D03*
X128635Y713920D03*
Y709906D03*
X174178Y702950D03*
Y710865D03*
X174235Y707020D03*
X174298Y696578D03*
X505906Y706299D03*
X660236Y696850D03*
X687019Y696802D03*
X789315Y711220D03*
X789314Y705314D03*
X858860Y714511D03*
X981899Y714055D03*
X128635Y717820D03*
Y728020D03*
X128535Y724420D03*
X128635Y731920D03*
X141935Y727720D03*
X134635Y723020D03*
X160236Y724409D03*
X159843Y730315D03*
X170079Y729528D03*
Y724409D03*
X800449Y716732D03*
X800450Y722639D03*
X803740Y724355D03*
X809647Y724353D03*
X881059Y728837D03*
X881058Y722930D03*
X940899Y724055D03*
X950999Y729055D03*
X971199Y719055D03*
X1004486Y716988D03*
X994299Y724455D03*
X988499Y730555D03*
X1032286Y721988D03*
Y729488D03*
X113620Y748703D03*
X159843Y736220D03*
X160236Y740945D03*
X170472Y735827D03*
X170079Y741339D03*
X505512Y745669D03*
X1004486Y754488D03*
Y749488D03*
X989764Y739764D03*
X994299Y739455D03*
X988499Y747855D03*
X1032286Y749488D03*
Y744488D03*
X314399Y767434D03*
X982199Y754955D03*
X970399Y759055D03*
X1004486Y761988D03*
X1032286D03*
Y756988D03*
X147244Y780787D03*
X225984Y782871D03*
X214173Y779333D03*
X237795Y779325D03*
X249606Y782871D03*
X261417Y779316D03*
X273228Y782871D03*
X292913Y779333D03*
X314753Y788976D03*
X182372Y796850D03*
X182895Y808661D03*
X318309Y800787D03*
X314753Y812598D03*
X164961Y834252D03*
Y830315D03*
X182854Y820472D03*
X183063Y832283D03*
X314764D03*
X314727Y822441D03*
X164961Y838189D03*
X318309Y844094D03*
X992182Y842349D03*
X1039709Y836992D03*
X182859Y859843D03*
Y871654D03*
X314779Y855906D03*
X320743Y872676D03*
X372613Y858428D03*
X434294Y860613D03*
X452665Y874028D03*
X930867Y865182D03*
Y871182D03*
X971233Y873847D03*
X991838Y872253D03*
X997868Y872449D03*
X1001287Y862922D03*
X991838Y868316D03*
X1010263Y867534D03*
X1013098Y862922D03*
X1018531Y867534D03*
X1022941Y862922D03*
X1033885Y867534D03*
X1042626Y864890D03*
X1032783Y862922D03*
X1047862Y874221D03*
X1224016Y866142D03*
X340157Y885433D03*
X350713Y878928D03*
X384913Y883928D03*
X401250Y880972D03*
X442256Y884036D03*
X485940Y883976D03*
X930867Y878182D03*
Y885182D03*
X955967Y892182D03*
X997868Y882292D03*
X991838Y891938D03*
Y884064D03*
X1022074Y875408D03*
X1042737Y882292D03*
Y875993D03*
X1047862Y882095D03*
Y889969D03*
X1084499Y882955D03*
X1078103Y893459D03*
X1178085Y886845D03*
X1224270Y886203D03*
X1209750Y894365D03*
X424179Y908307D03*
X434295Y895547D03*
X955967Y904082D03*
X991838Y903749D03*
X997868Y895678D03*
Y905520D03*
X991838Y899812D03*
Y911623D03*
X1042737Y905520D03*
Y895678D03*
X1045893Y901780D03*
X1065309Y895881D03*
X1178085Y906136D03*
X1224001Y906120D03*
X476046Y929921D03*
X500275Y919918D03*
X955967Y916182D03*
Y929182D03*
X997868Y921662D03*
X991838Y919497D03*
X1005418Y921875D03*
X997868Y915363D03*
X991838Y933276D03*
X1010181Y933430D03*
X1037733Y928447D03*
X1042737Y921662D03*
X1034881Y933730D03*
X1034917Y921875D03*
X1042737Y915363D03*
X1059673Y931308D03*
X1047862Y919497D03*
Y927371D03*
Y915560D03*
X1076499Y931455D03*
X1220501Y918913D03*
X1224736Y927947D03*
X1223819Y920959D03*
X1211183Y927947D03*
X1216987Y924580D03*
X1222477Y916584D03*
X1235324Y927876D03*
X1236172Y922935D03*
X1226925Y924701D03*
X1237653Y931900D03*
X1243603Y924624D03*
X1230565Y924580D03*
X296335Y942020D03*
X444835Y939920D03*
X495675Y942818D03*
X534435Y953620D03*
X586235Y952620D03*
X656263Y944349D03*
X677263D03*
X667263D03*
X687263D03*
X955967Y942182D03*
X1005224Y942725D03*
X997867Y935047D03*
X1017035Y942725D03*
X1028846Y938788D03*
X1040657D03*
X1044594D03*
X1042737Y935048D03*
X1059673Y935245D03*
X1047862Y937213D03*
X1076533Y942347D03*
X1201969Y942913D03*
X1205906D03*
X1199213Y943307D03*
X1217323Y942520D03*
X492175Y974418D03*
X501175D03*
X519175D03*
X510175D03*
X534435Y964620D03*
X557235Y955120D03*
X575235Y967120D03*
X586235Y957620D03*
X582735Y962620D03*
X641135Y962520D03*
X1023435Y960720D03*
X1020635Y960820D03*
X1051133Y967847D03*
X1219685Y955118D03*
X1257087D03*
X161417Y991339D03*
X330535Y975020D03*
X535435Y989120D03*
Y978120D03*
X558235Y979620D03*
X576235Y991620D03*
X583735Y987120D03*
X587735Y976120D03*
Y981120D03*
X641435Y986020D03*
X161417Y996850D03*
X218321Y996758D03*
X535935Y1013620D03*
Y1002620D03*
X558735Y1004120D03*
X584235Y1011620D03*
X587735Y1001120D03*
Y1006120D03*
X640535Y1011020D03*
X681093Y1014180D03*
X675055Y1008573D03*
X678073Y1011304D03*
X1004667Y1006120D03*
X1004467Y1002420D03*
X999467Y1012820D03*
X1009567Y1012920D03*
X1014567Y1006320D03*
X1014367Y1002720D03*
X1024367D03*
X1019467Y1013220D03*
X1024767Y1006020D03*
X1034267Y1006120D03*
X1034367Y1002620D03*
X1029567Y1013020D03*
X535735Y1027120D03*
X558735Y1028620D03*
X576735Y1016120D03*
X588035Y1025920D03*
Y1030920D03*
X674435Y1029920D03*
X683536Y1016767D03*
X678935Y1031020D03*
X731274Y1019286D03*
X743085D03*
X754896Y1019365D03*
X760841Y1019286D03*
X784424Y1019325D03*
X766707Y1019207D03*
X796235Y1019325D03*
X808046D03*
X819857D03*
X813951D03*
X843479Y1019286D03*
X855290Y1019325D03*
X867061D03*
X873006D03*
X878872D03*
X896628Y1019286D03*
X920250D03*
X908439Y1019325D03*
X926156Y1019286D03*
X932061Y1019325D03*
X164173Y1037402D03*
Y1042126D03*
X231735Y1054620D03*
X535735Y1038120D03*
X576735Y1038220D03*
X584235Y1036120D03*
X640935Y1035920D03*
X600735Y1055820D03*
X613535D03*
X606935Y1055720D03*
X619835D03*
X644935D03*
X632135D03*
G54D30*
X214173Y105118D03*
X218504D03*
X236220Y112205D03*
X292520Y109055D03*
X294882D03*
X297244D03*
X643307Y153150D03*
X941804Y153207D03*
X997638Y137402D03*
X372835Y165748D03*
X403282Y166372D03*
X441865Y166766D03*
X463124Y165979D03*
X482971D03*
X503282D03*
X543439D03*
X564190Y165701D03*
X583875D03*
X622441Y173622D03*
X734778Y165979D03*
X774935Y155743D03*
Y165979D03*
X795408D03*
Y155743D03*
X815880Y165979D03*
X835565Y154955D03*
Y165191D03*
X875723Y155743D03*
Y165979D03*
X894739D03*
Y155743D03*
X913518Y162435D03*
X1023228Y155118D03*
X372835Y179528D03*
X706693Y184252D03*
X962445Y176618D03*
X1243833Y188026D03*
X218898Y213780D03*
X213039Y213718D03*
X345662Y199606D03*
X706299Y196457D03*
X1033299Y202055D03*
X1037299D03*
X245669Y231496D03*
X591375Y229624D03*
X588711Y229612D03*
X597281Y229624D03*
X594617Y229612D03*
X603186Y229624D03*
X600522Y229612D03*
X612334D03*
X614997Y229624D03*
X620903D03*
X618239Y229612D03*
X606428D03*
X609092Y229624D03*
X624145Y229612D03*
X632714Y229624D03*
X630050Y229612D03*
X635956D03*
X638619Y229624D03*
X644525D03*
X641861Y229612D03*
X626808Y229624D03*
X685168Y229612D03*
X681926Y229624D03*
X679263Y229612D03*
X670115Y229624D03*
X667452Y229612D03*
X676021Y229624D03*
X673357Y229612D03*
X687832Y229624D03*
X705549D03*
X702885Y229612D03*
X696979D03*
X699643Y229624D03*
X693737D03*
X691074Y229612D03*
X723228Y229528D03*
X720472D03*
X711454Y229624D03*
X708790Y229612D03*
X714696D03*
X717360Y229624D03*
X1026031Y222130D03*
X1027701Y223800D03*
X1175723Y215191D03*
X1209636Y234646D03*
X1216922D03*
X235039Y235827D03*
X236614Y252756D03*
X588583Y254331D03*
X591339D03*
X600394D03*
X603150D03*
X606299D03*
X597244D03*
X594488D03*
X618110D03*
X620866D03*
X624016D03*
X609055D03*
X641732D03*
X644488D03*
X629921D03*
X632677D03*
X626772D03*
X667323D03*
X670079D03*
X685039D03*
X675984D03*
X673228D03*
X693701D03*
X690945D03*
X687795D03*
X702756D03*
X705512D03*
X723228Y253150D03*
X720472D03*
X708661Y254331D03*
X711417D03*
X233071Y271260D03*
X244882Y266142D03*
X679134Y259449D03*
X681890D03*
X696850D03*
X699606D03*
X714567D03*
X717323D03*
X1049132Y263731D03*
X1193307Y270079D03*
X1198680Y258093D03*
X1252888Y267554D03*
X206299Y310236D03*
X875132Y305231D03*
X275197Y320472D03*
X860630Y317716D03*
X875984Y319685D03*
X887795Y317716D03*
X1037008Y318110D03*
X1046063D03*
X1026378D03*
X1259187Y333695D03*
X1089896Y338026D03*
X1100000Y338583D03*
X1261943Y337239D03*
X1266668Y336451D03*
X1269030Y339994D03*
X1272967Y345900D03*
X847537Y368508D03*
X847467Y371868D03*
X922441Y369291D03*
X909055Y374409D03*
X999606Y364173D03*
X1001575Y355118D03*
X997638D03*
X1122047Y362991D03*
X1127953Y362598D03*
X1285172Y369522D03*
X1267849Y357711D03*
X131102Y375197D03*
X198819Y387795D03*
X276594Y388500D03*
X279899Y384721D03*
X378000Y382228D03*
X906299Y375984D03*
X922441Y379134D03*
Y383071D03*
Y388976D03*
X920472Y390945D03*
X922441Y392913D03*
X916929Y379528D03*
X931632Y381231D03*
Y377231D03*
X1060632Y385231D03*
X1080981Y381384D03*
X1071909Y394586D03*
X1088189Y393700D03*
X1269424Y380546D03*
X1274935D03*
X1288321Y384876D03*
X1287928Y375821D03*
X140945Y401969D03*
X199213Y400787D03*
X432677Y411024D03*
X897638Y409055D03*
X920866Y402756D03*
X920472Y394882D03*
X920866Y398819D03*
X922441Y396850D03*
Y410630D03*
Y406693D03*
X1015748Y410630D03*
X1060630Y395276D03*
X1074542Y401412D03*
X1081890Y404330D03*
X278416Y434021D03*
X387402Y415748D03*
X387008Y431102D03*
X432677Y434646D03*
X562598Y430709D03*
X609843D03*
X658280Y427127D03*
X672835Y423622D03*
X688583Y430709D03*
X720079D03*
X712632Y415231D03*
X751575Y430709D03*
X761632Y419731D03*
X783071Y430709D03*
X810630Y433071D03*
X816142D03*
X901181Y426378D03*
X903661Y430138D03*
X896299Y430453D03*
X920211Y434089D03*
Y428183D03*
X906693Y414961D03*
X931628Y430152D03*
X933854Y420485D03*
X933465Y424409D03*
X974198Y434131D03*
X1015748Y424409D03*
X1015744Y420485D03*
X1007084Y422453D03*
X1015880Y434089D03*
X1006693Y426378D03*
X320865Y435500D03*
X330707Y439437D03*
X387402Y447244D03*
X538976Y446457D03*
X586220D03*
X633858Y446063D03*
X657087Y446457D03*
X936746Y448262D03*
X940683D03*
X938715Y439207D03*
X944620Y448262D03*
X942652Y439207D03*
X964306D03*
X946589D03*
X954463Y448262D03*
X966274D03*
X960369Y439207D03*
X958400Y448262D03*
X956431Y439207D03*
X950526Y448262D03*
X976117Y450624D03*
X975329Y437632D03*
X982022Y448262D03*
X972180Y450624D03*
X980054D03*
X968243D03*
X970211Y448262D03*
X974148D03*
X967323Y437795D03*
X983991Y439207D03*
X978085Y448262D03*
X985959D03*
X991865D03*
X987928Y439207D03*
X997770Y448262D03*
X387008Y460236D03*
Y472441D03*
X432283Y458268D03*
X767323Y470079D03*
X802657Y468449D03*
X809632Y470731D03*
X856017Y468453D03*
X866003Y468449D03*
X981890Y466535D03*
X1019291Y472440D03*
X1045132Y455231D03*
X1278085Y462435D03*
X1287534Y462829D03*
X326770Y494555D03*
X387008Y485827D03*
X432677D03*
X481500Y482728D03*
X582283Y481890D03*
X590157Y485827D03*
X605906D03*
X598031Y481890D03*
X621654Y485827D03*
X613780Y481890D03*
X637402Y485827D03*
X629528Y481890D03*
X645276D03*
X661024D03*
X653150D03*
X684646Y485827D03*
X668898Y481890D03*
X676772D03*
X700394Y485827D03*
X692520Y481890D03*
X716142Y485827D03*
X724016Y481890D03*
X708268D03*
X731890Y485827D03*
X739764Y481890D03*
X767323Y485827D03*
X798476Y485813D03*
X808661Y477953D03*
X820472Y493701D03*
X812598Y485827D03*
X816535Y493701D03*
Y489764D03*
X824409Y481890D03*
X816535Y477953D03*
X820472D03*
X824409D03*
Y485827D03*
X820472Y481890D03*
X816535Y485827D03*
X812598Y493701D03*
X816535Y481890D03*
X836220Y493701D03*
X832283Y481890D03*
X844094D03*
X836220D03*
X840157D03*
X832283Y477953D03*
X836220D03*
X840157D03*
X828346Y485827D03*
X832283D03*
X848031Y477953D03*
X851969Y481890D03*
X848031Y485827D03*
Y489764D03*
Y481890D03*
Y493701D03*
X851969D03*
X893307Y480709D03*
X960236Y479921D03*
X972047D03*
X255904Y506366D03*
Y498492D03*
X326770Y504398D03*
X387402Y497638D03*
X387008Y509843D03*
X432677Y509449D03*
X556693Y505512D03*
Y513386D03*
X566535Y505512D03*
X570472Y513386D03*
X684646Y513780D03*
X672835Y507874D03*
X680709Y513386D03*
Y511024D03*
X676772Y509449D03*
X684646Y500000D03*
X749777Y509449D03*
X767323Y501575D03*
X800132Y500731D03*
X805142Y507480D03*
X812598Y505512D03*
X820472Y513386D03*
Y509449D03*
Y505512D03*
Y501575D03*
Y497638D03*
X816535Y505512D03*
X812598Y513386D03*
X816535Y501575D03*
Y497638D03*
Y513386D03*
Y509449D03*
X824409Y513386D03*
Y509449D03*
Y505512D03*
Y497638D03*
Y501575D03*
X844094Y505512D03*
X836220Y513386D03*
Y509449D03*
X840157Y505512D03*
X836220D03*
Y501575D03*
Y497638D03*
X844094D03*
Y501575D03*
X832283Y513386D03*
Y509449D03*
Y505512D03*
Y497638D03*
Y501575D03*
X848031Y505512D03*
X851969Y497638D03*
X848031Y509449D03*
Y513386D03*
Y501575D03*
X901181Y511417D03*
X903543Y509449D03*
X1053150Y496948D03*
X255133Y531518D03*
X249999Y520146D03*
X279526Y518177D03*
X283070D03*
X333355Y524488D03*
Y515631D03*
X387402Y533071D03*
X387008Y521654D03*
X556693Y529134D03*
Y521260D03*
X566535D03*
X598031Y529134D03*
X594094D03*
X605906Y533071D03*
X594094D03*
X601969D03*
X605906Y529134D03*
X621654D03*
X617717D03*
X609843Y533071D03*
X613780D03*
X625591D03*
X621654D03*
X613780Y529134D03*
X609843D03*
X625591Y525197D03*
X617717Y533071D03*
X633465D03*
X629528D03*
X633465Y529134D03*
X629528D03*
X645276Y525197D03*
X641339D03*
X637402Y529134D03*
X641339D03*
Y533071D03*
X645276D03*
X629528Y525197D03*
X633465D03*
X645276Y529134D03*
X664961Y525197D03*
X653150Y533071D03*
X649213D03*
X664961D03*
Y529134D03*
X649213Y525197D03*
Y529134D03*
X661024Y525197D03*
Y529134D03*
X653150D03*
X657087D03*
Y533071D03*
X672835Y525197D03*
Y516929D03*
X676772Y529134D03*
X684646Y517323D03*
Y525197D03*
X676772Y515354D03*
X680709Y529134D03*
X668898Y521260D03*
Y533071D03*
X672835D03*
X684646D03*
X672835Y521260D03*
X668898Y525197D03*
X676772D03*
X688583D03*
X700394D03*
X696457Y529134D03*
X692520Y533071D03*
X688583D03*
X704331Y529134D03*
X700394D03*
X704331Y533071D03*
X692520Y529134D03*
Y525197D03*
X696457Y533071D03*
X688583Y529134D03*
X700394Y533071D03*
X716142D03*
X724016D03*
Y525197D03*
X720079D03*
Y529134D03*
X716142D03*
X712205Y533071D03*
X708268D03*
X724016Y529134D03*
X743551Y533071D03*
X727953D03*
Y525197D03*
X749802Y517323D03*
Y525197D03*
X820472Y517323D03*
X816535Y525197D03*
X812598Y521260D03*
X820472Y533071D03*
X816535D03*
X824409D03*
X812598D03*
X824409Y525197D03*
X816535Y517323D03*
X808500Y532228D03*
X812598Y517323D03*
Y529134D03*
X816535Y521260D03*
X836220Y517323D03*
X844094D03*
X836220Y533071D03*
X840157D03*
X836220Y529134D03*
X832283Y525197D03*
Y529134D03*
X828346Y533071D03*
Y529134D03*
X844094Y525197D03*
Y533071D03*
X848031Y525197D03*
Y521260D03*
Y529134D03*
Y533071D03*
Y517323D03*
X913386Y525591D03*
X970079Y531102D03*
X969500Y525228D03*
X997638Y531102D03*
Y527165D03*
X1001575Y531102D03*
X989764Y527165D03*
Y531102D03*
X1009449D03*
X1025197Y527165D03*
Y531102D03*
X1009449Y527165D03*
X1013386D03*
X1021260Y531102D03*
X1044882D03*
X1029134Y527165D03*
X1033071Y531102D03*
Y527165D03*
X1037008D03*
X1040945Y531102D03*
Y527165D03*
X1037008Y531102D03*
X1052756D03*
X1056693D03*
X1060630Y527165D03*
X1064567D03*
Y531102D03*
X1048819D03*
X1072441D03*
X1068504D03*
X1076378D03*
X269684Y535894D03*
Y541799D03*
X387008Y544488D03*
X432677Y537008D03*
X556693Y552756D03*
Y537008D03*
Y544882D03*
X563500Y541228D03*
X566535Y544882D03*
X570472Y537008D03*
Y552756D03*
X594094D03*
X605906Y544882D03*
X601969D03*
X605906Y552756D03*
Y540945D03*
X594094D03*
X601969Y552756D03*
X598031Y544882D03*
X601969Y548819D03*
X605906Y537008D03*
X598031Y540945D03*
X601969Y537008D03*
X598031Y548819D03*
Y552756D03*
X601969Y540945D03*
X609843Y544882D03*
Y548819D03*
X625591Y544882D03*
Y537008D03*
Y540945D03*
X621654Y537008D03*
X617717Y540945D03*
X621654Y548819D03*
Y552756D03*
X613780Y548819D03*
X609843Y552756D03*
X625591D03*
X617717Y548819D03*
X613780Y552756D03*
Y540945D03*
X609843D03*
X617717Y544882D03*
X621654D03*
X613780Y537008D03*
X617717D03*
X613780Y544882D03*
X633465Y552756D03*
X637402Y540945D03*
X633465Y537008D03*
X629528Y552756D03*
Y548819D03*
Y544882D03*
X641339Y548819D03*
X637402D03*
X641339Y537008D03*
X637402D03*
Y544882D03*
X633465Y548819D03*
Y540945D03*
X629528D03*
X641339Y544882D03*
X645276D03*
Y552756D03*
Y537008D03*
Y540945D03*
X641339Y552756D03*
X629528Y537008D03*
X641339Y540945D03*
X657087D03*
X653150D03*
X657087Y537008D03*
X653150D03*
X657087Y548819D03*
Y544882D03*
X649213Y548819D03*
X653150D03*
X664961Y537008D03*
Y548819D03*
Y544882D03*
X649213Y552756D03*
X653150D03*
X664961D03*
X661024D03*
X649213Y544882D03*
Y540945D03*
X653150Y544882D03*
X684646Y552756D03*
X668898Y540945D03*
Y544882D03*
X672835Y540945D03*
Y544882D03*
X680709Y537008D03*
Y540945D03*
X676772D03*
X684646Y537008D03*
X668898D03*
X680709Y548819D03*
X676772D03*
Y552756D03*
X672835Y548819D03*
X680709Y544882D03*
X684646D03*
X668898Y552756D03*
X672835D03*
Y537008D03*
X684646Y540945D03*
X668898Y548819D03*
X704331Y537008D03*
Y544882D03*
X700394D03*
X704331Y548819D03*
X700394D03*
X692520Y540945D03*
X688583D03*
X696457Y552756D03*
Y548819D03*
X692520Y552756D03*
Y548819D03*
Y544882D03*
X688583D03*
X700394Y537008D03*
X688583D03*
X704331Y552756D03*
X688583D03*
X696457Y537008D03*
Y540945D03*
X700394D03*
X696457Y544882D03*
X724016D03*
X720079Y540945D03*
X724016Y548819D03*
X708268D03*
X720079Y552756D03*
X716142Y540945D03*
X723577Y552756D03*
X716142Y537008D03*
X720079D03*
X724016D03*
X716142Y548819D03*
X720079Y544882D03*
Y548819D03*
X716142Y552756D03*
X712205Y544882D03*
X708268D03*
Y537008D03*
X712205Y552756D03*
Y548819D03*
X708268Y552756D03*
Y540945D03*
X712205D03*
Y537008D03*
X737392D03*
X728690Y544145D03*
X727953Y552756D03*
X731890Y546850D03*
X727953Y540945D03*
Y537008D03*
X778938Y552756D03*
X802597Y535378D03*
X797132Y538731D03*
X820472Y537008D03*
X824409D03*
X808661D03*
X834384Y543538D03*
X852953Y535378D03*
X883371Y537799D03*
X923632Y541731D03*
X914568Y546850D03*
Y550787D03*
Y542913D03*
Y535039D03*
X966142Y546850D03*
X954331D03*
X958268Y542913D03*
X962205Y546850D03*
X954331Y538976D03*
X962205Y542913D03*
X974015Y547390D03*
X974016Y550787D03*
X977953Y546850D03*
X982504Y549811D03*
X981890Y546850D03*
X1005512Y535039D03*
X993701Y542913D03*
X989764Y538976D03*
Y535039D03*
X993701Y538976D03*
Y535039D03*
X997638Y546850D03*
X1005512D03*
X1001891Y547167D03*
X1003504Y549811D03*
X989764Y546850D03*
X993504Y549811D03*
X1005512Y538976D03*
X1001575Y535039D03*
X1009449Y538976D03*
X1013504Y549811D03*
X1013386Y546850D03*
X1009449D03*
X1025197D03*
Y535039D03*
Y538976D03*
X1017323Y535039D03*
X1013386D03*
X1017323Y538976D03*
X1021260D03*
X1009449Y535039D03*
X1013386Y538976D03*
X1044882Y546850D03*
X1040945D03*
X1035504Y549811D03*
X1037008Y546850D03*
X1033071D03*
X1041163Y550000D03*
X1029134Y538976D03*
Y535039D03*
X1033071D03*
X1044882Y538976D03*
X1037008Y535039D03*
X1044882D03*
X1037008Y538976D03*
X1040945Y535039D03*
Y538976D03*
X1033071D03*
X1027455Y549802D03*
X1048819Y546850D03*
X1056693D03*
X1054504Y549811D03*
X1064567Y542913D03*
X1052756Y535039D03*
X1060630D03*
X1056693D03*
X1052756Y538976D03*
X1064567Y535039D03*
Y538976D03*
X1060630D03*
X1048819Y535039D03*
Y538976D03*
X1056693D03*
X1065504Y549811D03*
X1084252Y542913D03*
X1068504D03*
X1072441Y550787D03*
Y546850D03*
X1068504Y538976D03*
Y535039D03*
X1080315Y546850D03*
Y542913D03*
X1084252Y546850D03*
X1076378Y550787D03*
X1084252D03*
X1080315D03*
X1072441Y535039D03*
X1088189Y550787D03*
Y542913D03*
X1089370Y537795D03*
X1088189Y546850D03*
X383465Y564567D03*
X387402Y554724D03*
X432677Y562598D03*
X462030Y561174D03*
X499213Y557480D03*
X556500Y568728D03*
X552756Y560630D03*
X580000Y568228D03*
X570472Y568504D03*
X605906Y556693D03*
X594094D03*
X605906Y560630D03*
Y564567D03*
X601969D03*
X598031Y556693D03*
X601969D03*
X598031Y564567D03*
X605906Y572441D03*
X598031Y568504D03*
X601969D03*
Y572441D03*
X605906Y568504D03*
X621654Y572441D03*
X617717D03*
X625591Y564567D03*
Y572441D03*
X621654Y564567D03*
X617717Y556693D03*
X613780D03*
X625591D03*
X613780Y572441D03*
X617717Y560630D03*
X609843Y568504D03*
Y560630D03*
X617717Y564567D03*
X613780Y560630D03*
X609843Y572441D03*
X613780Y568504D03*
X609843Y556693D03*
X625591Y560630D03*
X621654Y556693D03*
X629528Y572441D03*
Y564567D03*
Y568504D03*
X637402D03*
X633465Y572441D03*
Y556693D03*
X637402Y560630D03*
Y556693D03*
X633465Y560630D03*
X629528D03*
X645276Y556693D03*
Y560630D03*
X641339Y556693D03*
X633465Y568504D03*
X645276Y572441D03*
X653150D03*
X664961D03*
X657087D03*
Y556693D03*
X653150D03*
X664961Y560630D03*
X649213D03*
X664961Y556693D03*
X657087Y560630D03*
X653150D03*
X661024D03*
X649213Y564567D03*
X657087D03*
X664961D03*
X676772D03*
X672835Y572441D03*
X680709Y564567D03*
Y568504D03*
X684646Y556693D03*
X676772Y560630D03*
X672835D03*
X680709Y556693D03*
X676772D03*
X668898Y560630D03*
Y556693D03*
X684646Y572441D03*
X672835Y564567D03*
X680709Y572441D03*
X704331Y560630D03*
X696457Y568504D03*
X692520D03*
X688583Y572441D03*
X700394Y568504D03*
X692520Y564567D03*
X704331Y568504D03*
Y564567D03*
X700394D03*
Y572441D03*
X704331D03*
X692520D03*
X696457Y556693D03*
Y560630D03*
X704331Y556693D03*
X688583Y560630D03*
X692520D03*
X688583Y556693D03*
X700394Y560630D03*
Y556693D03*
X712205Y560630D03*
X716142D03*
X712205Y568504D03*
X708268Y560630D03*
Y572441D03*
X712205Y564567D03*
X708268D03*
X720079Y556693D03*
X724016Y564567D03*
X720079Y568504D03*
X724016Y556693D03*
Y568504D03*
Y572441D03*
X720079Y560630D03*
X712205Y572441D03*
X716142Y568504D03*
Y556693D03*
X708268D03*
X716142Y564567D03*
X742520Y556693D03*
X727953D03*
X746000Y570228D03*
X729921Y563386D03*
Y566535D03*
X727953Y572441D03*
X753333D03*
X747132Y563231D03*
X747244Y568110D03*
X775447Y562614D03*
X777000Y574000D03*
X797632Y560731D03*
X852165Y572441D03*
X923228Y562992D03*
Y558661D03*
X914568D03*
X930709Y566535D03*
X966142Y554724D03*
Y558661D03*
X958268Y570472D03*
X958253Y558662D03*
X966142Y566535D03*
X962205Y570472D03*
Y566535D03*
X958253Y566536D03*
X966142Y574409D03*
X954331Y570472D03*
X966142D03*
X958268Y574409D03*
X954331Y566535D03*
X962205Y574409D03*
X954330Y574002D03*
X984850Y558819D03*
X974016Y566535D03*
X976976Y558661D03*
X974016Y570472D03*
X976976Y568661D03*
X974016Y574409D03*
Y558661D03*
X984850Y568819D03*
X999409Y571449D03*
X1003346Y557685D03*
X990756Y558858D03*
X1008466Y571470D03*
X1012346Y557685D03*
X1018409Y571449D03*
X1023346Y557685D03*
X1037866Y571449D03*
X1037008Y574409D03*
X1045874Y568701D03*
X1029363Y571272D03*
X1030803Y557685D03*
X1040803D03*
X1057669Y568858D03*
Y558858D03*
X1065543D03*
Y568858D03*
X1068504Y574409D03*
Y570472D03*
Y566535D03*
X1084252Y570472D03*
X1072441Y558661D03*
X1080315Y562598D03*
X1084252Y566535D03*
X1076378Y558661D03*
X1080315D03*
X1076378Y566535D03*
X1080315D03*
Y574409D03*
Y570472D03*
X1076378Y574409D03*
Y570472D03*
X1084252Y574409D03*
Y562598D03*
X1080315Y554724D03*
X1076378D03*
Y562598D03*
X1084252Y558661D03*
X1088189Y570472D03*
Y574409D03*
Y554724D03*
X1118000Y560500D03*
X1149000Y564000D03*
X1148500Y568500D03*
X1149000Y561500D03*
X1278872Y556924D03*
X1292258Y556530D03*
X334710Y593527D03*
X432677Y586220D03*
X455500Y587728D03*
X482500Y594228D03*
X477953Y594094D03*
X497244Y588976D03*
X495464Y590890D03*
X520500Y592228D03*
X546456Y588189D03*
X556693Y592126D03*
Y576573D03*
Y584252D03*
X563500Y590728D03*
X574500Y578228D03*
X584000Y582728D03*
X579110Y579618D03*
X578000Y585728D03*
X566535Y576378D03*
Y592126D03*
Y584252D03*
X594094Y576378D03*
Y580315D03*
X601969Y584252D03*
X605906D03*
Y576378D03*
X601969Y588191D03*
X601453Y592126D03*
X606000Y580316D03*
X605906Y591611D03*
X598031Y584252D03*
X601969Y576378D03*
X598500Y580228D03*
X598031Y576378D03*
Y592126D03*
X601969Y580315D03*
X625591Y592126D03*
X609843Y588189D03*
X613780D03*
X621654Y592126D03*
X617717Y576378D03*
Y592126D03*
Y580315D03*
X625591Y576378D03*
Y580315D03*
Y584252D03*
Y588189D03*
X621137Y580315D03*
X613780Y592126D03*
Y580315D03*
X609843Y584252D03*
X613780Y576378D03*
X609843Y580315D03*
X617716Y588191D03*
X609843Y592126D03*
X621260Y588189D03*
X613780Y584252D03*
X621654Y576378D03*
X629528Y584252D03*
X633465Y588189D03*
X641339Y580315D03*
Y588189D03*
X633465Y579921D03*
X629528Y580315D03*
Y588189D03*
X633465Y592126D03*
Y584646D03*
Y576378D03*
X661024Y588189D03*
X657087D03*
X664961Y580315D03*
X657087D03*
X649213D03*
Y588189D03*
X653150Y592126D03*
Y588189D03*
X680709Y580315D03*
X672835D03*
X680709Y588189D03*
X672835D03*
X684646Y576378D03*
Y584252D03*
X704331Y592126D03*
X703936Y584253D03*
X688583Y576378D03*
X692520Y592126D03*
X696632Y588231D03*
X704331Y576378D03*
X704330Y588190D03*
X700394Y576378D03*
Y580315D03*
X696457Y576378D03*
X692520Y580315D03*
X688583D03*
X696457D03*
X692520Y584252D03*
X700394D03*
Y588189D03*
X688583Y592126D03*
Y588189D03*
X696457Y592126D03*
X716142Y588189D03*
X708268Y580315D03*
X720079Y592126D03*
X708268Y588189D03*
X724016Y580315D03*
X724132Y592125D03*
X708268Y584252D03*
X716142Y576378D03*
X708268D03*
X716142Y592126D03*
X720078Y588189D03*
X712204Y588705D03*
Y592641D03*
X720079Y576378D03*
Y580315D03*
X724016Y576378D03*
X716142Y580315D03*
X712204Y583982D03*
X712205Y580315D03*
Y576378D03*
X731496Y584647D03*
X743307Y582677D03*
Y587402D03*
X728346Y592520D03*
X727952Y580571D03*
X729921Y576378D03*
X738583Y582677D03*
X747245Y576378D03*
X761180Y582795D03*
X758661Y580315D03*
X747638Y589764D03*
X749808Y588189D03*
X824016Y578740D03*
X826772Y584252D03*
X842632Y588231D03*
X838189Y584252D03*
Y580315D03*
X830315Y588835D03*
X834252Y588189D03*
X846063Y575984D03*
Y588189D03*
X838189Y576378D03*
X842126Y575265D03*
X846063Y584267D03*
X838189Y588189D03*
X833858Y584252D03*
X834252Y580315D03*
X845890Y580142D03*
X863000Y587728D03*
X853829Y588082D03*
X854345Y592018D03*
X857874Y584252D03*
X850000D03*
X850132Y580731D03*
X849606Y575984D03*
X850000Y588189D03*
X861632Y582231D03*
X853937Y584608D03*
X858661Y593307D03*
X903937Y592520D03*
X894488D03*
X905906Y578346D03*
X916141Y576770D03*
X913780Y583071D03*
Y587795D03*
Y592520D03*
X958268Y594094D03*
X966142Y590157D03*
Y586220D03*
X962205D03*
X966141Y577831D03*
X962205Y578346D03*
Y594094D03*
X966142Y582283D03*
X958267Y582936D03*
X954223Y577938D03*
X954331Y582283D03*
X958595Y578157D03*
X954331Y586220D03*
X970079Y590157D03*
X985039Y589943D03*
X974016Y578346D03*
Y582283D03*
X976976Y586661D03*
Y577661D03*
X974016Y590157D03*
X985039Y577757D03*
X996646Y585575D03*
Y594575D03*
X1005512Y590157D03*
Y582283D03*
X996646Y576575D03*
X1009449Y590157D03*
X1017323Y582283D03*
Y578346D03*
X1009449D03*
X1046063Y580496D03*
X1040945Y590157D03*
X1037008D03*
X1029134Y582283D03*
Y578346D03*
X1040945Y582283D03*
X1046063Y590342D03*
X1065543Y589858D03*
X1057480Y590342D03*
Y580496D03*
X1065543Y578858D03*
X1068504Y582283D03*
Y578346D03*
X1072441Y594094D03*
X1076378Y586220D03*
Y594094D03*
X1084252Y578346D03*
X1080315D03*
Y582283D03*
X1084252D03*
X1080315Y590157D03*
X1076378D03*
Y582283D03*
X1080315Y586220D03*
X1084252Y594094D03*
Y590157D03*
X1076378Y578346D03*
X1080315Y594094D03*
X1088189Y578346D03*
Y586220D03*
Y594094D03*
Y590157D03*
Y582283D03*
X300215Y605067D03*
X301858Y600206D03*
X334808Y605326D03*
X432677Y609843D03*
X463386Y598425D03*
X481890Y601969D03*
X510500Y608728D03*
X508000Y604228D03*
X533000Y603228D03*
X537796Y596063D03*
X546456D03*
X556693Y600000D03*
X586220D03*
X566535D03*
X598031Y607874D03*
X605906Y600000D03*
X605390Y596063D03*
X601969D03*
X587500Y610728D03*
X605906Y603937D03*
X598031D03*
X594094Y611811D03*
X601969D03*
Y603937D03*
X605658Y608121D03*
X621654Y600000D03*
Y611811D03*
X625591Y607357D03*
X617717Y596063D03*
X625591Y603421D03*
X617717Y600000D03*
X621654Y607874D03*
X617717D03*
X625591Y596063D03*
X617717Y603937D03*
X609843Y611811D03*
X609327Y607874D03*
X613500Y607728D03*
X613780Y596063D03*
Y611811D03*
X610358Y603937D03*
X613780Y600515D03*
X617717Y611811D03*
X609843Y596063D03*
X621654Y603937D03*
X633465Y600000D03*
X629528Y603937D03*
X641339Y600000D03*
X637402D03*
X641339Y603937D03*
Y607874D03*
X633465Y603937D03*
X629528Y607874D03*
Y611811D03*
Y596063D03*
X637402D03*
X641339Y611811D03*
X664961Y596063D03*
X657087D03*
X649213D03*
X664961Y603937D03*
X657087D03*
X649213D03*
X664961Y611811D03*
X649213D03*
X657087D03*
X676772Y600000D03*
X680709Y603937D03*
X672835D03*
Y611811D03*
X680709D03*
X672835Y596063D03*
X680709D03*
X684646D03*
X680709Y600000D03*
X684646D03*
X704331Y611811D03*
Y596063D03*
X700394Y600000D03*
Y603937D03*
X696457D03*
Y607874D03*
X688583Y600000D03*
X692520D03*
X696457D03*
X688583Y596063D03*
Y603937D03*
X692520Y607874D03*
Y611811D03*
X704331Y607874D03*
X696457Y611811D03*
X700394Y596063D03*
Y611811D03*
X696457Y596063D03*
X704331Y600000D03*
X688583Y611811D03*
X720079D03*
X712205Y607874D03*
X724134Y607873D03*
X712205Y611811D03*
X708268Y607874D03*
X720079Y607872D03*
X716142Y611811D03*
X720078Y599609D03*
X724016Y596063D03*
X720078Y603936D03*
X724016Y600000D03*
X708268Y603937D03*
Y600000D03*
X716142D03*
Y596063D03*
X712204Y603936D03*
X716142Y603937D03*
X708268Y596063D03*
X716142Y607874D03*
X746063Y606299D03*
X727953Y600000D03*
X731496Y607480D03*
X750000Y596064D03*
X749809Y603937D03*
X749785Y611811D03*
X774804Y613780D03*
X783500Y613728D03*
X781102Y602559D03*
X801632Y609231D03*
X795000Y602000D03*
X804500Y606500D03*
X790000Y605500D03*
X803632Y599731D03*
X846063Y603937D03*
X838189D03*
Y607874D03*
X834252Y603937D03*
X826378D03*
X838189Y600000D03*
X846063Y596063D03*
X838189D03*
X846063Y600000D03*
X830707Y603937D03*
X830315Y607874D03*
X846063Y608660D03*
X834252Y607874D03*
Y596063D03*
X830513Y596030D03*
X834252Y600000D03*
X830707D03*
X828550Y611811D03*
X853937Y596063D03*
X857736Y604075D03*
X853937Y600000D03*
X850000Y603937D03*
Y607874D03*
X853937D03*
Y603937D03*
X850000Y596063D03*
Y600000D03*
X852362Y612205D03*
X881496Y611417D03*
X905118Y611418D03*
X893307Y611417D03*
X887402D03*
X925984Y611024D03*
X923622Y597638D03*
X918898Y611417D03*
X913780Y597244D03*
X958268Y609843D03*
Y613780D03*
X954331D03*
X966142D03*
Y601969D03*
X962205Y598031D03*
X954589Y606164D03*
X958268Y605906D03*
X962205Y613780D03*
X954331Y609843D03*
X966142D03*
Y605906D03*
X958268Y601969D03*
X966142Y598031D03*
X962205Y605906D03*
X952756Y603544D03*
X962205Y609843D03*
X985039Y595092D03*
Y604151D03*
X974016Y613780D03*
X976976Y613661D03*
X974016Y609843D03*
Y605906D03*
Y601969D03*
X976976Y604661D03*
X985039Y613962D03*
X976976Y595661D03*
X1005512Y601969D03*
Y609843D03*
X996646Y603575D03*
Y612575D03*
X1017323Y613780D03*
Y609843D03*
X1009449Y601969D03*
Y613780D03*
X1037008Y601969D03*
X1029134Y609843D03*
Y613780D03*
X1040945Y601969D03*
X1045874Y599701D03*
Y608701D03*
X1040945Y609843D03*
X1037008Y613780D03*
X1057669Y608858D03*
X1065543Y599858D03*
X1057669Y598858D03*
X1065543Y608858D03*
X1068504Y613780D03*
Y609843D03*
Y605906D03*
Y601969D03*
X1080315Y598031D03*
Y605906D03*
X1084252D03*
X1080315Y609843D03*
X1076378D03*
Y601969D03*
X1080315D03*
X1084252D03*
Y609843D03*
X1076378Y605906D03*
Y598031D03*
X1088189Y601969D03*
Y605906D03*
Y609843D03*
X1251119Y601969D03*
X1253110Y598031D03*
X177953Y627559D03*
X174542Y632120D03*
X432677Y633465D03*
X494299Y627374D03*
Y629736D03*
X493500Y618228D03*
X537008Y627559D03*
X547243Y619685D03*
Y627559D03*
X553273Y632455D03*
X578346Y618504D03*
X572000Y622228D03*
X569603Y624285D03*
X574362Y622728D03*
X571000Y626228D03*
X601575Y627559D03*
X605906D03*
X601969Y623622D03*
Y619685D03*
X605906Y631496D03*
X601969D03*
X605906Y615748D03*
X601969D03*
X605906Y619685D03*
X625591Y627559D03*
X621654Y631496D03*
X625591Y615748D03*
X609843D03*
X617717Y619685D03*
X625591Y623622D03*
X617717Y631496D03*
X609843D03*
X613780D03*
X621654Y615748D03*
X613780D03*
Y619685D03*
X617717Y627559D03*
X621654Y619685D03*
X609843Y627559D03*
X613780Y623622D03*
X621654Y627559D03*
X617717Y623622D03*
X609843D03*
X625591Y631496D03*
X613780Y627559D03*
X629528Y623106D03*
Y615748D03*
X645276Y619685D03*
X637402D03*
X641500Y631228D03*
X629528Y631496D03*
X637402D03*
X633465D03*
X641339Y619685D03*
X633207Y615490D03*
X645276Y627559D03*
X641339Y627293D03*
X633465Y624137D03*
X629500Y627228D03*
X637402Y623622D03*
X645276D03*
X633980Y619685D03*
X637402Y627559D03*
X641339Y623622D03*
X664632Y615731D03*
X664961Y631496D03*
Y619685D03*
X649213Y623622D03*
X661024D03*
X649213Y631102D03*
Y615748D03*
X653150D03*
X664961Y627559D03*
X657087Y631496D03*
X653150Y619685D03*
Y631496D03*
X657087Y615748D03*
Y619685D03*
Y627559D03*
Y623622D03*
X649213Y627559D03*
X653150D03*
X661024Y615748D03*
X676772Y623622D03*
X672835D03*
X676772Y619685D03*
X684646Y623622D03*
X668898Y631496D03*
X680709Y627559D03*
X672835Y615748D03*
X668898D03*
X672835Y631496D03*
X676772D03*
X680709D03*
X668898Y619685D03*
Y623622D03*
X684646Y631496D03*
X672835Y627559D03*
X668898D03*
X684646D03*
X680709Y623622D03*
Y619685D03*
X684646D03*
Y615748D03*
X676772D03*
X700394Y631496D03*
X696457Y623622D03*
Y619685D03*
Y631496D03*
X688583Y615748D03*
Y619685D03*
Y627559D03*
X700394Y615748D03*
X696457Y627559D03*
X704331Y631496D03*
X692520D03*
Y623622D03*
Y627559D03*
X700394Y623622D03*
Y627559D03*
X704331Y615748D03*
X688583Y623622D03*
X692520Y615748D03*
X696457D03*
X704331Y619685D03*
X700394D03*
X704331Y627559D03*
X720079Y619685D03*
Y623622D03*
X716142Y631496D03*
X720079D03*
X716142Y619685D03*
Y627559D03*
X720079D03*
X712205Y619685D03*
Y623622D03*
Y615748D03*
X716142D03*
X712205Y631496D03*
X708268Y615748D03*
Y619685D03*
X712205Y627559D03*
X708268Y623622D03*
Y627559D03*
X755118Y622047D03*
X760630Y634646D03*
X757874Y628346D03*
X774804Y621654D03*
X780914Y617717D03*
X788632Y614731D03*
X881496Y620078D03*
X905118D03*
X893307D03*
X887402D03*
X925197Y623622D03*
Y628346D03*
Y633465D03*
X925984Y619684D03*
X918898Y620078D03*
X966142Y633465D03*
X962205D03*
X954331D03*
Y617717D03*
Y621654D03*
X958268D03*
X966142Y617717D03*
Y629528D03*
X958268Y617717D03*
X966142Y621654D03*
X961811Y617717D03*
X962205Y621654D03*
X966142Y625591D03*
X962205D03*
Y629528D03*
X985039Y623808D03*
X976976Y623661D03*
X974016Y617717D03*
Y625591D03*
X976976Y633661D03*
X974016Y633465D03*
X997441Y630504D03*
X994528Y624000D03*
X1006441Y630504D03*
X1016441D03*
X1020066Y618843D03*
X1025441Y630504D03*
X1009252Y618709D03*
X1036441Y630504D03*
X1031102Y618898D03*
X1040066Y618843D03*
X1065543Y618858D03*
X1051764Y618701D03*
X1057669Y618858D03*
X1063591Y631535D03*
X1058441Y630504D03*
X1047441D03*
X1076378Y633465D03*
X1068504Y617717D03*
X1080315D03*
X1072441Y629528D03*
X1080500Y621654D03*
X1084000Y625591D03*
X1080500Y629500D03*
X1076000Y625591D03*
Y629528D03*
X1092126Y619685D03*
X1089370Y615748D03*
X1124409Y631496D03*
X1123622Y623622D03*
X1140157D03*
X1247638Y629528D03*
X462992Y639370D03*
X479921Y643307D03*
X477953Y635449D03*
X545500Y651728D03*
X537008Y643307D03*
X547243Y635433D03*
Y643307D03*
X552500Y644228D03*
X554500Y642728D03*
X605906Y647244D03*
X601969Y635433D03*
Y643307D03*
Y647244D03*
X589764Y653937D03*
X601969Y639370D03*
X605906Y643307D03*
Y639370D03*
X613780Y647244D03*
X621654Y643307D03*
Y647244D03*
X613780Y643307D03*
X609843Y639370D03*
X617717Y647244D03*
X609843D03*
X621654Y635433D03*
X617717Y639370D03*
X625591Y647244D03*
Y643307D03*
X613780Y635433D03*
X625591Y639370D03*
X609843Y635433D03*
X625591D03*
X621681Y639397D03*
X637402Y647244D03*
X633465D03*
X629528D03*
X641339D03*
X633465Y643307D03*
X629528Y635433D03*
X633465D03*
Y639370D03*
X641339D03*
X645276Y635433D03*
X637402Y639370D03*
X645276D03*
X641339Y635433D03*
X637402Y643307D03*
Y635433D03*
X657087Y639370D03*
X664961Y647244D03*
X661024D03*
X657087D03*
Y635433D03*
X649213Y643307D03*
Y647244D03*
X661581Y651179D03*
X653150Y643307D03*
Y647244D03*
X649213Y635433D03*
X653150D03*
X669132Y651231D03*
X684646Y647244D03*
X680709D03*
X672835Y643307D03*
Y647244D03*
X668898D03*
X680709Y635433D03*
X676772Y647244D03*
Y643307D03*
Y635433D03*
X668898D03*
X680709Y639370D03*
X684646Y635433D03*
X676772Y639370D03*
X672835Y635433D03*
X684646Y639370D03*
X704331Y647244D03*
X696457Y643307D03*
Y647244D03*
X692520D03*
X688583D03*
Y639370D03*
X700394Y643307D03*
Y647244D03*
X696457Y635433D03*
Y639370D03*
X688583Y643307D03*
X692520Y635433D03*
X704331D03*
X688583D03*
X704331Y639370D03*
X700394D03*
X720079D03*
Y643307D03*
X712205Y647244D03*
X716142Y639370D03*
X708268Y643307D03*
X720079Y647244D03*
Y635433D03*
X716142Y647244D03*
X708268D03*
X716142Y643307D03*
X712205D03*
X708267Y635040D03*
X712205Y635433D03*
X708268Y639370D03*
X728132Y653731D03*
X741229Y635828D03*
X755118Y640945D03*
X803132Y648231D03*
X808937Y650231D03*
X806969Y648262D03*
X865638Y647583D03*
X855829D03*
X909843Y647638D03*
X962205Y641339D03*
X966142Y637402D03*
X958268Y641339D03*
X962205Y637402D03*
X954331Y641339D03*
Y645276D03*
Y649213D03*
X958268Y645276D03*
Y637402D03*
X970079Y653150D03*
X974016Y637402D03*
Y645276D03*
X977953D03*
X985827D03*
X998567Y638378D03*
X1005512Y641339D03*
X1001575D03*
X997638D03*
X993701D03*
X989567Y638378D03*
X1017323Y653150D03*
X1021260D03*
X1009449Y641339D03*
X1007567Y638378D03*
X1017323Y645276D03*
X1017567Y638378D03*
X1044882Y653150D03*
X1037008D03*
X1040945Y645276D03*
Y649213D03*
X1044882D03*
Y641339D03*
X1040945D03*
X1037008D03*
X1033071D03*
X1029134D03*
X1026567Y638378D03*
X1037567D03*
X1044882Y645276D03*
X1040945Y653150D03*
X1056693D03*
X1060630Y649213D03*
X1064567Y653150D03*
X1056693Y649213D03*
X1052756D03*
Y653150D03*
X1048819Y649213D03*
Y653150D03*
X1064567Y641339D03*
X1059567Y638378D03*
X1060630Y641339D03*
X1052756D03*
X1048567Y638378D03*
X1084252Y645276D03*
X1072441Y637402D03*
Y641339D03*
X1080351Y636851D03*
X1092126Y635433D03*
X1100000Y651500D03*
X1124016Y639370D03*
X1140157D03*
X543701Y670866D03*
Y666929D03*
Y662992D03*
Y655118D03*
Y659055D03*
X577559Y661417D03*
X674803Y655906D03*
X670866D03*
Y665748D03*
X736632Y658231D03*
X738625Y662336D03*
X784632Y663231D03*
X812598Y657087D03*
X808661D03*
X820472Y672835D03*
X824409Y664961D03*
X816535Y672835D03*
Y668898D03*
X824409Y661024D03*
X816535Y657087D03*
X820472D03*
X824409D03*
X820472Y661024D03*
X812598Y672835D03*
X816535Y664961D03*
Y661024D03*
X844094Y657087D03*
X836220Y672835D03*
X832283Y664961D03*
X828346Y661024D03*
X832283D03*
X836220D03*
X832283Y656637D03*
X836220D03*
X840157D03*
X828346Y664961D03*
X844094Y668898D03*
X851969Y661024D03*
X848031Y668898D03*
Y661024D03*
X863518Y665979D03*
X848031Y664961D03*
X851969Y672835D03*
X877740Y655906D03*
X909843Y656299D03*
X970079Y657087D03*
X974132Y657231D03*
X997638Y657087D03*
X1017323D03*
X1013386Y661024D03*
X1037008Y657087D03*
X1040945D03*
X1044882Y661024D03*
X1048819D03*
Y657087D03*
X1076378Y661024D03*
X1072441Y657087D03*
Y661024D03*
X1067951Y657049D03*
X1100500Y674500D03*
X1116500Y671000D03*
X1113000D03*
X1110435Y674000D03*
X1106500D03*
X477953Y694488D03*
X543701Y678740D03*
Y682677D03*
Y674803D03*
X598425Y683858D03*
X589370Y680315D03*
X591732Y685827D03*
X724409Y683465D03*
X739370D03*
X805807Y685520D03*
X812598Y688583D03*
X816535Y684646D03*
X820472Y688583D03*
Y680709D03*
Y676772D03*
Y684646D03*
Y692520D03*
X816535D03*
X812598Y692762D03*
X816535Y680709D03*
Y676772D03*
Y688583D03*
X824409Y684646D03*
Y676772D03*
Y680709D03*
Y692520D03*
Y688583D03*
X844094Y684646D03*
X836220Y676772D03*
Y680709D03*
Y684646D03*
X840157D03*
X836220Y688583D03*
Y692520D03*
X844094Y676772D03*
Y680709D03*
X832283Y676772D03*
Y680709D03*
Y688583D03*
Y684646D03*
Y692520D03*
X848031Y684646D03*
X854134Y680119D03*
X848031Y680709D03*
Y688583D03*
X851969Y692520D03*
X848031Y676772D03*
X913386Y687796D03*
X925197D03*
X919291D03*
X937008D03*
X931102D03*
X942913Y687795D03*
X954724Y687796D03*
X948819D03*
X1012204Y684646D03*
X1030708Y685039D03*
X1094000Y680000D03*
X503000Y700228D03*
X543701Y714173D03*
Y710236D03*
Y706299D03*
X623622Y696850D03*
X612992Y702362D03*
X637008D03*
X649213Y700394D03*
X672047Y702362D03*
X683858Y700394D03*
X698031Y702362D03*
X712598Y695669D03*
X707087Y700394D03*
X727953Y702362D03*
X789320Y708163D03*
X820472Y696457D03*
X816535Y704331D03*
X812598Y700394D03*
X816535Y708268D03*
Y712205D03*
X820472Y708268D03*
X824409Y704331D03*
Y712205D03*
X812935Y711868D03*
X816535Y700394D03*
Y696457D03*
X812598D03*
X836220D03*
X844094D03*
X836220Y712205D03*
X840157D03*
X844094D03*
X836220Y708268D03*
X832283Y704331D03*
Y708268D03*
X828346Y712205D03*
Y708268D03*
X856007Y714512D03*
X852953D03*
X848031Y700394D03*
Y704331D03*
Y712205D03*
X851969Y708268D03*
Y696457D03*
X848031Y708268D03*
X942913Y714173D03*
Y696456D03*
X962132Y704231D03*
X954724Y696456D03*
X948819D03*
X543701Y729921D03*
Y733858D03*
Y725984D03*
Y722047D03*
Y718110D03*
X605500Y721728D03*
X800448Y719610D03*
X795669Y734069D03*
X806706Y724355D03*
X812598Y716142D03*
X820472D03*
X808661D03*
X881057Y725948D03*
X1004331Y734646D03*
X363780Y753543D03*
X355906Y751575D03*
X411024Y748031D03*
X448819Y748819D03*
X450787Y753543D03*
X477953Y748031D03*
X552756Y737795D03*
X574409D03*
X590157D03*
X674803D03*
X698425D03*
X727953D03*
X759449D03*
X785039D03*
X857087Y737988D03*
X901969Y751969D03*
X1003543Y742126D03*
X993299Y750385D03*
X237795Y773228D03*
X233858Y769291D03*
X241732D03*
X229921Y773228D03*
X245669Y765354D03*
X316535Y773818D03*
X452756Y758268D03*
X446850Y756299D03*
X539500Y768228D03*
X559500D03*
X900394Y755118D03*
X155118Y788976D03*
X222047Y776378D03*
Y792913D03*
X229921Y788976D03*
X265354Y792913D03*
X257480D03*
X253543D03*
X273228D03*
X338189D03*
X360630Y785433D03*
X902753Y783352D03*
X910630Y781299D03*
X112598Y810630D03*
X115354Y808661D03*
X120866Y806693D03*
X127559Y814567D03*
X156299Y812598D03*
X153150Y794882D03*
X161811Y806693D03*
X225984Y812598D03*
X222047Y804724D03*
X225984Y808661D03*
X212205Y802756D03*
X237795Y796850D03*
Y800787D03*
X233858Y812598D03*
Y796850D03*
Y800787D03*
X237795Y812598D03*
X229921Y796850D03*
X241732Y812598D03*
X229921Y800787D03*
X233858Y804724D03*
X229921D03*
X237795D03*
X241732Y796850D03*
X249606Y800787D03*
X253543D03*
X265354Y804724D03*
Y812598D03*
X257480Y800787D03*
X277165Y812598D03*
Y808661D03*
Y804724D03*
X269291Y812598D03*
X277165Y796850D03*
X269291Y808661D03*
X273228D03*
X281102Y796850D03*
X273228Y800787D03*
X277165D03*
X340157Y814567D03*
X342126Y806693D03*
X346063Y804724D03*
X351969Y802756D03*
X518500Y801728D03*
X920866Y794882D03*
X907087Y796850D03*
X103937Y816142D03*
X164961Y822441D03*
X176772Y816535D03*
X174016Y819291D03*
X166929Y816535D03*
X170866D03*
X222047Y832283D03*
X225984Y816535D03*
Y832283D03*
X218110Y832480D03*
X225984Y824409D03*
Y828346D03*
X237795Y816535D03*
Y820472D03*
X241732D03*
X229921Y832283D03*
Y816535D03*
X233858D03*
Y820472D03*
X229921D03*
Y828346D03*
X233858Y824409D03*
X245669Y820472D03*
X241732Y824409D03*
X245669Y828346D03*
X241732Y832283D03*
X237795Y828346D03*
X257480Y824409D03*
X261417D03*
X265354Y828346D03*
Y824409D03*
X253543Y820472D03*
X249606Y824409D03*
X253543Y828346D03*
X277165Y824409D03*
Y820472D03*
X273228Y824409D03*
X281102Y828346D03*
Y824409D03*
Y820472D03*
X273228Y832283D03*
X277165Y828346D03*
Y816535D03*
Y832283D03*
X336220Y824409D03*
X338189Y818504D03*
X340157Y820472D03*
X497638Y824803D03*
X499213Y829134D03*
X496063Y827953D03*
X501181Y825591D03*
X944882Y820079D03*
X948425Y825984D03*
X995669Y830315D03*
X105512Y853937D03*
X105906Y842126D03*
X176772Y840157D03*
X202362D03*
X225984Y836220D03*
X222047Y844094D03*
X233858Y836220D03*
X229921Y840157D03*
X233858D03*
X245669D03*
X229921Y844094D03*
X233858D03*
X245669Y851969D03*
X249606D03*
Y848031D03*
Y844094D03*
X253543Y836220D03*
X265354Y844094D03*
X257480Y851969D03*
X261417D03*
X277165Y836220D03*
Y848031D03*
Y844094D03*
X281102Y836220D03*
Y848031D03*
Y844094D03*
X277165Y840157D03*
X269291Y836220D03*
Y851969D03*
Y840157D03*
X273228Y844094D03*
Y848031D03*
X281102Y851969D03*
X334252Y853937D03*
X967717Y846063D03*
X996063Y838189D03*
X1025000Y847000D03*
X225984Y855906D03*
X222047D03*
X249606D03*
X261417D03*
X257480D03*
X269291D03*
X339017Y872665D03*
X377713Y864558D03*
X373653Y873902D03*
X401313Y871298D03*
X476343Y860628D03*
X893500Y857228D03*
X894882Y867323D03*
X924016Y867717D03*
X914567D03*
X222047Y893102D03*
X212205Y889559D03*
X233858D03*
X245669D03*
X257480Y893102D03*
X277165Y892913D03*
X269291Y889559D03*
X331932Y876406D03*
X991339Y876378D03*
X247638Y900394D03*
X257480Y900787D03*
X288387Y894882D03*
X498663Y909972D03*
X541132Y910231D03*
X539961Y900394D03*
X547638Y909054D03*
X592132Y910231D03*
X591142Y900394D03*
X598819Y909054D03*
X641132Y910231D03*
X642324Y900394D03*
X650001Y909055D03*
X928479Y906136D03*
Y911648D03*
X1059082Y907686D03*
X1076500Y906000D03*
X146850Y934194D03*
X284172Y931775D03*
X287322D03*
X296228Y932790D03*
X292039Y931541D03*
X324172Y931775D03*
X327322D03*
X332034Y931098D03*
X425984Y931496D03*
X424000Y928228D03*
X427559Y929134D03*
X429500Y931728D03*
X433858Y931496D03*
X468172Y931775D03*
X466535Y929134D03*
X471322Y931775D03*
X469747Y929413D03*
X512946Y925218D03*
X544453Y916723D03*
X595836Y916929D03*
X644564Y916748D03*
X146850Y954206D03*
Y944188D03*
X179528Y944488D03*
X197638Y952756D03*
X224803Y942126D03*
X277000Y951728D03*
X282598Y940238D03*
X285747D03*
X292126Y953543D03*
X325747Y940238D03*
X322598D03*
X331890Y953543D03*
X337402Y947244D03*
X337833Y942537D03*
X444488Y950787D03*
X483799Y945055D03*
X480315Y950787D03*
X929660Y952593D03*
X928872Y944719D03*
X980315Y935433D03*
X146850Y964173D03*
X260630Y974016D03*
X301575Y954724D03*
X402756Y974016D03*
X406693Y970866D03*
X433858Y954724D03*
X475984Y963780D03*
X1286746Y962435D03*
X122835Y981102D03*
X205512Y989370D03*
X207480Y987008D03*
X1051313Y979758D03*
X150000Y996850D03*
X242126Y1046063D03*
X239764Y1043701D03*
X244488Y1048425D03*
X246850Y1041339D03*
X249213Y1051575D03*
X251181Y1046063D03*
G54D32*
X703611Y1028709D03*
X711800Y1021544D03*
X951564D03*
X959831Y1028631D03*
G54D35*
X670866Y678642D02*
Y678445D01*
Y675098D02*
Y674902D01*
X566929Y678642D02*
Y678445D01*
Y675098D02*
Y674902D01*
X562992Y678642D02*
Y678445D01*
Y675098D02*
Y674902D01*
X559055Y678642D02*
Y678445D01*
Y675098D02*
Y674902D01*
X555118Y678642D02*
Y678445D01*
Y675098D02*
Y674902D01*
X631496Y678642D02*
Y678445D01*
Y675098D02*
Y674902D01*
X627559Y678642D02*
Y678445D01*
Y675098D02*
Y674902D01*
X619685Y678642D02*
Y678445D01*
Y675098D02*
Y674902D01*
X623622Y678642D02*
Y678445D01*
Y675098D02*
Y674902D01*
X607874Y678642D02*
Y678445D01*
Y675098D02*
Y674902D01*
X603937Y678642D02*
Y678445D01*
Y675098D02*
Y674902D01*
X578740Y678642D02*
Y678445D01*
Y675098D02*
Y674902D01*
X582677Y678642D02*
Y678445D01*
Y675098D02*
Y674902D01*
X655118Y678642D02*
Y678445D01*
Y675098D02*
Y674902D01*
X651181Y678642D02*
Y678445D01*
Y675098D02*
Y674902D01*
X643307Y678642D02*
Y678445D01*
Y675098D02*
Y674902D01*
X647244Y678642D02*
Y678445D01*
Y675098D02*
Y674902D01*
X678740Y678642D02*
Y678445D01*
Y675098D02*
Y674902D01*
X674803Y678642D02*
Y678445D01*
Y675098D02*
Y674902D01*
X666929Y678642D02*
Y678445D01*
Y675098D02*
Y674902D01*
X738189Y678642D02*
Y678445D01*
Y675098D02*
Y674902D01*
X734252Y678642D02*
Y678445D01*
Y675098D02*
Y674902D01*
X714173Y678642D02*
Y678445D01*
Y675098D02*
Y674902D01*
X718110Y678642D02*
Y678445D01*
Y675098D02*
Y674902D01*
X694488Y678642D02*
Y678445D01*
Y675098D02*
Y674902D01*
X690551Y678642D02*
Y678445D01*
Y675098D02*
Y674902D01*
X702362Y678642D02*
Y678445D01*
Y675098D02*
Y674902D01*
X698425Y678642D02*
Y678445D01*
Y675098D02*
Y674902D01*
X755512Y678642D02*
Y678445D01*
Y675098D02*
Y674902D01*
X751575Y678642D02*
Y678445D01*
Y675098D02*
Y674902D01*
X762992Y679035D02*
Y678839D01*
Y675492D02*
Y675295D01*
X766929Y679035D02*
Y678839D01*
Y675492D02*
Y675295D01*
G54D68*
X1226804Y106893D02*
Y109649D01*
G54D80*
G54D115*
X1033299Y132055D03*
X1080299D03*
X378035Y919420D03*
X377735Y953920D03*
G54D127*
X1193764Y740845D03*
Y240924D03*
X380001Y243776D03*
Y743697D03*
G54D131*
X1258991Y675821D03*
Y692357D03*
Y725428D03*
Y758498D03*
Y791569D03*
Y808105D03*
Y824640D03*
Y841176D03*
Y857711D03*
X1280644Y675821D03*
Y692357D03*
Y725428D03*
Y791569D03*
Y808105D03*
Y824640D03*
Y841176D03*
G54D132*
X1278833Y657317D03*
G54D133*
X761024Y549449D03*
X561024Y627402D03*
G54D149*
X555118Y684646D02*
X559055D01*
X568898Y691732D02*
X564961D01*
X578740Y684646D02*
X582677D01*
X609843Y691732D02*
X605906D01*
X619685Y684646D02*
X623622D01*
X633465Y691732D02*
X629528D01*
X643307Y684646D02*
X647244D01*
X657087Y691732D02*
X653150D01*
X666929Y684646D02*
X670866D01*
X680709Y691732D02*
X676772D01*
X690551Y684646D02*
X694488D01*
X704331Y691732D02*
X700394D01*
X714173Y684646D02*
X718110D01*
X738189Y692126D02*
X734252D01*
X751575Y685039D02*
X755512D01*
X766929Y692520D02*
X762992D01*
X774542Y993144D02*
X778479D01*
X783858Y983465D02*
X779921D01*
X791339Y992913D02*
X795276D01*
X800526Y983302D02*
X796589D01*
X833597Y993144D02*
X837534D01*
X842913Y983465D02*
X838976D01*
X850394Y992913D02*
X854331D01*
X859581Y983302D02*
X855644D01*
X721654Y993307D02*
X725591D01*
X730709Y983465D02*
X726772D01*
X738189Y993307D02*
X742126D01*
X747770Y983695D02*
X743833D01*
X887140Y993144D02*
X891077D01*
X896063Y983465D02*
X892126D01*
X903543Y992913D02*
X907480D01*
X912731Y983302D02*
X908794D01*
G54D154*
X1122867Y203744D03*
G54D160*
X989464Y997731D03*
X1243203Y897475D03*
X1253203D03*
X1263203D03*
X1273203D03*
X1283203D03*
G54D161*
X1123793Y987192D03*
X1216904Y1017081D03*
G54D162*
X145735Y170120D03*
X108235Y298120D03*
X176235D03*
X213735Y373120D03*
X110235Y492120D03*
X147735Y567120D03*
X148235Y360620D03*
X233235Y182620D03*
X208235Y170120D03*
X183235D03*
X120735D03*
X158235Y298120D03*
X226235Y310620D03*
Y298120D03*
X172735Y554620D03*
Y517120D03*
G54D163*
X165132Y125231D03*
X1275132D03*
X165132Y410231D03*
X1275132Y930231D03*
X655132Y410231D03*
Y125231D03*
X1275132Y410231D03*
X655132Y1020231D03*
X165132D03*
G54D164*
X904975Y983302D03*
X916550D03*
X911299Y992913D03*
X899724D03*
X888307Y983465D03*
X899882D03*
X894896Y993144D03*
X883321D03*
X740014Y983695D03*
X751589D03*
X745945Y993307D03*
X734370D03*
X722953Y983465D03*
X734528D03*
X729409Y993307D03*
X717835D03*
X851825Y983302D03*
X863400D03*
X858150Y992913D03*
X846575D03*
X835157Y983465D03*
X846732D03*
X841353Y993144D03*
X829778D03*
X792770Y983302D03*
X804345D03*
X799094Y992913D03*
X787520D03*
X776102Y983465D03*
X787677D03*
X782298Y993144D03*
X770723D03*
X759173Y692520D03*
X770748D03*
X759331Y685039D03*
X747756D03*
X730433Y692126D03*
X742008D03*
X721929Y684646D03*
X710354D03*
X696575Y691732D03*
X708150D03*
X698307Y684646D03*
X686732D03*
X672953Y691732D03*
X684528D03*
X674685Y684646D03*
X663110D03*
X649331Y691732D03*
X660906D03*
X651063Y684646D03*
X639488D03*
X625709Y691732D03*
X637283D03*
X627441Y684646D03*
X615866D03*
X602087Y691732D03*
X613661D03*
X586496Y684646D03*
X574921D03*
X561142Y691732D03*
X572717D03*
X562874Y684646D03*
X551299D03*
G54D165*
X1189542Y1022672D03*
X1287928D03*
G54D166*
X1280644Y857711D03*
Y775034D03*
Y758498D03*
Y741963D03*
Y708892D03*
X1258991Y775034D03*
Y741963D03*
Y708892D03*
G54D167*
X1101983Y1020743D03*
X1050250D03*
G54D168*
X1062337Y1010073D03*
G54D169*
X387735Y943920D03*
X367735D03*
Y963920D03*
X387735D03*
X388035Y909420D03*
X368035D03*
Y929420D03*
X388035D03*
X1090299Y122055D03*
X1070299D03*
Y142055D03*
X1090299D03*
X1043299Y122055D03*
X1023299D03*
Y142055D03*
X1043299D03*
G54D170*
X1172888Y975341D03*
X1109699D03*
X302388Y710089D03*
X268888D03*
X236388D03*
G54D171*
X1013386Y759488D03*
Y749488D03*
Y739488D03*
Y729488D03*
Y719488D03*
G54D172*
X349272Y734642D03*
X341772Y730705D03*
Y722831D03*
X349272Y711020D03*
X341772Y699209D03*
X349272Y687398D03*
X341772Y675587D03*
X349272Y663776D03*
X341772Y651965D03*
X349272Y640154D03*
X341772Y628343D03*
X349272Y616531D03*
X341772Y604720D03*
X349272Y592909D03*
X341772Y581098D03*
X349272Y569287D03*
X341772Y439366D03*
X349272Y427555D03*
X341772Y415744D03*
X349272Y403933D03*
X341772Y392122D03*
X349272Y380311D03*
X341772Y368500D03*
X349272Y356689D03*
X341772Y344878D03*
X349272Y333067D03*
X341772Y321256D03*
X349272Y309445D03*
X341772Y297634D03*
X349272Y285823D03*
X341772Y274012D03*
X349272Y262201D03*
X341772Y250390D03*
X364292Y726768D03*
X356792Y714957D03*
X364292Y703146D03*
X356792Y691335D03*
X364292Y679524D03*
X356792Y667713D03*
Y659839D03*
X364292Y655902D03*
X356792Y644091D03*
X364292Y632280D03*
X356792Y620469D03*
X364292Y608657D03*
X356792Y596846D03*
X364292Y585035D03*
X356792Y573224D03*
X364292Y522043D03*
X356792Y518106D03*
X364292Y443303D03*
X356792Y431335D03*
X364292Y419681D03*
X356792Y407713D03*
X364292Y396059D03*
X356792Y384091D03*
X364292Y372437D03*
X356792Y360469D03*
X364292Y348815D03*
X356792Y336846D03*
X364292Y325193D03*
X356792Y313224D03*
X364292Y301571D03*
X356792Y289602D03*
X364292Y277949D03*
X356792Y265980D03*
X364292Y254327D03*
X1224492Y249979D03*
X1231992Y253916D03*
Y261790D03*
X1224492Y273601D03*
X1231992Y285412D03*
X1224492Y297223D03*
X1231992Y309034D03*
X1224492Y320845D03*
X1231992Y332656D03*
X1224492Y344467D03*
X1231992Y356278D03*
X1224492Y368089D03*
X1231992Y379900D03*
X1224492Y391711D03*
X1231992Y403522D03*
X1224492Y415333D03*
X1231992Y545254D03*
X1224492Y557065D03*
X1231992Y568876D03*
X1224492Y580687D03*
X1231992Y592498D03*
X1224492Y604309D03*
X1231992Y616120D03*
X1224492Y627931D03*
X1231992Y639743D03*
X1224492Y651554D03*
X1231992Y663365D03*
X1224492Y675176D03*
X1231992Y686987D03*
X1224492Y698798D03*
X1231992Y710609D03*
X1224492Y722420D03*
X1231992Y734231D03*
X1209472Y257853D03*
X1216972Y269664D03*
X1209472Y281475D03*
X1216972Y293286D03*
X1209472Y305097D03*
X1216972Y316908D03*
Y324782D03*
X1209472Y328719D03*
X1216972Y340530D03*
X1209472Y352341D03*
X1216972Y364152D03*
X1209472Y375963D03*
X1216972Y387774D03*
X1209472Y399585D03*
X1216972Y411396D03*
X1209472Y462577D03*
X1216972Y466514D03*
X1209472Y541317D03*
X1216972Y553286D03*
X1209472Y564939D03*
X1216972Y576908D03*
X1209472Y588561D03*
X1216972Y600530D03*
X1209472Y612183D03*
X1216972Y624152D03*
X1209472Y635806D03*
X1216972Y647774D03*
X1209472Y659428D03*
X1216972Y671396D03*
X1209472Y683050D03*
X1216972Y695018D03*
X1209472Y706672D03*
X1216972Y718640D03*
X1209472Y730294D03*
G54D173*
X338778Y148691D03*
Y140817D03*
Y132943D03*
Y125069D03*
X623424Y148691D03*
Y140817D03*
Y132943D03*
Y125069D03*
X573109Y142943D03*
X563109D03*
X553109D03*
X543109D03*
X533109D03*
X523109D03*
X513109D03*
X503109D03*
X493109D03*
X483109D03*
X473109D03*
X463109D03*
X453109D03*
X443109D03*
X433109D03*
X423109D03*
X413109D03*
X403109D03*
X393109D03*
X383109D03*
X573109Y119320D03*
X563109D03*
X553109D03*
X543109D03*
X533109D03*
X523109D03*
X513109D03*
X503109D03*
X493109D03*
X483109D03*
X473109D03*
X463109D03*
X453109D03*
X443109D03*
X433109D03*
X423109D03*
X413109D03*
X403109D03*
X393109D03*
X383109D03*
X691278Y148691D03*
Y140817D03*
Y132943D03*
Y125069D03*
X975924Y148691D03*
Y140817D03*
Y132943D03*
Y125069D03*
X925609Y142943D03*
X915609D03*
X905609D03*
X895609D03*
X885609D03*
X875609D03*
X865609D03*
X855609D03*
X845609D03*
X835609D03*
X825609D03*
X815609D03*
X805609D03*
X795609D03*
X785609D03*
X775609D03*
X765609D03*
X755609D03*
X745609D03*
X735609D03*
X925609Y119320D03*
X915609D03*
X905609D03*
X895609D03*
X885609D03*
X875609D03*
X865609D03*
X855609D03*
X845609D03*
X835609D03*
X825609D03*
X815609D03*
X805609D03*
X795609D03*
X785609D03*
X775609D03*
X765609D03*
X755609D03*
X745609D03*
X735609D03*
G54D174*
X1042464Y1010731D03*
X981464D03*
G54D175*
X253543Y121654D03*
X275197D03*
X263635Y170520D03*
X1265093Y161254D03*
X324409Y188583D03*
X625197Y205118D03*
X565748Y226772D03*
X655906Y225197D03*
X747638Y224409D03*
X981890Y227953D03*
X565748Y244882D03*
X655906D03*
X747638D03*
X981890Y243701D03*
X1259187Y236057D03*
X296850Y259449D03*
X320472D03*
X981890D03*
X1176772Y265354D03*
Y312598D03*
X328346Y324409D03*
X869685Y331969D03*
X885433Y332283D03*
X901181D03*
X328346Y340157D03*
X918898Y336220D03*
X1249182Y352461D03*
X328346Y371654D03*
Y355906D03*
X1249606Y362205D03*
X328346Y387402D03*
X830315Y412992D03*
X865748Y413189D03*
X848031Y412992D03*
X133235Y433120D03*
X273621Y446130D03*
X1038976Y442520D03*
X1060630D03*
X1077953Y442126D03*
X1093701D03*
X275589Y467390D03*
Y492587D03*
X1000394Y474803D03*
X275589Y506366D03*
X1130698Y506697D03*
X909055Y533071D03*
Y519291D03*
X274802Y547311D03*
X1265354Y550787D03*
X188817Y573900D03*
X1265354Y564567D03*
X1271260Y580315D03*
X307945Y654724D03*
Y672441D03*
Y690157D03*
X919291Y712205D03*
X1143307Y700394D03*
X1159055D03*
X919291Y725984D03*
Y739764D03*
X810630Y755512D03*
X836220D03*
X450394Y785039D03*
X1182677Y787008D03*
X450394Y800787D03*
X531102Y853937D03*
X580315D03*
X633465D03*
X1182677Y840157D03*
X495669Y861811D03*
X540945Y873622D03*
X592126D03*
X643307D03*
X1182677Y855906D03*
X537903Y932283D03*
X588799Y932677D03*
X639098D03*
X1103937Y934646D03*
Y948425D03*
G54D176*
X659055Y153150D03*
X997638D03*
X354905Y156888D03*
X359820D03*
X388583Y165748D03*
X482809Y156136D03*
X583597D03*
X602590Y156854D03*
X608269D03*
X640157Y173622D03*
X706686Y157110D03*
X712565Y157069D03*
X960950Y156707D03*
X954466D03*
X1028299Y169055D03*
X1053299D03*
X1048299D03*
X1075299D03*
X1100299Y168164D03*
X1095299D03*
X388583Y179528D03*
X725160Y184250D03*
X978193Y176618D03*
X1023028Y187683D03*
X1025668Y189087D03*
X1036614Y192520D03*
X1044931Y193024D03*
X1035299Y181855D03*
X1053299Y178955D03*
X1083465Y192520D03*
X1068928Y187483D03*
X1082299Y181424D03*
X1072668Y189087D03*
X1091931Y193024D03*
X1100299Y179755D03*
X722047Y196457D03*
X1023328Y200183D03*
X1035299Y200687D03*
X1039565Y212079D03*
X1049871Y198583D03*
X1082299Y200687D03*
X1068928Y198583D03*
X1097071Y198883D03*
X230156Y231380D03*
Y247128D03*
X1024332Y253212D03*
X1032207D03*
X1041338Y253946D03*
X1073465Y251079D03*
X1067465Y246079D03*
X222282Y260908D03*
X860374Y273622D03*
X876123D03*
X868249D03*
X883997D03*
X899745D03*
X891871D03*
X907619D03*
X1029134Y268898D03*
Y264567D03*
X1198794Y261604D03*
X255512Y320472D03*
X1030171Y321514D03*
X1122967Y342750D03*
X114496Y373563D03*
X943542Y370464D03*
X934162Y368533D03*
X966339Y366658D03*
X958542Y370464D03*
X986039Y366658D03*
X968339Y369658D03*
X973542Y370464D03*
X1001439Y366658D03*
X988542Y370464D03*
X934162Y387133D03*
X937350Y390199D03*
X998277D03*
X1192313Y390928D03*
X448819Y411024D03*
X937350Y405199D03*
X1004414Y394835D03*
X998277Y405199D03*
X1049813Y399928D03*
Y406428D03*
Y412928D03*
X1192313Y400928D03*
Y410928D03*
X383465Y415354D03*
Y430709D03*
X538976D03*
X586220D03*
X633465D03*
X657087D03*
X934162Y416533D03*
X937350Y420199D03*
X942542Y428964D03*
X998277Y420199D03*
X990542Y428964D03*
X1192313Y420928D03*
Y430928D03*
X1245876Y425383D03*
X320865Y439437D03*
X330707Y435500D03*
X383858Y447244D03*
X562598Y446457D03*
X609843D03*
X688583D03*
X720079D03*
X751575D03*
X783071D03*
X810039Y451520D03*
X815946Y451519D03*
X820669Y451520D03*
X826576Y451519D03*
X831299Y451520D03*
X837206Y451519D03*
X842323Y451520D03*
X848230Y451519D03*
X934840Y449785D03*
X948639Y436910D03*
X1004414Y436235D03*
X1192313Y440928D03*
Y450928D03*
X383465Y460236D03*
Y472047D03*
X783071Y470079D03*
X893307Y466142D03*
X1192313Y460928D03*
Y468928D03*
X383465Y485827D03*
X787345Y482873D03*
X787347Y488780D03*
X805709Y479582D03*
X799802Y479584D03*
X862794D03*
X858858Y479582D03*
X883126Y492717D03*
X883127Y488781D03*
X883126Y482874D03*
X868701Y479582D03*
X897244Y481496D03*
X912992Y483858D03*
X1192313Y476928D03*
Y484928D03*
Y492928D03*
X267715Y506366D03*
X271652Y498492D03*
X326770Y508335D03*
Y498492D03*
X383858Y498031D03*
X383465Y509843D03*
X566535Y513386D03*
X570472Y505512D03*
X796063Y507480D03*
Y503543D03*
X861023Y503622D03*
X861006Y507479D03*
X883127Y498623D03*
Y508466D03*
X883126Y502559D03*
Y512402D03*
X893307Y498031D03*
X895276Y510236D03*
X975984Y512598D03*
X981890D03*
X1005512D03*
X999606D03*
X993701D03*
X987795D03*
X1011417D03*
X1017323D03*
X1192313Y500928D03*
Y508928D03*
X261022Y528413D03*
X248030Y524083D03*
X279526Y526051D03*
X292125Y532350D03*
X383465Y533071D03*
Y521654D03*
X570472Y521260D03*
Y529134D03*
X883127Y518309D03*
Y528151D03*
X883126Y522244D03*
X1100507Y528542D03*
X1101005Y520804D03*
X1108887Y520388D03*
Y526294D03*
X1192313Y524928D03*
Y532928D03*
Y516928D03*
X383465Y544488D03*
X586220Y544882D03*
X566535Y537008D03*
X570472Y544882D03*
X566535Y552756D03*
X743701Y546850D03*
X805709Y546512D03*
X799802Y546513D03*
X858858Y546512D03*
X852951Y546513D03*
X880357Y548935D03*
X886264Y548934D03*
X1192313Y548928D03*
Y540928D03*
X383465Y554724D03*
X387402Y564567D03*
X455512Y556693D03*
X582283Y564567D03*
X583465Y556693D03*
X586220Y568504D03*
X570472Y560630D03*
X566535Y568504D03*
X745480Y556693D03*
X753321Y564567D03*
X842715Y563048D03*
X834449Y563047D03*
X828542Y563048D03*
X848622Y563047D03*
X1192313Y556928D03*
X120433Y590220D03*
Y593720D03*
X106535Y593520D03*
X448425Y586220D03*
X477953Y590157D03*
Y582283D03*
X583071Y580315D03*
X586220Y584252D03*
X570472Y576378D03*
Y584252D03*
Y592126D03*
X120136Y597320D03*
X136435Y608120D03*
X132574Y606520D03*
X132410Y610578D03*
X448425Y609843D03*
X582283Y603937D03*
X570472Y600000D03*
X590157D03*
X753354Y596063D03*
X1257056Y601988D03*
X1273228Y607874D03*
X125735Y618520D03*
X128541Y626998D03*
X142035Y629520D03*
X130735Y618420D03*
X128135D03*
X132510Y614678D03*
X477953Y631496D03*
Y623622D03*
X537008Y619685D03*
X803740Y627898D03*
X809647Y627897D03*
X814370Y628292D03*
X820277Y628290D03*
X826575Y628292D03*
X832482Y628290D03*
X838780Y628292D03*
X844686Y628290D03*
X1259055Y618110D03*
X1255113Y629128D03*
X126335Y649020D03*
X125535Y645620D03*
X128135D03*
X130735D03*
X151435Y634820D03*
X516142Y651181D03*
Y646850D03*
X537008Y635433D03*
X941339Y648819D03*
Y640945D03*
Y645276D03*
X1265354Y647244D03*
X1247713Y649628D03*
X105138Y663120D03*
X105235Y666720D03*
X105138Y670120D03*
X151131Y663320D03*
X151035Y656320D03*
Y659720D03*
X452362Y672047D03*
X478834Y660912D03*
X513386Y668898D03*
X596063Y665748D03*
X725984D03*
X862794Y658718D03*
X858858Y658716D03*
X868701D03*
X884307Y661614D03*
Y671457D03*
X884308Y667521D03*
X881285Y655906D03*
X105283Y682006D03*
X105435Y685820D03*
X105283Y689920D03*
X150827Y682865D03*
X150571Y675263D03*
X150635Y678920D03*
X150735Y693320D03*
X150371Y689463D03*
X504724Y680709D03*
X516142Y686614D03*
Y690551D03*
X884307Y690354D03*
X884308Y686812D03*
X884307Y680906D03*
X884308Y677364D03*
X105283Y696006D03*
X105335Y699820D03*
X105283Y703920D03*
X104871Y709663D03*
X105335Y713820D03*
X150935Y706920D03*
X150827Y710865D03*
X150671Y703063D03*
X150827Y696865D03*
X516142Y702362D03*
X800449Y705315D03*
X800450Y711222D03*
X884308Y707679D03*
Y696261D03*
X884307Y701772D03*
X105283Y717820D03*
Y731920D03*
X104871Y724063D03*
X105335Y728020D03*
X452362Y726772D03*
X479528Y716142D03*
X509449Y720079D03*
X789315Y722638D03*
X789314Y716731D03*
X858858Y725645D03*
X852951Y725647D03*
X892192Y722931D03*
X892194Y728838D03*
X951099Y719055D03*
X1004486Y731988D03*
Y726988D03*
Y721988D03*
Y719488D03*
X987099Y725855D03*
X1032286Y734488D03*
Y731988D03*
Y726988D03*
Y724488D03*
Y719488D03*
Y716988D03*
X113227Y742010D03*
X503937Y736220D03*
X516142Y741732D03*
Y745669D03*
X803739Y735489D03*
X795669Y737598D03*
X821457Y743362D03*
X815550Y743363D03*
X809646Y735488D03*
X844290Y743363D03*
X835236Y743362D03*
X829329Y743363D03*
X850197Y743362D03*
X857087Y741503D03*
X908661Y754331D03*
X1004486Y744488D03*
X1032286Y741988D03*
Y739488D03*
Y736988D03*
X1226181Y742913D03*
X147669Y760760D03*
X323543Y771260D03*
X902756Y770866D03*
X940499Y774055D03*
X174803Y781496D03*
X225984Y779333D03*
X214173Y782888D03*
X237795Y782845D03*
X261417Y782854D03*
X249606Y779316D03*
X273228Y779333D03*
X292913Y782888D03*
X318283Y788976D03*
X906644Y782283D03*
X920866Y777165D03*
X147244Y800787D03*
X185958Y796850D03*
X200394Y802756D03*
X186399Y808661D03*
X318336Y812598D03*
X314753Y800787D03*
X913014Y796275D03*
X186439Y820472D03*
X186518Y832283D03*
X318307D03*
X318309Y822441D03*
X544882Y834252D03*
X598031D03*
X649213D03*
X176772Y846063D03*
X314727Y844094D03*
X186390Y859843D03*
X186416Y871654D03*
X318303Y855906D03*
X350570Y868923D03*
X350728Y873907D03*
X452665Y869028D03*
X958733Y859347D03*
X946667Y865182D03*
Y871182D03*
X1003255Y864890D03*
X993807Y866347D03*
Y870284D03*
Y874221D03*
X1006720Y867534D03*
X1022074D03*
X1024909Y864890D03*
X1015067D03*
X1042737Y872449D03*
X1030342Y867534D03*
X1045893Y872253D03*
Y868316D03*
X1044594Y862922D03*
X1038689D03*
X1034752Y864890D03*
X1047862Y870284D03*
Y866347D03*
X320930Y876371D03*
X350613Y883828D03*
X452665Y879028D03*
Y884028D03*
X538176Y892717D03*
X567336D03*
X589357D03*
X618517D03*
X640538D03*
X669698D03*
X946667Y878182D03*
Y885182D03*
X997868Y885835D03*
Y875993D03*
Y892134D03*
X993807Y882095D03*
Y889969D03*
X1018531Y875408D03*
X1042737Y885835D03*
Y892134D03*
X1045893Y891938D03*
Y884064D03*
Y876190D03*
X1210084Y876350D03*
X444216Y908844D03*
X538176Y895276D03*
Y897835D03*
X531102Y903150D03*
X557480Y900000D03*
X567336Y895276D03*
Y897835D03*
X582283Y903150D03*
X574581Y914567D03*
X589357Y895276D03*
Y897835D03*
X608661Y900000D03*
X618517Y895276D03*
Y897835D03*
X627559Y913386D03*
X640538Y895276D03*
X633465Y903150D03*
X640551Y897827D03*
X655118Y894882D03*
X675197Y913780D03*
X669698Y895276D03*
Y897835D03*
X955967Y898182D03*
Y910182D03*
X997868Y901977D03*
Y911819D03*
X993807Y897843D03*
Y901780D03*
Y909654D03*
X1042737Y911819D03*
Y901977D03*
X1047862Y899812D03*
X1080199Y899655D03*
X1078599Y910255D03*
X108031Y934173D03*
X235827Y915748D03*
X265354Y914961D03*
X281035Y931420D03*
X296035Y929320D03*
X321035Y930720D03*
X423035D03*
X465035Y931320D03*
X509675Y931218D03*
Y920418D03*
X544136Y922047D03*
X593615Y921251D03*
X644882Y921654D03*
X955967Y922182D03*
X997868Y925205D03*
X1005418Y925419D03*
X997868Y931504D03*
X993807Y917528D03*
Y931308D03*
X1006681Y933430D03*
X1042737Y925205D03*
X1031281Y933630D03*
X1034917Y925419D03*
X1042737Y931504D03*
X1045893Y929339D03*
Y921465D03*
Y917528D03*
X1066233Y928347D03*
X1047862Y933276D03*
X1078599Y915555D03*
X108031Y954173D03*
Y944173D03*
X270635Y938920D03*
X296435Y938520D03*
X310035Y938720D03*
X341119Y947576D03*
X337535Y939020D03*
X413635Y937820D03*
X444135Y954320D03*
X444535Y936320D03*
X454735Y938120D03*
X480535Y954220D03*
Y938820D03*
X488575Y936918D03*
X545735Y947620D03*
X575093D03*
X632235Y944945D03*
X636235Y944820D03*
X628235D03*
X955967Y935182D03*
Y948182D03*
X995381Y942725D03*
X1001287D03*
X1003255Y938788D03*
X1007192D03*
X1013098Y942725D03*
X1015067Y938788D03*
X1019004D03*
X1024909D03*
X1026878Y942725D03*
X1030815D03*
X1036720Y938788D03*
X1038689Y942725D03*
X1042626D03*
X1063233Y935247D03*
X1073699Y951555D03*
X1216987Y935685D03*
X1243648Y935594D03*
X1230610Y935685D03*
X108031Y964173D03*
X270635Y957120D03*
X279235Y966120D03*
X269035Y968720D03*
X305235Y955020D03*
X320335Y965520D03*
X350435Y972620D03*
X421757Y965958D03*
X413535Y957120D03*
X410435Y970520D03*
X463935Y964720D03*
X546735Y972120D03*
X578935Y971120D03*
X586235Y962620D03*
X572735Y957620D03*
X636235Y968320D03*
X632235Y968445D03*
X628235Y968320D03*
X1076133Y967947D03*
X1094227Y973853D03*
X1214961Y955512D03*
X1251969Y955118D03*
X147087Y986850D03*
X573635Y982020D03*
X587735Y986120D03*
X632235Y993445D03*
X628235Y993320D03*
X636235D03*
X1076510Y986057D03*
X1203543Y994094D03*
X1214173D03*
X1225984D03*
X1240551D03*
X1261417D03*
X1251575D03*
X215195Y1001876D03*
X492535Y1001072D03*
X547235Y996620D03*
X574035Y1006520D03*
X576093Y996620D03*
X587735Y1011120D03*
X1096589Y999837D03*
X231731Y1015239D03*
X260535Y1032120D03*
X280535D03*
X270535D03*
X300535D03*
X290535D03*
X320535D03*
X310535D03*
X340535D03*
X330535D03*
X350535D03*
X402535D03*
X422535D03*
X412535D03*
X442535D03*
X432535D03*
X462535D03*
X452535D03*
X482535D03*
X472535D03*
X492535D03*
X547235Y1021120D03*
X574235Y1031120D03*
X578735Y1020620D03*
X632235Y1018245D03*
X636235Y1018120D03*
X628235D03*
X725369Y1019325D03*
X737180Y1019286D03*
X734660Y1019325D03*
X739227Y1019286D03*
X748991D03*
X763400Y1019246D03*
X751510Y1019286D03*
X772613D03*
X778597Y1019246D03*
X770093Y1019286D03*
X802140Y1019325D03*
X790329Y1019286D03*
X817063Y1019646D03*
X825802Y1019286D03*
X814835Y1026820D03*
X837573Y1019325D03*
X831668D03*
X849384D03*
X861235Y1019286D03*
X875835Y1019320D03*
X873935Y1027120D03*
X884817Y1019246D03*
X902494Y1019325D03*
X890723D03*
X914306D03*
X921035Y1026720D03*
X937928Y1019325D03*
X929135Y1019420D03*
X1004467Y1017020D03*
X1024667Y1016920D03*
X1014567Y1017020D03*
X1084384Y1026215D03*
X1079266Y1026609D03*
X107874Y1037008D03*
X147087Y1036850D03*
X587935Y1035920D03*
X610135Y1055920D03*
X622835D03*
X635635Y1055820D03*
X648935D03*
G54D177*
X815880Y155743D03*
X916668D03*
X1160762Y215979D03*
X1182022Y216766D03*
X353446Y238497D03*
X924409Y271260D03*
X944882D03*
X935039D03*
X955118D03*
X980315Y271654D03*
X970472D03*
X1000787D03*
X990551D03*
X1193307Y273622D03*
X1201000Y275728D03*
X887795Y307087D03*
X1100000Y321654D03*
X1131496Y321260D03*
X1111024Y338583D03*
X1057087Y366535D03*
X1072047Y374409D03*
X1088583Y366142D03*
X1261550Y356924D03*
X1274148Y357711D03*
X1081496Y377953D03*
X448425Y434646D03*
X897638Y424803D03*
X914173Y420079D03*
X1263780Y431299D03*
X302755Y446720D03*
Y452626D03*
X813064Y451520D03*
X823411D03*
X815459Y442705D03*
X834240Y451520D03*
X845369D03*
X903543Y440945D03*
X896063Y441339D03*
X1263780Y437205D03*
Y441141D03*
Y447047D03*
Y451771D03*
X302755Y463256D03*
Y457350D03*
Y470342D03*
X448425Y458268D03*
X1019291Y462992D03*
X1263780Y457677D03*
X302755Y483335D03*
Y489241D03*
Y476248D03*
X448425Y485827D03*
X582283D03*
X598031D03*
X605906Y481890D03*
X590157D03*
X613780Y485827D03*
X621654Y481890D03*
X629528Y485827D03*
X645276D03*
X637402Y481890D03*
X661024Y485827D03*
X653150D03*
X684646Y491339D03*
X676772Y485827D03*
X684646Y481890D03*
X668898Y485827D03*
X700394Y481890D03*
X692520Y485827D03*
X724016D03*
X716142Y481890D03*
X708268Y485827D03*
X739764D03*
X731890Y481890D03*
X783071Y485827D03*
X787345Y485813D03*
X802657Y479584D03*
X824409Y493701D03*
X820472Y485827D03*
Y489764D03*
X824409D03*
X828346D03*
Y493701D03*
X836220Y485827D03*
Y489764D03*
X832283D03*
Y493701D03*
X856137Y479584D03*
X865883D03*
X852951D03*
X883125Y485674D03*
X1263780Y487204D03*
Y493110D03*
X448425Y509449D03*
X552756Y513386D03*
Y505512D03*
X753336Y509449D03*
X783071Y501575D03*
X828346Y513386D03*
Y509449D03*
Y505512D03*
Y501575D03*
Y497638D03*
X883122Y495598D03*
X883125Y505445D03*
X1263780Y499015D03*
Y504921D03*
Y509645D03*
X302755Y521918D03*
Y516012D03*
X552756Y529134D03*
Y521260D03*
X605906D03*
X594094Y525197D03*
X598031Y533071D03*
X625591Y521260D03*
X617717Y525197D03*
X625591Y529134D03*
X641339Y521260D03*
X637402Y533071D03*
X661024Y521260D03*
X653150Y525197D03*
X684646Y521260D03*
X668898Y529134D03*
X680709Y533071D03*
X700394Y521260D03*
X696457Y525197D03*
X724016Y521260D03*
X716142Y525197D03*
X708268Y529134D03*
X720079Y533071D03*
X727953Y529134D03*
X753309Y517323D03*
X753361Y525197D03*
X820472D03*
X824409Y517323D03*
Y521260D03*
X820472D03*
X832283Y517323D03*
X828346D03*
X836220Y525197D03*
Y521260D03*
X832283D03*
X828346D03*
X883122Y515293D03*
Y525102D03*
X962205Y531102D03*
X958268D03*
Y527165D03*
X954331D03*
Y531102D03*
X981890D03*
Y527165D03*
X1005512Y531102D03*
Y527165D03*
X1001575D03*
X991732Y523622D03*
X1017323Y531102D03*
X1029134D03*
X1060630D03*
X1048819Y527165D03*
X1084252Y531102D03*
Y527165D03*
X1080315Y531102D03*
Y527165D03*
X1068504D03*
X1088189Y531102D03*
Y527165D03*
X1263780Y515551D03*
Y526968D03*
Y532874D03*
X302755Y554594D03*
Y541603D03*
Y535697D03*
X320883Y551666D03*
X448425Y537008D03*
X552756D03*
Y552756D03*
Y544882D03*
X594094D03*
X605906Y548819D03*
X609843Y537008D03*
X621654Y540945D03*
X625591Y548819D03*
X617717Y552756D03*
X633465Y544882D03*
X645276Y548819D03*
X637402Y552756D03*
X664961Y540945D03*
X649213Y537008D03*
X657087Y552756D03*
X676772Y544882D03*
X680709Y552756D03*
X692520Y537008D03*
X704331Y540945D03*
X688583Y548819D03*
X700394Y552756D03*
X724016Y540945D03*
X716142Y544882D03*
X729921Y550787D03*
X775337Y552756D03*
X803006Y546513D03*
X855845D03*
X883250Y548935D03*
X913386Y538976D03*
X958268D03*
X962205D03*
X966142D03*
Y535039D03*
X962205D03*
X958268D03*
X954331D03*
X966142Y542913D03*
X970079D03*
X985827Y535039D03*
Y538976D03*
Y546850D03*
Y542913D03*
X978961Y549811D03*
X1001575Y538976D03*
X997638D03*
X993701Y546850D03*
X989764Y542913D03*
X999961Y549811D03*
X989961D03*
X1021260Y546850D03*
X1017323D03*
X1009961Y549811D03*
X1023921Y549802D03*
X1044676Y550000D03*
X1029134Y546850D03*
X1031961Y549811D03*
X1060630Y546850D03*
Y542913D03*
X1052756Y546850D03*
X1061961Y549811D03*
X1050961D03*
X1084252Y538976D03*
Y535039D03*
X1080315Y538976D03*
Y535039D03*
X1076378Y546850D03*
Y542913D03*
Y538976D03*
Y535039D03*
X1072441Y542913D03*
Y538976D03*
X1088189Y535039D03*
X302755Y560500D03*
X448425Y562598D03*
X552756Y568504D03*
X601969Y560630D03*
X594094Y564567D03*
X598031Y572441D03*
X625591Y568504D03*
X621654Y560630D03*
X613780Y564567D03*
X629528Y556693D03*
X641339Y572441D03*
Y560630D03*
X637402Y564567D03*
X641339D03*
X645276D03*
X649213Y556693D03*
Y572441D03*
X653150Y564567D03*
X661024D03*
Y572441D03*
X684646Y568504D03*
X676772D03*
X672835Y556693D03*
X684646Y560630D03*
Y564567D03*
X668898D03*
X676772Y572441D03*
X668898D03*
X692520Y556693D03*
X696457Y572441D03*
Y564567D03*
X720079Y572441D03*
X708268Y568504D03*
X724016Y560630D03*
X712205Y556693D03*
X729921Y570472D03*
X778938Y562598D03*
Y572441D03*
X811686Y560251D03*
X823350Y563181D03*
X845385Y563048D03*
X831552D03*
X830118Y572441D03*
X855709D03*
X914568Y554724D03*
X962205D03*
X974016Y562598D03*
Y554724D03*
X976976Y562205D03*
X984850Y562362D03*
X976976Y572205D03*
X984850Y572362D03*
X1004866Y571449D03*
X990756Y562402D03*
X995866Y571449D03*
X999803Y557685D03*
X1008803D03*
X1014866Y571449D03*
X1025866D03*
X1019803Y557685D03*
X1044346D03*
X1045874Y572244D03*
X1041409Y571449D03*
X1034346Y557685D03*
X1065543Y572402D03*
X1057669Y562402D03*
Y572402D03*
X1065543Y562402D03*
X1084252Y554724D03*
X1072441Y562598D03*
Y554724D03*
X537796Y588189D03*
X552756Y592126D03*
Y584252D03*
Y576378D03*
X605906Y588189D03*
X594094Y584252D03*
X609843Y576378D03*
X621654Y584252D03*
X629528Y592126D03*
X637402Y588189D03*
X629528Y576378D03*
X645276Y580315D03*
Y588189D03*
X637402Y580315D03*
X661024D03*
X653150D03*
X684646D03*
X676772D03*
X668898D03*
X684646Y588189D03*
X676772D03*
X700394Y592126D03*
X696457Y584252D03*
X704331Y580315D03*
X692520Y576378D03*
X716142Y584252D03*
X729921Y590157D03*
X753374Y588189D03*
X753313Y580315D03*
X834252Y576378D03*
X853937D03*
X857874Y588189D03*
X958268Y586220D03*
X985039Y581299D03*
Y586409D03*
X974016Y594094D03*
Y586220D03*
X976976Y590205D03*
Y581205D03*
X1005512Y594094D03*
Y586220D03*
Y578346D03*
X996646Y589118D03*
Y580118D03*
X1025197Y594094D03*
Y590157D03*
Y586220D03*
Y582283D03*
Y578346D03*
X1021260Y594094D03*
Y590157D03*
Y586220D03*
Y582283D03*
Y578346D03*
X1017323Y594094D03*
Y590157D03*
Y586220D03*
X1013386Y594094D03*
Y590157D03*
Y586220D03*
Y582283D03*
Y578346D03*
X1009449Y594094D03*
Y586220D03*
Y582283D03*
X1046063Y584016D03*
Y593929D03*
X1040945Y594094D03*
Y586220D03*
Y578346D03*
X1037008Y594094D03*
Y586220D03*
Y582283D03*
X1033071Y594094D03*
Y590157D03*
Y586220D03*
Y582283D03*
Y578346D03*
X1029134Y594094D03*
Y590157D03*
Y586220D03*
X1065543Y582402D03*
Y593402D03*
X1057480Y593895D03*
Y584048D03*
X1084252Y586220D03*
X1072441Y590157D03*
Y586220D03*
X334223Y597038D03*
X334779Y608865D03*
X552756Y600000D03*
X582283Y596063D03*
X594094Y603937D03*
X601969Y600000D03*
X613780Y603937D03*
X621654Y596063D03*
X625591Y611811D03*
X633465D03*
Y607874D03*
Y596063D03*
X645276D03*
Y603937D03*
Y611811D03*
X637402D03*
Y603937D03*
X661024Y596063D03*
X653150D03*
X661024Y603937D03*
X653150D03*
X661024Y611811D03*
X653150D03*
X668898Y596063D03*
X676772Y603937D03*
X668898D03*
Y611811D03*
X676772D03*
X684646D03*
Y603937D03*
X692520D03*
Y596063D03*
X712205D03*
X724409Y603937D03*
X708268Y611811D03*
X739764Y613780D03*
X729134Y609843D03*
Y613780D03*
X753292Y611811D03*
X753369Y603937D03*
X777357Y601969D03*
X780914Y609843D03*
X832087Y611811D03*
X855709D03*
X913780Y603937D03*
X962205Y601969D03*
X985039Y598634D03*
Y607635D03*
X974016Y598031D03*
X976976Y608205D03*
X976969Y599213D03*
X1005512Y613780D03*
Y605906D03*
Y598031D03*
X996646Y607118D03*
Y598118D03*
X1025197Y613780D03*
Y609843D03*
Y605906D03*
Y601969D03*
Y598031D03*
X1021260Y613780D03*
Y609843D03*
Y605906D03*
Y601969D03*
Y598031D03*
X1017323Y605906D03*
Y601969D03*
Y598031D03*
X1013386Y613780D03*
Y609843D03*
Y605906D03*
Y601969D03*
Y598031D03*
X1009449Y609843D03*
Y605906D03*
Y598031D03*
X1040945Y613780D03*
Y605906D03*
Y598031D03*
X1037008Y609843D03*
Y605906D03*
Y598031D03*
X1033071Y613780D03*
Y609843D03*
Y605906D03*
Y601969D03*
Y598031D03*
X1029134Y605906D03*
Y601969D03*
Y598031D03*
X1045874Y612244D03*
Y603244D03*
X1057669Y602402D03*
X1065543Y612402D03*
X1057669D03*
X1065543Y603402D03*
X1084252Y598031D03*
X1072441D03*
X448425Y633465D03*
X583071Y623622D03*
Y627559D03*
Y631496D03*
X598031Y623622D03*
Y615748D03*
X594094D03*
X598031Y631496D03*
X605906Y623622D03*
X621654D03*
X609843Y619685D03*
X645276Y631496D03*
X633465Y627559D03*
X629528Y619685D03*
X661024Y631496D03*
Y619685D03*
X649213D03*
X680709Y615748D03*
X672835Y619685D03*
X676772Y627559D03*
X688583Y631496D03*
X692520Y619685D03*
X704331Y623622D03*
X716142D03*
X720079Y615748D03*
X724016D03*
X708268Y631496D03*
X724016Y627559D03*
Y631496D03*
X739764Y617717D03*
X738583Y629528D03*
Y625591D03*
Y633465D03*
X806589Y627898D03*
X817297Y628292D03*
X829449D03*
X841841D03*
X958268Y629528D03*
Y633465D03*
X985039Y617482D03*
Y627258D03*
X974016Y629528D03*
Y621654D03*
X976976Y617205D03*
Y627205D03*
X996646Y616118D03*
X993898Y630504D03*
X998071Y624000D03*
X1002898Y630504D03*
X1005709Y618709D03*
X1016523Y618843D03*
X1012898Y630504D03*
X1021898D03*
X1043898D03*
X1036523Y618843D03*
X1027523D03*
X1032898Y630504D03*
X1065543Y622402D03*
X1057669D03*
X1051764Y622244D03*
X1054898Y630504D03*
X1072441Y633465D03*
Y625591D03*
X1096457Y628740D03*
X1103150Y619685D03*
Y615748D03*
Y623622D03*
X1092126Y631496D03*
Y623622D03*
X1134646Y631496D03*
X583071Y635433D03*
X598031Y651181D03*
X601969D03*
X605906Y635433D03*
X617717Y643307D03*
X609843D03*
X621392Y651412D03*
X625723D03*
X613780Y639370D03*
X617717Y635433D03*
X641339Y643307D03*
X629528D03*
X645276Y651181D03*
X629528Y639370D03*
X649213Y651181D03*
X657087Y643307D03*
X653150Y639370D03*
X649213D03*
X661024Y635433D03*
X684646Y643307D03*
X680709D03*
X672835Y639370D03*
X668898D03*
Y643307D03*
X672835Y651181D03*
X676772D03*
X700394Y635433D03*
X692520Y639370D03*
X704331Y643307D03*
X700394Y651181D03*
X696457D03*
X692520Y643307D03*
X716142Y635433D03*
X712205Y639370D03*
X720079Y651181D03*
X724016D03*
X738583Y637402D03*
X966142Y653150D03*
Y649213D03*
Y645276D03*
X962205Y653150D03*
Y649213D03*
X958268Y653150D03*
Y649213D03*
X954331Y653150D03*
Y637402D03*
X981890Y653150D03*
Y645276D03*
X970079Y649213D03*
Y645276D03*
X986024Y638378D03*
X976976Y637205D03*
X989764Y645276D03*
X995024Y638378D03*
X1004024D03*
X1025197Y653150D03*
Y645276D03*
X1021260D03*
X1013386Y653150D03*
Y645276D03*
X1014024Y638378D03*
X1023024D03*
X1045024D03*
X1034024D03*
X1060630Y653150D03*
X1056693Y641339D03*
X1048819D03*
X1063591Y635079D03*
X1056024Y638378D03*
X1084252Y653150D03*
Y649213D03*
X1080315Y653150D03*
Y649213D03*
X1076378Y653150D03*
Y649213D03*
Y645276D03*
Y641339D03*
X1072441Y649213D03*
Y645276D03*
X1102756Y635433D03*
X1088189Y653150D03*
X603937Y665748D03*
X598031Y655118D03*
X607874Y665748D03*
X623622D03*
X619685D03*
X611811Y666142D03*
X643307Y665748D03*
X639370D03*
X631496D03*
X627559D03*
X662992D03*
X655118D03*
X651181D03*
X647244D03*
X666929D03*
X674803D03*
X682677D03*
X678740D03*
X690551D03*
X694488D03*
X698425D03*
X702362D03*
X710236D03*
X714173D03*
X718110D03*
X724016Y655118D03*
X824409Y672835D03*
X820472Y664961D03*
Y668898D03*
X824409D03*
X836220Y664961D03*
X828346Y672835D03*
X832283D03*
X836220Y668898D03*
X832283D03*
X828346D03*
X865791Y658718D03*
X855752D03*
X852951D03*
X884303Y664659D03*
Y674277D03*
X966142Y657087D03*
X962205Y661024D03*
Y657087D03*
X958268Y661024D03*
Y657087D03*
X954331D03*
Y661024D03*
X1084252D03*
Y657087D03*
X1080315Y661024D03*
Y657087D03*
X1088189Y661024D03*
Y657087D03*
X795669Y682283D03*
Y686614D03*
X828346Y692520D03*
Y676772D03*
Y680709D03*
Y688583D03*
Y684646D03*
X861417D03*
X884303Y693431D03*
X884307Y683928D03*
X1001575Y685039D03*
X1020472D03*
X800445Y708285D03*
X824409Y696457D03*
Y700394D03*
X820472D03*
Y704331D03*
X836220Y700394D03*
X832283Y696457D03*
Y700394D03*
X828346D03*
Y696457D03*
X836220Y704331D03*
X884307Y704619D03*
X925197Y696456D03*
X919291D03*
X913386D03*
X931102D03*
X937008Y696457D03*
X789320Y719787D03*
X855969Y725647D03*
X892194Y725821D03*
X552756Y753543D03*
X574409D03*
X590157D03*
X674803D03*
X698425D03*
X727953D03*
X759449D03*
X785039D03*
X818577Y743363D03*
X806657Y735489D03*
X832212Y743363D03*
X847309D03*
X218110Y792913D03*
X233858D03*
X229921D03*
X261417D03*
X281102D03*
X277165D03*
X225984Y800787D03*
X218110Y804724D03*
X229921Y808661D03*
X245669Y812598D03*
X253543D03*
X281102Y808661D03*
X273228Y796850D03*
X964567Y806693D03*
X950787Y814567D03*
X225984Y820472D03*
X245669Y816535D03*
Y824409D03*
X241732Y828346D03*
X245669Y832283D03*
X237795D03*
X261417Y816535D03*
X249606Y820472D03*
X253543Y824409D03*
X249606Y828346D03*
X261417Y832283D03*
X253543D03*
X864567Y815748D03*
X964961Y830315D03*
X225984Y848031D03*
Y851969D03*
X241732Y840157D03*
X249606D03*
X253543D03*
X273228Y851969D03*
X281102Y840157D03*
X950787Y846063D03*
X218110Y855906D03*
X237795D03*
X265354D03*
X273228D03*
X281102D03*
X905118Y868110D03*
X212205Y893102D03*
X222047Y889559D03*
X245669Y893102D03*
X233858D03*
X257480Y889559D03*
X277165Y889370D03*
X269291Y893102D03*
X288387Y887795D03*
X550197Y881497D03*
X601378D03*
X652559D03*
X1095669Y886614D03*
X225197Y918898D03*
X521803Y925218D03*
X201181Y952756D03*
X221260Y944488D03*
X229921Y941732D03*
X1278085Y972672D03*
X1270998Y1007317D03*
X0Y0D02*
M02*
