*
*
G04 PADS Layout (Build Number 2007.45.1) generated Gerber (RS-274-X) file*
G04 PC Version=2.1*
*
%IN "ibob2_work2.pcb"*%
*
%MOIN*%
*
%FSLAX35Y35*%
*
*
*
*
G04 PC Standard Apertures*
*
*
G04 Thermal Relief Aperture macro.*
%AMTER*
1,1,$1,0,0*
1,0,$1-$2,0,0*
21,0,$3,$4,0,0,45*
21,0,$3,$4,0,0,135*
%
*
*
G04 Annular Aperture macro.*
%AMANN*
1,1,$1,0,0*
1,0,$2,0,0*
%
*
*
G04 Odd Aperture macro.*
%AMODD*
1,1,$1,0,0*
1,0,$1-0.005,0,0*
%
*
*
G04 PC Custom Aperture Macros*
*
*
*
*
*
*
G04 PC Aperture Table*
*
%ADD010C,0.01*%
%ADD014C,0.03937*%
%ADD015C,0.06*%
%ADD017R,0.02362X0.02362*%
%ADD026C,0.01969*%
%ADD063C,0.02*%
%ADD087C,0.02165*%
%ADD094C,0.07874*%
%ADD102C,0.0748*%
%ADD114C,0.04331*%
%ADD115C,0.05512*%
%ADD116C,0.09646*%
%ADD117C,0.06299*%
%ADD118C,0.07087*%
%ADD119C,0.085*%
%ADD120C,0.09449*%
%ADD121ANN,0.09843X0.05906*%
%ADD122C,0.05413*%
%ADD123C,0.1378*%
%ADD124TER,0.06X0.015X0.01X0.06364*%
%ADD125TER,0.06299X0.01575X0.0105X0.06681*%
%ADD126TER,0.085X0.02125X0.01417X0.09015*%
%ADD127TER,0.288X0.072X0.048X0.30545*%
%ADD128TER,0.02165X0.00541X0.00361X0.02297*%
%ADD129TER,0.19685X0.04921X0.03281X0.20878*%
%ADD130TER,0.09449X0.02362X0.01575X0.10021*%
%ADD131TER,0.11811X0.02953X0.01969X0.12527*%
%ADD132TER,0.07087X0.01772X0.01181X0.07516*%
%ADD133TER,0.09843X0.02461X0.0164X0.10439*%
%ADD134TER,0.07874X0.01969X0.01312X0.08351*%
%ADD135TER,0.07X0.0175X0.01167X0.07424*%
%ADD136TER,0.05512X0.01378X0.00919X0.05846*%
%ADD137TER,0.09X0.0225X0.015X0.09545*%
%ADD138TER,0.04331X0.01083X0.00722X0.04593*%
%ADD139C,0.05906*%
%ADD140TER,0.05906X0.01476X0.00984X0.06263*%
%ADD141TER,0.02X0.005X0.00333X0.02121*%
%ADD142TER,0.01969X0.00492X0.00328X0.02088*%
*
*
*
*
G04 PC Copper Outlines (0)*
G04 Layer Name ibob2_work2.pcb - dark (0)*
%LPD*%
*
*
G04 PC Area=Custom_Thermal*
*
G04 PC Custom Flashes*
G04 Layer Name ibob2_work2.pcb - flashes*
%LPD*%
*
*
G04 PC Circuitry*
G04 Layer Name ibob2_work2.pcb - circuitry*
%LPD*%
*
G54D10*
G01X1129755Y823504D02*
Y823816D01*
X1129982Y824441*
X1130209Y824754*
X1130664Y825066*
X1131573*
X1132028Y824754*
X1132255Y824441*
X1132482Y823816*
Y823191*
X1132255Y822566*
X1131800Y821629*
X1129528Y818504*
X1132709*
X1289243Y459209D02*
G75*
G03X1289243I-1960J0D01*
G01X1297073Y457768D02*
G03X1297073I-1960J0D01*
G54D14*
G01X705580Y1032646D03*
X713769Y1025481D03*
X953532D03*
X961800Y1032568D03*
G54D15*
X1044701Y991668D03*
X1039701Y1001668D03*
X1034701Y991668D03*
X1029701Y1001668D03*
X1024701Y991668D03*
X1019701Y1001668D03*
X1014701Y991668D03*
X1009701Y1001668D03*
X1004701Y991668D03*
X1048301Y1042668D03*
X1038301D03*
X1006101D03*
X996101D03*
X110203Y224057D03*
Y174057D03*
X160203D03*
X172703D03*
X222703D03*
X235203D03*
Y199057D03*
Y211557D03*
Y224057D03*
X1294709Y889694D03*
X1284709D03*
X1274709D03*
X1264709D03*
X1254709D03*
G54D17*
X672835Y682579D02*
Y682382D01*
Y679035D02*
Y678839D01*
X568898Y682579D02*
Y682382D01*
Y679035D02*
Y678839D01*
X564961Y682579D02*
Y682382D01*
Y679035D02*
Y678839D01*
X561024Y682579D02*
Y682382D01*
Y679035D02*
Y678839D01*
X557087Y682579D02*
Y682382D01*
Y679035D02*
Y678839D01*
X633465Y682579D02*
Y682382D01*
Y679035D02*
Y678839D01*
X629528Y682579D02*
Y682382D01*
Y679035D02*
Y678839D01*
X621654Y682579D02*
Y682382D01*
Y679035D02*
Y678839D01*
X625591Y682579D02*
Y682382D01*
Y679035D02*
Y678839D01*
X609843Y682579D02*
Y682382D01*
Y679035D02*
Y678839D01*
X605906Y682579D02*
Y682382D01*
Y679035D02*
Y678839D01*
X580709Y682579D02*
Y682382D01*
Y679035D02*
Y678839D01*
X584646Y682579D02*
Y682382D01*
Y679035D02*
Y678839D01*
X657087Y682579D02*
Y682382D01*
Y679035D02*
Y678839D01*
X653150Y682579D02*
Y682382D01*
Y679035D02*
Y678839D01*
X645276Y682579D02*
Y682382D01*
Y679035D02*
Y678839D01*
X649213Y682579D02*
Y682382D01*
Y679035D02*
Y678839D01*
X680709Y682579D02*
Y682382D01*
Y679035D02*
Y678839D01*
X676772Y682579D02*
Y682382D01*
Y679035D02*
Y678839D01*
X668898Y682579D02*
Y682382D01*
Y679035D02*
Y678839D01*
X740157Y682579D02*
Y682382D01*
Y679035D02*
Y678839D01*
X736220Y682579D02*
Y682382D01*
Y679035D02*
Y678839D01*
X716142Y682579D02*
Y682382D01*
Y679035D02*
Y678839D01*
X720079Y682579D02*
Y682382D01*
Y679035D02*
Y678839D01*
X696457Y682579D02*
Y682382D01*
Y679035D02*
Y678839D01*
X692520Y682579D02*
Y682382D01*
Y679035D02*
Y678839D01*
X704331Y682579D02*
Y682382D01*
Y679035D02*
Y678839D01*
X700394Y682579D02*
Y682382D01*
Y679035D02*
Y678839D01*
X757480Y682579D02*
Y682382D01*
Y679035D02*
Y678839D01*
X753543Y682579D02*
Y682382D01*
Y679035D02*
Y678839D01*
X764961Y682972D02*
Y682776D01*
Y679429D02*
Y679232D01*
X768898Y682972D02*
Y682776D01*
Y679429D02*
Y679232D01*
G54D26*
X216142Y109055D03*
X220472D03*
X238189Y116142D03*
X294488Y112992D03*
X296850D03*
X299213D03*
X645276Y157087D03*
X943773Y157144D03*
X999606Y141339D03*
X340157Y172835D03*
X361811D03*
X592126Y170866D03*
X684646Y174803D03*
X706299D03*
X946457Y172835D03*
X1025197Y159055D03*
X220866Y217717D03*
X214961Y208661D03*
X324016Y203543D03*
X1035268Y205992D03*
X1039268D03*
X1082268D03*
X1086268D03*
X247638Y235433D03*
X602491Y233549D03*
X605155Y233561D03*
X596585Y233549D03*
X599249Y233561D03*
X590680Y233549D03*
X593344Y233561D03*
X626113Y233549D03*
X611060Y233561D03*
X608397Y233549D03*
X620208D03*
X622871Y233561D03*
X616966D03*
X614302Y233549D03*
X628777Y233561D03*
X643830Y233549D03*
X646493Y233561D03*
X640588D03*
X637924Y233549D03*
X632019D03*
X634682Y233561D03*
X675326Y233549D03*
X677989Y233561D03*
X672084D03*
X669420Y233549D03*
X683895Y233561D03*
X687137Y233549D03*
X681231D03*
X693042D03*
X695706Y233561D03*
X701612D03*
X698948Y233549D03*
X704853D03*
X707517Y233561D03*
X689800D03*
X719328D03*
X716664Y233549D03*
X710759D03*
X713423Y233561D03*
X722441Y233465D03*
X725197D03*
X1211605Y238583D03*
X1218891D03*
X237008Y239764D03*
X238583Y256693D03*
X593307Y258268D03*
X590551D03*
X602362D03*
X605118D03*
X608268D03*
X599213D03*
X596457D03*
X620079D03*
X622835D03*
X625984D03*
X611024D03*
X643701D03*
X646457D03*
X631890D03*
X634646D03*
X628740D03*
X687008D03*
X672047D03*
X675197D03*
X669291D03*
X677953D03*
X689764D03*
X704724D03*
X695669D03*
X692913D03*
X707480D03*
X725197Y257087D03*
X722441D03*
X710630Y258268D03*
X713386D03*
X235039Y275197D03*
X246850Y270079D03*
X683858Y263386D03*
X681102D03*
X698819D03*
X701575D03*
X716535D03*
X719291D03*
X1200649Y262030D03*
X893839Y295560D03*
X1283071Y290551D03*
X208268Y314173D03*
X862598Y311024D03*
X885965Y309142D03*
X877268Y309492D03*
X1283071Y314567D03*
X1312598Y302756D03*
X277165Y324409D03*
X862598Y321653D03*
X877953Y323622D03*
X889764Y321653D03*
X1028268Y321992D03*
X1038583Y322047D03*
X1111319Y326674D03*
X1102362Y358267D03*
X1118768Y358492D03*
X1118013Y346063D03*
X1113878Y349902D03*
X850000Y372441D03*
X849606Y376378D03*
X924409Y373228D03*
X911024Y378346D03*
X954268Y377992D03*
X997768Y367992D03*
X999606Y359055D03*
X1003543D03*
X1001575Y368110D03*
X1124016Y366928D03*
X1114960Y362205D03*
X1129921Y366535D03*
X133071Y379134D03*
X200787Y391732D03*
X286614Y382677D03*
X281496Y395276D03*
X908268Y379921D03*
X924409Y383465D03*
Y387008D03*
Y392913D03*
X922441Y394882D03*
X924409Y396850D03*
X924768Y380992D03*
X912992Y381496D03*
X918898Y383465D03*
X933768Y384992D03*
X1062768Y388992D03*
X1082950Y385321D03*
X1073878Y398523D03*
X1090157Y397637D03*
X1281890Y384252D03*
X118110Y414567D03*
X142913Y405906D03*
X201181Y404724D03*
X274803Y403543D03*
X326378Y412992D03*
X336220Y416929D03*
X434646Y414961D03*
X899606Y412992D03*
X922835Y406693D03*
X922441Y398819D03*
X922835Y402756D03*
X924409Y400787D03*
Y410630D03*
Y414567D03*
X1017717D03*
X1062598Y399213D03*
X1079134Y407873D03*
X1083858Y408267D03*
X1297638Y404554D03*
X389370Y419685D03*
X388976Y435039D03*
X434646Y438583D03*
X472268Y422992D03*
X564567Y434646D03*
X611811D03*
X674803Y427559D03*
X690551Y434646D03*
X722047D03*
X753543D03*
X785039D03*
X818110Y437008D03*
X812598D03*
X898268Y434390D03*
X905630Y434076D03*
X903150Y430315D03*
X908661Y418898D03*
X924409Y438189D03*
X935822Y424422D03*
X935433Y428346D03*
X976167Y438068D03*
X1017717Y428346D03*
X1017713Y436233D03*
Y424422D03*
X1009053Y426390D03*
X1008661Y430315D03*
X1306299Y427559D03*
X389370Y451181D03*
X540945Y450394D03*
X588189D03*
X635827Y450000D03*
X666929Y440945D03*
X659055Y450394D03*
X938583Y440945D03*
X944488Y443307D03*
X946457Y452362D03*
X940551Y443307D03*
X942520Y452362D03*
X968110D03*
X960236D03*
X966142Y443307D03*
X952362Y452362D03*
X956299D03*
X958268Y443307D03*
X964173Y440945D03*
X948425Y443307D03*
X987999Y455118D03*
X986004Y453543D03*
X975984Y443307D03*
X983858D03*
X981890Y452362D03*
X969291Y441732D03*
X972047Y452362D03*
X977953D03*
X970079Y454724D03*
X989941Y453543D03*
X261417Y475984D03*
X332283Y472047D03*
X388976Y464173D03*
Y476378D03*
X434252Y462205D03*
X776490Y465184D03*
X769291Y474016D03*
X804626Y472386D03*
X811768Y474492D03*
X867972Y472386D03*
X857986Y472390D03*
X1293701Y462688D03*
X255512Y497638D03*
X261417Y483858D03*
X285039Y495669D03*
X288583D03*
X332283Y481890D03*
X331268Y491492D03*
X335268Y492992D03*
X388976Y489764D03*
X434646D03*
X498268Y486492D03*
X584252Y485827D03*
X592126Y489764D03*
X607874D03*
X600000Y485827D03*
X623622Y489764D03*
X615748Y485827D03*
X639370Y489764D03*
X631496Y485827D03*
X647244D03*
X662992D03*
X655118D03*
X686614Y489764D03*
X670866Y485827D03*
X678740D03*
X702362Y489764D03*
X694488Y485827D03*
X718110Y489764D03*
X725984Y485827D03*
X710236D03*
X733858Y489764D03*
X741732Y485827D03*
X769291Y489764D03*
X800445Y489750D03*
X814173Y481890D03*
X822441Y497638D03*
X818504Y485827D03*
X814567Y497638D03*
X818504Y489764D03*
X822441Y485433D03*
X826378Y489764D03*
Y481890D03*
X822441D03*
X818504D03*
X826378Y485827D03*
X818504Y493701D03*
Y497638D03*
X814567Y489764D03*
X838189Y497638D03*
X830315Y489764D03*
X842126Y481890D03*
X838189D03*
X834252D03*
X842126Y485827D03*
X838189D03*
X834252D03*
X846063D03*
X834252Y489764D03*
X853937Y497638D03*
X850000D03*
Y485827D03*
Y489764D03*
Y493701D03*
X895276Y484646D03*
X962205Y483858D03*
X974016D03*
X260630Y510630D03*
X275197Y513386D03*
X331268Y501492D03*
X389370Y501575D03*
X388976Y513780D03*
X434646Y513386D03*
X502268Y517492D03*
X558661Y509449D03*
Y517323D03*
X568504Y509449D03*
X572441Y517323D03*
X686614Y517717D03*
X674803Y511811D03*
X682677Y517323D03*
Y514961D03*
X678740Y513386D03*
X686614Y503937D03*
X751746Y513386D03*
X769291Y505512D03*
X808268Y511417D03*
X814567Y509449D03*
X826378Y517323D03*
Y513386D03*
Y509449D03*
Y501575D03*
Y505512D03*
X822441Y517323D03*
Y513386D03*
Y509449D03*
Y505512D03*
Y501575D03*
X818504Y509449D03*
Y505512D03*
X814567Y517323D03*
X818504Y501575D03*
Y517323D03*
Y513386D03*
X846063Y509449D03*
X834252Y517323D03*
Y513386D03*
Y509449D03*
Y501575D03*
Y505512D03*
X838189Y517323D03*
Y513386D03*
X842126Y509449D03*
X838189D03*
Y505512D03*
Y501575D03*
X846063Y505512D03*
X850000Y509449D03*
X853937Y517323D03*
Y501575D03*
X850000Y517323D03*
Y505512D03*
Y501575D03*
X903150Y515354D03*
X905512Y513386D03*
X1055118Y500885D03*
X1056693Y515354D03*
X275197Y519291D03*
X379768Y531492D03*
X389370Y537008D03*
X388976Y525591D03*
X528768Y531992D03*
X558661Y533071D03*
Y525197D03*
X568504D03*
X600000Y533071D03*
X596063D03*
X607874D03*
X603937Y537008D03*
X596063D03*
X607874D03*
X611811Y533071D03*
X615748D03*
X623622Y537008D03*
X627559D03*
X611811D03*
X615748D03*
X619685Y533071D03*
X623622D03*
X627559Y529134D03*
X619685Y537008D03*
X631496Y533071D03*
X635433D03*
X631496Y537008D03*
X635433D03*
X631496Y529134D03*
X643307D03*
X647244D03*
X635433D03*
X647244Y533071D03*
X643307D03*
X639370D03*
X643307Y537008D03*
X647244D03*
X651181Y533071D03*
Y529134D03*
Y537008D03*
X655118D03*
X662992Y529134D03*
Y533071D03*
X666929Y537008D03*
Y533071D03*
X659055Y537008D03*
X666929Y529134D03*
X655118Y533071D03*
X659055D03*
X686614Y537008D03*
X670866Y529134D03*
X674803Y525197D03*
Y529134D03*
X686614Y533071D03*
X674803Y520866D03*
X678740Y533071D03*
X686614Y521260D03*
Y529134D03*
X678740Y519291D03*
X682677Y533071D03*
X678740Y529134D03*
X670866Y525197D03*
Y537008D03*
X674803D03*
X698425D03*
X706299D03*
X702362Y533071D03*
X706299D03*
X690551Y537008D03*
X694488D03*
X698425Y533071D03*
X702362Y529134D03*
X694488D03*
Y533071D03*
X690551Y529134D03*
Y533071D03*
X702362Y537008D03*
X718110D03*
X710236D03*
X714173D03*
X718110Y533071D03*
X722047D03*
Y529134D03*
X725984D03*
Y533071D03*
Y537008D03*
X745520D03*
X729921Y529134D03*
Y537008D03*
X751771Y521260D03*
Y529134D03*
X822441Y521260D03*
X814567Y533071D03*
Y521260D03*
X818504Y525197D03*
Y521260D03*
X826378Y533071D03*
X814567Y537008D03*
X826378D03*
X818504D03*
X822441D03*
X818504Y529134D03*
X814567Y525197D03*
X838189Y521260D03*
X830315Y537008D03*
X834252D03*
Y533071D03*
X838189D03*
X846063Y537008D03*
X842126D03*
X838189D03*
X850000Y533071D03*
X853937Y521260D03*
Y533071D03*
X850000Y525197D03*
X853937Y529134D03*
X850000Y521260D03*
X865354Y521654D03*
X999606Y535039D03*
Y531102D03*
X991732D03*
Y535039D03*
X1003543D03*
X1011417D03*
X1027165Y531102D03*
Y535039D03*
X1011417Y531102D03*
X1015354D03*
X1023228Y535039D03*
X1046850D03*
X1031102Y531102D03*
X1035039Y535039D03*
Y531102D03*
X1038976D03*
X1042913Y535039D03*
Y531102D03*
X1038976Y535039D03*
X1054724D03*
X1058661D03*
X1062598Y531102D03*
X1066535D03*
Y535039D03*
X1050787D03*
X1074409D03*
X1070472D03*
X1078346D03*
X336220Y556693D03*
X336614Y545669D03*
Y540945D03*
X388976Y548425D03*
X434646Y540945D03*
X558661Y556693D03*
Y540945D03*
Y548819D03*
X568504D03*
X572441Y540945D03*
Y556693D03*
X596063D03*
X600000D03*
X607874Y548819D03*
X603937Y544882D03*
X607874Y556693D03*
X603937D03*
X596063Y540945D03*
X603937Y548819D03*
Y552756D03*
X600000Y544882D03*
X607874D03*
X600000Y540945D03*
X596063Y552756D03*
X600000Y548819D03*
X596063Y544882D03*
X607874Y540945D03*
X600000Y552756D03*
X603937Y540945D03*
X619685D03*
X615748D03*
X619685Y548819D03*
X623622D03*
X615748Y556693D03*
X619685Y552756D03*
X627559Y556693D03*
X611811D03*
X615748Y552756D03*
X623622Y556693D03*
Y552756D03*
X619685Y544882D03*
X623622Y540945D03*
X627559Y544882D03*
Y540945D03*
Y548819D03*
X611811D03*
Y552756D03*
Y544882D03*
X615748D03*
Y548819D03*
X631496Y544882D03*
X635433D03*
Y552756D03*
X639370Y548819D03*
X643307Y540945D03*
X639370D03*
Y552756D03*
X643307D03*
X631496Y548819D03*
Y552756D03*
Y556693D03*
X635433Y540945D03*
X639370Y544882D03*
X635433Y556693D03*
X647244Y544882D03*
Y540945D03*
Y556693D03*
X631496Y540945D03*
X643307Y544882D03*
Y548819D03*
X647244D03*
X643307Y556693D03*
X662992D03*
X666929D03*
X655118Y552756D03*
X651181D03*
X659055Y548819D03*
Y552756D03*
X655118Y544882D03*
X659055D03*
X655118Y548819D03*
X666929D03*
Y552756D03*
Y540945D03*
X655118D03*
X659055D03*
X651181Y556693D03*
X655118D03*
X651181Y548819D03*
Y544882D03*
X682677Y548819D03*
X686614D03*
Y540945D03*
X682677D03*
X686614Y556693D03*
X678740Y552756D03*
X682677D03*
X678740Y544882D03*
X682677D03*
X674803Y548819D03*
Y544882D03*
X670866D03*
Y548819D03*
X674803Y540945D03*
X686614Y544882D03*
X670866Y552756D03*
Y540945D03*
Y556693D03*
X678740D03*
X674803Y552756D03*
Y556693D03*
X690551D03*
X698425Y540945D03*
Y544882D03*
X702362D03*
X706299Y556693D03*
X690551Y540945D03*
Y548819D03*
X694488D03*
Y552756D03*
Y556693D03*
X698425Y552756D03*
Y556693D03*
X702362Y540945D03*
X690551Y544882D03*
X694488D03*
X702362Y552756D03*
X706299D03*
Y540945D03*
X702362Y548819D03*
X706299D03*
X698425D03*
X725984D03*
X722047Y544882D03*
X725984Y552756D03*
X710236D03*
X722047Y556693D03*
X710236D03*
X714173Y552756D03*
Y556693D03*
X710236Y540945D03*
Y548819D03*
X714173D03*
X710236Y544882D03*
X714173D03*
Y540945D03*
X718110Y556693D03*
X722047Y552756D03*
Y548819D03*
X718110Y552756D03*
X725984Y540945D03*
X722047D03*
X718110D03*
X725984Y556693D03*
X718110Y544882D03*
X739360Y540945D03*
X730709Y548031D03*
X729921Y556693D03*
X733858Y550787D03*
X729921Y540945D03*
Y544882D03*
X780907Y556693D03*
X804566Y539315D03*
X824768Y543492D03*
X810630Y540945D03*
X826772D03*
X822441Y541339D03*
X834252Y540945D03*
X850000D03*
X850118Y547638D03*
X916536Y554724D03*
Y546850D03*
Y538976D03*
X925268Y545492D03*
X916536Y550787D03*
X948425D03*
X964173Y546850D03*
X956299Y542913D03*
X955768Y547992D03*
X964173Y551181D03*
X972047D03*
X979921D03*
X984472Y553748D03*
X983858Y551181D03*
X999768Y546992D03*
X1007480Y538976D03*
X995669Y546850D03*
X991732Y542913D03*
Y538976D03*
X995669Y542913D03*
X999606Y550787D03*
X1007480D03*
X1003543D03*
X1005472Y553748D03*
X991732Y551181D03*
X995472Y553748D03*
X1003543Y538976D03*
X1007480Y542913D03*
X1015472Y553748D03*
X1015354Y550787D03*
X1011417D03*
X1027165D03*
Y538976D03*
Y542913D03*
X1019291Y538976D03*
X1015354D03*
X1019291Y542913D03*
X1023228D03*
X1015354D03*
X1011417Y538976D03*
X1035039Y542913D03*
X1029424Y553739D03*
X1046850Y550787D03*
X1042913D03*
X1037472Y553748D03*
X1038976Y550787D03*
X1035039D03*
X1043132Y553937D03*
X1031102Y542913D03*
Y538976D03*
X1035039D03*
X1046850Y542913D03*
X1038976Y538976D03*
X1046850D03*
X1038976Y542913D03*
X1042913Y538976D03*
Y542913D03*
X1058661D03*
X1067472Y553748D03*
X1050787Y550787D03*
X1058661D03*
X1056472Y553748D03*
X1066535Y546850D03*
X1054724Y538976D03*
X1062598D03*
X1058661D03*
X1054724Y542913D03*
X1066535Y538976D03*
Y542913D03*
X1062598D03*
X1050787Y538976D03*
Y542913D03*
X1086220Y546850D03*
X1070472D03*
X1074409Y554724D03*
Y550787D03*
X1070472Y542913D03*
X1074409Y538976D03*
X1070472D03*
X1082283Y554724D03*
Y550787D03*
Y546850D03*
X1086220Y554724D03*
X1078346D03*
X1086220Y550787D03*
X1090157Y554724D03*
Y546850D03*
X1091339Y541732D03*
X1090157Y550787D03*
X326575Y571850D03*
X336220Y568504D03*
X328740Y573819D03*
X385433Y568504D03*
X389370Y558661D03*
X434646Y566535D03*
X463999Y565111D03*
X501181Y561417D03*
X534268Y569992D03*
X554724Y564567D03*
X552268Y577492D03*
X572441Y572441D03*
X584268Y575492D03*
X582268Y571492D03*
X575268Y563492D03*
X607874Y560630D03*
X596063D03*
X607874Y564567D03*
Y572441D03*
X596063D03*
X607874Y568504D03*
X603937D03*
Y560630D03*
X607874Y576378D03*
X600000Y568504D03*
Y572441D03*
X603937D03*
Y576378D03*
X600000Y560630D03*
X627559Y564567D03*
X623622Y560630D03*
X627559D03*
X615748D03*
X619685D03*
X611811D03*
Y576378D03*
X615748D03*
X619685Y568504D03*
X615748Y564567D03*
X611811D03*
X619685D03*
X615748Y572441D03*
X611811D03*
Y568504D03*
X623622D03*
X627559Y576378D03*
X623622D03*
X627559Y568504D03*
X619685Y576378D03*
X635433Y572441D03*
X647244Y576378D03*
X635433Y564567D03*
X631496D03*
X639370D03*
Y560630D03*
X635433D03*
X647244Y564567D03*
Y560630D03*
X643307D03*
X635433Y576378D03*
X639370Y572441D03*
X631496D03*
Y576378D03*
Y568504D03*
X655118Y576378D03*
X666929D03*
X659055D03*
X655118Y564567D03*
X659055D03*
X651181D03*
X666929D03*
X662992D03*
X651181Y568504D03*
X659055D03*
X666929D03*
Y560630D03*
X659055D03*
X655118D03*
X674803Y576378D03*
X686614Y560630D03*
X670866Y564567D03*
X678740Y560630D03*
X682677D03*
X674803Y568504D03*
X682677Y576378D03*
X670866Y560630D03*
X678740Y564567D03*
X674803D03*
X682677Y572441D03*
Y568504D03*
X678740D03*
X686614Y576378D03*
X706299Y564567D03*
X690551Y560630D03*
Y564567D03*
X694488D03*
X702362Y560630D03*
Y564567D03*
X706299Y560630D03*
X698425Y564567D03*
Y560630D03*
X694488Y576378D03*
X706299D03*
X702362D03*
Y568504D03*
X706299D03*
X694488D03*
X702362Y572441D03*
X690551Y576378D03*
X694488Y572441D03*
X698425D03*
X706299D03*
X714173Y564567D03*
X718110D03*
X710236Y560630D03*
X718110Y568504D03*
X725984Y576378D03*
Y572441D03*
Y560630D03*
Y568504D03*
X722047Y560630D03*
Y564567D03*
X718110Y560630D03*
X710236Y568504D03*
X714173D03*
X710236Y575984D03*
Y564567D03*
X714173Y572441D03*
X722047Y568504D03*
X718110Y576378D03*
X714173D03*
X721654Y572441D03*
X744488Y560630D03*
X729921Y576378D03*
X731102Y571260D03*
X729921Y568110D03*
Y560630D03*
X739768Y561492D03*
X755302Y576378D03*
X749268Y569492D03*
X752768Y566992D03*
X777559Y566929D03*
X777401Y576378D03*
X786268Y575492D03*
X804768Y559992D03*
X799768Y577992D03*
X796768Y559992D03*
X828543Y576378D03*
X854134D03*
X853268Y566992D03*
X916536Y562598D03*
X925197D03*
Y566929D03*
X932677Y570472D03*
X968110Y558661D03*
Y562598D03*
X956299Y578346D03*
X964173D03*
X956693Y570472D03*
X960236Y578346D03*
X968110Y574409D03*
X956299D03*
X964173Y570472D03*
Y574409D03*
X968110Y570472D03*
X960236Y562598D03*
X968110Y578346D03*
X960236Y570472D03*
X986819Y562756D03*
X975984Y570472D03*
X978945Y562598D03*
X975984Y574409D03*
X978945Y572598D03*
X975984Y578346D03*
X986819Y572756D03*
X1004724Y568504D03*
X1001378Y575386D03*
X1005315Y561622D03*
X992724Y562795D03*
X1010435Y575407D03*
X1014315Y561622D03*
X1020378Y575386D03*
X1025315Y561622D03*
X1045669Y568504D03*
X1039835Y575386D03*
X1038976Y578346D03*
X1047843Y572638D03*
X1031332Y575209D03*
X1032772Y561622D03*
X1042772D03*
X1067512Y572795D03*
X1059638D03*
Y562795D03*
X1067512D03*
X1078346Y566535D03*
X1070472Y578346D03*
Y574409D03*
Y570472D03*
X1086220Y574409D03*
X1074409Y562598D03*
X1082283Y566535D03*
X1086220Y570472D03*
X1078346Y562598D03*
X1082283D03*
X1078346Y570472D03*
X1082283D03*
Y578346D03*
Y574409D03*
X1078346Y578346D03*
Y574409D03*
X1086220Y578346D03*
Y566535D03*
Y562598D03*
X1082283Y558661D03*
X1078346D03*
X1090157Y574409D03*
Y578346D03*
Y558661D03*
X434646Y590157D03*
X479921Y598031D03*
X499213Y592913D03*
X497433Y594827D03*
X539268Y581492D03*
X541268Y585492D03*
X548424Y592126D03*
X558661Y596063D03*
Y580315D03*
Y588189D03*
X568504Y580315D03*
Y596063D03*
Y588189D03*
X579134Y579134D03*
X603937Y588189D03*
Y584252D03*
X600000Y596063D03*
X607874Y588189D03*
X596063Y580315D03*
Y584252D03*
X600000Y588189D03*
X595276Y596063D03*
X600000Y592126D03*
X603937D03*
X607874Y584252D03*
Y580315D03*
X603937Y596063D03*
Y580315D03*
X600000Y584252D03*
Y580315D03*
X608268Y596063D03*
X623622Y592126D03*
X619685Y588189D03*
X611811Y592126D03*
X615748D03*
X623622Y580315D03*
X615748Y588189D03*
Y580315D03*
Y596063D03*
X611811Y588189D03*
Y584252D03*
X615748D03*
X611811Y596063D03*
X623622Y584252D03*
X627559Y592126D03*
Y588189D03*
X627953Y584252D03*
X627559Y580315D03*
X619685Y596063D03*
X623622D03*
X619685Y584252D03*
Y580315D03*
X631496Y588189D03*
X635433Y592126D03*
X643307Y584252D03*
Y592126D03*
X635433Y580315D03*
Y588189D03*
Y584252D03*
X631496Y592126D03*
Y596063D03*
Y584252D03*
X662992Y592126D03*
X659055D03*
X666929Y584252D03*
X659055D03*
X651181D03*
Y592126D03*
X655118Y596063D03*
Y592126D03*
X666929Y596063D03*
X682677Y584252D03*
X674803D03*
X682677Y592126D03*
X674803D03*
X686614Y580315D03*
X706299Y588189D03*
X698425Y580315D03*
X702362Y584252D03*
Y580315D03*
X690551Y592126D03*
Y596063D03*
X702362Y588189D03*
X690551Y584252D03*
X694488D03*
X698425Y596063D03*
X702362Y592126D03*
X698425Y584252D03*
X694488Y588189D03*
Y596063D03*
X690551Y580709D03*
X706299Y580315D03*
Y596063D03*
Y592126D03*
X714173Y588189D03*
X710236Y583858D03*
X722047Y596063D03*
X710236Y592126D03*
X725984Y584252D03*
X714173Y580315D03*
X722047Y584252D03*
Y588189D03*
X725984Y580315D03*
X722047D03*
X714173Y596063D03*
Y592126D03*
X722047D03*
X710236Y596063D03*
X714173Y584252D03*
X710236Y580709D03*
Y588583D03*
X725984Y596063D03*
X718110D03*
Y580315D03*
Y584252D03*
X733465Y588189D03*
X729921Y584252D03*
Y580315D03*
Y596063D03*
X739268Y594492D03*
X734268Y595992D03*
X741268Y592992D03*
X742913Y581890D03*
X751777Y592126D03*
X757768Y593992D03*
X800000Y583071D03*
X795268Y578992D03*
X828768Y591992D03*
X836220Y584252D03*
Y588189D03*
X840157Y592126D03*
X832283Y584252D03*
X848031Y588583D03*
X844094Y580315D03*
X848031Y592126D03*
Y580315D03*
X836220Y592126D03*
X840157Y584252D03*
Y588189D03*
Y580315D03*
X855906Y584252D03*
X851969Y592126D03*
Y584252D03*
Y588583D03*
X859843Y584252D03*
X855906Y592126D03*
X851969Y580315D03*
X859843Y588189D03*
X869768Y587992D03*
X896457Y596457D03*
X907874Y582283D03*
X905906Y596457D03*
X915748Y587008D03*
Y591732D03*
Y596457D03*
X918110Y582283D03*
X968110Y594094D03*
X956299Y590157D03*
X964173Y586220D03*
X960236Y582283D03*
X956299Y586220D03*
Y582283D03*
X960236Y586220D03*
X968110D03*
X964173Y598031D03*
Y582283D03*
X968110D03*
X972047Y594094D03*
X987008Y593880D03*
X975984Y582283D03*
Y586220D03*
X978945Y590598D03*
Y581598D03*
X975984Y594094D03*
X987008Y581694D03*
X998614Y589512D03*
Y598512D03*
X1007480Y594094D03*
Y586220D03*
X998614Y580512D03*
X1011417Y594094D03*
X1019291Y586220D03*
Y582283D03*
X1011417D03*
X1048031Y584433D03*
X1042913Y594094D03*
X1038976D03*
X1031102Y586220D03*
Y582283D03*
X1042913Y586220D03*
X1048031Y594279D03*
X1067512Y593795D03*
X1059449Y594279D03*
Y584433D03*
X1067512Y582795D03*
X1070472Y586220D03*
Y582283D03*
X1074409Y598031D03*
X1078346Y590157D03*
Y598031D03*
X1086220Y582283D03*
X1082283D03*
Y586220D03*
X1086220D03*
X1082283Y594094D03*
X1078346D03*
Y586220D03*
X1082283Y590157D03*
X1086220Y598031D03*
Y594094D03*
X1078346Y582283D03*
X1082283Y598031D03*
X1090157Y582283D03*
Y590157D03*
Y598031D03*
Y594094D03*
Y586220D03*
X434646Y613780D03*
X465354Y602362D03*
X483858Y605906D03*
X486768Y612992D03*
X501768Y614492D03*
X495268Y614992D03*
X508768Y611492D03*
X512268Y614992D03*
X512205Y612598D03*
X539764Y600000D03*
X548424D03*
X558661Y603937D03*
X588189D03*
X568504D03*
X582268Y615992D03*
X587795Y616142D03*
X607874Y611811D03*
X600000D03*
X607874Y603937D03*
X600000Y600000D03*
X607874D03*
Y607874D03*
X600000D03*
Y603937D03*
X603937Y600000D03*
X593307Y614567D03*
X589768Y614492D03*
X603937Y611417D03*
X623622Y607874D03*
X619685Y615748D03*
X611811Y600000D03*
X615748D03*
X611811Y603937D03*
X615748Y615748D03*
X611811Y611811D03*
X615748Y603937D03*
X611811Y615748D03*
Y607874D03*
X619685D03*
Y611811D03*
X623622D03*
X619685Y600000D03*
Y603937D03*
X627559Y611811D03*
Y600000D03*
X623622Y615748D03*
Y603937D03*
X635433D03*
X643307D03*
X639370D03*
X643307Y607874D03*
Y611811D03*
X635433Y607874D03*
X631496D03*
X643307Y615748D03*
X639370Y600000D03*
X631496Y615748D03*
X631768Y603992D03*
X631496Y600000D03*
X666929D03*
X659055D03*
X651181D03*
X666929Y607874D03*
X659055D03*
X651181D03*
X666929Y615748D03*
X651181D03*
X659055D03*
X682677Y607874D03*
X674803D03*
Y615748D03*
X682677D03*
X674803Y600000D03*
X686614Y603937D03*
X682677D03*
X678740D03*
X682677Y600000D03*
X706299Y603937D03*
X702362D03*
Y607874D03*
X698425Y600000D03*
Y607874D03*
Y611811D03*
X690551Y615748D03*
X706268Y607874D03*
X706299Y611811D03*
X694488Y615748D03*
Y611811D03*
X698425Y615748D03*
X690551Y607874D03*
Y600000D03*
X698425Y603937D03*
X694488D03*
X690551D03*
X702362Y615748D03*
X706299D03*
Y600000D03*
X718110Y611811D03*
Y607874D03*
X714173D03*
X718110Y600000D03*
Y603937D03*
X710236D03*
X722047Y607874D03*
X725984Y600000D03*
X722047Y603937D03*
Y611811D03*
X714173D03*
X722047Y615748D03*
X714173D03*
X710236Y611811D03*
X718110Y615748D03*
X725984Y611811D03*
X730709Y599213D03*
X751969Y600394D03*
X751778Y607874D03*
X751754Y615748D03*
X749268Y614992D03*
X749606Y600787D03*
X776772Y617717D03*
X783071Y606693D03*
X825268Y600992D03*
X844268Y607492D03*
X830519Y615748D03*
X843768Y603992D03*
X842268Y612492D03*
X832283Y603937D03*
X836220D03*
X832283Y600000D03*
X836220Y599606D03*
X835039Y612205D03*
X848031D03*
X831890Y612598D03*
X832283Y607874D03*
X848031Y603937D03*
X840157Y599606D03*
X848031Y600000D03*
X844094D03*
X828346Y607874D03*
X836220D03*
X868268Y608492D03*
X865768Y607492D03*
X853937Y616142D03*
X851969Y603937D03*
Y600000D03*
X855906Y607874D03*
Y613386D03*
X851969Y612598D03*
Y607874D03*
X855906Y603937D03*
X859843Y607874D03*
X855906Y600000D03*
X883465Y615354D03*
X895276D03*
X889370D03*
X927953Y614961D03*
X915748Y601181D03*
X920866Y615354D03*
X925591Y601575D03*
X944488Y601969D03*
X964173Y613780D03*
X955512Y606693D03*
X964173Y609843D03*
X968110Y601969D03*
X960236Y605906D03*
X968110Y609843D03*
Y613780D03*
X956299D03*
X964173Y617717D03*
X960236Y609843D03*
X956299D03*
X964173Y601969D03*
X968110Y605906D03*
Y617717D03*
X956299D03*
X987008Y599029D03*
Y608088D03*
X975984Y617717D03*
X978945Y617598D03*
X975984Y613780D03*
Y609843D03*
Y605906D03*
X978945Y608598D03*
X987008Y617899D03*
X978945Y599598D03*
X1007480Y605906D03*
Y613780D03*
X998614Y607512D03*
Y616512D03*
X1019291Y617717D03*
Y613780D03*
X1011417Y605906D03*
Y617717D03*
X1038976Y605906D03*
X1031102Y613780D03*
Y617717D03*
X1042913Y605906D03*
X1047843Y603638D03*
Y612638D03*
X1042913Y613780D03*
X1038976Y617717D03*
X1067512Y612795D03*
X1059638D03*
X1067512Y603795D03*
X1059638Y602795D03*
X1078346Y601969D03*
X1070472Y617717D03*
Y613780D03*
Y609843D03*
Y605906D03*
X1082283Y601969D03*
Y609843D03*
X1086220D03*
X1082283Y613780D03*
X1078346D03*
Y605906D03*
X1082283D03*
X1086220D03*
Y613780D03*
X1078346Y609843D03*
X1090157Y605906D03*
Y609843D03*
Y613780D03*
X1253088Y605906D03*
X1255079Y601969D03*
X179921Y631496D03*
X176378Y628346D03*
X334646Y629921D03*
X434646Y637402D03*
X496268Y631311D03*
Y633673D03*
X538976Y631496D03*
X529268Y624492D03*
X549212Y623622D03*
Y631496D03*
X580315Y622441D03*
X603543Y631496D03*
X607874D03*
X603937Y627559D03*
Y623622D03*
Y635433D03*
X607874D03*
Y623622D03*
X603937Y619685D03*
X607874D03*
X627559Y635433D03*
X615748Y631496D03*
X627559D03*
X623622Y635433D03*
X627559Y623622D03*
X615748Y619685D03*
X611811Y627559D03*
X615748Y623622D03*
X611811Y631496D03*
X615748Y627559D03*
X619685Y623622D03*
X627559Y627559D03*
X623622Y619685D03*
X627559D03*
X623622Y623622D03*
X611811Y635433D03*
X615748D03*
X619685D03*
Y631496D03*
X611811Y619685D03*
X623622Y631496D03*
X619685Y627559D03*
X631496D03*
X643307D03*
X635433Y635433D03*
Y619685D03*
X631496Y631496D03*
X635433Y623622D03*
X647244Y627559D03*
X639370D03*
X647244Y631102D03*
X639370Y635433D03*
X631496D03*
X643307D03*
X635433Y627559D03*
X643307Y631496D03*
X639370D03*
Y623622D03*
X631496Y619685D03*
X647244Y623622D03*
X643307D03*
X663268Y627492D03*
X655118Y631496D03*
X651181Y627559D03*
X662992Y619685D03*
X659055Y635433D03*
X655118D03*
X659055Y631496D03*
X651181Y619685D03*
X655118Y627559D03*
X651181Y631496D03*
X659055Y623622D03*
X655118Y619685D03*
X659055Y627559D03*
X651181Y635433D03*
X655118Y623622D03*
X666929Y631496D03*
Y623622D03*
Y635433D03*
X678740Y627559D03*
X674803D03*
X678740Y623622D03*
X686614Y627559D03*
X670866Y635433D03*
X686614Y619685D03*
X678740D03*
X682677Y627559D03*
X686614Y635433D03*
X682677D03*
X678740D03*
X674803D03*
Y619685D03*
X682677Y631496D03*
X686614D03*
X682677Y623622D03*
X670866Y619685D03*
Y627559D03*
Y623622D03*
X674803Y631496D03*
X670866D03*
X686614Y623622D03*
X690551Y619685D03*
Y623622D03*
Y631496D03*
X702362Y619685D03*
X698425Y631496D03*
X702362Y623622D03*
X706299D03*
X698425Y619685D03*
X694488D03*
X706299Y631496D03*
X690551Y627559D03*
X702362D03*
X694488Y631496D03*
Y627559D03*
Y635433D03*
X706299D03*
Y619685D03*
X702362Y631496D03*
X722047Y623622D03*
Y627559D03*
X718110Y635433D03*
X722047D03*
X718110Y623622D03*
Y631496D03*
X722047D03*
X714173Y623622D03*
X710236Y631496D03*
Y627559D03*
X714173Y631496D03*
X710236Y623622D03*
X714173Y635433D03*
X718110Y619685D03*
X714173Y627559D03*
Y619685D03*
X710236D03*
X729528Y620866D03*
X744268Y619992D03*
X757087Y626378D03*
X762598Y638189D03*
X759843Y632283D03*
X776772Y625591D03*
X782883Y621654D03*
X883465Y624015D03*
X907087D03*
X895276D03*
X889370D03*
X927953Y623621D03*
X920866Y624015D03*
X927165Y637402D03*
Y632283D03*
Y627559D03*
X968110Y637402D03*
X964173D03*
X956299D03*
X964173Y633465D03*
X968110Y629528D03*
X964173Y625591D03*
X963780Y621654D03*
X968110Y625591D03*
X960236Y621654D03*
X968110Y633465D03*
Y621654D03*
X960236Y625591D03*
X956299D03*
Y621654D03*
X964173Y629528D03*
X987008Y627745D03*
X978945Y627598D03*
X975984Y621654D03*
Y629528D03*
X978945Y637598D03*
X975984Y637402D03*
X999409Y634441D03*
X996496Y627937D03*
X1008409Y634441D03*
X1018409D03*
X1022035Y622780D03*
X1027409Y634441D03*
X1011220Y622646D03*
X1038409Y634441D03*
X1033071Y622835D03*
X1042035Y622780D03*
X1067512Y622795D03*
X1053732Y622638D03*
X1059638Y622795D03*
X1065559Y635472D03*
X1060409Y634441D03*
X1049409D03*
X1078346Y637402D03*
X1070472Y621654D03*
X1082283D03*
X1074409Y633465D03*
X1091339Y619685D03*
X1126378Y635433D03*
X1125591Y627559D03*
X1142126D03*
X1264567Y636614D03*
X1249606Y633465D03*
X334646Y638976D03*
X464961Y643307D03*
X481890Y647244D03*
X479921Y639370D03*
X526768Y654992D03*
X538976Y647244D03*
X549212Y639370D03*
Y647244D03*
X607874Y651181D03*
X603937Y639370D03*
Y647244D03*
Y651181D03*
X591732Y657874D03*
X603937Y643307D03*
X607874D03*
Y647244D03*
X615748Y651181D03*
X623622Y647244D03*
Y651181D03*
X615748Y647244D03*
X611811Y643307D03*
X619685Y651181D03*
X611811D03*
X623622Y639370D03*
X627559Y647244D03*
Y651181D03*
X619685Y643307D03*
X623622D03*
X615748Y639370D03*
X627559Y643307D03*
Y639370D03*
X611811D03*
X639370Y651181D03*
X635433D03*
X631496D03*
X643307D03*
X639370Y639370D03*
X647268Y647492D03*
X635433Y639370D03*
X639370Y643307D03*
X643307Y639370D03*
X647244D03*
X631496D03*
X643307Y643307D03*
X647244D03*
X635433D03*
X639370Y647244D03*
X635433D03*
X659055Y643307D03*
X666929Y651181D03*
X662992D03*
X659055D03*
Y639370D03*
X651181Y647244D03*
Y651181D03*
X655118D03*
Y647244D03*
X651181Y639370D03*
X655118D03*
X686614Y651181D03*
X682677D03*
X674803Y647244D03*
Y651181D03*
X670866D03*
X671268Y654992D03*
X678740Y647244D03*
Y651181D03*
X682677Y639370D03*
X678740Y643307D03*
X686614Y639370D03*
X682677Y643307D03*
X670866Y639370D03*
X686614Y643307D03*
X678740Y639370D03*
X674803D03*
X706299Y651181D03*
X698425Y647244D03*
Y651181D03*
X694488D03*
X690551D03*
Y643307D03*
X702362Y647244D03*
Y651181D03*
Y643307D03*
X706299D03*
X690551Y639370D03*
X706299D03*
X694488D03*
X690551Y647244D03*
X698425Y639370D03*
Y643307D03*
X722047D03*
Y647244D03*
X714173Y651181D03*
X718110Y643307D03*
X710236Y647244D03*
X722047Y651181D03*
Y639370D03*
X718110Y651181D03*
X710236D03*
X718110Y647244D03*
X714173D03*
X710236Y643307D03*
X714173Y639370D03*
X710236D03*
X743268Y641992D03*
X757087Y644882D03*
X755268Y656492D03*
X807268Y652992D03*
X857798Y651520D03*
X867607D03*
X911811Y651575D03*
X964173Y645276D03*
X968110Y641339D03*
X960236D03*
Y645276D03*
X954768Y643492D03*
X964173Y641339D03*
X956693Y645276D03*
X956299Y649213D03*
Y653150D03*
X960236Y649213D03*
X972047Y657087D03*
X975984Y641339D03*
Y649213D03*
X979921D03*
X987795D03*
X1000535Y642315D03*
X1007480Y645276D03*
X1003543D03*
X999606D03*
X995669D03*
X991535Y642315D03*
X1019291Y657087D03*
X1027165Y653150D03*
X1023228Y657087D03*
X1011417Y645276D03*
X1009535Y642315D03*
X1019291Y649213D03*
X1019535Y642315D03*
X1046850Y657087D03*
X1038976D03*
X1042913Y649213D03*
Y653150D03*
X1046850D03*
Y645276D03*
X1042913D03*
X1038976D03*
X1035039D03*
X1031102D03*
X1028535Y642315D03*
X1039535D03*
X1046850Y649213D03*
X1042913Y657087D03*
X1058661D03*
X1062598Y653150D03*
X1066535Y657087D03*
X1058661Y653150D03*
X1054724D03*
Y657087D03*
X1050787Y653150D03*
Y657087D03*
X1066535Y653150D03*
Y645276D03*
X1061535Y642315D03*
X1062598Y645276D03*
X1054724D03*
X1050535Y642315D03*
X1086220Y645276D03*
X1082283Y641339D03*
X1078346D03*
X1086220D03*
Y649213D03*
X1074409Y641339D03*
Y645276D03*
X1090157D03*
X1125984Y643307D03*
X1142126D03*
X523768Y674992D03*
X545669Y662992D03*
Y659055D03*
Y666929D03*
Y670866D03*
Y674803D03*
X579528Y665354D03*
X676772Y659843D03*
X672835D03*
Y669685D03*
X730768Y658992D03*
X814567Y661024D03*
X810630D03*
X822441Y676772D03*
X818504Y664961D03*
Y668898D03*
X814567Y676772D03*
X822441Y661024D03*
X826378Y664961D03*
X814567Y668898D03*
X818504Y672835D03*
Y676772D03*
X826378Y668898D03*
X818504Y661024D03*
X826378D03*
X822441Y665354D03*
X846063Y661024D03*
X838189Y676772D03*
X830315Y668898D03*
X838189Y661024D03*
X834252Y664961D03*
Y668898D03*
X842126Y661024D03*
X834252D03*
X838189Y664961D03*
X830315D03*
X853937Y676772D03*
X865768Y669492D03*
X850000Y664961D03*
X853937Y672835D03*
X865768Y665492D03*
X853937Y664961D03*
X850000Y672835D03*
X853937Y668898D03*
X879709Y659843D03*
X911811Y660236D03*
X972047Y661024D03*
X999606D03*
X1019291D03*
X1015354Y664961D03*
X1019291D03*
X1046850D03*
X1031102D03*
X1042913Y661024D03*
X1038976D03*
X1050787D03*
X1070472D03*
X1074409Y664961D03*
X1078346D03*
X1074409Y661024D03*
X410768Y682492D03*
X479921Y698425D03*
X545669Y678740D03*
Y686614D03*
Y682677D03*
X577268Y685992D03*
X600394Y687795D03*
X591339Y684252D03*
X593701Y689764D03*
X726378Y687402D03*
X741339D03*
X807184Y686220D03*
X807086Y690551D03*
X814567Y692520D03*
X826378Y688583D03*
Y680709D03*
Y684646D03*
Y696457D03*
Y692520D03*
X818504Y688583D03*
X822441Y692520D03*
Y684646D03*
Y680709D03*
Y688583D03*
Y696457D03*
X818504Y680709D03*
Y692520D03*
Y683858D03*
X814567Y696457D03*
X818504D03*
X846063Y688583D03*
X834252Y680709D03*
Y684646D03*
Y692520D03*
Y688583D03*
Y696457D03*
X838189Y680709D03*
Y684646D03*
Y688583D03*
X842126D03*
X838189Y692520D03*
Y696457D03*
X846063Y684646D03*
Y680709D03*
X850000Y688583D03*
X856102Y684056D03*
X850000Y680709D03*
X853937Y696457D03*
X850000D03*
Y684646D03*
X915354Y691733D03*
X927165D03*
X921260D03*
X938976D03*
X933071D03*
X944882Y691732D03*
X956693Y691733D03*
X950787D03*
X1014173Y688583D03*
X1032676Y688976D03*
X366142Y716930D03*
X358661Y712993D03*
X545669Y710236D03*
Y714173D03*
Y718110D03*
X625591Y700787D03*
X614961Y706299D03*
X636268Y714492D03*
X638976Y706299D03*
X662205Y700787D03*
X651181Y704331D03*
X674016Y706299D03*
X685827Y704331D03*
X698031Y700787D03*
X700000Y706299D03*
X714567Y699606D03*
X709055Y704331D03*
X729921Y706299D03*
X791289Y712100D03*
X822441Y700394D03*
X818504D03*
Y704331D03*
X826378Y716142D03*
X822441Y712205D03*
X818504Y716142D03*
Y712205D03*
X814567Y708268D03*
Y716142D03*
Y700394D03*
X818504Y708268D03*
X826378D03*
X838189Y700394D03*
X830315Y712205D03*
Y716142D03*
X834252Y712205D03*
Y708268D03*
X842126Y712205D03*
X846063Y716142D03*
X842126D03*
X838189D03*
X867747Y718449D03*
X857976D03*
X853937Y700394D03*
X850000Y716142D03*
Y700394D03*
Y704331D03*
X853937Y712205D03*
X850000Y708268D03*
Y712205D03*
X944882Y700393D03*
Y718110D03*
X964268Y707992D03*
X956693Y700393D03*
X950787D03*
X366142Y725590D03*
X358661Y721653D03*
X545669Y722047D03*
Y733858D03*
Y737795D03*
Y729921D03*
Y725984D03*
X802417Y723547D03*
X797638Y738006D03*
X808675Y728292D03*
X810630Y720079D03*
X814567D03*
X822441D03*
X1006299Y738583D03*
X339666Y757480D03*
X412992Y751969D03*
X450787Y752756D03*
X452756Y757480D03*
X479921Y751969D03*
X554724Y741732D03*
X576378D03*
X592126D03*
X676772D03*
X700394D03*
X729921D03*
X761417D03*
X787008D03*
X859055Y741925D03*
X903937Y755906D03*
X995268Y754322D03*
X1005512Y746063D03*
X239764Y777165D03*
X235827Y773228D03*
X243701D03*
X231890Y777165D03*
X247638Y769291D03*
X318504Y777755D03*
X454724Y762205D03*
X448819Y760236D03*
X902362Y759055D03*
X157087Y792913D03*
X224016Y780315D03*
X231890Y792913D03*
X267323Y796850D03*
X255512D03*
X259449D03*
X340157D03*
X367717Y790945D03*
X362598Y789370D03*
X463768Y785992D03*
X904722Y787289D03*
X912598Y785236D03*
X114567Y814567D03*
X117323Y812598D03*
X122835Y810630D03*
X129528Y818504D03*
X158268Y816535D03*
X155118Y798819D03*
X163780Y810630D03*
X227953Y816535D03*
X224016Y808661D03*
X227953Y812598D03*
X214173Y806693D03*
X239764Y800787D03*
Y804724D03*
X235827Y816535D03*
Y800787D03*
Y804724D03*
X239764Y816535D03*
X231890Y800787D03*
X251575Y804724D03*
X255512D03*
X279134Y816535D03*
Y812598D03*
Y808661D03*
X271260Y816535D03*
X279134Y800787D03*
X271260Y812598D03*
X279134Y804724D03*
X342126Y818504D03*
X344094Y810630D03*
X348031Y808661D03*
X353937Y806693D03*
X922835Y798819D03*
X909055Y800787D03*
X105906Y820079D03*
X166929Y826378D03*
X178740Y820472D03*
X175984Y823228D03*
X168898Y820472D03*
X172835D03*
X224016Y836220D03*
X227953Y820472D03*
Y836220D03*
X220079Y836417D03*
X227953Y828346D03*
Y832283D03*
X239764Y820472D03*
Y824409D03*
X243701D03*
X231890Y836220D03*
Y820472D03*
X235827D03*
Y824409D03*
X231890D03*
Y832283D03*
X235827Y828346D03*
X239764Y832283D03*
X259449Y828346D03*
X263386D03*
X267323Y832283D03*
Y828346D03*
X279134D03*
Y824409D03*
X275197Y828346D03*
X283071Y832283D03*
Y828346D03*
Y824409D03*
X275197Y836220D03*
X279134Y832283D03*
X338189Y828346D03*
X340157Y822441D03*
X342126Y824409D03*
X499606Y828740D03*
X501181Y833071D03*
X498031Y831890D03*
X503150Y829528D03*
X504724Y819291D03*
X107480Y857874D03*
X107874Y846063D03*
X178740Y844094D03*
X204331D03*
X227953Y840157D03*
X224016Y848031D03*
X235827Y840157D03*
Y844094D03*
X247638D03*
X251575Y855906D03*
Y851969D03*
Y848031D03*
X255512Y840157D03*
X263386Y855906D03*
X279134Y840157D03*
Y851969D03*
Y848031D03*
X283071Y840157D03*
Y851969D03*
Y848031D03*
X279134Y844094D03*
X271260Y840157D03*
X336220Y857874D03*
X251575Y859843D03*
X263386D03*
X259449D03*
X271260D03*
X340986Y876602D03*
X379682Y868495D03*
X375621Y877839D03*
X393307Y866535D03*
X403282Y875235D03*
X432183Y877965D03*
X478312Y864565D03*
X486329Y877939D03*
X891733Y874016D03*
X905314Y866142D03*
X912599Y873146D03*
Y878346D03*
X921259Y873146D03*
X224016Y897039D03*
X214173Y893496D03*
X235827D03*
X247638D03*
X259449Y897039D03*
X279134Y896850D03*
X271260Y893496D03*
X333900Y880343D03*
X891733Y889764D03*
X905314Y897638D03*
X993307Y880315D03*
X249606Y904331D03*
X259449Y904724D03*
X290355Y898819D03*
X344193Y910775D03*
X349962Y916978D03*
X500631Y913909D03*
X542768Y914492D03*
X541930Y904331D03*
X549606Y912991D03*
X594268Y914492D03*
X593111Y904331D03*
X600787Y912991D03*
X643268Y914492D03*
X644292Y904331D03*
X651970Y912992D03*
X1061050Y911623D03*
X148819Y938131D03*
X286141Y935712D03*
X289291D03*
X298197Y936727D03*
X294008Y935478D03*
X326141Y935712D03*
X329291D03*
X334003Y935035D03*
X338550Y920139D03*
X416101Y920454D03*
X429716Y933350D03*
X433465Y925591D03*
X447086Y930790D03*
X431291Y935712D03*
X470141D03*
X468504Y933071D03*
X473291Y935712D03*
X471716Y933350D03*
X514915Y929155D03*
X546421Y920660D03*
X597805Y920866D03*
X646533Y920685D03*
X148819Y958143D03*
Y948125D03*
X284566Y944175D03*
X287716D03*
X327716D03*
X324566D03*
X339802Y946474D03*
X485768Y948992D03*
X982283Y939370D03*
X1120125Y939270D03*
X1272047Y956504D03*
X148819Y968110D03*
X1297244Y976772D03*
X124803Y985039D03*
X207480Y993307D03*
X209449Y990945D03*
X151969Y1000787D03*
X244094Y1050000D03*
X241732Y1047638D03*
X246457Y1052362D03*
X248819Y1045276D03*
X251181Y1055512D03*
X253150Y1050000D03*
G54D63*
X1025268Y172992D03*
X1045268D03*
X1072268D03*
X1092268D03*
X1024996Y195064D03*
X1027568Y196892D03*
X1060168Y184792D03*
X1050268Y182992D03*
X1070896Y194964D03*
X1074636Y196961D03*
X1097268Y183492D03*
X1189709Y193054D03*
X1260808Y179147D03*
X1264308D03*
X1257108Y179047D03*
X1025296Y207664D03*
X1051839Y206064D03*
X1070896D03*
X1099039Y206364D03*
X988583Y231890D03*
X1038819D03*
X1057433Y254016D03*
X1075433Y246016D03*
X261652Y258939D03*
X1042520Y264173D03*
Y268504D03*
X1025591Y295276D03*
X1035433D03*
X1045276D03*
X1055525Y295455D03*
X942913Y325984D03*
X933071D03*
X953150D03*
X979134D03*
X968504D03*
X988976D03*
X998819D03*
X938708Y369595D03*
X949054Y374401D03*
X964054D03*
X958465Y370595D03*
X976208D03*
X979054Y374401D03*
X1006383Y371372D03*
X994054Y374401D03*
X922308Y389047D03*
X939319Y390593D03*
X1000245D03*
X1198282Y394865D03*
X939319Y405593D03*
X936131Y404670D03*
X1006383Y406672D03*
X1000245Y405593D03*
X1048305Y403949D03*
X1048294Y410077D03*
X1048280Y416983D03*
X1040782Y400365D03*
Y413365D03*
Y407365D03*
X1198282Y404865D03*
Y414865D03*
X939319Y420593D03*
X948108Y432847D03*
X1006383Y434272D03*
X1000245Y420593D03*
X996054Y432901D03*
X1198282Y424865D03*
Y434865D03*
X936131Y440070D03*
X962394Y453543D03*
X954508Y440847D03*
X974201Y453502D03*
X980101Y455118D03*
X991964Y441615D03*
X1003108Y440847D03*
X1085039Y439370D03*
X1198282Y444865D03*
Y454865D03*
X801772Y472386D03*
X807679Y472385D03*
X864764Y472386D03*
X854921D03*
X860828Y472385D03*
X870671D03*
X1198282Y464865D03*
Y472865D03*
X800450Y492718D03*
X800449Y486811D03*
X1068504Y484646D03*
X1198282Y480865D03*
Y488865D03*
Y496865D03*
X1278703Y492057D03*
X1198282Y504865D03*
Y512865D03*
X568504Y533071D03*
X986931Y523041D03*
X972047Y535039D03*
X1004613Y523027D03*
X1198282Y528865D03*
Y536865D03*
Y520865D03*
X467323Y548819D03*
X801772Y539315D03*
X807679Y539314D03*
X864764Y539315D03*
X854921D03*
X860828Y539314D03*
X870671D03*
X933071Y538976D03*
X960236Y546850D03*
X975984Y551181D03*
Y554724D03*
X1198282Y552865D03*
Y544865D03*
X568504Y564567D03*
X960236Y574409D03*
X975984Y562598D03*
X1198282Y560865D03*
X832283Y587795D03*
X844094Y584252D03*
X855906Y588189D03*
X860630Y597244D03*
X927953Y591732D03*
X930315Y587008D03*
X968110Y590157D03*
X964173D03*
X111128Y610700D03*
X960236Y613780D03*
Y617717D03*
X116705Y630985D03*
X116682Y636063D03*
X116705Y638602D03*
X111064Y618857D03*
X125203Y622457D03*
X114903Y627057D03*
X144103Y638557D03*
X144003Y636057D03*
X153403Y627357D03*
X950394Y631102D03*
Y634252D03*
X1094094Y623622D03*
X116685Y641176D03*
X125003Y649657D03*
X134503Y652657D03*
X144203Y641157D03*
X135303Y649557D03*
X507480Y655118D03*
X860828Y651519D03*
X854921Y651520D03*
X864764D03*
X870671Y651519D03*
X1094094Y639370D03*
X147403Y670657D03*
X192703Y663757D03*
X966142Y670866D03*
X962205Y674803D03*
X958268Y674992D03*
X954331Y674803D03*
X974016Y668898D03*
X977953Y675803D03*
X970079Y672835D03*
X130503Y689757D03*
X176146Y686802D03*
Y692887D03*
X175903Y696757D03*
X507087Y694488D03*
X1104724Y688189D03*
X1099606D03*
X1109055D03*
X1113386D03*
X1122047D03*
X1117717D03*
X130503Y703857D03*
X130603Y717857D03*
Y713843D03*
X176146Y706887D03*
Y714802D03*
X176203Y710957D03*
X176267Y700515D03*
X507874Y710236D03*
X791284Y715157D03*
X791282Y709251D03*
X864764Y718449D03*
X854921D03*
X860828Y718448D03*
X870671D03*
X983868Y717992D03*
X130603Y721757D03*
Y731957D03*
X130503Y728357D03*
X130603Y735857D03*
X143903Y731657D03*
X136603Y726957D03*
X143903Y721957D03*
X162205Y728346D03*
X161811Y734252D03*
X172047Y733465D03*
Y728346D03*
X802417Y720669D03*
X802418Y726576D03*
X805709Y728292D03*
X811616Y728290D03*
X942868Y727992D03*
X952968Y732992D03*
X973168Y722992D03*
X1006454Y720925D03*
X996268Y728392D03*
X990468Y734492D03*
X1034254Y725925D03*
Y733425D03*
X115589Y752640D03*
X161811Y740157D03*
X162205Y744882D03*
X172441Y739764D03*
X172047Y745276D03*
X507480Y749606D03*
X1006454Y758425D03*
Y753425D03*
X991732Y743701D03*
X996268Y743392D03*
X990468Y751792D03*
X1034254Y753425D03*
Y748425D03*
X316368Y771371D03*
X984168Y758892D03*
X972368Y762992D03*
X1006454Y765925D03*
X1034254D03*
Y760925D03*
X149213Y784724D03*
X227953Y786808D03*
X224016Y796850D03*
X216142Y783270D03*
X239764Y783262D03*
X251575Y786808D03*
X263386Y783253D03*
X275197Y786808D03*
Y796850D03*
X294882Y783270D03*
X316722Y792913D03*
X184341Y800787D03*
X184864Y812598D03*
X243701Y816535D03*
X231890Y804724D03*
X235827Y808661D03*
X231890D03*
X239764D03*
X243701Y800787D03*
X267323Y808661D03*
Y816535D03*
X259449Y804724D03*
X275197Y812598D03*
X283071Y800787D03*
X275197Y804724D03*
X320278D03*
X316722Y816535D03*
X166929Y838189D03*
Y834252D03*
X184823Y824409D03*
X185032Y836220D03*
X247638Y824409D03*
X243701Y828346D03*
X247638Y832283D03*
X243701Y836220D03*
X255512Y824409D03*
X251575Y828346D03*
X255512Y832283D03*
X279134Y820472D03*
Y836220D03*
X316732D03*
X316696Y826378D03*
X1023622Y835827D03*
X1033071Y833858D03*
X166929Y842126D03*
X231890Y844094D03*
Y848031D03*
X235827D03*
X247638Y855906D03*
X267323Y848031D03*
X259449Y855906D03*
X271260D03*
Y844094D03*
X275197Y848031D03*
Y851969D03*
X283071Y855906D03*
X320278Y848031D03*
X1007087Y840945D03*
X1019291Y838976D03*
X1028740Y840945D03*
X1041339Y844882D03*
X1079921Y851181D03*
X184828Y863780D03*
Y875591D03*
X227953Y859843D03*
X224016D03*
X322712Y876613D03*
X316748Y859843D03*
X374582Y862365D03*
X390782Y866765D03*
X436263Y864550D03*
X454633Y877965D03*
X448782Y869365D03*
X932836Y869119D03*
Y875119D03*
X973201Y877784D03*
X993807Y876190D03*
X999837Y876386D03*
X1003255Y866859D03*
X993807Y872253D03*
X1012232Y871471D03*
X1015067Y866859D03*
X1020500Y871471D03*
X1024909Y866859D03*
X1035854Y871471D03*
X1044594Y868827D03*
X1034752Y866859D03*
X1049830Y878158D03*
X1225984Y870079D03*
X352682Y882865D03*
X386882Y887865D03*
X409357Y882965D03*
X443017Y887976D03*
X487909Y887913D03*
X932836Y882119D03*
Y889119D03*
X957936Y896119D03*
X999837Y886229D03*
X993807Y895875D03*
Y888001D03*
X1024043Y879345D03*
X1044706Y886229D03*
Y879930D03*
X1049830Y886032D03*
Y893906D03*
X1072441Y881102D03*
X1074409Y883465D03*
X1077559Y888976D03*
X1081890Y892126D03*
X1070836Y894216D03*
X1086468Y886892D03*
X1080072Y897396D03*
X1225197Y892520D03*
X1211719Y898302D03*
X1235433Y892520D03*
X426148Y912244D03*
X436264Y899484D03*
X957936Y908019D03*
X993807Y907686D03*
X999837Y899615D03*
Y909457D03*
X993807Y903749D03*
Y915560D03*
X1044706Y909457D03*
Y899615D03*
X1047862Y905717D03*
X1067278Y899818D03*
X1078734Y909692D03*
X1222835Y903543D03*
X1238189Y917717D03*
X1230315Y915354D03*
X1235433Y903543D03*
X440050Y931400D03*
X502243Y923855D03*
X957936Y920119D03*
Y933119D03*
X999837Y925599D03*
X993807Y923434D03*
X1007386Y925812D03*
X999837Y919300D03*
X993807Y937213D03*
X1012150Y937367D03*
X1039701Y932384D03*
X1044706Y925599D03*
X1036850Y937667D03*
X1036885Y925812D03*
X1044706Y919300D03*
X1061641Y935245D03*
X1049830Y923434D03*
Y931308D03*
Y919497D03*
X1078468Y935392D03*
X1222382Y929167D03*
X1226153Y930961D03*
X1215191Y930926D03*
X1227165Y918898D03*
X1224191Y933396D03*
X1213160Y933566D03*
X1232638Y928328D03*
X1237149Y931029D03*
X1235187Y933396D03*
X298303Y945957D03*
X436003Y946357D03*
X446803Y943857D03*
X497643Y946755D03*
X536403Y957557D03*
X588203Y956557D03*
X658231Y948286D03*
X679231D03*
X669231D03*
X689231D03*
X957936Y946119D03*
X1007192Y946662D03*
X999836Y938984D03*
X1019004Y946662D03*
X1030815Y942725D03*
X1042626D03*
X1046563D03*
X1044706Y938985D03*
X1061641Y939182D03*
X1049830Y941150D03*
X1078501Y946284D03*
X1203937Y946850D03*
X1207874D03*
X1201181Y947244D03*
X1210630Y939370D03*
X1219291Y946457D03*
X1243701Y942126D03*
X1246457D03*
X1235827Y942913D03*
X1256693Y946457D03*
X300103Y976957D03*
X307103Y977157D03*
X450403Y968557D03*
X457403D03*
X494143Y978355D03*
X503143D03*
X521143D03*
X512143D03*
X536403Y968557D03*
X559203Y959057D03*
X577203Y971057D03*
X588203Y961557D03*
X584703Y966557D03*
X643103Y966457D03*
X665303Y977757D03*
X675703Y978057D03*
X685803Y976957D03*
X1025403Y964657D03*
X1022603Y964757D03*
X1053101Y971784D03*
X1221654Y959055D03*
X1259055D03*
X163386Y995276D03*
X332503Y978957D03*
X537403Y993057D03*
Y982057D03*
X560203Y983557D03*
X578203Y995557D03*
X585703Y991057D03*
X589703Y980057D03*
Y985057D03*
X643403Y989957D03*
X654703Y978857D03*
X163386Y1000787D03*
X220290Y1000695D03*
X537903Y1017557D03*
Y1006557D03*
X560703Y1008057D03*
X586203Y1015557D03*
X589703Y1005057D03*
Y1010057D03*
X642503Y1014957D03*
X1014903Y1010057D03*
X1024803Y1010257D03*
X1019803Y1016857D03*
X1009703Y1016757D03*
X1014703Y1006357D03*
X1024603Y1006657D03*
X1039803Y1016957D03*
X1044603Y1006557D03*
X1044503Y1010057D03*
X1035003Y1009957D03*
X1029703Y1017157D03*
X1034603Y1006657D03*
X537703Y1031057D03*
X560703Y1032557D03*
X578703Y1020057D03*
X590003Y1029857D03*
Y1034857D03*
X676403Y1033857D03*
X680903Y1034957D03*
X733243Y1023223D03*
X745054D03*
X756865Y1023302D03*
X762809Y1023223D03*
X786392Y1023262D03*
X768676Y1023144D03*
X798203Y1023262D03*
X810014D03*
X821825D03*
X815920D03*
X845447Y1023223D03*
X857258Y1023262D03*
X869030D03*
X874975D03*
X880841D03*
X898597Y1023223D03*
X922219D03*
X910408Y1023262D03*
X928124Y1023223D03*
X934030Y1023262D03*
X166142Y1041339D03*
Y1046063D03*
X233703Y1058557D03*
X537703Y1042057D03*
X578703Y1042157D03*
X586203Y1040057D03*
X642903Y1039857D03*
X602703Y1059757D03*
X615503D03*
X608903Y1059657D03*
X621803D03*
X646903D03*
X634103D03*
G54D87*
X706299Y695669D03*
X702362D03*
X785827Y987402D03*
X781890D03*
X635433Y695669D03*
X631496D03*
X580709Y688583D03*
X584646D03*
X777559Y996850D03*
X781496D03*
X621654Y688583D03*
X625591D03*
X801575Y987402D03*
X797638D03*
X659055Y695669D03*
X655118D03*
X793307Y996850D03*
X797244D03*
X645276Y688583D03*
X649213D03*
X740157Y997244D03*
X744094D03*
X860630Y987402D03*
X856693D03*
X692520Y688583D03*
X696457D03*
X852362Y996850D03*
X856299D03*
X668898Y688583D03*
X672835D03*
X836614Y996850D03*
X840551D03*
X682677Y695669D03*
X678740D03*
X611811D03*
X607874D03*
X844882Y987402D03*
X840945D03*
X740157Y696063D03*
X736220D03*
X748425Y987402D03*
X744488D03*
X898031D03*
X894094D03*
X889764Y996850D03*
X893701D03*
X716142Y688583D03*
X720079D03*
X913780Y987402D03*
X909843D03*
X768898Y696457D03*
X764961D03*
X905512Y996850D03*
X909449D03*
X753543Y688976D03*
X757480D03*
X723622Y997244D03*
X727559D03*
X557087Y688583D03*
X561024D03*
X732677Y987402D03*
X728740D03*
X570866Y695669D03*
X566929D03*
G54D94*
X238357Y724026D03*
Y734026D03*
Y744026D03*
X270857Y724026D03*
Y734026D03*
Y744026D03*
X304357Y724026D03*
Y734026D03*
Y744026D03*
X1298601Y476915D03*
Y547781D03*
X1298253Y560611D03*
Y631477D03*
G54D102*
X1035268Y135992D03*
X1082268D03*
X380003Y923357D03*
X379703Y957857D03*
G54D114*
X733601Y116368D03*
X741593D03*
X753601D03*
X761593D03*
X773601D03*
X781593D03*
X793601D03*
X801593D03*
X813601D03*
X821593D03*
X833601D03*
X841593D03*
X853601D03*
X861593D03*
X873601D03*
X881593D03*
X893601D03*
X901593D03*
X913601D03*
X921593D03*
X743601Y130147D03*
X751593D03*
X763601D03*
X771593D03*
X783601D03*
X791593D03*
X803601D03*
X811593D03*
X823601D03*
X831593D03*
X843601D03*
X851593D03*
X863601D03*
X871593D03*
X883601D03*
X891593D03*
X903601D03*
X911593D03*
X923601D03*
X931593D03*
X733601Y144202D03*
X741593D03*
X743601Y157982D03*
X751593D03*
X753601Y144202D03*
X761593D03*
X773601D03*
X781593D03*
X793601D03*
X801593D03*
X813601D03*
X821593D03*
X833601D03*
X841593D03*
X853601D03*
X861593D03*
X873601D03*
X881593D03*
X893601D03*
X901593D03*
X913601D03*
X921593D03*
X763601Y157982D03*
X771593D03*
X783601D03*
X791593D03*
X803601D03*
X811593D03*
X823601D03*
X831593D03*
X843601D03*
X851593D03*
X863601D03*
X871593D03*
X883601D03*
X891593D03*
X903601D03*
X911593D03*
X923601D03*
X931593D03*
X965687Y129006D03*
X953483D03*
X965687Y136880D03*
Y144754D03*
Y152628D03*
X953483Y136880D03*
Y144754D03*
Y152628D03*
X717656Y129006D03*
X705451D03*
X717656Y136880D03*
Y144754D03*
Y152628D03*
X705451Y136880D03*
Y144754D03*
Y152628D03*
X381101Y116368D03*
X389093D03*
X401101D03*
X409093D03*
X421101D03*
X429093D03*
X441101D03*
X449093D03*
X461101D03*
X469093D03*
X481101D03*
X489093D03*
X501101D03*
X509093D03*
X521101D03*
X529093D03*
X541101D03*
X549093D03*
X561101D03*
X569093D03*
X391101Y130147D03*
X399093D03*
X411101D03*
X419093D03*
X431101D03*
X439093D03*
X451101D03*
X459093D03*
X471101D03*
X479093D03*
X491101D03*
X499093D03*
X511101D03*
X519093D03*
X531101D03*
X539093D03*
X551101D03*
X559093D03*
X571101D03*
X579093D03*
X381101Y144202D03*
X389093D03*
X391101Y157982D03*
X399093D03*
X401101Y144202D03*
X409093D03*
X421101D03*
X429093D03*
X441101D03*
X449093D03*
X461101D03*
X469093D03*
X481101D03*
X489093D03*
X501101D03*
X509093D03*
X521101D03*
X529093D03*
X541101D03*
X549093D03*
X561101D03*
X569093D03*
X411101Y157982D03*
X419093D03*
X431101D03*
X439093D03*
X451101D03*
X459093D03*
X471101D03*
X479093D03*
X491101D03*
X499093D03*
X511101D03*
X519093D03*
X531101D03*
X539093D03*
X551101D03*
X559093D03*
X571101D03*
X579093D03*
X613187Y129006D03*
X600983D03*
X613187Y136880D03*
Y144754D03*
Y152628D03*
X600983Y136880D03*
Y144754D03*
Y152628D03*
X365156Y129006D03*
X352951D03*
X365156Y136880D03*
Y144754D03*
Y152628D03*
X352951Y136880D03*
Y144754D03*
Y152628D03*
G54D115*
X1218941Y738325D03*
Y730451D03*
X1211441Y726357D03*
Y718483D03*
X1218941Y714703D03*
Y706829D03*
X1211441Y702735D03*
Y694861D03*
X1218941Y691081D03*
Y683207D03*
X1211441Y679113D03*
Y671239D03*
X1218941Y667459D03*
Y659585D03*
X1211441Y655491D03*
Y647617D03*
X1218941Y643837D03*
Y635963D03*
X1211441Y631869D03*
Y623994D03*
X1218941Y620215D03*
Y612341D03*
X1211441Y608246D03*
Y600372D03*
X1218941Y596593D03*
Y588719D03*
X1211441Y584624D03*
Y576750D03*
X1218941Y572971D03*
Y565097D03*
X1211441Y561002D03*
Y553128D03*
X1218941Y549349D03*
Y541475D03*
X1211441Y537380D03*
X1218941Y533601D03*
X1211441Y529506D03*
X1218941Y525727D03*
X1211441Y521632D03*
X1218941Y517853D03*
X1211441Y513758D03*
X1218941Y509979D03*
X1211441Y505884D03*
X1218941Y502105D03*
X1211441Y498010D03*
X1218941Y494231D03*
X1211441Y490136D03*
X1218941Y462577D03*
X1211441Y458640D03*
X1218941Y454703D03*
X1211441Y450766D03*
X1218941Y446829D03*
X1211441Y442892D03*
X1218941Y438955D03*
X1211441Y435018D03*
X1218941Y431081D03*
X1211441Y427144D03*
X1218941Y423207D03*
X1211441Y419270D03*
Y411396D03*
X1218941Y407459D03*
Y399585D03*
X1211441Y395648D03*
Y387774D03*
X1218941Y383837D03*
Y375963D03*
X1211441Y372026D03*
Y364152D03*
X1218941Y360215D03*
Y352341D03*
X1211441Y348404D03*
Y340530D03*
X1218941Y336593D03*
X1211441Y324782D03*
Y316908D03*
X1218941Y312971D03*
Y305097D03*
X1211441Y301160D03*
Y293286D03*
X1218941Y289349D03*
Y281475D03*
X1211441Y277538D03*
Y269664D03*
X1218941Y265727D03*
Y257853D03*
X1211441Y253916D03*
X1226461Y734231D03*
X1233961Y730294D03*
Y722420D03*
X1226461Y718483D03*
Y710609D03*
X1233961Y706672D03*
Y698798D03*
X1226461Y694861D03*
Y686987D03*
X1233961Y683050D03*
Y675176D03*
X1226461Y671239D03*
Y663365D03*
X1233961Y659428D03*
Y651554D03*
X1226461Y647617D03*
Y639743D03*
X1233961Y635806D03*
Y627931D03*
X1226461Y623994D03*
Y616120D03*
X1233961Y612183D03*
Y604309D03*
X1226461Y600372D03*
Y592498D03*
X1233961Y588561D03*
Y580687D03*
X1226461Y576750D03*
Y568876D03*
X1233961Y564939D03*
Y557065D03*
X1226461Y553128D03*
Y545254D03*
X1233961Y541317D03*
X1226461Y537380D03*
X1233961Y533443D03*
X1226461Y529506D03*
X1233961Y525569D03*
X1226461Y521632D03*
X1233961Y517695D03*
X1226461Y513758D03*
X1233961Y509821D03*
X1226461Y505884D03*
X1233961Y501947D03*
X1226461Y498010D03*
X1233961Y494073D03*
X1226461Y490136D03*
X1233961Y470451D03*
X1226461Y466514D03*
X1233961Y462577D03*
X1226461Y458640D03*
X1233961Y454703D03*
X1226461Y450766D03*
X1233961Y446829D03*
X1226461Y442892D03*
X1233961Y438955D03*
X1226461Y435018D03*
X1233961Y431081D03*
X1226461Y427144D03*
X1233961Y423207D03*
Y415333D03*
X1226461Y411396D03*
Y403522D03*
X1233961Y399585D03*
Y391711D03*
X1226461Y387774D03*
Y379900D03*
X1233961Y375963D03*
Y368089D03*
X1226461Y364152D03*
Y356278D03*
X1233961Y352341D03*
Y344467D03*
X1226461Y340530D03*
Y332656D03*
X1233961Y328719D03*
Y320845D03*
X1226461Y316908D03*
Y309034D03*
X1233961Y305097D03*
Y297223D03*
X1226461Y293286D03*
Y285412D03*
X1233961Y281475D03*
Y273601D03*
X1226461Y269664D03*
Y261790D03*
X1222701Y480294D03*
X358761Y226610D03*
Y234484D03*
X366261Y238579D03*
Y246453D03*
X358761Y250232D03*
Y258106D03*
X366261Y262201D03*
Y270075D03*
X358761Y273854D03*
Y281728D03*
X366261Y285823D03*
Y293697D03*
X358761Y297476D03*
Y305350D03*
X366261Y309445D03*
Y317319D03*
X358761Y321098D03*
Y328972D03*
X366261Y333067D03*
Y340941D03*
X358761Y344720D03*
Y352594D03*
X366261Y356689D03*
Y364563D03*
X358761Y368343D03*
Y376217D03*
X366261Y380311D03*
Y388185D03*
X358761Y391965D03*
Y399839D03*
X366261Y403933D03*
Y411807D03*
X358761Y415587D03*
Y423461D03*
X366261Y427555D03*
X358761Y431335D03*
X366261Y435429D03*
X358761Y439209D03*
X366261Y443303D03*
X358761Y447083D03*
X366261Y451177D03*
X358761Y454957D03*
X366261Y459051D03*
X358761Y462831D03*
X366261Y466925D03*
X358761Y470705D03*
X366261Y474799D03*
X358761Y502358D03*
X366261Y506295D03*
X358761Y510232D03*
X366261Y514169D03*
X358761Y518106D03*
X366261Y522043D03*
X358761Y525980D03*
X366261Y529917D03*
X358761Y533854D03*
X366261Y537791D03*
X358761Y541728D03*
X366261Y545665D03*
Y553539D03*
X358761Y557476D03*
Y565350D03*
X366261Y569287D03*
Y577161D03*
X358761Y581098D03*
Y588972D03*
X366261Y592909D03*
Y600783D03*
X358761Y604720D03*
Y612594D03*
X366261Y616531D03*
Y624406D03*
X358761Y628343D03*
X366261Y640154D03*
Y648028D03*
X358761Y651965D03*
Y659839D03*
X366261Y663776D03*
Y671650D03*
X358761Y675587D03*
Y683461D03*
X366261Y687398D03*
Y695272D03*
X358761Y699209D03*
Y707083D03*
X366261Y711020D03*
X351241Y230705D03*
X343741Y234642D03*
Y242516D03*
X351241Y246453D03*
Y254327D03*
X343741Y258264D03*
Y266138D03*
X351241Y270075D03*
Y277949D03*
X343741Y281886D03*
Y289760D03*
X351241Y293697D03*
Y301571D03*
X343741Y305508D03*
Y313382D03*
X351241Y317319D03*
Y325193D03*
X343741Y329130D03*
Y337004D03*
X351241Y340941D03*
Y348815D03*
X343741Y352752D03*
Y360626D03*
X351241Y364563D03*
Y372437D03*
X343741Y376374D03*
Y384248D03*
X351241Y388185D03*
Y396059D03*
X343741Y399996D03*
Y407870D03*
X351241Y411807D03*
Y419681D03*
X343741Y423618D03*
X351241Y427555D03*
X343741Y431492D03*
X351241Y435429D03*
X343741Y439366D03*
X351241Y443303D03*
X343741Y447240D03*
X351241Y451177D03*
X343741Y455114D03*
X351241Y459051D03*
X343741Y462988D03*
X351241Y466925D03*
X343741Y470862D03*
X351241Y474799D03*
X343741Y494484D03*
X351241Y498421D03*
X343741Y502358D03*
X351241Y506295D03*
X343741Y510232D03*
X351241Y514169D03*
X343741Y518106D03*
X351241Y522043D03*
X343741Y525980D03*
X351241Y529917D03*
X343741Y533854D03*
X351241Y537791D03*
X343741Y541728D03*
Y549602D03*
X351241Y553539D03*
Y561413D03*
X343741Y565350D03*
Y573224D03*
X351241Y577161D03*
Y585035D03*
X343741Y588972D03*
Y596846D03*
X351241Y600783D03*
Y608657D03*
X343741Y612594D03*
Y620469D03*
X351241Y624406D03*
Y632280D03*
X343741Y636217D03*
Y644091D03*
X351241Y648028D03*
Y655902D03*
X343741Y659839D03*
Y667713D03*
X351241Y671650D03*
Y679524D03*
X343741Y683461D03*
Y691335D03*
X351241Y695272D03*
Y703146D03*
X355001Y484642D03*
G54D116*
X1195732Y744782D03*
Y244861D03*
X381969Y220154D03*
Y720075D03*
G54D117*
X1146601Y1000868D03*
X1151601Y990868D03*
X1156601Y1000868D03*
X1161601Y990868D03*
X1166601Y1000868D03*
X1171601Y990868D03*
X1176601Y1000868D03*
X1276099Y1018377D03*
X1265194D03*
X1254288D03*
X1243383D03*
X1270666Y1029558D03*
X1259761D03*
X1248855D03*
X1237950D03*
G54D118*
X1104780Y1013868D03*
X1094938D03*
X1087064D03*
G54D119*
X174703Y508557D03*
Y571057D03*
X162203D03*
X137203D03*
X124703D03*
X112203D03*
Y508557D03*
X190703Y302057D03*
X228203Y352057D03*
Y377057D03*
X203203D03*
X190703D03*
X178203D03*
Y314557D03*
X130203Y302057D03*
X160203Y352057D03*
Y364557D03*
X140203D03*
X130203D03*
X120203D03*
X110203D03*
G54D120*
X1274774Y671723D03*
Y688258D03*
Y721329D03*
Y754400D03*
Y787471D03*
Y804006D03*
Y820542D03*
Y837077D03*
Y853612D03*
X1296428Y671723D03*
Y688258D03*
Y704794D03*
Y721329D03*
Y737864D03*
Y754400D03*
Y770935D03*
Y787471D03*
Y804006D03*
Y820542D03*
Y837077D03*
Y853612D03*
G54D121*
X1294617Y653219D03*
G54D122*
X706299Y695669D02*
X702362D01*
X785827Y987402D02*
X781890D01*
X635433Y695669D02*
X631496D01*
X580709Y688583D02*
X584646D01*
X777559Y996850D02*
X781496D01*
X621654Y688583D02*
X625591D01*
X801575Y987402D02*
X797638D01*
X659055Y695669D02*
X655118D01*
X793307Y996850D02*
X797244D01*
X645276Y688583D02*
X649213D01*
X740157Y997244D02*
X744094D01*
X860630Y987402D02*
X856693D01*
X692520Y688583D02*
X696457D01*
X852362Y996850D02*
X856299D01*
X668898Y688583D02*
X672835D01*
X836614Y996850D02*
X840551D01*
X682677Y695669D02*
X678740D01*
X611811D02*
X607874D01*
X844882Y987402D02*
X840945D01*
X740157Y696063D02*
X736220D01*
X748425Y987402D02*
X744488D01*
X898031D02*
X894094D01*
X889764Y996850D02*
X893701D01*
X716142Y688583D02*
X720079D01*
X913780Y987402D02*
X909843D01*
X768898Y696457D02*
X764961D01*
X905512Y996850D02*
X909449D01*
X753543Y688976D02*
X757480D01*
X723622Y997244D02*
X727559D01*
X557087Y688583D02*
X561024D01*
X732677Y987402D02*
X728740D01*
X570866Y695669D02*
X566929D01*
G54D123*
X762992Y553307D03*
X562992Y631260D03*
G54D124*
X147703Y174057D03*
X1254709Y899694D03*
X1264709D03*
X1274709D03*
X1284709D03*
X1294709D03*
X235203Y186557D03*
X210203Y174057D03*
X185203D03*
X122703D03*
X999701Y1001668D03*
G54D125*
X1141601Y990868D03*
X1232477Y1018377D03*
G54D126*
X215703Y377057D03*
X149703Y571057D03*
X110203Y302057D03*
X178203D03*
X150203Y364557D03*
X160203Y302057D03*
X228203Y314557D03*
Y302057D03*
X174703Y558557D03*
Y521057D03*
X112203Y496057D03*
G54D127*
X167101Y129168D03*
X1267101Y934168D03*
X657101Y414168D03*
X1267101Y129168D03*
X657101D03*
X1267101Y414168D03*
X167101D03*
X657101Y1024168D03*
X167101D03*
G54D128*
X563110Y695669D03*
X574685D03*
X724921Y987402D03*
X736496D03*
X564843Y688583D03*
X553268D03*
X731378Y997244D03*
X719803D03*
X761299Y688976D03*
X749724D03*
X913268Y996850D03*
X901693D03*
X761142Y696457D03*
X772717D03*
X906024Y987402D03*
X917598D03*
X723898Y688583D03*
X712323D03*
X897520Y996850D03*
X885945D03*
X890276Y987402D03*
X901850D03*
X740669D03*
X752244D03*
X732402Y696063D03*
X743976D03*
X837126Y987402D03*
X848701D03*
X604055Y695669D03*
X615630D03*
X674921D03*
X686496D03*
X844370Y996850D03*
X832795D03*
X676654Y688583D03*
X665079D03*
X860118Y996850D03*
X848543D03*
X700276Y688583D03*
X688701D03*
X852874Y987402D03*
X864449D03*
X747913Y997244D03*
X736339D03*
X653031Y688583D03*
X641457D03*
X801063Y996850D03*
X789488D03*
X651299Y695669D03*
X662874D03*
X793819Y987402D03*
X805394D03*
X629409Y688583D03*
X617835D03*
X785315Y996850D03*
X773740D03*
X588465Y688583D03*
X576890D03*
X627677Y695669D03*
X639252D03*
X778071Y987402D03*
X789646D03*
X698543Y695669D03*
X710118D03*
G54D129*
X1205115Y1023968D03*
X1303501D03*
G54D130*
X1274774Y770935D03*
Y737864D03*
Y704794D03*
G54D131*
X1116867Y1024537D03*
X1065135D03*
G54D132*
X1077221Y1013868D03*
G54D133*
X389703Y947857D03*
X369703D03*
Y967857D03*
X389703D03*
X390003Y913357D03*
X370003D03*
Y933357D03*
X390003D03*
X1092268Y125992D03*
X1072268D03*
Y145992D03*
X1092268D03*
X1045268Y125992D03*
X1025268D03*
Y145992D03*
X1045268D03*
G54D134*
X1190695Y979017D03*
X1127506D03*
X304357Y714026D03*
X270857D03*
X238357D03*
G54D135*
X1015354Y763425D03*
Y753425D03*
Y743425D03*
Y733425D03*
Y723425D03*
G54D136*
X1233961Y265727D03*
X351241Y711020D03*
X343741Y707083D03*
Y699209D03*
X351241Y687398D03*
X343741Y675587D03*
X351241Y663776D03*
X343741Y651965D03*
X351241Y640154D03*
X343741Y628343D03*
X351241Y616531D03*
X343741Y604720D03*
X351241Y592909D03*
X343741Y581098D03*
X351241Y569287D03*
X343741Y557476D03*
X351241Y545665D03*
X343741Y415744D03*
X351241Y403933D03*
X343741Y392122D03*
X351241Y380311D03*
X343741Y368500D03*
X351241Y356689D03*
X343741Y344878D03*
X351241Y333067D03*
X343741Y321256D03*
X351241Y309445D03*
X343741Y297634D03*
X351241Y285823D03*
X343741Y274012D03*
X351241Y262201D03*
X343741Y250390D03*
X351241Y238579D03*
X343741Y226768D03*
X366261Y703146D03*
X358761Y691335D03*
X366261Y679524D03*
X358761Y667713D03*
X366261Y655902D03*
X358761Y644091D03*
Y636217D03*
X366261Y632280D03*
X358761Y620469D03*
X366261Y608657D03*
X358761Y596846D03*
X366261Y585035D03*
X358761Y573224D03*
X366261Y561413D03*
X358761Y549602D03*
X366261Y498421D03*
X358761Y494484D03*
X366261Y419681D03*
X358761Y407713D03*
X366261Y396059D03*
X358761Y384091D03*
X366261Y372437D03*
X358761Y360469D03*
X366261Y348815D03*
X358761Y336846D03*
X366261Y325193D03*
X358761Y313224D03*
X366261Y301571D03*
X358761Y289602D03*
X366261Y277949D03*
X358761Y265980D03*
X366261Y254327D03*
X358761Y242358D03*
X366261Y230705D03*
X1226461Y253916D03*
X1233961Y257853D03*
X1226461Y277538D03*
X1233961Y289349D03*
X1226461Y301160D03*
X1233961Y312971D03*
X1226461Y324782D03*
X1233961Y336593D03*
X1226461Y348404D03*
X1233961Y360215D03*
X1226461Y372026D03*
X1233961Y383837D03*
X1226461Y395648D03*
X1233961Y407459D03*
X1226461Y419270D03*
X1233961Y549191D03*
X1226461Y561002D03*
X1233961Y572813D03*
X1226461Y584624D03*
X1233961Y596435D03*
X1226461Y608246D03*
X1233961Y620057D03*
X1226461Y631869D03*
X1233961Y643680D03*
X1226461Y655491D03*
X1233961Y667302D03*
X1226461Y679113D03*
X1233961Y690924D03*
X1226461Y702735D03*
X1233961Y714546D03*
X1226461Y726357D03*
X1233961Y738168D03*
X1211441Y261790D03*
X1218941Y273601D03*
X1211441Y285412D03*
X1218941Y297223D03*
X1211441Y309034D03*
X1218941Y320845D03*
Y328719D03*
X1211441Y332656D03*
X1218941Y344467D03*
X1211441Y356278D03*
X1218941Y368089D03*
X1211441Y379900D03*
X1218941Y391711D03*
X1211441Y403522D03*
X1218941Y415333D03*
X1211441Y466514D03*
X1218941Y470451D03*
X1211441Y545254D03*
X1218941Y557223D03*
X1211441Y568876D03*
X1218941Y580845D03*
X1211441Y592498D03*
X1218941Y604467D03*
X1211441Y616120D03*
X1218941Y628089D03*
X1211441Y639743D03*
X1218941Y651711D03*
X1211441Y663365D03*
X1218941Y675333D03*
X1211441Y686987D03*
X1218941Y698955D03*
X1211441Y710609D03*
X1218941Y722577D03*
X1211441Y734231D03*
G54D137*
X1052701Y1014668D03*
X991701D03*
G54D138*
X340746Y152628D03*
Y144754D03*
Y136880D03*
Y129006D03*
X625392Y152628D03*
Y144754D03*
Y136880D03*
Y129006D03*
X575077Y151092D03*
X565077D03*
X555077D03*
X545077D03*
X535077D03*
X525077D03*
X515077D03*
X505077D03*
X495077D03*
X485077D03*
X475077D03*
X465077D03*
X455077D03*
X445077D03*
X435077D03*
X425077D03*
X415077D03*
X405077D03*
X395077D03*
X385077D03*
X575077Y123257D03*
X565077D03*
X555077D03*
X545077D03*
X535077D03*
X525077D03*
X515077D03*
X505077D03*
X495077D03*
X485077D03*
X475077D03*
X465077D03*
X455077D03*
X445077D03*
X435077D03*
X425077D03*
X415077D03*
X405077D03*
X395077D03*
X385077D03*
X693246Y152628D03*
Y144754D03*
Y136880D03*
Y129006D03*
X977892Y152628D03*
Y144754D03*
Y136880D03*
Y129006D03*
X927577Y151092D03*
X917577D03*
X907577D03*
X897577D03*
X887577D03*
X877577D03*
X867577D03*
X857577D03*
X847577D03*
X837577D03*
X827577D03*
X817577D03*
X807577D03*
X797577D03*
X787577D03*
X777577D03*
X767577D03*
X757577D03*
X747577D03*
X737577D03*
X927577Y123257D03*
X917577D03*
X907577D03*
X897577D03*
X887577D03*
X877577D03*
X867577D03*
X857577D03*
X847577D03*
X837577D03*
X827577D03*
X817577D03*
X807577D03*
X797577D03*
X787577D03*
X777577D03*
X767577D03*
X757577D03*
X747577D03*
X737577D03*
G54D139*
X326378Y115748D03*
Y127559D03*
X320472Y151181D03*
X326378Y139370D03*
X283071Y210236D03*
X290945D03*
X639764Y200394D03*
X266303Y232357D03*
X258803Y232557D03*
X273903D03*
X281503Y232457D03*
X283071Y220079D03*
X290945D03*
X956299Y231890D03*
Y247638D03*
Y263386D03*
X1151181Y269291D03*
X1282403Y262557D03*
X1297003Y262757D03*
X1304203Y263057D03*
X1289803Y262557D03*
X162091Y286047D03*
X226067Y286262D03*
X258603Y308257D03*
X266203Y308057D03*
X274003Y307957D03*
X281503Y308057D03*
X298819Y306693D03*
X322441D03*
X1151181Y316535D03*
X302756Y328346D03*
X1245669Y326378D03*
X1283003Y338557D03*
X1298203D03*
X1305803D03*
X302756Y344094D03*
X1283803Y358557D03*
X1290703Y338757D03*
X1299503Y358357D03*
X1306703Y358257D03*
X1291803Y358357D03*
X302756Y375591D03*
Y359843D03*
X887402Y363780D03*
X871654Y363465D03*
X903150Y363780D03*
X920866Y359843D03*
X108703Y390057D03*
Y397557D03*
Y383057D03*
X302756Y391339D03*
X1257480Y389370D03*
X108703Y404557D03*
X226219Y427443D03*
Y420357D03*
X234093D03*
Y427443D03*
X303543Y423622D03*
X832283Y444488D03*
X867717Y444291D03*
X849606Y444094D03*
X1284103Y443157D03*
X1291803Y443057D03*
X1306303Y443257D03*
X1299203Y443057D03*
X191642Y478148D03*
X1016535Y485039D03*
X1025984D03*
X1045669D03*
X1035433D03*
X1055118D03*
X1002362Y505512D03*
X1025984D03*
X1016535D03*
X1035433D03*
X1045669D03*
X1040945Y511417D03*
X1062598D03*
X875591Y537008D03*
X217502Y596205D03*
X1249606Y584252D03*
X217501Y603604D03*
X217502Y611571D03*
X282354Y676378D03*
Y658661D03*
X1133465Y676772D03*
X1145276D03*
X1161024D03*
X282354Y694094D03*
X1133465Y698425D03*
X896850Y716142D03*
X875984Y729921D03*
X424803Y788976D03*
X812598Y787008D03*
X838189D03*
X1157087Y790945D03*
X424803Y804724D03*
X570866Y838189D03*
X622835Y837402D03*
X677165Y838976D03*
X1157087Y844094D03*
Y859843D03*
X566142Y936614D03*
X618504Y932677D03*
X668504Y933858D03*
G54D140*
X255512Y125591D03*
X277165D03*
X245904Y174294D03*
X265603Y174457D03*
X285103Y174657D03*
X326378Y192520D03*
X667717Y200394D03*
X567717Y230709D03*
X657874Y229134D03*
X749606Y228346D03*
X983858Y231890D03*
X567717Y248819D03*
X657874D03*
X749606D03*
X983858Y247638D03*
X298819Y263386D03*
X322441D03*
X983858D03*
X1178740Y269291D03*
Y316535D03*
X330315Y328346D03*
X871654Y335906D03*
X887402Y336220D03*
X903150D03*
X1269291Y326378D03*
X330315Y344094D03*
X920866Y340157D03*
X1257480Y346063D03*
X330315Y375591D03*
Y359843D03*
Y391339D03*
X832283Y416929D03*
X867717Y417126D03*
X850000Y416929D03*
X135203Y437057D03*
X279134Y423622D03*
X281102Y444882D03*
X1040945Y446457D03*
X1062598D03*
X1079921Y446063D03*
X1095669D03*
X281102Y470079D03*
X1278677Y459278D03*
X281102Y483858D03*
X1002362Y478740D03*
X280315Y524803D03*
X911024Y537008D03*
Y523228D03*
X1267323Y554724D03*
X1278648Y546046D03*
X190786Y577837D03*
X1267323Y568504D03*
X1273228Y584252D03*
X309913Y658661D03*
Y676378D03*
Y694094D03*
X921260Y716142D03*
X1145276Y704331D03*
X1161024D03*
X921260Y729921D03*
Y743701D03*
X812598Y759449D03*
X838189D03*
X452362Y788976D03*
X1184646Y790945D03*
X452362Y804724D03*
X533071Y857874D03*
X582283D03*
X635433D03*
X1184646Y844094D03*
X497638Y865748D03*
X542913Y877559D03*
X594094D03*
X645276D03*
X1184646Y859843D03*
X539871Y936220D03*
X590768Y936614D03*
X641067D03*
X1105906Y938583D03*
Y952362D03*
G54D141*
X661024Y157087D03*
X999606D03*
X1264508Y154038D03*
X1257408Y153947D03*
X1260808Y153938D03*
X356874Y160825D03*
X361789D03*
X355906Y172835D03*
X377559D03*
X604559Y160791D03*
X610238D03*
X609843Y170866D03*
X700394Y174803D03*
X708655Y161047D03*
X714534Y161006D03*
X722047Y174803D03*
X962919Y160644D03*
X956435D03*
X962205Y172835D03*
X1030268Y172992D03*
X1055268D03*
X1050268D03*
X1077268D03*
X1102268Y172101D03*
X1097268D03*
X1179945Y175337D03*
X1209709D03*
X1024996Y191620D03*
X1027636Y193024D03*
X1035827Y196457D03*
Y193701D03*
X1038583Y196457D03*
Y193701D03*
X1046899Y196961D03*
X1037268Y185792D03*
X1055268Y182892D03*
X1082677Y193701D03*
Y196457D03*
X1085433D03*
Y193701D03*
X1070896Y191420D03*
X1084268Y185361D03*
X1074636Y193024D03*
X1093899Y196961D03*
X1102268Y183692D03*
X1025296Y204120D03*
X1037268Y204624D03*
X1041533Y216016D03*
X1051839Y202520D03*
X1084268Y204624D03*
X1070896Y202520D03*
X1099039Y202820D03*
X232124Y235317D03*
Y251065D03*
X1030118Y248268D03*
X1075433Y255016D03*
X1069433Y250016D03*
X224250Y264845D03*
X862343Y277559D03*
X878091D03*
X870217D03*
X885965D03*
X901713D03*
X893839D03*
X909587D03*
X1031102Y272835D03*
Y268504D03*
X1058433Y260016D03*
X1200763Y265541D03*
X1312598Y290945D03*
X1283071Y302756D03*
X257480Y324409D03*
X1022085Y325451D03*
X1041900D03*
X1032139D03*
X116603Y375157D03*
X945510Y374401D03*
X936131Y372470D03*
X968308Y370595D03*
X960510Y374401D03*
X988008Y370595D03*
X970308Y373595D03*
X975510Y374401D03*
X1003408Y370595D03*
X990510Y374401D03*
X936131Y391070D03*
X939319Y394136D03*
X1000245D03*
X1194282Y394865D03*
X326378Y416929D03*
X336220Y412992D03*
X450787Y414961D03*
X939319Y409136D03*
X1006383Y398772D03*
X1000245Y409136D03*
X1051782Y403865D03*
Y410365D03*
Y416865D03*
X1194282Y404865D03*
Y414865D03*
X385433Y419291D03*
Y434646D03*
X540945D03*
X588189D03*
X635433D03*
X659055D03*
X936131Y420470D03*
X939319Y424136D03*
X944510Y432901D03*
X1000245Y424136D03*
X992510Y432901D03*
X1194282Y424865D03*
Y434865D03*
X1247845Y429320D03*
X385827Y451181D03*
X564567Y450394D03*
X611811D03*
X690551D03*
X722047D03*
X753543D03*
X785039D03*
X812008Y455457D03*
X817915Y455456D03*
X822638Y455457D03*
X828545Y455456D03*
X833268Y455457D03*
X839175Y455456D03*
X844291Y455457D03*
X850198Y455456D03*
X936809Y453722D03*
X950608Y440847D03*
X1006383Y440172D03*
X1194282Y444865D03*
Y454865D03*
X1294990Y457719D03*
X277165Y475984D03*
X332283D03*
X385433Y464173D03*
Y475984D03*
X785039Y474016D03*
X895276Y470079D03*
X1194282Y464865D03*
Y472865D03*
X1287303Y459257D03*
X266535Y496850D03*
X271654D03*
X273228Y483858D03*
X332283Y485827D03*
X385433Y489764D03*
X789314Y486810D03*
X789315Y492717D03*
X807677Y483519D03*
X801770Y483521D03*
X864762D03*
X860827Y483519D03*
X854920Y483521D03*
X885094Y496654D03*
X885096Y492718D03*
X885094Y486811D03*
X870669Y483519D03*
X898819Y496850D03*
X895276D03*
X902756D03*
X899213Y485433D03*
X914961Y487795D03*
X1194282Y480865D03*
Y488865D03*
Y496865D03*
X266535Y501181D03*
Y505906D03*
X253543Y501575D03*
X269291Y503543D03*
X272047Y501181D03*
Y505906D03*
X269291Y499213D03*
X285039Y503543D03*
X297638Y509843D03*
X385827Y501969D03*
X385433Y513780D03*
X568504Y517323D03*
X572441Y509449D03*
X798031Y511417D03*
Y507480D03*
X862992Y507559D03*
X862975Y511416D03*
X885096Y502560D03*
Y512403D03*
X885094Y506496D03*
Y516339D03*
X896850Y499213D03*
X895276Y501969D03*
X902756Y502362D03*
X900787Y499606D03*
X898819Y501969D03*
X897244Y514173D03*
X977953Y516535D03*
X983858D03*
X1007480D03*
X1001575D03*
X995669D03*
X989764D03*
X1013386D03*
X1019291D03*
X1194282Y504865D03*
Y512865D03*
X385433Y537008D03*
Y525591D03*
X572441Y525197D03*
Y533071D03*
X885096Y522246D03*
Y532088D03*
X885094Y526181D03*
X964173Y535039D03*
X960236D03*
Y531102D03*
X956299D03*
Y535039D03*
X1194282Y528865D03*
Y536865D03*
Y520865D03*
X385433Y548425D03*
X588189Y548819D03*
X568504Y540945D03*
X572441Y548819D03*
X568504Y556693D03*
X745669Y550787D03*
X807677Y550449D03*
X801770Y550450D03*
X864762D03*
X860827Y550449D03*
X854920Y550450D03*
X870669Y550449D03*
X960236Y542913D03*
X964173D03*
X968110D03*
Y538976D03*
X964173D03*
X960236D03*
X956299D03*
X968110Y546850D03*
X972047D03*
X1046645Y553937D03*
X1194282Y552865D03*
Y544865D03*
X336220Y560630D03*
Y572441D03*
X385433Y558661D03*
X389370Y568504D03*
X457480Y560630D03*
X584252Y568504D03*
X585433Y560630D03*
X588189Y572441D03*
X572441Y564567D03*
X568504Y572441D03*
X747449Y560630D03*
X755290Y568504D03*
X844684Y566985D03*
X836417Y566984D03*
X830510Y566985D03*
X850591Y566984D03*
X964173Y558661D03*
X975984Y566535D03*
Y558661D03*
X1194282Y560865D03*
X122402Y594157D03*
Y597657D03*
X108503Y597457D03*
X450394Y590157D03*
X479921Y594094D03*
Y586220D03*
X585039Y584252D03*
X588189Y588189D03*
X572441Y580315D03*
Y588189D03*
Y596063D03*
X960236Y590157D03*
X987008Y590346D03*
X1048031Y587953D03*
Y597866D03*
X1059449Y597832D03*
Y587985D03*
X122105Y601257D03*
X138403Y612057D03*
X134543Y610457D03*
X134379Y614515D03*
X450394Y613780D03*
X584252Y607874D03*
X572441Y603937D03*
X592126D03*
X755323Y600000D03*
X964173Y605906D03*
X987008Y611572D03*
X1261024Y616535D03*
X1253543D03*
X1257087D03*
X1259025Y605925D03*
X1275197Y611811D03*
X125090Y636110D03*
Y630935D03*
X127703Y622457D03*
X130055Y636215D03*
X135265Y636110D03*
X130510Y630935D03*
X135265D03*
X144003Y633457D03*
X132703Y622357D03*
X130103D03*
X134479Y618615D03*
X479921Y635433D03*
Y627559D03*
X538976Y623622D03*
X805709Y631835D03*
X811616Y631834D03*
X816339Y632229D03*
X822246Y632227D03*
X828543Y632229D03*
X834450Y632227D03*
X840748Y632229D03*
X846655Y632227D03*
X960236Y633465D03*
X987008Y621419D03*
Y631195D03*
X1094094Y635433D03*
Y627559D03*
X1253543Y621654D03*
X1257087D03*
X1261024Y622047D03*
X1259055Y619291D03*
X1255118Y618898D03*
X1257082Y633065D03*
X125125Y641111D03*
X128303Y652957D03*
X127503Y649557D03*
X130125Y641181D03*
X135335Y641216D03*
X130103Y649557D03*
X132703D03*
X153403Y638757D03*
X518110Y655118D03*
Y650787D03*
X538976Y639370D03*
X943307Y652756D03*
Y644882D03*
Y649213D03*
X1267323Y651181D03*
X1249682Y653565D03*
X107106Y667057D03*
X107203Y670657D03*
X107106Y674057D03*
X153100Y667257D03*
X153003Y660257D03*
Y663657D03*
X454331Y675984D03*
X480803Y664849D03*
X511417Y668898D03*
X515354D03*
X511417Y672835D03*
X515354D03*
X598031Y669685D03*
X727953D03*
X864762Y662655D03*
X860827Y662653D03*
X854920Y662655D03*
X870669Y662653D03*
X886275Y665551D03*
Y675394D03*
X886277Y671458D03*
X883254Y659843D03*
X107252Y685943D03*
X107403Y689757D03*
X107252Y693857D03*
X152795Y686802D03*
X152539Y679200D03*
X152603Y682857D03*
X152703Y697257D03*
X152339Y693400D03*
X506693Y684646D03*
X518110Y690551D03*
Y694488D03*
X886275Y694291D03*
X886277Y690749D03*
X886275Y684843D03*
X886277Y681301D03*
X107252Y699943D03*
X107303Y703757D03*
X107252Y707857D03*
X106839Y713600D03*
X107303Y717757D03*
X152903Y710857D03*
X152795Y714802D03*
X152639Y707000D03*
X152795Y700802D03*
X518110Y706299D03*
X802417Y709252D03*
X802418Y715159D03*
X886277Y711616D03*
Y700198D03*
X886275Y705709D03*
X107252Y721757D03*
Y735857D03*
X106839Y728000D03*
X107303Y731957D03*
X454331Y730709D03*
X481496Y720079D03*
X511417Y724016D03*
X515354Y727953D03*
X511417D03*
X515354Y724016D03*
X791284Y726575D03*
X791282Y720668D03*
X864762Y729584D03*
X860827Y729582D03*
X854920Y729584D03*
X870669Y729582D03*
X953068Y722992D03*
X1006454Y735925D03*
Y730925D03*
Y725925D03*
Y723425D03*
X989068Y729792D03*
X1034254Y738425D03*
Y735925D03*
Y730925D03*
Y728425D03*
Y723425D03*
Y720925D03*
X115195Y745947D03*
X505906Y740157D03*
X518110Y745669D03*
Y749606D03*
X805707Y739426D03*
X797638Y741535D03*
X823425Y747299D03*
X817518Y747300D03*
X811614Y739425D03*
X846258Y747300D03*
X837205Y747299D03*
X831298Y747300D03*
X852165Y747299D03*
X859055Y745440D03*
X910630Y758268D03*
X1006454Y748425D03*
X1034254Y745925D03*
Y743425D03*
Y740925D03*
X1228150Y746850D03*
X149638Y764697D03*
X325512Y775197D03*
X904724Y769685D03*
X908268D03*
X904724Y774803D03*
X906299Y772047D03*
X908268Y774803D03*
X912205Y769685D03*
X910236Y772441D03*
X912205Y775197D03*
X942468Y777992D03*
X176772Y785433D03*
X227953Y783270D03*
X220079Y796850D03*
X216142Y786825D03*
X239764Y786782D03*
X235827Y796850D03*
X231890D03*
X263386Y786791D03*
X251575Y783253D03*
X263386Y796850D03*
X275197Y783270D03*
X283071Y796850D03*
X279134D03*
X294882Y786825D03*
X320252Y792913D03*
X908613Y786220D03*
X922835Y781102D03*
X149213Y804724D03*
X187927Y800787D03*
X202362Y806693D03*
X188368Y812598D03*
X227953Y804724D03*
X220079Y808661D03*
X231890Y812598D03*
X247638Y816535D03*
X255512D03*
X283071Y812598D03*
X275197Y800787D03*
X320305Y816535D03*
X316722Y804724D03*
X914983Y800212D03*
X188408Y824409D03*
X188487Y836220D03*
X227953Y824409D03*
X247638Y820472D03*
Y828346D03*
X243701Y832283D03*
X247638Y836220D03*
X239764D03*
X263386Y820472D03*
X251575Y824409D03*
X255512Y828346D03*
X251575Y832283D03*
X263386Y836220D03*
X255512D03*
X320276D03*
X320278Y826378D03*
X546850Y838189D03*
X600000D03*
X651181D03*
X178740Y850000D03*
X227953Y851969D03*
Y855906D03*
X243701Y844094D03*
X251575D03*
X255512D03*
X275197Y855906D03*
X283071Y844094D03*
X316696Y848031D03*
X873228Y858268D03*
Y850394D03*
X188359Y863780D03*
X188385Y875591D03*
X220079Y859843D03*
X239764D03*
X267323D03*
X275197D03*
X283071D03*
X320272D03*
X352539Y872860D03*
X352697Y877844D03*
X394682Y875865D03*
X409357Y872965D03*
Y877965D03*
X454633Y872965D03*
X873228Y874016D03*
Y866142D03*
X960701Y863284D03*
X948636Y869119D03*
Y875119D03*
X1005224Y868827D03*
X995775Y870284D03*
Y874221D03*
Y878158D03*
X1008689Y871471D03*
X1024043D03*
X1026878Y868827D03*
X1017035D03*
X1044706Y876386D03*
X1032311Y871471D03*
X1047862Y876190D03*
Y872253D03*
X1046563Y866859D03*
X1040657D03*
X1036720Y868827D03*
X1049830Y874221D03*
Y870284D03*
X322899Y880308D03*
X352582Y887765D03*
X409150Y887979D03*
X454633Y882965D03*
Y887965D03*
X540144Y896654D03*
X554724Y894488D03*
X552362Y896850D03*
X557087D03*
X559449Y894882D03*
X550000Y894488D03*
X569304Y896654D03*
X601181Y894488D03*
X605906D03*
X603543Y896850D03*
X608268D03*
X591325Y896654D03*
X610630Y894882D03*
X620486Y896654D03*
X642507D03*
X652362Y894094D03*
X657087D03*
X654724Y896457D03*
X659449D03*
X661811Y894488D03*
X671667Y896654D03*
X873228Y889764D03*
Y881890D03*
Y897638D03*
X948636Y882119D03*
Y889119D03*
X999837Y889772D03*
Y879930D03*
Y896071D03*
X995775Y886032D03*
Y893906D03*
X1020500Y879345D03*
X1044706Y889772D03*
Y896071D03*
X1047862Y895875D03*
Y888001D03*
Y880127D03*
X1212053Y880287D03*
X347407Y916552D03*
X347803Y909057D03*
X446185Y912781D03*
X540144Y899213D03*
Y901772D03*
X533071Y907087D03*
X552362Y901575D03*
X550000Y903937D03*
Y899213D03*
X559449D03*
X557087Y901575D03*
X554724Y899213D03*
X559449Y903937D03*
X554724D03*
X569304Y899213D03*
Y901772D03*
X584252Y907087D03*
X576550Y918504D03*
X608268Y901575D03*
X605906Y903937D03*
X603543Y901575D03*
X601181Y903937D03*
Y899213D03*
X591325D03*
Y901772D03*
X605906Y899213D03*
X610630D03*
Y903937D03*
X620486Y899213D03*
Y901772D03*
X629528Y917323D03*
X642507Y899213D03*
X635433Y907087D03*
X642520Y901764D03*
X657087Y898819D03*
X654724Y901181D03*
X661811Y898819D03*
X659449Y901181D03*
X657087Y903543D03*
X652362D03*
Y898819D03*
X661811Y903543D03*
X677165Y917717D03*
X671667Y899213D03*
Y901772D03*
X957936Y902119D03*
Y914119D03*
X999837Y905914D03*
Y915756D03*
X995775Y901780D03*
Y905717D03*
Y913591D03*
X1044706Y915756D03*
Y905914D03*
X1049830Y903749D03*
X1082168Y903592D03*
X1080568Y914192D03*
X110000Y938110D03*
X237795Y919685D03*
X267323Y918898D03*
X283003Y935357D03*
X298003Y933257D03*
X323003Y934657D03*
X425003D03*
X440250Y927800D03*
X467003Y935257D03*
X511643Y935155D03*
Y924355D03*
X546105Y925984D03*
X595584Y925188D03*
X646850Y925591D03*
X957936Y926119D03*
X999837Y929142D03*
X1007386Y929356D03*
X999837Y935441D03*
X995775Y921465D03*
Y935245D03*
X1008650Y937367D03*
X1044706Y929142D03*
X1033250Y937567D03*
X1036885Y929356D03*
X1044706Y935441D03*
X1047862Y933276D03*
Y925402D03*
Y921465D03*
X1068201Y932284D03*
X1049830Y937213D03*
X1080568Y919492D03*
X110000Y958110D03*
Y948110D03*
X272603Y942857D03*
X298403Y942457D03*
X312003Y942657D03*
X343088Y951513D03*
X339503Y942957D03*
X415603Y941757D03*
X446103Y958257D03*
X446503Y940257D03*
X456703Y942057D03*
X482503Y958157D03*
Y942757D03*
X490543Y940855D03*
X547703Y951557D03*
X577061D03*
X634203Y948882D03*
X638203Y948757D03*
X630203D03*
X957936Y939119D03*
Y952119D03*
X997350Y946662D03*
X1003255D03*
X1005224Y942725D03*
X1009161D03*
X1015067Y946662D03*
X1017035Y942725D03*
X1020972D03*
X1026878D03*
X1028846Y946662D03*
X1032783D03*
X1038689Y942725D03*
X1040657Y946662D03*
X1044594D03*
X1065201Y939184D03*
X1075668Y955492D03*
X1217323Y942520D03*
X1239370D03*
X1228346D03*
X110000Y968110D03*
X272603Y961057D03*
X281203Y970057D03*
X271003Y972657D03*
X307203Y958957D03*
X322303Y969457D03*
X352403Y976557D03*
X423726Y969895D03*
X415503Y961057D03*
X412403Y974457D03*
X465903Y968657D03*
X548703Y976057D03*
X580903Y975057D03*
X588203Y966557D03*
X574703Y961557D03*
X638203Y972257D03*
X634203Y972382D03*
X630203Y972257D03*
X1078101Y971884D03*
X1110236Y961084D03*
X1216929Y959449D03*
X1253937Y959055D03*
X1272047Y960033D03*
X149055Y990787D03*
X575603Y985957D03*
X589703Y990057D03*
X634203Y997382D03*
X630203Y997257D03*
X638203D03*
X1090703Y986257D03*
X1205512Y998031D03*
X1216142D03*
X1227953D03*
X1242520D03*
X1263386D03*
X1253543D03*
X217164Y1005813D03*
X494503Y1005009D03*
X549203Y1000557D03*
X576003Y1010457D03*
X578061Y1000557D03*
X589703Y1015057D03*
X1114836Y1004684D03*
X1281102Y1010630D03*
X233699Y1019176D03*
X262503Y1036057D03*
X282503D03*
X272503D03*
X302503D03*
X292503D03*
X322503D03*
X312503D03*
X342503D03*
X332503D03*
X352503D03*
X404503D03*
X424503D03*
X414503D03*
X444503D03*
X434503D03*
X464503D03*
X454503D03*
X484503D03*
X474503D03*
X494503D03*
X549203Y1025057D03*
X576203Y1035057D03*
X580703Y1024557D03*
X634203Y1022182D03*
X638203Y1022057D03*
X630203D03*
X727337Y1023262D03*
X739148Y1023223D03*
X736628Y1023262D03*
X741195Y1023223D03*
X750959D03*
X765369Y1023183D03*
X753479Y1023223D03*
X774581D03*
X780565Y1023183D03*
X772061Y1023223D03*
X804109Y1023262D03*
X792298Y1023223D03*
X819031Y1023583D03*
X827770Y1023223D03*
X816803Y1030757D03*
X839542Y1023262D03*
X833636D03*
X851353D03*
X863203Y1023223D03*
X877803Y1023257D03*
X875903Y1031057D03*
X886786Y1023183D03*
X904463Y1023262D03*
X892691D03*
X916274D03*
X923003Y1030657D03*
X939896Y1023262D03*
X931103Y1023357D03*
X1014703Y1020957D03*
X1024803D03*
X1034903Y1020857D03*
X1106736Y1029484D03*
X1100536D03*
X109843Y1040945D03*
X149055Y1040787D03*
X589903Y1039857D03*
X612103Y1059857D03*
X624803D03*
X637603Y1059757D03*
X650903D03*
G54D142*
X349509Y210938D03*
X926378Y275197D03*
X946850D03*
X937008D03*
X957087D03*
X982283Y275591D03*
X972441D03*
X1002756D03*
X992520D03*
X889764Y311024D03*
X1101969Y325591D03*
X1114173Y337795D03*
X1133465Y325197D03*
X1121654Y349213D03*
X1113780Y342520D03*
X1124409D03*
X1059055Y370472D03*
X1074016Y378346D03*
X1090551Y370079D03*
X1083465Y381890D03*
X308268Y430118D03*
X308282Y427207D03*
X308268Y424212D03*
X308282Y437837D03*
X308268Y434842D03*
X450394Y438583D03*
X899606Y428740D03*
X916142Y424016D03*
X1265748Y435236D03*
X1265734Y438147D03*
X308268Y440748D03*
Y453741D03*
X308282Y450830D03*
X308268Y447835D03*
X815033Y455457D03*
X825380D03*
X817428Y446642D03*
X836209Y455457D03*
X847338D03*
X905512Y444882D03*
X898031Y445276D03*
X1265748Y441142D03*
Y445078D03*
X1265734Y447989D03*
X1265748Y450984D03*
Y455708D03*
X308268Y466733D03*
X308282Y463822D03*
X308268Y460827D03*
X450394Y462205D03*
X1021260Y466929D03*
X1265734Y458619D03*
X1265748Y461614D03*
X308282Y496499D03*
X308268Y493504D03*
X450394Y489764D03*
X584252D03*
X600000D03*
X607874Y485827D03*
X592126D03*
X615748Y489764D03*
X623622Y485827D03*
X631496Y489764D03*
X647244D03*
X639370Y485827D03*
X662992Y489764D03*
X655118D03*
X686614Y495276D03*
X678740Y489764D03*
X686614Y485827D03*
X670866Y489764D03*
X702362Y485827D03*
X694488Y489764D03*
X725984D03*
X718110Y485827D03*
X710236Y489764D03*
X741732D03*
X733858Y485827D03*
X785039Y489764D03*
X789314Y489750D03*
X804626Y483521D03*
X826378Y497638D03*
X822441Y489764D03*
Y493701D03*
X826378D03*
X830315D03*
Y497638D03*
X838189Y489764D03*
Y493701D03*
X834252D03*
Y497638D03*
X858106Y483521D03*
X867852D03*
X885094Y489611D03*
X1265748Y491141D03*
X1265734Y494052D03*
X1265748Y497047D03*
X308268Y499410D03*
X308282Y516184D03*
X308268Y513189D03*
X450394Y513386D03*
X554724Y517323D03*
Y509449D03*
X755305Y513386D03*
X785039Y505512D03*
X830315Y517323D03*
Y513386D03*
Y509449D03*
Y505512D03*
Y501575D03*
X885091Y499535D03*
X885094Y509382D03*
X1265748Y502952D03*
X1265734Y505863D03*
X1265748Y508858D03*
Y513582D03*
X1265734Y516493D03*
X308268Y519095D03*
Y537993D03*
X308282Y535082D03*
X308268Y532087D03*
X554724Y533071D03*
Y525197D03*
X607874D03*
X596063Y529134D03*
X600000Y537008D03*
X627559Y525197D03*
X619685Y529134D03*
X627559Y533071D03*
X643307Y525197D03*
X639370Y537008D03*
X662992Y525197D03*
X655118Y529134D03*
X686614Y525197D03*
X670866Y533071D03*
X682677Y537008D03*
X702362Y525197D03*
X698425Y529134D03*
X725984Y525197D03*
X718110Y529134D03*
X710236Y533071D03*
X722047Y537008D03*
X729921Y533071D03*
X755278Y521260D03*
X755330Y529134D03*
X822441D03*
X826378Y521260D03*
Y525197D03*
X822441D03*
X834252Y521260D03*
X830315D03*
X838189Y529134D03*
Y525197D03*
X834252D03*
X830315D03*
X885091Y519230D03*
Y529039D03*
X983858Y535039D03*
Y531102D03*
X1007480Y535039D03*
Y531102D03*
X1003543D03*
X993701Y527559D03*
X1019291Y535039D03*
X1031102D03*
X1062598D03*
X1050787Y531102D03*
X1086220Y535039D03*
Y531102D03*
X1082283Y535039D03*
Y531102D03*
X1070472D03*
X1090157Y535039D03*
Y531102D03*
X1265748Y519488D03*
X1265734Y533816D03*
X1265748Y530905D03*
Y536811D03*
X327953Y540945D03*
X450394D03*
X554724D03*
Y556693D03*
Y548819D03*
X596063D03*
X607874Y552756D03*
X611811Y540945D03*
X623622Y544882D03*
X627559Y552756D03*
X619685Y556693D03*
X635433Y548819D03*
X647244Y552756D03*
X639370Y556693D03*
X666929Y544882D03*
X651181Y540945D03*
X659055Y556693D03*
X678740Y548819D03*
X682677Y556693D03*
X694488Y540945D03*
X706299Y544882D03*
X690551Y552756D03*
X702362Y556693D03*
X725984Y544882D03*
X718110Y548819D03*
X731890Y554724D03*
X777306Y556693D03*
X804975Y550450D03*
X867700D03*
X857814D03*
X915354Y542913D03*
X987795Y538976D03*
Y542913D03*
Y550787D03*
Y546850D03*
X980929Y553748D03*
X1003543Y542913D03*
X999606D03*
X995669Y550787D03*
X991732Y546850D03*
X1001929Y553748D03*
X991929D03*
X1023228Y550787D03*
X1019291D03*
X1011929Y553748D03*
X1025890Y553739D03*
X1031102Y550787D03*
X1033929Y553748D03*
X1062598Y550787D03*
Y546850D03*
X1054724Y550787D03*
X1063929Y553748D03*
X1052929D03*
X1086220Y542913D03*
Y538976D03*
X1082283Y542913D03*
Y538976D03*
X1078346Y550787D03*
Y546850D03*
Y542913D03*
Y538976D03*
X1074409Y546850D03*
Y542913D03*
X1090157Y538976D03*
X450394Y566535D03*
X554724Y572441D03*
X603937Y564567D03*
X596063Y568504D03*
X600000Y576378D03*
X627559Y572441D03*
X623622Y564567D03*
X615748Y568504D03*
X631496Y560630D03*
X643307Y576378D03*
Y564567D03*
X639370Y568504D03*
X643307D03*
X647244D03*
X651181Y560630D03*
Y576378D03*
X655118Y568504D03*
X662992D03*
Y576378D03*
X686614Y572441D03*
X678740D03*
X674803Y560630D03*
X686614Y564567D03*
Y568504D03*
X670866D03*
X678740Y576378D03*
X670866D03*
X694488Y560630D03*
X698425Y576378D03*
Y568504D03*
X722047Y576378D03*
X710236Y572441D03*
X725984Y564567D03*
X714173Y560630D03*
X731890Y574409D03*
X780907Y566535D03*
Y576378D03*
X813655Y564188D03*
X825319Y567118D03*
X847354Y566985D03*
X833521D03*
X832087Y576378D03*
X857677D03*
X916536Y558661D03*
X978945Y566142D03*
X986819Y566299D03*
X978945Y576142D03*
X986819Y576299D03*
X1006835Y575386D03*
X992724Y566339D03*
X997835Y575386D03*
X1001772Y561622D03*
X1010772D03*
X1016835Y575386D03*
X1027835D03*
X1021772Y561622D03*
X1046315D03*
X1047843Y576181D03*
X1043378Y575386D03*
X1036315Y561622D03*
X1067512Y576339D03*
X1059638Y566339D03*
Y576339D03*
X1067512Y566339D03*
X1086220Y558661D03*
X1074409Y566535D03*
Y558661D03*
X539764Y592126D03*
X554724Y596063D03*
Y588189D03*
Y580315D03*
X607874Y592126D03*
X596063Y588189D03*
X611811Y580315D03*
X627559Y596063D03*
X623622Y588189D03*
X639370Y592126D03*
X631496Y580315D03*
X647244Y584252D03*
Y592126D03*
X639370Y584252D03*
X662992D03*
X655118D03*
X686614D03*
X678740D03*
X670866D03*
X686614Y592126D03*
X678740D03*
X702362Y596063D03*
X698425Y588189D03*
X706299Y584252D03*
X694488Y580315D03*
X718110Y588189D03*
X731890Y594094D03*
X755343Y592126D03*
X755282Y584252D03*
X836220Y580315D03*
X855906D03*
X859843Y592126D03*
X987008Y585236D03*
X975984Y598031D03*
Y590157D03*
X978945Y594142D03*
Y585142D03*
X1007480Y598031D03*
Y590157D03*
Y582283D03*
X998614Y593055D03*
Y584055D03*
X1027165Y598031D03*
Y594094D03*
Y590157D03*
Y586220D03*
Y582283D03*
X1023228Y598031D03*
Y594094D03*
Y590157D03*
Y586220D03*
Y582283D03*
X1019291Y598031D03*
Y594094D03*
Y590157D03*
X1015354Y598031D03*
Y594094D03*
Y590157D03*
Y586220D03*
Y582283D03*
X1011417Y598031D03*
Y590157D03*
Y586220D03*
X1042913Y598031D03*
Y590157D03*
Y582283D03*
X1038976Y598031D03*
Y590157D03*
Y586220D03*
X1035039Y598031D03*
Y594094D03*
Y590157D03*
Y586220D03*
Y582283D03*
X1031102Y598031D03*
Y594094D03*
Y590157D03*
X1067512Y586339D03*
Y597339D03*
X1086220Y590157D03*
X1074409Y594094D03*
Y590157D03*
X554724Y603937D03*
X584252Y600000D03*
X596063Y607874D03*
X603937Y603937D03*
X615748Y607874D03*
X623622Y600000D03*
X627559Y615748D03*
X635433D03*
Y611811D03*
Y600000D03*
X647244D03*
Y607874D03*
Y615748D03*
X639370D03*
Y607874D03*
X662992Y600000D03*
X655118D03*
X662992Y607874D03*
X655118D03*
X662992Y615748D03*
X655118D03*
X670866Y600000D03*
X678740Y607874D03*
X670866D03*
Y615748D03*
X678740D03*
X686614D03*
Y607874D03*
X694488D03*
Y600000D03*
X714173D03*
X726378Y607874D03*
X710236Y615748D03*
X741732Y617717D03*
X731102Y613780D03*
Y617717D03*
X755261Y615748D03*
X755338Y607874D03*
X779326Y605906D03*
X782883Y613780D03*
X834055Y615748D03*
X857677D03*
X915748Y607874D03*
X987008Y602571D03*
X975984Y601969D03*
X978945Y612142D03*
X978937Y603150D03*
X1007480Y617717D03*
Y609843D03*
Y601969D03*
X998614Y611055D03*
Y602055D03*
X1027165Y617717D03*
Y613780D03*
Y609843D03*
Y605906D03*
Y601969D03*
X1023228Y617717D03*
Y613780D03*
Y609843D03*
Y605906D03*
Y601969D03*
X1019291Y609843D03*
Y605906D03*
Y601969D03*
X1015354Y617717D03*
Y613780D03*
Y609843D03*
Y605906D03*
Y601969D03*
X1011417Y613780D03*
Y609843D03*
Y601969D03*
X1042913Y617717D03*
Y609843D03*
Y601969D03*
X1038976Y613780D03*
Y609843D03*
Y601969D03*
X1035039Y617717D03*
Y613780D03*
Y609843D03*
Y605906D03*
Y601969D03*
X1031102Y609843D03*
Y605906D03*
Y601969D03*
X1047843Y616181D03*
Y607181D03*
X1059638Y606339D03*
X1067512Y616339D03*
X1059638D03*
X1067512Y607339D03*
X1086220Y601969D03*
X1074409D03*
X450394Y637402D03*
X585039Y627559D03*
Y631496D03*
Y635433D03*
X600000Y627559D03*
Y619685D03*
X596063D03*
X600000Y635433D03*
X607874Y627559D03*
X623622D03*
X611811Y623622D03*
X647244Y635433D03*
X635433Y631496D03*
X631496Y623622D03*
X662992Y635433D03*
Y623622D03*
X651181D03*
X682677Y619685D03*
X674803Y623622D03*
X678740Y631496D03*
X690551Y635433D03*
X694488Y623622D03*
X706299Y627559D03*
X718110D03*
X722047Y619685D03*
X725984D03*
X710236Y635433D03*
X725984Y631496D03*
Y635433D03*
X741732Y621654D03*
X740551Y633465D03*
Y629528D03*
Y637402D03*
X808558Y631835D03*
X819266Y632229D03*
X831418D03*
X843810D03*
X960236Y637402D03*
X975984Y633465D03*
Y625591D03*
X978945Y621142D03*
Y631142D03*
X998614Y620055D03*
X995866Y634441D03*
X1000039Y627937D03*
X1004866Y634441D03*
X1007677Y622646D03*
X1018491Y622780D03*
X1014866Y634441D03*
X1023866D03*
X1045866D03*
X1038491Y622780D03*
X1029491D03*
X1034866Y634441D03*
X1067512Y626339D03*
X1059638D03*
X1053732Y626181D03*
X1056866Y634441D03*
X1074409Y637402D03*
Y629528D03*
X1098425Y632677D03*
X1105118Y623622D03*
Y619685D03*
Y627559D03*
X1136614Y635433D03*
X585039Y639370D03*
X600000Y655118D03*
X603937D03*
X607874Y639370D03*
X619685Y647244D03*
X611811D03*
X623622Y655118D03*
X627559D03*
X615748Y643307D03*
X619685Y639370D03*
X643307Y647244D03*
X631496D03*
X647244Y655118D03*
X631496Y643307D03*
X651181Y655118D03*
X659055Y647244D03*
X655118Y643307D03*
X651181D03*
X662992Y639370D03*
X686614Y647244D03*
X682677D03*
X674803Y643307D03*
X670866D03*
Y647244D03*
X674803Y655118D03*
X678740D03*
X702362Y639370D03*
X694488Y643307D03*
X706299Y647244D03*
X702362Y655118D03*
X698425D03*
X694488Y647244D03*
X718110Y639370D03*
X714173Y643307D03*
X722047Y655118D03*
X725984D03*
X740551Y641339D03*
X968110Y657087D03*
Y653150D03*
Y649213D03*
X964173Y657087D03*
Y653150D03*
X960236Y657087D03*
Y653150D03*
X956299Y657087D03*
Y641339D03*
X983858Y657087D03*
Y649213D03*
X972047Y653150D03*
Y649213D03*
X987992Y642315D03*
X978945Y641142D03*
X991732Y649213D03*
X996992Y642315D03*
X1005992D03*
X1027165Y657087D03*
Y649213D03*
X1023228D03*
X1015354Y657087D03*
Y649213D03*
X1015992Y642315D03*
X1024992D03*
X1046992D03*
X1035992D03*
X1062598Y657087D03*
X1058661Y645276D03*
X1050787D03*
X1065559Y639016D03*
X1057992Y642315D03*
X1086220Y657087D03*
Y653150D03*
X1082283Y657087D03*
Y653150D03*
X1078346Y657087D03*
Y653150D03*
Y649213D03*
Y645276D03*
X1074409Y653150D03*
Y649213D03*
X1104724Y639370D03*
X1090157Y657087D03*
X605906Y669685D03*
X600000Y659055D03*
X609843Y669685D03*
X625591D03*
X621654D03*
X613780Y670079D03*
X645276Y669685D03*
X641339D03*
X633465D03*
X629528D03*
X664961D03*
X657087D03*
X653150D03*
X649213D03*
X668898D03*
X676772D03*
X684646D03*
X680709D03*
X692520D03*
X696457D03*
X700394D03*
X704331D03*
X712205D03*
X716142D03*
X720079D03*
X725984Y659055D03*
X826378Y676772D03*
X822441Y668898D03*
Y672835D03*
X826378D03*
X838189Y668898D03*
X830315Y676772D03*
X834252D03*
X838189Y672835D03*
X834252D03*
X830315D03*
X867760Y662655D03*
X857721D03*
X886272Y668596D03*
Y678214D03*
X968110Y661024D03*
X964173Y664961D03*
Y661024D03*
X960236Y664961D03*
Y661024D03*
X956299D03*
Y664961D03*
X1086220D03*
Y661024D03*
X1082283Y664961D03*
Y661024D03*
X1090157Y664961D03*
Y661024D03*
X797638Y686220D03*
Y690551D03*
X830315Y696457D03*
Y680709D03*
Y684646D03*
Y692520D03*
Y688583D03*
X863386D03*
X886272Y697368D03*
X886276Y687865D03*
X1003543Y688976D03*
X1022441D03*
X802414Y712222D03*
X826378Y700394D03*
Y704331D03*
X822441D03*
Y708268D03*
X838189Y704331D03*
X834252Y700394D03*
Y704331D03*
X830315D03*
Y700394D03*
X838189Y708268D03*
X886276Y708556D03*
X927165Y700393D03*
X921260D03*
X915354D03*
X933071D03*
X938976Y700394D03*
X791289Y723724D03*
X867632Y729584D03*
X857938D03*
X348523Y757480D03*
X554724D03*
X576378D03*
X592126D03*
X676772D03*
X700394D03*
X729921D03*
X761417D03*
X787008D03*
X820546Y747300D03*
X808626Y739426D03*
X834181Y747300D03*
X849278D03*
X214173Y897039D03*
X224016Y893496D03*
X247638Y897039D03*
X235827D03*
X259449Y893496D03*
X279134Y893307D03*
X271260Y897039D03*
X290355Y891732D03*
X552165Y885434D03*
X603346D03*
X654528D03*
X1097638Y890551D03*
X453384Y928231D03*
X523772Y929155D03*
X1281224Y983868D03*
G74*
X0Y0D02*
M02*
