*
*
G04 PADS9.0.1 Build Number: 350951 generated Gerber (RS-274-X) file*
G04 PC Version=2.1*
*
%IN "roach103.pcb"*%
*
%MOIN*%
*
%FSLAX35Y35*%
*
*
*
*
G04 PC Standard Apertures*
*
*
G04 Thermal Relief Aperture macro.*
%AMTER*
1,1,$1,0,0*
1,0,$1-$2,0,0*
21,0,$3,$4,0,0,45*
21,0,$3,$4,0,0,135*
%
*
*
G04 Annular Aperture macro.*
%AMANN*
1,1,$1,0,0*
1,0,$2,0,0*
%
*
*
G04 Odd Aperture macro.*
%AMODD*
1,1,$1,0,0*
1,0,$1-0.005,0,0*
%
*
*
G04 PC Custom Aperture Macros*
*
*
*
*
*
*
G04 PC Aperture Table*
*
%ADD038R,0.02362X0.04331*%
%ADD054R,0.04331X0.02362*%
%ADD062C,0.03937*%
%ADD063R,0.08661X0.11614*%
%ADD079R,0.05709X0.05709*%
%ADD089R,0.03937X0.01969*%
%ADD092R,0.07283X0.04331*%
%ADD099R,0.06299X0.06299*%
%ADD109R,0.11811X0.11811*%
%ADD110O,0.07283X0.01181*%
%ADD111O,0.01181X0.07283*%
%ADD115C,0.001*%
%ADD117C,0.01181*%
%ADD120C,0.02362*%
%ADD138C,0.00984*%
%ADD139C,0.07874*%
%ADD142R,0.08661X0.06496*%
%ADD143R,0.02953X0.02756*%
%ADD144R,0.02756X0.02953*%
%ADD145R,0.11024X0.04921*%
%ADD146R,0.04134X0.04331*%
%ADD147R,0.04921X0.11024*%
%ADD148R,0.04331X0.04134*%
%ADD149R,0.02756X0.02756*%
%ADD150R,0.04331X0.07283*%
%ADD151R,0.01496X0.09331*%
%ADD152R,0.10394X0.02087*%
%ADD153R,0.18898X0.02087*%
%ADD154R,0.06496X0.02756*%
%ADD155R,0.01575X0.05906*%
%ADD156R,0.12598X0.09055*%
%ADD157R,0.01594X0.12205*%
%ADD158R,0.0315X0.01378*%
%ADD159R,0.09252X0.0748*%
%ADD160R,0.0748X0.09252*%
%ADD161R,0.10039X0.09646*%
%ADD162R,0.04921X0.06102*%
%ADD163R,0.04331X0.02756*%
%ADD164R,0.06102X0.05118*%
%ADD165R,0.05118X0.06102*%
%ADD166R,0.02362X0.01575*%
%ADD167R,0.05906X0.01575*%
%ADD168R,0.09055X0.12598*%
%ADD169O,0.04331X0.01772*%
%ADD170O,0.01772X0.04331*%
%ADD171R,0.13189X0.13189*%
%ADD172R,0.07X0.039*%
%ADD173R,0.1122X0.04331*%
%ADD174R,0.05709X0.11024*%
%ADD175R,0.05906X0.04331*%
%ADD176R,0.01969X0.03937*%
%ADD177R,0.02756X0.06496*%
%ADD178O,0.02165X0.07087*%
%ADD179R,0.04724X0.02756*%
%ADD180R,0.05315X0.06102*%
%ADD181R,0.04331X0.0374*%
%ADD182R,0.059X0.139*%
%ADD183R,0.139X0.059*%
%ADD184R,0.149X0.054*%
%ADD185R,0.054X0.021*%
%ADD186R,0.11024X0.05709*%
%ADD187R,0.01575X0.06299*%
%ADD188R,0.06299X0.01575*%
%ADD189R,0.01181X0.06102*%
%ADD190R,0.05906X0.0748*%
%ADD191R,0.02953X0.04134*%
%ADD192C,0.064*%
%ADD193R,0.075X0.13*%
%ADD194R,0.08661X0.04134*%
%ADD195R,0.22047X0.22835*%
%ADD196R,0.09646X0.10039*%
%ADD197R,0.08858X0.16339*%
%ADD198R,0.16339X0.08858*%
%ADD199R,0.01575X0.04134*%
%ADD200R,0.04134X0.01575*%
%ADD201R,0.04134X0.02953*%
%ADD202O,0.05315X0.02953*%
%ADD203C,0.02165*%
%ADD204R,0.06693X0.05118*%
%ADD205R,0.06102X0.04921*%
%ADD206R,0.05906X0.04528*%
%ADD207R,0.04528X0.05906*%
%ADD208R,0.0315X0.03543*%
%ADD209R,0.03543X0.0315*%
%ADD210O,0.04331X0.02362*%
%ADD211R,0.15X0.055*%
%ADD212R,0.055X0.145*%
%ADD213R,0.145X0.055*%
%ADD214R,0.07677X0.04724*%
%ADD215R,0.055X0.205*%
%ADD216R,0.04331X0.04724*%
%ADD217R,0.02362X0.04724*%
%ADD218R,0.05433X0.05394*%
%ADD219O,0.0374X0.01575*%
%ADD220O,0.01575X0.0374*%
%ADD221R,0.10236X0.11417*%
%ADD222R,0.02756X0.08268*%
%ADD223R,0.05906X0.08268*%
%ADD224R,0.08268X0.09843*%
%ADD225O,0.01378X0.03346*%
%ADD226R,0.054X0.149*%
%ADD227R,0.07283X0.02756*%
%ADD228R,0.05512X0.0689*%
%ADD231R,0.06102X0.01181*%
%ADD232R,0.13976X0.11811*%
%ADD233R,0.11811X0.13976*%
%ADD260C,0.065*%
%ADD311R,0.065X0.065*%
%ADD332C,0.09*%
%ADD333C,0.04331*%
%ADD334C,0.05512*%
%ADD335C,0.07087*%
%ADD336C,0.09646*%
%ADD337C,0.055*%
%ADD347R,0.25X0.25*%
%ADD348C,0.04921*%
%ADD349C,0.02559*%
%ADD350C,0.1378*%
%ADD351C,0.04724*%
%ADD374R,0.04134X0.04134*%
%ADD377C,0.094*%
%ADD378C,0.05016*%
%ADD379C,0.06693*%
%ADD380C,0.294*%
%ADD381C,0.08268*%
%ADD382C,0.10236*%
%ADD383C,0.20079*%
%ADD384R,0.10039X0.10039*%
%ADD385C,0.10039*%
%ADD386C,0.13386*%
*
*
*
*
G04 PC Circuitry*
G04 Layer Name roach103.pcb - circuitry*
%LPD*%
*
*
G04 PC Custom Flashes*
G04 Layer Name roach103.pcb - flashes*
%LPD*%
*
*
G04 PC Circuitry*
G04 Layer Name roach103.pcb - circuitry*
%LPD*%
*
G54D38*
G01X987862Y238794D03*
X984122D03*
X980382D03*
Y228558D03*
X987862D03*
G54D54*
X485102Y934890D03*
X486102Y959390D03*
X486602Y1008390D03*
Y983890D03*
X218110Y716535D03*
X170866D03*
Y704724D03*
X265354D03*
X288976Y772835D03*
Y763780D03*
X265354Y716535D03*
G54D62*
X638479Y1008479D03*
X646668Y1001313D03*
X886431D03*
X894699Y1008400D03*
X862033Y583706D03*
G54D63*
X1040380Y291580D03*
X1060065D03*
X998254Y334494D03*
X1017939D03*
G54D79*
X140252Y978079D03*
X970167Y170824D03*
X1017167D03*
G54D89*
X505906Y966890D03*
Y964331D03*
Y961772D03*
X514567D03*
Y966890D03*
X505906Y942390D03*
Y939831D03*
Y937272D03*
X514567D03*
Y942390D03*
X505906Y991390D03*
Y988831D03*
Y986272D03*
X514567D03*
Y991390D03*
X505906Y1015945D03*
Y1013386D03*
Y1010827D03*
X514567D03*
Y1015945D03*
G54D92*
X587614Y946762D03*
Y934951D03*
X598604Y946762D03*
Y934951D03*
X608587Y946762D03*
Y934951D03*
X618568Y946762D03*
Y934951D03*
G54D99*
X446285Y701817D03*
Y646698D03*
G54D109*
X1057687Y509016D03*
G54D110*
X922769Y918951D03*
Y916982D03*
Y915014D03*
Y913045D03*
Y911077D03*
Y909108D03*
Y907140D03*
Y905171D03*
Y903203D03*
Y901234D03*
Y899266D03*
Y897297D03*
Y895329D03*
Y893360D03*
Y891392D03*
Y889423D03*
Y887455D03*
Y885486D03*
Y883518D03*
Y881549D03*
Y879581D03*
Y877612D03*
Y875644D03*
Y873675D03*
Y871707D03*
Y869738D03*
Y867770D03*
Y865801D03*
Y863833D03*
Y861864D03*
Y859896D03*
Y857927D03*
Y855959D03*
Y853990D03*
Y852022D03*
Y850053D03*
Y848085D03*
Y846116D03*
X986942D03*
Y848085D03*
Y850053D03*
Y852022D03*
Y853990D03*
Y855959D03*
Y857927D03*
Y859896D03*
Y861864D03*
Y863833D03*
Y865801D03*
Y867770D03*
Y869738D03*
Y871707D03*
Y873675D03*
Y875644D03*
Y877612D03*
Y879581D03*
Y881549D03*
Y883518D03*
Y885486D03*
Y887455D03*
Y889423D03*
Y891392D03*
Y893360D03*
Y895329D03*
Y897297D03*
Y899266D03*
Y901234D03*
Y903203D03*
Y905171D03*
Y907140D03*
Y909108D03*
Y911077D03*
Y913045D03*
Y915014D03*
Y916982D03*
Y918951D03*
G54D111*
X930249Y838636D03*
X932218D03*
X934186D03*
X936155D03*
X938123D03*
X940092D03*
X942060D03*
X944029D03*
X945997D03*
X947966D03*
X949934D03*
X951903D03*
X953871D03*
X955840D03*
X957808D03*
X959777D03*
X961745D03*
X963714D03*
X965682D03*
X967651D03*
X969619D03*
X971588D03*
X973556D03*
X975525D03*
X977493D03*
X979462D03*
Y926431D03*
X977493D03*
X975525D03*
X973556D03*
X971588D03*
X969619D03*
X967651D03*
X965682D03*
X963714D03*
X961745D03*
X959777D03*
X957808D03*
X955840D03*
X953871D03*
X951903D03*
X949934D03*
X947966D03*
X945997D03*
X944029D03*
X942060D03*
X940092D03*
X938123D03*
X936155D03*
X934186D03*
X932218D03*
X930249D03*
G54D115*
G54D117*
X1044891Y517874D02*
X1047254D01*
X1044891Y515906D02*
X1047254D01*
X1044891Y513937D02*
X1047254D01*
X1044891Y511969D02*
X1047254D01*
X1044891Y510000D02*
X1047254D01*
X1044891Y508032D02*
X1047254D01*
X1044891Y506063D02*
X1047254D01*
X1044891Y504095D02*
X1047254D01*
X1044891Y502126D02*
X1047254D01*
X1044891Y500158D02*
X1047254D01*
X1048828Y496221D02*
Y498583D01*
X1050797Y496221D02*
Y498583D01*
X1052765Y496221D02*
Y498583D01*
X1054734Y496221D02*
Y498583D01*
X1056702Y496221D02*
Y498583D01*
X1058671Y496221D02*
Y498583D01*
X1060639Y496221D02*
Y498583D01*
X1062608Y496221D02*
Y498583D01*
X1064576Y496221D02*
Y498583D01*
X1066545Y496221D02*
Y498583D01*
X1068120Y500158D02*
X1070482D01*
X1068120Y502126D02*
X1070482D01*
X1068120Y504095D02*
X1070482D01*
X1068120Y506063D02*
X1070482D01*
X1068120Y508032D02*
X1070482D01*
X1068120Y510000D02*
X1070482D01*
X1068120Y511969D02*
X1070482D01*
X1068120Y513937D02*
X1070482D01*
X1068120Y515906D02*
X1070482D01*
X1068120Y517874D02*
X1070482D01*
X1066545Y519449D02*
Y521811D01*
X1064576Y519449D02*
Y521811D01*
X1062608Y519449D02*
Y521811D01*
X1060639Y519449D02*
Y521811D01*
X1058671Y519449D02*
Y521811D01*
X1056702Y519449D02*
Y521811D01*
X1054734Y519449D02*
Y521811D01*
X1052765Y519449D02*
Y521811D01*
X1050797Y519449D02*
Y521811D01*
X1048828Y519449D02*
Y521811D01*
G54D120*
X660852Y628982D03*
Y625045D03*
Y613234D03*
Y609297D03*
Y605360D03*
Y601423D03*
Y593549D03*
Y589612D03*
Y585675D03*
Y581738D03*
Y577801D03*
Y573864D03*
Y569927D03*
Y565990D03*
Y562053D03*
Y558116D03*
Y554179D03*
Y550242D03*
Y546305D03*
Y542368D03*
Y538431D03*
Y534494D03*
Y530557D03*
Y526620D03*
Y522683D03*
Y518746D03*
Y514809D03*
Y510872D03*
Y506935D03*
X656915Y632919D03*
Y628982D03*
Y625045D03*
Y621108D03*
Y617171D03*
Y613234D03*
Y609297D03*
Y605360D03*
Y601423D03*
Y597486D03*
Y593549D03*
Y589612D03*
Y585675D03*
Y581738D03*
Y577801D03*
Y573864D03*
Y569927D03*
Y565990D03*
Y562053D03*
Y558116D03*
Y554179D03*
Y550242D03*
Y546305D03*
Y542368D03*
Y538431D03*
Y534494D03*
Y530557D03*
Y526620D03*
Y522683D03*
Y518746D03*
Y514809D03*
Y510872D03*
Y506935D03*
Y502998D03*
X652978Y632919D03*
Y628982D03*
Y625045D03*
Y621108D03*
Y617171D03*
Y613234D03*
Y609297D03*
Y605360D03*
Y601423D03*
Y597486D03*
Y593549D03*
Y589612D03*
Y585675D03*
Y581738D03*
Y577801D03*
Y573864D03*
Y569927D03*
Y565990D03*
Y562053D03*
Y558116D03*
Y554179D03*
Y550242D03*
Y546305D03*
Y542368D03*
Y538431D03*
Y534494D03*
Y530557D03*
Y526620D03*
Y522683D03*
Y518746D03*
Y514809D03*
Y510872D03*
Y506935D03*
Y502998D03*
X649041Y632919D03*
Y628982D03*
Y625045D03*
Y621108D03*
Y617171D03*
Y613234D03*
Y609297D03*
Y605360D03*
Y601423D03*
Y597486D03*
Y593549D03*
Y589612D03*
Y585675D03*
Y581738D03*
Y577801D03*
Y573864D03*
Y569927D03*
Y565990D03*
Y562053D03*
Y558116D03*
Y554179D03*
Y550242D03*
Y546305D03*
Y542368D03*
Y538431D03*
Y534494D03*
Y530557D03*
Y526620D03*
Y522683D03*
Y518746D03*
Y514809D03*
Y510872D03*
Y506935D03*
Y502998D03*
X645104Y628982D03*
Y625045D03*
Y621108D03*
Y617171D03*
Y613234D03*
Y609297D03*
Y605360D03*
Y601423D03*
Y597486D03*
Y593549D03*
Y589612D03*
Y585675D03*
Y581738D03*
Y577801D03*
Y573864D03*
Y569927D03*
Y565990D03*
Y562053D03*
Y558116D03*
Y554179D03*
Y550242D03*
Y546305D03*
Y542368D03*
Y538431D03*
Y534494D03*
Y530557D03*
Y526620D03*
Y522683D03*
Y518746D03*
Y514809D03*
Y510872D03*
Y506935D03*
Y502998D03*
X641167Y628982D03*
Y625045D03*
Y621108D03*
Y617171D03*
Y613234D03*
Y609297D03*
Y605360D03*
Y601423D03*
Y597486D03*
Y593549D03*
Y589612D03*
Y585675D03*
Y581738D03*
Y577801D03*
Y573864D03*
Y569927D03*
Y565990D03*
Y562053D03*
Y558116D03*
Y554179D03*
Y550242D03*
Y546305D03*
Y542368D03*
Y538431D03*
Y534494D03*
Y530557D03*
Y526620D03*
Y522683D03*
Y518746D03*
Y514809D03*
Y510872D03*
Y506935D03*
Y502998D03*
X637230Y632919D03*
Y628982D03*
Y625045D03*
Y621108D03*
Y617171D03*
Y613234D03*
Y609297D03*
Y605360D03*
Y601423D03*
Y597486D03*
Y593549D03*
Y589612D03*
Y585675D03*
Y581738D03*
Y577801D03*
Y573864D03*
Y569927D03*
Y565990D03*
Y562053D03*
Y558116D03*
Y554179D03*
Y550242D03*
Y546305D03*
Y542368D03*
Y538431D03*
Y534494D03*
Y530557D03*
Y526620D03*
Y522683D03*
Y518746D03*
Y514809D03*
Y510872D03*
Y506935D03*
Y502998D03*
X633293Y632919D03*
Y628982D03*
Y625045D03*
Y621108D03*
Y617171D03*
Y613234D03*
Y609297D03*
Y605360D03*
Y601423D03*
Y597486D03*
Y593549D03*
Y589612D03*
Y585675D03*
Y581738D03*
Y577801D03*
Y573864D03*
Y569927D03*
Y565990D03*
Y562053D03*
Y558116D03*
Y554179D03*
Y550242D03*
Y546305D03*
Y542368D03*
Y538431D03*
Y534494D03*
Y530557D03*
Y526620D03*
Y522683D03*
Y518746D03*
Y514809D03*
Y510872D03*
Y506935D03*
Y502998D03*
X629356Y632919D03*
Y628982D03*
Y625045D03*
Y621108D03*
Y617171D03*
Y613234D03*
Y609297D03*
Y605360D03*
Y601423D03*
Y597486D03*
Y593549D03*
Y589612D03*
Y585675D03*
Y581738D03*
Y577801D03*
Y573864D03*
Y569927D03*
Y565990D03*
Y562053D03*
Y558116D03*
Y554179D03*
Y550242D03*
Y546305D03*
Y542368D03*
Y538431D03*
Y534494D03*
Y530557D03*
Y526620D03*
Y522683D03*
Y518746D03*
Y514809D03*
Y510872D03*
Y506935D03*
Y502998D03*
X625419Y632919D03*
Y628982D03*
Y625045D03*
Y621108D03*
Y617171D03*
Y613234D03*
Y609297D03*
Y605360D03*
Y601423D03*
Y597486D03*
Y593549D03*
Y589612D03*
Y585675D03*
Y581738D03*
Y577801D03*
Y573864D03*
Y569927D03*
Y565990D03*
Y562053D03*
Y558116D03*
Y554179D03*
Y550242D03*
Y546305D03*
Y542368D03*
Y538431D03*
Y534494D03*
Y530557D03*
Y526620D03*
Y522683D03*
Y518746D03*
Y514809D03*
Y510872D03*
Y506935D03*
Y502998D03*
X621482Y628982D03*
Y625045D03*
Y621108D03*
Y617171D03*
Y613234D03*
Y609297D03*
Y605360D03*
Y601423D03*
Y597486D03*
Y593549D03*
Y589612D03*
Y585675D03*
Y581738D03*
Y577801D03*
Y573864D03*
Y569927D03*
Y565990D03*
Y562053D03*
Y558116D03*
Y554179D03*
Y550242D03*
Y546305D03*
Y542368D03*
Y538431D03*
Y534494D03*
Y530557D03*
Y526620D03*
Y522683D03*
Y518746D03*
Y514809D03*
Y510872D03*
Y506935D03*
Y502998D03*
X617545Y628982D03*
Y625045D03*
Y621108D03*
Y617171D03*
Y613234D03*
Y609297D03*
Y605360D03*
Y601423D03*
Y597486D03*
Y593549D03*
Y589612D03*
Y585675D03*
Y581738D03*
Y577801D03*
Y573864D03*
Y569927D03*
Y565990D03*
Y562053D03*
Y558116D03*
Y554179D03*
Y550242D03*
Y546305D03*
Y542368D03*
Y538431D03*
Y534494D03*
Y530557D03*
Y526620D03*
Y522683D03*
Y518746D03*
Y514809D03*
Y510872D03*
Y506935D03*
Y502998D03*
X613608Y632919D03*
Y628982D03*
Y625045D03*
Y621108D03*
Y617171D03*
Y613234D03*
Y609297D03*
Y605360D03*
Y601423D03*
Y597486D03*
Y593549D03*
Y589612D03*
Y585675D03*
Y581738D03*
Y577801D03*
Y573864D03*
Y569927D03*
Y565990D03*
Y562053D03*
Y558116D03*
Y554179D03*
Y550242D03*
Y546305D03*
Y542368D03*
Y538431D03*
Y534494D03*
Y530557D03*
Y526620D03*
Y522683D03*
Y518746D03*
Y514809D03*
Y510872D03*
Y506935D03*
Y502998D03*
X609671Y632919D03*
Y628982D03*
Y625045D03*
Y621108D03*
Y617171D03*
Y613234D03*
Y609297D03*
Y605360D03*
Y601423D03*
Y597486D03*
Y593549D03*
Y589612D03*
Y585675D03*
Y581738D03*
Y577801D03*
Y573864D03*
Y569927D03*
Y565990D03*
Y562053D03*
Y558116D03*
Y554179D03*
Y550242D03*
Y546305D03*
Y542368D03*
Y538431D03*
Y534494D03*
Y530557D03*
Y526620D03*
Y522683D03*
Y518746D03*
Y514809D03*
Y510872D03*
Y506935D03*
Y502998D03*
X605734Y632919D03*
Y628982D03*
Y625045D03*
Y621108D03*
Y617171D03*
Y613234D03*
Y609297D03*
Y605360D03*
Y601423D03*
Y597486D03*
Y593549D03*
Y589612D03*
Y585675D03*
Y581738D03*
Y577801D03*
Y573864D03*
Y569927D03*
Y565990D03*
Y562053D03*
Y558116D03*
Y554179D03*
Y550242D03*
Y546305D03*
Y542368D03*
Y538431D03*
Y534494D03*
Y530557D03*
Y526620D03*
Y522683D03*
Y518746D03*
Y514809D03*
Y510872D03*
Y506935D03*
Y502998D03*
X601797Y632919D03*
Y628982D03*
Y625045D03*
Y621108D03*
Y617171D03*
Y613234D03*
Y609297D03*
Y605360D03*
Y601423D03*
Y597486D03*
Y593549D03*
Y589612D03*
Y585675D03*
Y581738D03*
Y577801D03*
Y573864D03*
Y569927D03*
Y565990D03*
Y562053D03*
Y558116D03*
Y554179D03*
Y550242D03*
Y546305D03*
Y542368D03*
Y538431D03*
Y534494D03*
Y530557D03*
Y526620D03*
Y522683D03*
Y518746D03*
Y514809D03*
Y510872D03*
Y506935D03*
Y502998D03*
X597860Y628982D03*
Y625045D03*
Y621108D03*
Y617171D03*
Y613234D03*
Y609297D03*
Y605360D03*
Y601423D03*
Y597486D03*
Y593549D03*
Y589612D03*
Y585675D03*
Y581738D03*
Y577801D03*
Y573864D03*
Y569927D03*
Y565990D03*
Y562053D03*
Y558116D03*
Y554179D03*
Y550242D03*
Y546305D03*
Y542368D03*
Y538431D03*
Y534494D03*
Y530557D03*
Y526620D03*
Y522683D03*
Y518746D03*
Y514809D03*
Y510872D03*
Y506935D03*
Y502998D03*
X593923Y628982D03*
Y625045D03*
Y621108D03*
Y617171D03*
Y613234D03*
Y609297D03*
Y605360D03*
Y601423D03*
Y597486D03*
Y593549D03*
Y589612D03*
Y585675D03*
Y581738D03*
Y577801D03*
Y573864D03*
Y569927D03*
Y565990D03*
Y562053D03*
Y558116D03*
Y554179D03*
Y550242D03*
Y546305D03*
Y542368D03*
Y538431D03*
Y534494D03*
Y530557D03*
Y526620D03*
Y522683D03*
Y518746D03*
Y514809D03*
Y510872D03*
Y506935D03*
Y502998D03*
X589986Y632919D03*
Y628982D03*
Y625045D03*
Y621108D03*
Y617171D03*
Y613234D03*
Y609297D03*
Y605360D03*
Y601423D03*
Y597486D03*
Y593549D03*
Y589612D03*
Y585675D03*
Y581738D03*
Y577801D03*
Y573864D03*
Y569927D03*
Y565990D03*
Y562053D03*
Y558116D03*
Y554179D03*
Y550242D03*
Y546305D03*
Y542368D03*
Y538431D03*
Y534494D03*
Y530557D03*
Y526620D03*
Y522683D03*
Y518746D03*
Y514809D03*
Y510872D03*
Y506935D03*
Y502998D03*
X586049Y632919D03*
Y628982D03*
Y625045D03*
Y621108D03*
Y617171D03*
Y613234D03*
Y609297D03*
Y605360D03*
Y601423D03*
Y597486D03*
Y593549D03*
Y589612D03*
Y585675D03*
Y581738D03*
Y577801D03*
Y573864D03*
Y569927D03*
Y565990D03*
Y562053D03*
Y558116D03*
Y554179D03*
Y550242D03*
Y546305D03*
Y542368D03*
Y538431D03*
Y534494D03*
Y530557D03*
Y526620D03*
Y522683D03*
Y518746D03*
Y514809D03*
Y510872D03*
Y506935D03*
Y502998D03*
X582112Y632919D03*
Y628982D03*
Y625045D03*
Y621108D03*
Y617171D03*
Y613234D03*
Y609297D03*
Y605360D03*
Y601423D03*
Y597486D03*
Y593549D03*
Y589612D03*
Y585675D03*
Y581738D03*
Y577801D03*
Y573864D03*
Y569927D03*
Y565990D03*
Y562053D03*
Y558116D03*
Y554179D03*
Y550242D03*
Y546305D03*
Y542368D03*
Y538431D03*
Y534494D03*
Y530557D03*
Y526620D03*
Y522683D03*
Y518746D03*
Y514809D03*
Y510872D03*
Y506935D03*
Y502998D03*
X578175Y632919D03*
Y628982D03*
Y625045D03*
Y621108D03*
Y617171D03*
Y613234D03*
Y609297D03*
Y605360D03*
Y601423D03*
Y597486D03*
Y593549D03*
Y589612D03*
Y585675D03*
Y581738D03*
Y577801D03*
Y573864D03*
Y569927D03*
Y565990D03*
Y562053D03*
Y558116D03*
Y554179D03*
Y550242D03*
Y546305D03*
Y542368D03*
Y538431D03*
Y534494D03*
Y530557D03*
Y526620D03*
Y522683D03*
Y518746D03*
Y514809D03*
Y510872D03*
Y506935D03*
Y502998D03*
X574238Y628982D03*
Y625045D03*
Y621108D03*
Y617171D03*
Y613234D03*
Y609297D03*
Y605360D03*
Y601423D03*
Y597486D03*
Y593549D03*
Y589612D03*
Y585675D03*
Y581738D03*
Y577801D03*
Y573864D03*
Y569927D03*
Y565990D03*
Y562053D03*
Y558116D03*
Y554179D03*
Y550242D03*
Y546305D03*
Y542368D03*
Y538431D03*
Y534494D03*
Y530557D03*
Y526620D03*
Y522683D03*
Y518746D03*
Y514809D03*
Y510872D03*
Y506935D03*
Y502998D03*
X570301Y628982D03*
Y625045D03*
Y621108D03*
Y617171D03*
Y613234D03*
Y609297D03*
Y605360D03*
Y601423D03*
Y597486D03*
Y593549D03*
Y589612D03*
Y585675D03*
Y581738D03*
Y577801D03*
Y573864D03*
Y569927D03*
Y565990D03*
Y562053D03*
Y558116D03*
Y554179D03*
Y550242D03*
Y546305D03*
Y542368D03*
Y538431D03*
Y534494D03*
Y530557D03*
Y526620D03*
Y522683D03*
Y518746D03*
Y514809D03*
Y510872D03*
Y506935D03*
Y502998D03*
X566364Y632919D03*
Y628982D03*
Y625045D03*
Y621108D03*
Y617171D03*
Y613234D03*
Y609297D03*
Y605360D03*
Y601423D03*
Y597486D03*
Y593549D03*
Y589612D03*
Y585675D03*
Y581738D03*
Y577801D03*
Y573864D03*
Y569927D03*
Y565990D03*
Y562053D03*
Y558116D03*
Y554179D03*
Y550242D03*
Y546305D03*
Y542368D03*
Y538431D03*
Y534494D03*
Y530557D03*
Y526620D03*
Y522683D03*
Y518746D03*
Y514809D03*
Y510872D03*
Y506935D03*
Y502998D03*
X562427Y632919D03*
Y628982D03*
Y625045D03*
Y621108D03*
Y617171D03*
Y613234D03*
Y609297D03*
Y605360D03*
Y601423D03*
Y597486D03*
Y593549D03*
Y589612D03*
Y585675D03*
Y581738D03*
Y577801D03*
Y573864D03*
Y569927D03*
Y565990D03*
Y562053D03*
Y558116D03*
Y554179D03*
Y550242D03*
Y546305D03*
Y542368D03*
Y538431D03*
Y534494D03*
Y530557D03*
Y526620D03*
Y522683D03*
Y518746D03*
Y514809D03*
Y510872D03*
Y506935D03*
Y502998D03*
X558490Y632919D03*
Y628982D03*
Y625045D03*
Y621108D03*
Y617171D03*
Y613234D03*
Y609297D03*
Y605360D03*
Y601423D03*
Y597486D03*
Y593549D03*
Y589612D03*
Y585675D03*
Y581738D03*
Y577801D03*
Y573864D03*
Y569927D03*
Y565990D03*
Y562053D03*
Y558116D03*
Y554179D03*
Y550242D03*
Y546305D03*
Y542368D03*
Y538431D03*
Y534494D03*
Y530557D03*
Y526620D03*
Y522683D03*
Y518746D03*
Y514809D03*
Y510872D03*
Y506935D03*
Y502998D03*
X554553Y632919D03*
Y628982D03*
Y625045D03*
Y621108D03*
Y617171D03*
Y613234D03*
Y609297D03*
Y605360D03*
Y601423D03*
Y597486D03*
Y593549D03*
Y589612D03*
Y585675D03*
Y581738D03*
Y577801D03*
Y573864D03*
Y569927D03*
Y565990D03*
Y562053D03*
Y558116D03*
Y554179D03*
Y550242D03*
Y546305D03*
Y542368D03*
Y538431D03*
Y534494D03*
Y530557D03*
Y526620D03*
Y522683D03*
Y518746D03*
Y514809D03*
Y510872D03*
Y506935D03*
Y502998D03*
X550616Y628982D03*
Y625045D03*
Y621108D03*
Y617171D03*
Y613234D03*
Y609297D03*
Y605360D03*
Y601423D03*
Y597486D03*
Y593549D03*
Y589612D03*
Y585675D03*
Y581738D03*
Y577801D03*
Y573864D03*
Y569927D03*
Y565990D03*
Y562053D03*
Y558116D03*
Y554179D03*
Y550242D03*
Y546305D03*
Y542368D03*
Y538431D03*
Y534494D03*
Y530557D03*
Y526620D03*
Y522683D03*
Y518746D03*
Y514809D03*
Y510872D03*
Y506935D03*
Y502998D03*
X546679Y628982D03*
Y625045D03*
Y621108D03*
Y617171D03*
Y613234D03*
Y609297D03*
Y605360D03*
Y601423D03*
Y597486D03*
Y593549D03*
Y589612D03*
Y585675D03*
Y581738D03*
Y577801D03*
Y573864D03*
Y569927D03*
Y565990D03*
Y562053D03*
Y558116D03*
Y554179D03*
Y550242D03*
Y546305D03*
Y542368D03*
Y538431D03*
Y534494D03*
Y530557D03*
Y526620D03*
Y522683D03*
Y518746D03*
Y514809D03*
Y510872D03*
Y506935D03*
Y502998D03*
X542742Y632919D03*
Y628982D03*
Y625045D03*
Y621108D03*
Y617171D03*
Y613234D03*
Y609297D03*
Y605360D03*
Y601423D03*
Y597486D03*
Y593549D03*
Y589612D03*
Y585675D03*
Y581738D03*
Y577801D03*
Y573864D03*
Y569927D03*
Y565990D03*
Y562053D03*
Y558116D03*
Y554179D03*
Y550242D03*
Y546305D03*
Y542368D03*
Y538431D03*
Y534494D03*
Y530557D03*
Y526620D03*
Y522683D03*
Y518746D03*
Y514809D03*
Y510872D03*
Y506935D03*
Y502998D03*
X538805Y632919D03*
Y628982D03*
Y625045D03*
Y621108D03*
Y617171D03*
Y613234D03*
Y609297D03*
Y605360D03*
Y601423D03*
Y597486D03*
Y593549D03*
Y589612D03*
Y585675D03*
Y581738D03*
Y577801D03*
Y573864D03*
Y569927D03*
Y565990D03*
Y562053D03*
Y558116D03*
Y554179D03*
Y550242D03*
Y546305D03*
Y542368D03*
Y538431D03*
Y534494D03*
Y530557D03*
Y526620D03*
Y522683D03*
Y518746D03*
Y514809D03*
Y510872D03*
Y506935D03*
Y502998D03*
X534868Y632919D03*
Y628982D03*
Y625045D03*
Y621108D03*
Y617171D03*
Y613234D03*
Y609297D03*
Y605360D03*
Y601423D03*
Y597486D03*
Y593549D03*
Y589612D03*
Y585675D03*
Y581738D03*
Y577801D03*
Y573864D03*
Y569927D03*
Y565990D03*
Y562053D03*
Y558116D03*
Y554179D03*
Y550242D03*
Y546305D03*
Y542368D03*
Y538431D03*
Y534494D03*
Y530557D03*
Y526620D03*
Y522683D03*
Y518746D03*
Y514809D03*
Y510872D03*
Y506935D03*
Y502998D03*
X530931Y628982D03*
Y625045D03*
Y613234D03*
Y609297D03*
Y605360D03*
Y601423D03*
Y593549D03*
Y589612D03*
Y585675D03*
Y581738D03*
Y577801D03*
Y573864D03*
Y569927D03*
Y565990D03*
Y562053D03*
Y558116D03*
Y554179D03*
Y550242D03*
Y546305D03*
Y542368D03*
Y538431D03*
Y534494D03*
Y530557D03*
Y526620D03*
Y522683D03*
Y518746D03*
Y514809D03*
Y510872D03*
Y506935D03*
X763214Y585675D03*
X767151D03*
X771088D03*
X775025D03*
X778962D03*
X782899D03*
X786836D03*
X790773D03*
X763214Y581738D03*
X767151D03*
X771088D03*
X775025D03*
X778962D03*
X782899D03*
X786836D03*
X790773D03*
X763214Y577801D03*
X767151D03*
X771088D03*
X775025D03*
X778962D03*
X782899D03*
X786836D03*
X790773D03*
X763214Y573864D03*
X767151D03*
X771088D03*
X775025D03*
X778962D03*
X782899D03*
X786836D03*
X790773D03*
X763214Y569927D03*
X767151D03*
X771088D03*
X775025D03*
X778962D03*
X782899D03*
X786836D03*
X790773D03*
X763214Y565990D03*
X767151D03*
X771088D03*
X775025D03*
X778962D03*
X782899D03*
X786836D03*
X790773D03*
X763214Y562053D03*
X767151D03*
X771088D03*
X775025D03*
X778962D03*
X782899D03*
X786836D03*
X790773D03*
X763214Y558116D03*
X767151D03*
X771088D03*
X775025D03*
X778962D03*
X782899D03*
X786836D03*
X790773D03*
X891167Y508903D03*
Y512840D03*
Y516777D03*
Y520714D03*
Y524651D03*
Y528588D03*
Y532525D03*
Y536462D03*
Y540399D03*
Y544336D03*
Y548273D03*
Y552210D03*
Y556147D03*
Y560084D03*
Y564021D03*
Y567958D03*
Y571895D03*
Y575832D03*
Y579769D03*
Y583706D03*
Y587643D03*
Y591580D03*
Y595517D03*
Y599454D03*
Y603391D03*
Y607328D03*
Y611265D03*
Y615202D03*
Y619139D03*
Y623076D03*
Y627013D03*
Y630950D03*
Y634887D03*
Y638824D03*
X895104Y508903D03*
Y512840D03*
Y516777D03*
Y520714D03*
Y524651D03*
Y528588D03*
Y532525D03*
Y536462D03*
Y540399D03*
Y544336D03*
Y548273D03*
Y552210D03*
Y556147D03*
Y560084D03*
Y564021D03*
Y567958D03*
Y571895D03*
Y575832D03*
Y579769D03*
Y583706D03*
Y587643D03*
Y591580D03*
Y595517D03*
Y599454D03*
Y603391D03*
Y607328D03*
Y611265D03*
Y615202D03*
Y619139D03*
Y623076D03*
Y627013D03*
Y630950D03*
Y634887D03*
Y638824D03*
X899041Y508903D03*
Y512840D03*
Y516777D03*
Y520714D03*
Y524651D03*
Y528588D03*
Y532525D03*
Y536462D03*
Y540399D03*
Y544336D03*
Y548273D03*
Y552210D03*
Y556147D03*
Y560084D03*
Y564021D03*
Y567958D03*
Y571895D03*
Y575832D03*
Y579769D03*
Y583706D03*
Y587643D03*
Y591580D03*
Y595517D03*
Y599454D03*
Y603391D03*
Y607328D03*
Y611265D03*
Y615202D03*
Y619139D03*
Y623076D03*
Y627013D03*
Y630950D03*
Y634887D03*
Y638824D03*
X902978Y508903D03*
Y512840D03*
Y516777D03*
Y520714D03*
Y524651D03*
Y528588D03*
Y532525D03*
Y536462D03*
Y540399D03*
Y544336D03*
Y548273D03*
Y552210D03*
Y556147D03*
Y560084D03*
Y564021D03*
Y567958D03*
Y571895D03*
Y575832D03*
Y579769D03*
Y583706D03*
Y587643D03*
Y591580D03*
Y595517D03*
Y599454D03*
Y603391D03*
Y607328D03*
Y611265D03*
Y615202D03*
Y619139D03*
Y623076D03*
Y627013D03*
Y630950D03*
Y634887D03*
Y638824D03*
X906915Y508903D03*
Y512840D03*
Y516777D03*
Y520714D03*
Y524651D03*
Y528588D03*
Y532525D03*
Y536462D03*
Y540399D03*
Y544336D03*
Y548273D03*
Y552210D03*
Y556147D03*
Y560084D03*
Y564021D03*
Y567958D03*
Y571895D03*
Y575832D03*
Y579769D03*
Y583706D03*
Y587643D03*
Y591580D03*
Y595517D03*
Y599454D03*
Y603391D03*
Y607328D03*
Y611265D03*
Y615202D03*
Y619139D03*
Y623076D03*
Y627013D03*
Y630950D03*
Y634887D03*
Y638824D03*
X910852Y508903D03*
Y512840D03*
Y516777D03*
Y520714D03*
Y524651D03*
Y623076D03*
Y627013D03*
Y630950D03*
Y634887D03*
Y638824D03*
X914789Y508903D03*
Y512840D03*
Y516777D03*
Y520714D03*
Y524651D03*
Y623076D03*
Y627013D03*
Y630950D03*
Y634887D03*
Y638824D03*
X918726Y508903D03*
Y512840D03*
Y516777D03*
Y520714D03*
Y524651D03*
Y623076D03*
Y627013D03*
Y630950D03*
Y634887D03*
Y638824D03*
X922663Y508903D03*
Y512840D03*
Y516777D03*
Y520714D03*
Y524651D03*
Y623076D03*
Y627013D03*
Y630950D03*
Y634887D03*
Y638824D03*
X926600Y508903D03*
Y512840D03*
Y516777D03*
Y520714D03*
Y524651D03*
Y623076D03*
Y627013D03*
Y630950D03*
Y634887D03*
Y638824D03*
X930537Y508903D03*
Y512840D03*
Y516777D03*
Y520714D03*
Y524651D03*
Y623076D03*
Y627013D03*
Y630950D03*
Y634887D03*
Y638824D03*
X934474Y508903D03*
Y512840D03*
Y516777D03*
Y520714D03*
Y524651D03*
Y623076D03*
Y627013D03*
Y630950D03*
Y634887D03*
Y638824D03*
X938411Y508903D03*
Y512840D03*
Y516777D03*
Y520714D03*
Y524651D03*
Y556147D03*
Y560084D03*
Y564021D03*
Y567958D03*
Y571895D03*
Y575832D03*
Y579769D03*
Y583706D03*
Y587643D03*
Y591580D03*
Y623076D03*
Y627013D03*
Y630950D03*
Y634887D03*
Y638824D03*
X942348Y508903D03*
Y512840D03*
Y516777D03*
Y520714D03*
Y524651D03*
Y556147D03*
Y560084D03*
Y564021D03*
Y567958D03*
Y571895D03*
Y575832D03*
Y579769D03*
Y583706D03*
Y587643D03*
Y591580D03*
Y623076D03*
Y627013D03*
Y630950D03*
Y634887D03*
Y638824D03*
X946285Y508903D03*
Y512840D03*
Y516777D03*
Y520714D03*
Y524651D03*
Y556147D03*
Y560084D03*
Y564021D03*
Y567958D03*
Y571895D03*
Y575832D03*
Y579769D03*
Y583706D03*
Y587643D03*
Y591580D03*
Y623076D03*
Y627013D03*
Y630950D03*
Y634887D03*
Y638824D03*
X950222Y508903D03*
Y512840D03*
Y516777D03*
Y520714D03*
Y524651D03*
Y556147D03*
Y560084D03*
Y564021D03*
Y567958D03*
Y571895D03*
Y575832D03*
Y579769D03*
Y583706D03*
Y587643D03*
Y591580D03*
Y623076D03*
Y627013D03*
Y630950D03*
Y634887D03*
Y638824D03*
X954159Y508903D03*
Y512840D03*
Y516777D03*
Y520714D03*
Y524651D03*
Y556147D03*
Y560084D03*
Y564021D03*
Y567958D03*
Y571895D03*
Y575832D03*
Y579769D03*
Y583706D03*
Y587643D03*
Y591580D03*
Y623076D03*
Y627013D03*
Y630950D03*
Y634887D03*
Y638824D03*
X958096Y508903D03*
Y512840D03*
Y516777D03*
Y520714D03*
Y524651D03*
Y556147D03*
Y560084D03*
Y564021D03*
Y567958D03*
Y571895D03*
Y575832D03*
Y579769D03*
Y583706D03*
Y587643D03*
Y591580D03*
Y623076D03*
Y627013D03*
Y630950D03*
Y634887D03*
Y638824D03*
X962033Y508903D03*
Y512840D03*
Y516777D03*
Y520714D03*
Y524651D03*
Y556147D03*
Y560084D03*
Y564021D03*
Y567958D03*
Y571895D03*
Y575832D03*
Y579769D03*
Y583706D03*
Y587643D03*
Y591580D03*
Y623076D03*
Y627013D03*
Y630950D03*
Y634887D03*
Y638824D03*
X965970Y508903D03*
Y512840D03*
Y516777D03*
Y520714D03*
Y524651D03*
Y556147D03*
Y560084D03*
Y564021D03*
Y567958D03*
Y571895D03*
Y575832D03*
Y579769D03*
Y583706D03*
Y587643D03*
Y591580D03*
Y623076D03*
Y627013D03*
Y630950D03*
Y634887D03*
Y638824D03*
X969907Y508903D03*
Y512840D03*
Y516777D03*
Y520714D03*
Y524651D03*
Y556147D03*
Y560084D03*
Y564021D03*
Y567958D03*
Y571895D03*
Y575832D03*
Y579769D03*
Y583706D03*
Y587643D03*
Y591580D03*
Y623076D03*
Y627013D03*
Y630950D03*
Y634887D03*
Y638824D03*
X973844Y508903D03*
Y512840D03*
Y516777D03*
Y520714D03*
Y524651D03*
Y556147D03*
Y560084D03*
Y564021D03*
Y567958D03*
Y571895D03*
Y575832D03*
Y579769D03*
Y583706D03*
Y587643D03*
Y591580D03*
Y623076D03*
Y627013D03*
Y630950D03*
Y634887D03*
Y638824D03*
X977781Y508903D03*
Y512840D03*
Y516777D03*
Y520714D03*
Y524651D03*
Y623076D03*
Y627013D03*
Y630950D03*
Y634887D03*
Y638824D03*
X981718Y508903D03*
Y512840D03*
Y516777D03*
Y520714D03*
Y524651D03*
Y623076D03*
Y627013D03*
Y630950D03*
Y634887D03*
Y638824D03*
X985655Y508903D03*
Y512840D03*
Y516777D03*
Y520714D03*
Y524651D03*
Y623076D03*
Y627013D03*
Y630950D03*
Y634887D03*
Y638824D03*
X989592Y508903D03*
Y512840D03*
Y516777D03*
Y520714D03*
Y524651D03*
Y623076D03*
Y627013D03*
Y630950D03*
Y634887D03*
Y638824D03*
X993529Y508903D03*
Y512840D03*
Y516777D03*
Y520714D03*
Y524651D03*
Y623076D03*
Y627013D03*
Y630950D03*
Y634887D03*
Y638824D03*
X997466Y508903D03*
Y512840D03*
Y516777D03*
Y520714D03*
Y524651D03*
Y623076D03*
Y627013D03*
Y630950D03*
Y634887D03*
Y638824D03*
X1001403Y508903D03*
Y512840D03*
Y516777D03*
Y520714D03*
Y524651D03*
Y623076D03*
Y627013D03*
Y630950D03*
Y634887D03*
Y638824D03*
X1005340Y508903D03*
Y512840D03*
Y516777D03*
Y520714D03*
Y524651D03*
Y528588D03*
Y532525D03*
Y536462D03*
Y540399D03*
Y544336D03*
Y548273D03*
Y552210D03*
Y556147D03*
Y560084D03*
Y564021D03*
Y567958D03*
Y571895D03*
Y575832D03*
Y579769D03*
Y583706D03*
Y587643D03*
Y591580D03*
Y595517D03*
Y599454D03*
Y603391D03*
Y607328D03*
Y611265D03*
Y615202D03*
Y619139D03*
Y623076D03*
Y627013D03*
Y630950D03*
Y634887D03*
Y638824D03*
X1009277Y508903D03*
Y512840D03*
Y516777D03*
Y520714D03*
Y524651D03*
Y528588D03*
Y532525D03*
Y536462D03*
Y540399D03*
Y544336D03*
Y548273D03*
Y552210D03*
Y556147D03*
Y560084D03*
Y564021D03*
Y567958D03*
Y571895D03*
Y575832D03*
Y579769D03*
Y583706D03*
Y587643D03*
Y591580D03*
Y595517D03*
Y599454D03*
Y603391D03*
Y607328D03*
Y611265D03*
Y615202D03*
Y619139D03*
Y623076D03*
Y627013D03*
Y630950D03*
Y634887D03*
Y638824D03*
X1013214Y508903D03*
Y512840D03*
Y516777D03*
Y520714D03*
Y524651D03*
Y528588D03*
Y532525D03*
Y536462D03*
Y540399D03*
Y544336D03*
Y548273D03*
Y552210D03*
Y556147D03*
Y560084D03*
Y564021D03*
Y567958D03*
Y571895D03*
Y575832D03*
Y579769D03*
Y583706D03*
Y587643D03*
Y591580D03*
Y595517D03*
Y599454D03*
Y603391D03*
Y607328D03*
Y611265D03*
Y615202D03*
Y619139D03*
Y623076D03*
Y627013D03*
Y630950D03*
Y634887D03*
Y638824D03*
X1017151Y508903D03*
Y512840D03*
Y516777D03*
Y520714D03*
Y524651D03*
Y528588D03*
Y532525D03*
Y536462D03*
Y540399D03*
Y544336D03*
Y548273D03*
Y552210D03*
Y556147D03*
Y560084D03*
Y564021D03*
Y567958D03*
Y571895D03*
Y575832D03*
Y579769D03*
Y583706D03*
Y587643D03*
Y591580D03*
Y595517D03*
Y599454D03*
Y603391D03*
Y607328D03*
Y611265D03*
Y615202D03*
Y619139D03*
Y623076D03*
Y627013D03*
Y630950D03*
Y634887D03*
Y638824D03*
X1021088Y508903D03*
Y512840D03*
Y516777D03*
Y520714D03*
Y524651D03*
Y528588D03*
Y532525D03*
Y536462D03*
Y540399D03*
Y544336D03*
Y548273D03*
Y552210D03*
Y556147D03*
Y560084D03*
Y564021D03*
Y567958D03*
Y571895D03*
Y575832D03*
Y579769D03*
Y583706D03*
Y587643D03*
Y591580D03*
Y595517D03*
Y599454D03*
Y603391D03*
Y607328D03*
Y611265D03*
Y615202D03*
Y619139D03*
Y623076D03*
Y627013D03*
Y630950D03*
Y634887D03*
Y638824D03*
X219139Y707266D02*
X217171Y707300D01*
X219184Y709825D02*
X217215Y709859D01*
X209343Y709996D02*
X207374Y710031D01*
X209253Y704879D02*
X207285Y704913D01*
G54D138*
X216425Y704065D02*
X219771Y704006D01*
X219795Y705384*
X216449Y705442*
X216425Y704065*
X216437Y704724D02*
X219784D01*
X216535Y704063D02*
Y705441D01*
X217520Y704046D02*
Y705424D01*
X218504Y704028D02*
Y705407D01*
X219488Y704011D02*
Y705389D01*
G54D139*
X523057Y640793D03*
X668726Y495124D03*
X751403Y542368D03*
X802584Y601423D03*
X1028962Y501029D03*
X883293Y646698D03*
X862030Y423679D03*
X946282Y339427D03*
X147072Y841580D03*
X221876Y766777D03*
X968167Y111824D03*
X1015167D03*
X312902Y895253D03*
X312602Y937627D03*
X731718Y449848D03*
X798647Y524651D03*
X731718Y628982D03*
X798647Y703785D03*
X1227781Y983313D03*
Y89612D03*
X46679Y904572D03*
X922769Y838636D03*
X986942Y926431D03*
X1247500Y1027500D03*
X22500D03*
Y92500D03*
G54D142*
X406324Y660635D03*
Y650635D03*
Y640635D03*
X423254D03*
Y650635D03*
Y660635D03*
X406324Y715754D03*
Y705754D03*
Y695754D03*
X423254D03*
Y705754D03*
Y715754D03*
X406324Y623234D03*
Y613234D03*
Y603234D03*
X423254D03*
Y613234D03*
Y623234D03*
X406324Y581895D03*
Y571895D03*
Y561895D03*
X423254D03*
Y571895D03*
Y581895D03*
G54D143*
X194906Y486135D03*
X198449D03*
X1004104Y221848D03*
X1000561D03*
X432702Y660478D03*
X436246D03*
X431915Y715990D03*
X435458D03*
X472072Y686069D03*
X475616D03*
X472072Y690006D03*
X475616D03*
X450471Y904987D03*
X454014D03*
X281128Y869139D03*
X284671D03*
X710261Y548273D03*
X713805D03*
Y528588D03*
X710261D03*
X715773Y585675D03*
X712230D03*
X812624Y632919D03*
X816167D03*
X341731Y946790D03*
X345274D03*
X195331Y948490D03*
X198874D03*
X236531Y938090D03*
X240074D03*
X272431Y930190D03*
X275974D03*
X117742Y808116D03*
X121285D03*
X117742Y796305D03*
X121285D03*
X117742Y784494D03*
X121285D03*
X117301Y772683D03*
X120844D03*
X117742Y835675D03*
X121285D03*
X253175Y819927D03*
X249631D03*
Y831738D03*
X253175D03*
X117742Y847486D03*
X121285D03*
X253175Y776620D03*
X249631D03*
Y808116D03*
X253175D03*
X153252Y992803D03*
X156795D03*
X249631Y798273D03*
X253175D03*
X249631Y788431D03*
X253175D03*
X249631Y764809D03*
X253175D03*
X603569Y893549D03*
X607112D03*
X502667Y894336D03*
X506210D03*
X555931Y893155D03*
X559474D03*
X132309Y936856D03*
X135852D03*
X444513Y630950D03*
X448057D03*
X444513Y666383D03*
X448057D03*
X444513Y626620D03*
X448057D03*
X444513Y670320D03*
X448057D03*
X444513Y725439D03*
X448057D03*
X444513Y682131D03*
X448057D03*
X444513Y721502D03*
X448057D03*
X444513Y686069D03*
X448057D03*
X472072Y662446D03*
X475616D03*
X472072Y658509D03*
X475616D03*
X472072Y646698D03*
X475616D03*
X472072Y642761D03*
X475616D03*
X472072Y701817D03*
X475616D03*
X472072Y705754D03*
X475616D03*
X219315Y512120D03*
X222859D03*
X1200419Y587643D03*
X1203962D03*
X710261Y538431D03*
X713805D03*
X491364Y497092D03*
X487820D03*
X491364Y504966D03*
X487820D03*
X491364Y512840D03*
X487820D03*
X491364Y520714D03*
X487820D03*
X491364Y528588D03*
X487820D03*
X491364Y560084D03*
X487820D03*
X491364Y567958D03*
X487820D03*
X491364Y575832D03*
X487820D03*
X491364Y583706D03*
X487820D03*
X491364Y536462D03*
X487820D03*
X491364Y489218D03*
X487820D03*
X1040527Y497135D03*
X1036983D03*
X1038943Y504789D03*
X1035399D03*
X353740Y780315D03*
X357283D03*
X312402Y781890D03*
X315945D03*
G54D144*
X1189724Y911299D03*
Y914843D03*
X381381Y863769D03*
Y860225D03*
X1026378Y342323D03*
Y338780D03*
X1032677Y295866D03*
Y292323D03*
X989764Y341929D03*
Y338386D03*
X1067717Y297289D03*
Y293746D03*
X1143529Y966580D03*
Y970124D03*
X1154946D03*
Y966580D03*
X1191561Y970124D03*
Y966580D03*
X1180931D03*
Y970124D03*
X266416Y636275D03*
Y639818D03*
X268347Y293289D03*
Y296832D03*
X828175Y453588D03*
Y450045D03*
X1200222Y619336D03*
Y622880D03*
X847860Y768943D03*
Y772486D03*
X624238Y461856D03*
Y465399D03*
X639986Y461856D03*
Y465399D03*
X655734Y461856D03*
Y465399D03*
X670694Y461856D03*
Y465399D03*
X376402Y919661D03*
Y916118D03*
X251796Y415466D03*
Y419009D03*
X257701Y474521D03*
Y478065D03*
Y484364D03*
Y487907D03*
X265678Y573280D03*
Y576823D03*
X234702Y912561D03*
Y909018D03*
X275802Y922361D03*
Y918818D03*
X234802Y921861D03*
Y918318D03*
X1000567Y181896D03*
Y178353D03*
X733687Y713824D03*
Y717368D03*
X794710Y717761D03*
Y721305D03*
X591954Y461856D03*
Y465399D03*
X375402Y930518D03*
Y934061D03*
X418502Y922161D03*
Y918618D03*
X418802Y930418D03*
Y933961D03*
X831167Y412880D03*
Y416423D03*
X1186443Y966580D03*
Y970124D03*
X1175419Y966580D03*
Y970124D03*
X1149041Y966580D03*
Y970124D03*
X1138411Y966580D03*
Y970124D03*
X151009Y869336D03*
Y872880D03*
X172663Y869336D03*
Y872880D03*
X184474Y869336D03*
Y872880D03*
X208096Y869336D03*
Y872880D03*
X196285D03*
Y869336D03*
X160852Y872880D03*
Y869336D03*
X217939Y872880D03*
Y869336D03*
X954967Y183496D03*
Y179953D03*
X123622Y983535D03*
Y987079D03*
X157150Y982827D03*
Y986370D03*
X396285Y534297D03*
Y530754D03*
X987967Y181896D03*
Y178353D03*
X1035167Y182196D03*
Y178653D03*
X123386Y972512D03*
Y976055D03*
X156913Y976528D03*
Y972984D03*
X265678Y585091D03*
Y588634D03*
X261638Y419009D03*
Y415466D03*
X838529Y412565D03*
Y416108D03*
X170694Y888234D03*
Y891777D03*
X200222Y887840D03*
Y891383D03*
X968167Y152053D03*
Y155596D03*
X1015167Y152053D03*
Y155596D03*
X1000567Y170796D03*
Y167253D03*
X954667Y170896D03*
Y167353D03*
X1035167Y155596D03*
Y152053D03*
X988167Y155596D03*
Y152053D03*
X605734Y658313D03*
Y654769D03*
X160065Y906738D03*
Y903194D03*
X501797Y658313D03*
Y654769D03*
X497860Y658313D03*
Y654769D03*
X493923Y658313D03*
Y654769D03*
X489986Y658313D03*
Y654769D03*
X566364Y658313D03*
Y654769D03*
X562427Y658313D03*
Y654769D03*
X554553Y658313D03*
Y654769D03*
X558490Y658313D03*
Y654769D03*
X542742Y658313D03*
Y654769D03*
X538805Y658313D03*
Y654769D03*
X513608Y658313D03*
Y654769D03*
X517545Y658313D03*
Y654769D03*
X589986Y658313D03*
Y654769D03*
X586049Y658313D03*
Y654769D03*
X578175Y658313D03*
Y654769D03*
X582112Y658313D03*
Y654769D03*
X613608Y658313D03*
Y654769D03*
X609671Y658313D03*
Y654769D03*
X601797Y658313D03*
Y654769D03*
X673057Y658313D03*
Y654769D03*
X669120Y658313D03*
Y654769D03*
X649041Y658313D03*
Y654769D03*
X652978Y658313D03*
Y654769D03*
X629356Y658313D03*
Y654769D03*
X625419Y658313D03*
Y654769D03*
X637230Y658313D03*
Y654769D03*
X633293Y658313D03*
Y654769D03*
X690380Y658313D03*
Y654769D03*
X686443Y658313D03*
Y654769D03*
X697860Y658706D03*
Y655163D03*
X701797Y658706D03*
Y655163D03*
X521088Y465399D03*
Y461856D03*
X536836Y465399D03*
Y461856D03*
X552584Y465399D03*
Y461856D03*
X569120Y465399D03*
Y461856D03*
X615576Y465399D03*
Y461856D03*
X632112Y465399D03*
Y461856D03*
X647860Y465399D03*
Y461856D03*
X663608Y465399D03*
Y461856D03*
X513214D03*
Y465399D03*
X528962Y461856D03*
Y465399D03*
X544710Y461856D03*
Y465399D03*
X560458Y461856D03*
Y465399D03*
X576600Y461856D03*
Y465399D03*
X584868Y461856D03*
Y465399D03*
X599828Y461856D03*
Y465399D03*
X607702Y461856D03*
Y465399D03*
X839986Y839809D03*
Y843352D03*
G54D145*
X567102Y942295D03*
Y930484D03*
Y990795D03*
Y978984D03*
Y1015595D03*
Y1003784D03*
X1184050Y314513D03*
Y326324D03*
X567102Y965795D03*
Y953984D03*
X91358Y126395D03*
Y138206D03*
X57465Y452189D03*
Y440378D03*
G54D146*
X417545Y674257D03*
X423844D03*
X417151Y727801D03*
X423450D03*
X490773Y814021D03*
X484474D03*
X595104D03*
X588805D03*
X543923D03*
X537624D03*
X67512Y632520D03*
X61213D03*
X589986Y901423D03*
X583687D03*
X489240Y901817D03*
X482941D03*
X539198Y901029D03*
X532899D03*
X902037Y156387D03*
X908336D03*
X645891Y176226D03*
X652191D03*
X646285Y164021D03*
X652584D03*
X582899Y132919D03*
X589198D03*
X564002Y153391D03*
X570301D03*
X312427Y145517D03*
X318726D03*
X312427Y159297D03*
X318726D03*
X1050866Y477914D03*
X1057166D03*
G54D147*
X993195Y947716D03*
X1005006D03*
X122808Y261890D03*
X110997D03*
X59908Y261990D03*
X48097D03*
X1020895Y928116D03*
X1032706D03*
X1020895Y914116D03*
X1032706D03*
G54D148*
X949435Y473470D03*
Y467171D03*
X1066364Y661265D03*
Y667565D03*
X958883Y473470D03*
Y467171D03*
X968332Y473470D03*
Y467171D03*
X988017Y473470D03*
Y467171D03*
X978569Y473470D03*
Y467171D03*
X390380Y525439D03*
Y531738D03*
X932506Y121895D03*
Y128194D03*
G54D149*
X901178Y908951D03*
X897635D03*
X894092D03*
Y901951D03*
X897635D03*
X901178D03*
Y895951D03*
X897635D03*
X894092D03*
X901178Y883851D03*
X897635D03*
X894092D03*
Y889951D03*
X897635D03*
X901178D03*
X870092Y864951D03*
X873635D03*
X877178D03*
X870092Y857951D03*
X873635D03*
X877178D03*
X870092Y850951D03*
X873635D03*
X877178D03*
X870092Y844951D03*
X873635D03*
X877178D03*
X894092Y877951D03*
X897635D03*
X901178D03*
Y871951D03*
X897635D03*
X894092D03*
Y927951D03*
X897635D03*
X901178D03*
Y921951D03*
X897635D03*
X894092D03*
Y914951D03*
X897635D03*
X901178D03*
X472831Y938890D03*
X476374D03*
X587602Y927661D03*
Y924118D03*
X598602Y927661D03*
Y924118D03*
X395104Y660675D03*
Y664218D03*
X477374Y957890D03*
X473831D03*
X477374Y951890D03*
X473831D03*
X476374Y933390D03*
X472831D03*
X476374Y927390D03*
X472831D03*
X473831Y963390D03*
X477374D03*
X572072Y853391D03*
X568529D03*
Y847486D03*
X572072D03*
X517348D03*
X520891D03*
Y853391D03*
X517348D03*
X469710D03*
X466167D03*
Y847486D03*
X469710D03*
X477874Y976390D03*
X474331D03*
X477874Y982390D03*
X474331D03*
X477874Y1006890D03*
X474331D03*
X477874Y1000890D03*
X474331D03*
Y987890D03*
X477874D03*
X474331Y1012390D03*
X477874D03*
X608602Y927661D03*
Y924118D03*
X618602Y927661D03*
Y924118D03*
X395104Y715399D03*
Y718943D03*
X477874Y993390D03*
X474331D03*
X477874Y1017890D03*
X474331D03*
X516831Y976390D03*
X520374D03*
X517331Y1000390D03*
X520874D03*
X928167Y724053D03*
Y727596D03*
X905375Y297711D03*
X901832D03*
X977638Y383197D03*
X981181D03*
X984724D03*
Y389197D03*
X981181D03*
X977638D03*
X984724Y376197D03*
X981181D03*
X977638D03*
X987561Y215848D03*
X991104D03*
X959199Y228458D03*
Y224915D03*
X927387Y224061D03*
Y220517D03*
X943150Y228458D03*
Y224915D03*
X951026Y228458D03*
Y224915D03*
X1004104Y215848D03*
X1000561D03*
X855537Y583706D03*
X851994D03*
Y534494D03*
X855537D03*
X865970Y666187D03*
Y669730D03*
X871876Y666187D03*
Y669730D03*
X854159Y666187D03*
Y669730D03*
X848254Y666187D03*
Y669730D03*
X860065Y666187D03*
Y669730D03*
X1024764Y308150D03*
Y311693D03*
X1016757Y377998D03*
Y381541D03*
X1056915Y336659D03*
Y340202D03*
X860852Y596895D03*
Y593352D03*
X838583Y673819D03*
Y670276D03*
X832283Y674213D03*
Y670669D03*
X995498Y371305D03*
Y367761D03*
X1035984Y336693D03*
X1032441D03*
X991104Y221848D03*
X987561D03*
X877781Y669730D03*
Y666187D03*
X844710Y633509D03*
Y629966D03*
X954159Y449651D03*
Y446108D03*
X967192Y228454D03*
Y224911D03*
X1005029Y922116D03*
X1008572D03*
X1004995Y911124D03*
X1008539D03*
Y889924D03*
X1004995D03*
X1008539Y895324D03*
X1004995D03*
X1008539Y903224D03*
X1004995D03*
X897063Y865151D03*
X900607D03*
X896863Y857951D03*
X900407D03*
X896863Y850951D03*
X900407D03*
X896863Y844951D03*
X900407D03*
X961639Y820517D03*
Y824061D03*
X956915Y820517D03*
Y824061D03*
X938123Y820517D03*
Y824061D03*
X944029Y820517D03*
Y824061D03*
X1008439Y885524D03*
X1004895D03*
X1066167Y611265D03*
X1062624D03*
X1174139Y405152D03*
X1177683D03*
X1190296Y622066D03*
Y618522D03*
X1195329Y622066D03*
Y618522D03*
X852387Y577407D03*
X855931D03*
X851994Y522683D03*
X855537D03*
X1116693Y885906D03*
X1120236D03*
X851994Y542761D03*
X855537D03*
X851994Y571895D03*
X855537D03*
X839986Y597289D03*
Y593746D03*
X832702Y572289D03*
X836246D03*
X408653Y840397D03*
X405109D03*
X853765Y597289D03*
Y593746D03*
X851994Y567565D03*
X855537D03*
X336181Y857169D03*
Y853625D03*
X822663Y294927D03*
Y291383D03*
X851994Y538431D03*
X855537D03*
X844907Y558116D03*
X848450D03*
X851994Y562840D03*
X855537D03*
X476009Y615202D03*
X479553D03*
X834080Y450045D03*
Y453588D03*
X1037624Y656344D03*
Y659887D03*
X900572Y839116D03*
X897029D03*
X1046285Y656344D03*
Y659887D03*
X965970Y820517D03*
Y824061D03*
X1054946Y656344D03*
Y659887D03*
X1050616Y656344D03*
Y659887D03*
X869663Y877851D03*
X873207D03*
X869663Y871851D03*
X873207D03*
X869663Y927851D03*
X873207D03*
X869663Y921851D03*
X873207D03*
X869663Y914851D03*
X873207D03*
X869663Y908851D03*
X873207D03*
X869663Y901851D03*
X873207D03*
X869663Y895851D03*
X873207D03*
X869663Y883751D03*
X873207D03*
X869663Y889851D03*
X873207D03*
X1008572Y928116D03*
X1005029D03*
X952191Y820517D03*
Y824061D03*
X393174Y921490D03*
X389631D03*
X476009Y607328D03*
X479553D03*
X200418Y521569D03*
X196874D03*
X200418Y515663D03*
X196874D03*
X836049Y768943D03*
Y772486D03*
X841954D03*
Y768943D03*
X974799Y297811D03*
X978343D03*
X965038D03*
X968582D03*
X954985D03*
X958528D03*
X839986Y453588D03*
Y450045D03*
X1041954Y656344D03*
Y659887D03*
X1032506Y656344D03*
Y659887D03*
X920301Y710281D03*
Y713824D03*
Y727604D03*
Y724061D03*
X1160852Y966580D03*
Y970124D03*
X1196285Y966580D03*
Y970124D03*
X925375Y297711D03*
X921832D03*
X915375D03*
X911832D03*
X935375Y297811D03*
X931832D03*
X889575Y297711D03*
X886032D03*
X935261Y224061D03*
Y220517D03*
X855537Y518746D03*
X851994D03*
X1023057Y367368D03*
Y370911D03*
X1012033Y377604D03*
Y381147D03*
X851994Y514809D03*
X855537D03*
X851994Y530557D03*
X855537D03*
X1116299Y866614D03*
X1119843D03*
X312581Y841769D03*
Y838225D03*
X879575Y297711D03*
X876032D03*
X869575D03*
X866032D03*
X208974Y922190D03*
X205431D03*
X248474Y922290D03*
X244931D03*
X427014Y913287D03*
X423471D03*
X436043Y945816D03*
Y949359D03*
X427043Y945816D03*
Y949359D03*
X445043Y945816D03*
Y949359D03*
X454043Y945816D03*
Y949359D03*
X351974Y920890D03*
X348431D03*
X225813Y867565D03*
Y871108D03*
Y874651D03*
X43543Y721701D03*
Y725244D03*
Y728787D03*
X254946Y751029D03*
X251403D03*
X247860D03*
X1196417Y333740D03*
Y330197D03*
X1202717D03*
Y333740D03*
X44202Y606461D03*
Y602918D03*
X91364Y1017171D03*
X94907D03*
X91364Y1021895D03*
X94907D03*
X89002Y971108D03*
X92545D03*
X1209016Y333740D03*
Y330197D03*
X1209803Y352244D03*
Y355787D03*
X86292Y611664D03*
X82749D03*
Y606764D03*
X86292D03*
X92545Y976620D03*
X89002D03*
X988167Y162053D03*
Y165596D03*
X395104Y622880D03*
Y619336D03*
X475813Y892958D03*
Y896502D03*
X983167Y152053D03*
Y155596D03*
X922860Y817958D03*
X926403D03*
X576206Y892958D03*
Y896502D03*
X526994Y892958D03*
Y896502D03*
X922860Y810084D03*
X926403D03*
X1204291Y352244D03*
Y355787D03*
X1216102D03*
Y352244D03*
X215684Y248204D03*
Y251747D03*
X963167Y152053D03*
Y155596D03*
X983167Y165596D03*
Y162053D03*
X978167Y155596D03*
Y152053D03*
X395104Y581541D03*
Y577998D03*
X1030167Y166596D03*
Y163053D03*
X1035167D03*
Y166596D03*
X1010167Y152053D03*
Y155596D03*
X1005167D03*
Y152053D03*
X273731Y945490D03*
X277274D03*
X1008686Y873228D03*
X1005142D03*
X1187756Y242795D03*
Y239252D03*
X1175157Y164055D03*
Y167598D03*
X64161Y350271D03*
X60617D03*
X1062820Y336265D03*
Y339809D03*
X753372Y422486D03*
Y426029D03*
X855537Y526620D03*
X851994D03*
X816364Y597289D03*
Y593746D03*
X352074Y933190D03*
X348531D03*
X853962Y608116D03*
X857506D03*
X844789Y398116D03*
Y394572D03*
X959474Y664809D03*
X963017D03*
X828175Y597289D03*
Y593746D03*
X853962Y603391D03*
X857506D03*
X853962Y613234D03*
X857506D03*
X822269Y597289D03*
Y593746D03*
X205531Y932690D03*
X209074D03*
X1025167Y155596D03*
Y152053D03*
X1030167D03*
Y155596D03*
X958167D03*
Y152053D03*
X973167D03*
Y155596D03*
X1020167Y152053D03*
Y155596D03*
X1203962Y581738D03*
X1200419D03*
X219315Y507789D03*
X222859D03*
X515831Y927390D03*
X519374D03*
X517331Y950890D03*
X520874D03*
X477374Y968890D03*
X473831D03*
X476374Y944390D03*
X472831D03*
X603372Y421698D03*
Y418155D03*
X751009Y409494D03*
Y405950D03*
X745498Y409494D03*
Y405950D03*
X611639Y422092D03*
Y418549D03*
X1223189Y333740D03*
Y330197D03*
X182919Y193493D03*
X179375D03*
X1216102Y333740D03*
Y330197D03*
X179685Y215827D03*
X176142D03*
X182766Y184395D03*
X179223D03*
X185951Y234894D03*
X182408D03*
X173031Y389612D03*
X176575D03*
X152953Y367565D03*
X149409D03*
X126600Y592171D03*
Y595714D03*
X109016Y603425D03*
Y606969D03*
X38797Y349996D03*
X42340D03*
X75394Y376772D03*
X78937D03*
X476009Y623076D03*
X479553D03*
X476009Y599454D03*
X479553D03*
X475222Y575832D03*
X478765D03*
X475222Y567958D03*
X478765D03*
X487820Y544336D03*
X491364D03*
X487820Y552210D03*
X491364D03*
X712230Y593549D03*
X715773D03*
X712230Y601423D03*
X715773D03*
X855531Y510466D03*
X851988D03*
X858883Y843352D03*
Y839809D03*
X829750Y843352D03*
Y839809D03*
X164789Y914218D03*
Y917761D03*
X159671D03*
Y914218D03*
X849041Y839809D03*
Y843352D03*
X855537Y505360D03*
X851994D03*
X916757Y442565D03*
Y439021D03*
X1076280Y499138D03*
Y502681D03*
X1039624Y509176D03*
Y512719D03*
X1076529Y509236D03*
Y512780D03*
X971588Y824061D03*
Y820517D03*
X934186Y824061D03*
Y820517D03*
X930249Y825635D03*
Y822092D03*
X167126Y696850D03*
X170669D03*
X214370D03*
X217913D03*
X265157D03*
X261614D03*
X452559Y716535D03*
X449016D03*
X944513Y664415D03*
X940970D03*
X260433Y772047D03*
X263976D03*
X260433Y757874D03*
X263976D03*
X459449Y650591D03*
Y654134D03*
X455709Y631102D03*
X459252D03*
X462598Y693504D03*
Y697047D03*
X173772Y730000D03*
X170228D03*
X186272Y739000D03*
X182728D03*
X202228D03*
X205772D03*
G54D150*
X846529Y887500D03*
X858341D03*
X846529Y898851D03*
X858341D03*
X846529Y874851D03*
X858341D03*
G54D151*
X523949Y203001D03*
Y225599D03*
X525917Y203001D03*
Y225599D03*
X529854Y203001D03*
Y225599D03*
X531823Y203001D03*
Y225599D03*
X535760Y203001D03*
Y225599D03*
X537728Y203001D03*
Y225599D03*
X541665Y203001D03*
Y225599D03*
X543634Y203001D03*
Y225599D03*
X547571Y203001D03*
Y225599D03*
X549539Y203001D03*
Y225599D03*
X553476Y203001D03*
Y225599D03*
X555445Y203001D03*
Y225599D03*
X559382Y203001D03*
Y225599D03*
X561350Y203001D03*
Y225599D03*
X565287Y203001D03*
Y225599D03*
X567256Y203001D03*
Y225599D03*
X571193Y203001D03*
Y225599D03*
X573161Y203001D03*
Y225599D03*
X577098Y203001D03*
Y225599D03*
X579067Y203001D03*
Y225599D03*
X602689Y203001D03*
Y225599D03*
X604657Y203001D03*
Y225599D03*
X608594Y203001D03*
Y225599D03*
X610563Y203001D03*
Y225599D03*
X614500Y203001D03*
Y225599D03*
X616469Y203001D03*
Y225599D03*
X620406Y203001D03*
Y225599D03*
X622374Y203001D03*
Y225599D03*
X626311Y203001D03*
Y225599D03*
X628280Y203001D03*
Y225599D03*
X632217Y203001D03*
Y225599D03*
X634185Y203001D03*
Y225599D03*
X638122Y203001D03*
Y225599D03*
X640091Y203001D03*
Y225599D03*
X644028Y203001D03*
Y225599D03*
X645996Y203001D03*
Y225599D03*
X649933Y203001D03*
Y225599D03*
X651902Y203001D03*
Y225599D03*
X655839Y203001D03*
Y225599D03*
X657807Y203001D03*
Y225599D03*
G54D152*
X520740Y214300D03*
X584224D03*
X599500D03*
X662984D03*
G54D153*
X539992D03*
X564992D03*
X643732D03*
X618732D03*
G54D154*
X528472Y965890D03*
Y960890D03*
Y955890D03*
Y950890D03*
X549732D03*
Y955890D03*
Y960890D03*
Y965890D03*
X528472Y942390D03*
Y937390D03*
Y932390D03*
Y927390D03*
X549732D03*
Y932390D03*
Y937390D03*
Y942390D03*
X528472Y990890D03*
Y985890D03*
Y980890D03*
Y975890D03*
X549732D03*
Y980890D03*
Y985890D03*
Y990890D03*
X528472Y1015690D03*
Y1010690D03*
Y1005690D03*
Y1000690D03*
X549732D03*
Y1005690D03*
Y1010690D03*
Y1015690D03*
X403372Y545931D03*
Y540931D03*
Y535931D03*
Y530931D03*
X424631D03*
Y535931D03*
Y540931D03*
Y545931D03*
X291689Y863671D03*
Y858671D03*
Y853671D03*
Y848671D03*
X312949D03*
Y853671D03*
Y858671D03*
Y863671D03*
X393540Y863771D03*
Y858771D03*
Y853771D03*
Y848771D03*
X414800D03*
Y853771D03*
Y858771D03*
Y863771D03*
G54D155*
X836049Y484100D03*
X834080D03*
X832112D03*
X830143D03*
X828175D03*
Y466777D03*
X830143D03*
X832112D03*
X834080D03*
X836049D03*
X837624Y739612D03*
X839592D03*
X841561D03*
X843529D03*
X845498D03*
Y756935D03*
X843529D03*
X841561D03*
X839592D03*
X837624D03*
X1185999Y586469D03*
X1187968D03*
X1189936D03*
X1191905D03*
X1193873D03*
Y603792D03*
X1191905D03*
X1189936D03*
X1187968D03*
X1185999D03*
G54D156*
X832112Y475439D03*
X841561Y748273D03*
X1189936Y595131D03*
G54D157*
X660250Y990683D03*
X666156D03*
X672061D03*
X677967D03*
X683872D03*
X689778D03*
X695683D03*
X701589D03*
X707494D03*
X713400D03*
X719306D03*
X725211D03*
X731117D03*
X737022D03*
X742928D03*
X748833D03*
X754739D03*
X760644D03*
X766550D03*
X772455D03*
X778361D03*
X784266D03*
X790172D03*
X796077D03*
X801983D03*
X807888D03*
X813794D03*
X819699D03*
X825605D03*
X831510D03*
X837416D03*
X843321D03*
X849227D03*
X855132D03*
X861038D03*
X866943D03*
X872849D03*
X660250Y1015880D03*
X666156D03*
X672061D03*
X677967D03*
X683872D03*
X689778D03*
X695683D03*
X701589D03*
X707494D03*
X713400D03*
X719306D03*
X725211D03*
X731117D03*
X737022D03*
X742928D03*
X748833D03*
X754739D03*
X760644D03*
X766550D03*
X772455D03*
X778361D03*
X784266D03*
X790172D03*
X796077D03*
X801983D03*
X807888D03*
X813794D03*
X819699D03*
X825605D03*
X831510D03*
X837416D03*
X843321D03*
X849227D03*
X855132D03*
X861038D03*
X866943D03*
X872849D03*
X662219Y990683D03*
X664187D03*
X668124D03*
X674030D03*
X679935D03*
X685841D03*
X691746D03*
X697652D03*
X703557D03*
X709463D03*
X715369D03*
X721274D03*
X727180D03*
X733085D03*
X738991D03*
X744896D03*
X750802D03*
X756707D03*
X762613D03*
X768518D03*
X774424D03*
X780329D03*
X786235D03*
X792140D03*
X798046D03*
X803951D03*
X809857D03*
X815762D03*
X821668D03*
X827573D03*
X833479D03*
X839384D03*
X845290D03*
X851195D03*
X857101D03*
X863006D03*
X868912D03*
X670093D03*
X675998D03*
X681904D03*
X687809D03*
X693715D03*
X699620D03*
X705526D03*
X711431D03*
X717337D03*
X723243D03*
X729148D03*
X735054D03*
X740959D03*
X746865D03*
X752770D03*
X758676D03*
X764581D03*
X770487D03*
X776392D03*
X782298D03*
X788203D03*
X794109D03*
X800014D03*
X805920D03*
X811825D03*
X817731D03*
X823636D03*
X829542D03*
X835447D03*
X841353D03*
X847258D03*
X853164D03*
X859069D03*
X864975D03*
X870880D03*
G54D158*
X1189986Y495320D03*
Y493352D03*
Y491383D03*
Y489415D03*
X1195498D03*
Y491383D03*
Y493352D03*
Y495320D03*
X1189986Y484691D03*
Y482722D03*
Y480754D03*
Y478785D03*
X1195498D03*
Y480754D03*
Y482722D03*
Y484691D03*
X1189986Y472880D03*
Y470911D03*
Y468943D03*
Y466974D03*
X1195498D03*
Y468943D03*
Y470911D03*
Y472880D03*
X1189986Y437446D03*
Y435478D03*
Y433509D03*
Y431541D03*
X1195498D03*
Y433509D03*
Y435478D03*
Y437446D03*
X1189986Y426817D03*
Y424848D03*
Y422880D03*
Y420911D03*
X1195498D03*
Y422880D03*
Y424848D03*
Y426817D03*
X1189986Y416974D03*
Y415006D03*
Y413037D03*
Y411069D03*
X1195498D03*
Y413037D03*
Y415006D03*
Y416974D03*
X1189986Y512643D03*
Y510675D03*
Y508706D03*
Y506738D03*
X1195498D03*
Y508706D03*
Y510675D03*
Y512643D03*
X246284Y426490D03*
Y428458D03*
Y430427D03*
Y432395D03*
X240772D03*
Y430427D03*
Y428458D03*
Y426490D03*
X246284Y437120D03*
Y439088D03*
Y441057D03*
Y443025D03*
X240772D03*
Y441057D03*
Y439088D03*
Y437120D03*
X246284Y450112D03*
Y452080D03*
Y454049D03*
Y456017D03*
X240772D03*
Y454049D03*
Y452080D03*
Y450112D03*
X246284Y463104D03*
Y465072D03*
Y467041D03*
Y469009D03*
X240772D03*
Y467041D03*
Y465072D03*
Y463104D03*
X246284Y495781D03*
Y497750D03*
Y499718D03*
Y501687D03*
X240772D03*
Y499718D03*
Y497750D03*
Y495781D03*
X246284Y515466D03*
Y517435D03*
Y519403D03*
Y521372D03*
X240772D03*
Y519403D03*
Y517435D03*
Y515466D03*
X246284Y534364D03*
Y536332D03*
Y538301D03*
Y540269D03*
X240772D03*
Y538301D03*
Y536332D03*
Y534364D03*
G54D159*
X995498Y441777D03*
Y430360D03*
X920301Y473667D03*
Y462250D03*
X1012820Y441383D03*
Y429966D03*
X1093923Y660675D03*
Y672092D03*
X1078175Y660675D03*
Y672092D03*
X935261Y473667D03*
Y462250D03*
X1028569Y441383D03*
Y429966D03*
X973844Y441777D03*
Y430360D03*
X1181850Y119173D03*
Y107756D03*
X836049Y331541D03*
Y320124D03*
X771088Y754769D03*
Y743352D03*
X804553Y331226D03*
Y319809D03*
X430537Y861069D03*
Y849651D03*
X765183Y412250D03*
Y400832D03*
X782899Y412250D03*
Y400832D03*
X745498Y754769D03*
Y743352D03*
X820301Y331541D03*
Y320124D03*
G54D160*
X897269Y239218D03*
X908687D03*
X897269Y207722D03*
X908687D03*
X539789Y184887D03*
X551206D03*
X421285Y753391D03*
X432702D03*
X243726Y319927D03*
X255143D03*
X1092151Y245124D03*
X1103569D03*
X1098057Y766777D03*
X1109474D03*
X223324Y634494D03*
X234742D03*
X223324Y669927D03*
X234742D03*
X243726Y304179D03*
X255143D03*
X223324Y652210D03*
X234742D03*
X421285Y769139D03*
X432702D03*
X243726Y367171D03*
X255143D03*
X243726Y351423D03*
X255143D03*
X897269Y223470D03*
X908687D03*
X1092151Y292368D03*
X1103569D03*
X243726Y335675D03*
X255143D03*
X1098057Y835675D03*
X1109474D03*
X1098057Y819927D03*
X1109474D03*
G54D161*
X1184474Y375832D03*
Y351423D03*
X221102Y132094D03*
Y107685D03*
X177102Y132094D03*
Y107685D03*
X199102Y132094D03*
Y107685D03*
X127102Y371685D03*
Y396094D03*
X231718Y273076D03*
Y248667D03*
X255340Y273076D03*
Y248667D03*
X1029000Y989205D03*
Y964795D03*
G54D162*
X995789Y230848D03*
X1002876D03*
X203765Y300242D03*
X196679D03*
X137465Y871780D03*
X130378D03*
X125025Y825832D03*
X117939D03*
G54D163*
X1003860Y241108D03*
Y248588D03*
X994805Y244848D03*
G54D164*
X895104Y472880D03*
Y466187D03*
X906915Y472880D03*
Y466187D03*
G54D165*
X1069710Y603391D03*
X1063017D03*
Y619139D03*
X1069710D03*
G54D166*
X1177976Y417193D03*
Y415225D03*
Y413256D03*
Y411288D03*
X1181913D03*
Y413256D03*
Y415225D03*
Y417193D03*
X1177976Y472788D03*
Y470820D03*
Y468851D03*
Y466883D03*
X1181913D03*
Y468851D03*
Y470820D03*
Y472788D03*
X1177976Y484358D03*
Y482390D03*
Y480421D03*
Y478453D03*
X1181913D03*
Y480421D03*
Y482390D03*
Y484358D03*
X1177976Y495363D03*
Y493395D03*
Y491426D03*
Y489458D03*
X1181913D03*
Y491426D03*
Y493395D03*
Y495363D03*
X1177976Y512577D03*
Y510609D03*
Y508640D03*
Y506672D03*
X1181913D03*
Y508640D03*
Y510609D03*
Y512577D03*
X1177976Y437653D03*
Y435685D03*
Y433716D03*
Y431748D03*
X1181913D03*
Y433716D03*
Y435685D03*
Y437653D03*
X1177976Y427157D03*
Y425189D03*
Y423220D03*
Y421252D03*
X1181913D03*
Y423220D03*
Y425189D03*
Y427157D03*
X260063Y426962D03*
Y428931D03*
Y430899D03*
Y432868D03*
X256126D03*
Y430899D03*
Y428931D03*
Y426962D03*
X260063Y450191D03*
Y452159D03*
Y454128D03*
Y456096D03*
X256126D03*
Y454128D03*
Y452159D03*
Y450191D03*
X260063Y463183D03*
Y465151D03*
Y467120D03*
Y469088D03*
X256126D03*
Y467120D03*
Y465151D03*
Y463183D03*
X260063Y495860D03*
Y497828D03*
Y499797D03*
Y501765D03*
X256126D03*
Y499797D03*
Y497828D03*
Y495860D03*
X260063Y515151D03*
Y517120D03*
Y519088D03*
Y521057D03*
X256126D03*
Y519088D03*
Y517120D03*
Y515151D03*
X260063Y534443D03*
Y536411D03*
Y538380D03*
Y540348D03*
X256126D03*
Y538380D03*
Y536411D03*
Y534443D03*
X260063Y437592D03*
Y439561D03*
Y441529D03*
Y443498D03*
X256126D03*
Y441529D03*
Y439561D03*
Y437592D03*
G54D167*
X207307Y499915D03*
Y501883D03*
Y503852D03*
Y505820D03*
Y507789D03*
X189985D03*
Y505820D03*
Y503852D03*
Y501883D03*
Y499915D03*
G54D168*
X198646Y503852D03*
G54D169*
X599435Y869927D03*
Y872486D03*
Y875045D03*
Y877604D03*
Y880163D03*
X580537D03*
Y877604D03*
Y875045D03*
Y872486D03*
Y869927D03*
X548254D03*
Y872486D03*
Y875045D03*
Y877604D03*
Y880163D03*
X529356D03*
Y877604D03*
Y875045D03*
Y872486D03*
Y869927D03*
X497072D03*
Y872486D03*
Y875045D03*
Y877604D03*
Y880163D03*
X478175D03*
Y877604D03*
Y875045D03*
Y872486D03*
Y869927D03*
X53654Y617008D03*
Y614449D03*
Y611890D03*
Y609331D03*
Y606772D03*
X72551D03*
Y609331D03*
Y611890D03*
Y614449D03*
Y617008D03*
G54D170*
X595104Y884494D03*
X592545D03*
X589986D03*
X587427D03*
X584868D03*
Y865596D03*
X587427D03*
X589986D03*
X592545D03*
X595104D03*
X543923Y884494D03*
X541364D03*
X538805D03*
X536246D03*
X533687D03*
Y865596D03*
X536246D03*
X538805D03*
X541364D03*
X543923D03*
X492742Y884494D03*
X490183D03*
X487624D03*
X485065D03*
X482506D03*
Y865596D03*
X485065D03*
X487624D03*
X490183D03*
X492742D03*
X68220Y621339D03*
X65661D03*
X63102D03*
X60543D03*
X57984D03*
Y602441D03*
X60543D03*
X63102D03*
X65661D03*
X68220D03*
G54D171*
X589986Y875045D03*
X538805D03*
X487624D03*
X63102Y611890D03*
G54D172*
X1206190Y932362D03*
X1227590D03*
X1206190Y942362D03*
X1227590D03*
X1206190Y952362D03*
X1227590D03*
X1206190Y962362D03*
X1227590D03*
X1206190Y972362D03*
X1227590D03*
G54D173*
X892643Y826772D03*
X909376D03*
X892643Y818898D03*
X909376D03*
X892643Y811024D03*
X909376D03*
X892643Y803150D03*
X909376D03*
X892643Y795276D03*
X909376D03*
X892643Y787402D03*
X909376D03*
X892643Y779528D03*
X909376D03*
G54D174*
X826600Y499061D03*
X837624D03*
X1182899Y544336D03*
X1193923D03*
X1182899Y530557D03*
X1193923D03*
X226205Y425899D03*
X215181D03*
X227780Y472356D03*
X216756D03*
X227780Y486135D03*
X216756D03*
X836443Y691974D03*
X847466D03*
X836443Y705754D03*
X847466D03*
X836443Y719533D03*
X847466D03*
X541550Y912446D03*
X530527D03*
X50191Y590490D03*
X61214D03*
X126994Y761265D03*
X115970D03*
X57339Y665732D03*
X46315D03*
X595498Y853391D03*
X584474D03*
X544317D03*
X533293D03*
X493135D03*
X482112D03*
X60488Y361008D03*
X49465D03*
X111528Y563090D03*
X122551D03*
X826600Y512840D03*
X837624D03*
X1188805Y560084D03*
X1199828D03*
X592378Y912446D03*
X581355D03*
X491443D03*
X480419D03*
X102882Y672677D03*
X91858D03*
X102882Y658677D03*
X91858D03*
X102882Y686677D03*
X91858D03*
X1066142Y901575D03*
X1055118D03*
X57339Y707732D03*
X46315D03*
X57339Y693632D03*
X46315D03*
X57339Y679732D03*
X46315D03*
X227780Y527080D03*
X216756D03*
X228173Y447159D03*
X217150D03*
G54D175*
X959142Y214808D03*
Y207722D03*
X967308Y214808D03*
Y207722D03*
X951026Y214808D03*
Y207722D03*
X943150Y214808D03*
Y207722D03*
X935261Y214809D03*
Y207722D03*
X927387Y214809D03*
Y207722D03*
X454065Y933048D03*
Y940134D03*
X427065Y933048D03*
Y940134D03*
X436065Y933048D03*
Y940134D03*
X445065Y933048D03*
Y940134D03*
G54D176*
X972466Y248667D03*
X969907D03*
X967348D03*
Y240006D03*
X972466D03*
X837506Y400832D03*
X834946D03*
X832387D03*
Y392171D03*
X837506D03*
G54D177*
X1001777Y348667D03*
X1006777D03*
X1011777D03*
X1016777D03*
Y369927D03*
X1011777D03*
X1006777D03*
X1001777D03*
X1228327Y451654D03*
X1223327D03*
X1218327D03*
X1213327D03*
Y430394D03*
X1218327D03*
X1223327D03*
X1228327D03*
X1229114Y545748D03*
X1224114D03*
X1219114D03*
X1214114D03*
Y524488D03*
X1219114D03*
X1224114D03*
X1229114D03*
X194234Y251883D03*
X199234D03*
X204234D03*
X209234D03*
Y273143D03*
X204234D03*
X199234D03*
X194234D03*
X1032461Y307953D03*
X1037461D03*
X1042461D03*
X1047461D03*
X1052461D03*
X1057461D03*
X1062461D03*
X1067461D03*
Y329213D03*
X1062461D03*
X1057461D03*
X1052461D03*
X1047461D03*
X1042461D03*
X1037461D03*
X1032461D03*
G54D178*
X1190516Y955557D03*
X1187957D03*
X1185398D03*
X1182839D03*
X1180280D03*
X1177720D03*
X1175161D03*
X1172602D03*
X1170043D03*
X1167484D03*
Y928391D03*
X1170043D03*
X1172602D03*
X1175161D03*
X1177720D03*
X1180280D03*
X1182839D03*
X1185398D03*
X1187957D03*
X1190516D03*
X1154651Y955557D03*
X1152092D03*
X1149533D03*
X1146974D03*
X1144415D03*
X1141856D03*
X1139297D03*
X1136738D03*
X1134179D03*
X1131620D03*
Y928391D03*
X1134179D03*
X1136738D03*
X1139297D03*
X1141856D03*
X1144415D03*
X1146974D03*
X1149533D03*
X1152092D03*
X1154651D03*
G54D179*
X260106Y859915D03*
Y856175D03*
Y852435D03*
X270342D03*
Y856175D03*
Y859915D03*
G54D180*
X1013843Y991142D03*
X1005843D03*
X1009843Y983661D03*
G54D181*
X989764Y997047D03*
Y991929D03*
G54D182*
X349000Y888159D03*
X359000Y876659D03*
X369000Y888159D03*
X379000Y876659D03*
X389000Y888159D03*
G54D183*
X1145736Y885950D03*
X1134236Y875950D03*
X1145736Y865950D03*
X1134236Y855950D03*
X1145736Y845950D03*
G54D184*
X905917Y679100D03*
X886417D03*
X905917Y689100D03*
X886417D03*
X905917Y699100D03*
X886417D03*
X905917Y709100D03*
X886417D03*
X905917Y719100D03*
X886417D03*
X905917Y729100D03*
X886417D03*
X905917Y739100D03*
X886417D03*
X905917Y749100D03*
X886417D03*
G54D185*
X934354Y696757D03*
X962154D03*
X934354Y699257D03*
X962154D03*
X934354Y701757D03*
X962154D03*
X934354Y704257D03*
X962154D03*
X934354Y706757D03*
X962154D03*
X934354Y709257D03*
X962154D03*
X934354Y711757D03*
X962154D03*
X934354Y714257D03*
X962154D03*
X934354Y716757D03*
X962154D03*
X934354Y719257D03*
X962154D03*
X934354Y721757D03*
X962154D03*
X934354Y724257D03*
X962154D03*
X934354Y726757D03*
X962154D03*
X934354Y729257D03*
X962154D03*
X934354Y731757D03*
X962154D03*
X934354Y734257D03*
X962154D03*
X934354Y736757D03*
X962154D03*
X934354Y739257D03*
X962154D03*
X934354Y741757D03*
X962154D03*
G54D186*
X68299Y393748D03*
Y404772D03*
X188402Y161302D03*
Y150278D03*
X208202Y161302D03*
Y150278D03*
X146126Y374929D03*
Y385953D03*
X800616Y412053D03*
Y401029D03*
G54D187*
X938605Y423679D03*
X936636D03*
X934668D03*
X932699D03*
X930731D03*
X928762D03*
X926794D03*
X924825D03*
X922857D03*
X920888D03*
X918920D03*
X916951D03*
X914983D03*
X913014D03*
X911046D03*
X909077D03*
X907108D03*
X905140D03*
X903171D03*
X901203D03*
X899234D03*
X897266D03*
X895297D03*
X893329D03*
X891360D03*
X889392D03*
X887423D03*
X885455D03*
X883486D03*
X881518D03*
X879549D03*
X877581D03*
X875612D03*
X873644D03*
X871675D03*
X869707D03*
Y339427D03*
X871675D03*
X873644D03*
X875612D03*
X877581D03*
X879549D03*
X881518D03*
X883486D03*
X885455D03*
X887423D03*
X889392D03*
X891360D03*
X893329D03*
X895297D03*
X897266D03*
X899234D03*
X901203D03*
X903171D03*
X905140D03*
X907108D03*
X909077D03*
X911046D03*
X913014D03*
X914983D03*
X916951D03*
X918920D03*
X920888D03*
X922857D03*
X924825D03*
X926794D03*
X928762D03*
X930731D03*
X932699D03*
X934668D03*
X936636D03*
X938605D03*
G54D188*
X862030Y416002D03*
Y414034D03*
Y412065D03*
Y410097D03*
Y408128D03*
Y406160D03*
Y404191D03*
Y402223D03*
Y400254D03*
Y398286D03*
Y396317D03*
Y394349D03*
Y392380D03*
Y390412D03*
Y388443D03*
Y386475D03*
Y384506D03*
Y382538D03*
Y380569D03*
Y378601D03*
Y376632D03*
Y374664D03*
Y372695D03*
Y370727D03*
Y368758D03*
Y366790D03*
Y364821D03*
Y362853D03*
Y360884D03*
Y358916D03*
Y356947D03*
Y354979D03*
Y353010D03*
Y351042D03*
Y349073D03*
Y347105D03*
X946282D03*
Y349073D03*
Y351042D03*
Y353010D03*
Y354979D03*
Y356947D03*
Y358916D03*
Y360884D03*
Y362853D03*
Y364821D03*
Y366790D03*
Y368758D03*
Y370727D03*
Y372695D03*
Y374664D03*
Y376632D03*
Y378601D03*
Y380569D03*
Y382538D03*
Y384506D03*
Y386475D03*
Y388443D03*
Y390412D03*
Y392380D03*
Y394349D03*
Y396317D03*
Y398286D03*
Y400254D03*
Y402223D03*
Y404191D03*
Y406160D03*
Y408128D03*
Y410097D03*
Y412065D03*
Y414034D03*
Y416002D03*
G54D189*
X266914Y939004D03*
X265339D03*
X263765D03*
X262190D03*
X260615D03*
X259040D03*
X257465D03*
X255891D03*
Y915776D03*
X257465D03*
X259040D03*
X260615D03*
X262190D03*
X263765D03*
X265339D03*
X266914D03*
X226914Y939004D03*
X225339D03*
X223765D03*
X222190D03*
X220615D03*
X219040D03*
X217465D03*
X215891D03*
Y915776D03*
X217465D03*
X219040D03*
X220615D03*
X222190D03*
X223765D03*
X225339D03*
X226914D03*
X433531Y893973D03*
X435106D03*
X436680D03*
X438255D03*
X439830D03*
X441405D03*
X442980D03*
X444554D03*
Y917202D03*
X442980D03*
X441405D03*
X439830D03*
X438255D03*
X436680D03*
X435106D03*
X433531D03*
X368914Y939004D03*
X367339D03*
X365765D03*
X364190D03*
X362615D03*
X361040D03*
X359465D03*
X357891D03*
Y915776D03*
X359465D03*
X361040D03*
X362615D03*
X364190D03*
X365765D03*
X367339D03*
X368914D03*
X410914Y939004D03*
X409339D03*
X407765D03*
X406190D03*
X404615D03*
X403040D03*
X401465D03*
X399891D03*
Y915776D03*
X401465D03*
X403040D03*
X404615D03*
X406190D03*
X407765D03*
X409339D03*
X410914D03*
G54D190*
X152017Y262090D03*
X141387D03*
X250813Y91580D03*
X240183D03*
X88717Y261890D03*
X78087D03*
X127780Y441683D03*
X117150D03*
X250813Y115202D03*
X240183D03*
X250813Y103391D03*
X240183D03*
G54D191*
X153362Y211362D03*
X160843D03*
X157102Y220417D03*
X153362Y243362D03*
X160843D03*
X157102Y252417D03*
X48843Y568417D03*
X41362D03*
X45102Y559362D03*
X153362Y227362D03*
X160843D03*
X157102Y236417D03*
G54D192*
X969332Y975472D03*
X964332Y985472D03*
X959332Y975472D03*
X954332Y985472D03*
X949332Y975472D03*
X944332Y985472D03*
X939332Y975472D03*
X934332Y985472D03*
X929332Y975472D03*
X924332Y985472D03*
X972932Y1026472D03*
X962932D03*
X930732D03*
X920732D03*
X1104650Y501482D03*
X1106407Y434978D03*
X1051403Y340006D03*
X852191Y419139D03*
X1068726Y337643D03*
X1023844Y381738D03*
X1029356Y371108D03*
X880537Y435281D03*
G54D193*
X889631Y285970D03*
X879631D03*
X869631D03*
X859631D03*
Y260970D03*
X869631D03*
X879631D03*
X889631D03*
X935301Y285970D03*
X925301D03*
X915301D03*
X905301D03*
Y260970D03*
X915301D03*
X925301D03*
X935301D03*
G54D194*
X76835Y720945D03*
Y702835D03*
G54D195*
X103213Y711890D03*
G54D196*
X499828Y833706D03*
X475419D03*
X602191D03*
X577781D03*
X549041D03*
X524631D03*
X72513Y646451D03*
X48103D03*
X223450Y168352D03*
X247860D03*
X87307Y573490D03*
X62898D03*
X118006Y639590D03*
X93596D03*
G54D197*
X141102Y130819D03*
Y96961D03*
X59102Y130819D03*
Y96961D03*
X87465Y453213D03*
Y419354D03*
G54D198*
X138031Y231890D03*
X104173D03*
X82031D03*
X48173D03*
G54D199*
X138283Y972567D03*
X140252D03*
X142220D03*
Y983591D03*
X140252D03*
X138283D03*
X968198Y165313D03*
X970167D03*
X972135D03*
Y176336D03*
X970167D03*
X968198D03*
X1015198Y165313D03*
X1017167D03*
X1019135D03*
Y176336D03*
X1017167D03*
X1015198D03*
G54D200*
X145764Y976110D03*
Y978079D03*
Y980047D03*
X134740D03*
Y978079D03*
Y976110D03*
X964655Y172793D03*
Y170824D03*
Y168856D03*
X975679D03*
Y170824D03*
Y172793D03*
X1011655D03*
Y170824D03*
Y168856D03*
X1022679D03*
Y170824D03*
Y172793D03*
G54D201*
X1185197Y169567D03*
Y162087D03*
X1194252Y165827D03*
X164370Y688780D03*
Y681299D03*
X173425Y685039D03*
X211614Y688780D03*
Y681299D03*
X220669Y685039D03*
X258858Y688780D03*
Y681299D03*
X267913Y685039D03*
G54D202*
X1187362Y150669D03*
Y143189D03*
X1195236Y146929D03*
X1194055Y231378D03*
Y223898D03*
X1201929Y227638D03*
G54D203*
X214002Y833706D03*
Y829769D03*
Y825832D03*
Y821895D03*
Y817958D03*
Y814021D03*
Y810084D03*
Y806147D03*
Y802210D03*
Y798273D03*
Y794336D03*
Y790399D03*
Y786462D03*
Y782525D03*
Y778588D03*
Y774651D03*
X210065Y833706D03*
Y829769D03*
Y825832D03*
Y821895D03*
Y817958D03*
Y814021D03*
Y810084D03*
Y806147D03*
Y802210D03*
Y798273D03*
Y794336D03*
Y790399D03*
Y786462D03*
Y782525D03*
Y778588D03*
Y774651D03*
X206128Y833706D03*
Y829769D03*
Y825832D03*
Y821895D03*
Y817958D03*
Y814021D03*
Y810084D03*
Y806147D03*
Y802210D03*
Y798273D03*
Y794336D03*
Y790399D03*
Y786462D03*
Y782525D03*
Y778588D03*
Y774651D03*
X202191Y833706D03*
Y829769D03*
Y825832D03*
Y821895D03*
Y817958D03*
Y814021D03*
Y810084D03*
Y806147D03*
Y802210D03*
Y798273D03*
Y794336D03*
Y790399D03*
Y786462D03*
Y782525D03*
Y778588D03*
Y774651D03*
X198254Y833706D03*
Y829769D03*
Y825832D03*
Y821895D03*
Y817958D03*
Y814021D03*
Y810084D03*
Y806147D03*
Y802210D03*
Y798273D03*
Y794336D03*
Y790399D03*
Y786462D03*
Y782525D03*
Y778588D03*
Y774651D03*
X194317Y833706D03*
Y829769D03*
Y825832D03*
Y821895D03*
Y817958D03*
Y814021D03*
Y810084D03*
Y806147D03*
Y802210D03*
Y798273D03*
Y794336D03*
Y790399D03*
Y786462D03*
Y782525D03*
Y778588D03*
Y774651D03*
X190380Y833706D03*
Y829769D03*
Y825832D03*
Y821895D03*
Y817958D03*
Y814021D03*
Y810084D03*
Y806147D03*
Y802210D03*
Y798273D03*
Y794336D03*
Y790399D03*
Y786462D03*
Y782525D03*
Y778588D03*
Y774651D03*
X186443Y833706D03*
Y829769D03*
Y825832D03*
Y821895D03*
Y817958D03*
Y814021D03*
Y810084D03*
Y806147D03*
Y802210D03*
Y798273D03*
Y794336D03*
Y790399D03*
Y786462D03*
Y782525D03*
Y778588D03*
Y774651D03*
X182506Y833706D03*
Y829769D03*
Y825832D03*
Y821895D03*
Y817958D03*
Y814021D03*
Y810084D03*
Y806147D03*
Y802210D03*
Y798273D03*
Y794336D03*
Y790399D03*
Y786462D03*
Y782525D03*
Y778588D03*
Y774651D03*
X178569Y833706D03*
Y829769D03*
Y825832D03*
Y821895D03*
Y817958D03*
Y814021D03*
Y810084D03*
Y806147D03*
Y802210D03*
Y798273D03*
Y794336D03*
Y790399D03*
Y786462D03*
Y782525D03*
Y778588D03*
Y774651D03*
X174631Y833706D03*
Y829769D03*
Y825832D03*
Y821895D03*
Y817958D03*
Y814021D03*
Y810084D03*
Y806147D03*
Y802210D03*
Y798273D03*
Y794336D03*
Y790399D03*
Y786462D03*
Y782525D03*
Y778588D03*
Y774651D03*
X170694Y833706D03*
Y829769D03*
Y825832D03*
Y821895D03*
Y817958D03*
Y814021D03*
Y810084D03*
Y806147D03*
Y802210D03*
Y798273D03*
Y794336D03*
Y790399D03*
Y786462D03*
Y782525D03*
Y778588D03*
Y774651D03*
X166757Y833706D03*
Y829769D03*
Y825832D03*
Y821895D03*
Y817958D03*
Y814021D03*
Y810084D03*
Y806147D03*
Y802210D03*
Y798273D03*
Y794336D03*
Y790399D03*
Y786462D03*
Y782525D03*
Y778588D03*
Y774651D03*
X162820Y833706D03*
Y829769D03*
Y825832D03*
Y821895D03*
Y817958D03*
Y814021D03*
Y810084D03*
Y806147D03*
Y802210D03*
Y798273D03*
Y794336D03*
Y790399D03*
Y786462D03*
Y782525D03*
Y778588D03*
Y774651D03*
X158883Y833706D03*
Y829769D03*
Y825832D03*
Y821895D03*
Y817958D03*
Y814021D03*
Y810084D03*
Y806147D03*
Y802210D03*
Y798273D03*
Y794336D03*
Y790399D03*
Y786462D03*
Y782525D03*
Y778588D03*
Y774651D03*
X154946Y833706D03*
Y829769D03*
Y825832D03*
Y821895D03*
Y817958D03*
Y814021D03*
Y810084D03*
Y806147D03*
Y802210D03*
Y798273D03*
Y794336D03*
Y790399D03*
Y786462D03*
Y782525D03*
Y778588D03*
Y774651D03*
X745498Y514809D03*
X749435D03*
X753372D03*
X757309D03*
X761246D03*
X765183D03*
X769120D03*
X773057D03*
X776994D03*
X780931D03*
X784868D03*
X745498Y510872D03*
X749435D03*
X753372D03*
X757309D03*
X761246D03*
X765183D03*
X769120D03*
X773057D03*
X776994D03*
X780931D03*
X784868D03*
X745498Y506935D03*
X749435D03*
X753372D03*
X757309D03*
X761246D03*
X765183D03*
X769120D03*
X773057D03*
X776994D03*
X780931D03*
X784868D03*
X745498Y502998D03*
X749435D03*
X753372D03*
X757309D03*
X761246D03*
X765183D03*
X769120D03*
X773057D03*
X776994D03*
X780931D03*
X784868D03*
X745498Y499061D03*
X749435D03*
X753372D03*
X757309D03*
X761246D03*
X765183D03*
X769120D03*
X773057D03*
X776994D03*
X780931D03*
X784868D03*
X745498Y495124D03*
X749435D03*
X753372D03*
X757309D03*
X761246D03*
X765183D03*
X769120D03*
X773057D03*
X776994D03*
X780931D03*
X784868D03*
X745498Y491187D03*
X749435D03*
X753372D03*
X757309D03*
X761246D03*
X765183D03*
X769120D03*
X773057D03*
X776994D03*
X780931D03*
X784868D03*
X745498Y487250D03*
X749435D03*
X753372D03*
X757309D03*
X761246D03*
X765183D03*
X769120D03*
X773057D03*
X776994D03*
X780931D03*
X784868D03*
X745498Y483313D03*
X749435D03*
X753372D03*
X757309D03*
X761246D03*
X765183D03*
X769120D03*
X773057D03*
X776994D03*
X780931D03*
X784868D03*
X745498Y479376D03*
X749435D03*
X753372D03*
X757309D03*
X761246D03*
X765183D03*
X769120D03*
X773057D03*
X776994D03*
X780931D03*
X784868D03*
X745498Y475439D03*
X749435D03*
X753372D03*
X757309D03*
X761246D03*
X765183D03*
X769120D03*
X773057D03*
X776994D03*
X780931D03*
X784868D03*
X745498Y471502D03*
X749435D03*
X753372D03*
X757309D03*
X761246D03*
X765183D03*
X769120D03*
X773057D03*
X776994D03*
X780931D03*
X784868D03*
X745498Y467565D03*
X749435D03*
X753372D03*
X757309D03*
X761246D03*
X765183D03*
X769120D03*
X773057D03*
X776994D03*
X780931D03*
X784868D03*
X745498Y463628D03*
X749435D03*
X753372D03*
X757309D03*
X761246D03*
X765183D03*
X769120D03*
X773057D03*
X776994D03*
X780931D03*
X784868D03*
X745498Y459691D03*
X749435D03*
X753372D03*
X757309D03*
X761246D03*
X765183D03*
X769120D03*
X773057D03*
X776994D03*
X780931D03*
X784868D03*
X745498Y693943D03*
X749435D03*
X753372D03*
X757309D03*
X761246D03*
X765183D03*
X769120D03*
X773057D03*
X776994D03*
X780931D03*
X784868D03*
X745498Y690006D03*
X749435D03*
X753372D03*
X757309D03*
X761246D03*
X765183D03*
X769120D03*
X773057D03*
X776994D03*
X780931D03*
X784868D03*
X745498Y686069D03*
X749435D03*
X753372D03*
X757309D03*
X761246D03*
X765183D03*
X769120D03*
X773057D03*
X776994D03*
X780931D03*
X784868D03*
X745498Y682131D03*
X749435D03*
X753372D03*
X757309D03*
X761246D03*
X765183D03*
X769120D03*
X773057D03*
X776994D03*
X780931D03*
X784868D03*
X745498Y678194D03*
X749435D03*
X753372D03*
X757309D03*
X761246D03*
X765183D03*
X769120D03*
X773057D03*
X776994D03*
X780931D03*
X784868D03*
X745498Y674257D03*
X749435D03*
X753372D03*
X757309D03*
X761246D03*
X765183D03*
X769120D03*
X773057D03*
X776994D03*
X780931D03*
X784868D03*
X745498Y670320D03*
X749435D03*
X753372D03*
X757309D03*
X761246D03*
X765183D03*
X769120D03*
X773057D03*
X776994D03*
X780931D03*
X784868D03*
X745498Y666383D03*
X749435D03*
X753372D03*
X757309D03*
X761246D03*
X765183D03*
X769120D03*
X773057D03*
X776994D03*
X780931D03*
X784868D03*
X745498Y662446D03*
X749435D03*
X753372D03*
X757309D03*
X761246D03*
X765183D03*
X769120D03*
X773057D03*
X776994D03*
X780931D03*
X784868D03*
X745498Y658509D03*
X749435D03*
X753372D03*
X757309D03*
X761246D03*
X765183D03*
X769120D03*
X773057D03*
X776994D03*
X780931D03*
X784868D03*
X745498Y654572D03*
X749435D03*
X753372D03*
X757309D03*
X761246D03*
X765183D03*
X769120D03*
X773057D03*
X776994D03*
X780931D03*
X784868D03*
X745498Y650635D03*
X749435D03*
X753372D03*
X757309D03*
X761246D03*
X765183D03*
X769120D03*
X773057D03*
X776994D03*
X780931D03*
X784868D03*
X745498Y646698D03*
X749435D03*
X753372D03*
X757309D03*
X761246D03*
X765183D03*
X769120D03*
X773057D03*
X776994D03*
X780931D03*
X784868D03*
X745498Y642761D03*
X749435D03*
X753372D03*
X757309D03*
X761246D03*
X765183D03*
X769120D03*
X773057D03*
X776994D03*
X780931D03*
X784868D03*
X745498Y638824D03*
X749435D03*
X753372D03*
X757309D03*
X761246D03*
X765183D03*
X769120D03*
X773057D03*
X776994D03*
X780931D03*
X784868D03*
G54D204*
X191976Y887984D03*
Y909638D03*
X178591D03*
Y887984D03*
G54D205*
X76777Y595127D03*
Y588040D03*
X465970Y869533D03*
Y876620D03*
X568332Y869533D03*
Y876620D03*
X517151Y869533D03*
Y876620D03*
G54D206*
X1182567Y616931D03*
Y624017D03*
X847860Y452210D03*
Y459297D03*
X855734Y768352D03*
Y761265D03*
X544710Y414809D03*
Y421895D03*
X633293Y721895D03*
Y728982D03*
X497466Y414809D03*
Y421895D03*
X509277Y721895D03*
Y728982D03*
X694317Y721895D03*
Y728982D03*
X686443Y414809D03*
Y421895D03*
X717939Y414809D03*
Y421895D03*
X473844D03*
Y414809D03*
X521088Y421895D03*
Y414809D03*
X487624Y721895D03*
Y728982D03*
X719907Y721895D03*
Y728982D03*
X609671Y721895D03*
Y728982D03*
X654946Y414809D03*
Y421895D03*
X568332D03*
Y414809D03*
X591954Y421895D03*
Y414809D03*
X623450D03*
Y421895D03*
X662820Y721895D03*
Y728982D03*
X525025Y721895D03*
Y728982D03*
G54D207*
X195103Y478261D03*
X202189D03*
X706521Y465596D03*
X713608D03*
X371876Y589612D03*
X378962D03*
X371876Y613234D03*
X378962D03*
X371876Y565990D03*
X378962D03*
X371876Y489218D03*
X378962D03*
X371876Y438037D03*
X378962D03*
X706521Y481344D03*
X713608D03*
X371876Y542368D03*
X378962D03*
X371876Y465596D03*
X378962D03*
X371876Y414415D03*
X378962D03*
X706521Y449848D03*
X713608D03*
X371876Y516777D03*
X378962D03*
X371876Y390793D03*
X378962D03*
G54D208*
X1011351Y879360D03*
X1005051D03*
X1025717Y866724D03*
X1019417D03*
G54D209*
X387230Y661659D03*
Y655360D03*
Y716777D03*
Y710478D03*
G54D210*
X485102Y932331D03*
Y929772D03*
Y927213D03*
X496126D03*
Y929772D03*
Y932331D03*
Y934890D03*
X486102Y956831D03*
Y954272D03*
Y951713D03*
X497126D03*
Y954272D03*
Y956831D03*
Y959390D03*
X486602Y1005831D03*
Y1003272D03*
Y1000713D03*
X497626D03*
Y1003272D03*
Y1005831D03*
Y1008390D03*
X486602Y981331D03*
Y978772D03*
Y976213D03*
X497626D03*
Y978772D03*
Y981331D03*
Y983890D03*
X218110Y719094D03*
Y721654D03*
X208268D03*
Y716535D03*
X170866Y719094D03*
Y721654D03*
X161024D03*
Y716535D03*
X170866Y707283D03*
Y709843D03*
X161024D03*
Y704724D03*
X265354Y707283D03*
Y709843D03*
X255512D03*
Y704724D03*
X288976Y775394D03*
Y777953D03*
X279134D03*
Y772835D03*
X288976Y766339D03*
Y768898D03*
X279134D03*
Y763780D03*
X265354Y719094D03*
Y721654D03*
X255512D03*
Y716535D03*
G54D211*
X53627Y892761D03*
X71227D03*
X53627Y882761D03*
X71227D03*
X53627Y872761D03*
X71227D03*
X53627Y862761D03*
X71227D03*
X53627Y852761D03*
X71227D03*
X53627Y842761D03*
X71227D03*
X53627Y832761D03*
X71227D03*
X53627Y822761D03*
X71227D03*
X53627Y812761D03*
X71227D03*
X53627Y802761D03*
X71227D03*
X53627Y943943D03*
X71227D03*
X53627Y933943D03*
X71227D03*
X53627Y923943D03*
X71227D03*
X53627Y913943D03*
X71227D03*
X53627Y1026620D03*
X71227D03*
X53627Y1016620D03*
X71227D03*
X53627Y1006620D03*
X71227D03*
X53627Y996620D03*
X71227D03*
X53627Y986620D03*
X71227D03*
X53627Y976620D03*
X71227D03*
X53627Y966620D03*
X71227D03*
G54D212*
X126724Y1005972D03*
Y1023572D03*
X136724Y1005972D03*
Y1023572D03*
X146724Y1005972D03*
Y1023572D03*
X156724Y1005972D03*
Y1023572D03*
X166724Y1005972D03*
Y1023572D03*
G54D213*
X53627Y780557D03*
X71227D03*
X53627Y770557D03*
X71227D03*
X53627Y760557D03*
X71227D03*
X53627Y750557D03*
X71227D03*
X53627Y740557D03*
X71227D03*
G54D214*
X994488Y972638D03*
Y984843D03*
G54D215*
X337402Y967890D03*
Y994890D03*
X347402Y967890D03*
Y994890D03*
X357402Y967890D03*
Y994890D03*
X367402Y967890D03*
Y994890D03*
X377402Y967890D03*
Y994890D03*
X387402Y967890D03*
Y994890D03*
X397402Y967890D03*
Y994890D03*
X407402Y967890D03*
Y994890D03*
X417402Y967890D03*
Y994890D03*
X427402Y967890D03*
Y994890D03*
X195402Y967890D03*
Y994890D03*
X205402Y967890D03*
Y994890D03*
X215402Y967890D03*
Y994890D03*
X225402Y967890D03*
Y994890D03*
X235402Y967890D03*
Y994890D03*
X245402Y967890D03*
Y994890D03*
X255402Y967890D03*
Y994890D03*
X265402Y967890D03*
Y994890D03*
X275402Y967890D03*
Y994890D03*
X285402Y967890D03*
Y994890D03*
X298819Y795555D03*
Y822555D03*
X308819Y795555D03*
Y822555D03*
X318819Y795555D03*
Y822555D03*
X328819Y795555D03*
Y822555D03*
X338819Y795555D03*
Y822555D03*
X348819Y795555D03*
Y822555D03*
X358819Y795555D03*
Y822555D03*
X368819Y795555D03*
Y822555D03*
X378819Y795555D03*
Y822555D03*
X388819Y795555D03*
Y822555D03*
G54D216*
X993814Y145703D03*
G54D217*
X1000507D03*
Y155546D03*
X993027D03*
G54D218*
X1003459Y193548D03*
Y203548D03*
X981806Y193548D03*
Y203548D03*
G54D219*
X451994Y698864D03*
Y700832D03*
Y702801D03*
Y704769D03*
X440576D03*
Y702801D03*
Y700832D03*
Y698864D03*
X451994Y643746D03*
Y645714D03*
Y647683D03*
Y649651D03*
X440576D03*
Y647683D03*
Y645714D03*
Y643746D03*
G54D220*
X449238Y707525D03*
X447269D03*
X445301D03*
X443332D03*
Y696108D03*
X445301D03*
X447269D03*
X449238D03*
Y652407D03*
X447269D03*
X445301D03*
X443332D03*
Y640990D03*
X445301D03*
X447269D03*
X449238D03*
G54D221*
X51333Y398317D03*
Y427057D03*
G54D222*
X1075924Y187450D03*
X1085766D03*
X1090688D03*
X1095609D03*
X1099467D03*
X1105451D03*
X1110373D03*
X1115333D03*
X1125176D03*
X1130097D03*
X1135018D03*
X1139940D03*
X1144546D03*
X1151436D03*
G54D223*
X1159113D03*
G54D224*
X1050255Y107726D03*
X1165609D03*
G54D225*
X1180440Y911667D03*
X1178471D03*
X1176503D03*
Y907730D03*
X1178471D03*
X1180440D03*
X1167402Y911667D03*
X1165433D03*
X1163465D03*
Y907730D03*
X1165433D03*
X1167402D03*
X1153823Y911667D03*
X1151854D03*
X1149886D03*
Y907730D03*
X1151854D03*
X1153823D03*
G54D226*
X869513Y823771D03*
Y804271D03*
X859513Y823771D03*
Y804271D03*
X849513Y823771D03*
Y804271D03*
X839513Y823771D03*
Y804271D03*
X829513Y823771D03*
Y804271D03*
X819513Y823771D03*
Y804271D03*
X809513Y823771D03*
Y804271D03*
X799513Y823771D03*
Y804271D03*
G54D227*
X149435Y909277D03*
Y914277D03*
Y919277D03*
Y924277D03*
X121088D03*
Y919277D03*
Y914277D03*
Y909277D03*
G54D228*
X1050859Y486799D03*
X1057945D03*
G54D231*
X303346Y775197D03*
Y773622D03*
Y772047D03*
Y770472D03*
Y768898D03*
Y767323D03*
Y765748D03*
Y764173D03*
X326575D03*
Y765748D03*
Y767323D03*
Y768898D03*
Y770472D03*
Y772047D03*
Y773622D03*
Y775197D03*
X345472D03*
Y773622D03*
Y772047D03*
Y770472D03*
Y768898D03*
Y767323D03*
Y765748D03*
Y764173D03*
X368701D03*
Y765748D03*
Y767323D03*
Y768898D03*
Y770472D03*
Y772047D03*
Y773622D03*
Y775197D03*
G54D232*
X1221614Y487874D03*
Y470551D03*
X1222795Y596535D03*
Y579213D03*
X203150Y218110D03*
Y235433D03*
X162992Y370079D03*
Y387402D03*
X202502Y173828D03*
Y191151D03*
G54D233*
X66535Y376772D03*
X49213D03*
X109341Y579390D03*
X126664D03*
G54D260*
X1218071Y867244D03*
X1208071Y877244D03*
Y867244D03*
X1198071Y877244D03*
Y867244D03*
X1188071Y877244D03*
Y867244D03*
X1178071Y877244D03*
Y867244D03*
G54D311*
X1218071Y877244D03*
G54D332*
X45102Y471890D03*
X107602Y484390D03*
Y496890D03*
Y534390D03*
Y546890D03*
X95102D03*
X82602D03*
X70102D03*
X57602D03*
X45102D03*
Y484390D03*
X111102Y277890D03*
X123602D03*
X161102D03*
Y290390D03*
Y327890D03*
Y352890D03*
X148602D03*
X136102D03*
X123602D03*
X111102D03*
Y290390D03*
X43102Y277890D03*
X63102D03*
X93102D03*
Y327890D03*
Y340390D03*
X83102D03*
X73102D03*
X63102D03*
X53102D03*
X43102D03*
Y199890D03*
Y149890D03*
X55602D03*
X80602D03*
X93102D03*
X105602D03*
X118102D03*
X143102D03*
X155602D03*
X168102D03*
Y162390D03*
Y174890D03*
Y187390D03*
Y199890D03*
G54D333*
X666500Y92200D03*
X674492D03*
X686500D03*
X694492D03*
X706500D03*
X714492D03*
X726500D03*
X734492D03*
X746500D03*
X754492D03*
X766500D03*
X774492D03*
X786500D03*
X794492D03*
X806500D03*
X814492D03*
X826500D03*
X834492D03*
X846500D03*
X854492D03*
X670476Y99090D03*
X680476D03*
X690476D03*
X700476D03*
X710476D03*
X720476D03*
X730476D03*
X740476D03*
X750476D03*
X760476D03*
X770476D03*
X780476D03*
X790476D03*
X800476D03*
X810476D03*
X820476D03*
X830476D03*
X840476D03*
X850476D03*
X860476D03*
X676500Y105980D03*
X684492D03*
X696500D03*
X704492D03*
X716500D03*
X724492D03*
X736500D03*
X744492D03*
X756500D03*
X764492D03*
X776500D03*
X784492D03*
X796500D03*
X804492D03*
X816500D03*
X824492D03*
X836500D03*
X844492D03*
X856500D03*
X864492D03*
X666500Y115822D03*
X674492D03*
X670476Y122712D03*
X676500Y129602D03*
X684492D03*
X686500Y115822D03*
X694492D03*
X706500D03*
X714492D03*
X726500D03*
X734492D03*
X746500D03*
X754492D03*
X766500D03*
X774492D03*
X786500D03*
X794492D03*
X806500D03*
X814492D03*
X826500D03*
X834492D03*
X846500D03*
X854492D03*
X696500Y129602D03*
X704492D03*
X716500D03*
X724492D03*
X736500D03*
X744492D03*
X756500D03*
X764492D03*
X776500D03*
X784492D03*
X796500D03*
X804492D03*
X816500D03*
X824492D03*
X836500D03*
X844492D03*
X856500D03*
X864492D03*
X680476Y122712D03*
X690476D03*
X700476D03*
X710476D03*
X720476D03*
X730476D03*
X740476D03*
X750476D03*
X760476D03*
X770476D03*
X780476D03*
X790476D03*
X800476D03*
X810476D03*
X820476D03*
X830476D03*
X840476D03*
X850476D03*
X860476D03*
X910791Y104838D03*
X898587D03*
X886382D03*
X910791Y112712D03*
Y120586D03*
Y128460D03*
X898587Y112712D03*
Y120586D03*
Y128460D03*
X886382Y112712D03*
Y120586D03*
Y128460D03*
X650555Y104838D03*
X638350D03*
X626146D03*
X650555Y112712D03*
Y120586D03*
Y128460D03*
X638350Y112712D03*
Y120586D03*
Y128460D03*
X626146Y112712D03*
Y120586D03*
Y128460D03*
X314000Y92200D03*
X321992D03*
X334000D03*
X341992D03*
X354000D03*
X361992D03*
X374000D03*
X381992D03*
X394000D03*
X401992D03*
X414000D03*
X421992D03*
X434000D03*
X441992D03*
X454000D03*
X461992D03*
X474000D03*
X481992D03*
X494000D03*
X501992D03*
X317976Y99090D03*
X327976D03*
X337976D03*
X347976D03*
X357976D03*
X367976D03*
X377976D03*
X387976D03*
X397976D03*
X407976D03*
X417976D03*
X427976D03*
X437976D03*
X447976D03*
X457976D03*
X467976D03*
X477976D03*
X487976D03*
X497976D03*
X507976D03*
X324000Y105980D03*
X331992D03*
X344000D03*
X351992D03*
X364000D03*
X371992D03*
X384000D03*
X391992D03*
X404000D03*
X411992D03*
X424000D03*
X431992D03*
X444000D03*
X451992D03*
X464000D03*
X471992D03*
X484000D03*
X491992D03*
X504000D03*
X511992D03*
X314000Y115822D03*
X321992D03*
X317976Y122712D03*
X324000Y129602D03*
X331992D03*
X334000Y115822D03*
X341992D03*
X354000D03*
X361992D03*
X374000D03*
X381992D03*
X394000D03*
X401992D03*
X414000D03*
X421992D03*
X434000D03*
X441992D03*
X454000D03*
X461992D03*
X474000D03*
X481992D03*
X494000D03*
X501992D03*
X344000Y129602D03*
X351992D03*
X364000D03*
X371992D03*
X384000D03*
X391992D03*
X404000D03*
X411992D03*
X424000D03*
X431992D03*
X444000D03*
X451992D03*
X464000D03*
X471992D03*
X484000D03*
X491992D03*
X504000D03*
X511992D03*
X327976Y122712D03*
X337976D03*
X347976D03*
X357976D03*
X367976D03*
X377976D03*
X387976D03*
X397976D03*
X407976D03*
X417976D03*
X427976D03*
X437976D03*
X447976D03*
X457976D03*
X467976D03*
X477976D03*
X487976D03*
X497976D03*
X507976D03*
X558291Y104838D03*
X546087D03*
X533882D03*
X558291Y112712D03*
Y120586D03*
Y128460D03*
X546087Y112712D03*
Y120586D03*
Y128460D03*
X533882Y112712D03*
Y120586D03*
Y128460D03*
X298055Y104838D03*
X285850D03*
X273646D03*
X298055Y112712D03*
Y120586D03*
Y128460D03*
X285850Y112712D03*
Y120586D03*
Y128460D03*
X273646Y112712D03*
Y120586D03*
Y128460D03*
G54D334*
X1000070Y1014606D02*
Y1011063D01*
X1021329Y1014606D02*
Y1011063D01*
G54D335*
X1154320Y456126D02*
X1156880D01*
X289180Y488033D02*
X286620D01*
G54D336*
X1128631Y720614D03*
Y220693D03*
X314869Y223545D03*
Y723466D03*
G54D337*
X948254Y699257D03*
Y709257D03*
Y719257D03*
Y729257D03*
Y739257D03*
G54D347*
X593366Y172992D02*
X618366D01*
G54D348*
X1057735Y183513D03*
X1002432Y1005276D03*
X1007944D03*
X1013455D03*
X1018967D03*
G54D349*
X1161672Y86663D02*
Y89419D01*
X489986Y664415D03*
X493923D03*
X486167D03*
X497742D03*
X503765Y671502D03*
X499828D03*
X507584D03*
X496009D03*
X513608Y664415D03*
X517545D03*
X509789D03*
X521364D03*
X544710Y671502D03*
X540773D03*
X548529D03*
X536954D03*
X554553Y664415D03*
X558490D03*
X550734D03*
X562309D03*
X568332Y671502D03*
X564395D03*
X572151D03*
X560576D03*
X578175Y664415D03*
X582112D03*
X574356D03*
X585931D03*
X591954Y671502D03*
X588017D03*
X595773D03*
X584198D03*
X601797Y664415D03*
X605734D03*
X597978D03*
X609553D03*
X615576Y671502D03*
X611639D03*
X619395D03*
X607820D03*
X625419Y664415D03*
X629356D03*
X621600D03*
X633175D03*
X639198Y671502D03*
X635261D03*
X643017D03*
X631443D03*
X649041Y664415D03*
X652978D03*
X645222D03*
X656797D03*
X673057Y671895D03*
X669120D03*
X676876D03*
X665301D03*
X686443Y664809D03*
X690380D03*
X682624D03*
X694198D03*
X701797Y672289D03*
X697860D03*
X705616D03*
X694041D03*
X709409Y972913D03*
X713346D03*
X705591D03*
X717165D03*
X718726Y963234D03*
X714789D03*
X722545D03*
X710970D03*
X726206Y972683D03*
X730143D03*
X722387D03*
X733962D03*
X735394Y963071D03*
X731457D03*
X739213D03*
X727638D03*
X768465Y972913D03*
X772402D03*
X764646D03*
X776220D03*
X777781Y963234D03*
X773844D03*
X781600D03*
X770025D03*
X785261Y972683D03*
X789198D03*
X781443D03*
X793017D03*
X794449Y963071D03*
X790512D03*
X798268D03*
X786693D03*
X656521Y973076D03*
X660458D03*
X652702D03*
X664277D03*
X665576Y963234D03*
X661639D03*
X669395D03*
X657820D03*
X673057Y973076D03*
X676994D03*
X669238D03*
X680813D03*
X682638Y963465D03*
X678701D03*
X686457D03*
X674882D03*
X822008Y972913D03*
X825945D03*
X818189D03*
X829764D03*
X830931Y963234D03*
X826994D03*
X834750D03*
X823175D03*
X838411Y972683D03*
X842348D03*
X834592D03*
X846167D03*
X847598Y963071D03*
X843661D03*
X851417D03*
X839843D03*
G54D350*
X695891Y529218D03*
X495891Y607171D03*
G54D351*
X1013849Y1035276D02*
X1007550D01*
G54D374*
X1097398Y874524D02*
Y877476D01*
X1109602Y874524D02*
Y877476D01*
X359976Y844898D02*
X357024D01*
X359976Y857102D02*
X357024D01*
G54D377*
X977332Y998472D03*
X916332D03*
G54D378*
X512866Y224812D03*
X670858D03*
G54D379*
X1151840Y714157D03*
X1144340Y710063D03*
X1151840Y706283D03*
X1144340Y702189D03*
X1151840Y698409D03*
X1144340Y694315D03*
X1151840Y690535D03*
X1144340Y686441D03*
X1151840Y682661D03*
X1144340Y678567D03*
X1151840Y674787D03*
X1144340Y670693D03*
X1151840Y666913D03*
X1144340Y662819D03*
X1151840Y659039D03*
X1144340Y654945D03*
X1151840Y651165D03*
X1144340Y647071D03*
X1151840Y643291D03*
X1144340Y639197D03*
X1151840Y635417D03*
X1144340Y631323D03*
X1151840Y627543D03*
X1144340Y623449D03*
X1151840Y619669D03*
X1144340Y615575D03*
X1151840Y611795D03*
X1144340Y607701D03*
X1151840Y603921D03*
X1144340Y599827D03*
X1151840Y596047D03*
X1144340Y591953D03*
X1151840Y588173D03*
X1144340Y584079D03*
X1151840Y580299D03*
X1144340Y576205D03*
X1151840Y572425D03*
X1144340Y568331D03*
X1151840Y564551D03*
X1144340Y560457D03*
X1151840Y556677D03*
X1144340Y552583D03*
X1151840Y548803D03*
X1144340Y544709D03*
X1151840Y540929D03*
X1144340Y536835D03*
X1151840Y533055D03*
X1144340Y528961D03*
X1151840Y525181D03*
X1144340Y521087D03*
X1151840Y517307D03*
X1144340Y513213D03*
X1151840Y509433D03*
X1144340Y505339D03*
X1151840Y501559D03*
X1144340Y497465D03*
X1151840Y493685D03*
X1144340Y489591D03*
X1151840Y485811D03*
X1144340Y481717D03*
X1151840Y477937D03*
X1144340Y473843D03*
X1151840Y470063D03*
X1144340Y465969D03*
X1151840Y446283D03*
X1144340Y442346D03*
X1151840Y438409D03*
X1144340Y434472D03*
X1151840Y430535D03*
X1144340Y426598D03*
X1151840Y422661D03*
X1144340Y418724D03*
X1151840Y414787D03*
X1144340Y410850D03*
X1151840Y406913D03*
X1144340Y402976D03*
X1151840Y399039D03*
X1144340Y395102D03*
X1151840Y391165D03*
X1144340Y387228D03*
X1151840Y383291D03*
X1144340Y379354D03*
X1151840Y375417D03*
X1144340Y371480D03*
X1151840Y367543D03*
X1144340Y363606D03*
X1151840Y359669D03*
X1144340Y355732D03*
X1151840Y351795D03*
X1144340Y347858D03*
X1151840Y343921D03*
X1144340Y339984D03*
X1151840Y336047D03*
X1144340Y332110D03*
X1151840Y328173D03*
X1144340Y324236D03*
X1151840Y320299D03*
X1144340Y316362D03*
X1151840Y312425D03*
X1144340Y308488D03*
X1151840Y304551D03*
X1144340Y300614D03*
X1151840Y296677D03*
X1144340Y292740D03*
X1151840Y288803D03*
X1144340Y284866D03*
X1151840Y280929D03*
X1144340Y276992D03*
X1151840Y273055D03*
X1144340Y269118D03*
X1151840Y265181D03*
X1144340Y261244D03*
X1151840Y257307D03*
X1144340Y253370D03*
X1151840Y249433D03*
X1144340Y245496D03*
X1151840Y241559D03*
X1144340Y237622D03*
X1151840Y233685D03*
X1144340Y229748D03*
X1166860Y714000D03*
X1159360Y710063D03*
X1166860Y706126D03*
X1159360Y702189D03*
X1166860Y698252D03*
X1159360Y694315D03*
X1166860Y690378D03*
X1159360Y686441D03*
X1166860Y682504D03*
X1159360Y678567D03*
X1166860Y674630D03*
X1159360Y670693D03*
X1166860Y666756D03*
X1159360Y662819D03*
X1166860Y658882D03*
X1159360Y654945D03*
X1166860Y651008D03*
X1159360Y647071D03*
X1166860Y643134D03*
X1159360Y639197D03*
X1166860Y635260D03*
X1159360Y631323D03*
X1166860Y627386D03*
X1159360Y623449D03*
X1166860Y619512D03*
X1159360Y615575D03*
X1166860Y611638D03*
X1159360Y607701D03*
X1166860Y603764D03*
X1159360Y599827D03*
X1166860Y595890D03*
X1159360Y591953D03*
X1166860Y588016D03*
X1159360Y584079D03*
X1166860Y580142D03*
X1159360Y576205D03*
X1166860Y572268D03*
X1159360Y568331D03*
X1166860Y564394D03*
X1159360Y560457D03*
X1166860Y556520D03*
X1159360Y552583D03*
X1166860Y548646D03*
X1159360Y544709D03*
X1166860Y540772D03*
X1159360Y536835D03*
X1166860Y532898D03*
X1159360Y528961D03*
X1166860Y525024D03*
X1159360Y521087D03*
X1166860Y517150D03*
X1159360Y513213D03*
X1166860Y509276D03*
X1159360Y505339D03*
X1166860Y501402D03*
X1159360Y497465D03*
X1166860Y493528D03*
X1159360Y489591D03*
X1166860Y485654D03*
X1159360Y481717D03*
X1166860Y477780D03*
X1159360Y473843D03*
X1166860Y469906D03*
X1159360Y465969D03*
X1166860Y446283D03*
X1159360Y442346D03*
X1166860Y438409D03*
X1159360Y434472D03*
X1166860Y430535D03*
X1159360Y426598D03*
X1166860Y422661D03*
X1159360Y418724D03*
X1166860Y414787D03*
X1159360Y410850D03*
X1166860Y406913D03*
X1159360Y402976D03*
X1166860Y399039D03*
X1159360Y395102D03*
X1166860Y391165D03*
X1159360Y387228D03*
X1166860Y383291D03*
X1159360Y379354D03*
X1166860Y375417D03*
X1159360Y371480D03*
X1166860Y367543D03*
X1159360Y363606D03*
X1166860Y359669D03*
X1159360Y355732D03*
X1166860Y351795D03*
X1159360Y347858D03*
X1166860Y343921D03*
X1159360Y339984D03*
X1166860Y336047D03*
X1159360Y332110D03*
X1166860Y328173D03*
X1159360Y324236D03*
X1166860Y320299D03*
X1159360Y316362D03*
X1166860Y312425D03*
X1159360Y308488D03*
X1166860Y304551D03*
X1159360Y300614D03*
X1166860Y296677D03*
X1159360Y292740D03*
X1166860Y288803D03*
X1159360Y284866D03*
X1166860Y280929D03*
X1159360Y276992D03*
X1166860Y273055D03*
X1159360Y269118D03*
X1166860Y265181D03*
X1159360Y261244D03*
X1166860Y257307D03*
X1159360Y253370D03*
X1166860Y249433D03*
X1159360Y245496D03*
X1166860Y241559D03*
X1159360Y237622D03*
X1166860Y233685D03*
X1159360Y229748D03*
X291660Y230002D03*
X299160Y234096D03*
X291660Y237876D03*
X299160Y241970D03*
X291660Y245750D03*
X299160Y249844D03*
X291660Y253624D03*
X299160Y257718D03*
X291660Y261498D03*
X299160Y265592D03*
X291660Y269372D03*
X299160Y273466D03*
X291660Y277246D03*
X299160Y281340D03*
X291660Y285120D03*
X299160Y289214D03*
X291660Y292994D03*
X299160Y297088D03*
X291660Y300868D03*
X299160Y304962D03*
X291660Y308742D03*
X299160Y312836D03*
X291660Y316616D03*
X299160Y320710D03*
X291660Y324490D03*
X299160Y328584D03*
X291660Y332364D03*
X299160Y336458D03*
X291660Y340238D03*
X299160Y344332D03*
X291660Y348112D03*
X299160Y352206D03*
X291660Y355986D03*
X299160Y360080D03*
X291660Y363860D03*
X299160Y367954D03*
X291660Y371734D03*
X299160Y375828D03*
X291660Y379608D03*
X299160Y383702D03*
X291660Y387482D03*
X299160Y391576D03*
X291660Y395356D03*
X299160Y399450D03*
X291660Y403230D03*
X299160Y407324D03*
X291660Y411104D03*
X299160Y415198D03*
X291660Y418978D03*
X299160Y423072D03*
X291660Y426852D03*
X299160Y430946D03*
X291660Y434726D03*
X299160Y438820D03*
X291660Y442600D03*
X299160Y446694D03*
X291660Y450474D03*
X299160Y454569D03*
X291660Y458348D03*
X299160Y462443D03*
X291660Y466222D03*
X299160Y470317D03*
X291660Y474096D03*
X299160Y478191D03*
X291660Y497876D03*
X299160Y501813D03*
X291660Y505750D03*
X299160Y509687D03*
X291660Y513624D03*
X299160Y517561D03*
X291660Y521498D03*
X299160Y525435D03*
X291660Y529372D03*
X299160Y533309D03*
X291660Y537246D03*
X299160Y541183D03*
X291660Y545120D03*
X299160Y549057D03*
X291660Y552994D03*
X299160Y556931D03*
X291660Y560868D03*
X299160Y564805D03*
X291660Y568742D03*
X299160Y572679D03*
X291660Y576616D03*
X299160Y580553D03*
X291660Y584490D03*
X299160Y588427D03*
X291660Y592364D03*
X299160Y596301D03*
X291660Y600238D03*
X299160Y604175D03*
X291660Y608112D03*
X299160Y612049D03*
X291660Y615986D03*
X299160Y619923D03*
X291660Y623860D03*
X299160Y627797D03*
X291660Y631734D03*
X299160Y635671D03*
X291660Y639608D03*
X299160Y643545D03*
X291660Y647482D03*
X299160Y651419D03*
X291660Y655356D03*
X299160Y659293D03*
X291660Y663230D03*
X299160Y667167D03*
X291660Y671104D03*
X299160Y675041D03*
X291660Y678978D03*
X299160Y682915D03*
X291660Y686852D03*
X299160Y690789D03*
X291660Y694726D03*
X299160Y698663D03*
X291660Y702600D03*
X299160Y706537D03*
X291660Y710474D03*
X299160Y714411D03*
X276640Y230159D03*
X284140Y234096D03*
X276640Y238033D03*
X284140Y241970D03*
X276640Y245907D03*
X284140Y249844D03*
X276640Y253781D03*
X284140Y257718D03*
X276640Y261655D03*
X284140Y265592D03*
X276640Y269529D03*
X284140Y273466D03*
X276640Y277403D03*
X284140Y281340D03*
X276640Y285277D03*
X284140Y289214D03*
X276640Y293151D03*
X284140Y297088D03*
X276640Y301025D03*
X284140Y304962D03*
X276640Y308899D03*
X284140Y312836D03*
X276640Y316773D03*
X284140Y320710D03*
X276640Y324647D03*
X284140Y328584D03*
X276640Y332521D03*
X284140Y336458D03*
X276640Y340395D03*
X284140Y344332D03*
X276640Y348269D03*
X284140Y352206D03*
X276640Y356143D03*
X284140Y360080D03*
X276640Y364017D03*
X284140Y367954D03*
X276640Y371891D03*
X284140Y375828D03*
X276640Y379765D03*
X284140Y383702D03*
X276640Y387639D03*
X284140Y391576D03*
X276640Y395513D03*
X284140Y399450D03*
X276640Y403387D03*
X284140Y407324D03*
X276640Y411261D03*
X284140Y415198D03*
X276640Y419135D03*
X284140Y423072D03*
X276640Y427009D03*
X284140Y430946D03*
X276640Y434883D03*
X284140Y438820D03*
X276640Y442757D03*
X284140Y446694D03*
X276640Y450631D03*
X284140Y454569D03*
X276640Y458506D03*
X284140Y462443D03*
X276640Y466380D03*
X284140Y470317D03*
X276640Y474254D03*
X284140Y478191D03*
X276640Y497876D03*
X284140Y501813D03*
X276640Y505750D03*
X284140Y509687D03*
X276640Y513624D03*
X284140Y517561D03*
X276640Y521498D03*
X284140Y525435D03*
X276640Y529372D03*
X284140Y533309D03*
X276640Y537246D03*
X284140Y541183D03*
X276640Y545120D03*
X284140Y549057D03*
X276640Y552994D03*
X284140Y556931D03*
X276640Y560868D03*
X284140Y564805D03*
X276640Y568742D03*
X284140Y572679D03*
X276640Y576616D03*
X284140Y580553D03*
X276640Y584490D03*
X284140Y588427D03*
X276640Y592364D03*
X284140Y596301D03*
X276640Y600238D03*
X284140Y604175D03*
X276640Y608112D03*
X284140Y612049D03*
X276640Y615986D03*
X284140Y619923D03*
X276640Y623860D03*
X284140Y627797D03*
X276640Y631734D03*
X284140Y635671D03*
X276640Y639608D03*
X284140Y643545D03*
X276640Y647482D03*
X284140Y651419D03*
X276640Y655356D03*
X284140Y659293D03*
X276640Y663230D03*
X284140Y667167D03*
X276640Y671104D03*
X284140Y675041D03*
X276640Y678978D03*
X284140Y682915D03*
X276640Y686852D03*
X284140Y690789D03*
X276640Y694726D03*
X284140Y698663D03*
X276640Y702600D03*
X284140Y706537D03*
X276640Y710474D03*
X284140Y714411D03*
X1058661Y976961D03*
X1063661Y986961D03*
X1068661Y976961D03*
X1073661Y986961D03*
X1078661Y976961D03*
X1083661Y986961D03*
X1088661Y976961D03*
X1093661Y986961D03*
X1195394Y996850D03*
X1184488D03*
X1173583D03*
X1162677D03*
X1151772D03*
X1189961Y1008031D03*
X1179055D03*
X1168150D03*
X1157244D03*
G54D380*
X100000Y1000000D03*
X590000D03*
X100000Y390000D03*
X1210000D03*
X590000Y105000D03*
X1210000D03*
X100000D03*
X590000Y390000D03*
X1210000Y910000D03*
G54D381*
X139370Y689858D03*
Y699858D03*
Y709858D03*
Y719858D03*
X186614Y689858D03*
Y699858D03*
Y709858D03*
Y719858D03*
X233858Y689858D03*
Y699858D03*
Y709858D03*
Y719858D03*
X1044566Y965110D03*
X1107755D03*
X1216496Y144567D03*
Y215433D03*
Y241811D03*
Y312677D03*
G54D382*
X978167Y121824D03*
X958167D03*
Y101824D03*
X978167D03*
X1025167Y121824D03*
X1005167D03*
Y101824D03*
X1025167D03*
X322902Y905253D03*
X302902D03*
Y885253D03*
X322902D03*
X322602Y947627D03*
X302602D03*
Y927627D03*
X322602D03*
G54D383*
X1222795Y1002441D03*
X1124409D03*
G54D384*
X1193858Y655591D03*
G54D385*
Y672126D03*
Y688661D03*
Y705197D03*
Y721732D03*
Y738268D03*
Y754803D03*
Y771339D03*
Y787874D03*
Y804409D03*
Y820945D03*
Y837480D03*
X1215512Y655591D03*
Y672126D03*
Y688661D03*
Y705197D03*
Y721732D03*
Y738268D03*
Y754803D03*
Y771339D03*
Y787874D03*
Y804409D03*
Y820945D03*
Y837480D03*
G54D386*
X1213701Y637087D03*
X0Y0D02*
M02*
