*
*
G04 PADS Layout (Build Number 2007.21.1) generated Gerber (RS-274-X) file*
G04 PC Version=2.1*
*
%IN "roach101.pcb"*%
*
%MOIN*%
*
%FSLAX35Y35*%
*
*
*
*
G04 PC Standard Apertures*
*
*
G04 Thermal Relief Aperture macro.*
%AMTER*
1,1,$1,0,0*
1,0,$1-$2,0,0*
21,0,$3,$4,0,0,45*
21,0,$3,$4,0,0,135*
%
*
*
G04 Annular Aperture macro.*
%AMANN*
1,1,$1,0,0*
1,0,$2,0,0*
%
*
*
G04 Odd Aperture macro.*
%AMODD*
1,1,$1,0,0*
1,0,$1-0.005,0,0*
%
*
*
G04 PC Custom Aperture Macros*
*
*
*
*
*
*
G04 PC Aperture Table*
*
%ADD012C,0.1*%
%ADD080C,0.001*%
%ADD081C,0.05331*%
%ADD082C,0.04937*%
%ADD083C,0.08087*%
%ADD084C,0.10646*%
%ADD085C,0.065*%
%ADD086C,0.1478*%
%ADD111R,0.075X0.075*%
%ADD121R,0.065X0.065*%
%ADD140C,0.025*%
%ADD151C,0.104*%
%ADD152C,0.05921*%
%ADD153C,0.03559*%
%ADD159R,0.12811X0.12811*%
%ADD181R,0.07496X0.07496*%
%ADD182R,0.03756X0.03756*%
%ADD183R,0.05921X0.05921*%
%ADD184C,0.074*%
%ADD185R,0.05134X0.05134*%
%ADD186R,0.05331X0.05331*%
%ADD187R,0.02575X0.02575*%
%ADD188C,0.02575*%
%ADD189R,0.02496X0.02496*%
%ADD190R,0.03087X0.03087*%
%ADD191C,0.06016*%
%ADD192R,0.03362X0.03362*%
%ADD193C,0.03362*%
%ADD194R,0.10055X0.10055*%
%ADD195R,0.02594X0.02594*%
%ADD196R,0.02378X0.02378*%
%ADD197R,0.0848X0.0848*%
%ADD198R,0.10646X0.10646*%
%ADD199C,0.07693*%
%ADD200R,0.06118X0.06118*%
%ADD201C,0.02772*%
%ADD202R,0.14189X0.14189*%
%ADD203R,0.049X0.049*%
%ADD204R,0.06709X0.06709*%
%ADD205R,0.02969X0.02969*%
%ADD206C,0.03165*%
%ADD207R,0.06315X0.06315*%
%ADD208R,0.0474X0.0474*%
%ADD209R,0.069X0.069*%
%ADD210R,0.064X0.064*%
%ADD211R,0.031X0.031*%
%ADD212C,0.08874*%
%ADD213R,0.08087X0.08087*%
%ADD214C,0.304*%
%ADD215R,0.02181X0.02181*%
%ADD216R,0.06906X0.06906*%
%ADD217R,0.03953X0.03953*%
%ADD218C,0.09268*%
%ADD219R,0.085X0.085*%
%ADD220R,0.23047X0.23047*%
%ADD221R,0.09858X0.09858*%
%ADD222C,0.03953*%
%ADD223C,0.11236*%
%ADD224R,0.05528X0.05528*%
%ADD225R,0.0415X0.0415*%
%ADD226R,0.05724X0.05724*%
%ADD227C,0.0848*%
%ADD228C,0.13205*%
%ADD229R,0.06394X0.06394*%
%ADD230R,0.07299X0.07299*%
%ADD231R,0.11236X0.11236*%
%ADD232C,0.075*%
%ADD233R,0.11039X0.11039*%
%ADD234C,0.11039*%
%ADD235C,0.14386*%
%ADD236C,0.21079*%
%ADD237R,0.26X0.26*%
%ADD238R,0.09268X0.09268*%
%ADD239C,0.02378*%
%ADD240R,0.06512X0.06512*%
%ADD241C,0.07299*%
*
*
*
*
G04 PC Circuitry*
G04 Layer Name roach101.pcb - circuitry*
%LPD*%
*
*
G04 PC Custom Flashes*
G04 Layer Name roach101.pcb - flashes*
%LPD*%
*
*
G04 PC Circuitry*
G04 Layer Name roach101.pcb - circuitry*
%LPD*%
*
G54D12*
G01X110235Y492120D03*
X172735Y504620D03*
Y517120D03*
Y554620D03*
Y567120D03*
X160235D03*
X147735D03*
X135235D03*
X122735D03*
X110235D03*
Y504620D03*
X176235Y298120D03*
X188735D03*
X226235D03*
Y310620D03*
Y348120D03*
Y373120D03*
X213735D03*
X201235D03*
X188735D03*
X176235D03*
Y310620D03*
X108235Y298120D03*
X128235D03*
X158235D03*
Y348120D03*
Y360620D03*
X148235D03*
X138235D03*
X128235D03*
X118235D03*
X108235D03*
Y220120D03*
Y170120D03*
X120735D03*
X145735D03*
X158235D03*
X170735D03*
X183235D03*
X208235D03*
X220735D03*
X233235D03*
Y182620D03*
Y195120D03*
Y207620D03*
Y220120D03*
G54D80*
G54D81*
X731632Y112431D03*
X739624D03*
X751632D03*
X759624D03*
X771632D03*
X779624D03*
X791632D03*
X799624D03*
X811632D03*
X819624D03*
X831632D03*
X839624D03*
X851632D03*
X859624D03*
X871632D03*
X879624D03*
X891632D03*
X899624D03*
X911632D03*
X919624D03*
X735609Y119320D03*
X745609D03*
X755609D03*
X765609D03*
X775609D03*
X785609D03*
X795609D03*
X805609D03*
X815609D03*
X825609D03*
X835609D03*
X845609D03*
X855609D03*
X865609D03*
X875609D03*
X885609D03*
X895609D03*
X905609D03*
X915609D03*
X925609D03*
X741632Y126210D03*
X749624D03*
X761632D03*
X769624D03*
X781632D03*
X789624D03*
X801632D03*
X809624D03*
X821632D03*
X829624D03*
X841632D03*
X849624D03*
X861632D03*
X869624D03*
X881632D03*
X889624D03*
X901632D03*
X909624D03*
X921632D03*
X929624D03*
X731632Y136053D03*
X739624D03*
X735609Y142943D03*
X741632Y149832D03*
X749624D03*
X751632Y136053D03*
X759624D03*
X771632D03*
X779624D03*
X791632D03*
X799624D03*
X811632D03*
X819624D03*
X831632D03*
X839624D03*
X851632D03*
X859624D03*
X871632D03*
X879624D03*
X891632D03*
X899624D03*
X911632D03*
X919624D03*
X761632Y149832D03*
X769624D03*
X781632D03*
X789624D03*
X801632D03*
X809624D03*
X821632D03*
X829624D03*
X841632D03*
X849624D03*
X861632D03*
X869624D03*
X881632D03*
X889624D03*
X901632D03*
X909624D03*
X921632D03*
X929624D03*
X745609Y142943D03*
X755609D03*
X765609D03*
X775609D03*
X785609D03*
X795609D03*
X805609D03*
X815609D03*
X825609D03*
X835609D03*
X845609D03*
X855609D03*
X865609D03*
X875609D03*
X885609D03*
X895609D03*
X905609D03*
X915609D03*
X925609D03*
X975924Y125069D03*
X963719D03*
X951514D03*
X975924Y132943D03*
Y140817D03*
Y148691D03*
X963719Y132943D03*
Y140817D03*
Y148691D03*
X951514Y132943D03*
Y140817D03*
Y148691D03*
X715687Y125069D03*
X703483D03*
X691278D03*
X715687Y132943D03*
Y140817D03*
Y148691D03*
X703483Y132943D03*
Y140817D03*
Y148691D03*
X691278Y132943D03*
Y140817D03*
Y148691D03*
X379132Y112431D03*
X387124D03*
X399132D03*
X407124D03*
X419132D03*
X427124D03*
X439132D03*
X447124D03*
X459132D03*
X467124D03*
X479132D03*
X487124D03*
X499132D03*
X507124D03*
X519132D03*
X527124D03*
X539132D03*
X547124D03*
X559132D03*
X567124D03*
X383109Y119320D03*
X393109D03*
X403109D03*
X413109D03*
X423109D03*
X433109D03*
X443109D03*
X453109D03*
X463109D03*
X473109D03*
X483109D03*
X493109D03*
X503109D03*
X513109D03*
X523109D03*
X533109D03*
X543109D03*
X553109D03*
X563109D03*
X573109D03*
X389132Y126210D03*
X397124D03*
X409132D03*
X417124D03*
X429132D03*
X437124D03*
X449132D03*
X457124D03*
X469132D03*
X477124D03*
X489132D03*
X497124D03*
X509132D03*
X517124D03*
X529132D03*
X537124D03*
X549132D03*
X557124D03*
X569132D03*
X577124D03*
X379132Y136053D03*
X387124D03*
X383109Y142943D03*
X389132Y149832D03*
X397124D03*
X399132Y136053D03*
X407124D03*
X419132D03*
X427124D03*
X439132D03*
X447124D03*
X459132D03*
X467124D03*
X479132D03*
X487124D03*
X499132D03*
X507124D03*
X519132D03*
X527124D03*
X539132D03*
X547124D03*
X559132D03*
X567124D03*
X409132Y149832D03*
X417124D03*
X429132D03*
X437124D03*
X449132D03*
X457124D03*
X469132D03*
X477124D03*
X489132D03*
X497124D03*
X509132D03*
X517124D03*
X529132D03*
X537124D03*
X549132D03*
X557124D03*
X569132D03*
X577124D03*
X393109Y142943D03*
X403109D03*
X413109D03*
X423109D03*
X433109D03*
X443109D03*
X453109D03*
X463109D03*
X473109D03*
X483109D03*
X493109D03*
X503109D03*
X513109D03*
X523109D03*
X533109D03*
X543109D03*
X553109D03*
X563109D03*
X573109D03*
X623424Y125069D03*
X611219D03*
X599014D03*
X623424Y132943D03*
Y140817D03*
Y148691D03*
X611219Y132943D03*
Y140817D03*
Y148691D03*
X599014Y132943D03*
Y140817D03*
Y148691D03*
X363187Y125069D03*
X350983D03*
X338778D03*
X363187Y132943D03*
Y140817D03*
Y148691D03*
X350983Y132943D03*
Y140817D03*
Y148691D03*
X338778Y132943D03*
Y140817D03*
Y148691D03*
G54D82*
X703611Y1028709D03*
X711800Y1021544D03*
X951564D03*
X959831Y1028631D03*
X927165Y603937D03*
G54D83*
X1219453Y476357D02*
X1222012D01*
X354312Y508264D02*
X351753D01*
G54D84*
X1193764Y740845D03*
Y240924D03*
X380001Y243776D03*
Y743697D03*
G54D85*
X1013386Y719488D03*
Y729488D03*
Y739488D03*
Y749488D03*
Y759488D03*
G54D86*
X761024Y549449D03*
X561024Y627402D03*
G54D111*
X1283203Y897475D03*
G54D121*
X114009Y912992D02*
X123509D01*
X131609D02*
X141109D01*
X114009Y902992D02*
X123509D01*
X131609D02*
X141109D01*
X114009Y892992D02*
X123509D01*
X131609D02*
X141109D01*
X114009Y882992D02*
X123509D01*
X131609D02*
X141109D01*
X114009Y872992D02*
X123509D01*
X131609D02*
X141109D01*
X114009Y862992D02*
X123509D01*
X131609D02*
X141109D01*
X114009Y852992D02*
X123509D01*
X131609D02*
X141109D01*
X114009Y842992D02*
X123509D01*
X131609D02*
X141109D01*
X114009Y832992D02*
X123509D01*
X131609D02*
X141109D01*
X114009Y822992D02*
X123509D01*
X131609D02*
X141109D01*
X114009Y964173D02*
X123509D01*
X131609D02*
X141109D01*
X114009Y954173D02*
X123509D01*
X131609D02*
X141109D01*
X114009Y944173D02*
X123509D01*
X131609D02*
X141109D01*
X114009Y934173D02*
X123509D01*
X131609D02*
X141109D01*
X191857Y1021702D02*
Y1030702D01*
Y1039302D02*
Y1048302D01*
X201857Y1021702D02*
Y1030702D01*
Y1039302D02*
Y1048302D01*
X211857Y1021702D02*
Y1030702D01*
Y1039302D02*
Y1048302D01*
X221857Y1021702D02*
Y1030702D01*
Y1039302D02*
Y1048302D01*
X231857Y1021702D02*
Y1030702D01*
Y1039302D02*
Y1048302D01*
X114259Y800787D02*
X123259D01*
X131859D02*
X140859D01*
X114259Y790787D02*
X123259D01*
X131859D02*
X140859D01*
X114259Y780787D02*
X123259D01*
X131859D02*
X140859D01*
X114259Y770787D02*
X123259D01*
X131859D02*
X140859D01*
X114259Y760787D02*
X123259D01*
X131859D02*
X140859D01*
X402535Y980620D02*
Y995620D01*
Y1007620D02*
Y1022620D01*
X412535Y980620D02*
Y995620D01*
Y1007620D02*
Y1022620D01*
X422535Y980620D02*
Y995620D01*
Y1007620D02*
Y1022620D01*
X432535Y980620D02*
Y995620D01*
Y1007620D02*
Y1022620D01*
X442535Y980620D02*
Y995620D01*
Y1007620D02*
Y1022620D01*
X452535Y980620D02*
Y995620D01*
Y1007620D02*
Y1022620D01*
X462535Y980620D02*
Y995620D01*
Y1007620D02*
Y1022620D01*
X472535Y980620D02*
Y995620D01*
Y1007620D02*
Y1022620D01*
X482535Y980620D02*
Y995620D01*
Y1007620D02*
Y1022620D01*
X492535Y980620D02*
Y995620D01*
Y1007620D02*
Y1022620D01*
X260535Y980620D02*
Y995620D01*
Y1007620D02*
Y1022620D01*
X270535Y980620D02*
Y995620D01*
Y1007620D02*
Y1022620D01*
X280535Y980620D02*
Y995620D01*
Y1007620D02*
Y1022620D01*
X290535Y980620D02*
Y995620D01*
Y1007620D02*
Y1022620D01*
X300535Y980620D02*
Y995620D01*
Y1007620D02*
Y1022620D01*
X310535Y980620D02*
Y995620D01*
Y1007620D02*
Y1022620D01*
X320535Y980620D02*
Y995620D01*
Y1007620D02*
Y1022620D01*
X330535Y980620D02*
Y995620D01*
Y1007620D02*
Y1022620D01*
X340535Y980620D02*
Y995620D01*
Y1007620D02*
Y1022620D01*
X350535Y980620D02*
Y995620D01*
Y1007620D02*
Y1022620D01*
X114009Y1046850D02*
X123509D01*
X131609D02*
X141109D01*
X114009Y1036850D02*
X123509D01*
X131609D02*
X141109D01*
X114009Y1026850D02*
X123509D01*
X131609D02*
X141109D01*
X114009Y1016850D02*
X123509D01*
X131609D02*
X141109D01*
X114009Y1006850D02*
X123509D01*
X131609D02*
X141109D01*
X114009Y996850D02*
X123509D01*
X131609D02*
X141109D01*
X114009Y986850D02*
X123509D01*
X131609D02*
X141109D01*
G54D140*
X659055Y153150D03*
X997638D03*
X354905Y156888D03*
X359820D03*
X403282Y156136D03*
X388583Y165748D03*
X422967Y156924D03*
X425541Y163011D03*
X441865Y156924D03*
X470785Y156136D03*
X482809D03*
X503282D03*
X522967D03*
X523023Y166316D03*
X543439Y156136D03*
X563912D03*
X583597D03*
X602590Y156854D03*
X608269D03*
X640157Y173622D03*
X706686Y157110D03*
X712565Y157069D03*
X734778Y156136D03*
X755250D03*
Y165585D03*
X856038Y156136D03*
Y165585D03*
X960950Y156707D03*
X954466D03*
X1023299Y169055D03*
X1043299D03*
X1028299D03*
X1053299D03*
X1048299D03*
X1070299D03*
X1075299D03*
X1090299D03*
X1100299Y168164D03*
X1095299D03*
X388583Y179528D03*
X725160Y184250D03*
X978193Y176618D03*
X1023028Y191127D03*
X1025599Y192955D03*
X1023028Y187683D03*
X1025668Y189087D03*
X1033858Y192520D03*
Y189764D03*
X1036614Y192520D03*
Y189764D03*
X1044931Y193024D03*
X1035299Y181855D03*
X1058199Y180855D03*
X1048299Y179055D03*
X1053299Y178955D03*
X1068928Y191027D03*
X1072668Y193024D03*
X1080709Y189764D03*
Y192520D03*
X1083465D03*
Y189764D03*
X1068928Y187483D03*
X1082299Y181424D03*
X1072668Y189087D03*
X1095299Y179555D03*
X1091931Y193024D03*
X1100299Y179755D03*
X722047Y196457D03*
X1023328Y203727D03*
Y200183D03*
X1035299Y200687D03*
X1039565Y212079D03*
X1049871Y202127D03*
Y198583D03*
X1068928Y202127D03*
X1082299Y200687D03*
X1068928Y198583D03*
X1097071Y202427D03*
Y198883D03*
X230156Y231380D03*
Y247128D03*
X1024332Y253212D03*
X1032207D03*
X1041338Y253946D03*
X1056374Y248722D03*
X1073465Y242079D03*
Y251079D03*
X1067465Y246079D03*
X222282Y260908D03*
X259683Y255002D03*
X860374Y273622D03*
X876123D03*
X868249D03*
X883997D03*
X899745D03*
X891871D03*
X907619D03*
X1040551Y260236D03*
Y264567D03*
X1029134Y268898D03*
Y264567D03*
X1198794Y261604D03*
X255512Y320472D03*
X940945Y322047D03*
X931102D03*
X951181D03*
X977165D03*
X966535D03*
X987008D03*
X996850D03*
X1020117Y321514D03*
X1039932D03*
X1030171D03*
X1115880Y338813D03*
X1122967Y342750D03*
X119804Y374169D03*
X114496Y373563D03*
X936739Y365658D03*
X943542Y370464D03*
X934162Y368533D03*
X956497Y366658D03*
X947085Y370464D03*
X962085D03*
X966339Y366658D03*
X958542Y370464D03*
X974239Y366658D03*
X977085Y370464D03*
X986039Y366658D03*
X968339Y369658D03*
X973542Y370464D03*
X1004414Y367435D03*
X992085Y370464D03*
X1001439Y366658D03*
X988542Y370464D03*
X1104857Y356924D03*
X1112731D03*
X937350Y386656D03*
X934162Y387133D03*
X937350Y390199D03*
X998277Y386656D03*
Y390199D03*
X1196313Y390928D03*
X1192313D03*
X448819Y411024D03*
X937350Y401656D03*
X934162Y400733D03*
X937350Y405199D03*
X1004414Y402735D03*
X998277Y401656D03*
X1004414Y394835D03*
X998277Y405199D03*
X1046336Y400012D03*
X1046325Y406140D03*
X1046311Y413046D03*
X1038813Y396428D03*
Y409428D03*
Y403428D03*
X1049813Y399928D03*
Y406428D03*
Y412928D03*
X1196313Y400928D03*
Y410928D03*
X1192313Y400928D03*
Y410928D03*
X383465Y415354D03*
Y430709D03*
X538976D03*
X586220D03*
X633465D03*
X657087D03*
X937350Y416656D03*
X946139Y428910D03*
X934162Y416533D03*
X937350Y420199D03*
X942542Y428964D03*
X1004414Y430335D03*
X998277Y416656D03*
X994085Y428964D03*
X998277Y420199D03*
X990542Y428964D03*
X1196313Y420928D03*
Y430928D03*
X1192313Y420928D03*
Y430928D03*
X1245876Y425383D03*
X320865Y439437D03*
X330707Y435500D03*
X383858Y447244D03*
X562598Y446457D03*
X609843D03*
X688583D03*
X720079D03*
X751575D03*
X783071D03*
X810039Y451520D03*
X815946Y451519D03*
X820669Y451520D03*
X826576Y451519D03*
X831299Y451520D03*
X837206Y451519D03*
X842323Y451520D03*
X848230Y451519D03*
X934162Y436133D03*
X934840Y449785D03*
X952539Y436910D03*
X948639D03*
X1001139D03*
X989995Y437678D03*
X1004414Y436235D03*
X1083071Y435433D03*
X1196313Y440928D03*
Y450928D03*
X1192313Y440928D03*
Y450928D03*
X383465Y460236D03*
Y472047D03*
X783071Y470079D03*
X805710Y468448D03*
X852953Y468449D03*
X858860Y468448D03*
X862795Y468449D03*
X868702Y468448D03*
X893307Y466142D03*
X1196313Y460928D03*
Y468928D03*
X1192313Y460928D03*
Y468928D03*
X383465Y485827D03*
X798481Y488781D03*
X798480Y482874D03*
X787345Y482873D03*
X787347Y488780D03*
X805709Y479582D03*
X799802Y479584D03*
X862794D03*
X858858Y479582D03*
X883126Y492717D03*
X883127Y488781D03*
X883126Y482874D03*
X868701Y479582D03*
X896850Y492913D03*
X893307D03*
X900787D03*
X897244Y481496D03*
X912992Y483858D03*
X1066535Y480709D03*
X1196313Y476928D03*
Y484928D03*
Y492928D03*
X1192313Y476928D03*
Y484928D03*
Y492928D03*
X267715Y506366D03*
X271652Y498492D03*
X326770Y508335D03*
Y498492D03*
X383858Y498031D03*
X383465Y509843D03*
X566535Y513386D03*
X570472Y505512D03*
X796063Y507480D03*
Y503543D03*
X861023Y503622D03*
X861006Y507479D03*
X883127Y498623D03*
Y508466D03*
X883126Y502559D03*
Y512402D03*
X894882Y495276D03*
X893307Y498031D03*
X900787Y498425D03*
X898819Y495669D03*
X896850Y498031D03*
X895276Y510236D03*
X975984Y512598D03*
X981890D03*
X1005512D03*
X999606D03*
X993701D03*
X987795D03*
X1011417D03*
X1017323D03*
X1196313Y500928D03*
Y508928D03*
X1192313Y500928D03*
Y508928D03*
X261022Y528413D03*
X263778Y526051D03*
X266140Y519358D03*
X248030Y524083D03*
X261022Y523689D03*
X263778Y521720D03*
X261022Y519358D03*
X266534Y528413D03*
Y523689D03*
X279526Y526051D03*
X292125Y532350D03*
X383465Y533071D03*
Y521654D03*
X566535Y529134D03*
X570472Y521260D03*
Y529134D03*
X883127Y518309D03*
Y528151D03*
X883126Y522244D03*
X984962Y519104D03*
X1002644Y519090D03*
X1100507Y528542D03*
X1101005Y520804D03*
X1107437Y522357D03*
Y528262D03*
X1121819Y515067D03*
X1124442Y527526D03*
X1121297Y527575D03*
Y530795D03*
X1124417Y530920D03*
X1124591Y524331D03*
X1121272Y524306D03*
X1117902Y527700D03*
Y531095D03*
X1121097Y534165D03*
X1124192D03*
X1117927Y524341D03*
Y534138D03*
X1108887Y520388D03*
Y526294D03*
X1131734Y515144D03*
X1136671Y524325D03*
Y520388D03*
X1136631Y534168D03*
X1127711Y530770D03*
Y527351D03*
X1127724Y524381D03*
Y534138D03*
X1196313Y524928D03*
Y532928D03*
Y516928D03*
X1192313Y524928D03*
Y532928D03*
Y516928D03*
X383465Y544488D03*
X465354Y544882D03*
X586220D03*
X566535Y537008D03*
X570472Y544882D03*
X566535Y552756D03*
X743701Y546850D03*
X799803Y535378D03*
X805710Y535377D03*
X805709Y546512D03*
X799802Y546513D03*
X858860Y535377D03*
X858858Y546512D03*
X852951Y546513D03*
X880358Y537801D03*
X886265Y537799D03*
X880357Y548935D03*
X886264Y548934D03*
X931102Y535039D03*
X1108848Y538105D03*
X1121835Y542890D03*
X1131677D03*
X1196313Y548928D03*
Y540928D03*
X1192313Y548928D03*
Y540928D03*
X383465Y554724D03*
X387402Y564567D03*
X455512Y556693D03*
X566535Y560630D03*
X582283Y564567D03*
X583465Y556693D03*
X586220Y568504D03*
X570472Y560630D03*
X566535Y568504D03*
X745480Y556693D03*
X753321Y564567D03*
X822967Y568341D03*
X842715Y563048D03*
X834449Y563047D03*
X828542Y563048D03*
X848622Y563047D03*
X1196313Y556928D03*
X1192313D03*
X120433Y590220D03*
Y593720D03*
X106535Y593520D03*
X448425Y586220D03*
X477953Y590157D03*
Y582283D03*
X583071Y580315D03*
X586220Y584252D03*
X570472Y576378D03*
Y584252D03*
Y592126D03*
X925984Y587795D03*
X928346Y583071D03*
X109159Y606763D03*
X120136Y597320D03*
X136435Y608120D03*
X132574Y606520D03*
X132410Y610578D03*
X448425Y609843D03*
X582283Y603937D03*
X570472Y600000D03*
X590157D03*
X753354Y596063D03*
X1259055Y612598D03*
X1251575D03*
X1255118D03*
X1257056Y601988D03*
X1273228Y607874D03*
X112935Y623120D03*
X114736Y627048D03*
X114713Y632126D03*
X114736Y634665D03*
X109095Y614920D03*
X123235Y618520D03*
X123121Y632173D03*
Y626998D03*
X125735Y618520D03*
X142135Y634620D03*
X142035Y632120D03*
X128086Y632278D03*
X133296Y632173D03*
X128541Y626998D03*
X133296D03*
X142035Y629520D03*
X130735Y618420D03*
X128135D03*
X132510Y614678D03*
X151435Y623420D03*
X477953Y631496D03*
Y623622D03*
X537008Y619685D03*
X803740Y627898D03*
X809647Y627897D03*
X814370Y628292D03*
X820277Y628290D03*
X826575Y628292D03*
X832482Y628290D03*
X838780Y628292D03*
X844686Y628290D03*
X948425Y627165D03*
Y630315D03*
X1262598Y632677D03*
X1251575Y617717D03*
X1255118D03*
X1259055Y618110D03*
X1257087Y615354D03*
X1253150Y614961D03*
X1255113Y629128D03*
X114717Y637239D03*
X123035Y645720D03*
X123156Y637174D03*
X126335Y649020D03*
X125535Y645620D03*
X132535Y648720D03*
X142235Y637220D03*
X133335Y645620D03*
X128156Y637244D03*
X133366Y637279D03*
X128135Y645620D03*
X130735D03*
X151435Y634820D03*
X505512Y651181D03*
X516142D03*
Y646850D03*
X537008Y635433D03*
X862795Y647583D03*
X858860Y647582D03*
X852953Y647583D03*
X868702Y647582D03*
X941339Y648819D03*
Y640945D03*
Y645276D03*
X1265354Y647244D03*
X1247713Y649628D03*
X105138Y663120D03*
X105235Y666720D03*
X105138Y670120D03*
X145408Y670309D03*
Y662829D03*
X145435Y666720D03*
X151131Y663320D03*
X151035Y656320D03*
Y659720D03*
X191077Y656136D03*
Y663223D03*
X190735Y659820D03*
X452362Y672047D03*
X478834Y660912D03*
X509449Y664961D03*
X513386D03*
X509449Y668898D03*
X513386D03*
X596063Y665748D03*
X725984D03*
X862794Y658718D03*
X858858Y658716D03*
X868701D03*
X884307Y661614D03*
Y671457D03*
X884308Y667521D03*
X881285Y655906D03*
X964173Y666929D03*
X960236Y670866D03*
X956299Y671055D03*
X952362Y670866D03*
X972047Y665102D03*
X975984Y671866D03*
X968110Y668898D03*
X105283Y682006D03*
X105435Y685820D03*
X105283Y689920D03*
X128479Y689601D03*
Y682120D03*
X128535Y685820D03*
X150827Y682865D03*
X150571Y675263D03*
X150635Y678920D03*
X150735Y693320D03*
X150371Y689463D03*
X172967Y675034D03*
X173361Y678971D03*
X174178Y682865D03*
Y688950D03*
X173935Y692820D03*
X505118Y690551D03*
X504724Y680709D03*
X516142Y686614D03*
Y690551D03*
X884307Y690354D03*
X884308Y686812D03*
X884307Y680906D03*
X884308Y677364D03*
X105283Y696006D03*
X105335Y699820D03*
X105283Y703920D03*
X104871Y709663D03*
X105335Y713820D03*
X128479Y703774D03*
Y695900D03*
X128535Y699920D03*
X128635Y713920D03*
Y709906D03*
X150935Y706920D03*
X150827Y710865D03*
X150671Y703063D03*
X150827Y696865D03*
X174178Y702950D03*
Y710865D03*
X174235Y707020D03*
X174298Y696578D03*
X505906Y706299D03*
X516142Y702362D03*
X660236Y696850D03*
X687019Y696802D03*
X789315Y711220D03*
X789314Y705314D03*
X800449Y705315D03*
X800450Y711222D03*
X858860Y714511D03*
X884308Y707679D03*
Y696261D03*
X884307Y701772D03*
X981899Y714055D03*
X105283Y717820D03*
Y731920D03*
X104871Y724063D03*
X105335Y728020D03*
X128635Y717820D03*
Y728020D03*
X128535Y724420D03*
X128635Y731920D03*
X141935Y727720D03*
X134635Y723020D03*
X160236Y724409D03*
X159843Y730315D03*
X170079Y729528D03*
Y724409D03*
X452362Y726772D03*
X479528Y716142D03*
X509449Y720079D03*
X513386Y724016D03*
X509449D03*
X513386Y720079D03*
X800449Y716732D03*
X800450Y722639D03*
X803740Y724355D03*
X789315Y722638D03*
X789314Y716731D03*
X809647Y724353D03*
X858858Y725645D03*
X852951Y725647D03*
X881059Y728837D03*
X881058Y722930D03*
X892192Y722931D03*
X892194Y728838D03*
X940899Y724055D03*
X950999Y729055D03*
X951099Y719055D03*
X971199D03*
X1004486Y716988D03*
X994299Y724455D03*
X988499Y730555D03*
X1004486Y731988D03*
Y726988D03*
Y721988D03*
Y719488D03*
X987099Y725855D03*
X1032286Y721988D03*
Y729488D03*
Y734488D03*
Y731988D03*
Y726988D03*
Y724488D03*
Y719488D03*
Y716988D03*
X113620Y748703D03*
X113227Y742010D03*
X159843Y736220D03*
X160236Y740945D03*
X170472Y735827D03*
X170079Y741339D03*
X505512Y745669D03*
X503937Y736220D03*
X516142Y741732D03*
Y745669D03*
X803739Y735489D03*
X795669Y737598D03*
X821457Y743362D03*
X815550Y743363D03*
X809646Y735488D03*
X844290Y743363D03*
X835236Y743362D03*
X829329Y743363D03*
X850197Y743362D03*
X857087Y741503D03*
X908661Y754331D03*
X1004486Y754488D03*
Y749488D03*
X989764Y739764D03*
X994299Y739455D03*
X988499Y747855D03*
X1004486Y744488D03*
X1032286Y749488D03*
Y744488D03*
Y741988D03*
Y739488D03*
Y736988D03*
X1226181Y742913D03*
X147669Y760760D03*
X314399Y767434D03*
X323543Y771260D03*
X902756Y765748D03*
X906299D03*
X902756Y770866D03*
X904331Y768110D03*
X906299Y770866D03*
X910236Y765748D03*
X908268Y768504D03*
X910236Y771260D03*
X940499Y774055D03*
X982199Y754955D03*
X970399Y759055D03*
X1004486Y761988D03*
X1032286D03*
Y756988D03*
X147244Y780787D03*
X174803Y781496D03*
X225984Y782871D03*
X214173Y779333D03*
X225984D03*
X214173Y782888D03*
X237795Y779325D03*
Y782845D03*
X249606Y782871D03*
X261417Y779316D03*
Y782854D03*
X249606Y779316D03*
X273228Y782871D03*
Y779333D03*
X292913D03*
Y782888D03*
X314753Y788976D03*
X318283D03*
X906644Y782283D03*
X920866Y777165D03*
X147244Y800787D03*
X182372Y796850D03*
X182895Y808661D03*
X185958Y796850D03*
X200394Y802756D03*
X186399Y808661D03*
X318309Y800787D03*
X314753Y812598D03*
X318336D03*
X314753Y800787D03*
X913014Y796275D03*
X164961Y834252D03*
Y830315D03*
X182854Y820472D03*
X183063Y832283D03*
X186439Y820472D03*
X186518Y832283D03*
X314764D03*
X314727Y822441D03*
X318307Y832283D03*
X318309Y822441D03*
X544882Y834252D03*
X598031D03*
X649213D03*
X164961Y838189D03*
X176772Y846063D03*
X318309Y844094D03*
X314727D03*
X992182Y842349D03*
X1000457Y837735D03*
X1039709Y836992D03*
X182859Y859843D03*
Y871654D03*
X186390Y859843D03*
X186416Y871654D03*
X314779Y855906D03*
X320743Y872676D03*
X318303Y855906D03*
X350570Y868923D03*
X350728Y873907D03*
X372613Y858428D03*
X392713Y871928D03*
X407389Y869028D03*
Y874028D03*
X434294Y860613D03*
X452665Y874028D03*
Y869028D03*
X930867Y865182D03*
Y871182D03*
X958733Y859347D03*
X946667Y865182D03*
Y871182D03*
X971233Y873847D03*
X991838Y872253D03*
X997868Y872449D03*
X1001287Y862922D03*
X991838Y868316D03*
X1003255Y864890D03*
X993807Y866347D03*
Y870284D03*
Y874221D03*
X1010263Y867534D03*
X1013098Y862922D03*
X1018531Y867534D03*
X1022941Y862922D03*
X1006720Y867534D03*
X1022074D03*
X1024909Y864890D03*
X1015067D03*
X1033885Y867534D03*
X1042626Y864890D03*
X1032783Y862922D03*
X1042737Y872449D03*
X1030342Y867534D03*
X1045893Y872253D03*
Y868316D03*
X1044594Y862922D03*
X1038689D03*
X1034752Y864890D03*
X1047862Y874221D03*
Y870284D03*
Y866347D03*
X1224016Y866142D03*
X320930Y876371D03*
X340157Y885433D03*
X350713Y878928D03*
X350613Y883828D03*
X384913Y883928D03*
X401250Y880972D03*
X407181Y884042D03*
X442256Y884036D03*
X452665Y879028D03*
Y884028D03*
X485940Y883976D03*
X538176Y892717D03*
X552756Y890551D03*
X550394Y892913D03*
X555118D03*
X557480Y890945D03*
X548031Y890551D03*
X567336Y892717D03*
X599213Y890551D03*
X603937D03*
X601575Y892913D03*
X606299D03*
X589357Y892717D03*
X608661Y890945D03*
X618517Y892717D03*
X640538D03*
X650394Y890157D03*
X655118D03*
X652756Y892520D03*
X657480D03*
X659843Y890551D03*
X669698Y892717D03*
X930867Y878182D03*
Y885182D03*
X955967Y892182D03*
X946667Y878182D03*
Y885182D03*
X997868Y882292D03*
X991838Y891938D03*
Y884064D03*
X997868Y885835D03*
Y875993D03*
Y892134D03*
X993807Y882095D03*
Y889969D03*
X1022074Y875408D03*
X1018531D03*
X1042737Y882292D03*
Y875993D03*
Y885835D03*
Y892134D03*
X1045893Y891938D03*
Y884064D03*
Y876190D03*
X1047862Y882095D03*
Y889969D03*
X1084499Y882955D03*
X1078103Y893459D03*
X1178085Y886845D03*
X1224270Y886203D03*
X1209750Y894365D03*
X1210084Y876350D03*
X424179Y908307D03*
X434295Y895547D03*
X444216Y908844D03*
X538176Y895276D03*
Y897835D03*
X531102Y903150D03*
X550394Y897638D03*
X548031Y900000D03*
Y895276D03*
X557480D03*
X555118Y897638D03*
X552756Y895276D03*
X557480Y900000D03*
X552756D03*
X567336Y895276D03*
Y897835D03*
X582283Y903150D03*
X574581Y914567D03*
X606299Y897638D03*
X603937Y900000D03*
X601575Y897638D03*
X599213Y900000D03*
Y895276D03*
X589357D03*
Y897835D03*
X603937Y895276D03*
X608661D03*
Y900000D03*
X618517Y895276D03*
Y897835D03*
X627559Y913386D03*
X640538Y895276D03*
X633465Y903150D03*
X640551Y897827D03*
X655118Y894882D03*
X652756Y897244D03*
X659843Y894882D03*
X657480Y897244D03*
X655118Y899606D03*
X650394D03*
Y894882D03*
X659843Y899606D03*
X675197Y913780D03*
X669698Y895276D03*
Y897835D03*
X955967Y904082D03*
Y898182D03*
Y910182D03*
X991838Y903749D03*
X997868Y895678D03*
Y905520D03*
X991838Y899812D03*
Y911623D03*
X997868Y901977D03*
Y911819D03*
X993807Y897843D03*
Y901780D03*
Y909654D03*
X1042737Y905520D03*
Y895678D03*
X1045893Y901780D03*
X1042737Y911819D03*
Y901977D03*
X1047862Y899812D03*
X1065309Y895881D03*
X1080199Y899655D03*
X1078599Y910255D03*
X1178085Y906136D03*
X1224001Y906120D03*
X108031Y934173D03*
X235827Y915748D03*
X265354Y914961D03*
X281035Y931420D03*
X296035Y929320D03*
X321035Y930720D03*
X423035D03*
X465035Y931320D03*
X476046Y929921D03*
X500275Y919918D03*
X509675Y931218D03*
Y920418D03*
X544136Y922047D03*
X593615Y921251D03*
X644882Y921654D03*
X955967Y916182D03*
Y929182D03*
Y922182D03*
X997868Y921662D03*
X991838Y919497D03*
X1005418Y921875D03*
X997868Y915363D03*
X991838Y933276D03*
X997868Y925205D03*
X1005418Y925419D03*
X997868Y931504D03*
X993807Y917528D03*
Y931308D03*
X1010181Y933430D03*
X1006681D03*
X1037733Y928447D03*
X1042737Y921662D03*
X1034881Y933730D03*
X1034917Y921875D03*
X1042737Y915363D03*
Y925205D03*
X1031281Y933630D03*
X1034917Y925419D03*
X1042737Y931504D03*
X1045893Y929339D03*
Y921465D03*
Y917528D03*
X1059673Y931308D03*
X1047862Y919497D03*
Y927371D03*
Y915560D03*
X1066233Y928347D03*
X1047862Y933276D03*
X1076499Y931455D03*
X1078599Y915555D03*
X1220501Y918913D03*
X1224736Y927947D03*
X1223819Y920959D03*
X1211183Y927947D03*
X1216987Y924580D03*
X1222477Y916584D03*
X1235324Y927876D03*
X1236172Y922935D03*
X1226925Y924701D03*
X1237653Y931900D03*
X1243603Y924624D03*
X1230565Y924580D03*
X108031Y954173D03*
Y944173D03*
X270635Y938920D03*
X296335Y942020D03*
X296435Y938520D03*
X310035Y938720D03*
X341119Y947576D03*
X337535Y939020D03*
X413635Y937820D03*
X444835Y939920D03*
X444135Y954320D03*
X444535Y936320D03*
X454735Y938120D03*
X480535Y954220D03*
Y938820D03*
X495675Y942818D03*
X488575Y936918D03*
X534435Y953620D03*
X545735Y947620D03*
X586235Y952620D03*
X575093Y947620D03*
X632235Y944945D03*
X636235Y944820D03*
X628235D03*
X656263Y944349D03*
X677263D03*
X667263D03*
X687263D03*
X955967Y942182D03*
Y935182D03*
Y948182D03*
X1005224Y942725D03*
X997867Y935047D03*
X995381Y942725D03*
X1001287D03*
X1003255Y938788D03*
X1017035Y942725D03*
X1007192Y938788D03*
X1013098Y942725D03*
X1015067Y938788D03*
X1019004D03*
X1024909D03*
X1028846D03*
X1040657D03*
X1044594D03*
X1042737Y935048D03*
X1026878Y942725D03*
X1030815D03*
X1036720Y938788D03*
X1038689Y942725D03*
X1042626D03*
X1059673Y935245D03*
X1047862Y937213D03*
X1063233Y935247D03*
X1076533Y942347D03*
X1073699Y951555D03*
X1201969Y942913D03*
X1205906D03*
X1199213Y943307D03*
X1217323Y942520D03*
X1216987Y935685D03*
X1243648Y935594D03*
X1230610Y935685D03*
X108031Y964173D03*
X270635Y957120D03*
X279235Y966120D03*
X269035Y968720D03*
X305235Y955020D03*
X320335Y965520D03*
X350435Y972620D03*
X421757Y965958D03*
X413535Y957120D03*
X410435Y970520D03*
X463935Y964720D03*
X492175Y974418D03*
X501175D03*
X519175D03*
X510175D03*
X534435Y964620D03*
X557235Y955120D03*
X546735Y972120D03*
X575235Y967120D03*
X586235Y957620D03*
X582735Y962620D03*
X578935Y971120D03*
X586235Y962620D03*
X572735Y957620D03*
X641135Y962520D03*
X636235Y968320D03*
X632235Y968445D03*
X628235Y968320D03*
X1023435Y960720D03*
X1020635Y960820D03*
X1051133Y967847D03*
X1076133Y967947D03*
X1094227Y973853D03*
X1219685Y955118D03*
X1214961Y955512D03*
X1257087Y955118D03*
X1251969D03*
X161417Y991339D03*
X147087Y986850D03*
X330535Y975020D03*
X535435Y989120D03*
Y978120D03*
X558235Y979620D03*
X576235Y991620D03*
X583735Y987120D03*
X573635Y982020D03*
X587735Y976120D03*
Y981120D03*
Y986120D03*
X641435Y986020D03*
X632235Y993445D03*
X628235Y993320D03*
X636235D03*
X1076510Y986057D03*
X1203543Y994094D03*
X1214173D03*
X1225984D03*
X1240551D03*
X1261417D03*
X1251575D03*
X161417Y996850D03*
X218321Y996758D03*
X215195Y1001876D03*
X492535Y1001072D03*
X535935Y1013620D03*
Y1002620D03*
X558735Y1004120D03*
X547235Y996620D03*
X584235Y1011620D03*
X574035Y1006520D03*
X576093Y996620D03*
X587735Y1001120D03*
Y1006120D03*
Y1011120D03*
X640535Y1011020D03*
X681093Y1014180D03*
X675055Y1008573D03*
X678073Y1011304D03*
X1004667Y1006120D03*
X1004467Y1002420D03*
X999467Y1012820D03*
X1009567Y1012920D03*
X1014567Y1006320D03*
X1014367Y1002720D03*
X1024367D03*
X1019467Y1013220D03*
X1024767Y1006020D03*
X1034267Y1006120D03*
X1034367Y1002620D03*
X1029567Y1013020D03*
X1096589Y999837D03*
X231731Y1015239D03*
X260535Y1032120D03*
X280535D03*
X270535D03*
X300535D03*
X290535D03*
X320535D03*
X310535D03*
X340535D03*
X330535D03*
X350535D03*
X402535D03*
X422535D03*
X412535D03*
X442535D03*
X432535D03*
X462535D03*
X452535D03*
X482535D03*
X472535D03*
X492535D03*
X535735Y1027120D03*
X558735Y1028620D03*
X547235Y1021120D03*
X576735Y1016120D03*
X574235Y1031120D03*
X578735Y1020620D03*
X588035Y1025920D03*
Y1030920D03*
X632235Y1018245D03*
X636235Y1018120D03*
X628235D03*
X674435Y1029920D03*
X683536Y1016767D03*
X678935Y1031020D03*
X725369Y1019325D03*
X731274Y1019286D03*
X743085D03*
X737180D03*
X734660Y1019325D03*
X739227Y1019286D03*
X754896Y1019365D03*
X760841Y1019286D03*
X748991D03*
X763400Y1019246D03*
X751510Y1019286D03*
X784424Y1019325D03*
X766707Y1019207D03*
X772613Y1019286D03*
X778597Y1019246D03*
X770093Y1019286D03*
X796235Y1019325D03*
X802140D03*
X790329Y1019286D03*
X808046Y1019325D03*
X819857D03*
X813951D03*
X817063Y1019646D03*
X825802Y1019286D03*
X814835Y1026820D03*
X843479Y1019286D03*
X837573Y1019325D03*
X831668D03*
X855290D03*
X849384D03*
X861235Y1019286D03*
X867061Y1019325D03*
X873006D03*
X878872D03*
X875835Y1019320D03*
X873935Y1027120D03*
X884817Y1019246D03*
X896628Y1019286D03*
X902494Y1019325D03*
X890723D03*
X920250Y1019286D03*
X908439Y1019325D03*
X926156Y1019286D03*
X914306Y1019325D03*
X921035Y1026720D03*
X932061Y1019325D03*
X937928D03*
X929135Y1019420D03*
X1004467Y1017020D03*
X1024667Y1016920D03*
X1014567Y1017020D03*
X1084384Y1026215D03*
X1079266Y1026609D03*
X107874Y1037008D03*
X164173Y1037402D03*
Y1042126D03*
X147087Y1036850D03*
X231735Y1054620D03*
X535735Y1038120D03*
X576735Y1038220D03*
X584235Y1036120D03*
X587935Y1035920D03*
X640935D03*
X600735Y1055820D03*
X613535D03*
X606935Y1055720D03*
X619835D03*
X610135Y1055920D03*
X622835D03*
X644935Y1055720D03*
X632135D03*
X635635Y1055820D03*
X648935D03*
G54D151*
X1042464Y1010731D03*
X981464D03*
G54D152*
X1122867Y203744D03*
G54D153*
X1226804Y106893D02*
Y109649D01*
X555118Y684646D03*
X559055D03*
X551299D03*
X562874D03*
X568898Y691732D03*
X564961D03*
X572717D03*
X561142D03*
X578740Y684646D03*
X582677D03*
X574921D03*
X586496D03*
X609843Y691732D03*
X605906D03*
X613661D03*
X602087D03*
X619685Y684646D03*
X623622D03*
X615866D03*
X627441D03*
X633465Y691732D03*
X629528D03*
X637283D03*
X625709D03*
X643307Y684646D03*
X647244D03*
X639488D03*
X651063D03*
X657087Y691732D03*
X653150D03*
X660906D03*
X649331D03*
X666929Y684646D03*
X670866D03*
X663110D03*
X674685D03*
X680709Y691732D03*
X676772D03*
X684528D03*
X672953D03*
X690551Y684646D03*
X694488D03*
X686732D03*
X698307D03*
X704331Y691732D03*
X700394D03*
X708150D03*
X696575D03*
X714173Y684646D03*
X718110D03*
X710354D03*
X721929D03*
X738189Y692126D03*
X734252D03*
X742008D03*
X730433D03*
X751575Y685039D03*
X755512D03*
X747756D03*
X759331D03*
X766929Y692520D03*
X762992D03*
X770748D03*
X759173D03*
X774542Y993144D03*
X778479D03*
X770723D03*
X782298D03*
X783858Y983465D03*
X779921D03*
X787677D03*
X776102D03*
X791339Y992913D03*
X795276D03*
X787520D03*
X799094D03*
X800526Y983302D03*
X796589D03*
X804345D03*
X792770D03*
X833597Y993144D03*
X837534D03*
X829778D03*
X841353D03*
X842913Y983465D03*
X838976D03*
X846732D03*
X835157D03*
X850394Y992913D03*
X854331D03*
X846575D03*
X858150D03*
X859581Y983302D03*
X855644D03*
X863400D03*
X851825D03*
X721654Y993307D03*
X725591D03*
X717835D03*
X729409D03*
X730709Y983465D03*
X726772D03*
X734528D03*
X722953D03*
X738189Y993307D03*
X742126D03*
X734370D03*
X745945D03*
X747770Y983695D03*
X743833D03*
X751589D03*
X740014D03*
X887140Y993144D03*
X891077D03*
X883321D03*
X894896D03*
X896063Y983465D03*
X892126D03*
X899882D03*
X888307D03*
X903543Y992913D03*
X907480D03*
X899724D03*
X911299D03*
X912731Y983302D03*
X908794D03*
X916550D03*
X904975D03*
G54D159*
X174473Y598538D02*
Y600703D01*
X191796Y598538D02*
Y600703D01*
X268717Y194059D02*
X266552D01*
X268717Y211382D02*
X266552D01*
X1122819Y529247D03*
G54D181*
X470374Y680866D02*
X472539D01*
X470374Y670866D02*
X472539D01*
X470374Y660866D02*
X472539D01*
X487303D02*
X489469D01*
X487303Y670866D02*
X489469D01*
X487303Y680866D02*
X489469D01*
X470374Y735984D02*
X472539D01*
X470374Y725984D02*
X472539D01*
X470374Y715984D02*
X472539D01*
X487303D02*
X489469D01*
X487303Y725984D02*
X489469D01*
X487303Y735984D02*
X489469D01*
X470374Y643465D02*
X472539D01*
X470374Y633465D02*
X472539D01*
X470374Y623465D02*
X472539D01*
X487303D02*
X489469D01*
X487303Y633465D02*
X489469D01*
X487303Y643465D02*
X489469D01*
X470374Y602126D02*
X472539D01*
X470374Y592126D02*
X472539D01*
X470374Y582126D02*
X472539D01*
X487303D02*
X489469D01*
X487303Y592126D02*
X489469D01*
X487303Y602126D02*
X489469D01*
G54D182*
X259940Y506366D02*
X260136D01*
X263483D02*
X263680D01*
X1069335Y242079D02*
X1069138D01*
X1065791D02*
X1065594D01*
X1254857Y931431D02*
Y931628D01*
Y934975D02*
Y935172D01*
X446513Y884098D02*
Y883901D01*
Y880554D02*
Y880357D01*
X1088583Y362500D02*
Y362303D01*
Y358957D02*
Y358760D01*
X1100000Y317618D02*
Y317421D01*
Y314075D02*
Y313878D01*
X1057480Y362500D02*
Y362303D01*
Y358957D02*
Y358760D01*
X1131496Y317618D02*
Y317421D01*
Y314075D02*
Y313878D01*
X497736Y680709D02*
X497933D01*
X501280D02*
X501476D01*
X496949Y736220D02*
X497146D01*
X500492D02*
X500689D01*
X966311Y929182D03*
X962767D03*
X959224D03*
Y922182D03*
X962767D03*
X966311D03*
Y916182D03*
X962767D03*
X959224D03*
X966311Y904082D03*
X962767D03*
X959224D03*
Y910182D03*
X962767D03*
X966311D03*
X935224Y885182D03*
X938767D03*
X942311D03*
X935224Y878182D03*
X938767D03*
X942311D03*
X935224Y871182D03*
X938767D03*
X942311D03*
X935224Y865182D03*
X938767D03*
X942311D03*
X959224Y898182D03*
X962767D03*
X966311D03*
Y892182D03*
X962767D03*
X959224D03*
Y948182D03*
X962767D03*
X966311D03*
Y942182D03*
X962767D03*
X959224D03*
Y935182D03*
X962767D03*
X966311D03*
X537963Y959120D03*
X541506D03*
X652735Y947892D03*
Y944349D03*
X629506Y1045920D03*
X625963D03*
X642206D03*
X638663D03*
X663735Y947892D03*
Y944349D03*
X460236Y680906D03*
Y684449D03*
X542506Y978120D03*
X538963D03*
X542506Y972120D03*
X538963D03*
X541506Y953620D03*
X537963D03*
X541506Y947620D03*
X537963D03*
X538963Y983620D03*
X542506D03*
X637205Y873622D03*
X633661D03*
Y867717D03*
X637205D03*
X582480D03*
X586024D03*
Y873622D03*
X582480D03*
X534843D03*
X531299D03*
Y867717D03*
X534843D03*
X543006Y996620D03*
X539463D03*
X543006Y1002620D03*
X539463D03*
X543006Y1027120D03*
X539463D03*
X543006Y1021120D03*
X539463D03*
Y1008120D03*
X543006D03*
X539463Y1032620D03*
X543006D03*
X673735Y947892D03*
Y944349D03*
X617106Y1045920D03*
X613563D03*
X604306D03*
X600763D03*
X683735Y947892D03*
Y944349D03*
X460236Y735630D03*
Y739173D03*
X543006Y1013620D03*
X539463D03*
X543006Y1038120D03*
X539463D03*
X581963Y996620D03*
X585506D03*
X582463Y1020620D03*
X586006D03*
X993299Y744283D03*
Y747827D03*
X970508Y317942D03*
X966964D03*
X1042770Y403428D03*
X1046313D03*
X1049857D03*
Y409428D03*
X1046313D03*
X1042770D03*
X1049857Y396428D03*
X1046313D03*
X1042770D03*
X1052693Y236079D03*
X1056236D03*
X1024332Y248689D03*
Y245145D03*
X992520Y244291D03*
Y240748D03*
X1008282Y248689D03*
Y245145D03*
X1016159Y248689D03*
Y245145D03*
X1069236Y236079D03*
X1065693D03*
X1009646Y684646D03*
X1006102D03*
X920669Y603937D03*
X917126D03*
Y554724D03*
X920669D03*
X931102Y690354D03*
Y693898D03*
X937008Y690354D03*
Y693898D03*
X919291Y690354D03*
Y693898D03*
X913386Y690354D03*
Y693898D03*
X925197Y690354D03*
Y693898D03*
X1089896Y328380D03*
Y331924D03*
X1081890Y398228D03*
Y401772D03*
X1122047Y356890D03*
Y360433D03*
X925984Y617126D03*
Y613583D03*
X954724Y693898D03*
Y690354D03*
X948819Y693898D03*
Y690354D03*
X1060630Y391535D03*
Y387992D03*
X1101117Y356924D03*
X1097573D03*
X1056236Y242079D03*
X1052693D03*
X942913Y693898D03*
Y690354D03*
X909843Y653740D03*
Y650197D03*
X1019291Y469882D03*
Y466339D03*
X591735Y986120D02*
X595475D01*
X591735Y981120D02*
X595475D01*
X591735Y976120D02*
X595475D01*
X591735Y971120D02*
X595475D01*
X612994D02*
X616735D01*
X612994Y976120D02*
X616735D01*
X612994Y981120D02*
X616735D01*
X612994Y986120D02*
X616735D01*
X590235Y962620D02*
X593975D01*
X590235Y957620D02*
X593975D01*
X590235Y952620D02*
X593975D01*
X590235Y947620D02*
X593975D01*
X611494D02*
X615235D01*
X611494Y952620D02*
X615235D01*
X611494Y957620D02*
X615235D01*
X611494Y962620D02*
X615235D01*
X591735Y1011120D02*
X595475D01*
X591735Y1006120D02*
X595475D01*
X591735Y1001120D02*
X595475D01*
X591735Y996120D02*
X595475D01*
X612994D02*
X616735D01*
X612994Y1001120D02*
X616735D01*
X612994Y1006120D02*
X616735D01*
X612994Y1011120D02*
X616735D01*
X591935Y1035920D02*
X595675D01*
X591935Y1030920D02*
X595675D01*
X591935Y1025920D02*
X595675D01*
X591935Y1020920D02*
X595675D01*
X613194D02*
X616935D01*
X613194Y1025920D02*
X616935D01*
X613194Y1030920D02*
X616935D01*
X613194Y1035920D02*
X616935D01*
X1069780Y261339D02*
X1068205D01*
X1069780Y268819D02*
X1068205D01*
X1060724Y265079D02*
X1059150D01*
X1032324Y248685D03*
Y245141D03*
X1070161Y942347D03*
X1073704D03*
X1070128Y931355D03*
X1073671D03*
Y910155D03*
X1070128D03*
X1073671Y915555D03*
X1070128D03*
X1073671Y923455D03*
X1070128D03*
X962196Y885382D03*
X965739D03*
X961996Y878182D03*
X965539D03*
X961996Y871182D03*
X965539D03*
X961996Y865182D03*
X965539D03*
X1026772Y840748D03*
Y844291D03*
X1022047Y840748D03*
Y844291D03*
X860630Y315157D03*
Y311614D03*
X1003255Y840748D03*
Y844291D03*
X1009161Y840748D03*
Y844291D03*
X1073571Y905755D03*
X1070028D03*
X1131299Y631496D03*
X1127756D03*
X1239272Y425383D03*
X1242815D03*
X1255428Y642296D03*
Y638753D03*
X1260461Y642296D03*
Y638753D03*
X917520Y597638D03*
X921063D03*
X917126Y542913D03*
X920669D03*
X1181825Y906136D03*
X1185369D03*
X917126Y562992D03*
X920669D03*
X917126Y592126D03*
X920669D03*
X905118Y617520D03*
Y613976D03*
X897835Y592520D03*
X901378D03*
X473785Y860628D03*
X470242D03*
X918898Y617520D03*
Y613976D03*
X917126Y587795D03*
X920669D03*
X401313Y877399D03*
Y873856D03*
X887795Y315157D03*
Y311614D03*
X917126Y558661D03*
X920669D03*
X910039Y578346D03*
X913583D03*
X917126Y583071D03*
X920669D03*
X541142Y635433D03*
X544685D03*
X899213Y470276D03*
Y473819D03*
X1208661Y986713D02*
Y986909D01*
Y990256D02*
Y990453D01*
X1220079D02*
Y990256D01*
Y986909D02*
Y986713D01*
X1256693Y990453D02*
Y990256D01*
Y986909D02*
Y986713D01*
X1246063D02*
Y986909D01*
Y990256D02*
Y990453D01*
X331549Y656407D02*
Y656604D01*
Y659950D02*
Y660147D01*
X333479Y313421D02*
Y313618D01*
Y316965D02*
Y317161D01*
X537106Y706299D02*
X537303D01*
X540650D02*
X540846D01*
X537106Y710236D02*
X537303D01*
X540650D02*
X540846D01*
X893307Y473917D02*
Y473720D01*
Y470374D02*
Y470177D01*
X1265354Y639469D02*
Y639665D01*
Y643012D02*
Y643209D01*
X912992Y789075D02*
Y789272D01*
Y792618D02*
Y792815D01*
X1066909Y367028D02*
Y370768D01*
X1071909Y367028D02*
Y370768D01*
X1076909Y367028D02*
Y370768D01*
X1081909Y367028D02*
Y370768D01*
Y388287D02*
Y392028D01*
X1076909Y388287D02*
Y392028D01*
X1071909Y388287D02*
Y392028D01*
X1066909Y388287D02*
Y392028D01*
X324254Y880146D02*
X326223D01*
X324254Y876406D02*
X326223D01*
X324254Y872665D02*
X326223D01*
X334490D02*
X336459D01*
X334490Y876406D02*
X336459D01*
X334490Y880146D02*
X336459D01*
X1102756Y676575D03*
Y680118D03*
X965704Y859347D03*
X962161D03*
X1111417Y676575D03*
Y680118D03*
X1031102Y840748D03*
Y844291D03*
X1120079Y676575D03*
Y680118D03*
X1115748Y676575D03*
Y680118D03*
X934796Y898082D03*
X938339D03*
X934796Y892082D03*
X938339D03*
X934796Y948082D03*
X938339D03*
X934796Y942082D03*
X938339D03*
X934796Y935082D03*
X938339D03*
X934796Y929082D03*
X938339D03*
X934796Y922082D03*
X938339D03*
X934796Y916082D03*
X938339D03*
X934796Y903982D03*
X938339D03*
X934796Y910082D03*
X938339D03*
X1073704Y948347D03*
X1070161D03*
X1017323Y840748D03*
Y844291D03*
X458306Y941720D03*
X454763D03*
X541142Y627559D03*
X544685D03*
X265550Y541799D03*
X262007D03*
X265550Y535894D03*
X262007D03*
X901181Y789173D03*
Y792717D03*
X907087D03*
Y789173D03*
X1039932Y318042D03*
X1043475D03*
X1030171D03*
X1033714D03*
X1020117D03*
X1023660D03*
X905118Y473819D03*
Y470276D03*
X875984Y311220D03*
Y314764D03*
X1107087Y676575D03*
Y680118D03*
X1097638Y676575D03*
Y680118D03*
X985433Y730512D03*
Y734055D03*
Y747835D03*
Y744291D03*
X1225984Y986811D03*
Y990354D03*
X1261417Y986811D03*
Y990354D03*
X990508Y317942D03*
X986964D03*
X980508D03*
X976964D03*
X1000508Y318042D03*
X996964D03*
X954708Y317942D03*
X951164D03*
X1000394Y244291D03*
Y240748D03*
X920669Y538976D03*
X917126D03*
X1088189Y387598D03*
Y391142D03*
X1077165Y397835D03*
Y401378D03*
X917126Y535039D03*
X920669D03*
X917126Y550787D03*
X920669D03*
X1181431Y886845D03*
X1184975D03*
X515505Y925218D02*
X515702D01*
X519048D02*
X519245D01*
X689370Y481988D02*
Y482185D01*
Y485531D02*
Y485728D01*
X705118Y481988D02*
Y482185D01*
Y485531D02*
Y485728D01*
X720866Y481988D02*
Y482185D01*
Y485531D02*
Y485728D01*
X735827Y481988D02*
Y482185D01*
Y485531D02*
Y485728D01*
X441535Y939991D02*
Y939794D01*
Y936447D02*
Y936250D01*
X346161Y889370D02*
X346358D01*
X349705D02*
X349902D01*
X316928Y435598D02*
Y435795D01*
Y439142D02*
Y439339D01*
X322833Y494654D02*
Y494850D01*
Y498197D02*
Y498394D01*
Y504496D02*
Y504693D01*
Y508039D02*
Y508236D01*
X330810Y593412D02*
Y593609D01*
Y596956D02*
Y597153D01*
X299835Y932891D02*
Y932694D01*
Y929347D02*
Y929150D01*
X340935Y942691D02*
Y942494D01*
Y939147D02*
Y938950D01*
X299935Y942191D02*
Y941994D01*
Y938647D02*
Y938450D01*
X1065699Y202225D02*
Y202028D01*
Y198682D02*
Y198485D01*
X775295Y568504D02*
X775492D01*
X778839D02*
X779035D01*
Y548819D02*
X778839D01*
X775492D02*
X775295D01*
X781004Y605906D02*
X780807D01*
X777461D02*
X777264D01*
X798819Y733957D02*
Y734154D01*
Y737500D02*
Y737697D01*
X877657Y653150D02*
X877854D01*
X881201D02*
X881398D01*
X859843Y737894D02*
Y738091D01*
Y741437D02*
Y741634D01*
X657087Y481988D02*
Y482185D01*
Y485531D02*
Y485728D01*
X440535Y950650D02*
Y950847D01*
Y954194D02*
Y954391D01*
X406765Y967020D02*
X406961D01*
X410308D02*
X410505D01*
X483635Y942491D02*
Y942294D01*
Y938947D02*
Y938750D01*
X483935Y950550D02*
Y950747D01*
Y954094D02*
Y954291D01*
X260365Y968720D02*
X260561D01*
X263908D02*
X264105D01*
X301565Y958320D02*
X301761D01*
X305108D02*
X305305D01*
X896299Y433012D02*
Y433209D01*
Y436555D02*
Y436752D01*
X337465Y950420D02*
X337661D01*
X341008D02*
X341205D01*
X1251575Y986713D02*
Y986909D01*
Y990256D02*
Y990453D01*
X1240551Y986713D02*
Y986909D01*
Y990256D02*
Y990453D01*
X1214173Y986713D02*
Y986909D01*
Y990256D02*
Y990453D01*
X1203543Y986713D02*
Y986909D01*
Y990256D02*
Y990453D01*
X377713Y861999D03*
Y858456D03*
X944708Y317942D03*
X941164D03*
X934708D03*
X931164D03*
X274106Y942420D03*
X270563D03*
X313606Y942520D03*
X310063D03*
X492146Y933518D03*
X488603D03*
X501175Y966046D03*
Y969590D03*
X492175Y966046D03*
Y969590D03*
X510175Y966046D03*
Y969590D03*
X519175Y966046D03*
Y969590D03*
X417106Y941120D03*
X413563D03*
X182776Y828346D02*
X182972D01*
X186319D02*
X186516D01*
X182776Y816535D02*
X182972D01*
X186319D02*
X186516D01*
X182776Y804724D02*
X182972D01*
X186319D02*
X186516D01*
X182335Y792913D02*
X182531D01*
X185878D02*
X186075D01*
X216142Y889469D02*
Y889665D01*
Y893012D02*
Y893209D01*
X237795Y889469D02*
Y889665D01*
Y893012D02*
Y893209D01*
X249606Y889469D02*
Y889665D01*
Y893012D02*
Y893209D01*
X273228Y889469D02*
Y889665D01*
Y893012D02*
Y893209D01*
X290945Y887795D03*
Y891339D03*
Y894882D03*
X108676Y741931D03*
Y745475D03*
Y749018D03*
X320079Y771260D03*
X316535D03*
X312992D03*
X1261550Y353971D03*
Y350428D03*
X1267849D03*
Y353971D03*
X109335Y626692D03*
Y623149D03*
X156496Y1037402D03*
X160039D03*
X156496Y1042126D03*
X160039D03*
X154134Y991339D03*
X157677D03*
X1274148Y353971D03*
Y350428D03*
X1274935Y372475D03*
Y376018D03*
X151424Y631894D03*
X147881D03*
Y626994D03*
X151424D03*
X157677Y996850D03*
X154134D03*
X182776Y855906D02*
X182972D01*
X186319D02*
X186516D01*
X318406Y840157D02*
X318209D01*
X314862D02*
X314665D01*
Y851969D02*
X314862D01*
X318209D02*
X318406D01*
X182776Y867717D02*
X182972D01*
X186319D02*
X186516D01*
X261417Y893209D02*
Y893012D01*
Y889665D02*
Y889469D01*
X318406Y796850D02*
X318209D01*
X314862D02*
X314665D01*
Y828346D02*
X314862D01*
X318209D02*
X318406D01*
X225984Y893209D02*
Y893012D01*
Y889665D02*
Y889469D01*
X283071Y893209D02*
Y893012D01*
Y889665D02*
Y889469D01*
X1020099Y203825D02*
Y203628D01*
Y200282D02*
Y200085D01*
X188754Y1003668D02*
Y1003865D01*
Y1007211D02*
Y1007408D01*
X222282Y1002959D02*
Y1003156D01*
Y1006502D02*
Y1006699D01*
X218286Y1013034D02*
X218483D01*
X221829D02*
X222026D01*
X1053299Y182283D03*
Y185827D03*
X460236Y643110D03*
Y639567D03*
X540945Y913189D03*
Y916732D03*
X1048299Y172283D03*
Y175827D03*
X987992Y838189D03*
X991535D03*
X641339Y913189D03*
Y916732D03*
X592126Y913189D03*
Y916732D03*
X987992Y830315D03*
X991535D03*
X466634Y566161D02*
X470374D01*
X466634Y561161D02*
X470374D01*
X466634Y556161D02*
X470374D01*
X466634Y551161D02*
X470374D01*
X487894D02*
X491634D01*
X487894Y556161D02*
X491634D01*
X487894Y561161D02*
X491634D01*
X487894Y566161D02*
X491634D01*
X461417Y554626D02*
Y554429D01*
Y551083D02*
Y550886D01*
X314665Y818504D02*
X314862D01*
X318209D02*
X318406D01*
X314665Y808661D02*
X314862D01*
X318209D02*
X318406D01*
X314665Y785039D02*
X314862D01*
X318209D02*
X318406D01*
X1053099Y202225D02*
Y202028D01*
Y198682D02*
Y198485D01*
X1100299Y202525D02*
Y202328D01*
Y198982D02*
Y198785D01*
X188518Y992644D02*
Y992841D01*
Y996187D02*
Y996384D01*
X222046Y996857D02*
Y996660D01*
Y993313D02*
Y993117D01*
X1293459Y473754D02*
Y470014D01*
X1288459Y473754D02*
Y470014D01*
X1283459Y473754D02*
Y470014D01*
X1278459Y473754D02*
Y470014D01*
Y452494D02*
Y448754D01*
X1283459Y452494D02*
Y448754D01*
X1288459Y452494D02*
Y448754D01*
X1293459Y452494D02*
Y448754D01*
X1294246Y567849D02*
Y564109D01*
X1289246Y567849D02*
Y564109D01*
X1284246Y567849D02*
Y564109D01*
X1279246Y567849D02*
Y564109D01*
Y546589D02*
Y542849D01*
X1284246Y546589D02*
Y542849D01*
X1289246Y546589D02*
Y542849D01*
X1294246Y546589D02*
Y542849D01*
X259366Y270243D02*
Y273983D01*
X264366Y270243D02*
Y273983D01*
X269366Y270243D02*
Y273983D01*
X274366Y270243D02*
Y273983D01*
Y291503D02*
Y295243D01*
X269366Y291503D02*
Y295243D01*
X264366Y291503D02*
Y295243D01*
X259366Y291503D02*
Y295243D01*
X1269424Y372475D03*
Y376018D03*
X1281235D03*
Y372475D03*
X280817Y268435D03*
Y271978D03*
X1028299Y172283D03*
Y175827D03*
X1048299Y185827D03*
Y182283D03*
X1043299Y175827D03*
Y172283D03*
X460236Y601772D03*
Y598228D03*
X1095299Y186827D03*
Y183283D03*
X1100299D03*
Y186827D03*
X1075299Y172283D03*
Y175827D03*
X1070299D03*
Y172283D03*
X338863Y965720D03*
X342406D03*
X1073818Y893459D03*
X1070275D03*
X1252888Y263026D03*
Y259483D03*
X1240290Y184286D03*
Y187829D03*
X129293Y370502D03*
X125750D03*
X330810Y605223D02*
Y605420D01*
Y608767D02*
Y608964D01*
X326770Y439339D02*
Y439142D01*
Y435795D02*
Y435598D01*
X903661Y432697D02*
Y432894D01*
Y436240D02*
Y436437D01*
X235827Y908366D02*
Y908563D01*
Y911909D02*
Y912106D01*
X265354Y907972D02*
Y908169D01*
Y911516D02*
Y911713D01*
X1127953Y356496D03*
Y360039D03*
X818504Y442717D03*
Y446260D03*
X668602Y913780D02*
X668799D01*
X672146D02*
X672343D01*
X567701Y914567D02*
X567898D01*
X571244D02*
X571441D01*
X620965Y913386D02*
X621161D01*
X624508D02*
X624705D01*
X1033299Y172185D02*
Y172382D01*
Y175728D02*
Y175925D01*
X1080299Y172185D02*
Y172382D01*
Y175728D02*
Y175925D01*
X920669Y546850D03*
X917126D03*
X881496Y617520D03*
Y613976D03*
X417206Y953420D03*
X413663D03*
X919094Y628346D03*
X922638D03*
X909921Y418346D03*
Y414803D03*
X1024606Y685039D03*
X1028150D03*
X893307Y617520D03*
Y613976D03*
X919094Y623622D03*
X922638D03*
X919094Y633465D03*
X922638D03*
X887402Y617520D03*
Y613976D03*
X270663Y952920D03*
X274206D03*
X1065699Y191125D02*
Y190928D01*
Y187582D02*
Y187385D01*
X1019799Y191225D02*
Y191028D01*
Y187682D02*
Y187485D01*
X1090299Y175827D03*
Y172283D03*
X1095299D03*
Y175827D03*
X1023299D03*
Y172283D03*
X354951Y883902D02*
X358691D01*
X354951Y878902D02*
X358691D01*
X354951Y873902D02*
X358691D01*
X354951Y868902D02*
X358691D01*
X376211D02*
X379951D01*
X376211Y873902D02*
X379951D01*
X376211Y878902D02*
X379951D01*
X376211Y883902D02*
X379951D01*
X456802Y884002D02*
X460543D01*
X456802Y879002D02*
X460543D01*
X456802Y874002D02*
X460543D01*
X456802Y869002D02*
X460543D01*
X478062D02*
X481802D01*
X478062Y874002D02*
X481802D01*
X478062Y879002D02*
X481802D01*
X478062Y884002D02*
X481802D01*
X1100299Y175925D02*
Y175728D01*
Y172382D02*
Y172185D01*
X1053299Y175925D02*
Y175728D01*
Y172382D02*
Y172185D01*
X1038299Y172283D03*
Y175827D03*
X1085299Y172283D03*
Y175827D03*
X670866Y678642D02*
Y678445D01*
Y675098D02*
Y674902D01*
X197343Y957087D02*
X197539D01*
X200886D02*
X201083D01*
X225197Y927067D02*
Y926870D01*
Y923524D02*
Y923327D01*
X566929Y678642D02*
Y678445D01*
Y675098D02*
Y674902D01*
X562992Y678642D02*
Y678445D01*
Y675098D02*
Y674902D01*
X559055Y678642D02*
Y678445D01*
Y675098D02*
Y674902D01*
X555118Y678642D02*
Y678445D01*
Y675098D02*
Y674902D01*
X631496Y678642D02*
Y678445D01*
Y675098D02*
Y674902D01*
X627559Y678642D02*
Y678445D01*
Y675098D02*
Y674902D01*
X619685Y678642D02*
Y678445D01*
Y675098D02*
Y674902D01*
X623622Y678642D02*
Y678445D01*
Y675098D02*
Y674902D01*
X607874Y678642D02*
Y678445D01*
Y675098D02*
Y674902D01*
X603937Y678642D02*
Y678445D01*
Y675098D02*
Y674902D01*
X578740Y678642D02*
Y678445D01*
Y675098D02*
Y674902D01*
X582677Y678642D02*
Y678445D01*
Y675098D02*
Y674902D01*
X655118Y678642D02*
Y678445D01*
Y675098D02*
Y674902D01*
X651181Y678642D02*
Y678445D01*
Y675098D02*
Y674902D01*
X643307Y678642D02*
Y678445D01*
Y675098D02*
Y674902D01*
X647244Y678642D02*
Y678445D01*
Y675098D02*
Y674902D01*
X678740Y678642D02*
Y678445D01*
Y675098D02*
Y674902D01*
X674803Y678642D02*
Y678445D01*
Y675098D02*
Y674902D01*
X666929Y678642D02*
Y678445D01*
Y675098D02*
Y674902D01*
X738189Y678642D02*
Y678445D01*
Y675098D02*
Y674902D01*
X734252Y678642D02*
Y678445D01*
Y675098D02*
Y674902D01*
X714173Y678642D02*
Y678445D01*
Y675098D02*
Y674902D01*
X718110Y678642D02*
Y678445D01*
Y675098D02*
Y674902D01*
X694488Y678642D02*
Y678445D01*
Y675098D02*
Y674902D01*
X690551Y678642D02*
Y678445D01*
Y675098D02*
Y674902D01*
X702362Y678642D02*
Y678445D01*
Y675098D02*
Y674902D01*
X698425Y678642D02*
Y678445D01*
Y675098D02*
Y674902D01*
X755512Y678642D02*
Y678445D01*
Y675098D02*
Y674902D01*
X751575Y678642D02*
Y678445D01*
Y675098D02*
Y674902D01*
X762992Y679035D02*
Y678839D01*
Y675492D02*
Y675295D01*
X766929Y679035D02*
Y678839D01*
Y675492D02*
Y675295D01*
X537106Y655118D02*
X537303D01*
X540650D02*
X540846D01*
X537106Y659055D02*
X537303D01*
X540650D02*
X540846D01*
X509547Y651181D02*
X509744D01*
X513091D02*
X513287D01*
X509547Y686614D02*
X509744D01*
X513091D02*
X513287D01*
X509547Y646850D02*
X509744D01*
X513091D02*
X513287D01*
X509547Y690551D02*
X509744D01*
X513091D02*
X513287D01*
X509547Y745669D02*
X509744D01*
X513091D02*
X513287D01*
X509547Y702362D02*
X509744D01*
X513091D02*
X513287D01*
X509547Y741732D02*
X509744D01*
X513091D02*
X513287D01*
X509547Y706299D02*
X509744D01*
X513091D02*
X513287D01*
X537106Y682677D02*
X537303D01*
X540650D02*
X540846D01*
X537106Y678740D02*
X537303D01*
X540650D02*
X540846D01*
X537106Y674803D02*
X537303D01*
X540650D02*
X540846D01*
X537106Y670866D02*
X537303D01*
X540650D02*
X540846D01*
X537106Y666929D02*
X537303D01*
X540650D02*
X540846D01*
X537106Y662992D02*
X537303D01*
X540650D02*
X540846D01*
X537106Y714173D02*
X537303D01*
X540650D02*
X540846D01*
X537106Y718110D02*
X537303D01*
X540650D02*
X540846D01*
X537106Y722047D02*
X537303D01*
X540650D02*
X540846D01*
X537106Y725984D02*
X537303D01*
X540650D02*
X540846D01*
X537106Y729921D02*
X537303D01*
X540650D02*
X540846D01*
X537106Y733858D02*
X537303D01*
X540650D02*
X540846D01*
X284349Y532350D02*
X284546D01*
X287892D02*
X288089D01*
X1265453Y607874D02*
X1265650D01*
X1268996D02*
X1269193D01*
X1269094Y601969D03*
X1265551D03*
X284448Y528020D03*
X287991D03*
X775295Y558661D02*
X775492D01*
X778839D02*
X779035D01*
X586220Y485728D02*
Y485531D01*
Y482185D02*
Y481988D01*
X601969Y485728D02*
Y485531D01*
Y482185D02*
Y481988D01*
X617717Y485728D02*
Y485531D01*
Y482185D02*
Y481988D01*
X634252Y485728D02*
Y485531D01*
Y482185D02*
Y481988D01*
X680709Y485728D02*
Y485531D01*
Y482185D02*
Y481988D01*
X697244Y485728D02*
Y485531D01*
Y482185D02*
Y481988D01*
X712992Y485728D02*
Y485531D01*
Y482185D02*
Y481988D01*
X728740Y485728D02*
Y485531D01*
Y482185D02*
Y481988D01*
X556594Y517323D02*
X556398D01*
X553051D02*
X552854D01*
X556594Y525197D02*
X556398D01*
X553051D02*
X552854D01*
X556594Y533071D02*
X556398D01*
X553051D02*
X552854D01*
X556594Y540945D02*
X556398D01*
X553051D02*
X552854D01*
X556594Y548819D02*
X556398D01*
X553051D02*
X552854D01*
X556594Y580315D02*
X556398D01*
X553051D02*
X552854D01*
X556594Y588189D02*
X556398D01*
X553051D02*
X552854D01*
X556594Y596063D02*
X556398D01*
X553051D02*
X552854D01*
X556594Y603937D02*
X556398D01*
X553051D02*
X552854D01*
X556594Y556693D02*
X556398D01*
X553051D02*
X552854D01*
X556594Y509449D02*
X556398D01*
X553051D02*
X552854D01*
X578346Y481988D02*
Y482185D01*
Y485531D02*
Y485728D01*
X594094Y481988D02*
Y482185D01*
Y485531D02*
Y485728D01*
X609843Y481988D02*
Y482185D01*
Y485531D02*
Y485728D01*
X625591Y481988D02*
Y482185D01*
Y485531D02*
Y485728D01*
X641732Y481988D02*
Y482185D01*
Y485531D02*
Y485728D01*
X650000Y481988D02*
Y482185D01*
Y485531D02*
Y485728D01*
X664961Y481988D02*
Y482185D01*
Y485531D02*
Y485728D01*
X672835Y481988D02*
Y482185D01*
Y485531D02*
Y485728D01*
X580963Y947620D03*
X584506D03*
X582463Y971120D03*
X586006D03*
X542506Y989120D03*
X538963D03*
X541506Y964620D03*
X537963D03*
X668504Y441929D03*
Y438386D03*
X816142Y429724D03*
Y426181D03*
X810630Y429724D03*
Y426181D03*
X676772Y442323D03*
Y438780D03*
X1288321Y353971D03*
Y350428D03*
X248051Y213724D03*
X244508D03*
X1281235Y353971D03*
Y350428D03*
X244817Y236057D03*
X241274D03*
X247899Y204626D03*
X244355D03*
X251084Y255124D03*
X247540D03*
X237598Y409843D03*
X241142D03*
X218701Y387795D03*
X215157D03*
X191732Y612402D03*
Y615945D03*
X174148Y623656D03*
Y627199D03*
X103929Y370227D03*
X107472D03*
X137205Y397244D03*
X140748D03*
X541142Y643307D03*
X544685D03*
X541142Y619685D03*
X544685D03*
X540354Y596063D03*
X543898D03*
X540354Y588189D03*
X543898D03*
X552953Y564567D03*
X556496D03*
X552953Y572441D03*
X556496D03*
X777362Y613780D03*
X780906D03*
X777362Y621654D03*
X780906D03*
X1141056Y204925D02*
Y210437D01*
X1150899Y204925D02*
Y210437D01*
X1155820Y204925D02*
Y210437D01*
X1160741Y204925D02*
Y210437D01*
X1164599Y204925D02*
Y210437D01*
X1170584Y204925D02*
Y210437D01*
X1175505Y204925D02*
Y210437D01*
X1180466Y204925D02*
Y210437D01*
X1190308Y204925D02*
Y210437D01*
X1195229Y204925D02*
Y210437D01*
X1200151Y204925D02*
Y210437D01*
X1205072Y204925D02*
Y210437D01*
X1209678Y204925D02*
Y210437D01*
X1216568Y204925D02*
Y210437D01*
X1097593Y326313D02*
Y330054D01*
X1102593Y326313D02*
Y330054D01*
X1107593Y326313D02*
Y330054D01*
X1112593Y326313D02*
Y330054D01*
X1117593Y326313D02*
Y330054D01*
X1122593Y326313D02*
Y330054D01*
X1127593Y326313D02*
Y330054D01*
X1132593Y326313D02*
Y330054D01*
Y347573D02*
Y351313D01*
X1127593Y347573D02*
Y351313D01*
X1122593Y347573D02*
Y351313D01*
X1117593Y347573D02*
Y351313D01*
X1112593Y347573D02*
Y351313D01*
X1107593Y347573D02*
Y351313D01*
X1102593Y347573D02*
Y351313D01*
X1097593Y347573D02*
Y351313D01*
X920664Y530697D03*
X917120D03*
X905118Y859941D02*
Y860138D01*
Y863484D02*
Y863681D01*
X924016Y863583D03*
Y860039D03*
X894882Y863583D03*
Y860039D03*
X229921Y934449D03*
Y937992D03*
X224803D03*
Y934449D03*
X914173Y860039D03*
Y863583D03*
X216831Y929508D02*
X212303D01*
X216831Y934508D02*
X212303D01*
X216831Y939508D02*
X212303D01*
X216831Y944508D02*
X212303D01*
X188484D02*
X183957D01*
X188484Y939508D02*
X183957D01*
X188484Y934508D02*
X183957D01*
X188484Y929508D02*
X183957D01*
X920669Y525591D03*
X917126D03*
X981890Y462795D03*
Y459252D03*
X1105757Y517366D02*
X1105560D01*
X1102214D02*
X1102017D01*
X1104173Y525020D02*
X1103976D01*
X1100630D02*
X1100433D01*
X1141412Y519369D03*
Y522912D03*
X1104756Y529407D03*
Y532950D03*
X1141661Y529467D03*
Y533010D03*
X1036720Y844291D03*
Y840748D03*
X999318Y844291D03*
Y840748D03*
X995381Y845866D03*
Y842323D03*
G54D183*
X629183Y962526D02*
X635286D01*
X629183Y950715D02*
X635286D01*
X629183Y1011026D02*
X635286D01*
X629183Y999215D02*
X635286D01*
X629183Y1035826D02*
X635286D01*
X629183Y1024015D02*
X635286D01*
X1058327Y964896D02*
Y970998D01*
X1070138Y964896D02*
Y970998D01*
X1252233Y334744D02*
X1246131D01*
X1252233Y346555D02*
X1246131D01*
X1060921Y250488D02*
Y251669D01*
X1068008Y250488D02*
Y251669D01*
X629183Y986026D02*
X635286D01*
X629183Y974215D02*
X635286D01*
X141319Y615357D02*
X142500D01*
X141319Y608271D02*
X142500D01*
X159542Y146626D02*
X153439D01*
X159542Y158437D02*
X153439D01*
X187940Y285172D02*
Y279069D01*
X176129Y285172D02*
Y279069D01*
X119546Y472420D02*
X125648D01*
X119546Y460609D02*
X125648D01*
X125040Y285272D02*
Y279169D01*
X113229Y285272D02*
Y279169D01*
X1086027Y945296D02*
Y951398D01*
X1097838Y945296D02*
Y951398D01*
X1086027Y931296D02*
Y937398D01*
X1097838Y931296D02*
Y937398D01*
X918307Y349606D02*
X919488D01*
X918307Y342520D02*
X919488D01*
X268898Y321063D02*
Y319882D01*
X261811Y321063D02*
Y319882D01*
X531693Y889764D02*
X530512D01*
X531693Y896850D02*
X530512D01*
X634055Y889764D02*
X632874D01*
X634055Y896850D02*
X632874D01*
X582874Y889764D02*
X581693D01*
X582874Y896850D02*
X581693D01*
X202597Y892601D02*
Y891420D01*
X195510Y892601D02*
Y891420D01*
X190157Y846654D02*
Y845472D01*
X183071Y846654D02*
Y845472D01*
G54D184*
X1034464Y987731D03*
X1029464Y997731D03*
X1024464Y987731D03*
X1019464Y997731D03*
X1014464Y987731D03*
X1009464Y997731D03*
X1004464Y987731D03*
X999464Y997731D03*
X994464Y987731D03*
X989464Y997731D03*
X1038064Y1038731D03*
X1028064D03*
X995864D03*
X985864D03*
X1169782Y521713D03*
X1171539Y455209D03*
X1116535Y360236D03*
X917323Y439370D03*
X1133858Y357874D03*
X1088976Y401969D03*
X1094488Y391339D03*
X945669Y455512D03*
G54D185*
X482677Y694390D02*
Y694587D01*
X488976Y694390D02*
Y694587D01*
X482283Y747933D02*
Y748130D01*
X488583Y747933D02*
Y748130D01*
X1014469Y493701D02*
X1014665D01*
X1014469Y487402D02*
X1014665D01*
X1131594Y681496D02*
X1131398D01*
X1131594Y687795D02*
X1131398D01*
X1023917Y493701D02*
X1024114D01*
X1023917Y487402D02*
X1024114D01*
X1033366Y493701D02*
X1033563D01*
X1033366Y487402D02*
X1033563D01*
X1053051Y493701D02*
X1053248D01*
X1053051Y487402D02*
X1053248D01*
X1043602Y493701D02*
X1043799D01*
X1043602Y487402D02*
X1043799D01*
X139703Y741176D02*
X144231D01*
X139703Y723065D02*
X144231D01*
X555906Y834350D02*
Y834154D01*
X549606Y834350D02*
Y834154D01*
X660236Y834350D02*
Y834154D01*
X653937Y834350D02*
Y834154D01*
X609055Y834350D02*
Y834154D01*
X602756Y834350D02*
Y834154D01*
X455610Y545669D02*
X455413D01*
X455610Y551969D02*
X455413D01*
X132644Y652849D02*
Y652652D01*
X126345Y652849D02*
Y652652D01*
X655118Y921752D02*
Y921555D01*
X648819Y921752D02*
Y921555D01*
X554373Y922146D02*
Y921949D01*
X548073Y922146D02*
Y921949D01*
X604331Y921358D02*
Y921161D01*
X598031Y921358D02*
Y921161D01*
X997736Y142126D02*
X997539D01*
X997736Y148425D02*
X997539D01*
X967169Y176520D02*
Y176717D01*
X973469Y176520D02*
Y176717D01*
X711024Y196358D02*
Y196555D01*
X717323Y196358D02*
Y196555D01*
X711417Y184154D02*
Y184350D01*
X717717Y184154D02*
Y184350D01*
X648031Y153051D02*
Y153248D01*
X654331Y153051D02*
Y153248D01*
X629134Y173524D02*
Y173720D01*
X635433Y173524D02*
Y173720D01*
X377559Y165650D02*
Y165846D01*
X383858Y165650D02*
Y165846D01*
X377559Y179429D02*
Y179626D01*
X383858Y179429D02*
Y179626D01*
X1115999Y498046D02*
Y498243D01*
X1122298Y498046D02*
Y498243D01*
G54D186*
X651270Y966993D02*
X654223D01*
X651270Y955182D02*
X654223D01*
X662260Y966993D02*
X665212D01*
X662260Y955182D02*
X665212D01*
X912662Y929605D02*
Y932558D01*
X924473Y929605D02*
Y932558D01*
X911662Y917605D02*
Y920558D01*
X923473Y917605D02*
Y920558D01*
X672243Y966993D02*
X675195D01*
X672243Y955182D02*
X675195D01*
X682224Y966993D02*
X685177D01*
X682224Y955182D02*
X685177D01*
X860506Y278168D02*
Y285057D01*
Y294900D02*
Y301790D01*
X868380Y278168D02*
Y285057D01*
Y294900D02*
Y301790D01*
X876254Y278168D02*
Y285057D01*
Y294900D02*
Y301790D01*
X884128Y278168D02*
Y285057D01*
Y294900D02*
Y301790D01*
X892002Y278168D02*
Y285057D01*
Y294900D02*
Y301790D01*
X899876Y278168D02*
Y285057D01*
Y294900D02*
Y301790D01*
X907750Y278168D02*
Y285057D01*
Y294900D02*
Y301790D01*
X954331Y846063D02*
X961220D01*
X971063D02*
X977953D01*
X954331Y838189D02*
X961220D01*
X971063D02*
X977953D01*
X954331Y830315D02*
X961220D01*
X971063D02*
X977953D01*
X954331Y822441D02*
X961220D01*
X971063D02*
X977953D01*
X954331Y814567D02*
X961220D01*
X971063D02*
X977953D01*
X954331Y806693D02*
X961220D01*
X971063D02*
X977953D01*
X954331Y798819D02*
X961220D01*
X971063D02*
X977953D01*
X1023487Y235039D02*
X1025061D01*
X1023487Y227952D02*
X1025061D01*
X1031653Y235039D02*
X1033228D01*
X1031653Y227952D02*
X1033228D01*
X1015371Y235039D02*
X1016946D01*
X1015371Y227952D02*
X1016946D01*
X1007494Y235039D02*
X1009069D01*
X1007494Y227952D02*
X1009069D01*
X999606Y235039D02*
X1001181D01*
X999606Y227953D02*
X1001181D01*
X991732Y235039D02*
X993307D01*
X991732Y227953D02*
X993307D01*
X911662Y893605D02*
Y896558D01*
X923473Y893605D02*
Y896558D01*
X519984Y953278D02*
X518409D01*
X519984Y960365D02*
X518409D01*
X492984Y953278D02*
X491409D01*
X492984Y960365D02*
X491409D01*
X501984Y953278D02*
X500409D01*
X501984Y960365D02*
X500409D01*
X510984Y953278D02*
X509409D01*
X510984Y960365D02*
X509409D01*
X1058946Y165737D02*
Y166131D01*
G54D187*
X982586Y939182D02*
X989279D01*
X901181Y506496D02*
Y502165D01*
X899213Y506496D02*
Y502165D01*
X897244Y506496D02*
Y502165D01*
X895276Y506496D02*
Y502165D01*
X893307Y506496D02*
Y502165D01*
Y489173D02*
Y484843D01*
X895276Y489173D02*
Y484843D01*
X897244Y489173D02*
Y484843D01*
X899213Y489173D02*
Y484843D01*
X901181Y489173D02*
Y484843D01*
X902756Y757677D02*
Y762008D01*
X904724Y757677D02*
Y762008D01*
X906693Y757677D02*
Y762008D01*
X908661Y757677D02*
Y762008D01*
X910630Y757677D02*
Y762008D01*
Y775000D02*
Y779331D01*
X908661Y775000D02*
Y779331D01*
X906693Y775000D02*
Y779331D01*
X904724Y775000D02*
Y779331D01*
X902756Y775000D02*
Y779331D01*
X1242715Y437424D02*
X1243502D01*
X1242715Y435455D02*
X1243502D01*
X1242715Y433487D02*
X1243502D01*
X1242715Y431518D02*
X1243502D01*
X1246652D02*
X1247439D01*
X1246652Y433487D02*
X1247439D01*
X1246652Y435455D02*
X1247439D01*
X1246652Y437424D02*
X1247439D01*
X1242715Y493019D02*
X1243502D01*
X1242715Y491050D02*
X1243502D01*
X1242715Y489082D02*
X1243502D01*
X1242715Y487113D02*
X1243502D01*
X1246652D02*
X1247439D01*
X1246652Y489082D02*
X1247439D01*
X1246652Y491050D02*
X1247439D01*
X1246652Y493019D02*
X1247439D01*
X1242715Y504589D02*
X1243502D01*
X1242715Y502620D02*
X1243502D01*
X1242715Y500652D02*
X1243502D01*
X1242715Y498683D02*
X1243502D01*
X1246652D02*
X1247439D01*
X1246652Y500652D02*
X1247439D01*
X1246652Y502620D02*
X1247439D01*
X1246652Y504589D02*
X1247439D01*
X1242715Y515594D02*
X1243502D01*
X1242715Y513625D02*
X1243502D01*
X1242715Y511657D02*
X1243502D01*
X1242715Y509688D02*
X1243502D01*
X1246652D02*
X1247439D01*
X1246652Y511657D02*
X1247439D01*
X1246652Y513625D02*
X1247439D01*
X1246652Y515594D02*
X1247439D01*
X1242715Y532808D02*
X1243502D01*
X1242715Y530839D02*
X1243502D01*
X1242715Y528871D02*
X1243502D01*
X1242715Y526902D02*
X1243502D01*
X1246652D02*
X1247439D01*
X1246652Y528871D02*
X1247439D01*
X1246652Y530839D02*
X1247439D01*
X1246652Y532808D02*
X1247439D01*
X1242715Y457884D02*
X1243502D01*
X1242715Y455915D02*
X1243502D01*
X1242715Y453947D02*
X1243502D01*
X1242715Y451978D02*
X1243502D01*
X1246652D02*
X1247439D01*
X1246652Y453947D02*
X1247439D01*
X1246652Y455915D02*
X1247439D01*
X1246652Y457884D02*
X1247439D01*
X1242715Y447388D02*
X1243502D01*
X1242715Y445419D02*
X1243502D01*
X1242715Y443451D02*
X1243502D01*
X1242715Y441482D02*
X1243502D01*
X1246652D02*
X1247439D01*
X1246652Y443451D02*
X1247439D01*
X1246652Y445419D02*
X1247439D01*
X1246652Y447388D02*
X1247439D01*
X325589Y447193D02*
X324802D01*
X325589Y449161D02*
X324802D01*
X325589Y451130D02*
X324802D01*
X325589Y453098D02*
X324802D01*
X321652D02*
X320865D01*
X321652Y451130D02*
X320865D01*
X321652Y449161D02*
X320865D01*
X321652Y447193D02*
X320865D01*
X325589Y470421D02*
X324802D01*
X325589Y472390D02*
X324802D01*
X325589Y474358D02*
X324802D01*
X325589Y476327D02*
X324802D01*
X321652D02*
X320865D01*
X321652Y474358D02*
X320865D01*
X321652Y472390D02*
X320865D01*
X321652Y470421D02*
X320865D01*
X325589Y483413D02*
X324802D01*
X325589Y485382D02*
X324802D01*
X325589Y487350D02*
X324802D01*
X325589Y489319D02*
X324802D01*
X321652D02*
X320865D01*
X321652Y487350D02*
X320865D01*
X321652Y485382D02*
X320865D01*
X321652Y483413D02*
X320865D01*
X325589Y516091D02*
X324802D01*
X325589Y518059D02*
X324802D01*
X325589Y520028D02*
X324802D01*
X325589Y521996D02*
X324802D01*
X321652D02*
X320865D01*
X321652Y520028D02*
X320865D01*
X321652Y518059D02*
X320865D01*
X321652Y516091D02*
X320865D01*
X325589Y535382D02*
X324802D01*
X325589Y537350D02*
X324802D01*
X325589Y539319D02*
X324802D01*
X325589Y541287D02*
X324802D01*
X321652D02*
X320865D01*
X321652Y539319D02*
X320865D01*
X321652Y537350D02*
X320865D01*
X321652Y535382D02*
X320865D01*
X325589Y554673D02*
X324802D01*
X325589Y556642D02*
X324802D01*
X325589Y558610D02*
X324802D01*
X325589Y560579D02*
X324802D01*
X321652D02*
X320865D01*
X321652Y558610D02*
X320865D01*
X321652Y556642D02*
X320865D01*
X321652Y554673D02*
X320865D01*
X325589Y457823D02*
X324802D01*
X325589Y459791D02*
X324802D01*
X325589Y461760D02*
X324802D01*
X325589Y463728D02*
X324802D01*
X321652D02*
X320865D01*
X321652Y461760D02*
X320865D01*
X321652Y459791D02*
X320865D01*
X321652Y457823D02*
X320865D01*
X1251131Y604535D02*
Y608865D01*
X1253100Y604535D02*
Y608865D01*
X1255068Y604535D02*
Y608865D01*
X1257037Y604535D02*
Y608865D01*
X1259005Y604535D02*
Y608865D01*
Y621858D02*
Y626188D01*
X1257037Y621858D02*
Y626188D01*
X1255068Y621858D02*
Y626188D01*
X1253100Y621858D02*
Y626188D01*
X1251131Y621858D02*
Y626188D01*
X274605Y520146D02*
X270274D01*
X274605Y522114D02*
X270274D01*
X274605Y524083D02*
X270274D01*
X274605Y526051D02*
X270274D01*
X274605Y528020D02*
X270274D01*
X257282D02*
X252951D01*
X257282Y526051D02*
X252951D01*
X257282Y524083D02*
X252951D01*
X257282Y522114D02*
X252951D01*
X257282Y520146D02*
X252951D01*
X1003737Y446272D02*
Y441548D01*
X1001768Y446272D02*
Y441548D01*
X999800Y446272D02*
Y441548D01*
X997831Y446272D02*
Y441548D01*
X995863Y446272D02*
Y441548D01*
X993894Y446272D02*
Y441548D01*
X991926Y446272D02*
Y441548D01*
X989957Y446272D02*
Y441548D01*
X987989Y446272D02*
Y441548D01*
X986020Y446272D02*
Y441548D01*
X984052Y446272D02*
Y441548D01*
X982083Y446272D02*
Y441548D01*
X980115Y446272D02*
Y441548D01*
X978146Y446272D02*
Y441548D01*
X976178Y446272D02*
Y441548D01*
X974209Y446272D02*
Y441548D01*
X972241Y446272D02*
Y441548D01*
X970272Y446272D02*
Y441548D01*
X968304Y446272D02*
Y441548D01*
X966335Y446272D02*
Y441548D01*
X964367Y446272D02*
Y441548D01*
X962398Y446272D02*
Y441548D01*
X960430Y446272D02*
Y441548D01*
X958461Y446272D02*
Y441548D01*
X956493Y446272D02*
Y441548D01*
X954524Y446272D02*
Y441548D01*
X952556Y446272D02*
Y441548D01*
X950587Y446272D02*
Y441548D01*
X948619Y446272D02*
Y441548D01*
X946650Y446272D02*
Y441548D01*
X944682Y446272D02*
Y441548D01*
X942713Y446272D02*
Y441548D01*
X940745Y446272D02*
Y441548D01*
X938776Y446272D02*
Y441548D01*
X936808Y446272D02*
Y441548D01*
X934839Y446272D02*
Y441548D01*
X924800Y436233D02*
X929524D01*
X924800Y434264D02*
X929524D01*
X924800Y432296D02*
X929524D01*
X924800Y430327D02*
X929524D01*
X924800Y428359D02*
X929524D01*
X924800Y426390D02*
X929524D01*
X924800Y424422D02*
X929524D01*
X924800Y422453D02*
X929524D01*
X924800Y420485D02*
X929524D01*
X924800Y418516D02*
X929524D01*
X924800Y416548D02*
X929524D01*
X924800Y414579D02*
X929524D01*
X924800Y412611D02*
X929524D01*
X924800Y410642D02*
X929524D01*
X924800Y408674D02*
X929524D01*
X924800Y406705D02*
X929524D01*
X924800Y404737D02*
X929524D01*
X924800Y402768D02*
X929524D01*
X924800Y400800D02*
X929524D01*
X924800Y398831D02*
X929524D01*
X924800Y396863D02*
X929524D01*
X924800Y394894D02*
X929524D01*
X924800Y392926D02*
X929524D01*
X924800Y390957D02*
X929524D01*
X924800Y388989D02*
X929524D01*
X924800Y387020D02*
X929524D01*
X924800Y385052D02*
X929524D01*
X924800Y383083D02*
X929524D01*
X924800Y381115D02*
X929524D01*
X924800Y379146D02*
X929524D01*
X924800Y377178D02*
X929524D01*
X924800Y375209D02*
X929524D01*
X924800Y373241D02*
X929524D01*
X924800Y371272D02*
X929524D01*
X924800Y369304D02*
X929524D01*
X924800Y367335D02*
X929524D01*
X934839Y362020D02*
Y357296D01*
X936808Y362020D02*
Y357296D01*
X938776Y362020D02*
Y357296D01*
X940745Y362020D02*
Y357296D01*
X942713Y362020D02*
Y357296D01*
X944682Y362020D02*
Y357296D01*
X946650Y362020D02*
Y357296D01*
X948619Y362020D02*
Y357296D01*
X950587Y362020D02*
Y357296D01*
X952556Y362020D02*
Y357296D01*
X954524Y362020D02*
Y357296D01*
X956493Y362020D02*
Y357296D01*
X958461Y362020D02*
Y357296D01*
X960430Y362020D02*
Y357296D01*
X962398Y362020D02*
Y357296D01*
X964367Y362020D02*
Y357296D01*
X966335Y362020D02*
Y357296D01*
X968304Y362020D02*
Y357296D01*
X970272Y362020D02*
Y357296D01*
X972241Y362020D02*
Y357296D01*
X974209Y362020D02*
Y357296D01*
X976178Y362020D02*
Y357296D01*
X978146Y362020D02*
Y357296D01*
X980115Y362020D02*
Y357296D01*
X982083Y362020D02*
Y357296D01*
X984052Y362020D02*
Y357296D01*
X986020Y362020D02*
Y357296D01*
X987989Y362020D02*
Y357296D01*
X989957Y362020D02*
Y357296D01*
X991926Y362020D02*
Y357296D01*
X993894Y362020D02*
Y357296D01*
X995863Y362020D02*
Y357296D01*
X997831Y362020D02*
Y357296D01*
X999800Y362020D02*
Y357296D01*
X1001768Y362020D02*
Y357296D01*
X1003737Y362020D02*
Y357296D01*
X1009052Y367335D02*
X1013776D01*
X1009052Y369304D02*
X1013776D01*
X1009052Y371272D02*
X1013776D01*
X1009052Y373241D02*
X1013776D01*
X1009052Y375209D02*
X1013776D01*
X1009052Y377178D02*
X1013776D01*
X1009052Y379146D02*
X1013776D01*
X1009052Y381115D02*
X1013776D01*
X1009052Y383083D02*
X1013776D01*
X1009052Y385052D02*
X1013776D01*
X1009052Y387020D02*
X1013776D01*
X1009052Y388989D02*
X1013776D01*
X1009052Y390957D02*
X1013776D01*
X1009052Y392926D02*
X1013776D01*
X1009052Y394894D02*
X1013776D01*
X1009052Y396863D02*
X1013776D01*
X1009052Y398831D02*
X1013776D01*
X1009052Y400800D02*
X1013776D01*
X1009052Y402768D02*
X1013776D01*
X1009052Y404737D02*
X1013776D01*
X1009052Y406705D02*
X1013776D01*
X1009052Y408674D02*
X1013776D01*
X1009052Y410642D02*
X1013776D01*
X1009052Y412611D02*
X1013776D01*
X1009052Y414579D02*
X1013776D01*
X1009052Y416548D02*
X1013776D01*
X1009052Y418516D02*
X1013776D01*
X1009052Y420485D02*
X1013776D01*
X1009052Y422453D02*
X1013776D01*
X1009052Y424422D02*
X1013776D01*
X1009052Y426390D02*
X1013776D01*
X1009052Y428359D02*
X1013776D01*
X1009052Y430327D02*
X1013776D01*
X1009052Y432296D02*
X1013776D01*
X1009052Y434264D02*
X1013776D01*
X1009052Y436233D02*
X1013776D01*
X203416Y991518D02*
Y994077D01*
X205384Y991518D02*
Y994077D01*
X207353Y991518D02*
Y994077D01*
X212176Y996341D02*
X209617D01*
X212176Y998309D02*
X209617D01*
X212176Y1000278D02*
X209617D01*
X207353Y1002542D02*
Y1005101D01*
X205384Y1002542D02*
Y1005101D01*
X203416Y1002542D02*
Y1005101D01*
X201152Y1000278D02*
X198593D01*
X201152Y998309D02*
X198593D01*
X201152Y996341D02*
X198593D01*
X1028508Y193024D02*
X1031067D01*
X1028508Y191055D02*
X1031067D01*
X1028508Y189087D02*
X1031067D01*
X1033331Y184264D02*
Y186823D01*
X1035299Y184264D02*
Y186823D01*
X1037268Y184264D02*
Y186823D01*
X1039531Y189087D02*
X1042091D01*
X1039531Y191055D02*
X1042091D01*
X1039531Y193024D02*
X1042091D01*
X1037268Y195287D02*
Y197846D01*
X1035299Y195287D02*
Y197846D01*
X1033331Y195287D02*
Y197846D01*
X1075508Y193024D02*
X1078067D01*
X1075508Y191055D02*
X1078067D01*
X1075508Y189087D02*
X1078067D01*
X1080331Y184264D02*
Y186823D01*
X1082299Y184264D02*
Y186823D01*
X1084268Y184264D02*
Y186823D01*
X1086531Y189087D02*
X1089091D01*
X1086531Y191055D02*
X1089091D01*
X1086531Y193024D02*
X1089091D01*
X1084268Y195287D02*
Y197846D01*
X1082299Y195287D02*
Y197846D01*
X1080331Y195287D02*
Y197846D01*
X1111500Y538105D02*
X1112091D01*
X1111500Y536136D02*
X1112091D01*
X1111500Y534168D02*
X1112091D01*
X1111500Y532199D02*
X1112091D01*
X1111500Y530231D02*
X1112091D01*
X1111500Y528262D02*
X1112091D01*
X1111500Y526294D02*
X1112091D01*
X1111500Y524325D02*
X1112091D01*
X1111500Y522357D02*
X1112091D01*
X1111500Y520388D02*
X1112091D01*
X1113961Y517928D02*
Y518518D01*
X1115929Y517928D02*
Y518518D01*
X1117898Y517928D02*
Y518518D01*
X1119866Y517928D02*
Y518518D01*
X1121835Y517928D02*
Y518518D01*
X1123803Y517928D02*
Y518518D01*
X1125772Y517928D02*
Y518518D01*
X1127740Y517928D02*
Y518518D01*
X1129709Y517928D02*
Y518518D01*
X1131677Y517928D02*
Y518518D01*
X1133547Y520388D02*
X1134138D01*
X1133547Y522357D02*
X1134138D01*
X1133547Y524325D02*
X1134138D01*
X1133547Y526294D02*
X1134138D01*
X1133547Y528262D02*
X1134138D01*
X1133547Y530231D02*
X1134138D01*
X1133547Y532199D02*
X1134138D01*
X1133547Y534168D02*
X1134138D01*
X1133547Y536136D02*
X1134138D01*
X1133547Y538105D02*
X1134138D01*
X1131677Y539975D02*
Y540566D01*
X1129709Y539975D02*
Y540566D01*
X1127740Y539975D02*
Y540566D01*
X1125772Y539975D02*
Y540566D01*
X1123803Y539975D02*
Y540566D01*
X1121835Y539975D02*
Y540566D01*
X1119866Y539975D02*
Y540566D01*
X1117898Y539975D02*
Y540566D01*
X1115929Y539975D02*
Y540566D01*
X1113961Y539975D02*
Y540566D01*
G54D188*
X982586Y937213D02*
X989279D01*
X982586Y935245D02*
X989279D01*
X982586Y933276D02*
X989279D01*
X982586Y931308D02*
X989279D01*
X982586Y929339D02*
X989279D01*
X982586Y927371D02*
X989279D01*
X982586Y925402D02*
X989279D01*
X982586Y923434D02*
X989279D01*
X982586Y921465D02*
X989279D01*
X982586Y919497D02*
X989279D01*
X982586Y917528D02*
X989279D01*
X982586Y915560D02*
X989279D01*
X982586Y913591D02*
X989279D01*
X982586Y911623D02*
X989279D01*
X982586Y909654D02*
X989279D01*
X982586Y907686D02*
X989279D01*
X982586Y905717D02*
X989279D01*
X982586Y903749D02*
X989279D01*
X982586Y901780D02*
X989279D01*
X982586Y899812D02*
X989279D01*
X982586Y897843D02*
X989279D01*
X982586Y895875D02*
X989279D01*
X982586Y893906D02*
X989279D01*
X982586Y891938D02*
X989279D01*
X982586Y889969D02*
X989279D01*
X982586Y888001D02*
X989279D01*
X982586Y886032D02*
X989279D01*
X982586Y884064D02*
X989279D01*
X982586Y882095D02*
X989279D01*
X982586Y880127D02*
X989279D01*
X982586Y878158D02*
X989279D01*
X982586Y876190D02*
X989279D01*
X982586Y874221D02*
X989279D01*
X982586Y872253D02*
X989279D01*
X982586Y870284D02*
X989279D01*
X982586Y868316D02*
X989279D01*
X982586Y866347D02*
X989279D01*
X995381Y860363D02*
Y853670D01*
X997350Y860363D02*
Y853670D01*
X999318Y860363D02*
Y853670D01*
X1001287Y860363D02*
Y853670D01*
X1003255Y860363D02*
Y853670D01*
X1005224Y860363D02*
Y853670D01*
X1007192Y860363D02*
Y853670D01*
X1009161Y860363D02*
Y853670D01*
X1011129Y860363D02*
Y853670D01*
X1013098Y860363D02*
Y853670D01*
X1015067Y860363D02*
Y853670D01*
X1017035Y860363D02*
Y853670D01*
X1019004Y860363D02*
Y853670D01*
X1020972Y860363D02*
Y853670D01*
X1022941Y860363D02*
Y853670D01*
X1024909Y860363D02*
Y853670D01*
X1026878Y860363D02*
Y853670D01*
X1028846Y860363D02*
Y853670D01*
X1030815Y860363D02*
Y853670D01*
X1032783Y860363D02*
Y853670D01*
X1034752Y860363D02*
Y853670D01*
X1036720Y860363D02*
Y853670D01*
X1038689Y860363D02*
Y853670D01*
X1040657Y860363D02*
Y853670D01*
X1042626Y860363D02*
Y853670D01*
X1044594Y860363D02*
Y853670D01*
X1050421Y866347D02*
X1057114D01*
X1050421Y868316D02*
X1057114D01*
X1050421Y870284D02*
X1057114D01*
X1050421Y872253D02*
X1057114D01*
X1050421Y874221D02*
X1057114D01*
X1050421Y876190D02*
X1057114D01*
X1050421Y878158D02*
X1057114D01*
X1050421Y880127D02*
X1057114D01*
X1050421Y882095D02*
X1057114D01*
X1050421Y884064D02*
X1057114D01*
X1050421Y886032D02*
X1057114D01*
X1050421Y888001D02*
X1057114D01*
X1050421Y889969D02*
X1057114D01*
X1050421Y891938D02*
X1057114D01*
X1050421Y893906D02*
X1057114D01*
X1050421Y895875D02*
X1057114D01*
X1050421Y897843D02*
X1057114D01*
X1050421Y899812D02*
X1057114D01*
X1050421Y901780D02*
X1057114D01*
X1050421Y903749D02*
X1057114D01*
X1050421Y905717D02*
X1057114D01*
X1050421Y907686D02*
X1057114D01*
X1050421Y909654D02*
X1057114D01*
X1050421Y911623D02*
X1057114D01*
X1050421Y913591D02*
X1057114D01*
X1050421Y915560D02*
X1057114D01*
X1050421Y917528D02*
X1057114D01*
X1050421Y919497D02*
X1057114D01*
X1050421Y921465D02*
X1057114D01*
X1050421Y923434D02*
X1057114D01*
X1050421Y925402D02*
X1057114D01*
X1050421Y927371D02*
X1057114D01*
X1050421Y929339D02*
X1057114D01*
X1050421Y931308D02*
X1057114D01*
X1050421Y933276D02*
X1057114D01*
X1050421Y935245D02*
X1057114D01*
X1050421Y937213D02*
X1057114D01*
X1050421Y939182D02*
X1057114D01*
X1044594Y951977D02*
Y945284D01*
X1042626Y951977D02*
Y945284D01*
X1040657Y951977D02*
Y945284D01*
X1038689Y951977D02*
Y945284D01*
X1036720Y951977D02*
Y945284D01*
X1034752Y951977D02*
Y945284D01*
X1032783Y951977D02*
Y945284D01*
X1030815Y951977D02*
Y945284D01*
X1028846Y951977D02*
Y945284D01*
X1026878Y951977D02*
Y945284D01*
X1024909Y951977D02*
Y945284D01*
X1022941Y951977D02*
Y945284D01*
X1020972Y951977D02*
Y945284D01*
X1019004Y951977D02*
Y945284D01*
X1017035Y951977D02*
Y945284D01*
X1015067Y951977D02*
Y945284D01*
X1013098Y951977D02*
Y945284D01*
X1011129Y951977D02*
Y945284D01*
X1009161Y951977D02*
Y945284D01*
X1007192Y951977D02*
Y945284D01*
X1005224Y951977D02*
Y945284D01*
X1003255Y951977D02*
Y945284D01*
X1001287Y951977D02*
Y945284D01*
X999318Y951977D02*
Y945284D01*
X997350Y951977D02*
Y945284D01*
X995381Y951977D02*
Y945284D01*
X518209Y719094D02*
X516043D01*
X518209Y721063D02*
X516043D01*
X518209Y723031D02*
X516043D01*
X518209Y725000D02*
X516043D01*
X514370Y728839D02*
Y726673D01*
X512402Y728839D02*
Y726673D01*
X510433Y728839D02*
Y726673D01*
X508465Y728839D02*
Y726673D01*
X506791Y725000D02*
X504626D01*
X506791Y723031D02*
X504626D01*
X506791Y721063D02*
X504626D01*
X506791Y719094D02*
X504626D01*
X508465Y717421D02*
Y715256D01*
X510433Y717421D02*
Y715256D01*
X512402Y717421D02*
Y715256D01*
X514370Y717421D02*
Y715256D01*
X518209Y663976D02*
X516043D01*
X518209Y665945D02*
X516043D01*
X518209Y667913D02*
X516043D01*
X518209Y669882D02*
X516043D01*
X514370Y673720D02*
Y671555D01*
X512402Y673720D02*
Y671555D01*
X510433Y673720D02*
Y671555D01*
X508465Y673720D02*
Y671555D01*
X506791Y669882D02*
X504626D01*
X506791Y667913D02*
X504626D01*
X506791Y665945D02*
X504626D01*
X506791Y663976D02*
X504626D01*
X508465Y662303D02*
Y660138D01*
X510433Y662303D02*
Y660138D01*
X512402Y662303D02*
Y660138D01*
X514370Y662303D02*
Y660138D01*
X214173Y105118D03*
X218504D03*
X236220Y112205D03*
X292520Y109055D03*
X294882D03*
X297244D03*
X643307Y153150D03*
X941804Y153207D03*
X997638Y137402D03*
X372835Y165748D03*
X403282Y166372D03*
X441865Y166766D03*
X463124Y165979D03*
X482971D03*
X503282D03*
X543439D03*
X564190Y165701D03*
X583875D03*
X622441Y173622D03*
X734778Y165979D03*
X774935Y155743D03*
Y165979D03*
X795408D03*
Y155743D03*
X815880Y165979D03*
Y155743D03*
X835565Y154955D03*
Y165191D03*
X875723Y155743D03*
Y165979D03*
X894739D03*
Y155743D03*
X913518Y162435D03*
X916668Y155743D03*
X1023228Y155118D03*
X372835Y179528D03*
X706693Y184252D03*
X962445Y176618D03*
X1243833Y188026D03*
X218898Y213780D03*
X213039Y213718D03*
X345662Y199606D03*
X706299Y196457D03*
X1033299Y202055D03*
X1037299D03*
X245669Y231496D03*
X591375Y229624D03*
X588711Y229612D03*
X597281Y229624D03*
X594617Y229612D03*
X603186Y229624D03*
X600522Y229612D03*
X612334D03*
X614997Y229624D03*
X620903D03*
X618239Y229612D03*
X606428D03*
X609092Y229624D03*
X624145Y229612D03*
X632714Y229624D03*
X630050Y229612D03*
X635956D03*
X638619Y229624D03*
X644525D03*
X641861Y229612D03*
X626808Y229624D03*
X685168Y229612D03*
X681926Y229624D03*
X679263Y229612D03*
X670115Y229624D03*
X667452Y229612D03*
X676021Y229624D03*
X673357Y229612D03*
X687832Y229624D03*
X705549D03*
X702885Y229612D03*
X696979D03*
X699643Y229624D03*
X693737D03*
X691074Y229612D03*
X723228Y229528D03*
X720472D03*
X711454Y229624D03*
X708790Y229612D03*
X714696D03*
X717360Y229624D03*
X1026031Y222130D03*
X1027701Y223800D03*
X1160762Y215979D03*
X1175723Y215191D03*
X1182022Y216766D03*
X1209636Y234646D03*
X1216922D03*
X235039Y235827D03*
X236614Y252756D03*
X353446Y238497D03*
X588583Y254331D03*
X591339D03*
X600394D03*
X603150D03*
X606299D03*
X597244D03*
X594488D03*
X618110D03*
X620866D03*
X624016D03*
X609055D03*
X641732D03*
X644488D03*
X629921D03*
X632677D03*
X626772D03*
X667323D03*
X670079D03*
X685039D03*
X675984D03*
X673228D03*
X693701D03*
X690945D03*
X687795D03*
X702756D03*
X705512D03*
X723228Y253150D03*
X720472D03*
X708661Y254331D03*
X711417D03*
X233071Y271260D03*
X244882Y266142D03*
X679134Y259449D03*
X681890D03*
X696850D03*
X699606D03*
X714567D03*
X717323D03*
X924409Y271260D03*
X944882D03*
X935039D03*
X955118D03*
X980315Y271654D03*
X970472D03*
X1000787D03*
X990551D03*
X1049132Y263731D03*
X1193307Y270079D03*
X1198680Y258093D03*
X1193307Y273622D03*
X1252888Y267554D03*
X1201000Y275728D03*
X206299Y310236D03*
X875132Y305231D03*
X887795Y307087D03*
X275197Y320472D03*
X860630Y317716D03*
X875984Y319685D03*
X887795Y317716D03*
X1037008Y318110D03*
X1046063D03*
X1026378D03*
X1100000Y321654D03*
X1131496Y321260D03*
X1259187Y333695D03*
X1089896Y338026D03*
X1100000Y338583D03*
X1111024D03*
X1261943Y337239D03*
X1266668Y336451D03*
X1269030Y339994D03*
X1272967Y345900D03*
X847537Y368508D03*
X847467Y371868D03*
X922441Y369291D03*
X909055Y374409D03*
X999606Y364173D03*
X1001575Y355118D03*
X997638D03*
X1057087Y366535D03*
X1072047Y374409D03*
X1088583Y366142D03*
X1122047Y362991D03*
X1127953Y362598D03*
X1261550Y356924D03*
X1285172Y369522D03*
X1267849Y357711D03*
X1274148D03*
X131102Y375197D03*
X198819Y387795D03*
X276594Y388500D03*
X279899Y384721D03*
X378000Y382228D03*
X906299Y375984D03*
X922441Y379134D03*
Y383071D03*
Y388976D03*
X920472Y390945D03*
X922441Y392913D03*
X916929Y379528D03*
X931632Y381231D03*
Y377231D03*
X1060632Y385231D03*
X1080981Y381384D03*
X1071909Y394586D03*
X1081496Y377953D03*
X1088189Y393700D03*
X1269424Y380546D03*
X1274935D03*
X1288321Y384876D03*
X1287928Y375821D03*
X140945Y401969D03*
X199213Y400787D03*
X432677Y411024D03*
X897638Y409055D03*
X920866Y402756D03*
X920472Y394882D03*
X920866Y398819D03*
X922441Y396850D03*
Y410630D03*
Y406693D03*
X1015748Y410630D03*
X1060630Y395276D03*
X1074542Y401412D03*
X1081890Y404330D03*
X278416Y434021D03*
X387402Y415748D03*
X387008Y431102D03*
X432677Y434646D03*
X448425D03*
X562598Y430709D03*
X609843D03*
X658280Y427127D03*
X672835Y423622D03*
X688583Y430709D03*
X720079D03*
X712632Y415231D03*
X751575Y430709D03*
X761632Y419731D03*
X783071Y430709D03*
X810630Y433071D03*
X816142D03*
X901181Y426378D03*
X903661Y430138D03*
X896299Y430453D03*
X897638Y424803D03*
X920211Y434089D03*
Y428183D03*
X906693Y414961D03*
X914173Y420079D03*
X931628Y430152D03*
X933854Y420485D03*
X933465Y424409D03*
X974198Y434131D03*
X1015748Y424409D03*
X1015744Y420485D03*
X1007084Y422453D03*
X1015880Y434089D03*
X1006693Y426378D03*
X1263780Y431299D03*
X302755Y446720D03*
Y452626D03*
X320865Y435500D03*
X330707Y439437D03*
X387402Y447244D03*
X538976Y446457D03*
X586220D03*
X633858Y446063D03*
X657087Y446457D03*
X813064Y451520D03*
X823411D03*
X815459Y442705D03*
X834240Y451520D03*
X845369D03*
X903543Y440945D03*
X896063Y441339D03*
X936746Y448262D03*
X940683D03*
X938715Y439207D03*
X944620Y448262D03*
X942652Y439207D03*
X964306D03*
X946589D03*
X954463Y448262D03*
X966274D03*
X960369Y439207D03*
X958400Y448262D03*
X956431Y439207D03*
X950526Y448262D03*
X976117Y450624D03*
X975329Y437632D03*
X982022Y448262D03*
X972180Y450624D03*
X980054D03*
X968243D03*
X970211Y448262D03*
X974148D03*
X967323Y437795D03*
X983991Y439207D03*
X978085Y448262D03*
X985959D03*
X991865D03*
X987928Y439207D03*
X997770Y448262D03*
X1263780Y437205D03*
Y441141D03*
Y447047D03*
Y451771D03*
X302755Y463256D03*
Y457350D03*
Y470342D03*
X387008Y460236D03*
Y472441D03*
X432283Y458268D03*
X448425D03*
X767323Y470079D03*
X802657Y468449D03*
X809632Y470731D03*
X856017Y468453D03*
X866003Y468449D03*
X981890Y466535D03*
X1019291Y472440D03*
Y462992D03*
X1045132Y455231D03*
X1263780Y457677D03*
X1278085Y462435D03*
X1287534Y462829D03*
X302755Y483335D03*
Y489241D03*
Y476248D03*
X326770Y494555D03*
X387008Y485827D03*
X432677D03*
X448425D03*
X481500Y482728D03*
X582283Y481890D03*
Y485827D03*
X590157D03*
X605906D03*
X598031Y481890D03*
Y485827D03*
X605906Y481890D03*
X590157D03*
X621654Y485827D03*
X613780Y481890D03*
Y485827D03*
X621654Y481890D03*
X637402Y485827D03*
X629528Y481890D03*
X645276D03*
X629528Y485827D03*
X645276D03*
X637402Y481890D03*
X661024D03*
X653150D03*
X661024Y485827D03*
X653150D03*
X684646D03*
X668898Y481890D03*
X676772D03*
X684646Y491339D03*
X676772Y485827D03*
X684646Y481890D03*
X668898Y485827D03*
X700394D03*
X692520Y481890D03*
X700394D03*
X692520Y485827D03*
X716142D03*
X724016Y481890D03*
X708268D03*
X724016Y485827D03*
X716142Y481890D03*
X708268Y485827D03*
X731890D03*
X739764Y481890D03*
Y485827D03*
X731890Y481890D03*
X767323Y485827D03*
X783071D03*
X798476Y485813D03*
X787345D03*
X802657Y479584D03*
X856137D03*
X865883D03*
X883125Y485674D03*
X893307Y480709D03*
X960236Y479921D03*
X972047D03*
X1263780Y487204D03*
Y493110D03*
X255904Y506366D03*
Y498492D03*
X326770Y504398D03*
X387402Y497638D03*
X387008Y509843D03*
X432677Y509449D03*
X448425D03*
X556693Y505512D03*
Y513386D03*
X552756D03*
Y505512D03*
X566535D03*
X570472Y513386D03*
X684646Y513780D03*
X672835Y507874D03*
X680709Y513386D03*
Y511024D03*
X676772Y509449D03*
X684646Y500000D03*
X749777Y509449D03*
X753336D03*
X767323Y501575D03*
X783071D03*
X800132Y500731D03*
X805142Y507480D03*
X883122Y495598D03*
X883125Y505445D03*
X901181Y511417D03*
X903543Y509449D03*
X1053150Y496948D03*
X1263780Y499015D03*
Y504921D03*
Y509645D03*
X255133Y531518D03*
X249999Y520146D03*
X279526Y518177D03*
X283070D03*
X302755Y521918D03*
Y516012D03*
X333355Y524488D03*
Y515631D03*
X387402Y533071D03*
X387008Y521654D03*
X556693Y529134D03*
Y521260D03*
X552756Y529134D03*
Y521260D03*
X566535D03*
X672835Y516929D03*
X684646Y517323D03*
X676772Y515354D03*
X743551Y533071D03*
X749802Y517323D03*
Y525197D03*
X753309Y517323D03*
X753361Y525197D03*
X883122Y515293D03*
Y525102D03*
X913386Y525591D03*
X1263780Y515551D03*
Y526968D03*
Y532874D03*
X269684Y535894D03*
Y541799D03*
X302755Y554594D03*
Y541603D03*
Y535697D03*
X320883Y551666D03*
X387008Y544488D03*
X432677Y537008D03*
X448425D03*
X556693Y552756D03*
Y537008D03*
Y544882D03*
X563500Y541228D03*
X552756Y537008D03*
Y552756D03*
Y544882D03*
X566535D03*
X570472Y537008D03*
Y552756D03*
X737392Y537008D03*
X778938Y552756D03*
X775337D03*
X802597Y535378D03*
X797132Y538731D03*
X803006Y546513D03*
X834384Y543538D03*
X855845Y546513D03*
X883371Y537799D03*
X883250Y548935D03*
X923632Y541731D03*
X914568Y546850D03*
Y550787D03*
Y542913D03*
Y535039D03*
X913386Y538976D03*
X302755Y560500D03*
X383465Y564567D03*
X387402Y554724D03*
X432677Y562598D03*
X462030Y561174D03*
X448425Y562598D03*
X499213Y557480D03*
X556500Y568728D03*
X552756Y560630D03*
Y568504D03*
X580000Y568228D03*
X570472Y568504D03*
X742520Y556693D03*
X746000Y570228D03*
X753333Y572441D03*
X747132Y563231D03*
X747244Y568110D03*
X775447Y562614D03*
X777000Y574000D03*
X778938Y562598D03*
Y572441D03*
X797632Y560731D03*
X811686Y560251D03*
X823350Y563181D03*
X845385Y563048D03*
X831552D03*
X830118Y572441D03*
X852165D03*
X855709D03*
X923228Y562992D03*
Y558661D03*
X914568D03*
Y554724D03*
X930709Y566535D03*
X1118000Y560500D03*
X1149000Y564000D03*
X1148500Y568500D03*
X1149000Y561500D03*
X1278872Y556924D03*
X1292258Y556530D03*
X334710Y593527D03*
X432677Y586220D03*
X455500Y587728D03*
X482500Y594228D03*
X477953Y594094D03*
X497244Y588976D03*
X495464Y590890D03*
X520500Y592228D03*
X537796Y588189D03*
X546456D03*
X556693Y592126D03*
Y576573D03*
Y584252D03*
X563500Y590728D03*
X552756Y592126D03*
Y584252D03*
Y576378D03*
X574500Y578228D03*
X584000Y582728D03*
X579110Y579618D03*
X578000Y585728D03*
X566535Y576378D03*
Y592126D03*
Y584252D03*
X743307Y582677D03*
Y587402D03*
X738583Y582677D03*
X747245Y576378D03*
X761180Y582795D03*
X758661Y580315D03*
X747638Y589764D03*
X749808Y588189D03*
X753374D03*
X753313Y580315D03*
X863000Y587728D03*
X861632Y582231D03*
X903937Y592520D03*
X894488D03*
X905906Y578346D03*
X916141Y576770D03*
X913780Y583071D03*
Y587795D03*
Y592520D03*
X300215Y605067D03*
X301858Y600206D03*
X334808Y605326D03*
X334223Y597038D03*
X334779Y608865D03*
X432677Y609843D03*
X463386Y598425D03*
X481890Y601969D03*
X510500Y608728D03*
X508000Y604228D03*
X533000Y603228D03*
X537796Y596063D03*
X546456D03*
X556693Y600000D03*
X552756D03*
X586220D03*
X566535D03*
X582283Y596063D03*
X587500Y610728D03*
X746063Y606299D03*
X739764Y613780D03*
X750000Y596064D03*
X749809Y603937D03*
X749785Y611811D03*
X753292D03*
X753369Y603937D03*
X774804Y613780D03*
X783500Y613728D03*
X781102Y602559D03*
X777357Y601969D03*
X780914Y609843D03*
X801632Y609231D03*
X795000Y602000D03*
X804500Y606500D03*
X790000Y605500D03*
X803632Y599731D03*
X828550Y611811D03*
X832087D03*
X852362Y612205D03*
X855709Y611811D03*
X881496Y611417D03*
X905118Y611418D03*
X893307Y611417D03*
X887402D03*
X925984Y611024D03*
X923622Y597638D03*
X918898Y611417D03*
X913780Y597244D03*
Y603937D03*
X1251119Y601969D03*
X1253110Y598031D03*
X177953Y627559D03*
X174542Y632120D03*
X432677Y633465D03*
X448425D03*
X494299Y627374D03*
Y629736D03*
X493500Y618228D03*
X537008Y627559D03*
X547243Y619685D03*
Y627559D03*
X553273Y632455D03*
X578346Y618504D03*
X572000Y622228D03*
X569603Y624285D03*
X574362Y622728D03*
X571000Y626228D03*
X583071Y623622D03*
Y627559D03*
Y631496D03*
X739764Y617717D03*
X738583Y629528D03*
Y625591D03*
Y633465D03*
X755118Y622047D03*
X760630Y634646D03*
X757874Y628346D03*
X774804Y621654D03*
X780914Y617717D03*
X788632Y614731D03*
X806589Y627898D03*
X817297Y628292D03*
X829449D03*
X841841D03*
X881496Y620078D03*
X905118D03*
X893307D03*
X887402D03*
X925197Y623622D03*
Y628346D03*
Y633465D03*
X925984Y619684D03*
X918898Y620078D03*
X1080500Y621654D03*
X1084000Y625591D03*
X1080500Y629500D03*
X1076000Y625591D03*
Y629528D03*
X1096457Y628740D03*
X1103150Y619685D03*
Y615748D03*
Y623622D03*
X1124409Y631496D03*
X1123622Y623622D03*
X1140157D03*
X1134646Y631496D03*
X1247638Y629528D03*
X462992Y639370D03*
X479921Y643307D03*
X477953Y635449D03*
X545500Y651728D03*
X537008Y643307D03*
X547243Y635433D03*
Y643307D03*
X552500Y644228D03*
X554500Y642728D03*
X583071Y635433D03*
X589764Y653937D03*
X741229Y635828D03*
X738583Y637402D03*
X755118Y640945D03*
X803132Y648231D03*
X808937Y650231D03*
X806969Y648262D03*
X865638Y647583D03*
X855829D03*
X909843Y647638D03*
X1080351Y636851D03*
X1102756Y635433D03*
X1100000Y651500D03*
X1124016Y639370D03*
X1140157D03*
X543701Y670866D03*
Y666929D03*
Y662992D03*
Y655118D03*
Y659055D03*
X577559Y661417D03*
X603937Y665748D03*
X607874D03*
X623622D03*
X619685D03*
X611811Y666142D03*
X643307Y665748D03*
X639370D03*
X631496D03*
X627559D03*
X662992D03*
X655118D03*
X651181D03*
X647244D03*
X674803Y655906D03*
X670866D03*
Y665748D03*
X666929D03*
X674803D03*
X682677D03*
X678740D03*
X690551D03*
X694488D03*
X698425D03*
X702362D03*
X710236D03*
X714173D03*
X718110D03*
X724016Y655118D03*
X736632Y658231D03*
X738625Y662336D03*
X784632Y663231D03*
X863518Y665979D03*
X865791Y658718D03*
X855752D03*
X877740Y655906D03*
X884303Y664659D03*
Y674277D03*
X909843Y656299D03*
X1067951Y657049D03*
X1100500Y674500D03*
X1116500Y671000D03*
X1113000D03*
X1110435Y674000D03*
X1106500D03*
X477953Y694488D03*
X543701Y678740D03*
Y682677D03*
Y674803D03*
X598425Y683858D03*
X589370Y680315D03*
X591732Y685827D03*
X724409Y683465D03*
X739370D03*
X805807Y685520D03*
X795669Y682283D03*
Y686614D03*
X854134Y680119D03*
X861417Y684646D03*
X884303Y693431D03*
X884307Y683928D03*
X913386Y687796D03*
X925197D03*
X919291D03*
X937008D03*
X931102D03*
X942913Y687795D03*
X954724Y687796D03*
X948819D03*
X1001575Y685039D03*
X1012204Y684646D03*
X1020472Y685039D03*
X1030708D03*
X1094000Y680000D03*
X503000Y700228D03*
X543701Y714173D03*
Y710236D03*
Y706299D03*
X623622Y696850D03*
X612992Y702362D03*
X637008D03*
X649213Y700394D03*
X672047Y702362D03*
X683858Y700394D03*
X698031Y702362D03*
X712598Y695669D03*
X707087Y700394D03*
X727953Y702362D03*
X789320Y708163D03*
X800445Y708285D03*
X856007Y714512D03*
X884307Y704619D03*
X925197Y696456D03*
X919291D03*
X913386D03*
X942913Y714173D03*
Y696456D03*
X931102D03*
X937008Y696457D03*
X962132Y704231D03*
X954724Y696456D03*
X948819D03*
X543701Y729921D03*
Y733858D03*
Y725984D03*
Y722047D03*
Y718110D03*
X605500Y721728D03*
X800448Y719610D03*
X795669Y734069D03*
X789320Y719787D03*
X806706Y724355D03*
X855969Y725647D03*
X881057Y725948D03*
X892194Y725821D03*
X1004331Y734646D03*
X363780Y753543D03*
X355906Y751575D03*
X411024Y748031D03*
X448819Y748819D03*
X450787Y753543D03*
X477953Y748031D03*
X552756Y737795D03*
Y753543D03*
X574409Y737795D03*
Y753543D03*
X590157Y737795D03*
Y753543D03*
X674803Y737795D03*
Y753543D03*
X698425Y737795D03*
Y753543D03*
X727953Y737795D03*
Y753543D03*
X759449Y737795D03*
Y753543D03*
X785039Y737795D03*
Y753543D03*
X818577Y743363D03*
X806657Y735489D03*
X832212Y743363D03*
X857087Y737988D03*
X847309Y743363D03*
X901969Y751969D03*
X1003543Y742126D03*
X993299Y750385D03*
X237795Y773228D03*
X233858Y769291D03*
X241732D03*
X229921Y773228D03*
X245669Y765354D03*
X316535Y773818D03*
X452756Y758268D03*
X446850Y756299D03*
X539500Y768228D03*
X559500D03*
X900394Y755118D03*
X155118Y788976D03*
X222047Y776378D03*
X338189Y792913D03*
X360630Y785433D03*
X902753Y783352D03*
X910630Y781299D03*
X112598Y810630D03*
X115354Y808661D03*
X120866Y806693D03*
X127559Y814567D03*
X156299Y812598D03*
X153150Y794882D03*
X161811Y806693D03*
X340157Y814567D03*
X342126Y806693D03*
X346063Y804724D03*
X351969Y802756D03*
X518500Y801728D03*
X920866Y794882D03*
X907087Y796850D03*
X964567Y806693D03*
X950787Y814567D03*
X103937Y816142D03*
X164961Y822441D03*
X176772Y816535D03*
X174016Y819291D03*
X166929Y816535D03*
X170866D03*
X336220Y824409D03*
X338189Y818504D03*
X340157Y820472D03*
X497638Y824803D03*
X499213Y829134D03*
X496063Y827953D03*
X501181Y825591D03*
X864567Y815748D03*
X944882Y820079D03*
X948425Y825984D03*
X964961Y830315D03*
X995669D03*
X105512Y853937D03*
X105906Y842126D03*
X176772Y840157D03*
X202362D03*
X334252Y853937D03*
X950787Y846063D03*
X967717D03*
X996063Y838189D03*
X1025000Y847000D03*
X339017Y872665D03*
X377713Y864558D03*
X373653Y873902D03*
X401313Y871298D03*
X476343Y860628D03*
X893500Y857228D03*
X894882Y867323D03*
X905118Y868110D03*
X924016Y867717D03*
X914567D03*
X222047Y893102D03*
X212205Y889559D03*
Y893102D03*
X222047Y889559D03*
X233858D03*
X245669D03*
Y893102D03*
X233858D03*
X257480D03*
Y889559D03*
X277165Y892913D03*
X269291Y889559D03*
X277165Y889370D03*
X269291Y893102D03*
X288387Y887795D03*
X331932Y876406D03*
X550197Y881497D03*
X601378D03*
X652559D03*
X991339Y876378D03*
X1095669Y886614D03*
X247638Y900394D03*
X257480Y900787D03*
X288387Y894882D03*
X498663Y909972D03*
X541132Y910231D03*
X539961Y900394D03*
X547638Y909054D03*
X592132Y910231D03*
X591142Y900394D03*
X598819Y909054D03*
X641132Y910231D03*
X642324Y900394D03*
X650001Y909055D03*
X928479Y906136D03*
Y911648D03*
X1059082Y907686D03*
X1076500Y906000D03*
X146850Y934194D03*
X225197Y918898D03*
X284172Y931775D03*
X287322D03*
X296228Y932790D03*
X292039Y931541D03*
X324172Y931775D03*
X327322D03*
X332034Y931098D03*
X425984Y931496D03*
X424000Y928228D03*
X427559Y929134D03*
X429500Y931728D03*
X433858Y931496D03*
X468172Y931775D03*
X466535Y929134D03*
X471322Y931775D03*
X469747Y929413D03*
X512946Y925218D03*
X521803D03*
X544453Y916723D03*
X595836Y916929D03*
X644564Y916748D03*
X146850Y954206D03*
Y944188D03*
X179528Y944488D03*
X197638Y952756D03*
X201181D03*
X224803Y942126D03*
X221260Y944488D03*
X229921Y941732D03*
X277000Y951728D03*
X282598Y940238D03*
X285747D03*
X292126Y953543D03*
X325747Y940238D03*
X322598D03*
X331890Y953543D03*
X337402Y947244D03*
X337833Y942537D03*
X444488Y950787D03*
X483799Y945055D03*
X480315Y950787D03*
X929660Y952593D03*
X928872Y944719D03*
X980315Y935433D03*
X146850Y964173D03*
X260630Y974016D03*
X301575Y954724D03*
X402756Y974016D03*
X406693Y970866D03*
X433858Y954724D03*
X475984Y963780D03*
X1278085Y972672D03*
X1286746Y962435D03*
X122835Y981102D03*
X205512Y989370D03*
X207480Y987008D03*
X1051313Y979758D03*
X150000Y996850D03*
X1270998Y1007317D03*
X242126Y1046063D03*
X239764Y1043701D03*
X244488Y1048425D03*
X246850Y1041339D03*
X249213Y1051575D03*
X251181Y1046063D03*
G54D189*
X589081Y219314D02*
Y227149D01*
Y241913D02*
Y249747D01*
X591050Y219314D02*
Y227149D01*
Y241913D02*
Y249747D01*
X594987Y219314D02*
Y227149D01*
Y241913D02*
Y249747D01*
X596955Y219314D02*
Y227149D01*
Y241913D02*
Y249747D01*
X600892Y219314D02*
Y227149D01*
Y241913D02*
Y249747D01*
X602861Y219314D02*
Y227149D01*
Y241913D02*
Y249747D01*
X606798Y219314D02*
Y227149D01*
Y241913D02*
Y249747D01*
X608766Y219314D02*
Y227149D01*
Y241913D02*
Y249747D01*
X612703Y219314D02*
Y227149D01*
Y241913D02*
Y249747D01*
X614672Y219314D02*
Y227149D01*
Y241913D02*
Y249747D01*
X618609Y219314D02*
Y227149D01*
Y241913D02*
Y249747D01*
X620577Y219314D02*
Y227149D01*
Y241913D02*
Y249747D01*
X624514Y219314D02*
Y227149D01*
Y241913D02*
Y249747D01*
X626483Y219314D02*
Y227149D01*
Y241913D02*
Y249747D01*
X630420Y219314D02*
Y227149D01*
Y241913D02*
Y249747D01*
X632388Y219314D02*
Y227149D01*
Y241913D02*
Y249747D01*
X636325Y219314D02*
Y227149D01*
Y241913D02*
Y249747D01*
X638294Y219314D02*
Y227149D01*
Y241913D02*
Y249747D01*
X642231Y219314D02*
Y227149D01*
Y241913D02*
Y249747D01*
X644199Y219314D02*
Y227149D01*
Y241913D02*
Y249747D01*
X667821Y219314D02*
Y227149D01*
Y241913D02*
Y249747D01*
X669790Y219314D02*
Y227149D01*
Y241913D02*
Y249747D01*
X673727Y219314D02*
Y227149D01*
Y241913D02*
Y249747D01*
X675695Y219314D02*
Y227149D01*
Y241913D02*
Y249747D01*
X679632Y219314D02*
Y227149D01*
Y241913D02*
Y249747D01*
X681601Y219314D02*
Y227149D01*
Y241913D02*
Y249747D01*
X685538Y219314D02*
Y227149D01*
Y241913D02*
Y249747D01*
X687506Y219314D02*
Y227149D01*
Y241913D02*
Y249747D01*
X691443Y219314D02*
Y227149D01*
Y241913D02*
Y249747D01*
X693412Y219314D02*
Y227149D01*
Y241913D02*
Y249747D01*
X697349Y219314D02*
Y227149D01*
Y241913D02*
Y249747D01*
X699317Y219314D02*
Y227149D01*
Y241913D02*
Y249747D01*
X703254Y219314D02*
Y227149D01*
Y241913D02*
Y249747D01*
X705223Y219314D02*
Y227149D01*
Y241913D02*
Y249747D01*
X709160Y219314D02*
Y227149D01*
Y241913D02*
Y249747D01*
X711128Y219314D02*
Y227149D01*
Y241913D02*
Y249747D01*
X715065Y219314D02*
Y227149D01*
Y241913D02*
Y249747D01*
X717034Y219314D02*
Y227149D01*
Y241913D02*
Y249747D01*
X720971Y219314D02*
Y227149D01*
Y241913D02*
Y249747D01*
X722939Y219314D02*
Y227149D01*
Y241913D02*
Y249747D01*
G54D190*
X581719Y234531D02*
X590026D01*
X596719D02*
X613530D01*
X621719D02*
X638530D01*
X645203D02*
X653510D01*
X660479D02*
X668786D01*
X700459D02*
X717270D01*
X675459D02*
X692270D01*
X723963D02*
X732270D01*
G54D191*
X577998Y245043D03*
X735991D03*
G54D192*
X568750Y987120D02*
X570719D01*
X567750Y962620D02*
X569719D01*
X569250Y1011620D02*
X571219D01*
X569250Y1036120D02*
X571219D01*
X1052994Y260009D02*
Y258040D01*
X1049254Y260009D02*
Y258040D01*
X1045514Y260009D02*
Y258040D01*
Y249773D02*
Y247804D01*
X1052994Y249773D02*
Y247804D01*
X549250Y955120D02*
X551219D01*
X550250Y979620D02*
X552219D01*
X550750Y1028620D02*
X552719D01*
X550750Y1004120D02*
X552719D01*
X1065639Y164753D02*
Y167115D01*
Y174595D02*
Y176957D01*
X1058159Y174595D02*
Y176957D01*
G54D193*
X568750Y984561D02*
X570719D01*
X568750Y982002D02*
X570719D01*
X578593D02*
X580561D01*
X578593Y987120D02*
X580561D01*
X567750Y960061D02*
X569719D01*
X567750Y957502D02*
X569719D01*
X577593D02*
X579561D01*
X577593Y962620D02*
X579561D01*
X569250Y1009061D02*
X571219D01*
X569250Y1006502D02*
X571219D01*
X579093D02*
X581061D01*
X579093Y1011620D02*
X581061D01*
X569250Y1033561D02*
X571219D01*
X569250Y1031002D02*
X571219D01*
X579093D02*
X581061D01*
X579093Y1036120D02*
X581061D01*
X725984Y649213D03*
Y645276D03*
Y633465D03*
Y629528D03*
Y625591D03*
Y621654D03*
Y613780D03*
Y609843D03*
Y605906D03*
Y601969D03*
Y598031D03*
Y594094D03*
Y590157D03*
Y586220D03*
Y582283D03*
Y578346D03*
Y574409D03*
Y570472D03*
Y566535D03*
Y562598D03*
Y558661D03*
Y554724D03*
Y550787D03*
Y546850D03*
Y542913D03*
Y538976D03*
Y535039D03*
Y531102D03*
Y527165D03*
X722047Y653150D03*
Y649213D03*
Y645276D03*
Y641339D03*
Y637402D03*
Y633465D03*
Y629528D03*
Y625591D03*
Y621654D03*
Y617717D03*
Y613780D03*
Y609843D03*
Y605906D03*
Y601969D03*
Y598031D03*
Y594094D03*
Y590157D03*
Y586220D03*
Y582283D03*
Y578346D03*
Y574409D03*
Y570472D03*
Y566535D03*
Y562598D03*
Y558661D03*
Y554724D03*
Y550787D03*
Y546850D03*
Y542913D03*
Y538976D03*
Y535039D03*
Y531102D03*
Y527165D03*
Y523228D03*
X718110Y653150D03*
Y649213D03*
Y645276D03*
Y641339D03*
Y637402D03*
Y633465D03*
Y629528D03*
Y625591D03*
Y621654D03*
Y617717D03*
Y613780D03*
Y609843D03*
Y605906D03*
Y601969D03*
Y598031D03*
Y594094D03*
Y590157D03*
Y586220D03*
Y582283D03*
Y578346D03*
Y574409D03*
Y570472D03*
Y566535D03*
Y562598D03*
Y558661D03*
Y554724D03*
Y550787D03*
Y546850D03*
Y542913D03*
Y538976D03*
Y535039D03*
Y531102D03*
Y527165D03*
Y523228D03*
X714173Y653150D03*
Y649213D03*
Y645276D03*
Y641339D03*
Y637402D03*
Y633465D03*
Y629528D03*
Y625591D03*
Y621654D03*
Y617717D03*
Y613780D03*
Y609843D03*
Y605906D03*
Y601969D03*
Y598031D03*
Y594094D03*
Y590157D03*
Y586220D03*
Y582283D03*
Y578346D03*
Y574409D03*
Y570472D03*
Y566535D03*
Y562598D03*
Y558661D03*
Y554724D03*
Y550787D03*
Y546850D03*
Y542913D03*
Y538976D03*
Y535039D03*
Y531102D03*
Y527165D03*
Y523228D03*
X710236Y649213D03*
Y645276D03*
Y641339D03*
Y637402D03*
Y633465D03*
Y629528D03*
Y625591D03*
Y621654D03*
Y617717D03*
Y613780D03*
Y609843D03*
Y605906D03*
Y601969D03*
Y598031D03*
Y594094D03*
Y590157D03*
Y586220D03*
Y582283D03*
Y578346D03*
Y574409D03*
Y570472D03*
Y566535D03*
Y562598D03*
Y558661D03*
Y554724D03*
Y550787D03*
Y546850D03*
Y542913D03*
Y538976D03*
Y535039D03*
Y531102D03*
Y527165D03*
Y523228D03*
X706299Y649213D03*
Y645276D03*
Y641339D03*
Y637402D03*
Y633465D03*
Y629528D03*
Y625591D03*
Y621654D03*
Y617717D03*
Y613780D03*
Y609843D03*
Y605906D03*
Y601969D03*
Y598031D03*
Y594094D03*
Y590157D03*
Y586220D03*
Y582283D03*
Y578346D03*
Y574409D03*
Y570472D03*
Y566535D03*
Y562598D03*
Y558661D03*
Y554724D03*
Y550787D03*
Y546850D03*
Y542913D03*
Y538976D03*
Y535039D03*
Y531102D03*
Y527165D03*
Y523228D03*
X702362Y653150D03*
Y649213D03*
Y645276D03*
Y641339D03*
Y637402D03*
Y633465D03*
Y629528D03*
Y625591D03*
Y621654D03*
Y617717D03*
Y613780D03*
Y609843D03*
Y605906D03*
Y601969D03*
Y598031D03*
Y594094D03*
Y590157D03*
Y586220D03*
Y582283D03*
Y578346D03*
Y574409D03*
Y570472D03*
Y566535D03*
Y562598D03*
Y558661D03*
Y554724D03*
Y550787D03*
Y546850D03*
Y542913D03*
Y538976D03*
Y535039D03*
Y531102D03*
Y527165D03*
Y523228D03*
X698425Y653150D03*
Y649213D03*
Y645276D03*
Y641339D03*
Y637402D03*
Y633465D03*
Y629528D03*
Y625591D03*
Y621654D03*
Y617717D03*
Y613780D03*
Y609843D03*
Y605906D03*
Y601969D03*
Y598031D03*
Y594094D03*
Y590157D03*
Y586220D03*
Y582283D03*
Y578346D03*
Y574409D03*
Y570472D03*
Y566535D03*
Y562598D03*
Y558661D03*
Y554724D03*
Y550787D03*
Y546850D03*
Y542913D03*
Y538976D03*
Y535039D03*
Y531102D03*
Y527165D03*
Y523228D03*
X694488Y653150D03*
Y649213D03*
Y645276D03*
Y641339D03*
Y637402D03*
Y633465D03*
Y629528D03*
Y625591D03*
Y621654D03*
Y617717D03*
Y613780D03*
Y609843D03*
Y605906D03*
Y601969D03*
Y598031D03*
Y594094D03*
Y590157D03*
Y586220D03*
Y582283D03*
Y578346D03*
Y574409D03*
Y570472D03*
Y566535D03*
Y562598D03*
Y558661D03*
Y554724D03*
Y550787D03*
Y546850D03*
Y542913D03*
Y538976D03*
Y535039D03*
Y531102D03*
Y527165D03*
Y523228D03*
X690551Y653150D03*
Y649213D03*
Y645276D03*
Y641339D03*
Y637402D03*
Y633465D03*
Y629528D03*
Y625591D03*
Y621654D03*
Y617717D03*
Y613780D03*
Y609843D03*
Y605906D03*
Y601969D03*
Y598031D03*
Y594094D03*
Y590157D03*
Y586220D03*
Y582283D03*
Y578346D03*
Y574409D03*
Y570472D03*
Y566535D03*
Y562598D03*
Y558661D03*
Y554724D03*
Y550787D03*
Y546850D03*
Y542913D03*
Y538976D03*
Y535039D03*
Y531102D03*
Y527165D03*
Y523228D03*
X686614Y649213D03*
Y645276D03*
Y641339D03*
Y637402D03*
Y633465D03*
Y629528D03*
Y625591D03*
Y621654D03*
Y617717D03*
Y613780D03*
Y609843D03*
Y605906D03*
Y601969D03*
Y598031D03*
Y594094D03*
Y590157D03*
Y586220D03*
Y582283D03*
Y578346D03*
Y574409D03*
Y570472D03*
Y566535D03*
Y562598D03*
Y558661D03*
Y554724D03*
Y550787D03*
Y546850D03*
Y542913D03*
Y538976D03*
Y535039D03*
Y531102D03*
Y527165D03*
Y523228D03*
X682677Y649213D03*
Y645276D03*
Y641339D03*
Y637402D03*
Y633465D03*
Y629528D03*
Y625591D03*
Y621654D03*
Y617717D03*
Y613780D03*
Y609843D03*
Y605906D03*
Y601969D03*
Y598031D03*
Y594094D03*
Y590157D03*
Y586220D03*
Y582283D03*
Y578346D03*
Y574409D03*
Y570472D03*
Y566535D03*
Y562598D03*
Y558661D03*
Y554724D03*
Y550787D03*
Y546850D03*
Y542913D03*
Y538976D03*
Y535039D03*
Y531102D03*
Y527165D03*
Y523228D03*
X678740Y653150D03*
Y649213D03*
Y645276D03*
Y641339D03*
Y637402D03*
Y633465D03*
Y629528D03*
Y625591D03*
Y621654D03*
Y617717D03*
Y613780D03*
Y609843D03*
Y605906D03*
Y601969D03*
Y598031D03*
Y594094D03*
Y590157D03*
Y586220D03*
Y582283D03*
Y578346D03*
Y574409D03*
Y570472D03*
Y566535D03*
Y562598D03*
Y558661D03*
Y554724D03*
Y550787D03*
Y546850D03*
Y542913D03*
Y538976D03*
Y535039D03*
Y531102D03*
Y527165D03*
Y523228D03*
X674803Y653150D03*
Y649213D03*
Y645276D03*
Y641339D03*
Y637402D03*
Y633465D03*
Y629528D03*
Y625591D03*
Y621654D03*
Y617717D03*
Y613780D03*
Y609843D03*
Y605906D03*
Y601969D03*
Y598031D03*
Y594094D03*
Y590157D03*
Y586220D03*
Y582283D03*
Y578346D03*
Y574409D03*
Y570472D03*
Y566535D03*
Y562598D03*
Y558661D03*
Y554724D03*
Y550787D03*
Y546850D03*
Y542913D03*
Y538976D03*
Y535039D03*
Y531102D03*
Y527165D03*
Y523228D03*
X670866Y653150D03*
Y649213D03*
Y645276D03*
Y641339D03*
Y637402D03*
Y633465D03*
Y629528D03*
Y625591D03*
Y621654D03*
Y617717D03*
Y613780D03*
Y609843D03*
Y605906D03*
Y601969D03*
Y598031D03*
Y594094D03*
Y590157D03*
Y586220D03*
Y582283D03*
Y578346D03*
Y574409D03*
Y570472D03*
Y566535D03*
Y562598D03*
Y558661D03*
Y554724D03*
Y550787D03*
Y546850D03*
Y542913D03*
Y538976D03*
Y535039D03*
Y531102D03*
Y527165D03*
Y523228D03*
X666929Y653150D03*
Y649213D03*
Y645276D03*
Y641339D03*
Y637402D03*
Y633465D03*
Y629528D03*
Y625591D03*
Y621654D03*
Y617717D03*
Y613780D03*
Y609843D03*
Y605906D03*
Y601969D03*
Y598031D03*
Y594094D03*
Y590157D03*
Y586220D03*
Y582283D03*
Y578346D03*
Y574409D03*
Y570472D03*
Y566535D03*
Y562598D03*
Y558661D03*
Y554724D03*
Y550787D03*
Y546850D03*
Y542913D03*
Y538976D03*
Y535039D03*
Y531102D03*
Y527165D03*
Y523228D03*
X662992Y649213D03*
Y645276D03*
Y641339D03*
Y637402D03*
Y633465D03*
Y629528D03*
Y625591D03*
Y621654D03*
Y617717D03*
Y613780D03*
Y609843D03*
Y605906D03*
Y601969D03*
Y598031D03*
Y594094D03*
Y590157D03*
Y586220D03*
Y582283D03*
Y578346D03*
Y574409D03*
Y570472D03*
Y566535D03*
Y562598D03*
Y558661D03*
Y554724D03*
Y550787D03*
Y546850D03*
Y542913D03*
Y538976D03*
Y535039D03*
Y531102D03*
Y527165D03*
Y523228D03*
X659055Y649213D03*
Y645276D03*
Y641339D03*
Y637402D03*
Y633465D03*
Y629528D03*
Y625591D03*
Y621654D03*
Y617717D03*
Y613780D03*
Y609843D03*
Y605906D03*
Y601969D03*
Y598031D03*
Y594094D03*
Y590157D03*
Y586220D03*
Y582283D03*
Y578346D03*
Y574409D03*
Y570472D03*
Y566535D03*
Y562598D03*
Y558661D03*
Y554724D03*
Y550787D03*
Y546850D03*
Y542913D03*
Y538976D03*
Y535039D03*
Y531102D03*
Y527165D03*
Y523228D03*
X655118Y653150D03*
Y649213D03*
Y645276D03*
Y641339D03*
Y637402D03*
Y633465D03*
Y629528D03*
Y625591D03*
Y621654D03*
Y617717D03*
Y613780D03*
Y609843D03*
Y605906D03*
Y601969D03*
Y598031D03*
Y594094D03*
Y590157D03*
Y586220D03*
Y582283D03*
Y578346D03*
Y574409D03*
Y570472D03*
Y566535D03*
Y562598D03*
Y558661D03*
Y554724D03*
Y550787D03*
Y546850D03*
Y542913D03*
Y538976D03*
Y535039D03*
Y531102D03*
Y527165D03*
Y523228D03*
X651181Y653150D03*
Y649213D03*
Y645276D03*
Y641339D03*
Y637402D03*
Y633465D03*
Y629528D03*
Y625591D03*
Y621654D03*
Y617717D03*
Y613780D03*
Y609843D03*
Y605906D03*
Y601969D03*
Y598031D03*
Y594094D03*
Y590157D03*
Y586220D03*
Y582283D03*
Y578346D03*
Y574409D03*
Y570472D03*
Y566535D03*
Y562598D03*
Y558661D03*
Y554724D03*
Y550787D03*
Y546850D03*
Y542913D03*
Y538976D03*
Y535039D03*
Y531102D03*
Y527165D03*
Y523228D03*
X647244Y653150D03*
Y649213D03*
Y645276D03*
Y641339D03*
Y637402D03*
Y633465D03*
Y629528D03*
Y625591D03*
Y621654D03*
Y617717D03*
Y613780D03*
Y609843D03*
Y605906D03*
Y601969D03*
Y598031D03*
Y594094D03*
Y590157D03*
Y586220D03*
Y582283D03*
Y578346D03*
Y574409D03*
Y570472D03*
Y566535D03*
Y562598D03*
Y558661D03*
Y554724D03*
Y550787D03*
Y546850D03*
Y542913D03*
Y538976D03*
Y535039D03*
Y531102D03*
Y527165D03*
Y523228D03*
X643307Y653150D03*
Y649213D03*
Y645276D03*
Y641339D03*
Y637402D03*
Y633465D03*
Y629528D03*
Y625591D03*
Y621654D03*
Y617717D03*
Y613780D03*
Y609843D03*
Y605906D03*
Y601969D03*
Y598031D03*
Y594094D03*
Y590157D03*
Y586220D03*
Y582283D03*
Y578346D03*
Y574409D03*
Y570472D03*
Y566535D03*
Y562598D03*
Y558661D03*
Y554724D03*
Y550787D03*
Y546850D03*
Y542913D03*
Y538976D03*
Y535039D03*
Y531102D03*
Y527165D03*
Y523228D03*
X639370Y649213D03*
Y645276D03*
Y641339D03*
Y637402D03*
Y633465D03*
Y629528D03*
Y625591D03*
Y621654D03*
Y617717D03*
Y613780D03*
Y609843D03*
Y605906D03*
Y601969D03*
Y598031D03*
Y594094D03*
Y590157D03*
Y586220D03*
Y582283D03*
Y578346D03*
Y574409D03*
Y570472D03*
Y566535D03*
Y562598D03*
Y558661D03*
Y554724D03*
Y550787D03*
Y546850D03*
Y542913D03*
Y538976D03*
Y535039D03*
Y531102D03*
Y527165D03*
Y523228D03*
X635433Y649213D03*
Y645276D03*
Y641339D03*
Y637402D03*
Y633465D03*
Y629528D03*
Y625591D03*
Y621654D03*
Y617717D03*
Y613780D03*
Y609843D03*
Y605906D03*
Y601969D03*
Y598031D03*
Y594094D03*
Y590157D03*
Y586220D03*
Y582283D03*
Y578346D03*
Y574409D03*
Y570472D03*
Y566535D03*
Y562598D03*
Y558661D03*
Y554724D03*
Y550787D03*
Y546850D03*
Y542913D03*
Y538976D03*
Y535039D03*
Y531102D03*
Y527165D03*
Y523228D03*
X631496Y653150D03*
Y649213D03*
Y645276D03*
Y641339D03*
Y637402D03*
Y633465D03*
Y629528D03*
Y625591D03*
Y621654D03*
Y617717D03*
Y613780D03*
Y609843D03*
Y605906D03*
Y601969D03*
Y598031D03*
Y594094D03*
Y590157D03*
Y586220D03*
Y582283D03*
Y578346D03*
Y574409D03*
Y570472D03*
Y566535D03*
Y562598D03*
Y558661D03*
Y554724D03*
Y550787D03*
Y546850D03*
Y542913D03*
Y538976D03*
Y535039D03*
Y531102D03*
Y527165D03*
Y523228D03*
X627559Y653150D03*
Y649213D03*
Y645276D03*
Y641339D03*
Y637402D03*
Y633465D03*
Y629528D03*
Y625591D03*
Y621654D03*
Y617717D03*
Y613780D03*
Y609843D03*
Y605906D03*
Y601969D03*
Y598031D03*
Y594094D03*
Y590157D03*
Y586220D03*
Y582283D03*
Y578346D03*
Y574409D03*
Y570472D03*
Y566535D03*
Y562598D03*
Y558661D03*
Y554724D03*
Y550787D03*
Y546850D03*
Y542913D03*
Y538976D03*
Y535039D03*
Y531102D03*
Y527165D03*
Y523228D03*
X623622Y653150D03*
Y649213D03*
Y645276D03*
Y641339D03*
Y637402D03*
Y633465D03*
Y629528D03*
Y625591D03*
Y621654D03*
Y617717D03*
Y613780D03*
Y609843D03*
Y605906D03*
Y601969D03*
Y598031D03*
Y594094D03*
Y590157D03*
Y586220D03*
Y582283D03*
Y578346D03*
Y574409D03*
Y570472D03*
Y566535D03*
Y562598D03*
Y558661D03*
Y554724D03*
Y550787D03*
Y546850D03*
Y542913D03*
Y538976D03*
Y535039D03*
Y531102D03*
Y527165D03*
Y523228D03*
X619685Y653150D03*
Y649213D03*
Y645276D03*
Y641339D03*
Y637402D03*
Y633465D03*
Y629528D03*
Y625591D03*
Y621654D03*
Y617717D03*
Y613780D03*
Y609843D03*
Y605906D03*
Y601969D03*
Y598031D03*
Y594094D03*
Y590157D03*
Y586220D03*
Y582283D03*
Y578346D03*
Y574409D03*
Y570472D03*
Y566535D03*
Y562598D03*
Y558661D03*
Y554724D03*
Y550787D03*
Y546850D03*
Y542913D03*
Y538976D03*
Y535039D03*
Y531102D03*
Y527165D03*
Y523228D03*
X615748Y649213D03*
Y645276D03*
Y641339D03*
Y637402D03*
Y633465D03*
Y629528D03*
Y625591D03*
Y621654D03*
Y617717D03*
Y613780D03*
Y609843D03*
Y605906D03*
Y601969D03*
Y598031D03*
Y594094D03*
Y590157D03*
Y586220D03*
Y582283D03*
Y578346D03*
Y574409D03*
Y570472D03*
Y566535D03*
Y562598D03*
Y558661D03*
Y554724D03*
Y550787D03*
Y546850D03*
Y542913D03*
Y538976D03*
Y535039D03*
Y531102D03*
Y527165D03*
Y523228D03*
X611811Y649213D03*
Y645276D03*
Y641339D03*
Y637402D03*
Y633465D03*
Y629528D03*
Y625591D03*
Y621654D03*
Y617717D03*
Y613780D03*
Y609843D03*
Y605906D03*
Y601969D03*
Y598031D03*
Y594094D03*
Y590157D03*
Y586220D03*
Y582283D03*
Y578346D03*
Y574409D03*
Y570472D03*
Y566535D03*
Y562598D03*
Y558661D03*
Y554724D03*
Y550787D03*
Y546850D03*
Y542913D03*
Y538976D03*
Y535039D03*
Y531102D03*
Y527165D03*
Y523228D03*
X607874Y653150D03*
Y649213D03*
Y645276D03*
Y641339D03*
Y637402D03*
Y633465D03*
Y629528D03*
Y625591D03*
Y621654D03*
Y617717D03*
Y613780D03*
Y609843D03*
Y605906D03*
Y601969D03*
Y598031D03*
Y594094D03*
Y590157D03*
Y586220D03*
Y582283D03*
Y578346D03*
Y574409D03*
Y570472D03*
Y566535D03*
Y562598D03*
Y558661D03*
Y554724D03*
Y550787D03*
Y546850D03*
Y542913D03*
Y538976D03*
Y535039D03*
Y531102D03*
Y527165D03*
Y523228D03*
X603937Y653150D03*
Y649213D03*
Y645276D03*
Y641339D03*
Y637402D03*
Y633465D03*
Y629528D03*
Y625591D03*
Y621654D03*
Y617717D03*
Y613780D03*
Y609843D03*
Y605906D03*
Y601969D03*
Y598031D03*
Y594094D03*
Y590157D03*
Y586220D03*
Y582283D03*
Y578346D03*
Y574409D03*
Y570472D03*
Y566535D03*
Y562598D03*
Y558661D03*
Y554724D03*
Y550787D03*
Y546850D03*
Y542913D03*
Y538976D03*
Y535039D03*
Y531102D03*
Y527165D03*
Y523228D03*
X600000Y653150D03*
Y649213D03*
Y645276D03*
Y641339D03*
Y637402D03*
Y633465D03*
Y629528D03*
Y625591D03*
Y621654D03*
Y617717D03*
Y613780D03*
Y609843D03*
Y605906D03*
Y601969D03*
Y598031D03*
Y594094D03*
Y590157D03*
Y586220D03*
Y582283D03*
Y578346D03*
Y574409D03*
Y570472D03*
Y566535D03*
Y562598D03*
Y558661D03*
Y554724D03*
Y550787D03*
Y546850D03*
Y542913D03*
Y538976D03*
Y535039D03*
Y531102D03*
Y527165D03*
Y523228D03*
X596063Y649213D03*
Y645276D03*
Y633465D03*
Y629528D03*
Y625591D03*
Y621654D03*
Y613780D03*
Y609843D03*
Y605906D03*
Y601969D03*
Y598031D03*
Y594094D03*
Y590157D03*
Y586220D03*
Y582283D03*
Y578346D03*
Y574409D03*
Y570472D03*
Y566535D03*
Y562598D03*
Y558661D03*
Y554724D03*
Y550787D03*
Y546850D03*
Y542913D03*
Y538976D03*
Y535039D03*
Y531102D03*
Y527165D03*
X828346Y605906D03*
X832283D03*
X836220D03*
X840157D03*
X844094D03*
X848031D03*
X851969D03*
X855906D03*
X828346Y601969D03*
X832283D03*
X836220D03*
X840157D03*
X844094D03*
X848031D03*
X851969D03*
X855906D03*
X828346Y598031D03*
X832283D03*
X836220D03*
X840157D03*
X844094D03*
X848031D03*
X851969D03*
X855906D03*
X828346Y594094D03*
X832283D03*
X836220D03*
X840157D03*
X844094D03*
X848031D03*
X851969D03*
X855906D03*
X828346Y590157D03*
X832283D03*
X836220D03*
X840157D03*
X844094D03*
X848031D03*
X851969D03*
X855906D03*
X828346Y586220D03*
X832283D03*
X836220D03*
X840157D03*
X844094D03*
X848031D03*
X851969D03*
X855906D03*
X828346Y582283D03*
X832283D03*
X836220D03*
X840157D03*
X844094D03*
X848031D03*
X851969D03*
X855906D03*
X828346Y578346D03*
X832283D03*
X836220D03*
X840157D03*
X844094D03*
X848031D03*
X851969D03*
X855906D03*
X956299Y529134D03*
Y533071D03*
Y537008D03*
Y540945D03*
Y544882D03*
Y548819D03*
Y552756D03*
Y556693D03*
Y560630D03*
Y564567D03*
Y568504D03*
Y572441D03*
Y576378D03*
Y580315D03*
Y584252D03*
Y588189D03*
Y592126D03*
Y596063D03*
Y600000D03*
Y603937D03*
Y607874D03*
Y611811D03*
Y615748D03*
Y619685D03*
Y623622D03*
Y627559D03*
Y631496D03*
Y635433D03*
Y639370D03*
Y643307D03*
Y647244D03*
Y651181D03*
Y655118D03*
Y659055D03*
X960236Y529134D03*
Y533071D03*
Y537008D03*
Y540945D03*
Y544882D03*
Y548819D03*
Y552756D03*
Y556693D03*
Y560630D03*
Y564567D03*
Y568504D03*
Y572441D03*
Y576378D03*
Y580315D03*
Y584252D03*
Y588189D03*
Y592126D03*
Y596063D03*
Y600000D03*
Y603937D03*
Y607874D03*
Y611811D03*
Y615748D03*
Y619685D03*
Y623622D03*
Y627559D03*
Y631496D03*
Y635433D03*
Y639370D03*
Y643307D03*
Y647244D03*
Y651181D03*
Y655118D03*
Y659055D03*
X964173Y529134D03*
Y533071D03*
Y537008D03*
Y540945D03*
Y544882D03*
Y548819D03*
Y552756D03*
Y556693D03*
Y560630D03*
Y564567D03*
Y568504D03*
Y572441D03*
Y576378D03*
Y580315D03*
Y584252D03*
Y588189D03*
Y592126D03*
Y596063D03*
Y600000D03*
Y603937D03*
Y607874D03*
Y611811D03*
Y615748D03*
Y619685D03*
Y623622D03*
Y627559D03*
Y631496D03*
Y635433D03*
Y639370D03*
Y643307D03*
Y647244D03*
Y651181D03*
Y655118D03*
Y659055D03*
X968110Y529134D03*
Y533071D03*
Y537008D03*
Y540945D03*
Y544882D03*
Y548819D03*
Y552756D03*
Y556693D03*
Y560630D03*
Y564567D03*
Y568504D03*
Y572441D03*
Y576378D03*
Y580315D03*
Y584252D03*
Y588189D03*
Y592126D03*
Y596063D03*
Y600000D03*
Y603937D03*
Y607874D03*
Y611811D03*
Y615748D03*
Y619685D03*
Y623622D03*
Y627559D03*
Y631496D03*
Y635433D03*
Y639370D03*
Y643307D03*
Y647244D03*
Y651181D03*
Y655118D03*
Y659055D03*
X972047Y529134D03*
Y533071D03*
Y537008D03*
Y540945D03*
Y544882D03*
Y548819D03*
Y552756D03*
Y556693D03*
Y560630D03*
Y564567D03*
Y568504D03*
Y572441D03*
Y576378D03*
Y580315D03*
Y584252D03*
Y588189D03*
Y592126D03*
Y596063D03*
Y600000D03*
Y603937D03*
Y607874D03*
Y611811D03*
Y615748D03*
Y619685D03*
Y623622D03*
Y627559D03*
Y631496D03*
Y635433D03*
Y639370D03*
Y643307D03*
Y647244D03*
Y651181D03*
Y655118D03*
Y659055D03*
X975984Y529134D03*
Y533071D03*
Y537008D03*
Y540945D03*
Y544882D03*
Y643307D03*
Y647244D03*
Y651181D03*
Y655118D03*
Y659055D03*
X979921Y529134D03*
Y533071D03*
Y537008D03*
Y540945D03*
Y544882D03*
Y643307D03*
Y647244D03*
Y651181D03*
Y655118D03*
Y659055D03*
X983858Y529134D03*
Y533071D03*
Y537008D03*
Y540945D03*
Y544882D03*
Y643307D03*
Y647244D03*
Y651181D03*
Y655118D03*
Y659055D03*
X987795Y529134D03*
Y533071D03*
Y537008D03*
Y540945D03*
Y544882D03*
Y643307D03*
Y647244D03*
Y651181D03*
Y655118D03*
Y659055D03*
X991732Y529134D03*
Y533071D03*
Y537008D03*
Y540945D03*
Y544882D03*
Y643307D03*
Y647244D03*
Y651181D03*
Y655118D03*
Y659055D03*
X995669Y529134D03*
Y533071D03*
Y537008D03*
Y540945D03*
Y544882D03*
Y643307D03*
Y647244D03*
Y651181D03*
Y655118D03*
Y659055D03*
X999606Y529134D03*
Y533071D03*
Y537008D03*
Y540945D03*
Y544882D03*
Y643307D03*
Y647244D03*
Y651181D03*
Y655118D03*
Y659055D03*
X1003543Y529134D03*
Y533071D03*
Y537008D03*
Y540945D03*
Y544882D03*
Y576378D03*
Y580315D03*
Y584252D03*
Y588189D03*
Y592126D03*
Y596063D03*
Y600000D03*
Y603937D03*
Y607874D03*
Y611811D03*
Y643307D03*
Y647244D03*
Y651181D03*
Y655118D03*
Y659055D03*
X1007480Y529134D03*
Y533071D03*
Y537008D03*
Y540945D03*
Y544882D03*
Y576378D03*
Y580315D03*
Y584252D03*
Y588189D03*
Y592126D03*
Y596063D03*
Y600000D03*
Y603937D03*
Y607874D03*
Y611811D03*
Y643307D03*
Y647244D03*
Y651181D03*
Y655118D03*
Y659055D03*
X1011417Y529134D03*
Y533071D03*
Y537008D03*
Y540945D03*
Y544882D03*
Y576378D03*
Y580315D03*
Y584252D03*
Y588189D03*
Y592126D03*
Y596063D03*
Y600000D03*
Y603937D03*
Y607874D03*
Y611811D03*
Y643307D03*
Y647244D03*
Y651181D03*
Y655118D03*
Y659055D03*
X1015354Y529134D03*
Y533071D03*
Y537008D03*
Y540945D03*
Y544882D03*
Y576378D03*
Y580315D03*
Y584252D03*
Y588189D03*
Y592126D03*
Y596063D03*
Y600000D03*
Y603937D03*
Y607874D03*
Y611811D03*
Y643307D03*
Y647244D03*
Y651181D03*
Y655118D03*
Y659055D03*
X1019291Y529134D03*
Y533071D03*
Y537008D03*
Y540945D03*
Y544882D03*
Y576378D03*
Y580315D03*
Y584252D03*
Y588189D03*
Y592126D03*
Y596063D03*
Y600000D03*
Y603937D03*
Y607874D03*
Y611811D03*
Y643307D03*
Y647244D03*
Y651181D03*
Y655118D03*
Y659055D03*
X1023228Y529134D03*
Y533071D03*
Y537008D03*
Y540945D03*
Y544882D03*
Y576378D03*
Y580315D03*
Y584252D03*
Y588189D03*
Y592126D03*
Y596063D03*
Y600000D03*
Y603937D03*
Y607874D03*
Y611811D03*
Y643307D03*
Y647244D03*
Y651181D03*
Y655118D03*
Y659055D03*
X1027165Y529134D03*
Y533071D03*
Y537008D03*
Y540945D03*
Y544882D03*
Y576378D03*
Y580315D03*
Y584252D03*
Y588189D03*
Y592126D03*
Y596063D03*
Y600000D03*
Y603937D03*
Y607874D03*
Y611811D03*
Y643307D03*
Y647244D03*
Y651181D03*
Y655118D03*
Y659055D03*
X1031102Y529134D03*
Y533071D03*
Y537008D03*
Y540945D03*
Y544882D03*
Y576378D03*
Y580315D03*
Y584252D03*
Y588189D03*
Y592126D03*
Y596063D03*
Y600000D03*
Y603937D03*
Y607874D03*
Y611811D03*
Y643307D03*
Y647244D03*
Y651181D03*
Y655118D03*
Y659055D03*
X1035039Y529134D03*
Y533071D03*
Y537008D03*
Y540945D03*
Y544882D03*
Y576378D03*
Y580315D03*
Y584252D03*
Y588189D03*
Y592126D03*
Y596063D03*
Y600000D03*
Y603937D03*
Y607874D03*
Y611811D03*
Y643307D03*
Y647244D03*
Y651181D03*
Y655118D03*
Y659055D03*
X1038976Y529134D03*
Y533071D03*
Y537008D03*
Y540945D03*
Y544882D03*
Y576378D03*
Y580315D03*
Y584252D03*
Y588189D03*
Y592126D03*
Y596063D03*
Y600000D03*
Y603937D03*
Y607874D03*
Y611811D03*
Y643307D03*
Y647244D03*
Y651181D03*
Y655118D03*
Y659055D03*
X1042913Y529134D03*
Y533071D03*
Y537008D03*
Y540945D03*
Y544882D03*
Y643307D03*
Y647244D03*
Y651181D03*
Y655118D03*
Y659055D03*
X1046850Y529134D03*
Y533071D03*
Y537008D03*
Y540945D03*
Y544882D03*
Y643307D03*
Y647244D03*
Y651181D03*
Y655118D03*
Y659055D03*
X1050787Y529134D03*
Y533071D03*
Y537008D03*
Y540945D03*
Y544882D03*
Y643307D03*
Y647244D03*
Y651181D03*
Y655118D03*
Y659055D03*
X1054724Y529134D03*
Y533071D03*
Y537008D03*
Y540945D03*
Y544882D03*
Y643307D03*
Y647244D03*
Y651181D03*
Y655118D03*
Y659055D03*
X1058661Y529134D03*
Y533071D03*
Y537008D03*
Y540945D03*
Y544882D03*
Y643307D03*
Y647244D03*
Y651181D03*
Y655118D03*
Y659055D03*
X1062598Y529134D03*
Y533071D03*
Y537008D03*
Y540945D03*
Y544882D03*
Y643307D03*
Y647244D03*
Y651181D03*
Y655118D03*
Y659055D03*
X1066535Y529134D03*
Y533071D03*
Y537008D03*
Y540945D03*
Y544882D03*
Y643307D03*
Y647244D03*
Y651181D03*
Y655118D03*
Y659055D03*
X1070472Y529134D03*
Y533071D03*
Y537008D03*
Y540945D03*
Y544882D03*
Y548819D03*
Y552756D03*
Y556693D03*
Y560630D03*
Y564567D03*
Y568504D03*
Y572441D03*
Y576378D03*
Y580315D03*
Y584252D03*
Y588189D03*
Y592126D03*
Y596063D03*
Y600000D03*
Y603937D03*
Y607874D03*
Y611811D03*
Y615748D03*
Y619685D03*
Y623622D03*
Y627559D03*
Y631496D03*
Y635433D03*
Y639370D03*
Y643307D03*
Y647244D03*
Y651181D03*
Y655118D03*
Y659055D03*
X1074409Y529134D03*
Y533071D03*
Y537008D03*
Y540945D03*
Y544882D03*
Y548819D03*
Y552756D03*
Y556693D03*
Y560630D03*
Y564567D03*
Y568504D03*
Y572441D03*
Y576378D03*
Y580315D03*
Y584252D03*
Y588189D03*
Y592126D03*
Y596063D03*
Y600000D03*
Y603937D03*
Y607874D03*
Y611811D03*
Y615748D03*
Y619685D03*
Y623622D03*
Y627559D03*
Y631496D03*
Y635433D03*
Y639370D03*
Y643307D03*
Y647244D03*
Y651181D03*
Y655118D03*
Y659055D03*
X1078346Y529134D03*
Y533071D03*
Y537008D03*
Y540945D03*
Y544882D03*
Y548819D03*
Y552756D03*
Y556693D03*
Y560630D03*
Y564567D03*
Y568504D03*
Y572441D03*
Y576378D03*
Y580315D03*
Y584252D03*
Y588189D03*
Y592126D03*
Y596063D03*
Y600000D03*
Y603937D03*
Y607874D03*
Y611811D03*
Y615748D03*
Y619685D03*
Y623622D03*
Y627559D03*
Y631496D03*
Y635433D03*
Y639370D03*
Y643307D03*
Y647244D03*
Y651181D03*
Y655118D03*
Y659055D03*
X1082283Y529134D03*
Y533071D03*
Y537008D03*
Y540945D03*
Y544882D03*
Y548819D03*
Y552756D03*
Y556693D03*
Y560630D03*
Y564567D03*
Y568504D03*
Y572441D03*
Y576378D03*
Y580315D03*
Y584252D03*
Y588189D03*
Y592126D03*
Y596063D03*
Y600000D03*
Y603937D03*
Y607874D03*
Y611811D03*
Y615748D03*
Y619685D03*
Y623622D03*
Y627559D03*
Y631496D03*
Y635433D03*
Y639370D03*
Y643307D03*
Y647244D03*
Y651181D03*
Y655118D03*
Y659055D03*
X1086220Y529134D03*
Y533071D03*
Y537008D03*
Y540945D03*
Y544882D03*
Y548819D03*
Y552756D03*
Y556693D03*
Y560630D03*
Y564567D03*
Y568504D03*
Y572441D03*
Y576378D03*
Y580315D03*
Y584252D03*
Y588189D03*
Y592126D03*
Y596063D03*
Y600000D03*
Y603937D03*
Y607874D03*
Y611811D03*
Y615748D03*
Y619685D03*
Y623622D03*
Y627559D03*
Y631496D03*
Y635433D03*
Y639370D03*
Y643307D03*
Y647244D03*
Y651181D03*
Y655118D03*
Y659055D03*
X549250Y952561D02*
X551219D01*
X549250Y950002D02*
X551219D01*
X549250Y947443D02*
X551219D01*
X560274D02*
X562243D01*
X560274Y950002D02*
X562243D01*
X560274Y952561D02*
X562243D01*
X560274Y955120D02*
X562243D01*
X550250Y977061D02*
X552219D01*
X550250Y974502D02*
X552219D01*
X550250Y971943D02*
X552219D01*
X561274D02*
X563243D01*
X561274Y974502D02*
X563243D01*
X561274Y977061D02*
X563243D01*
X561274Y979620D02*
X563243D01*
X550750Y1026061D02*
X552719D01*
X550750Y1023502D02*
X552719D01*
X550750Y1020943D02*
X552719D01*
X561774D02*
X563743D01*
X561774Y1023502D02*
X563743D01*
X561774Y1026061D02*
X563743D01*
X561774Y1028620D02*
X563743D01*
X550750Y1001561D02*
X552719D01*
X550750Y999002D02*
X552719D01*
X550750Y996443D02*
X552719D01*
X561774D02*
X563743D01*
X561774Y999002D02*
X563743D01*
X561774Y1001561D02*
X563743D01*
X561774Y1004120D02*
X563743D01*
G54D194*
X895472Y495669D02*
X899016D01*
X908465Y768504D02*
X904921D01*
X1256840Y615362D02*
X1253297D01*
X263778Y525854D02*
Y522311D01*
G54D195*
X725383Y1016219D02*
Y1005609D01*
X731288Y1016219D02*
Y1005609D01*
X737194Y1016219D02*
Y1005609D01*
X743099Y1016219D02*
Y1005609D01*
X749005Y1016219D02*
Y1005609D01*
X754910Y1016219D02*
Y1005609D01*
X760816Y1016219D02*
Y1005609D01*
X766721Y1016219D02*
Y1005609D01*
X772627Y1016219D02*
Y1005609D01*
X778532Y1016219D02*
Y1005609D01*
X784438Y1016219D02*
Y1005609D01*
X790343Y1016219D02*
Y1005609D01*
X796249Y1016219D02*
Y1005609D01*
X802154Y1016219D02*
Y1005609D01*
X808060Y1016219D02*
Y1005609D01*
X813965Y1016219D02*
Y1005609D01*
X819871Y1016219D02*
Y1005609D01*
X825776Y1016219D02*
Y1005609D01*
X831682Y1016219D02*
Y1005609D01*
X837587Y1016219D02*
Y1005609D01*
X843493Y1016219D02*
Y1005609D01*
X849398Y1016219D02*
Y1005609D01*
X855304Y1016219D02*
Y1005609D01*
X861209Y1016219D02*
Y1005609D01*
X867115Y1016219D02*
Y1005609D01*
X873020Y1016219D02*
Y1005609D01*
X878926Y1016219D02*
Y1005609D01*
X884831Y1016219D02*
Y1005609D01*
X890737Y1016219D02*
Y1005609D01*
X896643Y1016219D02*
Y1005609D01*
X902548Y1016219D02*
Y1005609D01*
X908454Y1016219D02*
Y1005609D01*
X914359Y1016219D02*
Y1005609D01*
X920265Y1016219D02*
Y1005609D01*
X926170Y1016219D02*
Y1005609D01*
X932076Y1016219D02*
Y1005609D01*
X937981Y1016219D02*
Y1005609D01*
X725383Y1041416D02*
Y1030806D01*
X731288Y1041416D02*
Y1030806D01*
X737194Y1041416D02*
Y1030806D01*
X743099Y1041416D02*
Y1030806D01*
X749005Y1041416D02*
Y1030806D01*
X754910Y1041416D02*
Y1030806D01*
X760816Y1041416D02*
Y1030806D01*
X766721Y1041416D02*
Y1030806D01*
X772627Y1041416D02*
Y1030806D01*
X778532Y1041416D02*
Y1030806D01*
X784438Y1041416D02*
Y1030806D01*
X790343Y1041416D02*
Y1030806D01*
X796249Y1041416D02*
Y1030806D01*
X802154Y1041416D02*
Y1030806D01*
X808060Y1041416D02*
Y1030806D01*
X813965Y1041416D02*
Y1030806D01*
X819871Y1041416D02*
Y1030806D01*
X825776Y1041416D02*
Y1030806D01*
X831682Y1041416D02*
Y1030806D01*
X837587Y1041416D02*
Y1030806D01*
X843493Y1041416D02*
Y1030806D01*
X849398Y1041416D02*
Y1030806D01*
X855304Y1041416D02*
Y1030806D01*
X861209Y1041416D02*
Y1030806D01*
X867115Y1041416D02*
Y1030806D01*
X873020Y1041416D02*
Y1030806D01*
X878926Y1041416D02*
Y1030806D01*
X884831Y1041416D02*
Y1030806D01*
X890737Y1041416D02*
Y1030806D01*
X896643Y1041416D02*
Y1030806D01*
X902548Y1041416D02*
Y1030806D01*
X908454Y1041416D02*
Y1030806D01*
X914359Y1041416D02*
Y1030806D01*
X920265Y1041416D02*
Y1030806D01*
X926170Y1041416D02*
Y1030806D01*
X932076Y1041416D02*
Y1030806D01*
X937981Y1041416D02*
Y1030806D01*
X727351Y1016219D02*
Y1005609D01*
X729320Y1016219D02*
Y1005609D01*
X733257Y1016219D02*
Y1005609D01*
X739162Y1016219D02*
Y1005609D01*
X745068Y1016219D02*
Y1005609D01*
X750973Y1016219D02*
Y1005609D01*
X756879Y1016219D02*
Y1005609D01*
X762784Y1016219D02*
Y1005609D01*
X768690Y1016219D02*
Y1005609D01*
X774595Y1016219D02*
Y1005609D01*
X780501Y1016219D02*
Y1005609D01*
X786406Y1016219D02*
Y1005609D01*
X792312Y1016219D02*
Y1005609D01*
X798217Y1016219D02*
Y1005609D01*
X804123Y1016219D02*
Y1005609D01*
X810028Y1016219D02*
Y1005609D01*
X815934Y1016219D02*
Y1005609D01*
X821839Y1016219D02*
Y1005609D01*
X827745Y1016219D02*
Y1005609D01*
X833650Y1016219D02*
Y1005609D01*
X839556Y1016219D02*
Y1005609D01*
X845461Y1016219D02*
Y1005609D01*
X851367Y1016219D02*
Y1005609D01*
X857272Y1016219D02*
Y1005609D01*
X863178Y1016219D02*
Y1005609D01*
X869083Y1016219D02*
Y1005609D01*
X874989Y1016219D02*
Y1005609D01*
X880894Y1016219D02*
Y1005609D01*
X886800Y1016219D02*
Y1005609D01*
X892706Y1016219D02*
Y1005609D01*
X898611Y1016219D02*
Y1005609D01*
X904517Y1016219D02*
Y1005609D01*
X910422Y1016219D02*
Y1005609D01*
X916328Y1016219D02*
Y1005609D01*
X922233Y1016219D02*
Y1005609D01*
X928139Y1016219D02*
Y1005609D01*
X934044Y1016219D02*
Y1005609D01*
X735225Y1016219D02*
Y1005609D01*
X741131Y1016219D02*
Y1005609D01*
X747036Y1016219D02*
Y1005609D01*
X752942Y1016219D02*
Y1005609D01*
X758847Y1016219D02*
Y1005609D01*
X764753Y1016219D02*
Y1005609D01*
X770658Y1016219D02*
Y1005609D01*
X776564Y1016219D02*
Y1005609D01*
X782469Y1016219D02*
Y1005609D01*
X788375Y1016219D02*
Y1005609D01*
X794280Y1016219D02*
Y1005609D01*
X800186Y1016219D02*
Y1005609D01*
X806091Y1016219D02*
Y1005609D01*
X811997Y1016219D02*
Y1005609D01*
X817902Y1016219D02*
Y1005609D01*
X823808Y1016219D02*
Y1005609D01*
X829713Y1016219D02*
Y1005609D01*
X835619Y1016219D02*
Y1005609D01*
X841524Y1016219D02*
Y1005609D01*
X847430Y1016219D02*
Y1005609D01*
X853335Y1016219D02*
Y1005609D01*
X859241Y1016219D02*
Y1005609D01*
X865146Y1016219D02*
Y1005609D01*
X871052Y1016219D02*
Y1005609D01*
X876957Y1016219D02*
Y1005609D01*
X882863Y1016219D02*
Y1005609D01*
X888769Y1016219D02*
Y1005609D01*
X894674Y1016219D02*
Y1005609D01*
X900580Y1016219D02*
Y1005609D01*
X906485Y1016219D02*
Y1005609D01*
X912391Y1016219D02*
Y1005609D01*
X918296Y1016219D02*
Y1005609D01*
X924202Y1016219D02*
Y1005609D01*
X930107Y1016219D02*
Y1005609D01*
X936013Y1016219D02*
Y1005609D01*
G54D196*
X1254232Y515551D02*
X1256004D01*
X1254232Y513583D02*
X1256004D01*
X1254232Y511614D02*
X1256004D01*
X1254232Y509646D02*
X1256004D01*
X1259744D02*
X1261516D01*
X1259744Y511614D02*
X1261516D01*
X1259744Y513583D02*
X1261516D01*
X1259744Y515551D02*
X1261516D01*
X1254232Y504921D02*
X1256004D01*
X1254232Y502953D02*
X1256004D01*
X1254232Y500984D02*
X1256004D01*
X1254232Y499016D02*
X1256004D01*
X1259744D02*
X1261516D01*
X1259744Y500984D02*
X1261516D01*
X1259744Y502953D02*
X1261516D01*
X1259744Y504921D02*
X1261516D01*
X1254232Y493110D02*
X1256004D01*
X1254232Y491142D02*
X1256004D01*
X1254232Y489173D02*
X1256004D01*
X1254232Y487205D02*
X1256004D01*
X1259744D02*
X1261516D01*
X1259744Y489173D02*
X1261516D01*
X1259744Y491142D02*
X1261516D01*
X1259744Y493110D02*
X1261516D01*
X1254232Y457677D02*
X1256004D01*
X1254232Y455709D02*
X1256004D01*
X1254232Y453740D02*
X1256004D01*
X1254232Y451772D02*
X1256004D01*
X1259744D02*
X1261516D01*
X1259744Y453740D02*
X1261516D01*
X1259744Y455709D02*
X1261516D01*
X1259744Y457677D02*
X1261516D01*
X1254232Y447047D02*
X1256004D01*
X1254232Y445079D02*
X1256004D01*
X1254232Y443110D02*
X1256004D01*
X1254232Y441142D02*
X1256004D01*
X1259744D02*
X1261516D01*
X1259744Y443110D02*
X1261516D01*
X1259744Y445079D02*
X1261516D01*
X1259744Y447047D02*
X1261516D01*
X1254232Y437205D02*
X1256004D01*
X1254232Y435236D02*
X1256004D01*
X1254232Y433268D02*
X1256004D01*
X1254232Y431299D02*
X1256004D01*
X1259744D02*
X1261516D01*
X1259744Y433268D02*
X1261516D01*
X1259744Y435236D02*
X1261516D01*
X1259744Y437205D02*
X1261516D01*
X1254232Y532874D02*
X1256004D01*
X1254232Y530906D02*
X1256004D01*
X1254232Y528937D02*
X1256004D01*
X1254232Y526969D02*
X1256004D01*
X1259744D02*
X1261516D01*
X1259744Y528937D02*
X1261516D01*
X1259744Y530906D02*
X1261516D01*
X1259744Y532874D02*
X1261516D01*
X312302Y446720D02*
X310530D01*
X312302Y448689D02*
X310530D01*
X312302Y450657D02*
X310530D01*
X312302Y452626D02*
X310530D01*
X306790D02*
X305018D01*
X306790Y450657D02*
X305018D01*
X306790Y448689D02*
X305018D01*
X306790Y446720D02*
X305018D01*
X312302Y457350D02*
X310530D01*
X312302Y459319D02*
X310530D01*
X312302Y461287D02*
X310530D01*
X312302Y463256D02*
X310530D01*
X306790D02*
X305018D01*
X306790Y461287D02*
X305018D01*
X306790Y459319D02*
X305018D01*
X306790Y457350D02*
X305018D01*
X312302Y470343D02*
X310530D01*
X312302Y472311D02*
X310530D01*
X312302Y474280D02*
X310530D01*
X312302Y476248D02*
X310530D01*
X306790D02*
X305018D01*
X306790Y474280D02*
X305018D01*
X306790Y472311D02*
X305018D01*
X306790Y470343D02*
X305018D01*
X312302Y483335D02*
X310530D01*
X312302Y485303D02*
X310530D01*
X312302Y487272D02*
X310530D01*
X312302Y489240D02*
X310530D01*
X306790D02*
X305018D01*
X306790Y487272D02*
X305018D01*
X306790Y485303D02*
X305018D01*
X306790Y483335D02*
X305018D01*
X312302Y516012D02*
X310530D01*
X312302Y517980D02*
X310530D01*
X312302Y519949D02*
X310530D01*
X312302Y521917D02*
X310530D01*
X306790D02*
X305018D01*
X306790Y519949D02*
X305018D01*
X306790Y517980D02*
X305018D01*
X306790Y516012D02*
X305018D01*
X312302Y535697D02*
X310530D01*
X312302Y537665D02*
X310530D01*
X312302Y539634D02*
X310530D01*
X312302Y541602D02*
X310530D01*
X306790D02*
X305018D01*
X306790Y539634D02*
X305018D01*
X306790Y537665D02*
X305018D01*
X306790Y535697D02*
X305018D01*
X312302Y554594D02*
X310530D01*
X312302Y556563D02*
X310530D01*
X312302Y558531D02*
X310530D01*
X312302Y560500D02*
X310530D01*
X306790D02*
X305018D01*
X306790Y558531D02*
X305018D01*
X306790Y556563D02*
X305018D01*
X306790Y554594D02*
X305018D01*
G54D197*
X1059744Y462008D02*
X1061516D01*
X1059744Y450591D02*
X1061516D01*
X984547Y493898D02*
X986319D01*
X984547Y482480D02*
X986319D01*
X1077067Y461614D02*
X1078839D01*
X1077067Y450197D02*
X1078839D01*
X1159941Y680906D02*
X1158169D01*
X1159941Y692323D02*
X1158169D01*
X1144193Y680906D02*
X1142421D01*
X1144193Y692323D02*
X1142421D01*
X999508Y493898D02*
X1001280D01*
X999508Y482480D02*
X1001280D01*
X1092815Y461614D02*
X1094587D01*
X1092815Y450197D02*
X1094587D01*
X1038091Y462008D02*
X1039862D01*
X1038091Y450591D02*
X1039862D01*
X1246097Y139404D02*
X1247869D01*
X1246097Y127987D02*
X1247869D01*
X962402Y258563D02*
Y260335D01*
X973819Y258563D02*
Y260335D01*
X962402Y227067D02*
Y228839D01*
X973819Y227067D02*
Y228839D01*
X604921Y204232D02*
Y206004D01*
X616339Y204232D02*
Y206004D01*
X430906Y784154D02*
Y785925D01*
X442323Y784154D02*
Y785925D01*
X308858Y339272D02*
Y341043D01*
X320276Y339272D02*
Y341043D01*
X1157283Y264469D02*
Y266240D01*
X1168701Y264469D02*
Y266240D01*
X1163189Y786122D02*
Y787894D01*
X1174606Y786122D02*
Y787894D01*
X288457Y653839D02*
Y655610D01*
X299874Y653839D02*
Y655610D01*
X288457Y689272D02*
Y691043D01*
X299874Y689272D02*
Y691043D01*
X308858Y323524D02*
Y325295D01*
X320276Y323524D02*
Y325295D01*
X288457Y671555D02*
Y673327D01*
X299874Y671555D02*
Y673327D01*
X430906Y799902D02*
Y801673D01*
X442323Y799902D02*
Y801673D01*
X308858Y386516D02*
Y388287D01*
X320276Y386516D02*
Y388287D01*
X900295Y351772D02*
X902067D01*
X900295Y340354D02*
X902067D01*
X835335Y775000D02*
X837106D01*
X835335Y763583D02*
X837106D01*
X308858Y370768D02*
Y372539D01*
X320276Y370768D02*
Y372539D01*
X868799Y351457D02*
X870571D01*
X868799Y340039D02*
X870571D01*
X494783Y881299D02*
X496555D01*
X494783Y869882D02*
X496555D01*
X962402Y242815D02*
Y244587D01*
X973819Y242815D02*
Y244587D01*
X1157283Y311713D02*
Y313484D01*
X1168701Y311713D02*
Y313484D01*
X829429Y432480D02*
X831201D01*
X829429Y421063D02*
X831201D01*
X847146Y432480D02*
X848917D01*
X847146Y421063D02*
X848917D01*
X809744Y775000D02*
X811516D01*
X809744Y763583D02*
X811516D01*
X308858Y355020D02*
Y356791D01*
X320276Y355020D02*
Y356791D01*
X884547Y351772D02*
X886319D01*
X884547Y340354D02*
X886319D01*
X1163189Y855020D02*
Y856791D01*
X1174606Y855020D02*
Y856791D01*
X1163189Y839272D02*
Y841043D01*
X1174606Y839272D02*
Y841043D01*
G54D198*
X1249409Y396063D02*
X1249803D01*
X1249409Y371654D02*
X1249803D01*
X564961Y854134D02*
Y853740D01*
X540551Y854134D02*
Y853740D01*
X667323Y854134D02*
Y853740D01*
X642913Y854134D02*
Y853740D01*
X614173Y854134D02*
Y853740D01*
X589764Y854134D02*
Y853740D01*
X137645Y666879D02*
Y666485D01*
X113235Y666879D02*
Y666485D01*
X288583Y188386D02*
Y188780D01*
X312992Y188386D02*
Y188780D01*
X286038Y152325D02*
X286431D01*
X286038Y127916D02*
X286431D01*
X242038Y152325D02*
X242431D01*
X242038Y127916D02*
X242431D01*
X264038Y152325D02*
X264431D01*
X264038Y127916D02*
X264431D01*
X192431Y391916D02*
X192038D01*
X192431Y416325D02*
X192038D01*
X152439Y593917D02*
Y593524D01*
X128030Y593917D02*
Y593524D01*
X183138Y660017D02*
Y659624D01*
X158728Y660017D02*
Y659624D01*
X296654Y293307D02*
X297047D01*
X296654Y268898D02*
X297047D01*
X320276Y293307D02*
X320669D01*
X320276Y268898D02*
X320669D01*
X1094030Y988813D02*
X1094424D01*
X1094030Y964404D02*
X1094424D01*
G54D199*
X1216972Y734388D03*
X1209472Y730294D03*
X1216972Y726514D03*
X1209472Y722420D03*
X1216972Y718640D03*
X1209472Y714546D03*
X1216972Y710766D03*
X1209472Y706672D03*
X1216972Y702892D03*
X1209472Y698798D03*
X1216972Y695018D03*
X1209472Y690924D03*
X1216972Y687144D03*
X1209472Y683050D03*
X1216972Y679270D03*
X1209472Y675176D03*
X1216972Y671396D03*
X1209472Y667302D03*
X1216972Y663522D03*
X1209472Y659428D03*
X1216972Y655648D03*
X1209472Y651554D03*
X1216972Y647774D03*
X1209472Y643680D03*
X1216972Y639900D03*
X1209472Y635806D03*
X1216972Y632026D03*
X1209472Y627931D03*
X1216972Y624152D03*
X1209472Y620057D03*
X1216972Y616278D03*
X1209472Y612183D03*
X1216972Y608404D03*
X1209472Y604309D03*
X1216972Y600530D03*
X1209472Y596435D03*
X1216972Y592656D03*
X1209472Y588561D03*
X1216972Y584782D03*
X1209472Y580687D03*
X1216972Y576908D03*
X1209472Y572813D03*
X1216972Y569034D03*
X1209472Y564939D03*
X1216972Y561160D03*
X1209472Y557065D03*
X1216972Y553286D03*
X1209472Y549191D03*
X1216972Y545412D03*
X1209472Y541317D03*
X1216972Y537538D03*
X1209472Y533443D03*
X1216972Y529664D03*
X1209472Y525569D03*
X1216972Y521790D03*
X1209472Y517695D03*
X1216972Y513916D03*
X1209472Y509821D03*
X1216972Y506042D03*
X1209472Y501947D03*
X1216972Y498168D03*
X1209472Y494073D03*
X1216972Y490294D03*
X1209472Y486199D03*
X1216972Y466514D03*
X1209472Y462577D03*
X1216972Y458640D03*
X1209472Y454703D03*
X1216972Y450766D03*
X1209472Y446829D03*
X1216972Y442892D03*
X1209472Y438955D03*
X1216972Y435018D03*
X1209472Y431081D03*
X1216972Y427144D03*
X1209472Y423207D03*
X1216972Y419270D03*
X1209472Y415333D03*
X1216972Y411396D03*
X1209472Y407459D03*
X1216972Y403522D03*
X1209472Y399585D03*
X1216972Y395648D03*
X1209472Y391711D03*
X1216972Y387774D03*
X1209472Y383837D03*
X1216972Y379900D03*
X1209472Y375963D03*
X1216972Y372026D03*
X1209472Y368089D03*
X1216972Y364152D03*
X1209472Y360215D03*
X1216972Y356278D03*
X1209472Y352341D03*
X1216972Y348404D03*
X1209472Y344467D03*
X1216972Y340530D03*
X1209472Y336593D03*
X1216972Y332656D03*
X1209472Y328719D03*
X1216972Y324782D03*
X1209472Y320845D03*
X1216972Y316908D03*
X1209472Y312971D03*
X1216972Y309034D03*
X1209472Y305097D03*
X1216972Y301160D03*
X1209472Y297223D03*
X1216972Y293286D03*
X1209472Y289349D03*
X1216972Y285412D03*
X1209472Y281475D03*
X1216972Y277538D03*
X1209472Y273601D03*
X1216972Y269664D03*
X1209472Y265727D03*
X1216972Y261790D03*
X1209472Y257853D03*
X1216972Y253916D03*
X1209472Y249979D03*
X1231992Y734231D03*
X1224492Y730294D03*
X1231992Y726357D03*
X1224492Y722420D03*
X1231992Y718483D03*
X1224492Y714546D03*
X1231992Y710609D03*
X1224492Y706672D03*
X1231992Y702735D03*
X1224492Y698798D03*
X1231992Y694861D03*
X1224492Y690924D03*
X1231992Y686987D03*
X1224492Y683050D03*
X1231992Y679113D03*
X1224492Y675176D03*
X1231992Y671239D03*
X1224492Y667302D03*
X1231992Y663365D03*
X1224492Y659428D03*
X1231992Y655491D03*
X1224492Y651554D03*
X1231992Y647617D03*
X1224492Y643680D03*
X1231992Y639743D03*
X1224492Y635806D03*
X1231992Y631869D03*
X1224492Y627931D03*
X1231992Y623994D03*
X1224492Y620057D03*
X1231992Y616120D03*
X1224492Y612183D03*
X1231992Y608246D03*
X1224492Y604309D03*
X1231992Y600372D03*
X1224492Y596435D03*
X1231992Y592498D03*
X1224492Y588561D03*
X1231992Y584624D03*
X1224492Y580687D03*
X1231992Y576750D03*
X1224492Y572813D03*
X1231992Y568876D03*
X1224492Y564939D03*
X1231992Y561002D03*
X1224492Y557065D03*
X1231992Y553128D03*
X1224492Y549191D03*
X1231992Y545254D03*
X1224492Y541317D03*
X1231992Y537380D03*
X1224492Y533443D03*
X1231992Y529506D03*
X1224492Y525569D03*
X1231992Y521632D03*
X1224492Y517695D03*
X1231992Y513758D03*
X1224492Y509821D03*
X1231992Y505884D03*
X1224492Y501947D03*
X1231992Y498010D03*
X1224492Y494073D03*
X1231992Y490136D03*
X1224492Y486199D03*
X1231992Y466514D03*
X1224492Y462577D03*
X1231992Y458640D03*
X1224492Y454703D03*
X1231992Y450766D03*
X1224492Y446829D03*
X1231992Y442892D03*
X1224492Y438955D03*
X1231992Y435018D03*
X1224492Y431081D03*
X1231992Y427144D03*
X1224492Y423207D03*
X1231992Y419270D03*
X1224492Y415333D03*
X1231992Y411396D03*
X1224492Y407459D03*
X1231992Y403522D03*
X1224492Y399585D03*
X1231992Y395648D03*
X1224492Y391711D03*
X1231992Y387774D03*
X1224492Y383837D03*
X1231992Y379900D03*
X1224492Y375963D03*
X1231992Y372026D03*
X1224492Y368089D03*
X1231992Y364152D03*
X1224492Y360215D03*
X1231992Y356278D03*
X1224492Y352341D03*
X1231992Y348404D03*
X1224492Y344467D03*
X1231992Y340530D03*
X1224492Y336593D03*
X1231992Y332656D03*
X1224492Y328719D03*
X1231992Y324782D03*
X1224492Y320845D03*
X1231992Y316908D03*
X1224492Y312971D03*
X1231992Y309034D03*
X1224492Y305097D03*
X1231992Y301160D03*
X1224492Y297223D03*
X1231992Y293286D03*
X1224492Y289349D03*
X1231992Y285412D03*
X1224492Y281475D03*
X1231992Y277538D03*
X1224492Y273601D03*
X1231992Y269664D03*
X1224492Y265727D03*
X1231992Y261790D03*
X1224492Y257853D03*
X1231992Y253916D03*
X1224492Y249979D03*
X356792Y250232D03*
X364292Y254327D03*
X356792Y258106D03*
X364292Y262201D03*
X356792Y265980D03*
X364292Y270075D03*
X356792Y273854D03*
X364292Y277949D03*
X356792Y281728D03*
X364292Y285823D03*
X356792Y289602D03*
X364292Y293697D03*
X356792Y297476D03*
X364292Y301571D03*
X356792Y305350D03*
X364292Y309445D03*
X356792Y313224D03*
X364292Y317319D03*
X356792Y321098D03*
X364292Y325193D03*
X356792Y328972D03*
X364292Y333067D03*
X356792Y336846D03*
X364292Y340941D03*
X356792Y344720D03*
X364292Y348815D03*
X356792Y352594D03*
X364292Y356689D03*
X356792Y360469D03*
X364292Y364563D03*
X356792Y368343D03*
X364292Y372437D03*
X356792Y376217D03*
X364292Y380311D03*
X356792Y384091D03*
X364292Y388185D03*
X356792Y391965D03*
X364292Y396059D03*
X356792Y399839D03*
X364292Y403933D03*
X356792Y407713D03*
X364292Y411807D03*
X356792Y415587D03*
X364292Y419681D03*
X356792Y423461D03*
X364292Y427555D03*
X356792Y431335D03*
X364292Y435429D03*
X356792Y439209D03*
X364292Y443303D03*
X356792Y447083D03*
X364292Y451177D03*
X356792Y454957D03*
X364292Y459051D03*
X356792Y462831D03*
X364292Y466925D03*
X356792Y470705D03*
X364292Y474799D03*
X356792Y478579D03*
X364292Y482673D03*
X356792Y486453D03*
X364292Y490547D03*
X356792Y494327D03*
X364292Y498421D03*
X356792Y518106D03*
X364292Y522043D03*
X356792Y525980D03*
X364292Y529917D03*
X356792Y533854D03*
X364292Y537791D03*
X356792Y541728D03*
X364292Y545665D03*
X356792Y549602D03*
X364292Y553539D03*
X356792Y557476D03*
X364292Y561413D03*
X356792Y565350D03*
X364292Y569287D03*
X356792Y573224D03*
X364292Y577161D03*
X356792Y581098D03*
X364292Y585035D03*
X356792Y588972D03*
X364292Y592909D03*
X356792Y596846D03*
X364292Y600783D03*
X356792Y604720D03*
X364292Y608657D03*
X356792Y612594D03*
X364292Y616531D03*
X356792Y620469D03*
X364292Y624406D03*
X356792Y628343D03*
X364292Y632280D03*
X356792Y636217D03*
X364292Y640154D03*
X356792Y644091D03*
X364292Y648028D03*
X356792Y651965D03*
X364292Y655902D03*
X356792Y659839D03*
X364292Y663776D03*
X356792Y667713D03*
X364292Y671650D03*
X356792Y675587D03*
X364292Y679524D03*
X356792Y683461D03*
X364292Y687398D03*
X356792Y691335D03*
X364292Y695272D03*
X356792Y699209D03*
X364292Y703146D03*
X356792Y707083D03*
X364292Y711020D03*
X356792Y714957D03*
X364292Y718894D03*
X356792Y722831D03*
X364292Y726768D03*
X356792Y730705D03*
X364292Y734642D03*
X341772Y250390D03*
X349272Y254327D03*
X341772Y258264D03*
X349272Y262201D03*
X341772Y266138D03*
X349272Y270075D03*
X341772Y274012D03*
X349272Y277949D03*
X341772Y281886D03*
X349272Y285823D03*
X341772Y289760D03*
X349272Y293697D03*
X341772Y297634D03*
X349272Y301571D03*
X341772Y305508D03*
X349272Y309445D03*
X341772Y313382D03*
X349272Y317319D03*
X341772Y321256D03*
X349272Y325193D03*
X341772Y329130D03*
X349272Y333067D03*
X341772Y337004D03*
X349272Y340941D03*
X341772Y344878D03*
X349272Y348815D03*
X341772Y352752D03*
X349272Y356689D03*
X341772Y360626D03*
X349272Y364563D03*
X341772Y368500D03*
X349272Y372437D03*
X341772Y376374D03*
X349272Y380311D03*
X341772Y384248D03*
X349272Y388185D03*
X341772Y392122D03*
X349272Y396059D03*
X341772Y399996D03*
X349272Y403933D03*
X341772Y407870D03*
X349272Y411807D03*
X341772Y415744D03*
X349272Y419681D03*
X341772Y423618D03*
X349272Y427555D03*
X341772Y431492D03*
X349272Y435429D03*
X341772Y439366D03*
X349272Y443303D03*
X341772Y447240D03*
X349272Y451177D03*
X341772Y455114D03*
X349272Y459051D03*
X341772Y462988D03*
X349272Y466925D03*
X341772Y470862D03*
X349272Y474799D03*
X341772Y478736D03*
X349272Y482673D03*
X341772Y486610D03*
X349272Y490547D03*
X341772Y494484D03*
X349272Y498421D03*
X341772Y518106D03*
X349272Y522043D03*
X341772Y525980D03*
X349272Y529917D03*
X341772Y533854D03*
X349272Y537791D03*
X341772Y541728D03*
X349272Y545665D03*
X341772Y549602D03*
X349272Y553539D03*
X341772Y557476D03*
X349272Y561413D03*
X341772Y565350D03*
X349272Y569287D03*
X341772Y573224D03*
X349272Y577161D03*
X341772Y581098D03*
X349272Y585035D03*
X341772Y588972D03*
X349272Y592909D03*
X341772Y596846D03*
X349272Y600783D03*
X341772Y604720D03*
X349272Y608657D03*
X341772Y612594D03*
X349272Y616531D03*
X341772Y620469D03*
X349272Y624406D03*
X341772Y628343D03*
X349272Y632280D03*
X341772Y636217D03*
X349272Y640154D03*
X341772Y644091D03*
X349272Y648028D03*
X341772Y651965D03*
X349272Y655902D03*
X341772Y659839D03*
X349272Y663776D03*
X341772Y667713D03*
X349272Y671650D03*
X341772Y675587D03*
X349272Y679524D03*
X341772Y683461D03*
X349272Y687398D03*
X341772Y691335D03*
X349272Y695272D03*
X341772Y699209D03*
X349272Y703146D03*
X341772Y707083D03*
X349272Y711020D03*
X341772Y714957D03*
X349272Y718894D03*
X341772Y722831D03*
X349272Y726768D03*
X341772Y730705D03*
X349272Y734642D03*
X1123793Y987192D03*
X1128793Y997192D03*
X1133793Y987192D03*
X1138793Y997192D03*
X1143793Y987192D03*
X1148793Y997192D03*
X1153793Y987192D03*
X1158793Y997192D03*
X1260526Y1017081D03*
X1249620D03*
X1238715D03*
X1227809D03*
X1216904D03*
X1255093Y1028262D03*
X1244187D03*
X1233282D03*
X1222376D03*
G54D200*
X959744Y493110D02*
X960728D01*
X959744Y486417D02*
X960728D01*
X971555Y493110D02*
X972539D01*
X971555Y486417D02*
X972539D01*
X1134843Y624114D02*
Y623130D01*
X1128150Y624114D02*
Y623130D01*
Y638878D02*
Y639862D01*
X1134843Y638878D02*
Y639862D01*
X257896Y908215D02*
X256321D01*
X257896Y929869D02*
X256321D01*
X244510D02*
X242935D01*
X244510Y908215D02*
X242935D01*
G54D201*
X665846Y890157D02*
X663287D01*
X665846Y892717D02*
X663287D01*
X665846Y895276D02*
X663287D01*
X665846Y897835D02*
X663287D01*
X665846Y900394D02*
X663287D01*
X660236Y906004D02*
Y903445D01*
X657677Y906004D02*
Y903445D01*
X655118Y906004D02*
Y903445D01*
X652559Y906004D02*
Y903445D01*
X650000Y906004D02*
Y903445D01*
X646949Y900394D02*
X644390D01*
X646949Y897835D02*
X644390D01*
X646949Y895276D02*
X644390D01*
X646949Y892717D02*
X644390D01*
X646949Y890157D02*
X644390D01*
X650000Y887106D02*
Y884547D01*
X652559Y887106D02*
Y884547D01*
X655118Y887106D02*
Y884547D01*
X657677Y887106D02*
Y884547D01*
X660236Y887106D02*
Y884547D01*
X614665Y890157D02*
X612106D01*
X614665Y892717D02*
X612106D01*
X614665Y895276D02*
X612106D01*
X614665Y897835D02*
X612106D01*
X614665Y900394D02*
X612106D01*
X609055Y906004D02*
Y903445D01*
X606496Y906004D02*
Y903445D01*
X603937Y906004D02*
Y903445D01*
X601378Y906004D02*
Y903445D01*
X598819Y906004D02*
Y903445D01*
X595768Y900394D02*
X593209D01*
X595768Y897835D02*
X593209D01*
X595768Y895276D02*
X593209D01*
X595768Y892717D02*
X593209D01*
X595768Y890157D02*
X593209D01*
X598819Y887106D02*
Y884547D01*
X601378Y887106D02*
Y884547D01*
X603937Y887106D02*
Y884547D01*
X606496Y887106D02*
Y884547D01*
X609055Y887106D02*
Y884547D01*
X563484Y890157D02*
X560925D01*
X563484Y892717D02*
X560925D01*
X563484Y895276D02*
X560925D01*
X563484Y897835D02*
X560925D01*
X563484Y900394D02*
X560925D01*
X557874Y906004D02*
Y903445D01*
X555315Y906004D02*
Y903445D01*
X552756Y906004D02*
Y903445D01*
X550197Y906004D02*
Y903445D01*
X547638Y906004D02*
Y903445D01*
X544587Y900394D02*
X542028D01*
X544587Y897835D02*
X542028D01*
X544587Y895276D02*
X542028D01*
X544587Y892717D02*
X542028D01*
X544587Y890157D02*
X542028D01*
X547638Y887106D02*
Y884547D01*
X550197Y887106D02*
Y884547D01*
X552756Y887106D02*
Y884547D01*
X555315Y887106D02*
Y884547D01*
X557874Y887106D02*
Y884547D01*
X133353Y642849D02*
Y640290D01*
X130794Y642849D02*
Y640290D01*
X128235Y642849D02*
Y640290D01*
X125676Y642849D02*
Y640290D01*
X123117Y642849D02*
Y640290D01*
X117506Y637239D02*
X120065D01*
X117506Y634680D02*
X120065D01*
X117506Y632120D02*
X120065D01*
X117506Y629561D02*
X120065D01*
X117506Y627002D02*
X120065D01*
X123117Y623951D02*
Y621392D01*
X125676Y623951D02*
Y621392D01*
X128235Y623951D02*
Y621392D01*
X130794Y623951D02*
Y621392D01*
X133353Y623951D02*
Y621392D01*
X136404Y627002D02*
X138963D01*
X136404Y629561D02*
X138963D01*
X136404Y632120D02*
X138963D01*
X136404Y634680D02*
X138963D01*
X136404Y637239D02*
X138963D01*
G54D202*
X655118Y895276D03*
X603937D03*
X552756D03*
X128235Y632120D03*
G54D203*
X1269772Y952593D02*
X1272872D01*
X1291172D02*
X1294272D01*
X1269772Y962593D02*
X1272872D01*
X1291172D02*
X1294272D01*
X1269772Y972593D02*
X1272872D01*
X1291172D02*
X1294272D01*
X1269772Y982593D02*
X1272872D01*
X1291172D02*
X1294272D01*
X1269772Y992593D02*
X1272872D01*
X1291172D02*
X1294272D01*
G54D204*
X891732Y516634D02*
Y521949D01*
X902756Y516634D02*
Y521949D01*
X1248031Y561909D02*
Y567224D01*
X1259055Y561909D02*
Y567224D01*
X1248031Y548130D02*
Y553445D01*
X1259055Y548130D02*
Y553445D01*
X291337Y448787D02*
Y443472D01*
X280314Y448787D02*
Y443472D01*
X292912Y495244D02*
Y489929D01*
X281888Y495244D02*
Y489929D01*
X292912Y509024D02*
Y503709D01*
X281888Y509024D02*
Y503709D01*
X901575Y709547D02*
Y714862D01*
X912598Y709547D02*
Y714862D01*
X901575Y723327D02*
Y728642D01*
X912598Y723327D02*
Y728642D01*
X901575Y737106D02*
Y742421D01*
X912598Y737106D02*
Y742421D01*
X606682Y935335D02*
Y930020D01*
X595659Y935335D02*
Y930020D01*
X115323Y608063D02*
Y613378D01*
X126346Y608063D02*
Y613378D01*
X192126Y784154D02*
Y778839D01*
X181102Y784154D02*
Y778839D01*
X136089Y413979D02*
X130774D01*
X136089Y425002D02*
X130774D01*
X122471Y688620D02*
Y683306D01*
X111447Y688620D02*
Y683306D01*
X660630Y876280D02*
Y870965D01*
X649606Y876280D02*
Y870965D01*
X609449Y876280D02*
Y870965D01*
X598425Y876280D02*
Y870965D01*
X558268Y876280D02*
Y870965D01*
X547244Y876280D02*
Y870965D01*
X125620Y383896D02*
Y378581D01*
X114597Y383896D02*
Y378581D01*
X250877Y181532D02*
X256192D01*
X250877Y170509D02*
X256192D01*
X270677Y181532D02*
X275992D01*
X270677Y170509D02*
X275992D01*
X213916Y395160D02*
X208601D01*
X213916Y406183D02*
X208601D01*
X176660Y580663D02*
Y585978D01*
X187683Y580663D02*
Y585978D01*
X205384Y998309D03*
X891732Y530413D02*
Y535728D01*
X902756Y530413D02*
Y535728D01*
X1253937Y577657D02*
Y582972D01*
X1264961Y577657D02*
Y582972D01*
X863091Y432283D02*
X868406D01*
X863091Y421260D02*
X868406D01*
X657510Y935335D02*
Y930020D01*
X646487Y935335D02*
Y930020D01*
X556575Y935335D02*
Y930020D01*
X545551Y935335D02*
Y930020D01*
X168014Y695565D02*
Y690250D01*
X156991Y695565D02*
Y690250D01*
X168014Y681565D02*
Y676250D01*
X156991Y681565D02*
Y676250D01*
X168014Y709565D02*
Y704250D01*
X156991Y709565D02*
Y704250D01*
X122471Y730620D02*
Y725306D01*
X111447Y730620D02*
Y725306D01*
X122471Y716520D02*
Y711206D01*
X111447Y716520D02*
Y711206D01*
X122471Y702620D02*
Y697306D01*
X111447Y702620D02*
Y697306D01*
X1035299Y191055D03*
X1082299D03*
X292912Y549969D02*
Y544654D01*
X281888Y549969D02*
Y544654D01*
X293306Y470047D02*
Y464732D01*
X282282Y470047D02*
Y464732D01*
G54D205*
X1037598Y269882D02*
Y267913D01*
X1035039Y269882D02*
Y267913D01*
X1032480Y269882D02*
Y267913D01*
Y261220D02*
Y259252D01*
X1037598Y261220D02*
Y259252D01*
X902638Y422047D02*
Y420079D01*
X900079Y422047D02*
Y420079D01*
X897520Y422047D02*
Y420079D01*
Y413386D02*
Y411417D01*
X902638Y413386D02*
Y411417D01*
G54D206*
X1255648Y978248D02*
Y973327D01*
X1253089Y978248D02*
Y973327D01*
X1250530Y978248D02*
Y973327D01*
X1247971Y978248D02*
Y973327D01*
X1245412Y978248D02*
Y973327D01*
X1242853Y978248D02*
Y973327D01*
X1240294Y978248D02*
Y973327D01*
X1237735Y978248D02*
Y973327D01*
X1235176Y978248D02*
Y973327D01*
X1232617Y978248D02*
Y973327D01*
Y951083D02*
Y946161D01*
X1235176Y951083D02*
Y946161D01*
X1237735Y951083D02*
Y946161D01*
X1240294Y951083D02*
Y946161D01*
X1242853Y951083D02*
Y946161D01*
X1245412Y951083D02*
Y946161D01*
X1247971Y951083D02*
Y946161D01*
X1250530Y951083D02*
Y946161D01*
X1253089Y951083D02*
Y946161D01*
X1255648Y951083D02*
Y946161D01*
X1219783Y978248D02*
Y973327D01*
X1217224Y978248D02*
Y973327D01*
X1214665Y978248D02*
Y973327D01*
X1212106Y978248D02*
Y973327D01*
X1209547Y978248D02*
Y973327D01*
X1206988Y978248D02*
Y973327D01*
X1204429Y978248D02*
Y973327D01*
X1201870Y978248D02*
Y973327D01*
X1199311Y978248D02*
Y973327D01*
X1196752Y978248D02*
Y973327D01*
Y951083D02*
Y946161D01*
X1199311Y951083D02*
Y946161D01*
X1201870Y951083D02*
Y946161D01*
X1204429Y951083D02*
Y946161D01*
X1206988Y951083D02*
Y946161D01*
X1209547Y951083D02*
Y946161D01*
X1212106Y951083D02*
Y946161D01*
X1214665Y951083D02*
Y946161D01*
X1217224Y951083D02*
Y946161D01*
X1219783Y951083D02*
Y946161D01*
X279134Y853937D03*
Y850000D03*
Y846063D03*
Y842126D03*
Y838189D03*
Y834252D03*
Y830315D03*
Y826378D03*
Y822441D03*
Y818504D03*
Y814567D03*
Y810630D03*
Y806693D03*
Y802756D03*
Y798819D03*
Y794882D03*
X275197Y853937D03*
Y850000D03*
Y846063D03*
Y842126D03*
Y838189D03*
Y834252D03*
Y830315D03*
Y826378D03*
Y822441D03*
Y818504D03*
Y814567D03*
Y810630D03*
Y806693D03*
Y802756D03*
Y798819D03*
Y794882D03*
X271260Y853937D03*
Y850000D03*
Y846063D03*
Y842126D03*
Y838189D03*
Y834252D03*
Y830315D03*
Y826378D03*
Y822441D03*
Y818504D03*
Y814567D03*
Y810630D03*
Y806693D03*
Y802756D03*
Y798819D03*
Y794882D03*
X267323Y853937D03*
Y850000D03*
Y846063D03*
Y842126D03*
Y838189D03*
Y834252D03*
Y830315D03*
Y826378D03*
Y822441D03*
Y818504D03*
Y814567D03*
Y810630D03*
Y806693D03*
Y802756D03*
Y798819D03*
Y794882D03*
X263386Y853937D03*
Y850000D03*
Y846063D03*
Y842126D03*
Y838189D03*
Y834252D03*
Y830315D03*
Y826378D03*
Y822441D03*
Y818504D03*
Y814567D03*
Y810630D03*
Y806693D03*
Y802756D03*
Y798819D03*
Y794882D03*
X259449Y853937D03*
Y850000D03*
Y846063D03*
Y842126D03*
Y838189D03*
Y834252D03*
Y830315D03*
Y826378D03*
Y822441D03*
Y818504D03*
Y814567D03*
Y810630D03*
Y806693D03*
Y802756D03*
Y798819D03*
Y794882D03*
X255512Y853937D03*
Y850000D03*
Y846063D03*
Y842126D03*
Y838189D03*
Y834252D03*
Y830315D03*
Y826378D03*
Y822441D03*
Y818504D03*
Y814567D03*
Y810630D03*
Y806693D03*
Y802756D03*
Y798819D03*
Y794882D03*
X251575Y853937D03*
Y850000D03*
Y846063D03*
Y842126D03*
Y838189D03*
Y834252D03*
Y830315D03*
Y826378D03*
Y822441D03*
Y818504D03*
Y814567D03*
Y810630D03*
Y806693D03*
Y802756D03*
Y798819D03*
Y794882D03*
X247638Y853937D03*
Y850000D03*
Y846063D03*
Y842126D03*
Y838189D03*
Y834252D03*
Y830315D03*
Y826378D03*
Y822441D03*
Y818504D03*
Y814567D03*
Y810630D03*
Y806693D03*
Y802756D03*
Y798819D03*
Y794882D03*
X243701Y853937D03*
Y850000D03*
Y846063D03*
Y842126D03*
Y838189D03*
Y834252D03*
Y830315D03*
Y826378D03*
Y822441D03*
Y818504D03*
Y814567D03*
Y810630D03*
Y806693D03*
Y802756D03*
Y798819D03*
Y794882D03*
X239764Y853937D03*
Y850000D03*
Y846063D03*
Y842126D03*
Y838189D03*
Y834252D03*
Y830315D03*
Y826378D03*
Y822441D03*
Y818504D03*
Y814567D03*
Y810630D03*
Y806693D03*
Y802756D03*
Y798819D03*
Y794882D03*
X235827Y853937D03*
Y850000D03*
Y846063D03*
Y842126D03*
Y838189D03*
Y834252D03*
Y830315D03*
Y826378D03*
Y822441D03*
Y818504D03*
Y814567D03*
Y810630D03*
Y806693D03*
Y802756D03*
Y798819D03*
Y794882D03*
X231890Y853937D03*
Y850000D03*
Y846063D03*
Y842126D03*
Y838189D03*
Y834252D03*
Y830315D03*
Y826378D03*
Y822441D03*
Y818504D03*
Y814567D03*
Y810630D03*
Y806693D03*
Y802756D03*
Y798819D03*
Y794882D03*
X227953Y853937D03*
Y850000D03*
Y846063D03*
Y842126D03*
Y838189D03*
Y834252D03*
Y830315D03*
Y826378D03*
Y822441D03*
Y818504D03*
Y814567D03*
Y810630D03*
Y806693D03*
Y802756D03*
Y798819D03*
Y794882D03*
X224016Y853937D03*
Y850000D03*
Y846063D03*
Y842126D03*
Y838189D03*
Y834252D03*
Y830315D03*
Y826378D03*
Y822441D03*
Y818504D03*
Y814567D03*
Y810630D03*
Y806693D03*
Y802756D03*
Y798819D03*
Y794882D03*
X220079Y853937D03*
Y850000D03*
Y846063D03*
Y842126D03*
Y838189D03*
Y834252D03*
Y830315D03*
Y826378D03*
Y822441D03*
Y818504D03*
Y814567D03*
Y810630D03*
Y806693D03*
Y802756D03*
Y798819D03*
Y794882D03*
X810630Y535039D03*
X814567D03*
X818504D03*
X822441D03*
X826378D03*
X830315D03*
X834252D03*
X838189D03*
X842126D03*
X846063D03*
X850000D03*
X810630Y531102D03*
X814567D03*
X818504D03*
X822441D03*
X826378D03*
X830315D03*
X834252D03*
X838189D03*
X842126D03*
X846063D03*
X850000D03*
X810630Y527165D03*
X814567D03*
X818504D03*
X822441D03*
X826378D03*
X830315D03*
X834252D03*
X838189D03*
X842126D03*
X846063D03*
X850000D03*
X810630Y523228D03*
X814567D03*
X818504D03*
X822441D03*
X826378D03*
X830315D03*
X834252D03*
X838189D03*
X842126D03*
X846063D03*
X850000D03*
X810630Y519291D03*
X814567D03*
X818504D03*
X822441D03*
X826378D03*
X830315D03*
X834252D03*
X838189D03*
X842126D03*
X846063D03*
X850000D03*
X810630Y515354D03*
X814567D03*
X818504D03*
X822441D03*
X826378D03*
X830315D03*
X834252D03*
X838189D03*
X842126D03*
X846063D03*
X850000D03*
X810630Y511417D03*
X814567D03*
X818504D03*
X822441D03*
X826378D03*
X830315D03*
X834252D03*
X838189D03*
X842126D03*
X846063D03*
X850000D03*
X810630Y507480D03*
X814567D03*
X818504D03*
X822441D03*
X826378D03*
X830315D03*
X834252D03*
X838189D03*
X842126D03*
X846063D03*
X850000D03*
X810630Y503543D03*
X814567D03*
X818504D03*
X822441D03*
X826378D03*
X830315D03*
X834252D03*
X838189D03*
X842126D03*
X846063D03*
X850000D03*
X810630Y499606D03*
X814567D03*
X818504D03*
X822441D03*
X826378D03*
X830315D03*
X834252D03*
X838189D03*
X842126D03*
X846063D03*
X850000D03*
X810630Y495669D03*
X814567D03*
X818504D03*
X822441D03*
X826378D03*
X830315D03*
X834252D03*
X838189D03*
X842126D03*
X846063D03*
X850000D03*
X810630Y491732D03*
X814567D03*
X818504D03*
X822441D03*
X826378D03*
X830315D03*
X834252D03*
X838189D03*
X842126D03*
X846063D03*
X850000D03*
X810630Y487795D03*
X814567D03*
X818504D03*
X822441D03*
X826378D03*
X830315D03*
X834252D03*
X838189D03*
X842126D03*
X846063D03*
X850000D03*
X810630Y483858D03*
X814567D03*
X818504D03*
X822441D03*
X826378D03*
X830315D03*
X834252D03*
X838189D03*
X842126D03*
X846063D03*
X850000D03*
X810630Y479921D03*
X814567D03*
X818504D03*
X822441D03*
X826378D03*
X830315D03*
X834252D03*
X838189D03*
X842126D03*
X846063D03*
X850000D03*
X810630Y714173D03*
X814567D03*
X818504D03*
X822441D03*
X826378D03*
X830315D03*
X834252D03*
X838189D03*
X842126D03*
X846063D03*
X850000D03*
X810630Y710236D03*
X814567D03*
X818504D03*
X822441D03*
X826378D03*
X830315D03*
X834252D03*
X838189D03*
X842126D03*
X846063D03*
X850000D03*
X810630Y706299D03*
X814567D03*
X818504D03*
X822441D03*
X826378D03*
X830315D03*
X834252D03*
X838189D03*
X842126D03*
X846063D03*
X850000D03*
X810630Y702362D03*
X814567D03*
X818504D03*
X822441D03*
X826378D03*
X830315D03*
X834252D03*
X838189D03*
X842126D03*
X846063D03*
X850000D03*
X810630Y698425D03*
X814567D03*
X818504D03*
X822441D03*
X826378D03*
X830315D03*
X834252D03*
X838189D03*
X842126D03*
X846063D03*
X850000D03*
X810630Y694488D03*
X814567D03*
X818504D03*
X822441D03*
X826378D03*
X830315D03*
X834252D03*
X838189D03*
X842126D03*
X846063D03*
X850000D03*
X810630Y690551D03*
X814567D03*
X818504D03*
X822441D03*
X826378D03*
X830315D03*
X834252D03*
X838189D03*
X842126D03*
X846063D03*
X850000D03*
X810630Y686614D03*
X814567D03*
X818504D03*
X822441D03*
X826378D03*
X830315D03*
X834252D03*
X838189D03*
X842126D03*
X846063D03*
X850000D03*
X810630Y682677D03*
X814567D03*
X818504D03*
X822441D03*
X826378D03*
X830315D03*
X834252D03*
X838189D03*
X842126D03*
X846063D03*
X850000D03*
X810630Y678740D03*
X814567D03*
X818504D03*
X822441D03*
X826378D03*
X830315D03*
X834252D03*
X838189D03*
X842126D03*
X846063D03*
X850000D03*
X810630Y674803D03*
X814567D03*
X818504D03*
X822441D03*
X826378D03*
X830315D03*
X834252D03*
X838189D03*
X842126D03*
X846063D03*
X850000D03*
X810630Y670866D03*
X814567D03*
X818504D03*
X822441D03*
X826378D03*
X830315D03*
X834252D03*
X838189D03*
X842126D03*
X846063D03*
X850000D03*
X810630Y666929D03*
X814567D03*
X818504D03*
X822441D03*
X826378D03*
X830315D03*
X834252D03*
X838189D03*
X842126D03*
X846063D03*
X850000D03*
X810630Y662992D03*
X814567D03*
X818504D03*
X822441D03*
X826378D03*
X830315D03*
X834252D03*
X838189D03*
X842126D03*
X846063D03*
X850000D03*
X810630Y659055D03*
X814567D03*
X818504D03*
X822441D03*
X826378D03*
X830315D03*
X834252D03*
X838189D03*
X842126D03*
X846063D03*
X850000D03*
G54D207*
X1080510Y1000034D02*
Y999246D01*
X1072510Y1000034D02*
Y999246D01*
X1076510Y992554D02*
Y991766D01*
X1283892Y508695D02*
X1289601D01*
X1283892Y490191D02*
X1289601D01*
X1285073Y617357D02*
X1290782D01*
X1285073Y598853D02*
X1290782D01*
X270744Y236126D02*
X265035D01*
X270744Y254630D02*
X265035D01*
X131219Y399825D02*
Y394117D01*
X112715Y399825D02*
Y394117D01*
X231042Y391813D02*
X225333D01*
X231042Y410317D02*
X225333D01*
G54D208*
X1087337Y999542D02*
Y1000132D01*
X1092455Y999542D02*
Y1000132D01*
G54D209*
X414132Y912390D02*
Y904390D01*
X424132Y900890D02*
Y892890D01*
X434132Y912390D02*
Y904390D01*
X444132Y900890D02*
Y892890D01*
X454132Y912390D02*
Y904390D01*
X1214868Y906181D02*
X1206868D01*
X1203368Y896181D02*
X1195368D01*
X1214868Y886181D02*
X1206868D01*
X1203368Y876181D02*
X1195368D01*
X1214868Y866181D02*
X1206868D01*
G54D210*
X966299Y704055D02*
X975799D01*
X946799D02*
X956299D01*
X966299Y714055D02*
X975799D01*
X946799D02*
X956299D01*
X966299Y724055D02*
X975799D01*
X946799D02*
X956299D01*
X966299Y734055D02*
X975799D01*
X946799D02*
X956299D01*
X966299Y744055D02*
X975799D01*
X946799D02*
X956299D01*
X966299Y754055D02*
X975799D01*
X946799D02*
X956299D01*
X966299Y764055D02*
X975799D01*
X946799D02*
X956299D01*
X966299Y774055D02*
X975799D01*
X946799D02*
X956299D01*
X934646Y839252D02*
Y848752D01*
Y819752D02*
Y829252D01*
X924646Y839252D02*
Y848752D01*
Y819752D02*
Y829252D01*
X914646Y839252D02*
Y848752D01*
Y819752D02*
Y829252D01*
X904646Y839252D02*
Y848752D01*
Y819752D02*
Y829252D01*
X894646Y839252D02*
Y848752D01*
Y819752D02*
Y829252D01*
X884646Y839252D02*
Y848752D01*
Y819752D02*
Y829252D01*
X874646Y839252D02*
Y848752D01*
Y819752D02*
Y829252D01*
X864646Y839252D02*
Y848752D01*
Y819752D02*
Y829252D01*
G54D211*
X997836Y716988D02*
X1001136D01*
X1025636D02*
X1028936D01*
X997836Y719488D02*
X1001136D01*
X1025636D02*
X1028936D01*
X997836Y721988D02*
X1001136D01*
X1025636D02*
X1028936D01*
X997836Y724488D02*
X1001136D01*
X1025636D02*
X1028936D01*
X997836Y726988D02*
X1001136D01*
X1025636D02*
X1028936D01*
X997836Y729488D02*
X1001136D01*
X1025636D02*
X1028936D01*
X997836Y731988D02*
X1001136D01*
X1025636D02*
X1028936D01*
X997836Y734488D02*
X1001136D01*
X1025636D02*
X1028936D01*
X997836Y736988D02*
X1001136D01*
X1025636D02*
X1028936D01*
X997836Y739488D02*
X1001136D01*
X1025636D02*
X1028936D01*
X997836Y741988D02*
X1001136D01*
X1025636D02*
X1028936D01*
X997836Y744488D02*
X1001136D01*
X1025636D02*
X1028936D01*
X997836Y746988D02*
X1001136D01*
X1025636D02*
X1028936D01*
X997836Y749488D02*
X1001136D01*
X1025636D02*
X1028936D01*
X997836Y751988D02*
X1001136D01*
X1025636D02*
X1028936D01*
X997836Y754488D02*
X1001136D01*
X1025636D02*
X1028936D01*
X997836Y756988D02*
X1001136D01*
X1025636D02*
X1028936D01*
X997836Y759488D02*
X1001136D01*
X1025636D02*
X1028936D01*
X997836Y761988D02*
X1001136D01*
X1025636D02*
X1028936D01*
G54D212*
X588189Y661024D03*
X733858Y515354D03*
X816535Y562598D03*
X867717Y621654D03*
X1094094Y521260D03*
X948425Y666929D03*
X927162Y443910D03*
X1011414Y359658D03*
X212205Y861811D03*
X287008Y787008D03*
X1033299Y132055D03*
X1080299D03*
X378035Y919420D03*
X377735Y953920D03*
X796850Y470079D03*
X863780Y544882D03*
X796850Y649213D03*
X863780Y724016D03*
X1292913Y1003543D03*
Y109843D03*
X111811Y924803D03*
G54D213*
X1106890Y311614D02*
Y312008D01*
X1123819Y311614D02*
Y312008D01*
X1064764Y354528D02*
Y354921D01*
X1081693Y354528D02*
Y354921D01*
G54D214*
X165132Y1020231D03*
X655132D03*
X165132Y410231D03*
X1275132D03*
X655132Y125231D03*
X1275132D03*
X165132D03*
X655132Y410231D03*
X1275132Y930231D03*
G54D215*
X332046Y961695D02*
Y956774D01*
X330472Y961695D02*
Y956774D01*
X328897Y961695D02*
Y956774D01*
X327322Y961695D02*
Y956774D01*
X325747Y961695D02*
Y956774D01*
X324172Y961695D02*
Y956774D01*
X322598Y961695D02*
Y956774D01*
X321023Y961695D02*
Y956774D01*
Y938467D02*
Y933546D01*
X322598Y938467D02*
Y933546D01*
X324172Y938467D02*
Y933546D01*
X325747Y938467D02*
Y933546D01*
X327322Y938467D02*
Y933546D01*
X328897Y938467D02*
Y933546D01*
X330472Y938467D02*
Y933546D01*
X332046Y938467D02*
Y933546D01*
X292046Y961695D02*
Y956774D01*
X290472Y961695D02*
Y956774D01*
X288897Y961695D02*
Y956774D01*
X287322Y961695D02*
Y956774D01*
X285747Y961695D02*
Y956774D01*
X284172Y961695D02*
Y956774D01*
X282598Y961695D02*
Y956774D01*
X281023Y961695D02*
Y956774D01*
Y938467D02*
Y933546D01*
X282598Y938467D02*
Y933546D01*
X284172Y938467D02*
Y933546D01*
X285747Y938467D02*
Y933546D01*
X287322Y938467D02*
Y933546D01*
X288897Y938467D02*
Y933546D01*
X290472Y938467D02*
Y933546D01*
X292046Y938467D02*
Y933546D01*
X498663Y911743D02*
Y916665D01*
X500238Y911743D02*
Y916665D01*
X501813Y911743D02*
Y916665D01*
X503387Y911743D02*
Y916665D01*
X504962Y911743D02*
Y916665D01*
X506537Y911743D02*
Y916665D01*
X508112Y911743D02*
Y916665D01*
X509687Y911743D02*
Y916665D01*
Y934972D02*
Y939893D01*
X508112Y934972D02*
Y939893D01*
X506537Y934972D02*
Y939893D01*
X504962Y934972D02*
Y939893D01*
X503387Y934972D02*
Y939893D01*
X501813Y934972D02*
Y939893D01*
X500238Y934972D02*
Y939893D01*
X498663Y934972D02*
Y939893D01*
X434046Y961695D02*
Y956774D01*
X432472Y961695D02*
Y956774D01*
X430897Y961695D02*
Y956774D01*
X429322Y961695D02*
Y956774D01*
X427747Y961695D02*
Y956774D01*
X426172Y961695D02*
Y956774D01*
X424598Y961695D02*
Y956774D01*
X423023Y961695D02*
Y956774D01*
Y938467D02*
Y933546D01*
X424598Y938467D02*
Y933546D01*
X426172Y938467D02*
Y933546D01*
X427747Y938467D02*
Y933546D01*
X429322Y938467D02*
Y933546D01*
X430897Y938467D02*
Y933546D01*
X432472Y938467D02*
Y933546D01*
X434046Y938467D02*
Y933546D01*
X476046Y961695D02*
Y956774D01*
X474472Y961695D02*
Y956774D01*
X472897Y961695D02*
Y956774D01*
X471322Y961695D02*
Y956774D01*
X469747Y961695D02*
Y956774D01*
X468172Y961695D02*
Y956774D01*
X466598Y961695D02*
Y956774D01*
X465023Y961695D02*
Y956774D01*
Y938467D02*
Y933546D01*
X466598Y938467D02*
Y933546D01*
X468172Y938467D02*
Y933546D01*
X469747Y938467D02*
Y933546D01*
X471322Y938467D02*
Y933546D01*
X472897Y938467D02*
Y933546D01*
X474472Y938467D02*
Y933546D01*
X476046Y938467D02*
Y933546D01*
G54D216*
X217150Y283108D02*
Y281533D01*
X206520Y283108D02*
Y281533D01*
X315945Y112598D02*
Y111024D01*
X305315Y112598D02*
Y111024D01*
X153850Y282908D02*
Y281333D01*
X143220Y282908D02*
Y281333D01*
X192912Y462702D02*
Y461127D01*
X182282Y462702D02*
Y461127D01*
X315945Y136220D02*
Y134646D01*
X305315Y136220D02*
Y134646D01*
X315945Y124409D02*
Y122835D01*
X305315Y124409D02*
Y122835D01*
X1224245Y206500D02*
Y208862D01*
G54D217*
X218494Y231002D02*
Y232183D01*
X225975Y231002D02*
Y232183D01*
X222235Y240057D02*
Y241239D01*
X218494Y263002D02*
Y264183D01*
X225975Y263002D02*
Y264183D01*
X222235Y272057D02*
Y273239D01*
X113975Y589239D02*
Y588057D01*
X106494Y589239D02*
Y588057D01*
X110235Y580183D02*
Y579002D01*
X218494Y247002D02*
Y248183D01*
X225975Y247002D02*
Y248183D01*
X222235Y256057D02*
Y257239D01*
X1249739Y189798D02*
X1250920D01*
X1249739Y182317D02*
X1250920D01*
X1258794Y186057D02*
X1259975D01*
G54D218*
X236388Y710089D03*
Y720089D03*
Y730089D03*
Y740089D03*
X268888Y710089D03*
Y720089D03*
Y730089D03*
Y740089D03*
X302388Y710089D03*
Y720089D03*
Y730089D03*
Y740089D03*
X1109699Y975341D03*
X1172888D03*
X1281628Y164798D03*
Y235664D03*
Y262042D03*
Y332908D03*
G54D219*
X954764Y308951D02*
Y303451D01*
X944764Y308951D02*
Y303451D01*
X934764Y308951D02*
Y303451D01*
X924764Y308951D02*
Y303451D01*
Y283951D02*
Y278451D01*
X934764Y283951D02*
Y278451D01*
X944764Y283951D02*
Y278451D01*
X954764Y283951D02*
Y278451D01*
X1000433Y308951D02*
Y303451D01*
X990433Y308951D02*
Y303451D01*
X980433Y308951D02*
Y303451D01*
X970433Y308951D02*
Y303451D01*
Y283951D02*
Y278451D01*
X980433Y283951D02*
Y278451D01*
X990433Y283951D02*
Y278451D01*
X1000433Y283951D02*
Y278451D01*
G54D220*
X168345Y731727D02*
Y732514D01*
G54D221*
X206235Y154790D02*
Y147309D01*
Y120931D02*
Y113451D01*
X124235Y154790D02*
Y147309D01*
Y120931D02*
Y113451D01*
X206904Y252120D02*
X199424D01*
X173046D02*
X165565D01*
X152597Y477183D02*
Y469703D01*
Y443325D02*
Y435845D01*
X150904Y252120D02*
X143424D01*
X117046D02*
X109565D01*
G54D222*
X1251313Y170900D02*
X1253676D01*
X1251313Y163420D02*
X1253676D01*
X1259187Y167160D02*
X1261550D01*
X1258006Y251609D02*
X1260369D01*
X1258006Y244128D02*
X1260369D01*
X1265880Y247869D02*
X1268243D01*
G54D223*
X1043299Y142055D03*
X1023299D03*
Y122055D03*
X1043299D03*
X1090299Y142055D03*
X1070299D03*
Y122055D03*
X1090299D03*
X388035Y929420D03*
X368035D03*
Y909420D03*
X388035D03*
X387735Y963920D03*
X367735D03*
Y943920D03*
X387735D03*
G54D224*
X1248388Y637161D02*
X1247010D01*
X1248388Y644248D02*
X1247010D01*
X260235Y497803D02*
Y499181D01*
X267322Y497803D02*
Y499181D01*
X913681Y472441D02*
X912303D01*
X913681Y479528D02*
X912303D01*
X920177Y788583D02*
X921555D01*
X920177Y781496D02*
X921555D01*
X610531Y435039D02*
X609154D01*
X610531Y442126D02*
X609154D01*
X699114Y742126D02*
X697736D01*
X699114Y749213D02*
X697736D01*
X563287Y435039D02*
X561909D01*
X563287Y442126D02*
X561909D01*
X771654Y485138D02*
Y486516D01*
X778740Y485138D02*
Y486516D01*
X437008Y609154D02*
Y610531D01*
X444094Y609154D02*
Y610531D01*
X437008Y632776D02*
Y634154D01*
X444094Y632776D02*
Y634154D01*
X437008Y585531D02*
Y586909D01*
X444094Y585531D02*
Y586909D01*
X575098Y742126D02*
X573720D01*
X575098Y749213D02*
X573720D01*
X437008Y508760D02*
Y510138D01*
X444094Y508760D02*
Y510138D01*
X437008Y457579D02*
Y458957D01*
X444094Y457579D02*
Y458957D01*
X760138Y742126D02*
X758760D01*
X760138Y749213D02*
X758760D01*
X752264Y435039D02*
X750886D01*
X752264Y442126D02*
X750886D01*
X783760Y435039D02*
X782382D01*
X783760Y442126D02*
X782382D01*
X538287D02*
X539665D01*
X538287Y435039D02*
X539665D01*
X585531Y442126D02*
X586909D01*
X585531Y435039D02*
X586909D01*
X771654Y500886D02*
Y502264D01*
X778740Y500886D02*
Y502264D01*
X437008Y561909D02*
Y563287D01*
X444094Y561909D02*
Y563287D01*
X437008Y485138D02*
Y486516D01*
X444094Y485138D02*
Y486516D01*
X553445Y742126D02*
X552067D01*
X553445Y749213D02*
X552067D01*
X785728Y742126D02*
X784350D01*
X785728Y749213D02*
X784350D01*
X675492Y742126D02*
X674114D01*
X675492Y749213D02*
X674114D01*
X437008Y433957D02*
Y435335D01*
X444094Y433957D02*
Y435335D01*
X720768Y435039D02*
X719390D01*
X720768Y442126D02*
X719390D01*
X632776D02*
X634154D01*
X632776Y435039D02*
X634154D01*
X656398Y442126D02*
X657776D01*
X656398Y435039D02*
X657776D01*
X689272D02*
X687894D01*
X689272Y442126D02*
X687894D01*
X771654Y469390D02*
Y470768D01*
X778740Y469390D02*
Y470768D01*
X728642Y742126D02*
X727264D01*
X728642Y749213D02*
X727264D01*
X590846Y742126D02*
X589469D01*
X590846Y749213D02*
X589469D01*
X437008Y536319D02*
Y537697D01*
X444094Y536319D02*
Y537697D01*
X437008Y410335D02*
Y411713D01*
X444094Y410335D02*
Y411713D01*
G54D225*
X632184Y1051417D02*
Y1051024D01*
X625885Y1051417D02*
Y1051024D01*
X644884Y1051417D02*
Y1051024D01*
X638585Y1051417D02*
Y1051024D01*
X452165Y681890D02*
X452559D01*
X452165Y675591D02*
X452559D01*
X619784Y1051417D02*
Y1051024D01*
X613485Y1051417D02*
Y1051024D01*
X606984Y1051417D02*
Y1051024D01*
X600685Y1051417D02*
Y1051024D01*
X452165Y737008D02*
X452559D01*
X452165Y730709D02*
X452559D01*
X1076483Y899788D02*
Y899394D01*
X1070184Y899788D02*
Y899394D01*
X1090849Y887152D02*
Y886758D01*
X1084550Y887152D02*
Y886758D01*
G54D226*
X1051117Y986156D02*
Y989109D01*
X1063321Y986156D02*
Y989109D01*
G54D227*
X1089896Y1010073D03*
X1080054D03*
X1072180D03*
X1062337D03*
G54D228*
X1050250Y1020743D03*
X1101983D03*
G54D229*
X1068611Y213779D02*
X1068572D01*
X1068611Y223779D02*
X1068572D01*
X1046957Y213779D02*
X1046918D01*
X1046957Y223779D02*
X1046918D01*
G54D230*
X511417Y722047D03*
Y666929D03*
G54D231*
X116465Y417957D02*
Y419138D01*
Y446697D02*
Y447878D01*
G54D232*
X1283203Y887475D03*
X1273203Y897475D03*
Y887475D03*
X1263203Y897475D03*
Y887475D03*
X1253203Y897475D03*
Y887475D03*
X1243203Y897475D03*
Y887475D03*
G54D233*
X1258991Y675821D03*
G54D234*
Y692357D03*
Y708892D03*
Y725428D03*
Y741963D03*
Y758498D03*
Y775034D03*
Y791569D03*
Y808105D03*
Y824640D03*
Y841176D03*
Y857711D03*
X1280644Y675821D03*
Y692357D03*
Y708892D03*
Y725428D03*
Y741963D03*
Y758498D03*
Y775034D03*
Y791569D03*
Y808105D03*
Y824640D03*
Y841176D03*
Y857711D03*
G54D235*
X1278833Y657317D03*
G54D236*
X1287928Y1022672D03*
X1189542D03*
G54D237*
X658498Y193223D02*
X683498D01*
G54D238*
X1115387Y127169D02*
Y128744D01*
X1230741Y127169D02*
Y128744D01*
G54D239*
X1245572Y932882D02*
Y930913D01*
X1243603Y932882D02*
Y930913D01*
X1241635Y932882D02*
Y930913D01*
Y928945D02*
Y926976D01*
X1243603Y928945D02*
Y926976D01*
X1245572Y928945D02*
Y926976D01*
X1232534Y932882D02*
Y930913D01*
X1230565Y932882D02*
Y930913D01*
X1228597Y932882D02*
Y930913D01*
Y928945D02*
Y926976D01*
X1230565Y928945D02*
Y926976D01*
X1232534Y928945D02*
Y926976D01*
X1218955Y932882D02*
Y930913D01*
X1216987Y932882D02*
Y930913D01*
X1215018Y932882D02*
Y930913D01*
Y928945D02*
Y926976D01*
X1216987Y928945D02*
Y926976D01*
X1218955Y928945D02*
Y926976D01*
G54D240*
X1115991Y506341D02*
Y507719D01*
X1123077Y506341D02*
Y507719D01*
G54D241*
X324409Y111811D03*
X253543Y121654D03*
X275197D03*
X324409Y123622D03*
Y135433D03*
X318504Y147244D03*
X243935Y170357D03*
X263635Y170520D03*
X283135Y170720D03*
X351707Y173853D03*
Y165585D03*
X363124D03*
Y173459D03*
X598557Y165979D03*
Y174640D03*
X703282Y174246D03*
Y165979D03*
X715487Y174246D03*
X715880Y165585D03*
X951707Y166766D03*
X1216625Y169677D03*
X1265093Y161254D03*
X324409Y188583D03*
X951707Y175034D03*
X255833Y207052D03*
X280097D03*
X299811Y207204D03*
X290409Y207355D03*
X308758Y207052D03*
X597244Y205118D03*
X625197D03*
X264335Y228420D03*
X256835Y228620D03*
X255985Y217364D03*
X271935Y228620D03*
X279535Y228520D03*
X280097Y217213D03*
X300115Y217516D03*
X290409Y217213D03*
X308758Y217365D03*
X565748Y226772D03*
X655906Y225197D03*
X747638Y224409D03*
X954331Y227953D03*
X981890D03*
X565748Y244882D03*
X655906D03*
X747638D03*
X954331Y243701D03*
X981890D03*
X1259187Y236057D03*
X296850Y259449D03*
X320472D03*
X954331D03*
X981890D03*
X1149213Y265354D03*
X1176772D03*
X160122Y282110D03*
X224098Y282325D03*
X256635Y304320D03*
X264235Y304120D03*
X272035Y304020D03*
X279535Y304120D03*
X296850Y302756D03*
X320472D03*
X1149213Y312598D03*
X1176772D03*
X300787Y324409D03*
X328346D03*
X869685Y331969D03*
X885433Y332283D03*
X901181D03*
X1249182Y328839D03*
X300787Y340157D03*
X328346D03*
X918898Y336220D03*
X1249182Y352461D03*
X300787Y371654D03*
Y355906D03*
X328346Y371654D03*
Y355906D03*
X885433Y359843D03*
X869685Y359528D03*
X901181Y359843D03*
X918898Y355906D03*
X1249606Y362205D03*
X106735Y386120D03*
Y393620D03*
Y379120D03*
X300787Y387402D03*
X328346D03*
X106735Y400620D03*
X830315Y412992D03*
X865748Y413189D03*
X848031Y412992D03*
X1249606Y405512D03*
X133235Y433120D03*
X224250Y423506D03*
Y416420D03*
X232124D03*
Y423506D03*
X273621Y446130D03*
X298030D03*
X830315Y440551D03*
X865748Y440354D03*
X847638Y440157D03*
X1038976Y442520D03*
X1060630D03*
X1077953Y442126D03*
X1093701D03*
X1285959Y435664D03*
X1276904D03*
X1276510Y443144D03*
X1286353D03*
X189673Y474211D03*
X275589Y467390D03*
Y492587D03*
X1000394Y474803D03*
X1024016Y481102D03*
X1014567D03*
X1043701D03*
X1033465D03*
X1053150D03*
X275589Y506366D03*
X1000394Y501575D03*
X1024016D03*
X1014567D03*
X1033465D03*
X1043701D03*
X1038976Y507480D03*
X1060630D03*
X1128440Y498127D03*
X1130698Y506697D03*
X873622Y533071D03*
X909055D03*
Y519291D03*
X1286353Y522278D03*
X1275723Y522672D03*
X1275329Y515585D03*
X1274542Y532514D03*
X1285565Y532908D03*
X1286746Y515191D03*
X274802Y547311D03*
X1265354Y550787D03*
X1279660Y536845D03*
X1291077Y537239D03*
X188817Y573900D03*
X1265354Y564567D03*
X224148Y586451D03*
X216274D03*
X1247638Y580315D03*
X1271260D03*
X216274Y606136D03*
Y596294D03*
X224148D03*
Y606136D03*
Y615979D03*
X216274D03*
X1279660Y624246D03*
Y632120D03*
X1288715D03*
X1287928Y624640D03*
X280386Y672441D03*
Y654724D03*
X307945D03*
Y672441D03*
X1131496Y672835D03*
X1143307D03*
X1159055D03*
X280386Y690157D03*
X307945D03*
X1131496Y694488D03*
X894882Y712205D03*
X919291D03*
X1143307Y700394D03*
X1159055D03*
X874016Y725984D03*
X919291D03*
Y739764D03*
X810630Y755512D03*
X836220D03*
X422835Y785039D03*
X450394D03*
X810630Y783071D03*
X836220D03*
X1155118Y787008D03*
X1182677D03*
X422835Y800787D03*
X450394D03*
X568898Y834252D03*
X620866Y833465D03*
X531102Y853937D03*
X580315D03*
X633465D03*
X675197Y835039D03*
X1155118Y840157D03*
X1182677D03*
X495669Y861811D03*
X540945Y873622D03*
X592126D03*
X643307D03*
X1155118Y855906D03*
X1182677D03*
X537903Y932283D03*
X564173Y932677D03*
X588799D03*
X616535Y928740D03*
X639098Y932677D03*
X666535Y929921D03*
X1103937Y934646D03*
X1254856Y926144D03*
X1103937Y948425D03*
X0Y0D02*
M02*
