*
*
G04 PADS9.0 Build Number: 341147 generated Gerber (RS-274-X) file*
G04 PC Version=2.1*
*
%IN "roach103.pcb"*%
*
%MOIN*%
*
%FSLAX35Y35*%
*
*
*
*
G04 PC Standard Apertures*
*
*
G04 Thermal Relief Aperture macro.*
%AMTER*
1,1,$1,0,0*
1,0,$1-$2,0,0*
21,0,$3,$4,0,0,45*
21,0,$3,$4,0,0,135*
%
*
*
G04 Annular Aperture macro.*
%AMANN*
1,1,$1,0,0*
1,0,$2,0,0*
%
*
*
G04 Odd Aperture macro.*
%AMODD*
1,1,$1,0,0*
1,0,$1-0.005,0,0*
%
*
*
G04 PC Custom Aperture Macros*
*
*
*
*
*
*
G04 PC Aperture Table*
*
%ADD062C,0.03937*%
%ADD115C,0.001*%
%ADD139C,0.07874*%
%ADD143R,0.02953X0.02756*%
%ADD144R,0.02756X0.02953*%
%ADD146R,0.04134X0.04331*%
%ADD148R,0.04331X0.04134*%
%ADD149R,0.02756X0.02756*%
%ADD158R,0.0315X0.01378*%
%ADD166R,0.02362X0.01575*%
%ADD192C,0.064*%
%ADD235C,0.06299*%
%ADD250R,0.0689X0.05512*%
%ADD251R,0.01378X0.0315*%
%ADD252R,0.01575X0.02362*%
%ADD260C,0.065*%
%ADD270C,0.104*%
%ADD311R,0.065X0.065*%
%ADD332C,0.09*%
%ADD333C,0.04331*%
%ADD334C,0.05512*%
%ADD336C,0.09646*%
%ADD337C,0.055*%
%ADD346C,0.19685*%
%ADD348C,0.04921*%
%ADD349C,0.02559*%
%ADD350C,0.1378*%
%ADD351C,0.04724*%
%ADD374R,0.04134X0.04134*%
%ADD378C,0.05016*%
%ADD379C,0.06693*%
%ADD380C,0.294*%
%ADD381C,0.08268*%
%ADD382C,0.10236*%
%ADD383C,0.20079*%
%ADD384R,0.10039X0.10039*%
%ADD385C,0.10039*%
%ADD386C,0.13386*%
*
*
*
*
G04 PC Circuitry*
G04 Layer Name roach103.pcb - circuitry*
%LPD*%
*
*
G04 PC Custom Flashes*
G04 Layer Name roach103.pcb - flashes*
%LPD*%
*
*
G04 PC Circuitry*
G04 Layer Name roach103.pcb - circuitry*
%LPD*%
*
G54D62*
G01X735329Y1189581D03*
X743518Y1182416D03*
X983282D03*
X991550Y1189502D03*
G54D115*
G54D139*
X1065017Y292927D03*
X1112017D03*
X409753Y1076355D03*
X409453Y1118729D03*
X1279528Y1200787D03*
X157480Y275591D03*
X1279528D03*
X119350Y1208602D03*
Y273602D03*
X1344350Y1208602D03*
G54D143*
X1086222Y713628D03*
X1082679D03*
X858293Y729376D03*
X861836D03*
X1091285Y796305D03*
X1087742D03*
X1057159Y788431D03*
X1053616D03*
X1250419Y1120714D03*
X1246876D03*
X1072860Y713628D03*
X1076403D03*
X598450Y725439D03*
X601994D03*
X1055065Y721502D03*
X1051521D03*
X1090159Y788431D03*
X1086616D03*
X1040970Y782525D03*
X1037427D03*
X1014222Y713628D03*
X1010679D03*
X1306063Y1164646D03*
X1302520D03*
X1127978Y780557D03*
X1131521D03*
X1069285Y796305D03*
X1065742D03*
X1068159Y788431D03*
X1064616D03*
X1062521Y721502D03*
X1066065D03*
X1069584Y729376D03*
X1073128D03*
X1040183Y729368D03*
X1036639D03*
X1035065Y721502D03*
X1031521D03*
X1059179Y713628D03*
X1055635D03*
X1135458Y499454D03*
X1139002D03*
X1067222Y713628D03*
X1063679D03*
X1150551Y499685D03*
X1154094D03*
X1068529Y425439D03*
X1064986D03*
X1127978Y796305D03*
X1131521D03*
X1287820Y1120714D03*
X1284277D03*
X1039285Y796305D03*
X1035742D03*
X1038159Y788431D03*
X1034616D03*
X979946Y810084D03*
X976403D03*
X1058285Y796305D03*
X1054742D03*
X1025222Y713628D03*
X1021679D03*
X1050128Y729376D03*
X1046584D03*
X1026246Y781927D03*
X1029789D03*
X1049285Y796305D03*
X1045742D03*
X860261Y776620D03*
X863805D03*
X883883D03*
X887427D03*
X781521D03*
X785065D03*
X1045222Y713628D03*
X1041679D03*
X1030285Y796305D03*
X1026742D03*
X1029159Y788431D03*
X1025616D03*
X979946Y802210D03*
X976403D03*
X1031128Y729376D03*
X1027584D03*
X1044065Y721502D03*
X1040521D03*
X1048159Y788431D03*
X1044616D03*
X1051784Y782660D03*
X1048241D03*
X1072521Y721502D03*
X1076065D03*
X1080285Y796305D03*
X1076742D03*
X1063017Y782919D03*
X1059474D03*
X979946Y806147D03*
X976403D03*
X1035222Y713628D03*
X1031679D03*
X1061078Y729359D03*
X1057534D03*
X1071784Y782660D03*
X1068241D03*
X1079159Y788431D03*
X1075616D03*
X1021285Y796305D03*
X1017742D03*
X1127978Y784494D03*
X1131521D03*
X1127978Y800242D03*
X1131521D03*
X1127978Y792368D03*
X1131521D03*
X1127978Y776620D03*
X1131521D03*
X791575Y1182992D03*
X795118D03*
X774528Y1183031D03*
X770984D03*
X622072Y792368D03*
X618529D03*
X622072Y784494D03*
X618529D03*
X852324Y1183392D03*
X848781D03*
X799720Y1182953D03*
X803263D03*
X826924Y1183092D03*
X823381D03*
X622072Y788431D03*
X618529D03*
X622072Y796305D03*
X618529D03*
X786850Y1183031D03*
X783307D03*
X838724Y1182992D03*
X835181D03*
X963724Y1183092D03*
X960181D03*
X938824D03*
X935281D03*
X763411Y794336D03*
X766954D03*
X763411Y790399D03*
X766954D03*
X950624Y1183092D03*
X947081D03*
X976079Y885102D03*
X979622D03*
X1097222Y713628D03*
X1093679D03*
X1276467Y623459D03*
X1272924D03*
X834230Y664415D03*
X830687D03*
X767742Y707722D03*
X771285D03*
X781521Y745124D03*
X785065D03*
X885852Y664415D03*
X889395D03*
X1008803Y534299D03*
X1005260D03*
X993803D03*
X990260D03*
X1025803Y592799D03*
X1022260D03*
X1023803Y534299D03*
X1020260D03*
X977803Y592799D03*
X974260D03*
X1091414Y1089053D03*
X1094957D03*
X1091414Y1099153D03*
X1094957D03*
X1053792Y1039030D03*
X1050249D03*
Y1031156D03*
X1053792D03*
X1227803Y574299D03*
X1224260D03*
X1227803Y564299D03*
X1224260D03*
X1227803Y680299D03*
X1224260D03*
X1227803Y704299D03*
X1224260D03*
X1227803Y696299D03*
X1224260D03*
X1227803Y594299D03*
X1224260D03*
X1227803Y584299D03*
X1224260D03*
X1227803Y688299D03*
X1224260D03*
X1227803Y672299D03*
X1224260D03*
X1227803Y664299D03*
X1224260D03*
X1254356Y907328D03*
X1257899D03*
X1254356Y900242D03*
X1257899D03*
X1227803Y554299D03*
X1224260D03*
X1227803Y656299D03*
X1224260D03*
X1227803Y648299D03*
X1224260D03*
X621679Y717565D03*
X618135D03*
X621679Y741187D03*
X618135D03*
X621679Y756935D03*
X618135D03*
X621679Y749061D03*
X618135D03*
X621679Y725439D03*
X618135D03*
X388608Y402210D03*
X385065D03*
X649631Y729376D03*
X653175D03*
X621679Y733313D03*
X618135D03*
X621679Y710084D03*
X618135D03*
X621679Y768746D03*
X618135D03*
X885852Y843549D03*
X889395D03*
X763805Y774651D03*
X767348D03*
X763805Y778588D03*
X767348D03*
X834277Y843155D03*
X830734D03*
X883883Y729376D03*
X887427D03*
X601994Y733313D03*
X598450D03*
X601994Y717565D03*
X598450D03*
X601994Y701817D03*
X598450D03*
X601994Y678194D03*
X598450D03*
X677191Y729376D03*
X680734D03*
X773647Y721502D03*
X777191D03*
X388708Y396810D03*
X385165D03*
X781521Y682131D03*
X785065D03*
X781521Y690006D03*
X785065D03*
X598450Y670320D03*
X601994D03*
X415380Y729376D03*
X418923D03*
Y674257D03*
X415380D03*
X598450Y756935D03*
X601994D03*
X418923Y650635D03*
X415380D03*
X418923Y625242D03*
X415380D03*
X781521Y752998D03*
X785065D03*
X680734Y768746D03*
X677191D03*
X688608D03*
X685065D03*
X704356D03*
X700813D03*
X712230D03*
X708687D03*
X781521Y760872D03*
X785065D03*
X696482Y768746D03*
X692939D03*
X680734Y737250D03*
X677191D03*
X704356Y752998D03*
X700813D03*
X672860Y745124D03*
X669317D03*
X588214Y764809D03*
X584671D03*
X712230Y745124D03*
X708687D03*
X696482Y760872D03*
X692939D03*
X680734Y745124D03*
X677191D03*
X688608Y760872D03*
X685065D03*
X588214Y741187D03*
X584671D03*
X680734Y752998D03*
X677191D03*
X712230D03*
X708687D03*
X672860Y737250D03*
X669317D03*
X704356Y760872D03*
X700813D03*
X618135Y764809D03*
X621679D03*
X704356Y737250D03*
X700813D03*
X720104Y768746D03*
X716561D03*
X712230Y737250D03*
X708687D03*
X598450Y693943D03*
X601994D03*
X598450Y749061D03*
X601994D03*
X239789Y963628D03*
X236246D03*
X689002Y752998D03*
X692545D03*
X978803Y534299D03*
X975260D03*
X763411Y786462D03*
X766954D03*
X886724Y1182992D03*
X883181D03*
X418923Y697880D03*
X415380D03*
X910824Y1183092D03*
X907281D03*
X897724Y1182992D03*
X894181D03*
X1227803Y720299D03*
X1224260D03*
X1227803Y712299D03*
X1224260D03*
X1041896Y1091571D03*
X1038353D03*
X1066602Y1091471D03*
X1063058D03*
X1065604Y1031156D03*
X1062060D03*
X1041981D03*
X1038438D03*
X1227803Y640299D03*
X1224260D03*
X1227803Y632299D03*
X1224260D03*
X1227803Y624299D03*
X1224260D03*
X1227803Y614299D03*
X1224260D03*
X1227803Y604299D03*
X1224260D03*
X418923Y579966D03*
X415380D03*
X598450Y764809D03*
X601994D03*
X598450Y686069D03*
X601994D03*
X418923Y595714D03*
X415380D03*
X598450Y741187D03*
X601994D03*
X418923Y662446D03*
X415380D03*
X418923Y636856D03*
X415380D03*
X418923Y686069D03*
X415380D03*
X418923Y611462D03*
X415380D03*
X418923Y709691D03*
X415380D03*
X418923Y719533D03*
X415380D03*
X598450Y709691D03*
X601994D03*
X781521Y768746D03*
X785065D03*
X763805Y798273D03*
X767348D03*
X688608Y737250D03*
X685065D03*
X672860Y752998D03*
X669317D03*
X680734Y760872D03*
X677191D03*
X781490Y674257D03*
X785033D03*
X588214Y717565D03*
X584671D03*
X696482Y737250D03*
X692939D03*
X688608Y729376D03*
X685065D03*
X696482D03*
X692939D03*
X704356D03*
X700813D03*
X688608Y745124D03*
X685065D03*
X696482D03*
X692939D03*
X704356D03*
X700813D03*
X1162008Y1139764D03*
X1158465D03*
G54D144*
X1037230Y679966D03*
Y676423D03*
X1011639Y794533D03*
Y798076D03*
X1094317Y719730D03*
Y723273D03*
X1086443Y741383D03*
Y744927D03*
X1019513Y729691D03*
Y733234D03*
Y679966D03*
Y676423D03*
X1098254Y792407D03*
Y795950D03*
X1011639Y756533D03*
Y760076D03*
X1043135Y679966D03*
Y676423D03*
X1080537Y779572D03*
Y783116D03*
X1011639Y738533D03*
Y742076D03*
X1086443Y779730D03*
Y783273D03*
X1018817Y883398D03*
Y879855D03*
X1080537Y741383D03*
Y744927D03*
Y760572D03*
Y764116D03*
X1019513Y784691D03*
Y788234D03*
X1025419Y755446D03*
Y758990D03*
X1080537Y769572D03*
Y773116D03*
X1025419Y737446D03*
Y740990D03*
Y746446D03*
Y749990D03*
X1019513Y750832D03*
Y747289D03*
X1094317Y779730D03*
Y783273D03*
Y760730D03*
Y764273D03*
X1086443Y769730D03*
Y773273D03*
X1019513Y774848D03*
Y778391D03*
Y765006D03*
Y768549D03*
X1094317Y750730D03*
Y754273D03*
X1086443Y729730D03*
Y733273D03*
X1011639Y747533D03*
Y751076D03*
X1094317Y769730D03*
Y773273D03*
X1109277Y542171D03*
Y538628D03*
X1094317Y739730D03*
Y743273D03*
X1011639Y765533D03*
Y769076D03*
Y729533D03*
Y733076D03*
X1086443Y751226D03*
Y754769D03*
X1019513Y755950D03*
Y759494D03*
Y719691D03*
Y723234D03*
X1086443Y719730D03*
Y723273D03*
X1025419Y764446D03*
Y767990D03*
X1080537Y729572D03*
Y733116D03*
X1086443Y759730D03*
Y763273D03*
X1025419Y719730D03*
Y723273D03*
X1019513Y738628D03*
Y742171D03*
X1011639Y719533D03*
Y723076D03*
X1080537Y751226D03*
Y754769D03*
X1011639Y784533D03*
Y788076D03*
X1025419Y773446D03*
Y776990D03*
Y679966D03*
Y676423D03*
X1011639Y774533D03*
Y778076D03*
X1031324Y679966D03*
Y676423D03*
X1013608Y679966D03*
Y676423D03*
X1049041Y679966D03*
Y676423D03*
X1007702Y679966D03*
Y676423D03*
X635655Y820124D03*
Y823667D03*
X675025Y820124D03*
Y823667D03*
X843653Y1184220D03*
Y1187764D03*
X663214Y820124D03*
Y823667D03*
X671088Y820124D03*
Y823667D03*
X678962Y820124D03*
Y823667D03*
X686836Y820124D03*
Y823667D03*
X682899Y820124D03*
Y823667D03*
X659277Y820124D03*
Y823667D03*
X651403Y820124D03*
Y823667D03*
X655340Y820124D03*
Y823667D03*
X710458Y820124D03*
Y823667D03*
X955553Y1184020D03*
Y1187564D03*
X694710Y820124D03*
Y823667D03*
X734080Y820124D03*
Y823667D03*
X726206Y820124D03*
Y823667D03*
X730143Y820124D03*
Y823667D03*
X757702Y820124D03*
Y823667D03*
X749828Y820124D03*
Y823667D03*
X745891Y820124D03*
Y823667D03*
X722269Y820124D03*
Y823667D03*
X1094317Y729730D03*
Y733273D03*
X1086443Y676423D03*
Y679966D03*
X365073Y679160D03*
Y682703D03*
X714395Y820124D03*
Y823667D03*
X698647Y820124D03*
Y823667D03*
X1027031Y577528D03*
Y581071D03*
Y547528D03*
Y551071D03*
Y562528D03*
Y566071D03*
X972031Y577528D03*
Y581071D03*
Y547528D03*
Y551071D03*
X1053674Y1124331D03*
Y1127874D03*
X1065485Y1124331D03*
Y1127874D03*
X1071706Y1056549D03*
Y1053006D03*
Y1066392D03*
Y1062849D03*
Y1076234D03*
Y1072691D03*
Y1095919D03*
Y1092376D03*
X1032336Y1095919D03*
Y1092376D03*
Y1076234D03*
Y1072691D03*
Y1066392D03*
Y1062849D03*
Y1056549D03*
Y1053006D03*
Y1033321D03*
Y1036864D03*
X1063885Y1082747D03*
Y1086290D03*
X1039885Y1082747D03*
Y1086290D03*
X1227744Y418943D03*
Y422486D03*
X1032336Y1082534D03*
Y1086077D03*
X995446Y314156D03*
Y317700D03*
X983243Y314156D03*
Y317700D03*
X747386Y314439D03*
Y317982D03*
X735263Y314439D03*
Y317982D03*
X642967Y314222D03*
Y317765D03*
X630723Y314222D03*
Y317765D03*
X394922Y314217D03*
Y317760D03*
X382717Y314217D03*
Y317760D03*
X627781Y820124D03*
Y823667D03*
X639592Y820124D03*
Y823667D03*
X625813Y642958D03*
Y646502D03*
X680931Y642958D03*
Y646502D03*
X643529Y820124D03*
Y823667D03*
X285261Y943746D03*
Y940202D03*
X505734Y754769D03*
Y751226D03*
Y796108D03*
Y792565D03*
X261639Y943746D03*
Y940202D03*
X308883Y943746D03*
Y940202D03*
X249828D03*
Y943746D03*
X273450Y940202D03*
Y943746D03*
X297072Y940202D03*
Y943746D03*
X320694Y940202D03*
Y943746D03*
X741954Y820124D03*
Y823667D03*
X902853Y1184420D03*
Y1187964D03*
X1032336Y1043164D03*
Y1046707D03*
X1071706Y1082534D03*
Y1086077D03*
Y1043164D03*
Y1046707D03*
X1221088Y431147D03*
Y434691D03*
X1041863Y1124331D03*
Y1127874D03*
X1030052Y1124331D03*
Y1127874D03*
X1071706Y1036864D03*
Y1033321D03*
X1096457Y1180512D03*
Y1176969D03*
X1101575Y1180512D03*
Y1176969D03*
X972031Y562528D03*
Y566071D03*
X728175Y646502D03*
Y642958D03*
X641561D03*
Y646502D03*
X767545Y642958D03*
Y646502D03*
X704553Y642958D03*
Y646502D03*
X673057Y642958D03*
Y646502D03*
X610065Y642958D03*
Y646502D03*
X454685Y323898D03*
Y320354D03*
X554685Y323504D03*
Y319961D03*
X786969Y323504D03*
Y319961D03*
X887756Y323504D03*
Y319961D03*
X473583Y320748D03*
Y324291D03*
X575157Y319961D03*
Y323504D03*
X806654Y319961D03*
Y323504D03*
X907441Y319961D03*
Y323504D03*
X926339Y319961D03*
Y323504D03*
X827126Y319961D03*
Y323504D03*
X595630Y319961D03*
Y323504D03*
X494843Y319961D03*
Y323504D03*
X948386Y319961D03*
Y323504D03*
X847598Y319961D03*
Y323504D03*
X615315Y319961D03*
Y323504D03*
X514528Y319961D03*
Y323504D03*
X435000Y320354D03*
Y323898D03*
X535000Y319961D03*
Y323504D03*
X766496Y319961D03*
Y323504D03*
X867283Y319173D03*
Y322717D03*
X1273811Y832131D03*
Y828588D03*
X1274288Y489045D03*
Y485502D03*
G54D146*
X615576Y776620D03*
X621876D03*
X776206Y801817D03*
X782506D03*
Y789218D03*
X776206D03*
X782506Y782919D03*
X776206D03*
X782506Y795517D03*
X776206D03*
G54D148*
X630143Y837643D03*
Y831344D03*
X636443Y837643D03*
Y831344D03*
X661639D03*
Y837643D03*
X642742D03*
Y831344D03*
X655340Y837643D03*
Y831344D03*
X649041Y837643D03*
Y831344D03*
X606128Y809691D03*
Y803391D03*
X667939Y831344D03*
Y837643D03*
X680537D03*
Y831344D03*
X693135Y837643D03*
Y831344D03*
X674238Y837643D03*
Y831344D03*
X686836D03*
Y837643D03*
X712033D03*
Y831344D03*
X705734Y837643D03*
Y831344D03*
X718332Y837643D03*
Y831344D03*
X699435D03*
Y837643D03*
X730931D03*
Y831344D03*
X743529Y837643D03*
Y831344D03*
X737230Y837643D03*
Y831344D03*
X756128D03*
Y837643D03*
X612427Y810084D03*
Y803785D03*
X762427Y837643D03*
Y831344D03*
X768726Y837643D03*
Y831344D03*
X749828Y837643D03*
Y831344D03*
X724631D03*
Y837643D03*
X621482Y803785D03*
Y810084D03*
X623844Y831344D03*
Y837643D03*
X617545D03*
Y831344D03*
G54D149*
X889395Y847486D03*
X885852D03*
X889395Y668352D03*
X885852D03*
X690773Y820124D03*
Y823667D03*
X976579Y896602D03*
X980122D03*
X1006246Y919927D03*
X1009789D03*
X1055643Y1116331D03*
Y1119874D03*
X1043832Y1116331D03*
Y1119874D03*
X1039895Y1116331D03*
Y1119874D03*
X1032021Y1116331D03*
Y1119874D03*
X1028084Y1116331D03*
Y1119874D03*
X1270990Y586255D03*
X1274533D03*
X981521Y586069D03*
X985065D03*
X1001960Y595003D03*
Y598546D03*
X1009873Y595003D03*
Y598546D03*
X985065Y582131D03*
X981521D03*
X781521Y737250D03*
X785065D03*
X1067454Y1116331D03*
Y1119874D03*
X173581Y528492D03*
X177124D03*
X1051706Y1116331D03*
Y1119874D03*
X257053Y352420D03*
Y355964D03*
X179924Y514292D03*
X176381D03*
X365026Y721938D03*
X361483D03*
X365026Y716867D03*
X361483D03*
X395498Y908313D03*
Y904769D03*
X387624Y906344D03*
Y902801D03*
X771679Y713628D03*
X775222D03*
X771668Y697880D03*
X775212D03*
X716364Y654769D03*
Y658313D03*
X781521Y729376D03*
X785065D03*
X1063517Y1116331D03*
Y1119874D03*
X1006246Y879927D03*
X1009789D03*
X270753Y351764D03*
Y348220D03*
X179824Y719992D03*
X176281D03*
X171581Y734692D03*
X175124D03*
X237581Y540292D03*
X241124D03*
X370381Y1133892D03*
X373924D03*
X240624Y526792D03*
X237081D03*
X830759Y668352D03*
X834302D03*
X830734Y847486D03*
X834277D03*
X702584Y820124D03*
Y823667D03*
X706521Y820124D03*
Y823667D03*
X937433Y584546D03*
Y581002D03*
X941703D03*
Y584546D03*
G54D158*
X906521Y683116D03*
Y685084D03*
Y687053D03*
Y689021D03*
X912033D03*
Y687053D03*
Y685084D03*
Y683116D03*
X906521Y673273D03*
Y675242D03*
Y677210D03*
Y679179D03*
X912033D03*
Y677210D03*
Y675242D03*
Y673273D03*
X906521Y663431D03*
Y665399D03*
Y667368D03*
Y669336D03*
X912033D03*
Y667368D03*
Y665399D03*
Y663431D03*
X906521Y653588D03*
Y655557D03*
Y657525D03*
Y659494D03*
X912033D03*
Y657525D03*
Y655557D03*
Y653588D03*
X906521Y643746D03*
Y645714D03*
Y647683D03*
Y649651D03*
X912033D03*
Y647683D03*
Y645714D03*
Y643746D03*
X829356Y883509D03*
Y881541D03*
Y879572D03*
Y877604D03*
X823844D03*
Y879572D03*
Y881541D03*
Y883509D03*
Y866187D03*
Y868155D03*
Y870124D03*
Y872092D03*
X829356D03*
Y870124D03*
Y868155D03*
Y866187D03*
X915588Y883803D03*
Y885772D03*
Y887740D03*
Y889709D03*
X921100D03*
Y887740D03*
Y885772D03*
Y883803D03*
X907702Y841777D03*
Y843746D03*
Y845714D03*
Y847683D03*
X913214D03*
Y845714D03*
Y843746D03*
Y841777D03*
X907702Y832328D03*
Y834297D03*
Y836265D03*
Y838234D03*
X913214D03*
Y836265D03*
Y834297D03*
Y832328D03*
X907702Y822486D03*
Y824454D03*
Y826423D03*
Y828391D03*
X913214D03*
Y826423D03*
Y824454D03*
Y822486D03*
X907702Y862643D03*
Y864612D03*
Y866580D03*
Y868549D03*
X913214D03*
Y866580D03*
Y864612D03*
Y862643D03*
X907702Y851226D03*
Y853194D03*
Y855163D03*
Y857131D03*
X913214D03*
Y855163D03*
Y853194D03*
Y851226D03*
X827387Y649651D03*
Y647683D03*
Y645714D03*
Y643746D03*
X821876D03*
Y645714D03*
Y647683D03*
Y649651D03*
G54D166*
X897466Y682407D03*
Y684376D03*
Y686344D03*
Y688313D03*
X901403D03*
Y686344D03*
Y684376D03*
Y682407D03*
X898254Y841462D03*
Y843431D03*
Y845399D03*
Y847368D03*
X902191D03*
Y845399D03*
Y843431D03*
Y841462D03*
X898254Y832407D03*
Y834376D03*
Y836344D03*
Y838313D03*
X902191D03*
Y836344D03*
Y834376D03*
Y832407D03*
X898254Y822958D03*
Y824927D03*
Y826895D03*
Y828864D03*
X902191D03*
Y826895D03*
Y824927D03*
Y822958D03*
X898254Y851305D03*
Y853273D03*
Y855242D03*
Y857210D03*
X902191D03*
Y855242D03*
Y853273D03*
Y851305D03*
X898254Y862722D03*
Y864691D03*
Y866659D03*
Y868628D03*
X902191D03*
Y866659D03*
Y864691D03*
Y862722D03*
X897466Y672565D03*
Y674533D03*
Y676502D03*
Y678470D03*
X901403D03*
Y676502D03*
Y674533D03*
Y672565D03*
X897466Y662722D03*
Y664691D03*
Y666659D03*
Y668628D03*
X901403D03*
Y666659D03*
Y664691D03*
Y662722D03*
X897466Y643824D03*
Y645793D03*
Y647761D03*
Y649730D03*
X901403D03*
Y647761D03*
Y645793D03*
Y643824D03*
X897466Y652880D03*
Y654848D03*
Y656817D03*
Y658785D03*
X901403D03*
Y656817D03*
Y654848D03*
Y652880D03*
G54D192*
X1066182Y1156575D03*
X1061182Y1166575D03*
X1056182Y1156575D03*
X1051182Y1166575D03*
X1046182Y1156575D03*
X1041182Y1166575D03*
X1036182Y1156575D03*
X1031182Y1166575D03*
X1026182Y1156575D03*
X1021182Y1166575D03*
X1069782Y1207575D03*
X1059782D03*
X1027582D03*
X1017582D03*
G54D235*
X1248691Y895260D03*
X1241191Y891165D03*
X1248691Y887386D03*
X1241191Y883291D03*
X1248691Y879512D03*
X1241191Y875417D03*
X1248691Y871638D03*
X1241191Y867543D03*
X1248691Y863764D03*
X1241191Y859669D03*
X1248691Y855890D03*
X1241191Y851795D03*
X1248691Y848016D03*
X1241191Y843921D03*
X1248691Y840142D03*
X1241191Y836047D03*
X1248691Y832268D03*
X1241191Y828173D03*
X1248691Y824394D03*
X1241191Y820299D03*
X1248691Y816520D03*
X1241191Y812425D03*
X1248691Y808646D03*
X1241191Y804551D03*
X1248691Y800772D03*
X1241191Y796677D03*
X1248691Y792898D03*
X1241191Y788803D03*
X1248691Y785024D03*
X1241191Y780929D03*
X1248691Y777150D03*
X1241191Y773055D03*
X1248691Y769276D03*
X1241191Y765181D03*
X1248691Y761402D03*
X1241191Y757307D03*
X1248691Y753528D03*
X1241191Y749433D03*
X1248691Y745654D03*
X1241191Y741559D03*
X1248691Y737780D03*
X1241191Y733685D03*
X1248691Y729906D03*
X1241191Y725811D03*
X1248691Y722031D03*
X1241191Y717937D03*
X1248691Y714157D03*
X1241191Y710063D03*
X1248691Y706283D03*
X1241191Y702189D03*
X1248691Y698409D03*
X1241191Y694315D03*
X1248691Y690535D03*
X1241191Y686441D03*
X1248691Y682661D03*
X1241191Y678567D03*
X1248691Y674787D03*
X1241191Y670693D03*
X1248691Y666913D03*
X1241191Y662819D03*
X1248691Y659039D03*
X1241191Y654945D03*
X1248691Y651165D03*
X1241191Y647071D03*
X1248691Y627386D03*
X1241191Y623449D03*
X1248691Y619512D03*
X1241191Y615575D03*
X1248691Y611638D03*
X1241191Y607701D03*
X1248691Y603764D03*
X1241191Y599827D03*
X1248691Y595890D03*
X1241191Y591953D03*
X1248691Y588016D03*
X1241191Y584079D03*
X1248691Y580142D03*
X1241191Y576205D03*
X1248691Y572268D03*
X1241191Y568331D03*
X1248691Y564394D03*
X1241191Y560457D03*
X1248691Y556520D03*
X1241191Y552583D03*
X1248691Y548646D03*
X1241191Y544709D03*
X1248691Y540772D03*
X1241191Y536835D03*
X1248691Y532898D03*
X1241191Y528961D03*
X1248691Y525024D03*
X1241191Y521087D03*
X1248691Y517150D03*
X1241191Y513213D03*
X1248691Y509276D03*
X1241191Y505339D03*
X1248691Y501402D03*
X1241191Y497465D03*
X1248691Y493528D03*
X1241191Y489591D03*
X1248691Y485654D03*
X1241191Y481717D03*
X1248691Y477780D03*
X1241191Y473843D03*
X1248691Y469906D03*
X1241191Y465969D03*
X1248691Y462031D03*
X1241191Y458094D03*
X1248691Y454157D03*
X1241191Y450220D03*
X1248691Y446283D03*
X1241191Y442346D03*
X1248691Y438409D03*
X1241191Y434472D03*
X1248691Y430535D03*
X1241191Y426598D03*
X1248691Y422661D03*
X1241191Y418724D03*
X1248691Y414787D03*
X1241191Y410850D03*
X1263710Y895102D03*
X1256210Y891165D03*
X1263710Y887228D03*
X1256210Y883291D03*
X1263710Y879354D03*
X1256210Y875417D03*
X1263710Y871480D03*
X1256210Y867543D03*
X1263710Y863606D03*
X1256210Y859669D03*
X1263710Y855732D03*
X1256210Y851795D03*
X1263710Y847858D03*
X1256210Y843921D03*
X1263710Y839984D03*
X1256210Y836047D03*
X1263710Y832110D03*
X1256210Y828173D03*
X1263710Y824236D03*
X1256210Y820299D03*
X1263710Y816362D03*
X1256210Y812425D03*
X1263710Y808488D03*
X1256210Y804551D03*
X1263710Y800614D03*
X1256210Y796677D03*
X1263710Y792740D03*
X1256210Y788803D03*
X1263710Y784866D03*
X1256210Y780929D03*
X1263710Y776992D03*
X1256210Y773055D03*
X1263710Y769118D03*
X1256210Y765181D03*
X1263710Y761244D03*
X1256210Y757307D03*
X1263710Y753370D03*
X1256210Y749433D03*
X1263710Y745496D03*
X1256210Y741559D03*
X1263710Y737622D03*
X1256210Y733685D03*
X1263710Y729748D03*
X1256210Y725811D03*
X1263710Y721874D03*
X1256210Y717937D03*
X1263710Y714000D03*
X1256210Y710063D03*
X1263710Y706126D03*
X1256210Y702189D03*
X1263710Y698252D03*
X1256210Y694315D03*
X1263710Y690378D03*
X1256210Y686441D03*
X1263710Y682504D03*
X1256210Y678567D03*
X1263710Y674630D03*
X1256210Y670693D03*
X1263710Y666756D03*
X1256210Y662819D03*
X1263710Y658882D03*
X1256210Y654945D03*
X1263710Y651008D03*
X1256210Y647071D03*
X1263710Y627386D03*
X1256210Y623449D03*
X1263710Y619512D03*
X1256210Y615575D03*
X1263710Y611638D03*
X1256210Y607701D03*
X1263710Y603764D03*
X1256210Y599827D03*
X1263710Y595890D03*
X1256210Y591953D03*
X1263710Y588016D03*
X1256210Y584079D03*
X1263710Y580142D03*
X1256210Y576205D03*
X1263710Y572268D03*
X1256210Y568331D03*
X1263710Y564394D03*
X1256210Y560457D03*
X1263710Y556520D03*
X1256210Y552583D03*
X1263710Y548646D03*
X1256210Y544709D03*
X1263710Y540772D03*
X1256210Y536835D03*
X1263710Y532898D03*
X1256210Y528961D03*
X1263710Y525024D03*
X1256210Y521087D03*
X1263710Y517150D03*
X1256210Y513213D03*
X1263710Y509276D03*
X1256210Y505339D03*
X1263710Y501402D03*
X1256210Y497465D03*
X1263710Y493528D03*
X1256210Y489591D03*
X1263710Y485654D03*
X1256210Y481717D03*
X1263710Y477780D03*
X1256210Y473843D03*
X1263710Y469906D03*
X1256210Y465969D03*
X1263710Y462031D03*
X1256210Y458094D03*
X1263710Y454157D03*
X1256210Y450220D03*
X1263710Y446283D03*
X1256210Y442346D03*
X1263710Y438409D03*
X1256210Y434472D03*
X1263710Y430535D03*
X1256210Y426598D03*
X1263710Y422661D03*
X1256210Y418724D03*
X1263710Y414787D03*
X1256210Y410850D03*
X388510Y411104D03*
X396010Y415198D03*
X388510Y418978D03*
X396010Y423072D03*
X388510Y426852D03*
X396010Y430946D03*
X388510Y434726D03*
X396010Y438820D03*
X388510Y442600D03*
X396010Y446694D03*
X388510Y450474D03*
X396010Y454569D03*
X388510Y458348D03*
X396010Y462443D03*
X388510Y466222D03*
X396010Y470317D03*
X388510Y474096D03*
X396010Y478191D03*
X388510Y481970D03*
X396010Y486065D03*
X388510Y489844D03*
X396010Y493939D03*
X388510Y497718D03*
X396010Y501813D03*
X388510Y505592D03*
X396010Y509687D03*
X388510Y513466D03*
X396010Y517561D03*
X388510Y521340D03*
X396010Y525435D03*
X388510Y529214D03*
X396010Y533309D03*
X388510Y537088D03*
X396010Y541183D03*
X388510Y544962D03*
X396010Y549057D03*
X388510Y552836D03*
X396010Y556931D03*
X388510Y560710D03*
X396010Y564805D03*
X388510Y568584D03*
X396010Y572679D03*
X388510Y576458D03*
X396010Y580553D03*
X388510Y584332D03*
X396010Y588427D03*
X388510Y592206D03*
X396010Y596301D03*
X388510Y600080D03*
X396010Y604175D03*
X388510Y607954D03*
X396010Y612049D03*
X388510Y615828D03*
X396010Y619923D03*
X388510Y623702D03*
X396010Y627797D03*
X388510Y631576D03*
X396010Y635671D03*
X388510Y639450D03*
X396010Y643545D03*
X388510Y647324D03*
X396010Y651419D03*
X388510Y655198D03*
X396010Y659293D03*
X388510Y678978D03*
X396010Y682915D03*
X388510Y686852D03*
X396010Y690789D03*
X388510Y694726D03*
X396010Y698663D03*
X388510Y702600D03*
X396010Y706537D03*
X388510Y710474D03*
X396010Y714411D03*
X388510Y718348D03*
X396010Y722285D03*
X388510Y726222D03*
X396010Y730159D03*
X388510Y734096D03*
X396010Y738033D03*
X388510Y741970D03*
X396010Y745907D03*
X388510Y749844D03*
X396010Y753781D03*
X388510Y757718D03*
X396010Y761655D03*
X388510Y765592D03*
X396010Y769529D03*
X388510Y773466D03*
X396010Y777403D03*
X388510Y781340D03*
X396010Y785277D03*
X388510Y789214D03*
X396010Y793151D03*
X388510Y797088D03*
X396010Y801025D03*
X388510Y804962D03*
X396010Y808899D03*
X388510Y812836D03*
X396010Y816773D03*
X388510Y820710D03*
X396010Y824647D03*
X388510Y828584D03*
X396010Y832521D03*
X388510Y836458D03*
X396010Y840395D03*
X388510Y844332D03*
X396010Y848269D03*
X388510Y852206D03*
X396010Y856143D03*
X388510Y860080D03*
X396010Y864017D03*
X388510Y867954D03*
X396010Y871891D03*
X388510Y875828D03*
X396010Y879765D03*
X388510Y883702D03*
X396010Y887639D03*
X388510Y891576D03*
X396010Y895513D03*
X373491Y411261D03*
X380991Y415198D03*
X373491Y419135D03*
X380991Y423072D03*
X373491Y427009D03*
X380991Y430946D03*
X373491Y434883D03*
X380991Y438820D03*
X373491Y442757D03*
X380991Y446694D03*
X373491Y450631D03*
X380991Y454569D03*
X373491Y458506D03*
X380991Y462443D03*
X373491Y466380D03*
X380991Y470317D03*
X373491Y474254D03*
X380991Y478191D03*
X373491Y482128D03*
X380991Y486065D03*
X373491Y490002D03*
X380991Y493939D03*
X373491Y497876D03*
X380991Y501813D03*
X373491Y505750D03*
X380991Y509687D03*
X373491Y513624D03*
X380991Y517561D03*
X373491Y521498D03*
X380991Y525435D03*
X373491Y529372D03*
X380991Y533309D03*
X373491Y537246D03*
X380991Y541183D03*
X373491Y545120D03*
X380991Y549057D03*
X373491Y552994D03*
X380991Y556931D03*
X373491Y560868D03*
X380991Y564805D03*
X373491Y568742D03*
X380991Y572679D03*
X373491Y576616D03*
X380991Y580553D03*
X373491Y584490D03*
X380991Y588427D03*
X373491Y592364D03*
X380991Y596301D03*
X373491Y600238D03*
X380991Y604175D03*
X373491Y608112D03*
X380991Y612049D03*
X373491Y615986D03*
X380991Y619923D03*
X373491Y623860D03*
X380991Y627797D03*
X373491Y631734D03*
X380991Y635671D03*
X373491Y639608D03*
X380991Y643545D03*
X373491Y647482D03*
X380991Y651419D03*
X373491Y655356D03*
X380991Y659293D03*
X373491Y678978D03*
X380991Y682915D03*
X373491Y686852D03*
X380991Y690789D03*
X373491Y694726D03*
X380991Y698663D03*
X373491Y702600D03*
X380991Y706537D03*
X373491Y710474D03*
X380991Y714411D03*
X373491Y718348D03*
X380991Y722285D03*
X373491Y726222D03*
X380991Y730159D03*
X373491Y734096D03*
X380991Y738033D03*
X373491Y741970D03*
X380991Y745907D03*
X373491Y749844D03*
X380991Y753781D03*
X373491Y757718D03*
X380991Y761655D03*
X373491Y765592D03*
X380991Y769529D03*
X373491Y773466D03*
X380991Y777403D03*
X373491Y781340D03*
X380991Y785277D03*
X373491Y789214D03*
X380991Y793151D03*
X373491Y797088D03*
X380991Y801025D03*
X373491Y804962D03*
X380991Y808899D03*
X373491Y812836D03*
X380991Y816773D03*
X373491Y820710D03*
X380991Y824647D03*
X373491Y828584D03*
X380991Y832521D03*
X373491Y836458D03*
X380991Y840395D03*
X373491Y844332D03*
X380991Y848269D03*
X373491Y852206D03*
X380991Y856143D03*
X373491Y860080D03*
X380991Y864017D03*
X373491Y867954D03*
X380991Y871891D03*
X373491Y875828D03*
X380991Y879765D03*
X373491Y883702D03*
X380991Y887639D03*
X373491Y891576D03*
X380991Y895513D03*
G54D250*
X787323Y1168346D03*
Y1175433D03*
X841353Y1168349D03*
Y1175435D03*
X898953Y1168449D03*
Y1175535D03*
X953653Y1168549D03*
Y1175635D03*
G54D251*
X890576Y699061D03*
X888608D03*
X886639D03*
X884671D03*
Y704572D03*
X886639D03*
X888608D03*
X890576D03*
X852781Y715596D03*
X850813D03*
X848844D03*
X846876D03*
Y721108D03*
X848844D03*
X850813D03*
X852781D03*
X874041Y620714D03*
X876009D03*
X877978D03*
X879946D03*
Y615202D03*
X877978D03*
X876009D03*
X874041D03*
X863017Y620714D03*
X864986D03*
X866954D03*
X868923D03*
Y615202D03*
X866954D03*
X864986D03*
X863017D03*
X852387Y620714D03*
X854356D03*
X856324D03*
X858293D03*
Y615202D03*
X856324D03*
X854356D03*
X852387D03*
X841757Y620714D03*
X843726D03*
X845694D03*
X847663D03*
Y615202D03*
X845694D03*
X843726D03*
X841757D03*
X837427Y699061D03*
X835458D03*
X833490D03*
X831521D03*
Y704572D03*
X833490D03*
X835458D03*
X837427D03*
X890576Y632131D03*
X888608D03*
X886639D03*
X884671D03*
Y637643D03*
X886639D03*
X888608D03*
X890576D03*
X900419Y811265D03*
X898450D03*
X896482D03*
X894513D03*
Y816777D03*
X896482D03*
X898450D03*
X900419D03*
X837427Y632131D03*
X835458D03*
X833490D03*
X831521D03*
Y637643D03*
X833490D03*
X835458D03*
X837427D03*
X890576Y878194D03*
X888608D03*
X886639D03*
X884671D03*
Y883706D03*
X886639D03*
X888608D03*
X890576D03*
X841364Y888037D03*
X839395D03*
X837427D03*
X835458D03*
Y893549D03*
X837427D03*
X839395D03*
X841364D03*
X890576Y811265D03*
X888608D03*
X886639D03*
X884671D03*
Y816777D03*
X886639D03*
X888608D03*
X890576D03*
X853175Y895911D03*
X851206D03*
X849238D03*
X847269D03*
Y901423D03*
X849238D03*
X851206D03*
X853175D03*
X846088Y797486D03*
X848057D03*
X850025D03*
X851994D03*
Y791974D03*
X850025D03*
X848057D03*
X846088D03*
X917982Y701483D03*
X916013D03*
X914045D03*
X912076D03*
Y706995D03*
X914045D03*
X916013D03*
X917982D03*
X858293Y797486D03*
X860261D03*
X862230D03*
X864198D03*
Y791974D03*
X862230D03*
X860261D03*
X858293D03*
X870498Y797486D03*
X872466D03*
X874435D03*
X876403D03*
Y791974D03*
X874435D03*
X872466D03*
X870498D03*
X835458Y797092D03*
X837427D03*
X839395D03*
X841364D03*
Y791580D03*
X839395D03*
X837427D03*
X835458D03*
X866954Y895911D03*
X864986D03*
X863017D03*
X861049D03*
Y901423D03*
X863017D03*
X864986D03*
X866954D03*
X881915Y895911D03*
X879946D03*
X877978D03*
X876009D03*
Y901423D03*
X877978D03*
X879946D03*
X881915D03*
X900419Y632131D03*
X898450D03*
X896482D03*
X894513D03*
Y637643D03*
X896482D03*
X898450D03*
X900419D03*
X866167Y715596D03*
X864198D03*
X862230D03*
X860261D03*
Y721108D03*
X862230D03*
X864198D03*
X866167D03*
X880340Y715596D03*
X878372D03*
X876403D03*
X874435D03*
Y721108D03*
X876403D03*
X878372D03*
X880340D03*
G54D252*
X852702Y706935D03*
X850734D03*
X848765D03*
X846797D03*
Y710872D03*
X848765D03*
X850734D03*
X852702D03*
X863096Y628982D03*
X865065D03*
X867033D03*
X869002D03*
Y625045D03*
X867033D03*
X865065D03*
X863096D03*
X866088Y706935D03*
X864120D03*
X862151D03*
X860183D03*
Y710872D03*
X862151D03*
X864120D03*
X866088D03*
X852072Y628982D03*
X854041D03*
X856009D03*
X857978D03*
Y625045D03*
X856009D03*
X854041D03*
X852072D03*
X841443Y628982D03*
X843411D03*
X845380D03*
X847348D03*
Y625045D03*
X845380D03*
X843411D03*
X841443D03*
X853490Y886462D03*
X851521D03*
X849553D03*
X847584D03*
Y890399D03*
X849553D03*
X851521D03*
X853490D03*
X846167Y806147D03*
X848135D03*
X850104D03*
X852072D03*
Y802210D03*
X850104D03*
X848135D03*
X846167D03*
X858372Y806147D03*
X860340D03*
X862309D03*
X864277D03*
Y802210D03*
X862309D03*
X860340D03*
X858372D03*
X834750Y806147D03*
X836718D03*
X838687D03*
X840655D03*
Y802210D03*
X838687D03*
X836718D03*
X834750D03*
X870576Y806147D03*
X872545D03*
X874513D03*
X876482D03*
Y802210D03*
X874513D03*
X872545D03*
X870576D03*
X879868Y706935D03*
X877899D03*
X875931D03*
X873962D03*
Y710872D03*
X875931D03*
X877899D03*
X879868D03*
X881836Y886462D03*
X879868D03*
X877899D03*
X875931D03*
Y890399D03*
X877899D03*
X879868D03*
X881836D03*
X866482Y886462D03*
X864513D03*
X862545D03*
X860576D03*
Y890399D03*
X862545D03*
X864513D03*
X866482D03*
X874120Y628982D03*
X876088D03*
X878057D03*
X880025D03*
Y625045D03*
X878057D03*
X876088D03*
X874120D03*
G54D260*
X1314921Y1048346D03*
X1304921Y1058346D03*
Y1048346D03*
X1294921Y1058346D03*
Y1048346D03*
X1284921Y1058346D03*
Y1048346D03*
X1274921Y1058346D03*
Y1048346D03*
G54D270*
X1074182Y1179575D03*
X1013182D03*
G54D311*
X1314921Y1058346D03*
G54D332*
X141953Y652992D03*
X204453Y665492D03*
Y677992D03*
Y715492D03*
Y727992D03*
X191953D03*
X179453D03*
X166953D03*
X154453D03*
X141953D03*
Y665492D03*
X207953Y458992D03*
X220453D03*
X257953D03*
Y471492D03*
Y508992D03*
Y533992D03*
X245453D03*
X232953D03*
X220453D03*
X207953D03*
Y471492D03*
X139953Y458992D03*
X159953D03*
X189953D03*
Y508992D03*
Y521492D03*
X179953D03*
X169953D03*
X159953D03*
X149953D03*
X139953D03*
Y380992D03*
Y330992D03*
X152453D03*
X177453D03*
X189953D03*
X202453D03*
X214953D03*
X239953D03*
X252453D03*
X264953D03*
Y343492D03*
Y355992D03*
Y368492D03*
Y380992D03*
G54D333*
X763350Y273302D03*
X771343D03*
X783350D03*
X791343D03*
X803350D03*
X811343D03*
X823350D03*
X831343D03*
X843350D03*
X851343D03*
X863350D03*
X871343D03*
X883350D03*
X891343D03*
X903350D03*
X911343D03*
X923350D03*
X931343D03*
X943350D03*
X951343D03*
X767327Y280192D03*
X777327D03*
X787327D03*
X797327D03*
X807327D03*
X817327D03*
X827327D03*
X837327D03*
X847327D03*
X857327D03*
X867327D03*
X877327D03*
X887327D03*
X897327D03*
X907327D03*
X917327D03*
X927327D03*
X937327D03*
X947327D03*
X957327D03*
X773350Y287082D03*
X781343D03*
X793350D03*
X801343D03*
X813350D03*
X821343D03*
X833350D03*
X841343D03*
X853350D03*
X861343D03*
X873350D03*
X881343D03*
X893350D03*
X901343D03*
X913350D03*
X921343D03*
X933350D03*
X941343D03*
X953350D03*
X961343D03*
X763350Y296924D03*
X771343D03*
X767327Y303814D03*
X773350Y310704D03*
X781343D03*
X783350Y296924D03*
X791343D03*
X803350D03*
X811343D03*
X823350D03*
X831343D03*
X843350D03*
X851343D03*
X863350D03*
X871343D03*
X883350D03*
X891343D03*
X903350D03*
X911343D03*
X923350D03*
X931343D03*
X943350D03*
X951343D03*
X793350Y310704D03*
X801343D03*
X813350D03*
X821343D03*
X833350D03*
X841343D03*
X853350D03*
X861343D03*
X873350D03*
X881343D03*
X893350D03*
X901343D03*
X913350D03*
X921343D03*
X933350D03*
X941343D03*
X953350D03*
X961343D03*
X777327Y303814D03*
X787327D03*
X797327D03*
X807327D03*
X817327D03*
X827327D03*
X837327D03*
X847327D03*
X857327D03*
X867327D03*
X877327D03*
X887327D03*
X897327D03*
X907327D03*
X917327D03*
X927327D03*
X937327D03*
X947327D03*
X957327D03*
X1007642Y285940D03*
X995437D03*
X983232D03*
X1007642Y293814D03*
Y301688D03*
Y309562D03*
X995437Y293814D03*
Y301688D03*
Y309562D03*
X983232Y293814D03*
Y301688D03*
Y309562D03*
X747406Y285940D03*
X735201D03*
X722996D03*
X747406Y293814D03*
Y301688D03*
Y309562D03*
X735201Y293814D03*
Y301688D03*
Y309562D03*
X722996Y293814D03*
Y301688D03*
Y309562D03*
X410850Y273302D03*
X418843D03*
X430850D03*
X438843D03*
X450850D03*
X458843D03*
X470850D03*
X478843D03*
X490850D03*
X498843D03*
X510850D03*
X518843D03*
X530850D03*
X538843D03*
X550850D03*
X558843D03*
X570850D03*
X578843D03*
X590850D03*
X598843D03*
X414827Y280192D03*
X424827D03*
X434827D03*
X444827D03*
X454827D03*
X464827D03*
X474827D03*
X484827D03*
X494827D03*
X504827D03*
X514827D03*
X524827D03*
X534827D03*
X544827D03*
X554827D03*
X564827D03*
X574827D03*
X584827D03*
X594827D03*
X604827D03*
X420850Y287082D03*
X428843D03*
X440850D03*
X448843D03*
X460850D03*
X468843D03*
X480850D03*
X488843D03*
X500850D03*
X508843D03*
X520850D03*
X528843D03*
X540850D03*
X548843D03*
X560850D03*
X568843D03*
X580850D03*
X588843D03*
X600850D03*
X608843D03*
X410850Y296924D03*
X418843D03*
X414827Y303814D03*
X420850Y310704D03*
X428843D03*
X430850Y296924D03*
X438843D03*
X450850D03*
X458843D03*
X470850D03*
X478843D03*
X490850D03*
X498843D03*
X510850D03*
X518843D03*
X530850D03*
X538843D03*
X550850D03*
X558843D03*
X570850D03*
X578843D03*
X590850D03*
X598843D03*
X440850Y310704D03*
X448843D03*
X460850D03*
X468843D03*
X480850D03*
X488843D03*
X500850D03*
X508843D03*
X520850D03*
X528843D03*
X540850D03*
X548843D03*
X560850D03*
X568843D03*
X580850D03*
X588843D03*
X600850D03*
X608843D03*
X424827Y303814D03*
X434827D03*
X444827D03*
X454827D03*
X464827D03*
X474827D03*
X484827D03*
X494827D03*
X504827D03*
X514827D03*
X524827D03*
X534827D03*
X544827D03*
X554827D03*
X564827D03*
X574827D03*
X584827D03*
X594827D03*
X604827D03*
X655142Y285940D03*
X642937D03*
X630732D03*
X655142Y293814D03*
Y301688D03*
Y309562D03*
X642937Y293814D03*
Y301688D03*
Y309562D03*
X630732Y293814D03*
Y301688D03*
Y309562D03*
X394906Y285940D03*
X382701D03*
X370496D03*
X394906Y293814D03*
Y301688D03*
Y309562D03*
X382701Y293814D03*
Y301688D03*
Y309562D03*
X370496Y293814D03*
Y301688D03*
Y309562D03*
G54D334*
X1252450Y637228D03*
X384750Y669135D03*
X1096920Y1195709D02*
Y1192165D01*
X1118180Y1195709D02*
Y1192165D01*
G54D336*
X1225482Y901717D03*
Y401795D03*
X411719Y404647D03*
Y904569D03*
G54D337*
X1045104Y880360D03*
Y890360D03*
Y900360D03*
Y910360D03*
Y920360D03*
G54D346*
X997258Y1147475D03*
Y1212140D03*
X729542Y1147475D03*
Y1212140D03*
G54D348*
X1154585Y364615D03*
X1099282Y1186378D03*
X1104794D03*
X1110306D03*
X1115818D03*
G54D349*
X1258522Y267765D02*
Y270521D01*
X586836Y845517D03*
X590773D03*
X583017D03*
X594592D03*
X600616Y852604D03*
X596679D03*
X604435D03*
X592860D03*
X610458Y845517D03*
X614395D03*
X606639D03*
X618214D03*
X641561Y852604D03*
X637624D03*
X645380D03*
X633805D03*
X651403Y845517D03*
X655340D03*
X647584D03*
X659159D03*
X665183Y852604D03*
X661246D03*
X669002D03*
X657427D03*
X675025Y845517D03*
X678962D03*
X671206D03*
X682781D03*
X688805Y852604D03*
X684868D03*
X692624D03*
X681049D03*
X698647Y845517D03*
X702584D03*
X694828D03*
X706403D03*
X712427Y852604D03*
X708490D03*
X716246D03*
X704671D03*
X722269Y845517D03*
X726206D03*
X718450D03*
X730025D03*
X736049Y852604D03*
X732112D03*
X739868D03*
X728293D03*
X745891Y845517D03*
X749828D03*
X742072D03*
X753647D03*
X769907Y852998D03*
X765970D03*
X773726D03*
X762151D03*
X783293Y845911D03*
X787230D03*
X779474D03*
X791049D03*
X798647Y853391D03*
X794710D03*
X802466D03*
X790891D03*
X806260Y1154016D03*
X810197D03*
X802441D03*
X814016D03*
X815576Y1144336D03*
X811639D03*
X819395D03*
X807820D03*
X823057Y1153785D03*
X826994D03*
X819238D03*
X830813D03*
X832244Y1144173D03*
X828307D03*
X836063D03*
X824488D03*
X865315Y1154016D03*
X869252D03*
X861496D03*
X873071D03*
X874631Y1144336D03*
X870694D03*
X878450D03*
X866876D03*
X882112Y1153785D03*
X886049D03*
X878293D03*
X889868D03*
X891299Y1144173D03*
X887362D03*
X895118D03*
X883543D03*
X753372Y1154179D03*
X757309D03*
X749553D03*
X761128D03*
X762427Y1144336D03*
X758490D03*
X766246D03*
X754671D03*
X769907Y1154179D03*
X773844D03*
X766088D03*
X777663D03*
X779488Y1144567D03*
X775551D03*
X783307D03*
X771732D03*
X918858Y1154016D03*
X922795D03*
X915039D03*
X926614D03*
X927781Y1144336D03*
X923844D03*
X931600D03*
X920025D03*
X935261Y1153785D03*
X939198D03*
X931443D03*
X943017D03*
X944449Y1144173D03*
X940512D03*
X948268D03*
X936693D03*
G54D350*
X792742Y710320D03*
X592742Y788273D03*
G54D351*
X1110699Y1216378D02*
X1104400D01*
G54D374*
X263453Y879626D02*
Y882579D01*
X251248Y879626D02*
Y882579D01*
X309453Y879626D02*
Y882579D01*
X297248Y879626D02*
Y882579D01*
X356953Y877126D02*
Y880079D01*
X344748Y877126D02*
Y880079D01*
X992248Y1014079D02*
Y1011126D01*
X1004453Y1014079D02*
Y1011126D01*
X1257874Y1199000D02*
X1260827D01*
X1257874Y1211205D02*
X1260827D01*
X1325827Y1143705D02*
X1322874D01*
X1325827Y1131500D02*
X1322874D01*
G54D378*
X609717Y405914D03*
X767709D03*
G54D379*
X1155511Y1158063D03*
X1160511Y1168063D03*
X1165511Y1158063D03*
X1170511Y1168063D03*
X1175511Y1158063D03*
X1180511Y1168063D03*
X1185511Y1158063D03*
X1190511Y1168063D03*
X1292244Y1177953D03*
X1281339D03*
X1270433D03*
X1259528D03*
X1248622D03*
X1286811Y1189134D03*
X1275906D03*
X1265000D03*
X1254094D03*
G54D380*
X196850Y1181102D03*
X686850D03*
X196850Y571102D03*
X1306850D03*
X686850Y286102D03*
X1306850D03*
X196850D03*
X686850Y571102D03*
X1306850Y1091102D03*
G54D381*
X236220Y870961D03*
Y880961D03*
Y890961D03*
Y900961D03*
X283465Y870961D03*
Y880961D03*
Y890961D03*
Y900961D03*
X330709Y870961D03*
Y880961D03*
Y890961D03*
Y900961D03*
X1141417Y1146213D03*
X1204606D03*
X1313346Y325669D03*
Y396535D03*
Y422913D03*
Y493780D03*
G54D382*
X1075017Y302927D03*
X1055017D03*
Y282927D03*
X1075017D03*
X1122017Y302927D03*
X1102017D03*
Y282927D03*
X1122017D03*
X419753Y1086355D03*
X399753D03*
Y1066355D03*
X419753D03*
X419453Y1128729D03*
X399453D03*
Y1108729D03*
X419453D03*
G54D383*
X1319646Y1183543D03*
X1221260D03*
G54D384*
X1290709Y836693D03*
G54D385*
Y853228D03*
Y869764D03*
Y886299D03*
Y902835D03*
Y919370D03*
Y935906D03*
Y952441D03*
Y968976D03*
Y985512D03*
Y1002047D03*
Y1018583D03*
X1312362Y836693D03*
Y853228D03*
Y869764D03*
Y886299D03*
Y902835D03*
Y919370D03*
Y935906D03*
Y952441D03*
Y968976D03*
Y985512D03*
Y1002047D03*
Y1018583D03*
G54D386*
X1310551Y818189D03*
X0Y0D02*
M02*
