*
*
G04 PADS Layout (Build Number 2007.21.1) generated Gerber (RS-274-X) file*
G04 PC Version=2.1*
*
%IN "roach101.pcb"*%
*
%MOIN*%
*
%FSLAX35Y35*%
*
*
*
*
G04 PC Standard Apertures*
*
*
G04 Thermal Relief Aperture macro.*
%AMTER*
1,1,$1,0,0*
1,0,$1-$2,0,0*
21,0,$3,$4,0,0,45*
21,0,$3,$4,0,0,135*
%
*
*
G04 Annular Aperture macro.*
%AMANN*
1,1,$1,0,0*
1,0,$2,0,0*
%
*
*
G04 Odd Aperture macro.*
%AMODD*
1,1,$1,0,0*
1,0,$1-0.005,0,0*
%
*
*
G04 PC Custom Aperture Macros*
*
*
*
*
*
*
G04 PC Aperture Table*
*
%ADD012C,0.1*%
%ADD080C,0.001*%
%ADD081C,0.05331*%
%ADD082C,0.04937*%
%ADD084C,0.10646*%
%ADD085C,0.065*%
%ADD086C,0.1478*%
%ADD111R,0.075X0.075*%
%ADD150C,0.06512*%
%ADD152C,0.05921*%
%ADD153C,0.03559*%
%ADD182R,0.03756X0.03756*%
%ADD184C,0.074*%
%ADD185R,0.05134X0.05134*%
%ADD187R,0.02575X0.02575*%
%ADD188C,0.02575*%
%ADD191C,0.06016*%
%ADD196R,0.02378X0.02378*%
%ADD199C,0.07693*%
%ADD204R,0.06709X0.06709*%
%ADD212C,0.08874*%
%ADD214C,0.304*%
%ADD218C,0.09268*%
%ADD223C,0.11236*%
%ADD227C,0.0848*%
%ADD228C,0.13205*%
%ADD232C,0.075*%
%ADD233R,0.11039X0.11039*%
%ADD234C,0.11039*%
%ADD235C,0.14386*%
%ADD236C,0.21079*%
%ADD240R,0.06512X0.06512*%
%ADD241C,0.07299*%
%ADD242C,0.114*%
%ADD243C,0.034*%
*
*
*
*
G04 PC Circuitry*
G04 Layer Name roach101.pcb - circuitry*
%LPD*%
*
*
G04 PC Custom Flashes*
G04 Layer Name roach101.pcb - flashes*
%LPD*%
*
*
G04 PC Circuitry*
G04 Layer Name roach101.pcb - circuitry*
%LPD*%
*
G54D12*
G01X110235Y492120D03*
X172735Y504620D03*
Y517120D03*
Y554620D03*
Y567120D03*
X160235D03*
X147735D03*
X135235D03*
X122735D03*
X110235D03*
Y504620D03*
X176235Y298120D03*
X188735D03*
X226235D03*
Y310620D03*
Y348120D03*
Y373120D03*
X213735D03*
X201235D03*
X188735D03*
X176235D03*
Y310620D03*
X108235Y298120D03*
X128235D03*
X158235D03*
Y348120D03*
Y360620D03*
X148235D03*
X138235D03*
X128235D03*
X118235D03*
X108235D03*
Y220120D03*
Y170120D03*
X120735D03*
X145735D03*
X158235D03*
X170735D03*
X183235D03*
X208235D03*
X220735D03*
X233235D03*
Y182620D03*
Y195120D03*
Y207620D03*
Y220120D03*
G54D80*
G54D81*
X731632Y112431D03*
X739624D03*
X751632D03*
X759624D03*
X771632D03*
X779624D03*
X791632D03*
X799624D03*
X811632D03*
X819624D03*
X831632D03*
X839624D03*
X851632D03*
X859624D03*
X871632D03*
X879624D03*
X891632D03*
X899624D03*
X911632D03*
X919624D03*
X735609Y119320D03*
X745609D03*
X755609D03*
X765609D03*
X775609D03*
X785609D03*
X795609D03*
X805609D03*
X815609D03*
X825609D03*
X835609D03*
X845609D03*
X855609D03*
X865609D03*
X875609D03*
X885609D03*
X895609D03*
X905609D03*
X915609D03*
X925609D03*
X741632Y126210D03*
X749624D03*
X761632D03*
X769624D03*
X781632D03*
X789624D03*
X801632D03*
X809624D03*
X821632D03*
X829624D03*
X841632D03*
X849624D03*
X861632D03*
X869624D03*
X881632D03*
X889624D03*
X901632D03*
X909624D03*
X921632D03*
X929624D03*
X731632Y136053D03*
X739624D03*
X735609Y142943D03*
X741632Y149832D03*
X749624D03*
X751632Y136053D03*
X759624D03*
X771632D03*
X779624D03*
X791632D03*
X799624D03*
X811632D03*
X819624D03*
X831632D03*
X839624D03*
X851632D03*
X859624D03*
X871632D03*
X879624D03*
X891632D03*
X899624D03*
X911632D03*
X919624D03*
X761632Y149832D03*
X769624D03*
X781632D03*
X789624D03*
X801632D03*
X809624D03*
X821632D03*
X829624D03*
X841632D03*
X849624D03*
X861632D03*
X869624D03*
X881632D03*
X889624D03*
X901632D03*
X909624D03*
X921632D03*
X929624D03*
X745609Y142943D03*
X755609D03*
X765609D03*
X775609D03*
X785609D03*
X795609D03*
X805609D03*
X815609D03*
X825609D03*
X835609D03*
X845609D03*
X855609D03*
X865609D03*
X875609D03*
X885609D03*
X895609D03*
X905609D03*
X915609D03*
X925609D03*
X975924Y125069D03*
X963719D03*
X951514D03*
X975924Y132943D03*
Y140817D03*
Y148691D03*
X963719Y132943D03*
Y140817D03*
Y148691D03*
X951514Y132943D03*
Y140817D03*
Y148691D03*
X715687Y125069D03*
X703483D03*
X691278D03*
X715687Y132943D03*
Y140817D03*
Y148691D03*
X703483Y132943D03*
Y140817D03*
Y148691D03*
X691278Y132943D03*
Y140817D03*
Y148691D03*
X379132Y112431D03*
X387124D03*
X399132D03*
X407124D03*
X419132D03*
X427124D03*
X439132D03*
X447124D03*
X459132D03*
X467124D03*
X479132D03*
X487124D03*
X499132D03*
X507124D03*
X519132D03*
X527124D03*
X539132D03*
X547124D03*
X559132D03*
X567124D03*
X383109Y119320D03*
X393109D03*
X403109D03*
X413109D03*
X423109D03*
X433109D03*
X443109D03*
X453109D03*
X463109D03*
X473109D03*
X483109D03*
X493109D03*
X503109D03*
X513109D03*
X523109D03*
X533109D03*
X543109D03*
X553109D03*
X563109D03*
X573109D03*
X389132Y126210D03*
X397124D03*
X409132D03*
X417124D03*
X429132D03*
X437124D03*
X449132D03*
X457124D03*
X469132D03*
X477124D03*
X489132D03*
X497124D03*
X509132D03*
X517124D03*
X529132D03*
X537124D03*
X549132D03*
X557124D03*
X569132D03*
X577124D03*
X379132Y136053D03*
X387124D03*
X383109Y142943D03*
X389132Y149832D03*
X397124D03*
X399132Y136053D03*
X407124D03*
X419132D03*
X427124D03*
X439132D03*
X447124D03*
X459132D03*
X467124D03*
X479132D03*
X487124D03*
X499132D03*
X507124D03*
X519132D03*
X527124D03*
X539132D03*
X547124D03*
X559132D03*
X567124D03*
X409132Y149832D03*
X417124D03*
X429132D03*
X437124D03*
X449132D03*
X457124D03*
X469132D03*
X477124D03*
X489132D03*
X497124D03*
X509132D03*
X517124D03*
X529132D03*
X537124D03*
X549132D03*
X557124D03*
X569132D03*
X577124D03*
X393109Y142943D03*
X403109D03*
X413109D03*
X423109D03*
X433109D03*
X443109D03*
X453109D03*
X463109D03*
X473109D03*
X483109D03*
X493109D03*
X503109D03*
X513109D03*
X523109D03*
X533109D03*
X543109D03*
X553109D03*
X563109D03*
X573109D03*
X623424Y125069D03*
X611219D03*
X599014D03*
X623424Y132943D03*
Y140817D03*
Y148691D03*
X611219Y132943D03*
Y140817D03*
Y148691D03*
X599014Y132943D03*
Y140817D03*
Y148691D03*
X363187Y125069D03*
X350983D03*
X338778D03*
X363187Y132943D03*
Y140817D03*
Y148691D03*
X350983Y132943D03*
Y140817D03*
Y148691D03*
X338778Y132943D03*
Y140817D03*
Y148691D03*
G54D82*
X703611Y1028709D03*
X711800Y1021544D03*
X951564D03*
X959831Y1028631D03*
G54D84*
X1193764Y740845D03*
Y240924D03*
X380001Y243776D03*
Y743697D03*
G54D85*
X1013386Y719488D03*
Y729488D03*
Y739488D03*
Y749488D03*
Y759488D03*
G54D86*
X761024Y549449D03*
X561024Y627402D03*
G54D111*
X1283203Y897475D03*
G54D150*
X1220732Y476357D03*
X353032Y508264D03*
G54D152*
X1122867Y203744D03*
G54D153*
X1226804Y106893D02*
Y109649D01*
X555118Y684646D03*
X559055D03*
X551299D03*
X562874D03*
X568898Y691732D03*
X564961D03*
X572717D03*
X561142D03*
X578740Y684646D03*
X582677D03*
X574921D03*
X586496D03*
X609843Y691732D03*
X605906D03*
X613661D03*
X602087D03*
X619685Y684646D03*
X623622D03*
X615866D03*
X627441D03*
X633465Y691732D03*
X629528D03*
X637283D03*
X625709D03*
X643307Y684646D03*
X647244D03*
X639488D03*
X651063D03*
X657087Y691732D03*
X653150D03*
X660906D03*
X649331D03*
X666929Y684646D03*
X670866D03*
X663110D03*
X674685D03*
X680709Y691732D03*
X676772D03*
X684528D03*
X672953D03*
X690551Y684646D03*
X694488D03*
X686732D03*
X698307D03*
X704331Y691732D03*
X700394D03*
X708150D03*
X696575D03*
X714173Y684646D03*
X718110D03*
X710354D03*
X721929D03*
X738189Y692126D03*
X734252D03*
X742008D03*
X730433D03*
X751575Y685039D03*
X755512D03*
X747756D03*
X759331D03*
X766929Y692520D03*
X762992D03*
X770748D03*
X759173D03*
X774542Y993144D03*
X778479D03*
X770723D03*
X782298D03*
X783858Y983465D03*
X779921D03*
X787677D03*
X776102D03*
X791339Y992913D03*
X795276D03*
X787520D03*
X799094D03*
X800526Y983302D03*
X796589D03*
X804345D03*
X792770D03*
X833597Y993144D03*
X837534D03*
X829778D03*
X841353D03*
X842913Y983465D03*
X838976D03*
X846732D03*
X835157D03*
X850394Y992913D03*
X854331D03*
X846575D03*
X858150D03*
X859581Y983302D03*
X855644D03*
X863400D03*
X851825D03*
X721654Y993307D03*
X725591D03*
X717835D03*
X729409D03*
X730709Y983465D03*
X726772D03*
X734528D03*
X722953D03*
X738189Y993307D03*
X742126D03*
X734370D03*
X745945D03*
X747770Y983695D03*
X743833D03*
X751589D03*
X740014D03*
X887140Y993144D03*
X891077D03*
X883321D03*
X894896D03*
X896063Y983465D03*
X892126D03*
X899882D03*
X888307D03*
X903543Y992913D03*
X907480D03*
X899724D03*
X911299D03*
X912731Y983302D03*
X908794D03*
X916550D03*
X904975D03*
G54D182*
X857677Y686614D03*
X854134D03*
X857677Y507480D03*
X854134D03*
X1054602Y552756D02*
X1054406D01*
X1051059D02*
X1050862D01*
X1005512Y519193D02*
Y518996D01*
Y515650D02*
Y515453D01*
X979921Y633563D02*
Y633760D01*
Y637106D02*
Y637303D01*
X826476Y568504D02*
X826673D01*
X830020D02*
X830217D01*
X1062598Y558760D02*
Y558957D01*
Y562303D02*
Y562500D01*
X1059665Y635433D02*
X1059469D01*
X1056122D02*
X1055925D01*
X1054724Y580413D02*
Y580610D01*
Y583957D02*
Y584154D01*
X1025539Y627559D02*
X1025343D01*
X1021996D02*
X1021799D01*
X987795Y568720D02*
Y568917D01*
Y572264D02*
Y572461D01*
Y519193D02*
Y518996D01*
Y515650D02*
Y515453D01*
X1218799Y959843D02*
X1218602D01*
X1215256D02*
X1215059D01*
X1041043Y552756D02*
X1041240D01*
X1044587D02*
X1044783D01*
X1066535Y631437D02*
Y631634D01*
Y634980D02*
Y635177D01*
X979921Y595563D02*
Y595760D01*
Y599106D02*
Y599303D01*
X566634Y564567D02*
X566831D01*
X570177D02*
X570374D01*
X1023445Y560630D02*
X1023248D01*
X1019902D02*
X1019705D01*
X1058539Y627559D02*
X1058343D01*
X1054996D02*
X1054799D01*
X1009350Y621654D02*
X1009154D01*
X1005807D02*
X1005610D01*
X1011417Y519193D02*
Y518996D01*
Y515650D02*
Y515453D01*
X1048819Y618602D02*
Y618799D01*
Y622146D02*
Y622343D01*
X979921Y577563D02*
Y577760D01*
Y581106D02*
Y581303D01*
X1054724Y618760D02*
Y618957D01*
Y622303D02*
Y622500D01*
X982602Y552756D02*
X982406D01*
X979059D02*
X978862D01*
X1274443Y1003774D02*
X1274246D01*
X1270900D02*
X1270703D01*
X987099Y722625D02*
Y722428D01*
Y719082D02*
Y718885D01*
X1048819Y580413D02*
Y580610D01*
Y583957D02*
Y584154D01*
Y599602D02*
Y599799D01*
Y603146D02*
Y603343D01*
X987795Y623720D02*
Y623917D01*
Y627264D02*
Y627461D01*
X993701Y594476D02*
Y594673D01*
Y598020D02*
Y598217D01*
X1048819Y608602D02*
Y608799D01*
Y612146D02*
Y612343D01*
X1096161Y619685D02*
X1096358D01*
X1099705D02*
X1099902D01*
X993701Y576476D02*
Y576673D01*
Y580020D02*
Y580217D01*
X1037665Y635433D02*
X1037469D01*
X1034122D02*
X1033925D01*
X1036539Y627559D02*
X1036343D01*
X1032996D02*
X1032799D01*
X1030705Y560630D02*
X1030902D01*
X1034248D02*
X1034445D01*
X993701Y585476D02*
Y585673D01*
Y589020D02*
Y589217D01*
X987795Y590059D02*
Y589862D01*
Y586516D02*
Y586319D01*
X1037768Y568504D02*
X1037965D01*
X1041311D02*
X1041508D01*
X1008563Y568496D02*
X1008366D01*
X1005020D02*
X1004823D01*
X1003445Y560630D02*
X1003248D01*
X999902D02*
X999705D01*
X1062598Y618760D02*
Y618957D01*
Y622303D02*
Y622500D01*
Y599760D02*
Y599957D01*
Y603303D02*
Y603500D01*
X1054724Y608760D02*
Y608957D01*
Y612303D02*
Y612500D01*
X1027559Y552756D02*
X1027362D01*
X1024016D02*
X1023819D01*
X987795Y613878D02*
Y614075D01*
Y617421D02*
Y617618D01*
Y604035D02*
Y604232D01*
Y607579D02*
Y607776D01*
X1062598Y589760D02*
Y589957D01*
Y593303D02*
Y593500D01*
X1054724Y568760D02*
Y568957D01*
Y572303D02*
Y572500D01*
X1103642Y338583D02*
X1103839D01*
X1107185D02*
X1107382D01*
X1035602Y552756D02*
X1035406D01*
X1032059D02*
X1031862D01*
X979921Y586563D02*
Y586760D01*
Y590106D02*
Y590303D01*
X1118735Y338813D02*
X1118931D01*
X1122278D02*
X1122475D01*
X1062598Y608760D02*
Y608957D01*
Y612303D02*
Y612500D01*
X1077559Y381398D02*
Y381201D01*
Y377854D02*
Y377657D01*
X1036909Y264567D02*
X1036713D01*
X1033366D02*
X1033169D01*
X1096161Y635433D02*
X1096358D01*
X1099705D02*
X1099902D01*
X1256201Y959843D02*
X1256004D01*
X1252657D02*
X1252461D01*
X1007665Y635433D02*
X1007469D01*
X1004122D02*
X1003925D01*
X1006539Y627559D02*
X1006343D01*
X1002996D02*
X1002799D01*
X1062598Y578760D02*
Y578957D01*
Y582303D02*
Y582500D01*
X948327Y649213D02*
X948130D01*
X944783D02*
X944587D01*
X979921Y604563D02*
Y604760D01*
Y608106D02*
Y608303D01*
Y568563D02*
Y568760D01*
Y572106D02*
Y572303D01*
X1054724Y590256D02*
Y590453D01*
Y593799D02*
Y593996D01*
X1026665Y635433D02*
X1026469D01*
X1023122D02*
X1022925D01*
X993602Y552756D02*
X993406D01*
X990059D02*
X989862D01*
X987795Y594980D02*
Y595177D01*
Y598524D02*
Y598720D01*
Y558720D02*
Y558917D01*
Y562264D02*
Y562461D01*
X1018508Y568504D02*
X1018311D01*
X1014965D02*
X1014768D01*
X994429Y621055D02*
X994626D01*
X997972D02*
X998169D01*
X1017665Y635433D02*
X1017469D01*
X1014122D02*
X1013925D01*
X828445Y615748D02*
X828642D01*
X831988D02*
X832185D01*
X852067D02*
X852264D01*
X855610D02*
X855807D01*
X749705D02*
X749902D01*
X753248D02*
X753445D01*
X1013602Y552756D02*
X1013406D01*
X1010059D02*
X1009862D01*
X998665Y635433D02*
X998469D01*
X995122D02*
X994925D01*
X1054724Y558760D02*
Y558957D01*
Y562303D02*
Y562500D01*
X997539Y627559D02*
X997343D01*
X993996D02*
X993799D01*
X993701Y603476D02*
Y603673D01*
Y607020D02*
Y607217D01*
X948327Y641339D02*
X948130D01*
X944783D02*
X944587D01*
X999508Y568504D02*
X999311D01*
X995965D02*
X995768D01*
X1012445Y560630D02*
X1012248D01*
X1008902D02*
X1008705D01*
X1016539Y627559D02*
X1016343D01*
X1012996D02*
X1012799D01*
X1048819Y568602D02*
Y568799D01*
Y572146D02*
Y572343D01*
X1054724Y598760D02*
Y598957D01*
Y602303D02*
Y602500D01*
X993701Y558760D02*
Y558957D01*
Y562303D02*
Y562500D01*
X1020165Y621788D02*
X1019968D01*
X1016621D02*
X1016424D01*
X1040705Y560630D02*
X1040902D01*
X1044248D02*
X1044445D01*
X1048665Y635433D02*
X1048469D01*
X1045122D02*
X1044925D01*
X987795Y577657D02*
Y577854D01*
Y581201D02*
Y581398D01*
X979921Y558563D02*
Y558760D01*
Y562106D02*
Y562303D01*
X1048819Y590256D02*
Y590453D01*
Y593799D02*
Y593996D01*
X1031398Y622047D02*
X1031201D01*
X1027854D02*
X1027657D01*
X948327Y645276D02*
X948130D01*
X944783D02*
X944587D01*
X1003602Y552756D02*
X1003406D01*
X1000059D02*
X999862D01*
X1029458Y568487D02*
X1029261D01*
X1025915D02*
X1025718D01*
X1040165Y621788D02*
X1039968D01*
X1036621D02*
X1036424D01*
X979921Y623563D02*
Y623760D01*
Y627106D02*
Y627303D01*
X993701Y612476D02*
Y612673D01*
Y616020D02*
Y616217D01*
Y519193D02*
Y518996D01*
Y515650D02*
Y515453D01*
X979921Y613563D02*
Y613760D01*
Y617106D02*
Y617303D01*
X1047539Y627559D02*
X1047343D01*
X1043996D02*
X1043799D01*
X989665Y635433D02*
X989469D01*
X986122D02*
X985925D01*
X1096161Y623622D02*
X1096358D01*
X1099705D02*
X1099902D01*
X1096161Y639370D02*
X1096358D01*
X1099705D02*
X1099902D01*
X999606Y519193D02*
Y518996D01*
Y515650D02*
Y515453D01*
X981890Y519193D02*
Y518996D01*
Y515650D02*
Y515453D01*
X1096161Y631496D02*
X1096358D01*
X1099705D02*
X1099902D01*
X1017323Y519193D02*
Y518996D01*
Y515650D02*
Y515453D01*
X975984Y519193D02*
Y518996D01*
Y515650D02*
Y515453D01*
X1096161Y615748D02*
X1096358D01*
X1099705D02*
X1099902D01*
X603937Y659154D02*
Y659350D01*
Y662697D02*
Y662894D01*
X759758Y1022120D02*
X759955D01*
X763302D02*
X763498D01*
X742908Y1022160D02*
X742711D01*
X739365D02*
X739168D01*
X590453Y631496D02*
X590256D01*
X586909D02*
X586713D01*
X590453Y623622D02*
X590256D01*
X586909D02*
X586713D01*
X643307Y659154D02*
Y659350D01*
Y662697D02*
Y662894D01*
X811935Y1023250D02*
Y1023447D01*
Y1026794D02*
Y1026991D01*
X631496Y659154D02*
Y659350D01*
Y662697D02*
Y662894D01*
X820705Y1022520D02*
X820508D01*
X817161D02*
X816965D01*
X766412Y1022081D02*
X766609D01*
X769955D02*
X770152D01*
X795305Y1022220D02*
X795108D01*
X791761D02*
X791565D01*
X639370Y659154D02*
Y659350D01*
Y662697D02*
Y662894D01*
X647244Y659154D02*
Y659350D01*
Y662697D02*
Y662894D01*
X655118Y659154D02*
Y659350D01*
Y662697D02*
Y662894D01*
X651181Y659154D02*
Y659350D01*
Y662697D02*
Y662894D01*
X590453Y627559D02*
X590256D01*
X586909D02*
X586713D01*
X590453Y635433D02*
X590256D01*
X586909D02*
X586713D01*
X784105Y1022120D02*
X783908D01*
X780561D02*
X780365D01*
X755231Y1022160D02*
X755034D01*
X751687D02*
X751491D01*
X807105Y1022120D02*
X806908D01*
X803561D02*
X803365D01*
X731018Y1022160D02*
X731215D01*
X734561D02*
X734758D01*
X627559Y659154D02*
Y659350D01*
Y662697D02*
Y662894D01*
X619685Y659154D02*
Y659350D01*
Y662697D02*
Y662894D01*
X623622Y659154D02*
Y659350D01*
Y662697D02*
Y662894D01*
X678740Y659154D02*
Y659350D01*
Y662697D02*
Y662894D01*
X923835Y1023050D02*
Y1023247D01*
Y1026594D02*
Y1026791D01*
X932105Y1022220D02*
X931908D01*
X928561D02*
X928365D01*
X907205D02*
X907008D01*
X903661D02*
X903465D01*
X662992Y659154D02*
Y659350D01*
Y662697D02*
Y662894D01*
X702362Y659154D02*
Y659350D01*
Y662697D02*
Y662894D01*
X694488Y659154D02*
Y659350D01*
Y662697D02*
Y662894D01*
X698425Y659154D02*
Y659350D01*
Y662697D02*
Y662894D01*
X731594Y633465D02*
X731791D01*
X735138D02*
X735335D01*
X725984Y659154D02*
Y659350D01*
Y662697D02*
Y662894D01*
X718110Y659154D02*
Y659350D01*
Y662697D02*
Y662894D01*
X714173Y659154D02*
Y659350D01*
Y662697D02*
Y662894D01*
X690551Y659154D02*
Y659350D01*
Y662697D02*
Y662894D01*
X731594Y629528D02*
X731791D01*
X735138D02*
X735335D01*
X919005Y1022220D02*
X918808D01*
X915461D02*
X915265D01*
X895505D02*
X895308D01*
X891961D02*
X891765D01*
X659055Y659252D03*
Y662795D03*
X944528Y729055D03*
X948071D03*
X974528Y759055D03*
X978071D03*
X1062598Y568760D02*
Y568957D01*
Y572303D02*
Y572500D01*
X1054724Y515453D02*
Y515650D01*
Y518996D02*
Y519193D01*
X944429Y719055D02*
X944626D01*
X947972D02*
X948169D01*
X1065602Y552756D02*
X1065406D01*
X1062059D02*
X1061862D01*
X1244847Y462588D02*
X1244651D01*
X1241304D02*
X1241107D01*
X1024467Y995849D03*
Y999392D03*
X1019467Y1006049D03*
Y1009592D03*
X1014467Y995849D03*
Y999392D03*
X1004465Y995859D03*
Y999402D03*
X999467Y1006049D03*
Y1009592D03*
X1239272Y425383D03*
X1242815D03*
X949803Y425197D03*
X953346D03*
X970241Y434131D03*
Y437675D03*
X978155Y434131D03*
Y437675D03*
X953346Y421260D03*
X949803D03*
X749803Y576378D03*
X753346D03*
X333355Y518189D02*
Y518386D01*
Y521733D02*
Y521930D01*
X682677Y659154D02*
Y659350D01*
Y662697D02*
Y662894D01*
X666929Y659154D02*
Y659350D01*
Y662697D02*
Y662894D01*
X802610Y503543D02*
X802413D01*
X799067D02*
X798870D01*
X735925Y546850D02*
X736122D01*
X739469D02*
X739665D01*
X749705Y584252D02*
X749902D01*
X753248D02*
X753445D01*
X854035Y503543D02*
X854232D01*
X857579D02*
X857776D01*
X977183Y373428D02*
X976987D01*
X973640D02*
X973443D01*
X962183D02*
X961987D01*
X958640D02*
X958443D01*
X994183Y431928D02*
X993987D01*
X990640D02*
X990443D01*
X995313Y416557D02*
Y416754D01*
Y420101D02*
Y420298D01*
Y386557D02*
Y386754D01*
Y390101D02*
Y390298D01*
X992183Y373428D02*
X991987D01*
X988640D02*
X988443D01*
X995313Y401557D02*
Y401754D01*
Y405101D02*
Y405298D01*
X946183Y431928D02*
X945987D01*
X942640D02*
X942443D01*
X940313Y416557D02*
Y416754D01*
Y420101D02*
Y420298D01*
Y386557D02*
Y386754D01*
Y390101D02*
Y390298D01*
X1024665Y1009261D02*
Y1009457D01*
Y1012804D02*
Y1013001D01*
X1034265Y1009361D02*
Y1009557D01*
Y1012904D02*
Y1013101D01*
X1059597Y928182D02*
X1059794D01*
X1063141D02*
X1063337D01*
X1059597Y938282D02*
X1059794D01*
X1063141D02*
X1063337D01*
X1022173Y878158D02*
X1021976D01*
X1018629D02*
X1018433D01*
X1039988Y895776D02*
Y895579D01*
Y892233D02*
Y892036D01*
Y905619D02*
Y905422D01*
Y902075D02*
Y901879D01*
Y915461D02*
Y915264D01*
Y911918D02*
Y911721D01*
Y935146D02*
Y934949D01*
Y931603D02*
Y931406D01*
X1000618Y935146D02*
Y934949D01*
Y931603D02*
Y931406D01*
Y915461D02*
Y915264D01*
Y911918D02*
Y911721D01*
Y905619D02*
Y905422D01*
Y902075D02*
Y901879D01*
Y895776D02*
Y895579D01*
Y892233D02*
Y892036D01*
Y872351D02*
Y872548D01*
Y875894D02*
Y876091D01*
X1018433Y870284D02*
X1018629D01*
X1021976D02*
X1022173D01*
X1196183Y413428D02*
X1195987D01*
X1192640D02*
X1192443D01*
X1196183Y403428D02*
X1195987D01*
X1192640D02*
X1192443D01*
X1196183Y519428D02*
X1195987D01*
X1192640D02*
X1192443D01*
X1196183Y543428D02*
X1195987D01*
X1192640D02*
X1192443D01*
X1196183Y535428D02*
X1195987D01*
X1192640D02*
X1192443D01*
X1196183Y433428D02*
X1195987D01*
X1192640D02*
X1192443D01*
X1196183Y423428D02*
X1195987D01*
X1192640D02*
X1192443D01*
X1196183Y527428D02*
X1195987D01*
X1192640D02*
X1192443D01*
X1032167Y921777D02*
Y921974D01*
Y925320D02*
Y925517D01*
X1008167Y921777D02*
Y921974D01*
Y925320D02*
Y925517D01*
X1196183Y511428D02*
X1195987D01*
X1192640D02*
X1192443D01*
X1196183Y503428D02*
X1195987D01*
X1192640D02*
X1192443D01*
X1222539Y746457D02*
X1222736D01*
X1226083D02*
X1226280D01*
X1222539Y739370D02*
X1222736D01*
X1226083D02*
X1226280D01*
X1196183Y393428D02*
X1195987D01*
X1192640D02*
X1192443D01*
X1196183Y495428D02*
X1195987D01*
X1192640D02*
X1192443D01*
X1196183Y487428D02*
X1195987D01*
X1192640D02*
X1192443D01*
X1196026Y257972D02*
Y258169D01*
Y261516D02*
Y261713D01*
X1000618Y921564D02*
Y921760D01*
Y925107D02*
Y925304D01*
X963728Y153186D02*
Y153383D01*
Y156730D02*
Y156927D01*
X951525Y153186D02*
Y153383D01*
Y156730D02*
Y156927D01*
X715668Y153469D02*
Y153665D01*
Y157012D02*
Y157209D01*
X703545Y153469D02*
Y153665D01*
Y157012D02*
Y157209D01*
X611249Y153252D02*
Y153449D01*
Y156795D02*
Y156992D01*
X599005Y153252D02*
Y153449D01*
Y156795D02*
Y156992D01*
X363203Y153247D02*
Y153444D01*
Y156790D02*
Y156987D01*
X350999Y153247D02*
Y153444D01*
Y156790D02*
Y156987D01*
X590059Y556693D02*
X589862D01*
X586516D02*
X586319D01*
X590059Y580315D02*
X589862D01*
X586516D02*
X586319D01*
X590059Y596063D02*
X589862D01*
X586516D02*
X586319D01*
X590059Y588189D02*
X589862D01*
X586516D02*
X586319D01*
X590059Y564567D02*
X589862D01*
X586516D02*
X586319D01*
X356988Y241339D02*
X356791D01*
X353445D02*
X353248D01*
X617815Y568504D02*
X618012D01*
X621358D02*
X621555D01*
X590059Y572441D02*
X589862D01*
X586516D02*
X586319D01*
X590059Y549213D02*
X589862D01*
X586516D02*
X586319D01*
X590059Y607874D02*
X589862D01*
X586516D02*
X586319D01*
X854035Y682677D02*
X854232D01*
X857579D02*
X857776D01*
X731988Y613780D02*
X732185D01*
X735531D02*
X735728D01*
X731988Y617717D02*
X732185D01*
X735531D02*
X735728D01*
X802657Y682283D02*
X802461D01*
X799114D02*
X798917D01*
X1034267Y995849D03*
Y999392D03*
X141863Y367620D03*
X145406D03*
X1009467Y1006049D03*
Y1009592D03*
X225335Y191549D03*
Y195092D03*
X148206Y353420D03*
X144663D03*
X333308Y561066D03*
X329765D03*
X333308Y555995D03*
X329765D03*
X363780Y747441D03*
Y743898D03*
X355906Y745472D03*
Y741929D03*
X739961Y552756D03*
X743504D03*
X739950Y537008D03*
X743493D03*
X684646Y493898D03*
Y497441D03*
X749803Y568504D03*
X753346D03*
X1029465Y1005859D03*
Y1009402D03*
X974528Y719055D03*
X978071D03*
X852067Y568504D02*
X852264D01*
X855610D02*
X855807D01*
X570374Y572441D02*
X570177D01*
X566831D02*
X566634D01*
X570374Y556693D02*
X570177D01*
X566831D02*
X566634D01*
X570374Y540945D02*
X570177D01*
X566831D02*
X566634D01*
X570374Y517323D02*
X570177D01*
X566831D02*
X566634D01*
X645374Y568504D02*
X645571D01*
X648917D02*
X649114D01*
X596063Y659154D02*
Y659350D01*
Y662697D02*
Y662894D01*
X741831Y560630D02*
X742028D01*
X745374D02*
X745571D01*
X357088Y235939D02*
X356891D01*
X353545D02*
X353348D01*
X607874Y659154D02*
Y659350D01*
Y662697D02*
Y662894D01*
X749705Y521260D02*
X749902D01*
X753248D02*
X753445D01*
X749705Y529134D02*
X749902D01*
X753248D02*
X753445D01*
X566634Y509449D02*
X566831D01*
X570177D02*
X570374D01*
X383563Y568504D02*
X383760D01*
X387106D02*
X387303D01*
Y513386D02*
X387106D01*
X383760D02*
X383563D01*
X566634Y596063D02*
X566831D01*
X570177D02*
X570374D01*
X387303Y489764D02*
X387106D01*
X383760D02*
X383563D01*
X387303Y464370D02*
X387106D01*
X383760D02*
X383563D01*
X749705Y592126D02*
X749902D01*
X753248D02*
X753445D01*
X649114Y607874D02*
X648917D01*
X645571D02*
X645374D01*
X656988D02*
X656791D01*
X653445D02*
X653248D01*
X672736D02*
X672539D01*
X669193D02*
X668996D01*
X680610D02*
X680413D01*
X677067D02*
X676870D01*
X749705Y600000D02*
X749902D01*
X753248D02*
X753445D01*
X664862Y607874D02*
X664665D01*
X661319D02*
X661122D01*
X649114Y576378D02*
X648917D01*
X645571D02*
X645374D01*
X672736Y592126D02*
X672539D01*
X669193D02*
X668996D01*
X641240Y584252D02*
X641043D01*
X637697D02*
X637500D01*
X556594Y603937D02*
X556398D01*
X553051D02*
X552854D01*
X680610Y584252D02*
X680413D01*
X677067D02*
X676870D01*
X664862Y600000D02*
X664665D01*
X661319D02*
X661122D01*
X649114Y584252D02*
X648917D01*
X645571D02*
X645374D01*
X656988Y600000D02*
X656791D01*
X653445D02*
X653248D01*
X556594Y580315D02*
X556398D01*
X553051D02*
X552854D01*
X649114Y592126D02*
X648917D01*
X645571D02*
X645374D01*
X680610D02*
X680413D01*
X677067D02*
X676870D01*
X641240Y576378D02*
X641043D01*
X637697D02*
X637500D01*
X672736Y600000D02*
X672539D01*
X669193D02*
X668996D01*
X586319Y603937D02*
X586516D01*
X589862D02*
X590059D01*
X672736Y576378D02*
X672539D01*
X669193D02*
X668996D01*
X594094Y481988D02*
Y482185D01*
Y485531D02*
Y485728D01*
X649213Y481988D02*
Y482185D01*
Y485531D02*
Y485728D01*
X688484Y607874D02*
X688287D01*
X684941D02*
X684744D01*
X680610Y576378D02*
X680413D01*
X677067D02*
X676870D01*
X566634Y533071D02*
X566831D01*
X570177D02*
X570374D01*
X611811Y659154D02*
Y659350D01*
Y662697D02*
Y662894D01*
X239035Y190892D03*
Y187349D03*
X148106Y559120D03*
X144563D03*
X139863Y573820D03*
X143406D03*
X253543Y782972D02*
Y782776D01*
Y779429D02*
Y779232D01*
X566634Y588189D02*
X566831D01*
X570177D02*
X570374D01*
X474016Y593996D02*
Y593799D01*
Y590453D02*
Y590256D01*
Y635335D02*
Y635138D01*
Y631791D02*
Y631594D01*
X208169Y802756D02*
X207972D01*
X204626D02*
X204429D01*
X229921Y782972D02*
Y782776D01*
Y779429D02*
Y779232D01*
X277165Y782972D02*
Y782776D01*
Y779429D02*
Y779232D01*
X205863Y379420D03*
X209406D03*
X657185Y592126D02*
X657382D01*
X660728D02*
X660925D01*
X218110Y779232D02*
Y779429D01*
Y782776D02*
Y782972D01*
X241732Y779232D02*
Y779429D01*
Y782776D02*
Y782972D01*
X265354Y779232D02*
Y779429D01*
Y782776D02*
Y782972D01*
X288976Y779232D02*
Y779429D01*
Y782776D02*
Y782972D01*
X338663Y973020D03*
X342206D03*
X208906Y365920D03*
X205363D03*
X947183Y373428D02*
X946987D01*
X943640D02*
X943443D01*
X731594Y625591D02*
X731791D01*
X735138D02*
X735335D01*
X855105Y1022120D02*
X854908D01*
X851561D02*
X851365D01*
X387303Y537008D02*
X387106D01*
X383760D02*
X383563D01*
X710236Y659154D02*
Y659350D01*
Y662697D02*
Y662894D01*
X879205Y1022220D02*
X879008D01*
X875661D02*
X875465D01*
X843105Y1022120D02*
X842908D01*
X839561D02*
X839365D01*
X871135Y1023450D02*
Y1023647D01*
Y1026994D02*
Y1027191D01*
X866105Y1022120D02*
X865908D01*
X862561D02*
X862365D01*
X1196183Y559428D02*
X1195987D01*
X1192640D02*
X1192443D01*
X1196183Y551428D02*
X1195987D01*
X1192640D02*
X1192443D01*
X1010276Y930699D02*
X1010080D01*
X1006733D02*
X1006536D01*
X1034982Y930599D02*
X1034785D01*
X1031439D02*
X1031242D01*
X1000618Y882193D02*
Y882390D01*
Y885737D02*
Y885934D01*
X1039988Y921564D02*
Y921760D01*
Y925107D02*
Y925304D01*
Y882193D02*
Y882390D01*
Y885737D02*
Y885934D01*
X1033984Y870284D02*
X1033787D01*
X1030441D02*
X1030244D01*
X1010362D02*
X1010165D01*
X1006818D02*
X1006622D01*
X1189370Y270177D02*
Y270374D01*
Y273720D02*
Y273917D01*
X1014465Y1009261D02*
Y1009457D01*
Y1012804D02*
Y1013001D01*
X1196183Y479428D02*
X1195987D01*
X1192640D02*
X1192443D01*
X1196183Y471428D02*
X1195987D01*
X1192640D02*
X1192443D01*
X1196183Y463428D02*
X1195987D01*
X1192640D02*
X1192443D01*
X1196183Y453428D02*
X1195987D01*
X1192640D02*
X1192443D01*
X1196183Y443428D02*
X1195987D01*
X1192640D02*
X1192443D01*
X1004565Y1009261D02*
Y1009457D01*
Y1012804D02*
Y1013001D01*
X387303Y419094D02*
X387106D01*
X383760D02*
X383563D01*
X566634Y603937D02*
X566831D01*
X570177D02*
X570374D01*
X566634Y525197D02*
X566831D01*
X570177D02*
X570374D01*
X387303Y434843D02*
X387106D01*
X383760D02*
X383563D01*
X566634Y580315D02*
X566831D01*
X570177D02*
X570374D01*
X387303Y501575D02*
X387106D01*
X383760D02*
X383563D01*
X387303Y475984D02*
X387106D01*
X383760D02*
X383563D01*
X387303Y525197D02*
X387106D01*
X383760D02*
X383563D01*
X387303Y450591D02*
X387106D01*
X383760D02*
X383563D01*
X387303Y548819D02*
X387106D01*
X383760D02*
X383563D01*
X387303Y558661D02*
X387106D01*
X383760D02*
X383563D01*
X566634Y548819D02*
X566831D01*
X570177D02*
X570374D01*
X749705Y607874D02*
X749902D01*
X753248D02*
X753445D01*
X731988Y637402D02*
X732185D01*
X735531D02*
X735728D01*
X1039988Y876091D02*
Y875894D01*
Y872548D02*
Y872351D01*
X1079266Y1018439D02*
Y1018636D01*
Y1021983D02*
Y1022180D01*
X1084384Y1018439D02*
Y1018636D01*
Y1021983D02*
Y1022180D01*
X940313Y401557D02*
Y401754D01*
Y405101D02*
Y405298D01*
X656988Y576378D02*
X656791D01*
X653445D02*
X653248D01*
X641240Y592126D02*
X641043D01*
X637697D02*
X637500D01*
X649114Y600000D02*
X648917D01*
X645571D02*
X645374D01*
X799041Y507480D03*
X802584D03*
X799016Y686614D03*
X802559D03*
X749673Y513386D02*
X749870D01*
X753217D02*
X753413D01*
X556594Y556693D02*
X556398D01*
X553051D02*
X552854D01*
X664862Y576378D02*
X664665D01*
X661319D02*
X661122D01*
X656988Y568504D02*
X656791D01*
X653445D02*
X653248D01*
X664862D02*
X664665D01*
X661319D02*
X661122D01*
X672736D02*
X672539D01*
X669193D02*
X668996D01*
X696457Y485728D02*
Y485531D01*
Y482185D02*
Y481988D01*
X656988Y584252D02*
X656791D01*
X653445D02*
X653248D01*
X664862D02*
X664665D01*
X661319D02*
X661122D01*
X672736D02*
X672539D01*
X669193D02*
X668996D01*
X609843Y481988D02*
Y482185D01*
Y485531D02*
Y485728D01*
X735827Y481988D02*
Y482185D01*
Y485531D02*
Y485728D01*
X672835Y481988D02*
Y482185D01*
Y485531D02*
Y485728D01*
X641339Y481988D02*
Y482185D01*
Y485531D02*
Y485728D01*
X578346Y481988D02*
Y482185D01*
Y485531D02*
Y485728D01*
X670866Y659252D03*
Y662795D03*
X674803Y659252D03*
Y662795D03*
X905715Y423674D03*
Y420131D03*
X909985D03*
Y423674D03*
X422967Y163124D02*
Y162928D01*
Y159581D02*
Y159384D01*
X522967Y162731D02*
Y162534D01*
Y159187D02*
Y158991D01*
X755250Y162731D02*
Y162534D01*
Y159187D02*
Y158991D01*
X856038Y162731D02*
Y162534D01*
Y159187D02*
Y158991D01*
X441865Y159778D02*
Y159975D01*
Y163321D02*
Y163518D01*
X543439Y158991D02*
Y159187D01*
Y162534D02*
Y162731D01*
X774935Y158991D02*
Y159187D01*
Y162534D02*
Y162731D01*
X875723Y158991D02*
Y159187D01*
Y162534D02*
Y162731D01*
X894620Y158991D02*
Y159187D01*
Y162534D02*
Y162731D01*
X795408Y158991D02*
Y159187D01*
Y162534D02*
Y162731D01*
X563912Y158991D02*
Y159187D01*
Y162534D02*
Y162731D01*
X463124Y158991D02*
Y159187D01*
Y162534D02*
Y162731D01*
X916668Y158991D02*
Y159187D01*
Y162534D02*
Y162731D01*
X815880Y158991D02*
Y159187D01*
Y162534D02*
Y162731D01*
X583597Y158991D02*
Y159187D01*
Y162534D02*
Y162731D01*
X482809Y158991D02*
Y159187D01*
Y162534D02*
Y162731D01*
X403282Y159384D02*
Y159581D01*
Y162928D02*
Y163124D01*
X503282Y158991D02*
Y159187D01*
Y162534D02*
Y162731D01*
X734778Y158991D02*
Y159187D01*
Y162534D02*
Y162731D01*
X835565Y158203D02*
Y158400D01*
Y161746D02*
Y161943D01*
X1242093Y671358D02*
Y671161D01*
Y667815D02*
Y667618D01*
X1242570Y328272D02*
Y328075D01*
Y324728D02*
Y324531D01*
G54D184*
X1034464Y987731D03*
X1029464Y997731D03*
X1024464Y987731D03*
X1019464Y997731D03*
X1014464Y987731D03*
X1009464Y997731D03*
X1004464Y987731D03*
X999464Y997731D03*
X994464Y987731D03*
X989464Y997731D03*
X1038064Y1038731D03*
X1028064D03*
X995864D03*
X985864D03*
G54D185*
X598524Y676772D02*
X598327D01*
X598524Y670472D02*
X598327D01*
X604823Y676772D02*
X604626D01*
X604823Y670472D02*
X604626D01*
X629823D02*
X630020D01*
X629823Y676772D02*
X630020D01*
X611122D02*
X610925D01*
X611122Y670472D02*
X610925D01*
X623720Y676772D02*
X623524D01*
X623720Y670472D02*
X623524D01*
X617421Y676772D02*
X617224D01*
X617421Y670472D02*
X617224D01*
X574508Y648819D02*
X574311D01*
X574508Y642520D02*
X574311D01*
X636122Y670472D02*
X636319D01*
X636122Y676772D02*
X636319D01*
X648917D02*
X648720D01*
X648917Y670472D02*
X648720D01*
X661516Y676772D02*
X661319D01*
X661516Y670472D02*
X661319D01*
X642618Y676772D02*
X642421D01*
X642618Y670472D02*
X642421D01*
X655020D02*
X655217D01*
X655020Y676772D02*
X655217D01*
X680413D02*
X680217D01*
X680413Y670472D02*
X680217D01*
X674114Y676772D02*
X673917D01*
X674114Y670472D02*
X673917D01*
X583858Y615846D02*
Y615650D01*
X590157Y615846D02*
Y615650D01*
X686713Y676772D02*
X686516D01*
X686713Y670472D02*
X686516D01*
X667618D02*
X667815D01*
X667618Y676772D02*
X667815D01*
X699311D02*
X699114D01*
X699311Y670472D02*
X699114D01*
X711909Y676772D02*
X711713D01*
X711909Y670472D02*
X711713D01*
X705610Y676772D02*
X705413D01*
X705610Y670472D02*
X705413D01*
X724311D02*
X724508D01*
X724311Y676772D02*
X724508D01*
X580807Y649213D02*
X580610D01*
X580807Y642913D02*
X580610D01*
X730807Y676772D02*
X730610D01*
X730807Y670472D02*
X730610D01*
X737106Y676772D02*
X736909D01*
X737106Y670472D02*
X736909D01*
X718209Y676772D02*
X718012D01*
X718209Y670472D02*
X718012D01*
X692815D02*
X693012D01*
X692815Y676772D02*
X693012D01*
X744488Y641043D02*
Y640846D01*
X750787Y641043D02*
Y640846D01*
Y628248D02*
Y628445D01*
X744488Y628248D02*
Y628445D01*
X750787Y621949D02*
Y622146D01*
X744488Y621949D02*
Y622146D01*
X750787Y634547D02*
Y634744D01*
X744488Y634547D02*
Y634744D01*
X589665Y642913D02*
X589862D01*
X589665Y649213D02*
X589862D01*
X592028Y670472D02*
X592224D01*
X592028Y676772D02*
X592224D01*
X585925D02*
X585728D01*
X585925Y670472D02*
X585728D01*
G54D187*
X820984Y545669D02*
Y546457D01*
X819016Y545669D02*
Y546457D01*
X817047Y545669D02*
Y546457D01*
X815079Y545669D02*
Y546457D01*
Y549606D02*
Y550394D01*
X817047Y549606D02*
Y550394D01*
X819016Y549606D02*
Y550394D01*
X820984Y549606D02*
Y550394D01*
X831378Y468504D02*
Y467717D01*
X833346Y468504D02*
Y467717D01*
X835315Y468504D02*
Y467717D01*
X837283Y468504D02*
Y467717D01*
Y464567D02*
Y463780D01*
X835315Y464567D02*
Y463780D01*
X833346Y464567D02*
Y463780D01*
X831378Y464567D02*
Y463780D01*
X834370Y545669D02*
Y546457D01*
X832402Y545669D02*
Y546457D01*
X830433Y545669D02*
Y546457D01*
X828465Y545669D02*
Y546457D01*
Y549606D02*
Y550394D01*
X830433Y549606D02*
Y550394D01*
X832402Y549606D02*
Y550394D01*
X834370Y549606D02*
Y550394D01*
X820354Y468504D02*
Y467717D01*
X822323Y468504D02*
Y467717D01*
X824291Y468504D02*
Y467717D01*
X826260Y468504D02*
Y467717D01*
Y464567D02*
Y463780D01*
X824291Y464567D02*
Y463780D01*
X822323Y464567D02*
Y463780D01*
X820354Y464567D02*
Y463780D01*
X809724Y468504D02*
Y467717D01*
X811693Y468504D02*
Y467717D01*
X813661Y468504D02*
Y467717D01*
X815630Y468504D02*
Y467717D01*
Y464567D02*
Y463780D01*
X813661Y464567D02*
Y463780D01*
X811693Y464567D02*
Y463780D01*
X809724Y464567D02*
Y463780D01*
X865354Y521535D02*
X866142D01*
X865354Y523504D02*
X866142D01*
X865354Y525472D02*
X866142D01*
X865354Y527441D02*
X866142D01*
X869291D02*
X870079D01*
X869291Y525472D02*
X870079D01*
X869291Y523504D02*
X870079D01*
X869291Y521535D02*
X870079D01*
X866142Y680591D02*
X866929D01*
X866142Y682559D02*
X866929D01*
X866142Y684528D02*
X866929D01*
X866142Y686496D02*
X866929D01*
X870079D02*
X870866D01*
X870079Y684528D02*
X870866D01*
X870079Y682559D02*
X870866D01*
X870079Y680591D02*
X870866D01*
X866142Y671535D02*
X866929D01*
X866142Y673504D02*
X866929D01*
X866142Y675472D02*
X866929D01*
X866142Y677441D02*
X866929D01*
X870079D02*
X870866D01*
X870079Y675472D02*
X870866D01*
X870079Y673504D02*
X870866D01*
X870079Y671535D02*
X870866D01*
X821772Y725197D02*
Y725984D01*
X819803Y725197D02*
Y725984D01*
X817835Y725197D02*
Y725984D01*
X815866Y725197D02*
Y725984D01*
Y729134D02*
Y729921D01*
X817835Y729134D02*
Y729921D01*
X819803Y729134D02*
Y729921D01*
X821772Y729134D02*
Y729921D01*
X814449Y645669D02*
Y644882D01*
X816417Y645669D02*
Y644882D01*
X818386Y645669D02*
Y644882D01*
X820354Y645669D02*
Y644882D01*
Y641732D02*
Y640945D01*
X818386Y641732D02*
Y640945D01*
X816417Y641732D02*
Y640945D01*
X814449Y641732D02*
Y640945D01*
X826654Y645669D02*
Y644882D01*
X828622Y645669D02*
Y644882D01*
X830591Y645669D02*
Y644882D01*
X832559Y645669D02*
Y644882D01*
Y641732D02*
Y640945D01*
X830591Y641732D02*
Y640945D01*
X828622Y641732D02*
Y640945D01*
X826654Y641732D02*
Y640945D01*
X803031Y646063D02*
Y645276D01*
X805000Y646063D02*
Y645276D01*
X806969Y646063D02*
Y645276D01*
X808937Y646063D02*
Y645276D01*
Y642126D02*
Y641339D01*
X806969Y642126D02*
Y641339D01*
X805000Y642126D02*
Y641339D01*
X803031Y642126D02*
Y641339D01*
X838858Y645669D02*
Y644882D01*
X840827Y645669D02*
Y644882D01*
X842795Y645669D02*
Y644882D01*
X844764Y645669D02*
Y644882D01*
Y641732D02*
Y640945D01*
X842795Y641732D02*
Y640945D01*
X840827Y641732D02*
Y640945D01*
X838858Y641732D02*
Y640945D01*
X865748Y662087D02*
X866535D01*
X865748Y664055D02*
X866535D01*
X865748Y666024D02*
X866535D01*
X865748Y667992D02*
X866535D01*
X869685D02*
X870472D01*
X869685Y666024D02*
X870472D01*
X869685Y664055D02*
X870472D01*
X869685Y662087D02*
X870472D01*
X866142Y690433D02*
X866929D01*
X866142Y692402D02*
X866929D01*
X866142Y694370D02*
X866929D01*
X866142Y696339D02*
X866929D01*
X870079D02*
X870866D01*
X870079Y694370D02*
X870866D01*
X870079Y692402D02*
X870866D01*
X870079Y690433D02*
X870866D01*
X848150Y545669D02*
Y546457D01*
X846181Y545669D02*
Y546457D01*
X844213Y545669D02*
Y546457D01*
X842244Y545669D02*
Y546457D01*
Y549606D02*
Y550394D01*
X844213Y549606D02*
Y550394D01*
X846181Y549606D02*
Y550394D01*
X848150Y549606D02*
Y550394D01*
X850118Y725197D02*
Y725984D01*
X848150Y725197D02*
Y725984D01*
X846181Y725197D02*
Y725984D01*
X844213Y725197D02*
Y725984D01*
Y729134D02*
Y729921D01*
X846181Y729134D02*
Y729921D01*
X848150Y729134D02*
Y729921D01*
X850118Y729134D02*
Y729921D01*
X834764Y725197D02*
Y725984D01*
X832795Y725197D02*
Y725984D01*
X830827Y725197D02*
Y725984D01*
X828858Y725197D02*
Y725984D01*
Y729134D02*
Y729921D01*
X830827Y729134D02*
Y729921D01*
X832795Y729134D02*
Y729921D01*
X834764Y729134D02*
Y729921D01*
X866142Y701850D02*
X866929D01*
X866142Y703819D02*
X866929D01*
X866142Y705787D02*
X866929D01*
X866142Y707756D02*
X866929D01*
X870079D02*
X870866D01*
X870079Y705787D02*
X870866D01*
X870079Y703819D02*
X870866D01*
X870079Y701850D02*
X870866D01*
X865354Y511693D02*
X866142D01*
X865354Y513661D02*
X866142D01*
X865354Y515630D02*
X866142D01*
X865354Y517598D02*
X866142D01*
X869291D02*
X870079D01*
X869291Y515630D02*
X870079D01*
X869291Y513661D02*
X870079D01*
X869291Y511693D02*
X870079D01*
X865354Y501850D02*
X866142D01*
X865354Y503819D02*
X866142D01*
X865354Y505787D02*
X866142D01*
X865354Y507756D02*
X866142D01*
X869291D02*
X870079D01*
X869291Y505787D02*
X870079D01*
X869291Y503819D02*
X870079D01*
X869291Y501850D02*
X870079D01*
X865354Y482953D02*
X866142D01*
X865354Y484921D02*
X866142D01*
X865354Y486890D02*
X866142D01*
X865354Y488858D02*
X866142D01*
X869291D02*
X870079D01*
X869291Y486890D02*
X870079D01*
X869291Y484921D02*
X870079D01*
X869291Y482953D02*
X870079D01*
X865354Y492008D02*
X866142D01*
X865354Y493976D02*
X866142D01*
X865354Y495945D02*
X866142D01*
X865354Y497913D02*
X866142D01*
X869291D02*
X870079D01*
X869291Y495945D02*
X870079D01*
X869291Y493976D02*
X870079D01*
X869291Y492008D02*
X870079D01*
X842402Y468504D02*
Y467717D01*
X844370Y468504D02*
Y467717D01*
X846339Y468504D02*
Y467717D01*
X848307Y468504D02*
Y467717D01*
Y464567D02*
Y463780D01*
X846339Y464567D02*
Y463780D01*
X844370Y464567D02*
Y463780D01*
X842402Y464567D02*
Y463780D01*
G54D188*
X214173Y105118D03*
X218504D03*
X236220Y112205D03*
X292520Y109055D03*
X294882D03*
X297244D03*
X643307Y153150D03*
X941804Y153207D03*
X997638Y137402D03*
X372835Y165748D03*
X403282Y166372D03*
X441865Y166766D03*
X463124Y165979D03*
X482971D03*
X503282D03*
X543439D03*
X564190Y165701D03*
X583875D03*
X622441Y173622D03*
X734778Y165979D03*
X774935Y155743D03*
Y165979D03*
X795408D03*
Y155743D03*
X815880Y165979D03*
Y155743D03*
X835565Y154955D03*
Y165191D03*
X875723Y155743D03*
Y165979D03*
X894739D03*
Y155743D03*
X913518Y162435D03*
X916668Y155743D03*
X1023228Y155118D03*
X372835Y179528D03*
X465165Y182165D03*
X466835Y183835D03*
X706693Y184252D03*
X962445Y176618D03*
X1243833Y188026D03*
X218898Y213780D03*
X213039Y213718D03*
X345662Y199606D03*
X706299Y196457D03*
X1033299Y202055D03*
X1037299D03*
X245669Y231496D03*
X591375Y229624D03*
X588711Y229612D03*
X597281Y229624D03*
X594617Y229612D03*
X603186Y229624D03*
X600522Y229612D03*
X612334D03*
X614997Y229624D03*
X620903D03*
X618239Y229612D03*
X606428D03*
X609092Y229624D03*
X624145Y229612D03*
X632714Y229624D03*
X630050Y229612D03*
X635956D03*
X638619Y229624D03*
X644525D03*
X641861Y229612D03*
X626808Y229624D03*
X685168Y229612D03*
X681926Y229624D03*
X679263Y229612D03*
X670115Y229624D03*
X667452Y229612D03*
X676021Y229624D03*
X673357Y229612D03*
X687832Y229624D03*
X705549D03*
X702885Y229612D03*
X696979D03*
X699643Y229624D03*
X693737D03*
X691074Y229612D03*
X723228Y229528D03*
X720472D03*
X711454Y229624D03*
X708790Y229612D03*
X714696D03*
X717360Y229624D03*
X1026031Y222130D03*
X1027701Y223800D03*
X1160762Y215979D03*
X1175723Y215191D03*
X1182022Y216766D03*
X1209636Y234646D03*
X1216922D03*
X235039Y235827D03*
X236614Y252756D03*
X353446Y238497D03*
X588583Y254331D03*
X591339D03*
X600394D03*
X603150D03*
X606299D03*
X597244D03*
X594488D03*
X618110D03*
X620866D03*
X624016D03*
X609055D03*
X641732D03*
X644488D03*
X629921D03*
X632677D03*
X626772D03*
X667323D03*
X670079D03*
X685039D03*
X675984D03*
X673228D03*
X693701D03*
X690945D03*
X687795D03*
X702756D03*
X705512D03*
X723228Y253150D03*
X720472D03*
X708661Y254331D03*
X711417D03*
X233071Y271260D03*
X244882Y266142D03*
X679134Y259449D03*
X681890D03*
X696850D03*
X699606D03*
X714567D03*
X717323D03*
X924409Y271260D03*
X944882D03*
X935039D03*
X955118D03*
X980315Y271654D03*
X970472D03*
X1000787D03*
X990551D03*
X1049132Y263731D03*
X1193307Y270079D03*
X1198680Y258093D03*
X1193307Y273622D03*
X1252888Y267554D03*
X1201000Y275728D03*
X206299Y310236D03*
X875132Y305231D03*
X887795Y307087D03*
X275197Y320472D03*
X473319Y324500D03*
X475681D03*
X860630Y317716D03*
X875984Y319685D03*
X887795Y317716D03*
X1037008Y318110D03*
X1046063D03*
X1026378D03*
X1100000Y321654D03*
X1131496Y321260D03*
X1259187Y333695D03*
X1089896Y338026D03*
X1100000Y338583D03*
X1111024D03*
X1261943Y337239D03*
X1266668Y336451D03*
X1269030Y339994D03*
X1272967Y345900D03*
X847537Y368508D03*
X847467Y371868D03*
X922441Y369291D03*
X909055Y374409D03*
X999606Y364173D03*
X1001575Y355118D03*
X997638D03*
X1057087Y366535D03*
X1072047Y374409D03*
X1088583Y366142D03*
X1122047Y362991D03*
X1127953Y362598D03*
X1261550Y356924D03*
X1285172Y369522D03*
X1267849Y357711D03*
X1274148D03*
X131102Y375197D03*
X198819Y387795D03*
X276594Y388500D03*
X279899Y384721D03*
X378000Y382228D03*
X906299Y375984D03*
X922441Y379134D03*
Y383071D03*
Y388976D03*
X920472Y390945D03*
X922441Y392913D03*
X916929Y379528D03*
X931632Y381231D03*
Y377231D03*
X1060632Y385231D03*
X1080981Y381384D03*
X1071909Y394586D03*
X1081496Y377953D03*
X1088189Y393700D03*
X1269424Y380546D03*
X1274935D03*
X1288321Y384876D03*
X1287928Y375821D03*
X140945Y401969D03*
X199213Y400787D03*
X392500Y402000D03*
X404000Y413000D03*
X432677Y411024D03*
X897638Y409055D03*
X920866Y402756D03*
X920472Y394882D03*
X920866Y398819D03*
X922441Y396850D03*
Y410630D03*
Y406693D03*
X1015748Y410630D03*
X1060630Y395276D03*
X1074542Y401412D03*
X1081890Y404330D03*
X278416Y434021D03*
X387402Y415748D03*
X387008Y431102D03*
X432677Y434646D03*
X448425D03*
X562598Y430709D03*
X609843D03*
X658280Y427127D03*
X672835Y423622D03*
X688583Y430709D03*
X720079D03*
X712632Y415231D03*
X751575Y430709D03*
X761632Y419731D03*
X783071Y430709D03*
X810630Y433071D03*
X816142D03*
X901181Y426378D03*
X903661Y430138D03*
X896299Y430453D03*
X897638Y424803D03*
X920211Y434089D03*
Y428183D03*
X906693Y414961D03*
X914173Y420079D03*
X931628Y430152D03*
X933854Y420485D03*
X933465Y424409D03*
X974198Y434131D03*
X1015748Y424409D03*
X1015744Y420485D03*
X1007084Y422453D03*
X1015880Y434089D03*
X1006693Y426378D03*
X1263780Y431299D03*
X302755Y446720D03*
Y452626D03*
X320865Y435500D03*
X330707Y439437D03*
X387402Y447244D03*
X538976Y446457D03*
X586220D03*
X633858Y446063D03*
X657087Y446457D03*
X813064Y451520D03*
X823411D03*
X815459Y442705D03*
X834240Y451520D03*
X845369D03*
X903543Y440945D03*
X896063Y441339D03*
X936746Y448262D03*
X940683D03*
X938715Y439207D03*
X944620Y448262D03*
X942652Y439207D03*
X964306D03*
X946589D03*
X954463Y448262D03*
X966274D03*
X958400D03*
X956431Y439207D03*
X950526Y448262D03*
X960369Y439207D03*
X976117Y450624D03*
X975329Y437632D03*
X982022Y448262D03*
X972180Y450624D03*
X980054D03*
X968243D03*
X970211Y448262D03*
X974148D03*
X967323Y437795D03*
X983991Y439207D03*
X978085Y448262D03*
X985959D03*
X991865D03*
X987928Y439207D03*
X997770Y448262D03*
X1263780Y437205D03*
Y441141D03*
Y447047D03*
Y451771D03*
X302755Y463256D03*
Y457350D03*
Y470342D03*
X387008Y460236D03*
Y472441D03*
X432283Y458268D03*
X445500Y473000D03*
X448425Y458268D03*
X561335Y461835D03*
X559665Y460165D03*
X767323Y470079D03*
X802657Y468449D03*
X809632Y470731D03*
X856017Y468453D03*
X866003Y468449D03*
X981890Y466535D03*
X1019291Y472440D03*
Y462992D03*
X1045132Y455231D03*
X1263780Y457677D03*
X1278085Y462435D03*
X1287534Y462829D03*
X302755Y483335D03*
Y489241D03*
Y476248D03*
X326770Y494555D03*
X387008Y485827D03*
X432677D03*
X448425D03*
X582283Y481890D03*
Y485827D03*
X590157D03*
X605906D03*
X598031Y481890D03*
Y485827D03*
X605906Y481890D03*
X590157D03*
X592000Y493500D03*
X621654Y485827D03*
X613780Y481890D03*
Y485827D03*
X621654Y481890D03*
X637402Y485827D03*
X629528Y481890D03*
X645276D03*
X629528Y485827D03*
X645276D03*
X637402Y481890D03*
X661024D03*
X653150D03*
X661024Y485827D03*
X653150D03*
X684646D03*
X668898Y481890D03*
X676772D03*
X684646Y491339D03*
X676772Y485827D03*
X684646Y481890D03*
X668898Y485827D03*
X700394D03*
X692520Y481890D03*
X700394D03*
X692520Y485827D03*
X716142D03*
X724016Y481890D03*
X708268D03*
X724016Y485827D03*
X716142Y481890D03*
X708268Y485827D03*
X731890D03*
X739764Y481890D03*
Y485827D03*
X731890Y481890D03*
X767323Y485827D03*
X783071D03*
X798476Y485813D03*
X787345D03*
X802657Y479584D03*
X856137D03*
X865883D03*
X883125Y485674D03*
X893307Y480709D03*
X960236Y479921D03*
X972047D03*
X1263780Y487204D03*
Y493110D03*
X255904Y506366D03*
Y498492D03*
X326770Y504398D03*
X387402Y497638D03*
X387008Y509843D03*
X432677Y509449D03*
X448425D03*
X556693Y505512D03*
Y513386D03*
X552756D03*
Y505512D03*
X566535D03*
X570472Y513386D03*
X684646Y513780D03*
X672835Y507874D03*
X680709Y513386D03*
Y511024D03*
X676772Y509449D03*
X684646Y500000D03*
X749777Y509449D03*
X753336D03*
X767323Y501575D03*
X783071D03*
X800132Y500731D03*
X805142Y507480D03*
X883122Y495598D03*
X883125Y505445D03*
X901181Y511417D03*
X903543Y509449D03*
X1053150Y496948D03*
X1263780Y499015D03*
Y504921D03*
Y509645D03*
X255133Y531518D03*
X249999Y520146D03*
X279526Y518177D03*
X283070D03*
X302755Y521918D03*
Y516012D03*
X387402Y533071D03*
X387008Y521654D03*
X527500Y530000D03*
X556693Y529134D03*
Y521260D03*
X552756Y529134D03*
Y521260D03*
X566535D03*
X601969Y533071D03*
X594094D03*
X605906D03*
X617717Y521260D03*
X672835Y516929D03*
X684646Y517323D03*
X676772Y515354D03*
X743551Y533071D03*
X749802Y517323D03*
Y525197D03*
X753309Y517323D03*
X753361Y525197D03*
X883122Y515293D03*
Y525102D03*
X913386Y525591D03*
X1263780Y515551D03*
Y526968D03*
Y532874D03*
X269684Y535894D03*
Y541799D03*
X302755Y554594D03*
Y541603D03*
Y535697D03*
X320883Y551666D03*
X387008Y544488D03*
X432677Y537008D03*
X448425D03*
X537500Y549500D03*
X556693Y552756D03*
Y537008D03*
Y544882D03*
X559000Y546000D03*
X552756Y537008D03*
Y552756D03*
Y544882D03*
X566535D03*
X570472Y537008D03*
Y552756D03*
X579000Y551000D03*
X598031Y548819D03*
X594094Y537008D03*
X601969D03*
X598031Y540945D03*
X605906Y537008D03*
X598031D03*
X601969Y548819D03*
X598031Y544882D03*
X601969Y552756D03*
X594094Y540945D03*
X605906D03*
Y552756D03*
X601969Y544882D03*
X613780Y552756D03*
X621654Y537008D03*
X625591Y552756D03*
X613780Y548819D03*
X617717D03*
Y540945D03*
X609843Y552756D03*
X737392Y537008D03*
X778938Y552756D03*
X775337D03*
X802597Y535378D03*
X797132Y538731D03*
X803006Y546513D03*
X834384Y543538D03*
X855845Y546513D03*
X883371Y537799D03*
X883250Y548935D03*
X923632Y541731D03*
X914568Y546850D03*
Y550787D03*
Y542913D03*
Y535039D03*
X913386Y538976D03*
X302755Y560500D03*
X383465Y564567D03*
X387402Y554724D03*
X432677Y562598D03*
X462030Y561174D03*
X448425Y562598D03*
X499213Y557480D03*
X556500Y568728D03*
X552756Y560630D03*
X550500Y574500D03*
X552756Y568504D03*
X570472D03*
X601969Y572441D03*
Y568504D03*
X598031D03*
X605906Y572441D03*
X598031Y564567D03*
X601969Y556693D03*
X598031D03*
X613780Y568504D03*
X609843D03*
X613780Y560630D03*
X617717Y564567D03*
X609843Y560630D03*
Y564567D03*
X617717Y560630D03*
X613780Y572441D03*
X609843D03*
X625591Y556693D03*
X742520D03*
X746000Y570228D03*
X753333Y572441D03*
X747132Y563231D03*
X747244Y568110D03*
X775447Y562614D03*
X777000Y574000D03*
X778938Y562598D03*
Y572441D03*
X797632Y560731D03*
X811686Y560251D03*
X823350Y563181D03*
X845385Y563048D03*
X831552D03*
X830118Y572441D03*
X852165D03*
X855709D03*
X923228Y562992D03*
Y558661D03*
X914568D03*
Y554724D03*
X930709Y566535D03*
X1118000Y560500D03*
X1149000Y564000D03*
X1148500Y568500D03*
X1149000Y561500D03*
X1278872Y556924D03*
X1292258Y556530D03*
X334710Y593527D03*
X432677Y586220D03*
X455000Y587000D03*
X477953Y594094D03*
X476500Y588000D03*
X483000D03*
X497244Y588976D03*
X495464Y590890D03*
X531000Y593000D03*
X529000Y588000D03*
X537796Y588189D03*
X546456D03*
X556693Y592126D03*
Y576573D03*
Y584252D03*
X559500Y584000D03*
X561500Y591000D03*
X563862D03*
X552756Y592126D03*
Y584252D03*
Y576378D03*
X566535D03*
Y592126D03*
Y584252D03*
X583500Y584000D03*
X598031Y580315D03*
X605906D03*
Y576378D03*
X601969D03*
X597753Y576656D03*
X609843Y592126D03*
X613780Y580315D03*
X609843D03*
Y584252D03*
X613780Y576378D03*
Y592126D03*
X700394Y584252D03*
Y588189D03*
X688583D03*
Y592126D03*
X743307Y582677D03*
Y587402D03*
X738583Y582677D03*
X747245Y576378D03*
X761180Y582795D03*
X758661Y580315D03*
X747638Y589764D03*
X749808Y588189D03*
X753374D03*
X753313Y580315D03*
X863000Y587728D03*
X861632Y582231D03*
X903937Y592520D03*
X894488D03*
X905906Y578346D03*
X916141Y576770D03*
X913780Y583071D03*
Y587795D03*
Y592520D03*
X300215Y605067D03*
X301858Y600206D03*
X334808Y605326D03*
X334223Y597038D03*
X334779Y608865D03*
X432677Y609843D03*
X463386Y598425D03*
X481890Y601969D03*
X510500Y608728D03*
X508000Y604228D03*
X513500Y608000D03*
X537796Y596063D03*
X532500Y604000D03*
X546456Y596063D03*
X556693Y600000D03*
X565665Y610265D03*
X559500Y600000D03*
X552756D03*
X586220D03*
X566535D03*
X567335Y611935D03*
X579500Y604148D03*
X573000Y610000D03*
X583862Y601866D03*
X576352Y600000D03*
X579500Y596000D03*
Y601000D03*
X582283Y596063D03*
X598031Y604452D03*
X602484Y611811D03*
X594094Y611419D03*
X605906Y603937D03*
X601969Y603422D03*
X592500Y601500D03*
X605390Y600000D03*
X598000Y611809D03*
X613780Y596063D03*
X609843Y611811D03*
X613780Y600515D03*
Y611811D03*
X610000Y600000D03*
X609843Y603937D03*
Y607874D03*
X617717Y603937D03*
X613780Y607874D03*
X746063Y606299D03*
X739764Y613780D03*
X750000Y596064D03*
X749809Y603937D03*
X749785Y611811D03*
X753292D03*
X753369Y603937D03*
X774804Y613780D03*
X783500Y613728D03*
X781102Y602559D03*
X777357Y601969D03*
X780914Y609843D03*
X801632Y609231D03*
X795000Y602000D03*
X804500Y606500D03*
X790000Y605500D03*
X803632Y599731D03*
X828550Y611811D03*
X832087D03*
X852362Y612205D03*
X855709Y611811D03*
X881496Y611417D03*
X905118Y611418D03*
X893307Y611417D03*
X887402D03*
X925984Y611024D03*
X923622Y597638D03*
X918898Y611417D03*
X913780Y597244D03*
Y603937D03*
X1251119Y601969D03*
X1253110Y598031D03*
X177953Y627559D03*
X174542Y632120D03*
X432677Y633465D03*
X448425D03*
X494299Y627374D03*
Y629736D03*
X503500Y622500D03*
X537008Y627559D03*
X532500Y623500D03*
X547243Y619685D03*
Y627559D03*
X578346Y618504D03*
X583071Y623622D03*
Y627559D03*
Y631496D03*
X566758Y621258D03*
X605906Y615748D03*
Y619685D03*
X601969Y615748D03*
X621654Y627559D03*
X617717D03*
X609843Y631496D03*
X617717D03*
X613780D03*
X609843Y623622D03*
X617717D03*
X613780D03*
X609843Y627559D03*
X621654Y619685D03*
X613780D03*
Y615748D03*
X625591Y623622D03*
X617717Y619685D03*
X609500Y615746D03*
X621654Y615748D03*
X641339Y631496D03*
X629000Y627500D03*
X637402Y623622D03*
X633465D03*
X637402Y627559D03*
X633980Y615748D03*
X645276Y623622D03*
X637402Y615748D03*
X641339Y627559D03*
X644885D03*
X637402Y619685D03*
X645276D03*
X633500Y619687D03*
X641339Y619685D03*
X629528Y615748D03*
X637500Y631496D03*
X629528D03*
X633500Y631000D03*
X649213Y631496D03*
X648820Y627559D03*
X657087Y623622D03*
Y627559D03*
X653150Y619685D03*
X664961Y627559D03*
X653150Y615748D03*
X649213D03*
X661024Y623622D03*
X653150Y631496D03*
X657087Y615748D03*
Y631496D03*
Y619685D03*
X739764Y617717D03*
X738583Y629528D03*
Y625591D03*
Y633465D03*
X755118Y622047D03*
X760630Y634646D03*
X757874Y628346D03*
X774804Y621654D03*
X780914Y617717D03*
X788632Y614731D03*
X806589Y627898D03*
X817297Y628292D03*
X829449D03*
X841841D03*
X881496Y620078D03*
X905118D03*
X893307D03*
X887402D03*
X925197Y623622D03*
Y628346D03*
Y633465D03*
X925984Y619684D03*
X918898Y620078D03*
X1068500Y625000D03*
X1096457Y628740D03*
X1103150Y619685D03*
Y615748D03*
Y623622D03*
X1124409Y631496D03*
X1123622Y623622D03*
X1140157D03*
X1134646Y631496D03*
X1247638Y629528D03*
X462992Y639370D03*
X479921Y643307D03*
X477953Y635449D03*
X537008Y643307D03*
X547243Y635433D03*
Y643307D03*
X583071Y635433D03*
X589764Y653937D03*
X625591Y639370D03*
X609843Y635433D03*
X613780D03*
X625591D03*
X629528D03*
X633465Y643307D03*
Y639370D03*
X641339D03*
X637402D03*
X645276D03*
X637402Y643307D03*
X633465Y635433D03*
X641500D03*
X645276D03*
X649213D03*
X653150D03*
X741229Y635828D03*
X738583Y637402D03*
X755118Y640945D03*
X803132Y648231D03*
X808937Y650231D03*
X806969Y648262D03*
X865638Y647583D03*
X855829D03*
X909843Y647638D03*
X1076378Y637402D03*
X1068504Y649213D03*
X1080315Y637402D03*
X1083994Y641596D03*
Y637659D03*
X1102756Y635433D03*
X1088447Y641081D03*
X1124016Y639370D03*
X1140157D03*
X543701Y670866D03*
Y666929D03*
Y662992D03*
Y655118D03*
Y659055D03*
X577559Y661417D03*
X603937Y665748D03*
X607874D03*
X623622D03*
X619685D03*
X611811Y666142D03*
X643307Y665748D03*
X639370D03*
X631496D03*
X627559D03*
X662992D03*
X655118D03*
X651181D03*
X647244D03*
X674803Y655906D03*
X670866D03*
Y665748D03*
X666929D03*
X674803D03*
X682677D03*
X678740D03*
X690551D03*
X694488D03*
X698425D03*
X702362D03*
X710236D03*
X714173D03*
X718110D03*
X724016Y655118D03*
X736632Y658231D03*
X738625Y662336D03*
X784632Y663231D03*
X863518Y665979D03*
X865791Y658718D03*
X855752D03*
X877740Y655906D03*
X884303Y664659D03*
Y674277D03*
X909843Y656299D03*
X1068504Y657087D03*
X1103000Y674000D03*
X477953Y694488D03*
X543701Y678740D03*
Y682677D03*
Y674803D03*
X598425Y683858D03*
X589370Y680315D03*
X591732Y685827D03*
X724409Y683465D03*
X739370D03*
X805807Y685520D03*
X795669Y682283D03*
Y686614D03*
X854134Y680119D03*
X861417Y684646D03*
X884303Y693431D03*
X884307Y683928D03*
X913386Y687796D03*
X925197D03*
X919291D03*
X937008D03*
X931102D03*
X942913Y687795D03*
X954724Y687796D03*
X948819D03*
X1001575Y685039D03*
X1012204Y684646D03*
X1020472Y685039D03*
X1030708D03*
X503000Y700228D03*
X543701Y714173D03*
Y710236D03*
Y706299D03*
X623622Y696850D03*
X612992Y702362D03*
X637008D03*
X649213Y700394D03*
X672047Y702362D03*
X683858Y700394D03*
X698031Y702362D03*
X712598Y695669D03*
X707087Y700394D03*
X727953Y702362D03*
X789320Y708163D03*
X800445Y708285D03*
X856007Y714512D03*
X884307Y704619D03*
X925197Y696456D03*
X919291D03*
X913386D03*
X942913Y714173D03*
Y696456D03*
X931102D03*
X937008Y696457D03*
X962132Y704231D03*
X954724Y696456D03*
X948819D03*
X543701Y729921D03*
Y733858D03*
Y725984D03*
Y722047D03*
Y718110D03*
X605500Y721728D03*
X800448Y719610D03*
X795669Y734069D03*
X789320Y719787D03*
X806706Y724355D03*
X855969Y725647D03*
X881057Y725948D03*
X892194Y725821D03*
X1004331Y734646D03*
X363780Y753543D03*
X355906Y751575D03*
X411024Y748031D03*
X448819Y748819D03*
X450787Y753543D03*
X477953Y748031D03*
X552756Y737795D03*
Y753543D03*
X574409Y737795D03*
Y753543D03*
X590157Y737795D03*
Y753543D03*
X674803Y737795D03*
Y753543D03*
X698425Y737795D03*
Y753543D03*
X727953Y737795D03*
Y753543D03*
X759449Y737795D03*
Y753543D03*
X785039Y737795D03*
Y753543D03*
X818577Y743363D03*
X806657Y735489D03*
X832212Y743363D03*
X857087Y737988D03*
X847309Y743363D03*
X901969Y751969D03*
X1003543Y742126D03*
X993299Y750385D03*
X237795Y773228D03*
X233858Y769291D03*
X241732D03*
X229921Y773228D03*
X245669Y765354D03*
X316535Y773818D03*
X452756Y758268D03*
X446850Y756299D03*
X539500Y768228D03*
X559500D03*
X900394Y755118D03*
X155118Y788976D03*
X222047Y776378D03*
X338189Y792913D03*
X360630Y785433D03*
X902753Y783352D03*
X910630Y781299D03*
X112598Y810630D03*
X115354Y808661D03*
X120866Y806693D03*
X127559Y814567D03*
X156299Y812598D03*
X153150Y794882D03*
X161811Y806693D03*
X340157Y814567D03*
X342126Y806693D03*
X346063Y804724D03*
X351969Y802756D03*
X518500Y801728D03*
X920866Y794882D03*
X907087Y796850D03*
X964567Y806693D03*
X950787Y814567D03*
X103937Y816142D03*
X164961Y822441D03*
X176772Y816535D03*
X174016Y819291D03*
X166929Y816535D03*
X170866D03*
X336220Y824409D03*
X338189Y818504D03*
X340157Y820472D03*
X497638Y824803D03*
X499213Y829134D03*
X496063Y827953D03*
X501181Y825591D03*
X864567Y815748D03*
X944882Y820079D03*
X948425Y825984D03*
X964961Y830315D03*
X995669D03*
X105512Y853937D03*
X105906Y842126D03*
X176772Y840157D03*
X202362D03*
X334252Y853937D03*
X950787Y846063D03*
X967717D03*
X996063Y838189D03*
X1003255Y838190D03*
X1022047D03*
X1017323D03*
X1009161D03*
X1026772D03*
X1031102D03*
X339017Y872665D03*
X377713Y864558D03*
X373653Y873902D03*
X401313Y871298D03*
X476343Y860628D03*
X893500Y857228D03*
X894882Y867323D03*
X905118Y868110D03*
X924016Y867717D03*
X914567D03*
X222047Y893102D03*
X212205Y889559D03*
Y893102D03*
X222047Y889559D03*
X233858D03*
X245669D03*
Y893102D03*
X233858D03*
X257480D03*
Y889559D03*
X277165Y892913D03*
X269291Y889559D03*
X277165Y889370D03*
X269291Y893102D03*
X288387Y887795D03*
X331932Y876406D03*
X550197Y881497D03*
X601378D03*
X652559D03*
X991339Y876378D03*
X1095669Y886614D03*
X247638Y900394D03*
X257480Y900787D03*
X288387Y894882D03*
X498663Y909972D03*
X541132Y910231D03*
X539961Y900394D03*
X547638Y909054D03*
X592132Y910231D03*
X591142Y900394D03*
X598819Y909054D03*
X641132Y910231D03*
X642324Y900394D03*
X650001Y909055D03*
X928479Y906136D03*
Y911648D03*
X1059082Y907686D03*
X1076129Y905755D03*
X146850Y934194D03*
X225197Y918898D03*
X284172Y931775D03*
X287322D03*
X296228Y932790D03*
X292039Y931541D03*
X324172Y931775D03*
X327322D03*
X332034Y931098D03*
X425984Y931496D03*
X424000Y928228D03*
X427559Y929134D03*
X429500Y931728D03*
X433858Y931496D03*
X468172Y931775D03*
X466535Y929134D03*
X471322Y931775D03*
X469747Y929413D03*
X512946Y925218D03*
X521803D03*
X544453Y916723D03*
X595836Y916929D03*
X644564Y916748D03*
X146850Y954206D03*
Y944188D03*
X179528Y944488D03*
X197638Y952756D03*
X201181D03*
X224803Y942126D03*
X221260Y944488D03*
X229921Y941732D03*
X277000Y951728D03*
X282598Y940238D03*
X285747D03*
X292126Y953543D03*
X325747Y940238D03*
X322598D03*
X331890Y953543D03*
X337402Y947244D03*
X337833Y942537D03*
X444488Y950787D03*
X483799Y945055D03*
X480315Y950787D03*
X929660Y952593D03*
X928872Y944719D03*
X980315Y935433D03*
X146850Y964173D03*
X260630Y974016D03*
X301575Y954724D03*
X402756Y974016D03*
X406693Y970866D03*
X433858Y954724D03*
X475984Y963780D03*
X1278085Y972672D03*
X1286746Y962435D03*
X122835Y981102D03*
X205512Y989370D03*
X207480Y987008D03*
X1013500Y993000D03*
X1051313Y979758D03*
X150000Y996850D03*
X1017000Y1001500D03*
X1270998Y1007317D03*
X1016165Y1020835D03*
X1017835Y1019165D03*
X242126Y1046063D03*
X239764Y1043701D03*
X244488Y1048425D03*
X246850Y1041339D03*
X249213Y1051575D03*
X251181Y1046063D03*
G54D191*
X577998Y245043D03*
X735991D03*
G54D196*
X858858Y537303D02*
Y539075D01*
X856890Y537303D02*
Y539075D01*
X854921Y537303D02*
Y539075D01*
X852953Y537303D02*
Y539075D01*
Y542815D02*
Y544587D01*
X854921Y542815D02*
Y544587D01*
X856890Y542815D02*
Y544587D01*
X858858Y542815D02*
Y544587D01*
X873917Y522244D02*
X875689D01*
X873917Y524213D02*
X875689D01*
X873917Y526181D02*
X875689D01*
X873917Y528150D02*
X875689D01*
X879429D02*
X881201D01*
X879429Y526181D02*
X881201D01*
X879429Y524213D02*
X881201D01*
X879429Y522244D02*
X881201D01*
X873917Y512402D02*
X875689D01*
X873917Y514370D02*
X875689D01*
X873917Y516339D02*
X875689D01*
X873917Y518307D02*
X875689D01*
X879429D02*
X881201D01*
X879429Y516339D02*
X881201D01*
X879429Y514370D02*
X881201D01*
X879429Y512402D02*
X881201D01*
X873917Y502559D02*
X875689D01*
X873917Y504528D02*
X875689D01*
X873917Y506496D02*
X875689D01*
X873917Y508465D02*
X875689D01*
X879429D02*
X881201D01*
X879429Y506496D02*
X881201D01*
X879429Y504528D02*
X881201D01*
X879429Y502559D02*
X881201D01*
X821063Y553839D02*
Y555610D01*
X819094Y553839D02*
Y555610D01*
X817126Y553839D02*
Y555610D01*
X815157Y553839D02*
Y555610D01*
Y559350D02*
Y561122D01*
X817126Y559350D02*
Y561122D01*
X819094Y559350D02*
Y561122D01*
X821063Y559350D02*
Y561122D01*
X873917Y492717D02*
X875689D01*
X873917Y494685D02*
X875689D01*
X873917Y496654D02*
X875689D01*
X873917Y498622D02*
X875689D01*
X879429D02*
X881201D01*
X879429Y496654D02*
X881201D01*
X879429Y494685D02*
X881201D01*
X879429Y492717D02*
X881201D01*
X873917Y482874D02*
X875689D01*
X873917Y484843D02*
X875689D01*
X873917Y486811D02*
X875689D01*
X873917Y488780D02*
X875689D01*
X879429D02*
X881201D01*
X879429Y486811D02*
X881201D01*
X879429Y484843D02*
X881201D01*
X879429Y482874D02*
X881201D01*
X842323Y460728D02*
Y458957D01*
X844291Y460728D02*
Y458957D01*
X846260Y460728D02*
Y458957D01*
X848228Y460728D02*
Y458957D01*
Y455217D02*
Y453445D01*
X846260Y455217D02*
Y453445D01*
X844291Y455217D02*
Y453445D01*
X842323Y455217D02*
Y453445D01*
X831299Y460728D02*
Y458957D01*
X833268Y460728D02*
Y458957D01*
X835236Y460728D02*
Y458957D01*
X837205Y460728D02*
Y458957D01*
Y455217D02*
Y453445D01*
X835236Y455217D02*
Y453445D01*
X833268Y455217D02*
Y453445D01*
X831299Y455217D02*
Y453445D01*
X820669Y460728D02*
Y458957D01*
X822638Y460728D02*
Y458957D01*
X824606Y460728D02*
Y458957D01*
X826575Y460728D02*
Y458957D01*
Y455217D02*
Y453445D01*
X824606Y455217D02*
Y453445D01*
X822638Y455217D02*
Y453445D01*
X820669Y455217D02*
Y453445D01*
X810039Y460728D02*
Y458957D01*
X812008Y460728D02*
Y458957D01*
X813976Y460728D02*
Y458957D01*
X815945Y460728D02*
Y458957D01*
Y455217D02*
Y453445D01*
X813976Y455217D02*
Y453445D01*
X812008Y455217D02*
Y453445D01*
X810039Y455217D02*
Y453445D01*
X805709Y537303D02*
Y539075D01*
X803740Y537303D02*
Y539075D01*
X801772Y537303D02*
Y539075D01*
X799803Y537303D02*
Y539075D01*
Y542815D02*
Y544587D01*
X801772Y542815D02*
Y544587D01*
X803740Y542815D02*
Y544587D01*
X805709Y542815D02*
Y544587D01*
X858858Y470374D02*
Y472146D01*
X856890Y470374D02*
Y472146D01*
X854921Y470374D02*
Y472146D01*
X852953Y470374D02*
Y472146D01*
Y475886D02*
Y477657D01*
X854921Y475886D02*
Y477657D01*
X856890Y475886D02*
Y477657D01*
X858858Y475886D02*
Y477657D01*
X868701Y649508D02*
Y651280D01*
X866732Y649508D02*
Y651280D01*
X864764Y649508D02*
Y651280D01*
X862795Y649508D02*
Y651280D01*
Y655020D02*
Y656791D01*
X864764Y655020D02*
Y656791D01*
X866732Y655020D02*
Y656791D01*
X868701Y655020D02*
Y656791D01*
X798524Y722638D02*
X796752D01*
X798524Y720669D02*
X796752D01*
X798524Y718701D02*
X796752D01*
X798524Y716732D02*
X796752D01*
X793012D02*
X791240D01*
X793012Y718701D02*
X791240D01*
X793012Y720669D02*
X791240D01*
X793012Y722638D02*
X791240D01*
X805709Y470374D02*
Y472146D01*
X803740Y470374D02*
Y472146D01*
X801772Y470374D02*
Y472146D01*
X799803Y470374D02*
Y472146D01*
Y475886D02*
Y477657D01*
X801772Y475886D02*
Y477657D01*
X803740Y475886D02*
Y477657D01*
X805709Y475886D02*
Y477657D01*
X858858Y716437D02*
Y718209D01*
X856890Y716437D02*
Y718209D01*
X854921Y716437D02*
Y718209D01*
X852953Y716437D02*
Y718209D01*
Y721949D02*
Y723720D01*
X854921Y721949D02*
Y723720D01*
X856890Y721949D02*
Y723720D01*
X858858Y721949D02*
Y723720D01*
X809646Y726280D02*
Y728051D01*
X807677Y726280D02*
Y728051D01*
X805709Y726280D02*
Y728051D01*
X803740Y726280D02*
Y728051D01*
Y731791D02*
Y733563D01*
X805709Y731791D02*
Y733563D01*
X807677Y731791D02*
Y733563D01*
X809646Y731791D02*
Y733563D01*
X791240Y705315D02*
X793012D01*
X791240Y707283D02*
X793012D01*
X791240Y709252D02*
X793012D01*
X791240Y711220D02*
X793012D01*
X796752D02*
X798524D01*
X796752Y709252D02*
X798524D01*
X796752Y707283D02*
X798524D01*
X796752Y705315D02*
X798524D01*
X882984Y722931D02*
X884756D01*
X882984Y724900D02*
X884756D01*
X882984Y726869D02*
X884756D01*
X882984Y728837D02*
X884756D01*
X888496D02*
X890267D01*
X888496Y726869D02*
X890267D01*
X888496Y724900D02*
X890267D01*
X888496Y722931D02*
X890267D01*
X858858Y649508D02*
Y651280D01*
X856890Y649508D02*
Y651280D01*
X854921Y649508D02*
Y651280D01*
X852953Y649508D02*
Y651280D01*
Y655020D02*
Y656791D01*
X854921Y655020D02*
Y656791D01*
X856890Y655020D02*
Y656791D01*
X858858Y655020D02*
Y656791D01*
X875098Y680906D02*
X876870D01*
X875098Y682874D02*
X876870D01*
X875098Y684843D02*
X876870D01*
X875098Y686811D02*
X876870D01*
X880610D02*
X882382D01*
X880610Y684843D02*
X882382D01*
X880610Y682874D02*
X882382D01*
X880610Y680906D02*
X882382D01*
X821457Y734154D02*
Y735925D01*
X819488Y734154D02*
Y735925D01*
X817520Y734154D02*
Y735925D01*
X815551Y734154D02*
Y735925D01*
Y739665D02*
Y741437D01*
X817520Y739665D02*
Y741437D01*
X819488Y739665D02*
Y741437D01*
X821457Y739665D02*
Y741437D01*
X875098Y671457D02*
X876870D01*
X875098Y673425D02*
X876870D01*
X875098Y675394D02*
X876870D01*
X875098Y677362D02*
X876870D01*
X880610D02*
X882382D01*
X880610Y675394D02*
X882382D01*
X880610Y673425D02*
X882382D01*
X880610Y671457D02*
X882382D01*
X875098Y661614D02*
X876870D01*
X875098Y663583D02*
X876870D01*
X875098Y665551D02*
X876870D01*
X875098Y667520D02*
X876870D01*
X880610D02*
X882382D01*
X880610Y665551D02*
X882382D01*
X880610Y663583D02*
X882382D01*
X880610Y661614D02*
X882382D01*
X814370Y637500D02*
Y635728D01*
X816339Y637500D02*
Y635728D01*
X818307Y637500D02*
Y635728D01*
X820276Y637500D02*
Y635728D01*
Y631988D02*
Y630217D01*
X818307Y631988D02*
Y630217D01*
X816339Y631988D02*
Y630217D01*
X814370Y631988D02*
Y630217D01*
X886264Y539725D02*
Y541497D01*
X884295Y539725D02*
Y541497D01*
X882327Y539725D02*
Y541497D01*
X880358Y539725D02*
Y541497D01*
Y545237D02*
Y547009D01*
X882327Y545237D02*
Y547009D01*
X884295Y545237D02*
Y547009D01*
X886264Y545237D02*
Y547009D01*
X826575Y637500D02*
Y635728D01*
X828543Y637500D02*
Y635728D01*
X830512Y637500D02*
Y635728D01*
X832480Y637500D02*
Y635728D01*
Y631988D02*
Y630217D01*
X830512Y631988D02*
Y630217D01*
X828543Y631988D02*
Y630217D01*
X826575Y631988D02*
Y630217D01*
X838780Y637500D02*
Y635728D01*
X840748Y637500D02*
Y635728D01*
X842717Y637500D02*
Y635728D01*
X844685Y637500D02*
Y635728D01*
Y631988D02*
Y630217D01*
X842717Y631988D02*
Y630217D01*
X840748Y631988D02*
Y630217D01*
X838780Y631988D02*
Y630217D01*
X803740Y637106D02*
Y635335D01*
X805709Y637106D02*
Y635335D01*
X807677Y637106D02*
Y635335D01*
X809646Y637106D02*
Y635335D01*
Y631594D02*
Y629823D01*
X807677Y631594D02*
Y629823D01*
X805709Y631594D02*
Y629823D01*
X803740Y631594D02*
Y629823D01*
X835236Y734154D02*
Y735925D01*
X833268Y734154D02*
Y735925D01*
X831299Y734154D02*
Y735925D01*
X829331Y734154D02*
Y735925D01*
Y739665D02*
Y741437D01*
X831299Y739665D02*
Y741437D01*
X833268Y739665D02*
Y741437D01*
X835236Y739665D02*
Y741437D01*
X850197Y734154D02*
Y735925D01*
X848228Y734154D02*
Y735925D01*
X846260Y734154D02*
Y735925D01*
X844291Y734154D02*
Y735925D01*
Y739665D02*
Y741437D01*
X846260Y739665D02*
Y741437D01*
X848228Y739665D02*
Y741437D01*
X850197Y739665D02*
Y741437D01*
X875098Y701772D02*
X876870D01*
X875098Y703740D02*
X876870D01*
X875098Y705709D02*
X876870D01*
X875098Y707677D02*
X876870D01*
X880610D02*
X882382D01*
X880610Y705709D02*
X882382D01*
X880610Y703740D02*
X882382D01*
X880610Y701772D02*
X882382D01*
X875098Y690354D02*
X876870D01*
X875098Y692323D02*
X876870D01*
X875098Y694291D02*
X876870D01*
X875098Y696260D02*
X876870D01*
X880610D02*
X882382D01*
X880610Y694291D02*
X882382D01*
X880610Y692323D02*
X882382D01*
X880610Y690354D02*
X882382D01*
X868701Y470374D02*
Y472146D01*
X866732Y470374D02*
Y472146D01*
X864764Y470374D02*
Y472146D01*
X862795Y470374D02*
Y472146D01*
Y475886D02*
Y477657D01*
X864764Y475886D02*
Y477657D01*
X866732Y475886D02*
Y477657D01*
X868701Y475886D02*
Y477657D01*
X796555Y488780D02*
X794783D01*
X796555Y486811D02*
X794783D01*
X796555Y484843D02*
X794783D01*
X796555Y482874D02*
X794783D01*
X791043D02*
X789272D01*
X791043Y484843D02*
X789272D01*
X791043Y486811D02*
X789272D01*
X791043Y488780D02*
X789272D01*
X834449Y553839D02*
Y555610D01*
X832480Y553839D02*
Y555610D01*
X830512Y553839D02*
Y555610D01*
X828543Y553839D02*
Y555610D01*
Y559350D02*
Y561122D01*
X830512Y559350D02*
Y561122D01*
X832480Y559350D02*
Y561122D01*
X834449Y559350D02*
Y561122D01*
X848622Y553839D02*
Y555610D01*
X846654Y553839D02*
Y555610D01*
X844685Y553839D02*
Y555610D01*
X842717Y553839D02*
Y555610D01*
Y559350D02*
Y561122D01*
X844685Y559350D02*
Y561122D01*
X846654Y559350D02*
Y561122D01*
X848622Y559350D02*
Y561122D01*
G54D199*
X1123793Y987192D03*
X1128793Y997192D03*
X1133793Y987192D03*
X1138793Y997192D03*
X1143793Y987192D03*
X1148793Y997192D03*
X1153793Y987192D03*
X1158793Y997192D03*
X1260526Y1017081D03*
X1249620D03*
X1238715D03*
X1227809D03*
X1216904D03*
X1255093Y1028262D03*
X1244187D03*
X1233282D03*
X1222376D03*
G54D204*
X1132416Y964502D02*
Y969817D01*
X1121392Y964502D02*
Y969817D01*
G54D212*
X1033299Y132055D03*
X1080299D03*
X378035Y919420D03*
X377735Y953920D03*
G54D214*
X165132Y1020231D03*
X655132D03*
X165132Y410231D03*
X1275132D03*
X655132Y125231D03*
X1275132D03*
X165132D03*
X655132Y410231D03*
X1275132Y930231D03*
G54D218*
X236388Y710089D03*
Y720089D03*
Y730089D03*
Y740089D03*
X268888Y710089D03*
Y720089D03*
Y730089D03*
Y740089D03*
X302388Y710089D03*
Y720089D03*
Y730089D03*
Y740089D03*
X1109699Y975341D03*
X1172888D03*
X1281628Y164798D03*
Y235664D03*
Y262042D03*
Y332908D03*
G54D223*
X1043299Y142055D03*
X1023299D03*
Y122055D03*
X1043299D03*
X1090299Y142055D03*
X1070299D03*
Y122055D03*
X1090299D03*
X388035Y929420D03*
X368035D03*
Y909420D03*
X388035D03*
X387735Y963920D03*
X367735D03*
Y943920D03*
X387735D03*
G54D227*
X1089896Y1010073D03*
X1080054D03*
X1072180D03*
X1062337D03*
G54D228*
X1050250Y1020743D03*
X1101983D03*
G54D232*
X1283203Y887475D03*
X1273203Y897475D03*
Y887475D03*
X1263203Y897475D03*
Y887475D03*
X1253203Y897475D03*
Y887475D03*
X1243203Y897475D03*
Y887475D03*
G54D233*
X1258991Y675821D03*
G54D234*
Y692357D03*
Y708892D03*
Y725428D03*
Y741963D03*
Y758498D03*
Y775034D03*
Y791569D03*
Y808105D03*
Y824640D03*
Y841176D03*
Y857711D03*
X1280644Y675821D03*
Y692357D03*
Y708892D03*
Y725428D03*
Y741963D03*
Y758498D03*
Y775034D03*
Y791569D03*
Y808105D03*
Y824640D03*
Y841176D03*
Y857711D03*
G54D235*
X1278833Y657317D03*
G54D236*
X1287928Y1022672D03*
X1189542D03*
G54D240*
X754916Y1007475D02*
X756294D01*
X754916Y1014561D02*
X756294D01*
X808946Y1007477D02*
X810324D01*
X808946Y1014564D02*
X810324D01*
X866546Y1007577D02*
X867924D01*
X866546Y1014664D02*
X867924D01*
X921246Y1007677D02*
X922624D01*
X921246Y1014764D02*
X922624D01*
G54D241*
X1216972Y734388D03*
X1209472Y730294D03*
X1216972Y726514D03*
X1209472Y722420D03*
X1216972Y718640D03*
X1209472Y714546D03*
X1216972Y710766D03*
X1209472Y706672D03*
X1216972Y702892D03*
X1209472Y698798D03*
X1216972Y695018D03*
X1209472Y690924D03*
X1216972Y687144D03*
X1209472Y683050D03*
X1216972Y679270D03*
X1209472Y675176D03*
X1216972Y671396D03*
X1209472Y667302D03*
X1216972Y663522D03*
X1209472Y659428D03*
X1216972Y655648D03*
X1209472Y651554D03*
X1216972Y647774D03*
X1209472Y643680D03*
X1216972Y639900D03*
X1209472Y635806D03*
X1216972Y632026D03*
X1209472Y627931D03*
X1216972Y624152D03*
X1209472Y620057D03*
X1216972Y616278D03*
X1209472Y612183D03*
X1216972Y608404D03*
X1209472Y604309D03*
X1216972Y600530D03*
X1209472Y596435D03*
X1216972Y592656D03*
X1209472Y588561D03*
X1216972Y584782D03*
X1209472Y580687D03*
X1216972Y576908D03*
X1209472Y572813D03*
X1216972Y569034D03*
X1209472Y564939D03*
X1216972Y561160D03*
X1209472Y557065D03*
X1216972Y553286D03*
X1209472Y549191D03*
X1216972Y545412D03*
X1209472Y541317D03*
X1216972Y537538D03*
X1209472Y533443D03*
X1216972Y529664D03*
X1209472Y525569D03*
X1216972Y521790D03*
X1209472Y517695D03*
X1216972Y513916D03*
X1209472Y509821D03*
X1216972Y506042D03*
X1209472Y501947D03*
X1216972Y498168D03*
X1209472Y494073D03*
X1216972Y490294D03*
X1209472Y486199D03*
X1216972Y466514D03*
X1209472Y462577D03*
X1216972Y458640D03*
X1209472Y454703D03*
X1216972Y450766D03*
X1209472Y446829D03*
X1216972Y442892D03*
X1209472Y438955D03*
X1216972Y435018D03*
X1209472Y431081D03*
X1216972Y427144D03*
X1209472Y423207D03*
X1216972Y419270D03*
X1209472Y415333D03*
X1216972Y411396D03*
X1209472Y407459D03*
X1216972Y403522D03*
X1209472Y399585D03*
X1216972Y395648D03*
X1209472Y391711D03*
X1216972Y387774D03*
X1209472Y383837D03*
X1216972Y379900D03*
X1209472Y375963D03*
X1216972Y372026D03*
X1209472Y368089D03*
X1216972Y364152D03*
X1209472Y360215D03*
X1216972Y356278D03*
X1209472Y352341D03*
X1216972Y348404D03*
X1209472Y344467D03*
X1216972Y340530D03*
X1209472Y336593D03*
X1216972Y332656D03*
X1209472Y328719D03*
X1216972Y324782D03*
X1209472Y320845D03*
X1216972Y316908D03*
X1209472Y312971D03*
X1216972Y309034D03*
X1209472Y305097D03*
X1216972Y301160D03*
X1209472Y297223D03*
X1216972Y293286D03*
X1209472Y289349D03*
X1216972Y285412D03*
X1209472Y281475D03*
X1216972Y277538D03*
X1209472Y273601D03*
X1216972Y269664D03*
X1209472Y265727D03*
X1216972Y261790D03*
X1209472Y257853D03*
X1216972Y253916D03*
X1209472Y249979D03*
X1231992Y734231D03*
X1224492Y730294D03*
X1231992Y726357D03*
X1224492Y722420D03*
X1231992Y718483D03*
X1224492Y714546D03*
X1231992Y710609D03*
X1224492Y706672D03*
X1231992Y702735D03*
X1224492Y698798D03*
X1231992Y694861D03*
X1224492Y690924D03*
X1231992Y686987D03*
X1224492Y683050D03*
X1231992Y679113D03*
X1224492Y675176D03*
X1231992Y671239D03*
X1224492Y667302D03*
X1231992Y663365D03*
X1224492Y659428D03*
X1231992Y655491D03*
X1224492Y651554D03*
X1231992Y647617D03*
X1224492Y643680D03*
X1231992Y639743D03*
X1224492Y635806D03*
X1231992Y631869D03*
X1224492Y627931D03*
X1231992Y623994D03*
X1224492Y620057D03*
X1231992Y616120D03*
X1224492Y612183D03*
X1231992Y608246D03*
X1224492Y604309D03*
X1231992Y600372D03*
X1224492Y596435D03*
X1231992Y592498D03*
X1224492Y588561D03*
X1231992Y584624D03*
X1224492Y580687D03*
X1231992Y576750D03*
X1224492Y572813D03*
X1231992Y568876D03*
X1224492Y564939D03*
X1231992Y561002D03*
X1224492Y557065D03*
X1231992Y553128D03*
X1224492Y549191D03*
X1231992Y545254D03*
X1224492Y541317D03*
X1231992Y537380D03*
X1224492Y533443D03*
X1231992Y529506D03*
X1224492Y525569D03*
X1231992Y521632D03*
X1224492Y517695D03*
X1231992Y513758D03*
X1224492Y509821D03*
X1231992Y505884D03*
X1224492Y501947D03*
X1231992Y498010D03*
X1224492Y494073D03*
X1231992Y490136D03*
X1224492Y486199D03*
X1231992Y466514D03*
X1224492Y462577D03*
X1231992Y458640D03*
X1224492Y454703D03*
X1231992Y450766D03*
X1224492Y446829D03*
X1231992Y442892D03*
X1224492Y438955D03*
X1231992Y435018D03*
X1224492Y431081D03*
X1231992Y427144D03*
X1224492Y423207D03*
X1231992Y419270D03*
X1224492Y415333D03*
X1231992Y411396D03*
X1224492Y407459D03*
X1231992Y403522D03*
X1224492Y399585D03*
X1231992Y395648D03*
X1224492Y391711D03*
X1231992Y387774D03*
X1224492Y383837D03*
X1231992Y379900D03*
X1224492Y375963D03*
X1231992Y372026D03*
X1224492Y368089D03*
X1231992Y364152D03*
X1224492Y360215D03*
X1231992Y356278D03*
X1224492Y352341D03*
X1231992Y348404D03*
X1224492Y344467D03*
X1231992Y340530D03*
X1224492Y336593D03*
X1231992Y332656D03*
X1224492Y328719D03*
X1231992Y324782D03*
X1224492Y320845D03*
X1231992Y316908D03*
X1224492Y312971D03*
X1231992Y309034D03*
X1224492Y305097D03*
X1231992Y301160D03*
X1224492Y297223D03*
X1231992Y293286D03*
X1224492Y289349D03*
X1231992Y285412D03*
X1224492Y281475D03*
X1231992Y277538D03*
X1224492Y273601D03*
X1231992Y269664D03*
X1224492Y265727D03*
X1231992Y261790D03*
X1224492Y257853D03*
X1231992Y253916D03*
X1224492Y249979D03*
X356792Y250232D03*
X364292Y254327D03*
X356792Y258106D03*
X364292Y262201D03*
X356792Y265980D03*
X364292Y270075D03*
X356792Y273854D03*
X364292Y277949D03*
X356792Y281728D03*
X364292Y285823D03*
X356792Y289602D03*
X364292Y293697D03*
X356792Y297476D03*
X364292Y301571D03*
X356792Y305350D03*
X364292Y309445D03*
X356792Y313224D03*
X364292Y317319D03*
X356792Y321098D03*
X364292Y325193D03*
X356792Y328972D03*
X364292Y333067D03*
X356792Y336846D03*
X364292Y340941D03*
X356792Y344720D03*
X364292Y348815D03*
X356792Y352594D03*
X364292Y356689D03*
X356792Y360469D03*
X364292Y364563D03*
X356792Y368343D03*
X364292Y372437D03*
X356792Y376217D03*
X364292Y380311D03*
X356792Y384091D03*
X364292Y388185D03*
X356792Y391965D03*
X364292Y396059D03*
X356792Y399839D03*
X364292Y403933D03*
X356792Y407713D03*
X364292Y411807D03*
X356792Y415587D03*
X364292Y419681D03*
X356792Y423461D03*
X364292Y427555D03*
X356792Y431335D03*
X364292Y435429D03*
X356792Y439209D03*
X364292Y443303D03*
X356792Y447083D03*
X364292Y451177D03*
X356792Y454957D03*
X364292Y459051D03*
X356792Y462831D03*
X364292Y466925D03*
X356792Y470705D03*
X364292Y474799D03*
X356792Y478579D03*
X364292Y482673D03*
X356792Y486453D03*
X364292Y490547D03*
X356792Y494327D03*
X364292Y498421D03*
X356792Y518106D03*
X364292Y522043D03*
X356792Y525980D03*
X364292Y529917D03*
X356792Y533854D03*
X364292Y537791D03*
X356792Y541728D03*
X364292Y545665D03*
X356792Y549602D03*
X364292Y553539D03*
X356792Y557476D03*
X364292Y561413D03*
X356792Y565350D03*
X364292Y569287D03*
X356792Y573224D03*
X364292Y577161D03*
X356792Y581098D03*
X364292Y585035D03*
X356792Y588972D03*
X364292Y592909D03*
X356792Y596846D03*
X364292Y600783D03*
X356792Y604720D03*
X364292Y608657D03*
X356792Y612594D03*
X364292Y616531D03*
X356792Y620469D03*
X364292Y624406D03*
X356792Y628343D03*
X364292Y632280D03*
X356792Y636217D03*
X364292Y640154D03*
X356792Y644091D03*
X364292Y648028D03*
X356792Y651965D03*
X364292Y655902D03*
X356792Y659839D03*
X364292Y663776D03*
X356792Y667713D03*
X364292Y671650D03*
X356792Y675587D03*
X364292Y679524D03*
X356792Y683461D03*
X364292Y687398D03*
X356792Y691335D03*
X364292Y695272D03*
X356792Y699209D03*
X364292Y703146D03*
X356792Y707083D03*
X364292Y711020D03*
X356792Y714957D03*
X364292Y718894D03*
X356792Y722831D03*
X364292Y726768D03*
X356792Y730705D03*
X364292Y734642D03*
X341772Y250390D03*
X349272Y254327D03*
X341772Y258264D03*
X349272Y262201D03*
X341772Y266138D03*
X349272Y270075D03*
X341772Y274012D03*
X349272Y277949D03*
X341772Y281886D03*
X349272Y285823D03*
X341772Y289760D03*
X349272Y293697D03*
X341772Y297634D03*
X349272Y301571D03*
X341772Y305508D03*
X349272Y309445D03*
X341772Y313382D03*
X349272Y317319D03*
X341772Y321256D03*
X349272Y325193D03*
X341772Y329130D03*
X349272Y333067D03*
X341772Y337004D03*
X349272Y340941D03*
X341772Y344878D03*
X349272Y348815D03*
X341772Y352752D03*
X349272Y356689D03*
X341772Y360626D03*
X349272Y364563D03*
X341772Y368500D03*
X349272Y372437D03*
X341772Y376374D03*
X349272Y380311D03*
X341772Y384248D03*
X349272Y388185D03*
X341772Y392122D03*
X349272Y396059D03*
X341772Y399996D03*
X349272Y403933D03*
X341772Y407870D03*
X349272Y411807D03*
X341772Y415744D03*
X349272Y419681D03*
X341772Y423618D03*
X349272Y427555D03*
X341772Y431492D03*
X349272Y435429D03*
X341772Y439366D03*
X349272Y443303D03*
X341772Y447240D03*
X349272Y451177D03*
X341772Y455114D03*
X349272Y459051D03*
X341772Y462988D03*
X349272Y466925D03*
X341772Y470862D03*
X349272Y474799D03*
X341772Y478736D03*
X349272Y482673D03*
X341772Y486610D03*
X349272Y490547D03*
X341772Y494484D03*
X349272Y498421D03*
X341772Y518106D03*
X349272Y522043D03*
X341772Y525980D03*
X349272Y529917D03*
X341772Y533854D03*
X349272Y537791D03*
X341772Y541728D03*
X349272Y545665D03*
X341772Y549602D03*
X349272Y553539D03*
X341772Y557476D03*
X349272Y561413D03*
X341772Y565350D03*
X349272Y569287D03*
X341772Y573224D03*
X349272Y577161D03*
X341772Y581098D03*
X349272Y585035D03*
X341772Y588972D03*
X349272Y592909D03*
X341772Y596846D03*
X349272Y600783D03*
X341772Y604720D03*
X349272Y608657D03*
X341772Y612594D03*
X349272Y616531D03*
X341772Y620469D03*
X349272Y624406D03*
X341772Y628343D03*
X349272Y632280D03*
X341772Y636217D03*
X349272Y640154D03*
X341772Y644091D03*
X349272Y648028D03*
X341772Y651965D03*
X349272Y655902D03*
X341772Y659839D03*
X349272Y663776D03*
X341772Y667713D03*
X349272Y671650D03*
X341772Y675587D03*
X349272Y679524D03*
X341772Y683461D03*
X349272Y687398D03*
X341772Y691335D03*
X349272Y695272D03*
X341772Y699209D03*
X349272Y703146D03*
X341772Y707083D03*
X349272Y711020D03*
X341772Y714957D03*
X349272Y718894D03*
X341772Y722831D03*
X349272Y726768D03*
X341772Y730705D03*
X349272Y734642D03*
X324409Y111811D03*
X253543Y121654D03*
X275197D03*
X324409Y123622D03*
Y135433D03*
X318504Y147244D03*
X243935Y170357D03*
X263635Y170520D03*
X283135Y170720D03*
X351707Y173853D03*
Y165585D03*
X363124D03*
Y173459D03*
X598557Y165979D03*
Y174640D03*
X703282Y174246D03*
Y165979D03*
X715487Y174246D03*
X715880Y165585D03*
X951707Y166766D03*
X1216625Y169677D03*
X1265093Y161254D03*
X324409Y188583D03*
X951707Y175034D03*
X255833Y207052D03*
X280097D03*
X299811Y207204D03*
X290409Y207355D03*
X308758Y207052D03*
X597244Y205118D03*
X625197D03*
X264335Y228420D03*
X256835Y228620D03*
X255985Y217364D03*
X271935Y228620D03*
X279535Y228520D03*
X280097Y217213D03*
X300115Y217516D03*
X290409Y217213D03*
X308758Y217365D03*
X565748Y226772D03*
X655906Y225197D03*
X747638Y224409D03*
X954331Y227953D03*
X981890D03*
X565748Y244882D03*
X655906D03*
X747638D03*
X954331Y243701D03*
X981890D03*
X1259187Y236057D03*
X296850Y259449D03*
X320472D03*
X954331D03*
X981890D03*
X1149213Y265354D03*
X1176772D03*
X160122Y282110D03*
X224098Y282325D03*
X256635Y304320D03*
X264235Y304120D03*
X272035Y304020D03*
X279535Y304120D03*
X296850Y302756D03*
X320472D03*
X1149213Y312598D03*
X1176772D03*
X300787Y324409D03*
X328346D03*
X869685Y331969D03*
X885433Y332283D03*
X901181D03*
X1249182Y328839D03*
X300787Y340157D03*
X328346D03*
X918898Y336220D03*
X1249182Y352461D03*
X300787Y371654D03*
Y355906D03*
X328346Y371654D03*
Y355906D03*
X885433Y359843D03*
X869685Y359528D03*
X901181Y359843D03*
X918898Y355906D03*
X1249606Y362205D03*
X106735Y386120D03*
Y393620D03*
Y379120D03*
X300787Y387402D03*
X328346D03*
X106735Y400620D03*
X830315Y412992D03*
X865748Y413189D03*
X848031Y412992D03*
X1249606Y405512D03*
X133235Y433120D03*
X224250Y423506D03*
Y416420D03*
X232124D03*
Y423506D03*
X273621Y446130D03*
X298030D03*
X830315Y440551D03*
X865748Y440354D03*
X847638Y440157D03*
X1038976Y442520D03*
X1060630D03*
X1077953Y442126D03*
X1093701D03*
X1285959Y435664D03*
X1276904D03*
X1276510Y443144D03*
X1286353D03*
X189673Y474211D03*
X275589Y467390D03*
Y492587D03*
X1000394Y474803D03*
X1024016Y481102D03*
X1014567D03*
X1043701D03*
X1033465D03*
X1053150D03*
X275589Y506366D03*
X1000394Y501575D03*
X1024016D03*
X1014567D03*
X1033465D03*
X1043701D03*
X1038976Y507480D03*
X1060630D03*
X1128440Y498127D03*
X1130698Y506697D03*
X873622Y533071D03*
X909055D03*
Y519291D03*
X1286353Y522278D03*
X1275723Y522672D03*
X1275329Y515585D03*
X1274542Y532514D03*
X1285565Y532908D03*
X1286746Y515191D03*
X274802Y547311D03*
X1265354Y550787D03*
X1279660Y536845D03*
X1291077Y537239D03*
X188817Y573900D03*
X1265354Y564567D03*
X224148Y586451D03*
X216274D03*
X1247638Y580315D03*
X1271260D03*
X216274Y606136D03*
Y596294D03*
X224148D03*
Y606136D03*
Y615979D03*
X216274D03*
X1279660Y624246D03*
Y632120D03*
X1288715D03*
X1287928Y624640D03*
X280386Y672441D03*
Y654724D03*
X307945D03*
Y672441D03*
X1131496Y672835D03*
X1143307D03*
X1159055D03*
X280386Y690157D03*
X307945D03*
X1131496Y694488D03*
X894882Y712205D03*
X919291D03*
X1143307Y700394D03*
X1159055D03*
X874016Y725984D03*
X919291D03*
Y739764D03*
X810630Y755512D03*
X836220D03*
X422835Y785039D03*
X450394D03*
X810630Y783071D03*
X836220D03*
X1155118Y787008D03*
X1182677D03*
X422835Y800787D03*
X450394D03*
X568898Y834252D03*
X620866Y833465D03*
X531102Y853937D03*
X580315D03*
X633465D03*
X675197Y835039D03*
X1155118Y840157D03*
X1182677D03*
X495669Y861811D03*
X540945Y873622D03*
X592126D03*
X643307D03*
X1155118Y855906D03*
X1182677D03*
X537903Y932283D03*
X564173Y932677D03*
X588799D03*
X616535Y928740D03*
X639098Y932677D03*
X666535Y929921D03*
X1103937Y934646D03*
X1254856Y926144D03*
X1103937Y948425D03*
G54D242*
X1042464Y1010731D03*
X981464D03*
G54D243*
X659055Y153150D03*
X997638D03*
X354905Y156888D03*
X359820D03*
X403282Y156136D03*
X388583Y165748D03*
X422967Y156924D03*
X425541Y163011D03*
X441865Y156924D03*
X470785Y156136D03*
X482809D03*
X503282D03*
X522967D03*
X523023Y166316D03*
X543439Y156136D03*
X563912D03*
X583597D03*
X602590Y156854D03*
X608269D03*
X640157Y173622D03*
X706686Y157110D03*
X712565Y157069D03*
X734778Y156136D03*
X755250D03*
Y165585D03*
X856038Y156136D03*
Y165585D03*
X960950Y156707D03*
X954466D03*
X1023299Y169055D03*
X1043299D03*
X1028299D03*
X1053299D03*
X1048299D03*
X1070299D03*
X1075299D03*
X1090299D03*
X1100299Y168164D03*
X1095299D03*
X388583Y179528D03*
X725160Y184250D03*
X978193Y176618D03*
X1023028Y191127D03*
X1025599Y192955D03*
X1023028Y187683D03*
X1025668Y189087D03*
X1033858Y192520D03*
Y189764D03*
X1036614Y192520D03*
Y189764D03*
X1044931Y193024D03*
X1035299Y181855D03*
X1058199Y180855D03*
X1048299Y179055D03*
X1053299Y178955D03*
X1068928Y191027D03*
X1072668Y193024D03*
X1080709Y189764D03*
Y192520D03*
X1083465D03*
Y189764D03*
X1068928Y187483D03*
X1082299Y181424D03*
X1072668Y189087D03*
X1095299Y179555D03*
X1091931Y193024D03*
X1100299Y179755D03*
X722047Y196457D03*
X1023328Y203727D03*
Y200183D03*
X1035299Y200687D03*
X1039565Y212079D03*
X1049871Y202127D03*
Y198583D03*
X1068928Y202127D03*
X1082299Y200687D03*
X1068928Y198583D03*
X1097071Y202427D03*
Y198883D03*
X230156Y231380D03*
Y247128D03*
X1024332Y253212D03*
X1032207D03*
X1041338Y253946D03*
X1056374Y248722D03*
X1073465Y242079D03*
Y251079D03*
X1067465Y246079D03*
X222282Y260908D03*
X259683Y255002D03*
X860374Y273622D03*
X876123D03*
X868249D03*
X883997D03*
X899745D03*
X891871D03*
X907619D03*
X1040551Y260236D03*
Y264567D03*
X1029134Y268898D03*
Y264567D03*
X1198794Y261604D03*
X255512Y320472D03*
X940945Y322047D03*
X931102D03*
X951181D03*
X977165D03*
X966535D03*
X987008D03*
X996850D03*
X1020117Y321514D03*
X1039932D03*
X1030171D03*
X1115880Y338813D03*
X1122967Y342750D03*
X119804Y374169D03*
X114496Y373563D03*
X936739Y365658D03*
X943542Y370464D03*
X934162Y368533D03*
X956497Y366658D03*
X947085Y370464D03*
X962085D03*
X966339Y366658D03*
X958542Y370464D03*
X974239Y366658D03*
X977085Y370464D03*
X986039Y366658D03*
X968339Y369658D03*
X973542Y370464D03*
X1004414Y367435D03*
X992085Y370464D03*
X1001439Y366658D03*
X988542Y370464D03*
X1104857Y356924D03*
X1112731D03*
X937350Y386656D03*
X934162Y387133D03*
X937350Y390199D03*
X998277Y386656D03*
Y390199D03*
X1196313Y390928D03*
X1192313D03*
X448819Y411024D03*
X937350Y401656D03*
X934162Y400733D03*
X937350Y405199D03*
X1004414Y402735D03*
X998277Y401656D03*
X1004414Y394835D03*
X998277Y405199D03*
X1046336Y400012D03*
X1046325Y406140D03*
X1046311Y413046D03*
X1038813Y396428D03*
Y409428D03*
Y403428D03*
X1049813Y399928D03*
Y406428D03*
Y412928D03*
X1196313Y400928D03*
Y410928D03*
X1192313Y400928D03*
Y410928D03*
X383465Y415354D03*
Y430709D03*
X538976D03*
X586220D03*
X633465D03*
X657087D03*
X937350Y416656D03*
X946139Y428910D03*
X934162Y416533D03*
X937350Y420199D03*
X942542Y428964D03*
X1004414Y430335D03*
X998277Y416656D03*
X994085Y428964D03*
X998277Y420199D03*
X990542Y428964D03*
X1196313Y420928D03*
Y430928D03*
X1192313Y420928D03*
Y430928D03*
X1245876Y425383D03*
X320865Y439437D03*
X330707Y435500D03*
X383858Y447244D03*
X562598Y446457D03*
X609843D03*
X688583D03*
X720079D03*
X751575D03*
X783071D03*
X810039Y451520D03*
X815946Y451519D03*
X820669Y451520D03*
X826576Y451519D03*
X831299Y451520D03*
X837206Y451519D03*
X842323Y451520D03*
X848230Y451519D03*
X934162Y436133D03*
X934840Y449785D03*
X952539Y436910D03*
X948639D03*
X1001139D03*
X989995Y437678D03*
X1004414Y436235D03*
X1083071Y435433D03*
X1196313Y440928D03*
Y450928D03*
X1192313Y440928D03*
Y450928D03*
X383465Y460236D03*
Y472047D03*
X783071Y470079D03*
X805710Y468448D03*
X852953Y468449D03*
X858860Y468448D03*
X862795Y468449D03*
X868702Y468448D03*
X893307Y466142D03*
X1196313Y460928D03*
Y468928D03*
X1192313Y460928D03*
Y468928D03*
X383465Y485827D03*
X798481Y488781D03*
X798480Y482874D03*
X787345Y482873D03*
X787347Y488780D03*
X805709Y479582D03*
X799802Y479584D03*
X862794D03*
X858858Y479582D03*
X883126Y492717D03*
X883127Y488781D03*
X883126Y482874D03*
X868701Y479582D03*
X896850Y492913D03*
X893307D03*
X900787D03*
X897244Y481496D03*
X912992Y483858D03*
X1066535Y480709D03*
X1196313Y476928D03*
Y484928D03*
Y492928D03*
X1192313Y476928D03*
Y484928D03*
Y492928D03*
X267715Y506366D03*
X271652Y498492D03*
X326770Y508335D03*
Y498492D03*
X383858Y498031D03*
X383465Y509843D03*
X566535Y513386D03*
X570472Y505512D03*
X796063Y507480D03*
Y503543D03*
X861023Y503622D03*
X861006Y507479D03*
X883127Y498623D03*
Y508466D03*
X883126Y502559D03*
Y512402D03*
X894882Y495276D03*
X893307Y498031D03*
X900787Y498425D03*
X898819Y495669D03*
X896850Y498031D03*
X895276Y510236D03*
X975984Y512598D03*
X981890D03*
X1005512D03*
X999606D03*
X993701D03*
X987795D03*
X1011417D03*
X1017323D03*
X1196313Y500928D03*
Y508928D03*
X1192313Y500928D03*
Y508928D03*
X261022Y528413D03*
X263778Y526051D03*
X266140Y519358D03*
X248030Y524083D03*
X261022Y523689D03*
X263778Y521720D03*
X261022Y519358D03*
X266534Y528413D03*
Y523689D03*
X279526Y526051D03*
X292125Y532350D03*
X383465Y533071D03*
Y521654D03*
X566535Y529134D03*
X570472Y521260D03*
Y529134D03*
X883127Y518309D03*
Y528151D03*
X883126Y522244D03*
X984962Y519104D03*
X1002644Y519090D03*
X1100507Y528542D03*
X1101005Y520804D03*
X1107437Y522357D03*
Y528262D03*
X1121819Y515067D03*
X1124442Y527526D03*
X1121297Y527575D03*
Y530795D03*
X1124417Y530920D03*
X1124591Y524331D03*
X1121272Y524306D03*
X1117902Y527700D03*
Y531095D03*
X1121097Y534165D03*
X1124192D03*
X1117927Y524341D03*
Y534138D03*
X1108887Y520388D03*
Y526294D03*
X1131734Y515144D03*
X1136671Y524325D03*
Y520388D03*
X1136631Y534168D03*
X1127711Y530770D03*
Y527351D03*
X1127724Y524381D03*
Y534138D03*
X1196313Y524928D03*
Y532928D03*
Y516928D03*
X1192313Y524928D03*
Y532928D03*
Y516928D03*
X383465Y544488D03*
X465354Y544882D03*
X586220D03*
X566535Y537008D03*
X570472Y544882D03*
X566535Y552756D03*
X743701Y546850D03*
X799803Y535378D03*
X805710Y535377D03*
X805709Y546512D03*
X799802Y546513D03*
X858860Y535377D03*
X858858Y546512D03*
X852951Y546513D03*
X880358Y537801D03*
X886265Y537799D03*
X880357Y548935D03*
X886264Y548934D03*
X931102Y535039D03*
X1108848Y538105D03*
X1121835Y542890D03*
X1131677D03*
X1196313Y548928D03*
Y540928D03*
X1192313Y548928D03*
Y540928D03*
X383465Y554724D03*
X387402Y564567D03*
X455512Y556693D03*
X566535Y560630D03*
X582283Y564567D03*
X583465Y556693D03*
X586220Y568504D03*
X570472Y560630D03*
X566535Y568504D03*
X745480Y556693D03*
X753321Y564567D03*
X822967Y568341D03*
X842715Y563048D03*
X834449Y563047D03*
X828542Y563048D03*
X848622Y563047D03*
X1196313Y556928D03*
X1192313D03*
X120433Y590220D03*
Y593720D03*
X106535Y593520D03*
X448425Y586220D03*
X477953Y590157D03*
Y582283D03*
X583071Y580315D03*
X586220Y584252D03*
X570472Y576378D03*
Y584252D03*
Y592126D03*
X925984Y587795D03*
X928346Y583071D03*
X109159Y606763D03*
X120136Y597320D03*
X136435Y608120D03*
X132574Y606520D03*
X132410Y610578D03*
X448425Y609843D03*
X582283Y603937D03*
X570472Y600000D03*
X590157D03*
X753354Y596063D03*
X1259055Y612598D03*
X1251575D03*
X1255118D03*
X1257056Y601988D03*
X1273228Y607874D03*
X112935Y623120D03*
X114736Y627048D03*
X114713Y632126D03*
X114736Y634665D03*
X109095Y614920D03*
X123235Y618520D03*
X123121Y632173D03*
Y626998D03*
X125735Y618520D03*
X142135Y634620D03*
X142035Y632120D03*
X128086Y632278D03*
X133296Y632173D03*
X128541Y626998D03*
X133296D03*
X142035Y629520D03*
X130735Y618420D03*
X128135D03*
X132510Y614678D03*
X151435Y623420D03*
X477953Y631496D03*
Y623622D03*
X537008Y619685D03*
X803740Y627898D03*
X809647Y627897D03*
X814370Y628292D03*
X820277Y628290D03*
X826575Y628292D03*
X832482Y628290D03*
X838780Y628292D03*
X844686Y628290D03*
X948425Y627165D03*
Y630315D03*
X1262598Y632677D03*
X1251575Y617717D03*
X1255118D03*
X1259055Y618110D03*
X1257087Y615354D03*
X1253150Y614961D03*
X1255113Y629128D03*
X114717Y637239D03*
X123035Y645720D03*
X123156Y637174D03*
X126335Y649020D03*
X125535Y645620D03*
X132535Y648720D03*
X142235Y637220D03*
X133335Y645620D03*
X128156Y637244D03*
X133366Y637279D03*
X128135Y645620D03*
X130735D03*
X151435Y634820D03*
X505512Y651181D03*
X516142D03*
Y646850D03*
X537008Y635433D03*
X862795Y647583D03*
X858860Y647582D03*
X852953Y647583D03*
X868702Y647582D03*
X941339Y648819D03*
Y640945D03*
Y645276D03*
X1265354Y647244D03*
X1247713Y649628D03*
X105138Y663120D03*
X105235Y666720D03*
X105138Y670120D03*
X145408Y670309D03*
Y662829D03*
X145435Y666720D03*
X151131Y663320D03*
X151035Y656320D03*
Y659720D03*
X191077Y656136D03*
Y663223D03*
X190735Y659820D03*
X452362Y672047D03*
X478834Y660912D03*
X509449Y664961D03*
X513386D03*
X509449Y668898D03*
X513386D03*
X596063Y665748D03*
X725984D03*
X862794Y658718D03*
X858858Y658716D03*
X868701D03*
X884307Y661614D03*
Y671457D03*
X884308Y667521D03*
X881285Y655906D03*
X964173Y666929D03*
X960236Y670866D03*
X952362D03*
X956299Y671055D03*
X972047Y665102D03*
X968110Y668898D03*
X975984Y671866D03*
X105283Y682006D03*
X105435Y685820D03*
X105283Y689920D03*
X128479Y689601D03*
Y682120D03*
X128535Y685820D03*
X150827Y682865D03*
X150571Y675263D03*
X150635Y678920D03*
X150735Y693320D03*
X150371Y689463D03*
X172967Y675034D03*
X173361Y678971D03*
X174178Y682865D03*
Y688950D03*
X173935Y692820D03*
X505118Y690551D03*
X504724Y680709D03*
X516142Y686614D03*
Y690551D03*
X884307Y690354D03*
X884308Y686812D03*
X884307Y680906D03*
X884308Y677364D03*
X105283Y696006D03*
X105335Y699820D03*
X105283Y703920D03*
X104871Y709663D03*
X105335Y713820D03*
X128479Y703774D03*
Y695900D03*
X128535Y699920D03*
X128635Y713920D03*
Y709906D03*
X150935Y706920D03*
X150827Y710865D03*
X150671Y703063D03*
X150827Y696865D03*
X174178Y702950D03*
Y710865D03*
X174235Y707020D03*
X174298Y696578D03*
X505906Y706299D03*
X516142Y702362D03*
X660236Y696850D03*
X687019Y696802D03*
X789315Y711220D03*
X789314Y705314D03*
X800449Y705315D03*
X800450Y711222D03*
X858860Y714511D03*
X884308Y707679D03*
Y696261D03*
X884307Y701772D03*
X981899Y714055D03*
X105283Y717820D03*
Y731920D03*
X104871Y724063D03*
X105335Y728020D03*
X128635Y717820D03*
Y728020D03*
X128535Y724420D03*
X128635Y731920D03*
X141935Y727720D03*
X134635Y723020D03*
X160236Y724409D03*
X159843Y730315D03*
X170079Y729528D03*
Y724409D03*
X452362Y726772D03*
X479528Y716142D03*
X509449Y720079D03*
X513386Y724016D03*
X509449D03*
X513386Y720079D03*
X800449Y716732D03*
X800450Y722639D03*
X803740Y724355D03*
X789315Y722638D03*
X789314Y716731D03*
X809647Y724353D03*
X858858Y725645D03*
X852951Y725647D03*
X881059Y728837D03*
X881058Y722930D03*
X892192Y722931D03*
X892194Y728838D03*
X940899Y724055D03*
X950999Y729055D03*
X951099Y719055D03*
X971199D03*
X1004486Y716988D03*
X994299Y724455D03*
X988499Y730555D03*
X1004486Y731988D03*
Y726988D03*
Y721988D03*
Y719488D03*
X987099Y725855D03*
X1032286Y721988D03*
Y729488D03*
Y734488D03*
Y731988D03*
Y726988D03*
Y724488D03*
Y719488D03*
Y716988D03*
X113620Y748703D03*
X113227Y742010D03*
X159843Y736220D03*
X160236Y740945D03*
X170472Y735827D03*
X170079Y741339D03*
X505512Y745669D03*
X503937Y736220D03*
X516142Y741732D03*
Y745669D03*
X803739Y735489D03*
X795669Y737598D03*
X821457Y743362D03*
X815550Y743363D03*
X809646Y735488D03*
X844290Y743363D03*
X835236Y743362D03*
X829329Y743363D03*
X850197Y743362D03*
X857087Y741503D03*
X908661Y754331D03*
X1004486Y754488D03*
Y749488D03*
X989764Y739764D03*
X994299Y739455D03*
X988499Y747855D03*
X1004486Y744488D03*
X1032286Y749488D03*
Y744488D03*
Y741988D03*
Y739488D03*
Y736988D03*
X1226181Y742913D03*
X147669Y760760D03*
X314399Y767434D03*
X323543Y771260D03*
X902756Y765748D03*
X906299D03*
X902756Y770866D03*
X904331Y768110D03*
X906299Y770866D03*
X910236Y765748D03*
X908268Y768504D03*
X910236Y771260D03*
X940499Y774055D03*
X982199Y754955D03*
X970399Y759055D03*
X1004486Y761988D03*
X1032286D03*
Y756988D03*
X147244Y780787D03*
X174803Y781496D03*
X225984Y782871D03*
X214173Y779333D03*
X225984D03*
X214173Y782888D03*
X237795Y779325D03*
Y782845D03*
X249606Y782871D03*
X261417Y779316D03*
Y782854D03*
X249606Y779316D03*
X273228Y782871D03*
Y779333D03*
X292913D03*
Y782888D03*
X314753Y788976D03*
X318283D03*
X906644Y782283D03*
X920866Y777165D03*
X147244Y800787D03*
X182372Y796850D03*
X182895Y808661D03*
X185958Y796850D03*
X200394Y802756D03*
X186399Y808661D03*
X318309Y800787D03*
X314753Y812598D03*
X318336D03*
X314753Y800787D03*
X913014Y796275D03*
X164961Y834252D03*
Y830315D03*
X182854Y820472D03*
X183063Y832283D03*
X186439Y820472D03*
X186518Y832283D03*
X314764D03*
X314727Y822441D03*
X318307Y832283D03*
X318309Y822441D03*
X544882Y834252D03*
X598031D03*
X649213D03*
X164961Y838189D03*
X176772Y846063D03*
X318309Y844094D03*
X314727D03*
X992182Y842349D03*
X1039709Y836992D03*
X182859Y859843D03*
Y871654D03*
X186390Y859843D03*
X186416Y871654D03*
X314779Y855906D03*
X320743Y872676D03*
X318303Y855906D03*
X350570Y868923D03*
X350728Y873907D03*
X372613Y858428D03*
X392713Y871928D03*
X407389Y869028D03*
Y874028D03*
X434294Y860613D03*
X452665Y874028D03*
Y869028D03*
X930867Y865182D03*
Y871182D03*
X958733Y859347D03*
X946667Y865182D03*
Y871182D03*
X971233Y873847D03*
X991838Y872253D03*
X997868Y872449D03*
X1001287Y862922D03*
X991838Y868316D03*
X1003255Y864890D03*
X993807Y866347D03*
Y870284D03*
Y874221D03*
X1010263Y867534D03*
X1013098Y862922D03*
X1018531Y867534D03*
X1022941Y862922D03*
X1006720Y867534D03*
X1022074D03*
X1024909Y864890D03*
X1015067D03*
X1033885Y867534D03*
X1042626Y864890D03*
X1032783Y862922D03*
X1042737Y872449D03*
X1030342Y867534D03*
X1045893Y872253D03*
Y868316D03*
X1044594Y862922D03*
X1038689D03*
X1034752Y864890D03*
X1047862Y874221D03*
Y870284D03*
Y866347D03*
X1224016Y866142D03*
X320930Y876371D03*
X340157Y885433D03*
X350713Y878928D03*
X350613Y883828D03*
X384913Y883928D03*
X401250Y880972D03*
X407181Y884042D03*
X442256Y884036D03*
X452665Y879028D03*
Y884028D03*
X485940Y883976D03*
X538176Y892717D03*
X552756Y890551D03*
X550394Y892913D03*
X555118D03*
X557480Y890945D03*
X548031Y890551D03*
X567336Y892717D03*
X599213Y890551D03*
X603937D03*
X601575Y892913D03*
X606299D03*
X589357Y892717D03*
X608661Y890945D03*
X618517Y892717D03*
X640538D03*
X650394Y890157D03*
X655118D03*
X652756Y892520D03*
X657480D03*
X659843Y890551D03*
X669698Y892717D03*
X930867Y878182D03*
Y885182D03*
X955967Y892182D03*
X946667Y878182D03*
Y885182D03*
X997868Y882292D03*
X991838Y891938D03*
Y884064D03*
X997868Y885835D03*
Y875993D03*
Y892134D03*
X993807Y882095D03*
Y889969D03*
X1022074Y875408D03*
X1018531D03*
X1042737Y882292D03*
Y875993D03*
Y885835D03*
Y892134D03*
X1045893Y891938D03*
Y884064D03*
Y876190D03*
X1047862Y882095D03*
Y889969D03*
X1078103Y893459D03*
X1084499Y882955D03*
X1178085Y886845D03*
X1224270Y886203D03*
X1209750Y894365D03*
X1210084Y876350D03*
X424179Y908307D03*
X434295Y895547D03*
X444216Y908844D03*
X538176Y895276D03*
Y897835D03*
X531102Y903150D03*
X550394Y897638D03*
X548031Y900000D03*
Y895276D03*
X557480D03*
X555118Y897638D03*
X552756Y895276D03*
X557480Y900000D03*
X552756D03*
X567336Y895276D03*
Y897835D03*
X582283Y903150D03*
X574581Y914567D03*
X606299Y897638D03*
X603937Y900000D03*
X601575Y897638D03*
X599213Y900000D03*
Y895276D03*
X589357D03*
Y897835D03*
X603937Y895276D03*
X608661D03*
Y900000D03*
X618517Y895276D03*
Y897835D03*
X627559Y913386D03*
X640538Y895276D03*
X633465Y903150D03*
X640551Y897827D03*
X655118Y894882D03*
X652756Y897244D03*
X659843Y894882D03*
X657480Y897244D03*
X655118Y899606D03*
X650394D03*
Y894882D03*
X659843Y899606D03*
X675197Y913780D03*
X669698Y895276D03*
Y897835D03*
X955967Y904082D03*
Y898182D03*
Y910182D03*
X991838Y903749D03*
X997868Y895678D03*
Y905520D03*
X991838Y899812D03*
Y911623D03*
X997868Y901977D03*
Y911819D03*
X993807Y897843D03*
Y901780D03*
Y909654D03*
X1042737Y905520D03*
Y895678D03*
X1045893Y901780D03*
X1042737Y911819D03*
Y901977D03*
X1047862Y899812D03*
X1065309Y895881D03*
X1080199Y899655D03*
X1078599Y910255D03*
X1178085Y906136D03*
X1224001Y906120D03*
X108031Y934173D03*
X235827Y915748D03*
X265354Y914961D03*
X281035Y931420D03*
X296035Y929320D03*
X321035Y930720D03*
X423035D03*
X465035Y931320D03*
X476046Y929921D03*
X500275Y919918D03*
X509675Y931218D03*
Y920418D03*
X544136Y922047D03*
X593615Y921251D03*
X644882Y921654D03*
X955967Y916182D03*
Y929182D03*
Y922182D03*
X997868Y921662D03*
X991838Y919497D03*
X1005418Y921875D03*
X997868Y915363D03*
X991838Y933276D03*
X997868Y925205D03*
X1005418Y925419D03*
X997868Y931504D03*
X993807Y917528D03*
Y931308D03*
X1010181Y933430D03*
X1006681D03*
X1037733Y928447D03*
X1042737Y921662D03*
X1034881Y933730D03*
X1034917Y921875D03*
X1042737Y915363D03*
Y925205D03*
X1031281Y933630D03*
X1034917Y925419D03*
X1042737Y931504D03*
X1045893Y929339D03*
Y921465D03*
Y917528D03*
X1059673Y931308D03*
X1047862Y919497D03*
Y927371D03*
Y915560D03*
X1066233Y928347D03*
X1047862Y933276D03*
X1076499Y931455D03*
X1078599Y915555D03*
X1220501Y918913D03*
X1224736Y927947D03*
X1223819Y920959D03*
X1211183Y927947D03*
X1216987Y924580D03*
X1222477Y916584D03*
X1235324Y927876D03*
X1236172Y922935D03*
X1226925Y924701D03*
X1237653Y931900D03*
X1243603Y924624D03*
X1230565Y924580D03*
X108031Y954173D03*
Y944173D03*
X270635Y938920D03*
X296335Y942020D03*
X296435Y938520D03*
X310035Y938720D03*
X341119Y947576D03*
X337535Y939020D03*
X413635Y937820D03*
X444835Y939920D03*
X444135Y954320D03*
X444535Y936320D03*
X454735Y938120D03*
X480535Y954220D03*
Y938820D03*
X495675Y942818D03*
X488575Y936918D03*
X534435Y953620D03*
X545735Y947620D03*
X586235Y952620D03*
X575093Y947620D03*
X632235Y944945D03*
X636235Y944820D03*
X628235D03*
X656263Y944349D03*
X677263D03*
X667263D03*
X687263D03*
X955967Y942182D03*
Y935182D03*
Y948182D03*
X1005224Y942725D03*
X997867Y935047D03*
X995381Y942725D03*
X1001287D03*
X1003255Y938788D03*
X1017035Y942725D03*
X1007192Y938788D03*
X1013098Y942725D03*
X1015067Y938788D03*
X1019004D03*
X1024909D03*
X1028846D03*
X1040657D03*
X1044594D03*
X1042737Y935048D03*
X1026878Y942725D03*
X1030815D03*
X1036720Y938788D03*
X1038689Y942725D03*
X1042626D03*
X1059673Y935245D03*
X1047862Y937213D03*
X1063233Y935247D03*
X1076533Y942347D03*
X1073699Y951555D03*
X1205906Y942913D03*
X1199213Y943307D03*
X1201969Y942913D03*
X1217323Y942520D03*
X1216987Y935685D03*
X1243648Y935594D03*
X1230610Y935685D03*
X108031Y964173D03*
X270635Y957120D03*
X279235Y966120D03*
X269035Y968720D03*
X305235Y955020D03*
X320335Y965520D03*
X350435Y972620D03*
X421757Y965958D03*
X413535Y957120D03*
X410435Y970520D03*
X463935Y964720D03*
X492175Y974418D03*
X501175D03*
X519175D03*
X510175D03*
X534435Y964620D03*
X557235Y955120D03*
X546735Y972120D03*
X575235Y967120D03*
X586235Y957620D03*
X582735Y962620D03*
X578935Y971120D03*
X586235Y962620D03*
X572735Y957620D03*
X641135Y962520D03*
X636235Y968320D03*
X632235Y968445D03*
X628235Y968320D03*
X1020635Y960820D03*
X1023435Y960720D03*
X1051133Y967847D03*
X1076133Y967947D03*
X1094227Y973853D03*
X1219685Y955118D03*
X1214961Y955512D03*
X1257087Y955118D03*
X1251969D03*
X161417Y991339D03*
X147087Y986850D03*
X330535Y975020D03*
X535435Y989120D03*
Y978120D03*
X558235Y979620D03*
X576235Y991620D03*
X583735Y987120D03*
X573635Y982020D03*
X587735Y976120D03*
Y981120D03*
Y986120D03*
X641435Y986020D03*
X632235Y993445D03*
X628235Y993320D03*
X636235D03*
X1076510Y986057D03*
X1203543Y994094D03*
X1214173D03*
X1225984D03*
X1240551D03*
X1261417D03*
X1251575D03*
X161417Y996850D03*
X218321Y996758D03*
X215195Y1001876D03*
X492535Y1001072D03*
X535935Y1013620D03*
Y1002620D03*
X558735Y1004120D03*
X547235Y996620D03*
X584235Y1011620D03*
X574035Y1006520D03*
X576093Y996620D03*
X587735Y1001120D03*
Y1006120D03*
Y1011120D03*
X640535Y1011020D03*
X681093Y1014180D03*
X675055Y1008573D03*
X678073Y1011304D03*
X1004667Y1006120D03*
X1004467Y1002420D03*
X999467Y1012820D03*
X1009567Y1012920D03*
X1014567Y1006320D03*
X1014367Y1002720D03*
X1024367D03*
X1019467Y1013220D03*
X1024767Y1006020D03*
X1034267Y1006120D03*
X1034367Y1002620D03*
X1029567Y1013020D03*
X1096589Y999837D03*
X231731Y1015239D03*
X260535Y1032120D03*
X280535D03*
X270535D03*
X300535D03*
X290535D03*
X320535D03*
X310535D03*
X340535D03*
X330535D03*
X350535D03*
X402535D03*
X422535D03*
X412535D03*
X442535D03*
X432535D03*
X462535D03*
X452535D03*
X482535D03*
X472535D03*
X492535D03*
X535735Y1027120D03*
X558735Y1028620D03*
X547235Y1021120D03*
X576735Y1016120D03*
X574235Y1031120D03*
X578735Y1020620D03*
X588035Y1025920D03*
Y1030920D03*
X632235Y1018245D03*
X636235Y1018120D03*
X628235D03*
X674435Y1029920D03*
X683536Y1016767D03*
X678935Y1031020D03*
X725369Y1019325D03*
X731274Y1019286D03*
X743085D03*
X737180D03*
X734660Y1019325D03*
X739227Y1019286D03*
X754896Y1019365D03*
X760841Y1019286D03*
X748991D03*
X763400Y1019246D03*
X751510Y1019286D03*
X784424Y1019325D03*
X766707Y1019207D03*
X772613Y1019286D03*
X778597Y1019246D03*
X770093Y1019286D03*
X796235Y1019325D03*
X802140D03*
X790329Y1019286D03*
X808046Y1019325D03*
X819857D03*
X813951D03*
X817063Y1019646D03*
X825802Y1019286D03*
X814835Y1026820D03*
X843479Y1019286D03*
X837573Y1019325D03*
X831668D03*
X855290D03*
X849384D03*
X861235Y1019286D03*
X867061Y1019325D03*
X873006D03*
X878872D03*
X875835Y1019320D03*
X873935Y1027120D03*
X884817Y1019246D03*
X896628Y1019286D03*
X902494Y1019325D03*
X890723D03*
X920250Y1019286D03*
X908439Y1019325D03*
X926156Y1019286D03*
X914306Y1019325D03*
X921035Y1026720D03*
X932061Y1019325D03*
X937928D03*
X929135Y1019420D03*
X1004467Y1017020D03*
X1024667Y1016920D03*
X1014567Y1017020D03*
X1084384Y1026215D03*
X1079266Y1026609D03*
X107874Y1037008D03*
X164173Y1037402D03*
Y1042126D03*
X147087Y1036850D03*
X231735Y1054620D03*
X535735Y1038120D03*
X576735Y1038220D03*
X584235Y1036120D03*
X587935Y1035920D03*
X640935D03*
X600735Y1055820D03*
X613535D03*
X606935Y1055720D03*
X619835D03*
X610135Y1055920D03*
X622835D03*
X644935Y1055720D03*
X632135D03*
X635635Y1055820D03*
X648935D03*
X0Y0D02*
M02*
