*
*
G04 PADS9.0.1 Build Number: 350951 generated Gerber (RS-274-X) file*
G04 PC Version=2.1*
*
%IN "roach103.pcb"*%
*
%MOIN*%
*
%FSLAX35Y35*%
*
*
*
*
G04 PC Standard Apertures*
*
*
G04 Thermal Relief Aperture macro.*
%AMTER*
1,1,$1,0,0*
1,0,$1-$2,0,0*
21,0,$3,$4,0,0,45*
21,0,$3,$4,0,0,135*
%
*
*
G04 Annular Aperture macro.*
%AMANN*
1,1,$1,0,0*
1,0,$2,0,0*
%
*
*
G04 Odd Aperture macro.*
%AMODD*
1,1,$1,0,0*
1,0,$1-0.005,0,0*
%
*
*
G04 PC Custom Aperture Macros*
*
*
*
*
*
*
G04 PC Aperture Table*
*
%ADD062C,0.03937*%
%ADD115C,0.001*%
%ADD139C,0.07874*%
%ADD143R,0.02953X0.02756*%
%ADD144R,0.02756X0.02953*%
%ADD146R,0.04134X0.04331*%
%ADD148R,0.04331X0.04134*%
%ADD149R,0.02756X0.02756*%
%ADD158R,0.0315X0.01378*%
%ADD166R,0.02362X0.01575*%
%ADD192C,0.064*%
%ADD235C,0.06299*%
%ADD250R,0.0689X0.05512*%
%ADD251R,0.01378X0.0315*%
%ADD252R,0.01575X0.02362*%
%ADD260C,0.065*%
%ADD270C,0.104*%
%ADD311R,0.065X0.065*%
%ADD332C,0.09*%
%ADD333C,0.04331*%
%ADD334C,0.05512*%
%ADD336C,0.09646*%
%ADD337C,0.055*%
%ADD346C,0.19685*%
%ADD348C,0.04921*%
%ADD349C,0.02559*%
%ADD350C,0.1378*%
%ADD351C,0.04724*%
%ADD374R,0.04134X0.04134*%
%ADD378C,0.05016*%
%ADD379C,0.06693*%
%ADD380C,0.294*%
%ADD381C,0.08268*%
%ADD382C,0.10236*%
%ADD383C,0.20079*%
%ADD384R,0.10039X0.10039*%
%ADD385C,0.10039*%
%ADD386C,0.13386*%
*
*
*
*
G04 PC Circuitry*
G04 Layer Name roach103.pcb - circuitry*
%LPD*%
*
*
G04 PC Custom Flashes*
G04 Layer Name roach103.pcb - flashes*
%LPD*%
*
*
G04 PC Circuitry*
G04 Layer Name roach103.pcb - circuitry*
%LPD*%
*
G54D62*
G01X638479Y1008479D03*
X646668Y1001313D03*
X886431D03*
X894699Y1008400D03*
G54D115*
G54D139*
X968167Y111824D03*
X1015167D03*
X312902Y895253D03*
X312602Y937627D03*
X1182677Y1019685D03*
X60630Y94488D03*
X1182677D03*
X22500Y1027500D03*
Y92500D03*
X1247500Y1027500D03*
G54D143*
X989372Y532525D03*
X985828D03*
X761443Y548273D03*
X764986D03*
X994435Y615202D03*
X990891D03*
X960309Y607328D03*
X956765D03*
X1153569Y939612D03*
X1150025D03*
X976009Y532525D03*
X979553D03*
X501600Y544336D03*
X505143D03*
X958214Y540399D03*
X954671D03*
X993309Y607328D03*
X989765D03*
X944120Y601423D03*
X940576D03*
X917372Y532525D03*
X913828D03*
X1209213Y983543D03*
X1205669D03*
X1031128Y599454D03*
X1034671D03*
X972435Y615202D03*
X968891D03*
X971309Y607328D03*
X967765D03*
X965671Y540399D03*
X969214D03*
X972734Y548273D03*
X976277D03*
X943332Y548265D03*
X939789D03*
X938214Y540399D03*
X934671D03*
X962328Y532525D03*
X958785D03*
X1038608Y318352D03*
X1042151D03*
X970372Y532525D03*
X966828D03*
X1053701Y318583D03*
X1057244D03*
X971679Y244336D03*
X968135D03*
X1031128Y615202D03*
X1034671D03*
X1190970Y939612D03*
X1187427D03*
X942435Y615202D03*
X938891D03*
X941309Y607328D03*
X937765D03*
X883096Y628982D03*
X879553D03*
X961435Y615202D03*
X957891D03*
X928372Y532525D03*
X924828D03*
X953277Y548273D03*
X949734D03*
X929395Y600824D03*
X932939D03*
X952435Y615202D03*
X948891D03*
X763411Y595517D03*
X766954D03*
X787033D03*
X790576D03*
X684671D03*
X688214D03*
X948372Y532525D03*
X944828D03*
X933435Y615202D03*
X929891D03*
X932309Y607328D03*
X928765D03*
X883096Y621108D03*
X879553D03*
X934277Y548273D03*
X930734D03*
X947214Y540399D03*
X943671D03*
X951309Y607328D03*
X947765D03*
X954934Y601557D03*
X951391D03*
X975671Y540399D03*
X979214D03*
X983435Y615202D03*
X979891D03*
X966167Y601817D03*
X962624D03*
X883096Y625045D03*
X879553D03*
X938372Y532525D03*
X934828D03*
X964227Y548256D03*
X960684D03*
X974934Y601557D03*
X971391D03*
X982309Y607328D03*
X978765D03*
X924435Y615202D03*
X920891D03*
X1031128Y603391D03*
X1034671D03*
X1031128Y619139D03*
X1034671D03*
X1031128Y611265D03*
X1034671D03*
X1031128Y595517D03*
X1034671D03*
X694724Y1001890D03*
X698268D03*
X677677Y1001929D03*
X674134D03*
X525222Y611265D03*
X521679D03*
X525222Y603391D03*
X521679D03*
X755474Y1002290D03*
X751931D03*
X702870Y1001851D03*
X706413D03*
X730074Y1001990D03*
X726531D03*
X525222Y607328D03*
X521679D03*
X525222Y615202D03*
X521679D03*
X690000Y1001929D03*
X686457D03*
X741874Y1001890D03*
X738331D03*
X866874Y1001990D03*
X863331D03*
X841974D03*
X838431D03*
X666561Y613234D03*
X670104D03*
X666561Y609297D03*
X670104D03*
X853774Y1001990D03*
X850231D03*
X879228Y704000D03*
X882772D03*
X1000372Y532525D03*
X996828D03*
X1179617Y442357D03*
X1176073D03*
X737380Y483313D03*
X733836D03*
X670891Y526620D03*
X674435D03*
X684671Y564021D03*
X688214D03*
X789002Y483313D03*
X792545D03*
X911953Y353197D03*
X908409D03*
X896953D03*
X893409D03*
X928953Y411697D03*
X925409D03*
X926953Y353197D03*
X923409D03*
X880953Y411697D03*
X877409D03*
X994563Y907951D03*
X998107D03*
X994563Y918051D03*
X998107D03*
X956942Y857927D03*
X953399D03*
Y850053D03*
X956942D03*
X1130953Y393197D03*
X1127409D03*
X1130953Y383197D03*
X1127409D03*
X1130953Y499197D03*
X1127409D03*
X1130953Y523197D03*
X1127409D03*
X1130953Y515197D03*
X1127409D03*
X1130953Y413197D03*
X1127409D03*
X1130953Y403197D03*
X1127409D03*
X1130953Y507197D03*
X1127409D03*
X1130953Y491197D03*
X1127409D03*
X1130953Y483197D03*
X1127409D03*
X1157506Y726226D03*
X1161049D03*
X1157506Y719139D03*
X1161049D03*
X1130953Y373197D03*
X1127409D03*
X1130953Y475197D03*
X1127409D03*
X1130953Y467197D03*
X1127409D03*
X524828Y536462D03*
X521285D03*
X524828Y560084D03*
X521285D03*
X524828Y575832D03*
X521285D03*
X524828Y567958D03*
X521285D03*
X524828Y544336D03*
X521285D03*
X291757Y221108D03*
X288214D03*
X552781Y548273D03*
X556324D03*
X524828Y552210D03*
X521285D03*
X524828Y528982D03*
X521285D03*
X524828Y587643D03*
X521285D03*
X789002Y662446D03*
X792545D03*
X666954Y593549D03*
X670498D03*
X666954Y597486D03*
X670498D03*
X737427Y662053D03*
X733883D03*
X787033Y548273D03*
X790576D03*
X505143Y552210D03*
X501600D03*
X505143Y536462D03*
X501600D03*
X505143Y520714D03*
X501600D03*
X505143Y497092D03*
X501600D03*
X580340Y548273D03*
X583883D03*
X676797Y540399D03*
X680340D03*
X291857Y215708D03*
X288314D03*
X684671Y501029D03*
X688214D03*
X684671Y508903D03*
X688214D03*
X501600Y489218D03*
X505143D03*
X318529Y548273D03*
X322072D03*
Y493155D03*
X318529D03*
X501600Y575832D03*
X505143D03*
X322072Y469533D03*
X318529D03*
X322072Y444139D03*
X318529D03*
X684671Y571895D03*
X688214D03*
X583883Y587643D03*
X580340D03*
X591757D03*
X588214D03*
X607506D03*
X603962D03*
X615380D03*
X611836D03*
X684671Y579769D03*
X688214D03*
X599631Y587643D03*
X596088D03*
X583883Y556147D03*
X580340D03*
X607506Y571895D03*
X603962D03*
X576009Y564021D03*
X572466D03*
X491364Y583706D03*
X487820D03*
X615380Y564021D03*
X611836D03*
X599631Y579769D03*
X596088D03*
X583883Y564021D03*
X580340D03*
X591757Y579769D03*
X588214D03*
X491364Y560084D03*
X487820D03*
X583883Y571895D03*
X580340D03*
X615380D03*
X611836D03*
X576009Y556147D03*
X572466D03*
X607506Y579769D03*
X603962D03*
X521285Y583706D03*
X524828D03*
X607506Y556147D03*
X603962D03*
X623254Y587643D03*
X619710D03*
X615380Y556147D03*
X611836D03*
X501600Y512840D03*
X505143D03*
X501600Y567958D03*
X505143D03*
X142939Y782525D03*
X139395D03*
X592151Y571895D03*
X595694D03*
X881953Y353197D03*
X878409D03*
X666561Y605360D03*
X670104D03*
X789874Y1001890D03*
X786331D03*
X322072Y516777D03*
X318529D03*
X813974Y1001990D03*
X810431D03*
X800874Y1001890D03*
X797331D03*
X1130953Y539197D03*
X1127409D03*
X1130953Y531197D03*
X1127409D03*
X945046Y910469D03*
X941502D03*
X969751Y910369D03*
X966208D03*
X968753Y850053D03*
X965210D03*
X945131D03*
X941588D03*
X1130953Y459197D03*
X1127409D03*
X1130953Y451197D03*
X1127409D03*
X1130953Y443197D03*
X1127409D03*
X1130953Y433197D03*
X1127409D03*
X1130953Y423197D03*
X1127409D03*
X322072Y398864D03*
X318529D03*
X501600Y583706D03*
X505143D03*
X501600Y504966D03*
X505143D03*
X322072Y414612D03*
X318529D03*
X501600Y560084D03*
X505143D03*
X322072Y481344D03*
X318529D03*
X322072Y455754D03*
X318529D03*
X322072Y504966D03*
X318529D03*
X322072Y430360D03*
X318529D03*
X322072Y528588D03*
X318529D03*
X322072Y538431D03*
X318529D03*
X501600Y528588D03*
X505143D03*
X684671Y587643D03*
X688214D03*
X666954Y617171D03*
X670498D03*
X591757Y556147D03*
X588214D03*
X576009Y571895D03*
X572466D03*
X583883Y579769D03*
X580340D03*
X684639Y493155D03*
X688183D03*
X491364Y536462D03*
X487820D03*
X599631Y556147D03*
X596088D03*
X591757Y548273D03*
X588214D03*
X599631D03*
X596088D03*
X607506D03*
X603962D03*
X591757Y564021D03*
X588214D03*
X599631D03*
X596088D03*
X607506D03*
X603962D03*
X1065157Y958661D03*
X1061614D03*
G54D144*
X940380Y498864D03*
Y495320D03*
X914789Y613431D03*
Y616974D03*
X997466Y538628D03*
Y542171D03*
X989592Y560281D03*
Y563824D03*
X922663Y548588D03*
Y552131D03*
Y498864D03*
Y495320D03*
X1001403Y611305D03*
Y614848D03*
X914789Y575431D03*
Y578974D03*
X946285Y498864D03*
Y495320D03*
X983687Y598470D03*
Y602013D03*
X914789Y557431D03*
Y560974D03*
X989592Y598628D03*
Y602171D03*
X921967Y702296D03*
Y698753D03*
X983687Y560281D03*
Y563824D03*
Y579470D03*
Y583013D03*
X922663Y603588D03*
Y607131D03*
X928569Y574344D03*
Y577887D03*
X983687Y588470D03*
Y592013D03*
X928569Y556344D03*
Y559887D03*
Y565344D03*
Y568887D03*
X922663Y569730D03*
Y566187D03*
X997466Y598628D03*
Y602171D03*
Y579628D03*
Y583171D03*
X989592Y588628D03*
Y592171D03*
X922663Y593746D03*
Y597289D03*
Y583903D03*
Y587446D03*
X997466Y569628D03*
Y573171D03*
X989592Y548628D03*
Y552171D03*
X914789Y566431D03*
Y569974D03*
X997466Y588628D03*
Y592171D03*
X1012427Y361069D03*
Y357525D03*
X997466Y558628D03*
Y562171D03*
X914789Y584431D03*
Y587974D03*
Y548431D03*
Y551974D03*
X989592Y570124D03*
Y573667D03*
X922663Y574848D03*
Y578391D03*
Y538588D03*
Y542131D03*
X989592Y538628D03*
Y542171D03*
X928569Y583344D03*
Y586887D03*
X983687Y548470D03*
Y552013D03*
X989592Y578628D03*
Y582171D03*
X928569Y538628D03*
Y542171D03*
X922663Y557525D03*
Y561069D03*
X914789Y538431D03*
Y541974D03*
X983687Y570124D03*
Y573667D03*
X914789Y603431D03*
Y606974D03*
X928569Y592344D03*
Y595887D03*
Y498864D03*
Y495320D03*
X914789Y593431D03*
Y596974D03*
X934474Y498864D03*
Y495320D03*
X916757Y498864D03*
Y495320D03*
X952191Y498864D03*
Y495320D03*
X910852Y498864D03*
Y495320D03*
X538805Y639021D03*
Y642565D03*
X578175Y639021D03*
Y642565D03*
X746802Y1003118D03*
Y1006661D03*
X566364Y639021D03*
Y642565D03*
X574238Y639021D03*
Y642565D03*
X582112Y639021D03*
Y642565D03*
X589986Y639021D03*
Y642565D03*
X586049Y639021D03*
Y642565D03*
X562427Y639021D03*
Y642565D03*
X554553Y639021D03*
Y642565D03*
X558490Y639021D03*
Y642565D03*
X613608Y639021D03*
Y642565D03*
X858702Y1002918D03*
Y1006461D03*
X597860Y639021D03*
Y642565D03*
X637230Y639021D03*
Y642565D03*
X629356Y639021D03*
Y642565D03*
X633293Y639021D03*
Y642565D03*
X660852Y639021D03*
Y642565D03*
X652978Y639021D03*
Y642565D03*
X649041Y639021D03*
Y642565D03*
X625419Y639021D03*
Y642565D03*
X997466Y548628D03*
Y552171D03*
X989592Y495320D03*
Y498864D03*
X268223Y498057D03*
Y501600D03*
X617545Y639021D03*
Y642565D03*
X601797Y639021D03*
Y642565D03*
X930181Y396425D03*
Y399969D03*
Y366425D03*
Y369969D03*
Y381425D03*
Y384969D03*
X875181Y396425D03*
Y399969D03*
Y366425D03*
Y369969D03*
X956824Y943228D03*
Y946772D03*
X968635Y943228D03*
Y946772D03*
X974855Y875447D03*
Y871904D03*
Y885290D03*
Y881746D03*
Y895132D03*
Y891589D03*
Y914817D03*
Y911274D03*
X935485Y914817D03*
Y911274D03*
Y895132D03*
Y891589D03*
Y885290D03*
Y881746D03*
Y875447D03*
Y871904D03*
Y852219D03*
Y855762D03*
X967035Y901645D03*
Y905188D03*
X943035Y901645D03*
Y905188D03*
X1130894Y237840D03*
Y241383D03*
X935485Y901431D03*
Y904975D03*
X898596Y133054D03*
Y136597D03*
X886393Y133054D03*
Y136597D03*
X650536Y133336D03*
Y136880D03*
X638412Y133336D03*
Y136880D03*
X546117Y133120D03*
Y136663D03*
X533873Y133120D03*
Y136663D03*
X298071Y133114D03*
Y136658D03*
X285866Y133114D03*
Y136658D03*
X530931Y639021D03*
Y642565D03*
X542742Y639021D03*
Y642565D03*
X528962Y461856D03*
Y465399D03*
X584080Y461856D03*
Y465399D03*
X546679Y639021D03*
Y642565D03*
X188411Y762643D03*
Y759100D03*
X408883Y573667D03*
Y570124D03*
Y615006D03*
Y611462D03*
X164789Y762643D03*
Y759100D03*
X212033Y762643D03*
Y759100D03*
X152978D03*
Y762643D03*
X176600Y759100D03*
Y762643D03*
X200222Y759100D03*
Y762643D03*
X223844Y759100D03*
Y762643D03*
X645104Y639021D03*
Y642565D03*
X806002Y1003318D03*
Y1006861D03*
X935485Y862061D03*
Y865604D03*
X974855Y901431D03*
Y904975D03*
Y862061D03*
Y865604D03*
X1124238Y250045D03*
Y253588D03*
X945013Y943228D03*
Y946772D03*
X933202Y943228D03*
Y946772D03*
X974855Y855762D03*
Y852219D03*
X999606Y999409D03*
Y995866D03*
X1004724Y999409D03*
Y995866D03*
X875181Y381425D03*
Y384969D03*
X631324Y465399D03*
Y461856D03*
X544710D03*
Y465399D03*
X670694Y461856D03*
Y465399D03*
X607702Y461856D03*
Y465399D03*
X576206Y461856D03*
Y465399D03*
X513214Y461856D03*
Y465399D03*
X357835Y142795D03*
Y139252D03*
X457835Y142402D03*
Y138858D03*
X690118Y142402D03*
Y138858D03*
X790906Y142402D03*
Y138858D03*
X376732Y139646D03*
Y143189D03*
X478307Y138858D03*
Y142402D03*
X709803Y138858D03*
Y142402D03*
X810591Y138858D03*
Y142402D03*
X829488Y138858D03*
Y142402D03*
X730276Y138858D03*
Y142402D03*
X498780Y138858D03*
Y142402D03*
X397992Y138858D03*
Y142402D03*
X851535Y138858D03*
Y142402D03*
X750748Y138858D03*
Y142402D03*
X518465Y138858D03*
Y142402D03*
X417677Y138858D03*
Y142402D03*
X338150Y139252D03*
Y142795D03*
X438150Y138858D03*
Y142402D03*
X669646Y138858D03*
Y142402D03*
X770433Y138071D03*
Y141614D03*
X1176961Y651029D03*
Y647486D03*
X1177437Y307943D03*
Y304399D03*
G54D146*
X518726Y595517D03*
X525025D03*
X679356Y620714D03*
X685655D03*
Y608116D03*
X679356D03*
X685655Y601817D03*
X679356D03*
X685655Y614415D03*
X679356D03*
G54D148*
X533293Y656541D03*
Y650242D03*
X539592Y656541D03*
Y650242D03*
X564789D03*
Y656541D03*
X545891D03*
Y650242D03*
X558490Y656541D03*
Y650242D03*
X552191Y656541D03*
Y650242D03*
X509277Y628588D03*
Y622289D03*
X571088Y650242D03*
Y656541D03*
X583687D03*
Y650242D03*
X596285Y656541D03*
Y650242D03*
X577387Y656541D03*
Y650242D03*
X589986D03*
Y656541D03*
X615183D03*
Y650242D03*
X608883Y656541D03*
Y650242D03*
X621482Y656541D03*
Y650242D03*
X602584D03*
Y656541D03*
X634080D03*
Y650242D03*
X646679Y656541D03*
Y650242D03*
X640380Y656541D03*
Y650242D03*
X659277D03*
Y656541D03*
X515576Y628982D03*
Y622683D03*
X665576Y656541D03*
Y650242D03*
X671876Y656541D03*
Y650242D03*
X652978Y656541D03*
Y650242D03*
X627781D03*
Y656541D03*
X524631Y622683D03*
Y628982D03*
X526994Y650242D03*
Y656541D03*
X520694D03*
Y650242D03*
G54D149*
X792545Y666383D03*
X789002D03*
X792545Y487250D03*
X789002D03*
X593923Y639021D03*
Y642565D03*
X879728Y715500D03*
X883272D03*
X909395Y738824D03*
X912939D03*
X958792Y935228D03*
Y938772D03*
X946981Y935228D03*
Y938772D03*
X943044Y935228D03*
Y938772D03*
X935170Y935228D03*
Y938772D03*
X931233Y935228D03*
Y938772D03*
X1174139Y405152D03*
X1177683D03*
X884671Y404966D03*
X888214D03*
X905109Y413901D03*
Y417444D03*
X913023Y413901D03*
Y417444D03*
X888214Y401029D03*
X884671D03*
X684671Y556147D03*
X688214D03*
X970604Y935228D03*
Y938772D03*
X76731Y347390D03*
X80274D03*
X954855Y935228D03*
Y938772D03*
X160202Y171318D03*
Y174861D03*
X83074Y333190D03*
X79531D03*
X268176Y540835D03*
X264632D03*
X268176Y535765D03*
X264632D03*
X298647Y727210D03*
Y723667D03*
X290773Y725242D03*
Y721698D03*
X674828Y532525D03*
X678372D03*
X674818Y516777D03*
X678361D03*
X619513Y473667D03*
Y477210D03*
X684671Y548273D03*
X688214D03*
X966666Y935228D03*
Y938772D03*
X909395Y698824D03*
X912939D03*
X173902Y170661D03*
Y167118D03*
X82974Y538890D03*
X79431D03*
X74731Y553590D03*
X78274D03*
X140731Y359190D03*
X144274D03*
X273531Y952790D03*
X277074D03*
X143774Y345690D03*
X140231D03*
X733908Y487250D03*
X737452D03*
X733883Y666383D03*
X737427D03*
X605734Y639021D03*
Y642565D03*
X609671Y639021D03*
Y642565D03*
X840583Y403443D03*
Y399900D03*
X844853D03*
Y403443D03*
G54D158*
X809671Y502013D03*
Y503982D03*
Y505950D03*
Y507919D03*
X815183D03*
Y505950D03*
Y503982D03*
Y502013D03*
X809671Y492171D03*
Y494139D03*
Y496108D03*
Y498076D03*
X815183D03*
Y496108D03*
Y494139D03*
Y492171D03*
X809671Y482328D03*
Y484297D03*
Y486265D03*
Y488234D03*
X815183D03*
Y486265D03*
Y484297D03*
Y482328D03*
X809671Y472486D03*
Y474454D03*
Y476423D03*
Y478391D03*
X815183D03*
Y476423D03*
Y474454D03*
Y472486D03*
X809671Y462643D03*
Y464612D03*
Y466580D03*
Y468549D03*
X815183D03*
Y466580D03*
Y464612D03*
Y462643D03*
X732506Y702407D03*
Y700439D03*
Y698470D03*
Y696502D03*
X726994D03*
Y698470D03*
Y700439D03*
Y702407D03*
Y685084D03*
Y687053D03*
Y689021D03*
Y690990D03*
X732506D03*
Y689021D03*
Y687053D03*
Y685084D03*
X818738Y702701D03*
Y704669D03*
Y706638D03*
Y708606D03*
X824249D03*
Y706638D03*
Y704669D03*
Y702701D03*
X810852Y660675D03*
Y662643D03*
Y664612D03*
Y666580D03*
X816364D03*
Y664612D03*
Y662643D03*
Y660675D03*
X810852Y651226D03*
Y653194D03*
Y655163D03*
Y657131D03*
X816364D03*
Y655163D03*
Y653194D03*
Y651226D03*
X810852Y641383D03*
Y643352D03*
Y645320D03*
Y647289D03*
X816364D03*
Y645320D03*
Y643352D03*
Y641383D03*
X810852Y681541D03*
Y683509D03*
Y685478D03*
Y687446D03*
X816364D03*
Y685478D03*
Y683509D03*
Y681541D03*
X810852Y670124D03*
Y672092D03*
Y674061D03*
Y676029D03*
X816364D03*
Y674061D03*
Y672092D03*
Y670124D03*
X730537Y468549D03*
Y466580D03*
Y464612D03*
Y462643D03*
X725025D03*
Y464612D03*
Y466580D03*
Y468549D03*
G54D166*
X800616Y501305D03*
Y503273D03*
Y505242D03*
Y507210D03*
X804553D03*
Y505242D03*
Y503273D03*
Y501305D03*
X801403Y660360D03*
Y662328D03*
Y664297D03*
Y666265D03*
X805340D03*
Y664297D03*
Y662328D03*
Y660360D03*
X801403Y651305D03*
Y653273D03*
Y655242D03*
Y657210D03*
X805340D03*
Y655242D03*
Y653273D03*
Y651305D03*
X801403Y641856D03*
Y643824D03*
Y645793D03*
Y647761D03*
X805340D03*
Y645793D03*
Y643824D03*
Y641856D03*
X801403Y670202D03*
Y672171D03*
Y674139D03*
Y676108D03*
X805340D03*
Y674139D03*
Y672171D03*
Y670202D03*
X801403Y681620D03*
Y683588D03*
Y685557D03*
Y687525D03*
X805340D03*
Y685557D03*
Y683588D03*
Y681620D03*
X800616Y491462D03*
Y493431D03*
Y495399D03*
Y497368D03*
X804553D03*
Y495399D03*
Y493431D03*
Y491462D03*
X800616Y481620D03*
Y483588D03*
Y485557D03*
Y487525D03*
X804553D03*
Y485557D03*
Y483588D03*
Y481620D03*
X800616Y462722D03*
Y464691D03*
Y466659D03*
Y468628D03*
X804553D03*
Y466659D03*
Y464691D03*
Y462722D03*
X800616Y471777D03*
Y473746D03*
Y475714D03*
Y477683D03*
X804553D03*
Y475714D03*
Y473746D03*
Y471777D03*
G54D192*
X969332Y975472D03*
X964332Y985472D03*
X959332Y975472D03*
X954332Y985472D03*
X949332Y975472D03*
X944332Y985472D03*
X939332Y975472D03*
X934332Y985472D03*
X929332Y975472D03*
X924332Y985472D03*
X972932Y1026472D03*
X962932D03*
X930732D03*
X920732D03*
G54D235*
X1151840Y714157D03*
X1144340Y710063D03*
X1151840Y706283D03*
X1144340Y702189D03*
X1151840Y698409D03*
X1144340Y694315D03*
X1151840Y690535D03*
X1144340Y686441D03*
X1151840Y682661D03*
X1144340Y678567D03*
X1151840Y674787D03*
X1144340Y670693D03*
X1151840Y666913D03*
X1144340Y662819D03*
X1151840Y659039D03*
X1144340Y654945D03*
X1151840Y651165D03*
X1144340Y647071D03*
X1151840Y643291D03*
X1144340Y639197D03*
X1151840Y635417D03*
X1144340Y631323D03*
X1151840Y627543D03*
X1144340Y623449D03*
X1151840Y619669D03*
X1144340Y615575D03*
X1151840Y611795D03*
X1144340Y607701D03*
X1151840Y603921D03*
X1144340Y599827D03*
X1151840Y596047D03*
X1144340Y591953D03*
X1151840Y588173D03*
X1144340Y584079D03*
X1151840Y580299D03*
X1144340Y576205D03*
X1151840Y572425D03*
X1144340Y568331D03*
X1151840Y564551D03*
X1144340Y560457D03*
X1151840Y556677D03*
X1144340Y552583D03*
X1151840Y548803D03*
X1144340Y544709D03*
X1151840Y540929D03*
X1144340Y536835D03*
X1151840Y533055D03*
X1144340Y528961D03*
X1151840Y525181D03*
X1144340Y521087D03*
X1151840Y517307D03*
X1144340Y513213D03*
X1151840Y509433D03*
X1144340Y505339D03*
X1151840Y501559D03*
X1144340Y497465D03*
X1151840Y493685D03*
X1144340Y489591D03*
X1151840Y485811D03*
X1144340Y481717D03*
X1151840Y477937D03*
X1144340Y473843D03*
X1151840Y470063D03*
X1144340Y465969D03*
X1151840Y446283D03*
X1144340Y442346D03*
X1151840Y438409D03*
X1144340Y434472D03*
X1151840Y430535D03*
X1144340Y426598D03*
X1151840Y422661D03*
X1144340Y418724D03*
X1151840Y414787D03*
X1144340Y410850D03*
X1151840Y406913D03*
X1144340Y402976D03*
X1151840Y399039D03*
X1144340Y395102D03*
X1151840Y391165D03*
X1144340Y387228D03*
X1151840Y383291D03*
X1144340Y379354D03*
X1151840Y375417D03*
X1144340Y371480D03*
X1151840Y367543D03*
X1144340Y363606D03*
X1151840Y359669D03*
X1144340Y355732D03*
X1151840Y351795D03*
X1144340Y347858D03*
X1151840Y343921D03*
X1144340Y339984D03*
X1151840Y336047D03*
X1144340Y332110D03*
X1151840Y328173D03*
X1144340Y324236D03*
X1151840Y320299D03*
X1144340Y316362D03*
X1151840Y312425D03*
X1144340Y308488D03*
X1151840Y304551D03*
X1144340Y300614D03*
X1151840Y296677D03*
X1144340Y292740D03*
X1151840Y288803D03*
X1144340Y284866D03*
X1151840Y280929D03*
X1144340Y276992D03*
X1151840Y273055D03*
X1144340Y269118D03*
X1151840Y265181D03*
X1144340Y261244D03*
X1151840Y257307D03*
X1144340Y253370D03*
X1151840Y249433D03*
X1144340Y245496D03*
X1151840Y241559D03*
X1144340Y237622D03*
X1151840Y233685D03*
X1144340Y229748D03*
X1166860Y714000D03*
X1159360Y710063D03*
X1166860Y706126D03*
X1159360Y702189D03*
X1166860Y698252D03*
X1159360Y694315D03*
X1166860Y690378D03*
X1159360Y686441D03*
X1166860Y682504D03*
X1159360Y678567D03*
X1166860Y674630D03*
X1159360Y670693D03*
X1166860Y666756D03*
X1159360Y662819D03*
X1166860Y658882D03*
X1159360Y654945D03*
X1166860Y651008D03*
X1159360Y647071D03*
X1166860Y643134D03*
X1159360Y639197D03*
X1166860Y635260D03*
X1159360Y631323D03*
X1166860Y627386D03*
X1159360Y623449D03*
X1166860Y619512D03*
X1159360Y615575D03*
X1166860Y611638D03*
X1159360Y607701D03*
X1166860Y603764D03*
X1159360Y599827D03*
X1166860Y595890D03*
X1159360Y591953D03*
X1166860Y588016D03*
X1159360Y584079D03*
X1166860Y580142D03*
X1159360Y576205D03*
X1166860Y572268D03*
X1159360Y568331D03*
X1166860Y564394D03*
X1159360Y560457D03*
X1166860Y556520D03*
X1159360Y552583D03*
X1166860Y548646D03*
X1159360Y544709D03*
X1166860Y540772D03*
X1159360Y536835D03*
X1166860Y532898D03*
X1159360Y528961D03*
X1166860Y525024D03*
X1159360Y521087D03*
X1166860Y517150D03*
X1159360Y513213D03*
X1166860Y509276D03*
X1159360Y505339D03*
X1166860Y501402D03*
X1159360Y497465D03*
X1166860Y493528D03*
X1159360Y489591D03*
X1166860Y485654D03*
X1159360Y481717D03*
X1166860Y477780D03*
X1159360Y473843D03*
X1166860Y469906D03*
X1159360Y465969D03*
X1166860Y446283D03*
X1159360Y442346D03*
X1166860Y438409D03*
X1159360Y434472D03*
X1166860Y430535D03*
X1159360Y426598D03*
X1166860Y422661D03*
X1159360Y418724D03*
X1166860Y414787D03*
X1159360Y410850D03*
X1166860Y406913D03*
X1159360Y402976D03*
X1166860Y399039D03*
X1159360Y395102D03*
X1166860Y391165D03*
X1159360Y387228D03*
X1166860Y383291D03*
X1159360Y379354D03*
X1166860Y375417D03*
X1159360Y371480D03*
X1166860Y367543D03*
X1159360Y363606D03*
X1166860Y359669D03*
X1159360Y355732D03*
X1166860Y351795D03*
X1159360Y347858D03*
X1166860Y343921D03*
X1159360Y339984D03*
X1166860Y336047D03*
X1159360Y332110D03*
X1166860Y328173D03*
X1159360Y324236D03*
X1166860Y320299D03*
X1159360Y316362D03*
X1166860Y312425D03*
X1159360Y308488D03*
X1166860Y304551D03*
X1159360Y300614D03*
X1166860Y296677D03*
X1159360Y292740D03*
X1166860Y288803D03*
X1159360Y284866D03*
X1166860Y280929D03*
X1159360Y276992D03*
X1166860Y273055D03*
X1159360Y269118D03*
X1166860Y265181D03*
X1159360Y261244D03*
X1166860Y257307D03*
X1159360Y253370D03*
X1166860Y249433D03*
X1159360Y245496D03*
X1166860Y241559D03*
X1159360Y237622D03*
X1166860Y233685D03*
X1159360Y229748D03*
X291660Y230002D03*
X299160Y234096D03*
X291660Y237876D03*
X299160Y241970D03*
X291660Y245750D03*
X299160Y249844D03*
X291660Y253624D03*
X299160Y257718D03*
X291660Y261498D03*
X299160Y265592D03*
X291660Y269372D03*
X299160Y273466D03*
X291660Y277246D03*
X299160Y281340D03*
X291660Y285120D03*
X299160Y289214D03*
X291660Y292994D03*
X299160Y297088D03*
X291660Y300868D03*
X299160Y304962D03*
X291660Y308742D03*
X299160Y312836D03*
X291660Y316616D03*
X299160Y320710D03*
X291660Y324490D03*
X299160Y328584D03*
X291660Y332364D03*
X299160Y336458D03*
X291660Y340238D03*
X299160Y344332D03*
X291660Y348112D03*
X299160Y352206D03*
X291660Y355986D03*
X299160Y360080D03*
X291660Y363860D03*
X299160Y367954D03*
X291660Y371734D03*
X299160Y375828D03*
X291660Y379608D03*
X299160Y383702D03*
X291660Y387482D03*
X299160Y391576D03*
X291660Y395356D03*
X299160Y399450D03*
X291660Y403230D03*
X299160Y407324D03*
X291660Y411104D03*
X299160Y415198D03*
X291660Y418978D03*
X299160Y423072D03*
X291660Y426852D03*
X299160Y430946D03*
X291660Y434726D03*
X299160Y438820D03*
X291660Y442600D03*
X299160Y446694D03*
X291660Y450474D03*
X299160Y454569D03*
X291660Y458348D03*
X299160Y462443D03*
X291660Y466222D03*
X299160Y470317D03*
X291660Y474096D03*
X299160Y478191D03*
X291660Y497876D03*
X299160Y501813D03*
X291660Y505750D03*
X299160Y509687D03*
X291660Y513624D03*
X299160Y517561D03*
X291660Y521498D03*
X299160Y525435D03*
X291660Y529372D03*
X299160Y533309D03*
X291660Y537246D03*
X299160Y541183D03*
X291660Y545120D03*
X299160Y549057D03*
X291660Y552994D03*
X299160Y556931D03*
X291660Y560868D03*
X299160Y564805D03*
X291660Y568742D03*
X299160Y572679D03*
X291660Y576616D03*
X299160Y580553D03*
X291660Y584490D03*
X299160Y588427D03*
X291660Y592364D03*
X299160Y596301D03*
X291660Y600238D03*
X299160Y604175D03*
X291660Y608112D03*
X299160Y612049D03*
X291660Y615986D03*
X299160Y619923D03*
X291660Y623860D03*
X299160Y627797D03*
X291660Y631734D03*
X299160Y635671D03*
X291660Y639608D03*
X299160Y643545D03*
X291660Y647482D03*
X299160Y651419D03*
X291660Y655356D03*
X299160Y659293D03*
X291660Y663230D03*
X299160Y667167D03*
X291660Y671104D03*
X299160Y675041D03*
X291660Y678978D03*
X299160Y682915D03*
X291660Y686852D03*
X299160Y690789D03*
X291660Y694726D03*
X299160Y698663D03*
X291660Y702600D03*
X299160Y706537D03*
X291660Y710474D03*
X299160Y714411D03*
X276640Y230159D03*
X284140Y234096D03*
X276640Y238033D03*
X284140Y241970D03*
X276640Y245907D03*
X284140Y249844D03*
X276640Y253781D03*
X284140Y257718D03*
X276640Y261655D03*
X284140Y265592D03*
X276640Y269529D03*
X284140Y273466D03*
X276640Y277403D03*
X284140Y281340D03*
X276640Y285277D03*
X284140Y289214D03*
X276640Y293151D03*
X284140Y297088D03*
X276640Y301025D03*
X284140Y304962D03*
X276640Y308899D03*
X284140Y312836D03*
X276640Y316773D03*
X284140Y320710D03*
X276640Y324647D03*
X284140Y328584D03*
X276640Y332521D03*
X284140Y336458D03*
X276640Y340395D03*
X284140Y344332D03*
X276640Y348269D03*
X284140Y352206D03*
X276640Y356143D03*
X284140Y360080D03*
X276640Y364017D03*
X284140Y367954D03*
X276640Y371891D03*
X284140Y375828D03*
X276640Y379765D03*
X284140Y383702D03*
X276640Y387639D03*
X284140Y391576D03*
X276640Y395513D03*
X284140Y399450D03*
X276640Y403387D03*
X284140Y407324D03*
X276640Y411261D03*
X284140Y415198D03*
X276640Y419135D03*
X284140Y423072D03*
X276640Y427009D03*
X284140Y430946D03*
X276640Y434883D03*
X284140Y438820D03*
X276640Y442757D03*
X284140Y446694D03*
X276640Y450631D03*
X284140Y454569D03*
X276640Y458506D03*
X284140Y462443D03*
X276640Y466380D03*
X284140Y470317D03*
X276640Y474254D03*
X284140Y478191D03*
X276640Y497876D03*
X284140Y501813D03*
X276640Y505750D03*
X284140Y509687D03*
X276640Y513624D03*
X284140Y517561D03*
X276640Y521498D03*
X284140Y525435D03*
X276640Y529372D03*
X284140Y533309D03*
X276640Y537246D03*
X284140Y541183D03*
X276640Y545120D03*
X284140Y549057D03*
X276640Y552994D03*
X284140Y556931D03*
X276640Y560868D03*
X284140Y564805D03*
X276640Y568742D03*
X284140Y572679D03*
X276640Y576616D03*
X284140Y580553D03*
X276640Y584490D03*
X284140Y588427D03*
X276640Y592364D03*
X284140Y596301D03*
X276640Y600238D03*
X284140Y604175D03*
X276640Y608112D03*
X284140Y612049D03*
X276640Y615986D03*
X284140Y619923D03*
X276640Y623860D03*
X284140Y627797D03*
X276640Y631734D03*
X284140Y635671D03*
X276640Y639608D03*
X284140Y643545D03*
X276640Y647482D03*
X284140Y651419D03*
X276640Y655356D03*
X284140Y659293D03*
X276640Y663230D03*
X284140Y667167D03*
X276640Y671104D03*
X284140Y675041D03*
X276640Y678978D03*
X284140Y682915D03*
X276640Y686852D03*
X284140Y690789D03*
X276640Y694726D03*
X284140Y698663D03*
X276640Y702600D03*
X284140Y706537D03*
X276640Y710474D03*
X284140Y714411D03*
G54D250*
X690472Y987244D03*
Y994331D03*
X744502Y987246D03*
Y994333D03*
X802102Y987346D03*
Y994433D03*
X856802Y987446D03*
Y994533D03*
G54D251*
X793726Y517958D03*
X791757D03*
X789789D03*
X787820D03*
Y523470D03*
X789789D03*
X791757D03*
X793726D03*
X755931Y534494D03*
X753962D03*
X751994D03*
X750025D03*
Y540006D03*
X751994D03*
X753962D03*
X755931D03*
X777191Y439612D03*
X779159D03*
X781128D03*
X783096D03*
Y434100D03*
X781128D03*
X779159D03*
X777191D03*
X766167Y439612D03*
X768135D03*
X770104D03*
X772072D03*
Y434100D03*
X770104D03*
X768135D03*
X766167D03*
X755537Y439612D03*
X757506D03*
X759474D03*
X761443D03*
Y434100D03*
X759474D03*
X757506D03*
X755537D03*
X744907Y439612D03*
X746876D03*
X748844D03*
X750813D03*
Y434100D03*
X748844D03*
X746876D03*
X744907D03*
X740576Y517958D03*
X738608D03*
X736639D03*
X734671D03*
Y523470D03*
X736639D03*
X738608D03*
X740576D03*
X793726Y451029D03*
X791757D03*
X789789D03*
X787820D03*
Y456541D03*
X789789D03*
X791757D03*
X793726D03*
X803569Y630163D03*
X801600D03*
X799631D03*
X797663D03*
Y635675D03*
X799631D03*
X801600D03*
X803569D03*
X740576Y451029D03*
X738608D03*
X736639D03*
X734671D03*
Y456541D03*
X736639D03*
X738608D03*
X740576D03*
X793726Y697092D03*
X791757D03*
X789789D03*
X787820D03*
Y702604D03*
X789789D03*
X791757D03*
X793726D03*
X744513Y706935D03*
X742545D03*
X740576D03*
X738608D03*
Y712446D03*
X740576D03*
X742545D03*
X744513D03*
X793726Y630163D03*
X791757D03*
X789789D03*
X787820D03*
Y635675D03*
X789789D03*
X791757D03*
X793726D03*
X756324Y714809D03*
X754356D03*
X752387D03*
X750419D03*
Y720320D03*
X752387D03*
X754356D03*
X756324D03*
X749238Y616383D03*
X751206D03*
X753175D03*
X755143D03*
Y610872D03*
X753175D03*
X751206D03*
X749238D03*
X821131Y520381D03*
X819163D03*
X817194D03*
X815226D03*
Y525892D03*
X817194D03*
X819163D03*
X821131D03*
X761443Y616383D03*
X763411D03*
X765380D03*
X767348D03*
Y610872D03*
X765380D03*
X763411D03*
X761443D03*
X773647Y616383D03*
X775616D03*
X777584D03*
X779553D03*
Y610872D03*
X777584D03*
X775616D03*
X773647D03*
X738608Y615990D03*
X740576D03*
X742545D03*
X744513D03*
Y610478D03*
X742545D03*
X740576D03*
X738608D03*
X770104Y714809D03*
X768135D03*
X766167D03*
X764198D03*
Y720320D03*
X766167D03*
X768135D03*
X770104D03*
X785065Y714809D03*
X783096D03*
X781128D03*
X779159D03*
Y720320D03*
X781128D03*
X783096D03*
X785065D03*
X803569Y451029D03*
X801600D03*
X799631D03*
X797663D03*
Y456541D03*
X799631D03*
X801600D03*
X803569D03*
X769317Y534494D03*
X767348D03*
X765380D03*
X763411D03*
Y540006D03*
X765380D03*
X767348D03*
X769317D03*
X783490Y534494D03*
X781521D03*
X779553D03*
X777584D03*
Y540006D03*
X779553D03*
X781521D03*
X783490D03*
G54D252*
X755852Y525832D03*
X753883D03*
X751915D03*
X749946D03*
Y529769D03*
X751915D03*
X753883D03*
X755852D03*
X766246Y447880D03*
X768214D03*
X770183D03*
X772151D03*
Y443943D03*
X770183D03*
X768214D03*
X766246D03*
X769238Y525832D03*
X767269D03*
X765301D03*
X763332D03*
Y529769D03*
X765301D03*
X767269D03*
X769238D03*
X755222Y447880D03*
X757191D03*
X759159D03*
X761128D03*
Y443943D03*
X759159D03*
X757191D03*
X755222D03*
X744592Y447880D03*
X746561D03*
X748529D03*
X750498D03*
Y443943D03*
X748529D03*
X746561D03*
X744592D03*
X756639Y705360D03*
X754671D03*
X752702D03*
X750734D03*
Y709297D03*
X752702D03*
X754671D03*
X756639D03*
X749317Y625045D03*
X751285D03*
X753254D03*
X755222D03*
Y621108D03*
X753254D03*
X751285D03*
X749317D03*
X761521Y625045D03*
X763490D03*
X765458D03*
X767427D03*
Y621108D03*
X765458D03*
X763490D03*
X761521D03*
X737899Y625045D03*
X739868D03*
X741836D03*
X743805D03*
Y621108D03*
X741836D03*
X739868D03*
X737899D03*
X773726Y625045D03*
X775694D03*
X777663D03*
X779631D03*
Y621108D03*
X777663D03*
X775694D03*
X773726D03*
X783017Y525832D03*
X781049D03*
X779080D03*
X777112D03*
Y529769D03*
X779080D03*
X781049D03*
X783017D03*
X784986Y705360D03*
X783017D03*
X781049D03*
X779080D03*
Y709297D03*
X781049D03*
X783017D03*
X784986D03*
X769631Y705360D03*
X767663D03*
X765694D03*
X763726D03*
Y709297D03*
X765694D03*
X767663D03*
X769631D03*
X777269Y447880D03*
X779238D03*
X781206D03*
X783175D03*
Y443943D03*
X781206D03*
X779238D03*
X777269D03*
G54D260*
X1218071Y867244D03*
X1208071Y877244D03*
Y867244D03*
X1198071Y877244D03*
Y867244D03*
X1188071Y877244D03*
Y867244D03*
X1178071Y877244D03*
Y867244D03*
G54D270*
X977332Y998472D03*
X916332D03*
G54D311*
X1218071Y877244D03*
G54D332*
X45102Y471890D03*
X107602Y484390D03*
Y496890D03*
Y534390D03*
Y546890D03*
X95102D03*
X82602D03*
X70102D03*
X57602D03*
X45102D03*
Y484390D03*
X111102Y277890D03*
X123602D03*
X161102D03*
Y290390D03*
Y327890D03*
Y352890D03*
X148602D03*
X136102D03*
X123602D03*
X111102D03*
Y290390D03*
X43102Y277890D03*
X63102D03*
X93102D03*
Y327890D03*
Y340390D03*
X83102D03*
X73102D03*
X63102D03*
X53102D03*
X43102D03*
Y199890D03*
Y149890D03*
X55602D03*
X80602D03*
X93102D03*
X105602D03*
X118102D03*
X143102D03*
X155602D03*
X168102D03*
Y162390D03*
Y174890D03*
Y187390D03*
Y199890D03*
G54D333*
X666500Y92200D03*
X674492D03*
X686500D03*
X694492D03*
X706500D03*
X714492D03*
X726500D03*
X734492D03*
X746500D03*
X754492D03*
X766500D03*
X774492D03*
X786500D03*
X794492D03*
X806500D03*
X814492D03*
X826500D03*
X834492D03*
X846500D03*
X854492D03*
X670476Y99090D03*
X680476D03*
X690476D03*
X700476D03*
X710476D03*
X720476D03*
X730476D03*
X740476D03*
X750476D03*
X760476D03*
X770476D03*
X780476D03*
X790476D03*
X800476D03*
X810476D03*
X820476D03*
X830476D03*
X840476D03*
X850476D03*
X860476D03*
X676500Y105980D03*
X684492D03*
X696500D03*
X704492D03*
X716500D03*
X724492D03*
X736500D03*
X744492D03*
X756500D03*
X764492D03*
X776500D03*
X784492D03*
X796500D03*
X804492D03*
X816500D03*
X824492D03*
X836500D03*
X844492D03*
X856500D03*
X864492D03*
X666500Y115822D03*
X674492D03*
X670476Y122712D03*
X676500Y129602D03*
X684492D03*
X686500Y115822D03*
X694492D03*
X706500D03*
X714492D03*
X726500D03*
X734492D03*
X746500D03*
X754492D03*
X766500D03*
X774492D03*
X786500D03*
X794492D03*
X806500D03*
X814492D03*
X826500D03*
X834492D03*
X846500D03*
X854492D03*
X696500Y129602D03*
X704492D03*
X716500D03*
X724492D03*
X736500D03*
X744492D03*
X756500D03*
X764492D03*
X776500D03*
X784492D03*
X796500D03*
X804492D03*
X816500D03*
X824492D03*
X836500D03*
X844492D03*
X856500D03*
X864492D03*
X680476Y122712D03*
X690476D03*
X700476D03*
X710476D03*
X720476D03*
X730476D03*
X740476D03*
X750476D03*
X760476D03*
X770476D03*
X780476D03*
X790476D03*
X800476D03*
X810476D03*
X820476D03*
X830476D03*
X840476D03*
X850476D03*
X860476D03*
X910791Y104838D03*
X898587D03*
X886382D03*
X910791Y112712D03*
Y120586D03*
Y128460D03*
X898587Y112712D03*
Y120586D03*
Y128460D03*
X886382Y112712D03*
Y120586D03*
Y128460D03*
X650555Y104838D03*
X638350D03*
X626146D03*
X650555Y112712D03*
Y120586D03*
Y128460D03*
X638350Y112712D03*
Y120586D03*
Y128460D03*
X626146Y112712D03*
Y120586D03*
Y128460D03*
X314000Y92200D03*
X321992D03*
X334000D03*
X341992D03*
X354000D03*
X361992D03*
X374000D03*
X381992D03*
X394000D03*
X401992D03*
X414000D03*
X421992D03*
X434000D03*
X441992D03*
X454000D03*
X461992D03*
X474000D03*
X481992D03*
X494000D03*
X501992D03*
X317976Y99090D03*
X327976D03*
X337976D03*
X347976D03*
X357976D03*
X367976D03*
X377976D03*
X387976D03*
X397976D03*
X407976D03*
X417976D03*
X427976D03*
X437976D03*
X447976D03*
X457976D03*
X467976D03*
X477976D03*
X487976D03*
X497976D03*
X507976D03*
X324000Y105980D03*
X331992D03*
X344000D03*
X351992D03*
X364000D03*
X371992D03*
X384000D03*
X391992D03*
X404000D03*
X411992D03*
X424000D03*
X431992D03*
X444000D03*
X451992D03*
X464000D03*
X471992D03*
X484000D03*
X491992D03*
X504000D03*
X511992D03*
X314000Y115822D03*
X321992D03*
X317976Y122712D03*
X324000Y129602D03*
X331992D03*
X334000Y115822D03*
X341992D03*
X354000D03*
X361992D03*
X374000D03*
X381992D03*
X394000D03*
X401992D03*
X414000D03*
X421992D03*
X434000D03*
X441992D03*
X454000D03*
X461992D03*
X474000D03*
X481992D03*
X494000D03*
X501992D03*
X344000Y129602D03*
X351992D03*
X364000D03*
X371992D03*
X384000D03*
X391992D03*
X404000D03*
X411992D03*
X424000D03*
X431992D03*
X444000D03*
X451992D03*
X464000D03*
X471992D03*
X484000D03*
X491992D03*
X504000D03*
X511992D03*
X327976Y122712D03*
X337976D03*
X347976D03*
X357976D03*
X367976D03*
X377976D03*
X387976D03*
X397976D03*
X407976D03*
X417976D03*
X427976D03*
X437976D03*
X447976D03*
X457976D03*
X467976D03*
X477976D03*
X487976D03*
X497976D03*
X507976D03*
X558291Y104838D03*
X546087D03*
X533882D03*
X558291Y112712D03*
Y120586D03*
Y128460D03*
X546087Y112712D03*
Y120586D03*
Y128460D03*
X533882Y112712D03*
Y120586D03*
Y128460D03*
X298055Y104838D03*
X285850D03*
X273646D03*
X298055Y112712D03*
Y120586D03*
Y128460D03*
X285850Y112712D03*
Y120586D03*
Y128460D03*
X273646Y112712D03*
Y120586D03*
Y128460D03*
G54D334*
X1155600Y456126D03*
X287900Y488033D03*
X1000070Y1014606D02*
Y1011063D01*
X1021329Y1014606D02*
Y1011063D01*
G54D336*
X1128631Y720614D03*
Y220693D03*
X314869Y223545D03*
Y723466D03*
G54D337*
X948254Y699257D03*
Y709257D03*
Y719257D03*
Y729257D03*
Y739257D03*
G54D346*
X900408Y966372D03*
Y1031038D03*
X632691Y966372D03*
Y1031038D03*
G54D348*
X1057735Y183513D03*
X1002432Y1005276D03*
X1007944D03*
X1013455D03*
X1018967D03*
G54D349*
X1161672Y86663D02*
Y89419D01*
X489986Y664415D03*
X493923D03*
X486167D03*
X497742D03*
X503765Y671502D03*
X499828D03*
X507584D03*
X496009D03*
X513608Y664415D03*
X517545D03*
X509789D03*
X521364D03*
X544710Y671502D03*
X540773D03*
X548529D03*
X536954D03*
X554553Y664415D03*
X558490D03*
X550734D03*
X562309D03*
X568332Y671502D03*
X564395D03*
X572151D03*
X560576D03*
X578175Y664415D03*
X582112D03*
X574356D03*
X585931D03*
X591954Y671502D03*
X588017D03*
X595773D03*
X584198D03*
X601797Y664415D03*
X605734D03*
X597978D03*
X609553D03*
X615576Y671502D03*
X611639D03*
X619395D03*
X607820D03*
X625419Y664415D03*
X629356D03*
X621600D03*
X633175D03*
X639198Y671502D03*
X635261D03*
X643017D03*
X631443D03*
X649041Y664415D03*
X652978D03*
X645222D03*
X656797D03*
X673057Y671895D03*
X669120D03*
X676876D03*
X665301D03*
X686443Y664809D03*
X690380D03*
X682624D03*
X694198D03*
X701797Y672289D03*
X697860D03*
X705616D03*
X694041D03*
X709409Y972913D03*
X713346D03*
X705591D03*
X717165D03*
X718726Y963234D03*
X714789D03*
X722545D03*
X710970D03*
X726206Y972683D03*
X730143D03*
X722387D03*
X733962D03*
X735394Y963071D03*
X731457D03*
X739213D03*
X727638D03*
X768465Y972913D03*
X772402D03*
X764646D03*
X776220D03*
X777781Y963234D03*
X773844D03*
X781600D03*
X770025D03*
X785261Y972683D03*
X789198D03*
X781443D03*
X793017D03*
X794449Y963071D03*
X790512D03*
X798268D03*
X786693D03*
X656521Y973076D03*
X660458D03*
X652702D03*
X664277D03*
X665576Y963234D03*
X661639D03*
X669395D03*
X657820D03*
X673057Y973076D03*
X676994D03*
X669238D03*
X680813D03*
X682638Y963465D03*
X678701D03*
X686457D03*
X674882D03*
X822008Y972913D03*
X825945D03*
X818189D03*
X829764D03*
X830931Y963234D03*
X826994D03*
X834750D03*
X823175D03*
X838411Y972683D03*
X842348D03*
X834592D03*
X846167D03*
X847598Y963071D03*
X843661D03*
X851417D03*
X839843D03*
G54D350*
X695891Y529218D03*
X495891Y607171D03*
G54D351*
X1013849Y1035276D02*
X1007550D01*
G54D374*
X166602Y698524D02*
Y701476D01*
X154398Y698524D02*
Y701476D01*
X212602Y698524D02*
Y701476D01*
X200398Y698524D02*
Y701476D01*
X260102Y696024D02*
Y698976D01*
X247898Y696024D02*
Y698976D01*
X895398Y832976D02*
Y830024D01*
X907602Y832976D02*
Y830024D01*
X1161024Y1017898D02*
X1163976D01*
X1161024Y1030102D02*
X1163976D01*
X1228976Y962602D02*
X1226024D01*
X1228976Y950398D02*
X1226024D01*
G54D378*
X512866Y224812D03*
X670858D03*
G54D379*
X1058661Y976961D03*
X1063661Y986961D03*
X1068661Y976961D03*
X1073661Y986961D03*
X1078661Y976961D03*
X1083661Y986961D03*
X1088661Y976961D03*
X1093661Y986961D03*
X1195394Y996850D03*
X1184488D03*
X1173583D03*
X1162677D03*
X1151772D03*
X1189961Y1008031D03*
X1179055D03*
X1168150D03*
X1157244D03*
G54D380*
X100000Y1000000D03*
X590000D03*
X100000Y390000D03*
X1210000D03*
X590000Y105000D03*
X1210000D03*
X100000D03*
X590000Y390000D03*
X1210000Y910000D03*
G54D381*
X139370Y689858D03*
Y699858D03*
Y709858D03*
Y719858D03*
X186614Y689858D03*
Y699858D03*
Y709858D03*
Y719858D03*
X233858Y689858D03*
Y699858D03*
Y709858D03*
Y719858D03*
X1044566Y965110D03*
X1107755D03*
X1216496Y144567D03*
Y215433D03*
Y241811D03*
Y312677D03*
G54D382*
X978167Y121824D03*
X958167D03*
Y101824D03*
X978167D03*
X1025167Y121824D03*
X1005167D03*
Y101824D03*
X1025167D03*
X322902Y905253D03*
X302902D03*
Y885253D03*
X322902D03*
X322602Y947627D03*
X302602D03*
Y927627D03*
X322602D03*
G54D383*
X1222795Y1002441D03*
X1124409D03*
G54D384*
X1193858Y655591D03*
G54D385*
Y672126D03*
Y688661D03*
Y705197D03*
Y721732D03*
Y738268D03*
Y754803D03*
Y771339D03*
Y787874D03*
Y804409D03*
Y820945D03*
Y837480D03*
X1215512Y655591D03*
Y672126D03*
Y688661D03*
Y705197D03*
Y721732D03*
Y738268D03*
Y754803D03*
Y771339D03*
Y787874D03*
Y804409D03*
Y820945D03*
Y837480D03*
G54D386*
X1213701Y637087D03*
X0Y0D02*
M02*
