*
*
G04 PADS Layout (Build Number 2007.45.1) generated Gerber (RS-274-X) file*
G04 PC Version=2.1*
*
%IN "ibob2_work2.pcb"*%
*
%MOIN*%
*
%FSLAX35Y35*%
*
*
*
*
G04 PC Standard Apertures*
*
*
G04 Thermal Relief Aperture macro.*
%AMTER*
1,1,$1,0,0*
1,0,$1-$2,0,0*
21,0,$3,$4,0,0,45*
21,0,$3,$4,0,0,135*
%
*
*
G04 Annular Aperture macro.*
%AMANN*
1,1,$1,0,0*
1,0,$2,0,0*
%
*
*
G04 Odd Aperture macro.*
%AMODD*
1,1,$1,0,0*
1,0,$1-0.005,0,0*
%
*
*
G04 PC Custom Aperture Macros*
*
*
*
*
*
*
G04 PC Aperture Table*
*
%ADD010C,0.01*%
%ADD014C,0.03937*%
%ADD015C,0.06*%
%ADD016R,0.06102X0.06102*%
%ADD017R,0.02362X0.02362*%
%ADD018R,0.04528X0.04528*%
%ADD019R,0.0374X0.0374*%
%ADD020R,0.03937X0.03937*%
%ADD021R,0.01181X0.01181*%
%ADD022C,0.01181*%
%ADD023R,0.01102X0.01102*%
%ADD024R,0.01693X0.01693*%
%ADD025R,0.01969X0.01969*%
%ADD026C,0.01969*%
%ADD027R,0.08661X0.08661*%
%ADD028R,0.01205X0.01205*%
%ADD029R,0.00984X0.00984*%
%ADD030R,0.07087X0.07087*%
%ADD031R,0.09252X0.09252*%
%ADD032R,0.01772X0.01772*%
%ADD033R,0.04724X0.04724*%
%ADD034C,0.01378*%
%ADD035R,0.12402X0.12402*%
%ADD036R,0.035X0.035*%
%ADD037R,0.05118X0.05118*%
%ADD038R,0.05315X0.05315*%
%ADD039R,0.01575X0.01575*%
%ADD040C,0.01772*%
%ADD041R,0.04921X0.04921*%
%ADD042R,0.03346X0.03346*%
%ADD043R,0.05X0.05*%
%ADD044R,0.017X0.017*%
%ADD045R,0.06693X0.06693*%
%ADD046R,0.00787X0.00787*%
%ADD047R,0.05512X0.05512*%
%ADD048R,0.02559X0.02559*%
%ADD049R,0.07X0.07*%
%ADD050R,0.08465X0.08465*%
%ADD051C,0.02559*%
%ADD052R,0.04134X0.04134*%
%ADD053R,0.0315X0.0315*%
%ADD054R,0.04331X0.04331*%
%ADD055R,0.07874X0.07874*%
%ADD056R,0.09843X0.09843*%
%ADD057R,0.11417X0.11417*%
*
*
*
*
G04 PC Copper Outlines (0)*
G04 Layer Name ibob2_work2.pcb - dark (0)*
%LPD*%
*
*
G04 PC Area=_PSI_PAC_SOP50P490X110-11N_010_N162000000*
G75*
G36*
G01*
X902874Y502205D02*
X895551D01*
Y497008D01*
X902874D01*
Y502205D01*
G37*
G74*
*
*
G04 PC Copper Outlines (1)*
G04 Layer Name ibob2_work2.pcb - dark (1)*
%LPD*%
*
*
G04 PC Area=_PSI_PAC_SOP50P490X110-11N_010_P162000000*
G75*
G36*
G01*
X905000Y769843D02*
X912323D01*
Y775039D01*
X905000D01*
Y769843D01*
G37*
G74*
*
*
G04 PC Copper Outlines (2)*
G04 Layer Name ibob2_work2.pcb - dark (2)*
%LPD*%
*
*
G04 PC Area=_PSI_PAC_SOP50P490X110-11N_010_P162000000*
G75*
G36*
G01*
X1253375Y616700D02*
X1260698D01*
Y621897D01*
X1253375D01*
Y616700D01*
G37*
G74*
*
*
G04 PC Copper Outlines (3)*
G04 Layer Name ibob2_work2.pcb - dark (3)*
%LPD*%
*
*
G04 PC Area=_PSI_PAC_SOP50P490X110-11N_010_P324000000*
G75*
G36*
G01*
X271890Y497913D02*
Y505236D01*
X266693D01*
Y497913D01*
X271890D01*
G37*
G74*
*
*
G04 PC Copper Outlines (4)*
G04 Layer Name ibob2_work2.pcb - dark (4)*
%LPD*%
*
*
G04 PC Area=_PSI_PAC_DPAK-P950X240-3N_002_*
G75*
G36*
G01*
X161652Y745034D02*
Y738302D01*
X168148D01*
Y745034D01*
X161652D01*
G37*
G74*
*
*
G04 PC Copper Outlines (5)*
G04 Layer Name ibob2_work2.pcb - dark (5)*
%LPD*%
*
*
G04 PC Area=_PSI_PAC_DPAK-P950X240-3N_002_*
G75*
G36*
G01*
X172479Y745034D02*
Y738302D01*
X178975D01*
Y745034D01*
X172479D01*
G37*
G74*
*
*
G04 PC Copper Outlines (6)*
G04 Layer Name ibob2_work2.pcb - dark (6)*
%LPD*%
*
*
G04 PC Area=_PSI_PAC_DPAK-P950X240-3N_002_*
G75*
G36*
G01*
X161652Y733813D02*
Y727081D01*
X168148D01*
Y733813D01*
X161652D01*
G37*
G74*
*
*
G04 PC Copper Outlines (7)*
G04 Layer Name ibob2_work2.pcb - dark (7)*
%LPD*%
*
*
G04 PC Area=_PSI_PAC_DPAK-P950X240-3N_002_*
G75*
G36*
G01*
X172479Y733813D02*
Y727081D01*
X178975D01*
Y733813D01*
X172479D01*
G37*
G74*
*
*
G04 PC Copper Outlines (8)*
G04 Layer Name ibob2_work2.pcb - dark (8)*
%LPD*%
*
*
G04 PC Area=_PSI_PAC_QFN50P300X300X100-13N_012_P162000000*
G75*
G36*
G01*
X205640Y1000534D02*
X209065D01*
Y1003959D01*
X205640D01*
Y1000534D01*
G37*
G74*
*
*
G04 PC Copper Outlines (9)*
G04 Layer Name ibob2_work2.pcb - dark (9)*
%LPD*%
*
*
G04 PC Area=_PSI_PAC_QFN50P300X300X100-13N_012_*
G75*
G36*
G01*
X1035555Y196705D02*
Y193280D01*
X1038980D01*
Y196705D01*
X1035555D01*
G37*
G74*
*
*
G04 PC Copper Outlines (10)*
G04 Layer Name ibob2_work2.pcb - dark (10)*
%LPD*%
*
*
G04 PC Area=_PSI_PAC_QFN50P300X300X100-13N_012_*
G75*
G36*
G01*
X1082555Y196705D02*
Y193280D01*
X1085980D01*
Y196705D01*
X1082555D01*
G37*
G74*
*
*
G04 PC Copper Outlines (11)*
G04 Layer Name ibob2_work2.pcb - dark (11)*
%LPD*%
*
*
G04 PC Area=_PSI_PAC_QFN50P300X300X90-17N_016_P324000000*
G75*
G36*
G01*
X515276Y724094D02*
Y727874D01*
X511496D01*
Y724094D01*
X515276D01*
G37*
G74*
*
*
G04 PC Copper Outlines (12)*
G04 Layer Name ibob2_work2.pcb - dark (12)*
%LPD*%
*
*
G04 PC Area=_PSI_PAC_QFN50P300X300X90-17N_016_P324000000*
G75*
G36*
G01*
X515276Y668976D02*
Y672756D01*
X511496D01*
Y668976D01*
X515276D01*
G37*
G74*
*
*
G04 PC Copper Outlines (13)*
G04 Layer Name ibob2_work2.pcb - dark (13)*
%LPD*%
*
*
G04 PC Area=Custom_Thermal*
*
G04 PC Custom Flashes*
G04 Layer Name ibob2_work2.pcb - flashes*
%LPD*%
*
*
G04 PC Circuitry*
G04 Layer Name ibob2_work2.pcb - circuitry*
%LPD*%
*
G54D10*
G54D14*
G01X590157Y664961D03*
X735827Y519291D03*
X818504Y566535D03*
X869685Y625591D03*
X1096063Y525197D03*
X950394Y670866D03*
X929131Y447847D03*
X1013383Y363595D03*
X929134Y607874D03*
X214173Y865748D03*
X288976Y790945D03*
G54D15*
X1171751Y525650D03*
X1173508Y459146D03*
X850000Y468110D03*
X840157D03*
X818504D03*
X804724Y462205D03*
X851969Y647244D03*
G54D16*
X472343Y684803D02*
X474508D01*
X472343Y674803D02*
X474508D01*
X472343Y664803D02*
X474508D01*
X489272D02*
X491437D01*
X489272Y674803D02*
X491437D01*
X489272Y684803D02*
X491437D01*
X472343Y739921D02*
X474508D01*
X472343Y729921D02*
X474508D01*
X472343Y719921D02*
X474508D01*
X489272D02*
X491437D01*
X489272Y729921D02*
X491437D01*
X489272Y739921D02*
X491437D01*
X472343Y647402D02*
X474508D01*
X472343Y637402D02*
X474508D01*
X472343Y627402D02*
X474508D01*
X489272D02*
X491437D01*
X489272Y637402D02*
X491437D01*
X489272Y647402D02*
X491437D01*
X472343Y606063D02*
X474508D01*
X472343Y596063D02*
X474508D01*
X472343Y586063D02*
X474508D01*
X489272D02*
X491437D01*
X489272Y596063D02*
X491437D01*
X489272Y606063D02*
X491437D01*
G54D17*
X265453Y483858D02*
X265650D01*
X268996D02*
X269193D01*
X1071303Y246016D02*
X1071106D01*
X1067760D02*
X1067563D01*
X1275197Y956398D02*
Y956594D01*
Y959941D02*
Y960138D01*
X448482Y888035D02*
Y887838D01*
Y884491D02*
Y884294D01*
X1090551Y366437D02*
Y366240D01*
Y362894D02*
Y362697D01*
X1101969Y321555D02*
Y321358D01*
Y318012D02*
Y317815D01*
X1059449Y366437D02*
Y366240D01*
Y362894D02*
Y362697D01*
X1133465Y321555D02*
Y321358D01*
Y318012D02*
Y317815D01*
X499705Y684646D02*
X499902D01*
X503248D02*
X503445D01*
X498917Y740157D02*
X499114D01*
X502461D02*
X502657D01*
X968279Y933119D03*
X964736D03*
X961192D03*
Y926119D03*
X964736D03*
X968279D03*
Y920119D03*
X964736D03*
X961192D03*
X968279Y908019D03*
X964736D03*
X961192D03*
Y914119D03*
X964736D03*
X968279D03*
X937192Y889119D03*
X940736D03*
X944279D03*
X937192Y882119D03*
X940736D03*
X944279D03*
X937192Y875119D03*
X940736D03*
X944279D03*
X937192Y869119D03*
X940736D03*
X944279D03*
X300060Y972357D03*
X303603D03*
X307146D03*
X450360D03*
X453903D03*
X457446D03*
X961192Y902119D03*
X964736D03*
X968279D03*
Y896119D03*
X964736D03*
X961192D03*
Y952119D03*
X964736D03*
X968279D03*
Y946119D03*
X964736D03*
X961192D03*
Y939119D03*
X964736D03*
X968279D03*
X539931Y963057D03*
X543475D03*
X654703Y951829D03*
Y948286D03*
X631475Y1049857D03*
X627931D03*
X644175D03*
X640631D03*
X665703Y951829D03*
Y948286D03*
X462205Y684843D03*
Y688386D03*
X544475Y982057D03*
X540931D03*
X544475Y976057D03*
X540931D03*
X543475Y957557D03*
X539931D03*
X543475Y951557D03*
X539931D03*
X540931Y987557D03*
X544475D03*
X639173Y877559D03*
X635630D03*
Y871654D03*
X639173D03*
X584449D03*
X587992D03*
Y877559D03*
X584449D03*
X536811D03*
X533268D03*
Y871654D03*
X536811D03*
X544975Y1000557D03*
X541431D03*
X544975Y1006557D03*
X541431D03*
X544975Y1031057D03*
X541431D03*
X544975Y1025057D03*
X541431D03*
Y1012057D03*
X544975D03*
X541431Y1036557D03*
X544975D03*
X675703Y951829D03*
Y948286D03*
X619075Y1049857D03*
X615531D03*
X606275D03*
X602731D03*
X685703Y951829D03*
Y948286D03*
X462205Y739567D03*
Y743110D03*
X544975Y1017557D03*
X541431D03*
X544975Y1042057D03*
X541431D03*
X583931Y1000557D03*
X587475D03*
X584431Y1024557D03*
X587975D03*
X995268Y748220D03*
Y751764D03*
X972476Y321879D03*
X968933D03*
X1044739Y407365D03*
X1048282D03*
X1051825D03*
Y413365D03*
X1048282D03*
X1044739D03*
X1051825Y400365D03*
X1048282D03*
X1044739D03*
X1054661Y240016D03*
X1058205D03*
X1033858Y248228D03*
Y244685D03*
X994488Y248228D03*
Y244685D03*
X1010236Y248228D03*
Y244685D03*
X1018110Y248228D03*
Y244685D03*
X1071205Y240016D03*
X1067661D03*
X1011614Y688583D03*
X1008071D03*
X922638Y607874D03*
X919094D03*
Y558661D03*
X922638D03*
X933071Y694291D03*
Y697835D03*
X938976Y694291D03*
Y697835D03*
X921260Y694291D03*
Y697835D03*
X915354Y694291D03*
Y697835D03*
X927165Y694291D03*
Y697835D03*
X1102362Y352165D03*
Y355709D03*
X1083858Y402165D03*
Y405709D03*
X1124016Y360827D03*
Y364370D03*
X927953Y621063D03*
Y617520D03*
X956693Y697835D03*
Y694291D03*
X950787Y697835D03*
Y694291D03*
X1062598Y395472D03*
Y391929D03*
X1112402Y362205D03*
X1108858D03*
X1058205Y246016D03*
X1054661D03*
X944882Y697835D03*
Y694291D03*
X911811Y657677D03*
Y654134D03*
X1021260Y473819D03*
Y470276D03*
X593703Y990057D02*
X597443D01*
X593703Y985057D02*
X597443D01*
X593703Y980057D02*
X597443D01*
X593703Y975057D02*
X597443D01*
X614963D02*
X618703D01*
X614963Y980057D02*
X618703D01*
X614963Y985057D02*
X618703D01*
X614963Y990057D02*
X618703D01*
X592203Y966557D02*
X595943D01*
X592203Y961557D02*
X595943D01*
X592203Y956557D02*
X595943D01*
X592203Y951557D02*
X595943D01*
X613463D02*
X617203D01*
X613463Y956557D02*
X617203D01*
X613463Y961557D02*
X617203D01*
X613463Y966557D02*
X617203D01*
X593703Y1015057D02*
X597443D01*
X593703Y1010057D02*
X597443D01*
X593703Y1005057D02*
X597443D01*
X593703Y1000057D02*
X597443D01*
X614963D02*
X618703D01*
X614963Y1005057D02*
X618703D01*
X614963Y1010057D02*
X618703D01*
X614963Y1015057D02*
X618703D01*
X593903Y1039857D02*
X597643D01*
X593903Y1034857D02*
X597643D01*
X593903Y1029857D02*
X597643D01*
X593903Y1024857D02*
X597643D01*
X615163D02*
X618903D01*
X615163Y1029857D02*
X618903D01*
X615163Y1034857D02*
X618903D01*
X615163Y1039857D02*
X618903D01*
X1071748Y265276D02*
X1070173D01*
X1071748Y272756D02*
X1070173D01*
X1062693Y269016D02*
X1061118D01*
X1025984Y248228D03*
Y244685D03*
X1072129Y946284D03*
X1075673D03*
X1072096Y935292D03*
X1075639D03*
Y914092D03*
X1072096D03*
X1075639Y919492D03*
X1072096D03*
X1075639Y927392D03*
X1072096D03*
X964164Y889319D03*
X967707D03*
X963964Y882119D03*
X967507D03*
X963964Y875119D03*
X967507D03*
X963964Y869119D03*
X967507D03*
X1028740Y844685D03*
Y848228D03*
X1024016Y844685D03*
Y848228D03*
X862598Y319094D03*
Y315551D03*
X1007268Y844320D03*
Y847864D03*
X1037402Y844685D03*
Y848228D03*
X1075539Y909692D03*
X1071996D03*
X1133268Y635433D03*
X1129724D03*
X1241240Y429320D03*
X1244783D03*
X1257397Y646233D03*
Y642690D03*
X1262430Y646233D03*
Y642690D03*
X919488Y601575D03*
X923031D03*
X919094Y546850D03*
X922638D03*
X1232087Y903543D03*
X1228543D03*
X919094Y566929D03*
X922638D03*
X919094Y596063D03*
X922638D03*
X907087Y621457D03*
Y617913D03*
X899803Y596457D03*
X903346D03*
X475754Y864565D03*
X472210D03*
X920866Y621457D03*
Y617913D03*
X919094Y591732D03*
X922638D03*
X403282Y881336D03*
Y877793D03*
X889764Y319094D03*
Y315551D03*
X919094Y562598D03*
X922638D03*
X912008Y582283D03*
X915551D03*
X919094Y587008D03*
X922638D03*
X543110Y639370D03*
X546654D03*
X901181Y474213D03*
Y477756D03*
X1210630Y990650D02*
Y990846D01*
Y994193D02*
Y994390D01*
X1222047D02*
Y994193D01*
Y990846D02*
Y990650D01*
X1258661Y994390D02*
Y994193D01*
Y990846D02*
Y990650D01*
X1248031D02*
Y990846D01*
Y994193D02*
Y994390D01*
X335827Y289862D02*
Y290059D01*
Y293406D02*
Y293602D01*
X539075Y710236D02*
X539272D01*
X542618D02*
X542815D01*
X539075Y714173D02*
X539272D01*
X542618D02*
X542815D01*
X895276Y477854D02*
Y477657D01*
Y474311D02*
Y474114D01*
X1267323Y643406D02*
Y643602D01*
Y646949D02*
Y647146D01*
X914961Y793012D02*
Y793209D01*
Y796555D02*
Y796752D01*
X1068878Y370965D02*
Y374705D01*
X1073878Y370965D02*
Y374705D01*
X1078878Y370965D02*
Y374705D01*
X1083878Y370965D02*
Y374705D01*
Y392224D02*
Y395965D01*
X1078878Y392224D02*
Y395965D01*
X1073878Y392224D02*
Y395965D01*
X1068878Y392224D02*
Y395965D01*
X326223Y884083D02*
X328191D01*
X326223Y880343D02*
X328191D01*
X326223Y876602D02*
X328191D01*
X336459D02*
X338427D01*
X336459Y880343D02*
X338427D01*
X336459Y884083D02*
X338427D01*
X1104724Y680512D03*
Y684055D03*
X967673Y863284D03*
X964129D03*
X1113386Y680512D03*
Y684055D03*
X1033071Y844685D03*
Y848228D03*
X1122047Y680512D03*
Y684055D03*
X1117717Y680512D03*
Y684055D03*
X936764Y902019D03*
X940307D03*
X936764Y896019D03*
X940307D03*
X936764Y952019D03*
X940307D03*
X936764Y946019D03*
X940307D03*
X936764Y939019D03*
X940307D03*
X936764Y933019D03*
X940307D03*
X936764Y926019D03*
X940307D03*
X936764Y920019D03*
X940307D03*
X936764Y907919D03*
X940307D03*
X936764Y914019D03*
X940307D03*
X1075673Y952284D03*
X1072129D03*
X1019291Y844685D03*
Y848228D03*
X460275Y945657D03*
X456731D03*
X543110Y631496D03*
X546654D03*
X271063Y519291D03*
X267520D03*
X271063Y513386D03*
X267520D03*
X903150Y793110D03*
Y796654D03*
X909055D03*
Y793110D03*
X1041900Y321979D03*
X1045444D03*
X1032139D03*
X1035682D03*
X1022085D03*
X1025629D03*
X907087Y477756D03*
Y474213D03*
X877953Y315157D03*
Y318701D03*
X1109055Y680512D03*
Y684055D03*
X1099606Y680512D03*
Y684055D03*
X384382Y866236D03*
Y862693D03*
X987402Y734449D03*
Y737992D03*
Y751772D03*
Y748228D03*
X1227953Y990748D03*
Y994291D03*
X1263386Y990748D03*
Y994291D03*
X992476Y321879D03*
X988933D03*
X982476D03*
X978933D03*
X1002476Y321979D03*
X998933D03*
X956676Y321879D03*
X953133D03*
X1002362Y248228D03*
Y244685D03*
X922638Y542913D03*
X919094D03*
X1090157Y391535D03*
Y395079D03*
X1079134Y401772D03*
Y405315D03*
X919094Y538976D03*
X922638D03*
X919094Y554724D03*
X922638D03*
X1232087Y892520D03*
X1228543D03*
X517473Y929155D02*
X517670D01*
X521017D02*
X521213D01*
X691339Y485925D02*
Y486122D01*
Y489469D02*
Y489665D01*
X707087Y485925D02*
Y486122D01*
Y489469D02*
Y489665D01*
X722835Y485925D02*
Y486122D01*
Y489469D02*
Y489665D01*
X737795Y485925D02*
Y486122D01*
Y489469D02*
Y489665D01*
X443503Y943928D02*
Y943731D01*
Y940384D02*
Y940187D01*
X342224Y757480D02*
X342421D01*
X345768D02*
X345965D01*
X322441Y413091D02*
Y413287D01*
Y416634D02*
Y416831D01*
X328346Y472146D02*
Y472343D01*
Y475689D02*
Y475886D01*
Y481988D02*
Y482185D01*
Y485531D02*
Y485728D01*
X332283Y556791D02*
Y556988D01*
Y560335D02*
Y560531D01*
X301803Y936828D02*
Y936631D01*
Y933284D02*
Y933087D01*
X342903Y946628D02*
Y946431D01*
Y943084D02*
Y942887D01*
X301903Y946128D02*
Y945931D01*
Y942584D02*
Y942387D01*
X1067668Y206162D02*
Y205965D01*
Y202619D02*
Y202422D01*
X777264Y572441D02*
X777461D01*
X780807D02*
X781004D01*
Y552756D02*
X780807D01*
X777461D02*
X777264D01*
X782972Y609843D02*
X782776D01*
X779429D02*
X779232D01*
X800787Y737894D02*
Y738091D01*
Y741437D02*
Y741634D01*
X879626Y657087D02*
X879823D01*
X883169D02*
X883366D01*
X861811Y741831D02*
Y742028D01*
Y745374D02*
Y745571D01*
X659055Y485925D02*
Y486122D01*
Y489469D02*
Y489665D01*
X442503Y954587D02*
Y954784D01*
Y958131D02*
Y958328D01*
X408733Y970957D02*
X408930D01*
X412276D02*
X412473D01*
X485603Y946428D02*
Y946231D01*
Y942884D02*
Y942687D01*
X485903Y954487D02*
Y954684D01*
Y958031D02*
Y958228D01*
X262333Y972657D02*
X262530D01*
X265876D02*
X266073D01*
X303533Y962257D02*
X303730D01*
X307076D02*
X307273D01*
X898268Y436949D02*
Y437146D01*
Y440492D02*
Y440689D01*
X339433Y954357D02*
X339630D01*
X342976D02*
X343173D01*
X1253543Y990650D02*
Y990846D01*
Y994193D02*
Y994390D01*
X1242520Y990650D02*
Y990846D01*
Y994193D02*
Y994390D01*
X1216142Y990650D02*
Y990846D01*
Y994193D02*
Y994390D01*
X1205512Y990650D02*
Y990846D01*
Y994193D02*
Y994390D01*
X379682Y865936D03*
Y862393D03*
X445210Y873065D03*
X448754D03*
X946676Y321879D03*
X943133D03*
X936676D03*
X933133D03*
X276075Y946357D03*
X272531D03*
X315575Y946457D03*
X312031D03*
X494115Y937455D03*
X490572D03*
X503143Y969983D03*
Y973527D03*
X494143Y969983D03*
Y973527D03*
X512143Y969983D03*
Y973527D03*
X521143Y969983D03*
Y973527D03*
X419075Y945057D03*
X415531D03*
X184744Y832283D02*
X184941D01*
X188287D02*
X188484D01*
X184744Y820472D02*
X184941D01*
X188287D02*
X188484D01*
X184744Y808661D02*
X184941D01*
X188287D02*
X188484D01*
X184303Y796850D02*
X184500D01*
X187846D02*
X188043D01*
X218110Y893406D02*
Y893602D01*
Y896949D02*
Y897146D01*
X239764Y893406D02*
Y893602D01*
Y896949D02*
Y897146D01*
X251575Y893406D02*
Y893602D01*
Y896949D02*
Y897146D01*
X275197Y893406D02*
Y893602D01*
Y896949D02*
Y897146D01*
X292913Y891732D03*
Y895276D03*
Y898819D03*
X110644Y745869D03*
Y749412D03*
Y752955D03*
X322047Y775197D03*
X318504D03*
X314961D03*
X1283071Y306890D03*
Y310433D03*
Y318701D03*
Y322244D03*
X111303Y630629D03*
Y627086D03*
X158465Y1041339D03*
X162008D03*
X158465Y1046063D03*
X162008D03*
X156102Y995276D03*
X159646D03*
X1312598Y295079D03*
Y298622D03*
Y306890D03*
Y310433D03*
X153393Y635831D03*
X149850D03*
Y630931D03*
X153393D03*
X159646Y1000787D03*
X156102D03*
X184744Y859843D02*
X184941D01*
X188287D02*
X188484D01*
X320374Y844094D02*
X320177D01*
X316831D02*
X316634D01*
Y855906D02*
X316831D01*
X320177D02*
X320374D01*
X184744Y871654D02*
X184941D01*
X188287D02*
X188484D01*
X263386Y897146D02*
Y896949D01*
Y893602D02*
Y893406D01*
X320374Y800787D02*
X320177D01*
X316831D02*
X316634D01*
Y832283D02*
X316831D01*
X320177D02*
X320374D01*
X227953Y897146D02*
Y896949D01*
Y893602D02*
Y893406D01*
X285039Y897146D02*
Y896949D01*
Y893602D02*
Y893406D01*
X1022068Y207762D02*
Y207565D01*
Y204219D02*
Y204022D01*
X190723Y1007605D02*
Y1007802D01*
Y1011148D02*
Y1011345D01*
X224250Y1006896D02*
Y1007093D01*
Y1010439D02*
Y1010636D01*
X220254Y1016971D02*
X220451D01*
X223798D02*
X223994D01*
X1055268Y186220D03*
Y189764D03*
X462205Y647047D03*
Y643504D03*
X542913Y917126D03*
Y920669D03*
X1050268Y176220D03*
Y179764D03*
X915157Y878346D03*
X918701D03*
X643307Y917126D03*
Y920669D03*
X594094Y917126D03*
Y920669D03*
X915157Y873146D03*
X918701D03*
X468602Y570098D02*
X472343D01*
X468602Y565098D02*
X472343D01*
X468602Y560098D02*
X472343D01*
X468602Y555098D02*
X472343D01*
X489862D02*
X493602D01*
X489862Y560098D02*
X493602D01*
X489862Y565098D02*
X493602D01*
X489862Y570098D02*
X493602D01*
X463386Y558563D02*
Y558366D01*
Y555020D02*
Y554823D01*
X316634Y822441D02*
X316831D01*
X320177D02*
X320374D01*
X316634Y812598D02*
X316831D01*
X320177D02*
X320374D01*
X316634Y788976D02*
X316831D01*
X320177D02*
X320374D01*
X1055068Y206162D02*
Y205965D01*
Y202619D02*
Y202422D01*
X1102268Y206462D02*
Y206265D01*
Y202919D02*
Y202722D01*
X190487Y996581D02*
Y996778D01*
Y1000124D02*
Y1000321D01*
X224014Y1000794D02*
Y1000597D01*
Y997250D02*
Y997054D01*
X1304331Y295790D02*
Y292050D01*
X1299331Y295790D02*
Y292050D01*
X1294331Y295790D02*
Y292050D01*
X1289331Y295790D02*
Y292050D01*
Y274530D02*
Y270790D01*
X1294331Y274530D02*
Y270790D01*
X1299331Y274530D02*
Y270790D01*
X1304331Y274530D02*
Y270790D01*
X1304366Y390362D02*
Y386622D01*
X1299366Y390362D02*
Y386622D01*
X1294366Y390362D02*
Y386622D01*
X1289366Y390362D02*
Y386622D01*
Y369102D02*
Y365362D01*
X1294366Y369102D02*
Y365362D01*
X1299366Y369102D02*
Y365362D01*
X1304366Y369102D02*
Y365362D01*
X261335Y274180D02*
Y277920D01*
X266335Y274180D02*
Y277920D01*
X271335Y274180D02*
Y277920D01*
X276335Y274180D02*
Y277920D01*
Y295440D02*
Y299180D01*
X271335Y295440D02*
Y299180D01*
X266335Y295440D02*
Y299180D01*
X261335Y295440D02*
Y299180D01*
X1283071Y297441D03*
Y293898D03*
X1281814Y392261D03*
Y388717D03*
X282785Y272372D03*
Y275915D03*
X1030268Y176220D03*
Y179764D03*
X1050268Y189764D03*
Y186220D03*
X1045268Y179764D03*
Y176220D03*
X462205Y605709D03*
Y602165D03*
X1097268Y190764D03*
Y187220D03*
X1102268D03*
Y190764D03*
X1077268Y176220D03*
Y179764D03*
X1072268D03*
Y176220D03*
X340831Y969657D03*
X344375D03*
X1075786Y897396D03*
X1072243D03*
X1278653Y486631D03*
Y483088D03*
X1287281Y454160D03*
X1290824D03*
X131261Y374439D03*
X127718D03*
X332283Y568602D02*
Y568799D01*
Y572146D02*
Y572343D01*
Y416831D02*
Y416634D01*
Y413287D02*
Y413091D01*
X905630Y436634D02*
Y436831D01*
Y440177D02*
Y440374D01*
X237795Y912303D02*
Y912500D01*
Y915846D02*
Y916043D01*
X267323Y911909D02*
Y912106D01*
Y915453D02*
Y915650D01*
X1129921Y360433D03*
Y363976D03*
X820472Y446654D03*
Y450197D03*
X670571Y917717D02*
X670768D01*
X674114D02*
X674311D01*
X569669Y918504D02*
X569866D01*
X573213D02*
X573409D01*
X622933Y917323D02*
X623130D01*
X626476D02*
X626673D01*
X1035268Y176122D02*
Y176319D01*
Y179665D02*
Y179862D01*
X1082268Y176122D02*
Y176319D01*
Y179665D02*
Y179862D01*
X922638Y550787D03*
X919094D03*
X883465Y621457D03*
Y617913D03*
X419175Y957357D03*
X415631D03*
X921063Y632283D03*
X924606D03*
X911890Y422283D03*
Y418740D03*
X1026575Y688976D03*
X1030118D03*
X895276Y621457D03*
Y617913D03*
X921063Y627559D03*
X924606D03*
X921063Y637402D03*
X924606D03*
X889370Y621457D03*
Y617913D03*
X272631Y956857D03*
X276175D03*
X1067668Y195062D02*
Y194865D01*
Y191519D02*
Y191322D01*
X1021768Y195162D02*
Y194965D01*
Y191619D02*
Y191422D01*
X1092268Y179764D03*
Y176220D03*
X1097268D03*
Y179764D03*
X1025268D03*
Y176220D03*
X356920Y887839D02*
X360660D01*
X356920Y882839D02*
X360660D01*
X356920Y877839D02*
X360660D01*
X356920Y872839D02*
X360660D01*
X378180D02*
X381920D01*
X378180Y877839D02*
X381920D01*
X378180Y882839D02*
X381920D01*
X378180Y887839D02*
X381920D01*
X413482Y887965D02*
X417222D01*
X413482Y882965D02*
X417222D01*
X413482Y877965D02*
X417222D01*
X413482Y872965D02*
X417222D01*
X434742D02*
X438482D01*
X434742Y877965D02*
X438482D01*
X434742Y882965D02*
X438482D01*
X434742Y887965D02*
X438482D01*
X458771Y887939D02*
X462511D01*
X458771Y882939D02*
X462511D01*
X458771Y877939D02*
X462511D01*
X458771Y872939D02*
X462511D01*
X480031D02*
X483771D01*
X480031Y877939D02*
X483771D01*
X480031Y882939D02*
X483771D01*
X480031Y887939D02*
X483771D01*
X1102268Y179862D02*
Y179665D01*
Y176319D02*
Y176122D01*
X1055268Y179862D02*
Y179665D01*
Y176319D02*
Y176122D01*
X1040268Y176220D03*
Y179764D03*
X1087268Y176220D03*
Y179764D03*
X672835Y682579D02*
Y682382D01*
Y679035D02*
Y678839D01*
X466650Y930170D02*
Y929973D01*
Y926627D02*
Y926430D01*
X444150Y931470D02*
Y931273D01*
Y927927D02*
Y927730D01*
X345333Y934557D02*
X345530D01*
X348876D02*
X349073D01*
X344133Y913657D02*
X344330D01*
X347676D02*
X347873D01*
X568898Y682579D02*
Y682382D01*
Y679035D02*
Y678839D01*
X564961Y682579D02*
Y682382D01*
Y679035D02*
Y678839D01*
X561024Y682579D02*
Y682382D01*
Y679035D02*
Y678839D01*
X557087Y682579D02*
Y682382D01*
Y679035D02*
Y678839D01*
X633465Y682579D02*
Y682382D01*
Y679035D02*
Y678839D01*
X629528Y682579D02*
Y682382D01*
Y679035D02*
Y678839D01*
X621654Y682579D02*
Y682382D01*
Y679035D02*
Y678839D01*
X625591Y682579D02*
Y682382D01*
Y679035D02*
Y678839D01*
X609843Y682579D02*
Y682382D01*
Y679035D02*
Y678839D01*
X605906Y682579D02*
Y682382D01*
Y679035D02*
Y678839D01*
X580709Y682579D02*
Y682382D01*
Y679035D02*
Y678839D01*
X584646Y682579D02*
Y682382D01*
Y679035D02*
Y678839D01*
X657087Y682579D02*
Y682382D01*
Y679035D02*
Y678839D01*
X653150Y682579D02*
Y682382D01*
Y679035D02*
Y678839D01*
X645276Y682579D02*
Y682382D01*
Y679035D02*
Y678839D01*
X649213Y682579D02*
Y682382D01*
Y679035D02*
Y678839D01*
X680709Y682579D02*
Y682382D01*
Y679035D02*
Y678839D01*
X676772Y682579D02*
Y682382D01*
Y679035D02*
Y678839D01*
X668898Y682579D02*
Y682382D01*
Y679035D02*
Y678839D01*
X740157Y682579D02*
Y682382D01*
Y679035D02*
Y678839D01*
X736220Y682579D02*
Y682382D01*
Y679035D02*
Y678839D01*
X716142Y682579D02*
Y682382D01*
Y679035D02*
Y678839D01*
X720079Y682579D02*
Y682382D01*
Y679035D02*
Y678839D01*
X696457Y682579D02*
Y682382D01*
Y679035D02*
Y678839D01*
X692520Y682579D02*
Y682382D01*
Y679035D02*
Y678839D01*
X704331Y682579D02*
Y682382D01*
Y679035D02*
Y678839D01*
X700394Y682579D02*
Y682382D01*
Y679035D02*
Y678839D01*
X757480Y682579D02*
Y682382D01*
Y679035D02*
Y678839D01*
X753543Y682579D02*
Y682382D01*
Y679035D02*
Y678839D01*
X764961Y682972D02*
Y682776D01*
Y679429D02*
Y679232D01*
X768898Y682972D02*
Y682776D01*
Y679429D02*
Y679232D01*
X539075Y659055D02*
X539272D01*
X542618D02*
X542815D01*
X539075Y662992D02*
X539272D01*
X542618D02*
X542815D01*
X511516Y655118D02*
X511713D01*
X515059D02*
X515256D01*
X511516Y690551D02*
X511713D01*
X515059D02*
X515256D01*
X511516Y650787D02*
X511713D01*
X515059D02*
X515256D01*
X511516Y694488D02*
X511713D01*
X515059D02*
X515256D01*
X511516Y749606D02*
X511713D01*
X515059D02*
X515256D01*
X511516Y706299D02*
X511713D01*
X515059D02*
X515256D01*
X511516Y745669D02*
X511713D01*
X515059D02*
X515256D01*
X511516Y710236D02*
X511713D01*
X515059D02*
X515256D01*
X539075Y686614D02*
X539272D01*
X542618D02*
X542815D01*
X539075Y682677D02*
X539272D01*
X542618D02*
X542815D01*
X539075Y678740D02*
X539272D01*
X542618D02*
X542815D01*
X539075Y674803D02*
X539272D01*
X542618D02*
X542815D01*
X539075Y670866D02*
X539272D01*
X542618D02*
X542815D01*
X539075Y666929D02*
X539272D01*
X542618D02*
X542815D01*
X539075Y718110D02*
X539272D01*
X542618D02*
X542815D01*
X539075Y722047D02*
X539272D01*
X542618D02*
X542815D01*
X539075Y725984D02*
X539272D01*
X542618D02*
X542815D01*
X539075Y729921D02*
X539272D01*
X542618D02*
X542815D01*
X539075Y733858D02*
X539272D01*
X542618D02*
X542815D01*
X539075Y737795D02*
X539272D01*
X542618D02*
X542815D01*
X289862Y509843D02*
X290059D01*
X293406D02*
X293602D01*
X1267421Y611811D02*
X1267618D01*
X1270965D02*
X1271161D01*
X1271063Y605906D03*
X1267520D03*
X289961Y505512D03*
X293504D03*
X777264Y562598D02*
X777461D01*
X780807D02*
X781004D01*
X588189Y489665D02*
Y489469D01*
Y486122D02*
Y485925D01*
X603937Y489665D02*
Y489469D01*
Y486122D02*
Y485925D01*
X619685Y489665D02*
Y489469D01*
Y486122D02*
Y485925D01*
X636220Y489665D02*
Y489469D01*
Y486122D02*
Y485925D01*
X682677Y489665D02*
Y489469D01*
Y486122D02*
Y485925D01*
X699213Y489665D02*
Y489469D01*
Y486122D02*
Y485925D01*
X714961Y489665D02*
Y489469D01*
Y486122D02*
Y485925D01*
X730709Y489665D02*
Y489469D01*
Y486122D02*
Y485925D01*
X558563Y521260D02*
X558366D01*
X555020D02*
X554823D01*
X558563Y529134D02*
X558366D01*
X555020D02*
X554823D01*
X558563Y537008D02*
X558366D01*
X555020D02*
X554823D01*
X558563Y544882D02*
X558366D01*
X555020D02*
X554823D01*
X558563Y552756D02*
X558366D01*
X555020D02*
X554823D01*
X558563Y584252D02*
X558366D01*
X555020D02*
X554823D01*
X558563Y592126D02*
X558366D01*
X555020D02*
X554823D01*
X558563Y600000D02*
X558366D01*
X555020D02*
X554823D01*
X558563Y607874D02*
X558366D01*
X555020D02*
X554823D01*
X558563Y560630D02*
X558366D01*
X555020D02*
X554823D01*
X558563Y513386D02*
X558366D01*
X555020D02*
X554823D01*
X580315Y485925D02*
Y486122D01*
Y489469D02*
Y489665D01*
X596063Y485925D02*
Y486122D01*
Y489469D02*
Y489665D01*
X611811Y485925D02*
Y486122D01*
Y489469D02*
Y489665D01*
X627559Y485925D02*
Y486122D01*
Y489469D02*
Y489665D01*
X643701Y485925D02*
Y486122D01*
Y489469D02*
Y489665D01*
X651969Y485925D02*
Y486122D01*
Y489469D02*
Y489665D01*
X666929Y485925D02*
Y486122D01*
Y489469D02*
Y489665D01*
X674803Y485925D02*
Y486122D01*
Y489469D02*
Y489665D01*
X582931Y951557D03*
X586475D03*
X584431Y975057D03*
X587975D03*
X544475Y993057D03*
X540931D03*
X543475Y968557D03*
X539931D03*
X670472Y445866D03*
Y442323D03*
X818110Y433661D03*
Y430118D03*
X812598Y433661D03*
Y430118D03*
X678740Y446260D03*
Y442717D03*
X1306299Y434055D03*
Y430512D03*
X259252Y215354D03*
X255709D03*
X1294882Y408071D03*
Y404528D03*
X260827Y239764D03*
X257283D03*
X258268Y204528D03*
Y208071D03*
X256890Y259055D03*
X253346D03*
X239567Y413780D03*
X243110D03*
X220669Y391732D03*
X217126D03*
X193701Y616339D03*
Y619882D03*
X176378Y615551D03*
Y619094D03*
X114567Y409646D03*
Y413189D03*
X139173Y401181D03*
X142717D03*
X543110Y647244D03*
X546654D03*
X543110Y623622D03*
X546654D03*
X542323Y600000D03*
X545866D03*
X542323Y592126D03*
X545866D03*
X554921Y568504D03*
X558465D03*
X554921Y576378D03*
X558465D03*
X779331Y617717D03*
X782874D03*
X779331Y625591D03*
X782874D03*
G54D18*
X631152Y966463D02*
X637254D01*
X631152Y954652D02*
X637254D01*
X631152Y1014963D02*
X637254D01*
X631152Y1003152D02*
X637254D01*
X631152Y1039763D02*
X637254D01*
X631152Y1027952D02*
X637254D01*
X1060296Y968833D02*
Y974935D01*
X1072107Y968833D02*
Y974935D01*
X1251575Y323327D02*
Y329429D01*
X1263386Y323327D02*
Y329429D01*
X1062890Y254425D02*
Y255606D01*
X1069976Y254425D02*
Y255606D01*
X631152Y989963D02*
X637254D01*
X631152Y978152D02*
X637254D01*
X143287Y619294D02*
X144469D01*
X143287Y612208D02*
X144469D01*
X168409Y162209D02*
Y156106D01*
X156598Y162209D02*
Y156106D01*
X189909Y289109D02*
Y283006D01*
X178098Y289109D02*
Y283006D01*
X121514Y476357D02*
X127617D01*
X121514Y464546D02*
X127617D01*
X127009Y289209D02*
Y283106D01*
X115198Y289209D02*
Y283106D01*
X1087996Y949233D02*
Y955335D01*
X1099807Y949233D02*
Y955335D01*
X1087996Y935233D02*
Y941335D01*
X1099807Y935233D02*
Y941335D01*
G54D19*
X484646Y698327D02*
Y698524D01*
X490945Y698327D02*
Y698524D01*
X484252Y751870D02*
Y752067D01*
X490551Y751870D02*
Y752067D01*
X1016437Y497638D02*
X1016634D01*
X1016437Y491339D02*
X1016634D01*
X1133563Y685433D02*
X1133366D01*
X1133563Y691732D02*
X1133366D01*
X1025886Y497638D02*
X1026083D01*
X1025886Y491339D02*
X1026083D01*
X1035335Y497638D02*
X1035531D01*
X1035335Y491339D02*
X1035531D01*
X1055020Y497638D02*
X1055217D01*
X1055020Y491339D02*
X1055217D01*
X1045571Y497638D02*
X1045768D01*
X1045571Y491339D02*
X1045768D01*
X141672Y745113D02*
X146199D01*
X141672Y727002D02*
X146199D01*
X557874Y838287D02*
Y838091D01*
X551575Y838287D02*
Y838091D01*
X662205Y838287D02*
Y838091D01*
X655906Y838287D02*
Y838091D01*
X611024Y838287D02*
Y838091D01*
X604724Y838287D02*
Y838091D01*
X457579Y549606D02*
X457382D01*
X457579Y555906D02*
X457382D01*
X134613Y656786D02*
Y656589D01*
X128313Y656786D02*
Y656589D01*
X657087Y925689D02*
Y925492D01*
X650787Y925689D02*
Y925492D01*
X556341Y926083D02*
Y925886D01*
X550042Y926083D02*
Y925886D01*
X606299Y925295D02*
Y925098D01*
X600000Y925295D02*
Y925098D01*
G54D20*
X656180Y958952D02*
X653227D01*
X656180Y970763D02*
X653227D01*
X667180Y958952D02*
X664227D01*
X667180Y970763D02*
X664227D01*
X914630Y933542D02*
Y936495D01*
X926441Y933542D02*
Y936495D01*
X913630Y921542D02*
Y924495D01*
X925441Y921542D02*
Y924495D01*
X677180Y958952D02*
X674227D01*
X677180Y970763D02*
X674227D01*
X687180Y958952D02*
X684227D01*
X687180Y970763D02*
X684227D01*
X909587Y305796D02*
Y298906D01*
Y289064D02*
Y282174D01*
X901713Y305796D02*
Y298906D01*
Y289064D02*
Y282174D01*
X893839Y305796D02*
Y298906D01*
Y289064D02*
Y282174D01*
X885965Y305796D02*
Y298906D01*
Y289064D02*
Y282174D01*
X878091Y305796D02*
Y298906D01*
Y289064D02*
Y282174D01*
X870217Y305796D02*
Y298906D01*
Y289064D02*
Y282174D01*
X862343Y305796D02*
Y298906D01*
Y289064D02*
Y282174D01*
X901969Y850394D02*
X895079D01*
X885236D02*
X878346D01*
X901969Y858268D02*
X895079D01*
X885236D02*
X878346D01*
X901969Y866142D02*
X895079D01*
X885236D02*
X878346D01*
X901969Y874016D02*
X895079D01*
X885236D02*
X878346D01*
X901969Y881890D02*
X895079D01*
X885236D02*
X878346D01*
X901969Y889764D02*
X895079D01*
X885236D02*
X878346D01*
X901969Y897638D02*
X895079D01*
X885236D02*
X878346D01*
X1034646Y231890D02*
X1033071D01*
X1034646Y238976D02*
X1033071D01*
X1026772Y231890D02*
X1025197D01*
X1026772Y238976D02*
X1025197D01*
X1018898Y231890D02*
X1017323D01*
X1018898Y238976D02*
X1017323D01*
X1011024Y231890D02*
X1009449D01*
X1011024Y238976D02*
X1009449D01*
X1003150Y231890D02*
X1001575D01*
X1003150Y238976D02*
X1001575D01*
X995276Y231890D02*
X993701D01*
X995276Y238976D02*
X993701D01*
X913630Y897542D02*
Y900495D01*
X925441Y897542D02*
Y900495D01*
X520356Y960298D02*
X521931D01*
X520356Y953212D02*
X521931D01*
X493356Y960298D02*
X494931D01*
X493356Y953212D02*
X494931D01*
X502356Y960298D02*
X503931D01*
X502356Y953212D02*
X503931D01*
X511356Y960298D02*
X512931D01*
X511356Y953212D02*
X512931D01*
X1060915Y169674D02*
Y170068D01*
G54D21*
X984555Y943119D02*
X991248D01*
X984555Y941150D02*
X991248D01*
X984555Y939182D02*
X991248D01*
X984555Y937213D02*
X991248D01*
X984555Y935245D02*
X991248D01*
X984555Y933276D02*
X991248D01*
X984555Y931308D02*
X991248D01*
X984555Y929339D02*
X991248D01*
X984555Y927371D02*
X991248D01*
X984555Y925402D02*
X991248D01*
X984555Y923434D02*
X991248D01*
X984555Y921465D02*
X991248D01*
X984555Y919497D02*
X991248D01*
X984555Y917528D02*
X991248D01*
X984555Y915560D02*
X991248D01*
X984555Y913591D02*
X991248D01*
X984555Y911623D02*
X991248D01*
X984555Y909654D02*
X991248D01*
X984555Y907686D02*
X991248D01*
X984555Y905717D02*
X991248D01*
X984555Y903749D02*
X991248D01*
X984555Y901780D02*
X991248D01*
X984555Y899812D02*
X991248D01*
X984555Y897843D02*
X991248D01*
X984555Y895875D02*
X991248D01*
X984555Y893906D02*
X991248D01*
X984555Y891938D02*
X991248D01*
X984555Y889969D02*
X991248D01*
X984555Y888001D02*
X991248D01*
X984555Y886032D02*
X991248D01*
X984555Y884064D02*
X991248D01*
X984555Y882095D02*
X991248D01*
X984555Y880127D02*
X991248D01*
X984555Y878158D02*
X991248D01*
X984555Y876190D02*
X991248D01*
X984555Y874221D02*
X991248D01*
X984555Y872253D02*
X991248D01*
X984555Y870284D02*
X991248D01*
X1052389D02*
X1059082D01*
X1052389Y872253D02*
X1059082D01*
X1052389Y874221D02*
X1059082D01*
X1052389Y876190D02*
X1059082D01*
X1052389Y878158D02*
X1059082D01*
X1052389Y880127D02*
X1059082D01*
X1052389Y882095D02*
X1059082D01*
X1052389Y884064D02*
X1059082D01*
X1052389Y886032D02*
X1059082D01*
X1052389Y888001D02*
X1059082D01*
X1052389Y889969D02*
X1059082D01*
X1052389Y891938D02*
X1059082D01*
X1052389Y893906D02*
X1059082D01*
X1052389Y895875D02*
X1059082D01*
X1052389Y897843D02*
X1059082D01*
X1052389Y899812D02*
X1059082D01*
X1052389Y901780D02*
X1059082D01*
X1052389Y903749D02*
X1059082D01*
X1052389Y905717D02*
X1059082D01*
X1052389Y907686D02*
X1059082D01*
X1052389Y909654D02*
X1059082D01*
X1052389Y911623D02*
X1059082D01*
X1052389Y913591D02*
X1059082D01*
X1052389Y915560D02*
X1059082D01*
X1052389Y917528D02*
X1059082D01*
X1052389Y919497D02*
X1059082D01*
X1052389Y921465D02*
X1059082D01*
X1052389Y923434D02*
X1059082D01*
X1052389Y925402D02*
X1059082D01*
X1052389Y927371D02*
X1059082D01*
X1052389Y929339D02*
X1059082D01*
X1052389Y931308D02*
X1059082D01*
X1052389Y933276D02*
X1059082D01*
X1052389Y935245D02*
X1059082D01*
X1052389Y937213D02*
X1059082D01*
X1052389Y939182D02*
X1059082D01*
X1052389Y941150D02*
X1059082D01*
X1052389Y943119D02*
X1059082D01*
X903150Y510433D02*
Y506102D01*
X901181Y510433D02*
Y506102D01*
X899213Y510433D02*
Y506102D01*
X897244Y510433D02*
Y506102D01*
X895276Y510433D02*
Y506102D01*
Y493110D02*
Y488780D01*
X897244Y493110D02*
Y488780D01*
X899213Y493110D02*
Y488780D01*
X901181Y493110D02*
Y488780D01*
X903150Y493110D02*
Y488780D01*
X904724Y761614D02*
Y765945D01*
X906693Y761614D02*
Y765945D01*
X908661Y761614D02*
Y765945D01*
X910630Y761614D02*
Y765945D01*
X912598Y761614D02*
Y765945D01*
Y778937D02*
Y783268D01*
X910630Y778937D02*
Y783268D01*
X908661Y778937D02*
Y783268D01*
X906693Y778937D02*
Y783268D01*
X904724Y778937D02*
Y783268D01*
X1244683Y441361D02*
X1245471D01*
X1244683Y439392D02*
X1245471D01*
X1244683Y437424D02*
X1245471D01*
X1244683Y435455D02*
X1245471D01*
X1248620D02*
X1249408D01*
X1248620Y437424D02*
X1249408D01*
X1248620Y439392D02*
X1249408D01*
X1248620Y441361D02*
X1249408D01*
X1244683Y496956D02*
X1245471D01*
X1244683Y494987D02*
X1245471D01*
X1244683Y493019D02*
X1245471D01*
X1244683Y491050D02*
X1245471D01*
X1248620D02*
X1249408D01*
X1248620Y493019D02*
X1249408D01*
X1248620Y494987D02*
X1249408D01*
X1248620Y496956D02*
X1249408D01*
X1244683Y508526D02*
X1245471D01*
X1244683Y506557D02*
X1245471D01*
X1244683Y504589D02*
X1245471D01*
X1244683Y502620D02*
X1245471D01*
X1248620D02*
X1249408D01*
X1248620Y504589D02*
X1249408D01*
X1248620Y506557D02*
X1249408D01*
X1248620Y508526D02*
X1249408D01*
X1244683Y519531D02*
X1245471D01*
X1244683Y517562D02*
X1245471D01*
X1244683Y515594D02*
X1245471D01*
X1244683Y513625D02*
X1245471D01*
X1248620D02*
X1249408D01*
X1248620Y515594D02*
X1249408D01*
X1248620Y517562D02*
X1249408D01*
X1248620Y519531D02*
X1249408D01*
X1244683Y536745D02*
X1245471D01*
X1244683Y534776D02*
X1245471D01*
X1244683Y532808D02*
X1245471D01*
X1244683Y530839D02*
X1245471D01*
X1248620D02*
X1249408D01*
X1248620Y532808D02*
X1249408D01*
X1248620Y534776D02*
X1249408D01*
X1248620Y536745D02*
X1249408D01*
X1244683Y461821D02*
X1245471D01*
X1244683Y459852D02*
X1245471D01*
X1244683Y457884D02*
X1245471D01*
X1244683Y455915D02*
X1245471D01*
X1248620D02*
X1249408D01*
X1248620Y457884D02*
X1249408D01*
X1248620Y459852D02*
X1249408D01*
X1248620Y461821D02*
X1249408D01*
X1244683Y451325D02*
X1245471D01*
X1244683Y449356D02*
X1245471D01*
X1244683Y447388D02*
X1245471D01*
X1244683Y445419D02*
X1245471D01*
X1248620D02*
X1249408D01*
X1248620Y447388D02*
X1249408D01*
X1248620Y449356D02*
X1249408D01*
X1248620Y451325D02*
X1249408D01*
X331102Y424685D02*
X330315D01*
X331102Y426654D02*
X330315D01*
X331102Y428622D02*
X330315D01*
X331102Y430591D02*
X330315D01*
X327165D02*
X326378D01*
X327165Y428622D02*
X326378D01*
X327165Y426654D02*
X326378D01*
X327165Y424685D02*
X326378D01*
X331102Y447913D02*
X330315D01*
X331102Y449882D02*
X330315D01*
X331102Y451850D02*
X330315D01*
X331102Y453819D02*
X330315D01*
X327165D02*
X326378D01*
X327165Y451850D02*
X326378D01*
X327165Y449882D02*
X326378D01*
X327165Y447913D02*
X326378D01*
X331102Y460906D02*
X330315D01*
X331102Y462874D02*
X330315D01*
X331102Y464843D02*
X330315D01*
X331102Y466811D02*
X330315D01*
X327165D02*
X326378D01*
X327165Y464843D02*
X326378D01*
X327165Y462874D02*
X326378D01*
X327165Y460906D02*
X326378D01*
X331102Y493583D02*
X330315D01*
X331102Y495551D02*
X330315D01*
X331102Y497520D02*
X330315D01*
X331102Y499488D02*
X330315D01*
X327165D02*
X326378D01*
X327165Y497520D02*
X326378D01*
X327165Y495551D02*
X326378D01*
X327165Y493583D02*
X326378D01*
X331102Y512874D02*
X330315D01*
X331102Y514843D02*
X330315D01*
X331102Y516811D02*
X330315D01*
X331102Y518780D02*
X330315D01*
X327165D02*
X326378D01*
X327165Y516811D02*
X326378D01*
X327165Y514843D02*
X326378D01*
X327165Y512874D02*
X326378D01*
X331102Y532165D02*
X330315D01*
X331102Y534134D02*
X330315D01*
X331102Y536102D02*
X330315D01*
X331102Y538071D02*
X330315D01*
X327165D02*
X326378D01*
X327165Y536102D02*
X326378D01*
X327165Y534134D02*
X326378D01*
X327165Y532165D02*
X326378D01*
X331102Y435315D02*
X330315D01*
X331102Y437283D02*
X330315D01*
X331102Y439252D02*
X330315D01*
X331102Y441220D02*
X330315D01*
X327165D02*
X326378D01*
X327165Y439252D02*
X326378D01*
X327165Y437283D02*
X326378D01*
X327165Y435315D02*
X326378D01*
X1253100Y608472D02*
Y612803D01*
X1255068Y608472D02*
Y612803D01*
X1257037Y608472D02*
Y612803D01*
X1259005Y608472D02*
Y612803D01*
X1260974Y608472D02*
Y612803D01*
Y625795D02*
Y630125D01*
X1259005Y625795D02*
Y630125D01*
X1257037Y625795D02*
Y630125D01*
X1255068Y625795D02*
Y630125D01*
X1253100Y625795D02*
Y630125D01*
X280118Y497638D02*
X275787D01*
X280118Y499606D02*
X275787D01*
X280118Y501575D02*
X275787D01*
X280118Y503543D02*
X275787D01*
X280118Y505512D02*
X275787D01*
X262795D02*
X258465D01*
X262795Y503543D02*
X258465D01*
X262795Y501575D02*
X258465D01*
X262795Y499606D02*
X258465D01*
X262795Y497638D02*
X258465D01*
X1241094Y939665D02*
Y938878D01*
X1239126Y939665D02*
Y938878D01*
X1237157Y939665D02*
Y938878D01*
X1235189Y939665D02*
Y938878D01*
Y936713D02*
Y935925D01*
X1237157Y936713D02*
Y935925D01*
X1239126Y936713D02*
Y935925D01*
X1241094Y936713D02*
Y935925D01*
X1230094Y939665D02*
Y938878D01*
X1228126Y939665D02*
Y938878D01*
X1226157Y939665D02*
Y938878D01*
X1224189Y939665D02*
Y938878D01*
Y936713D02*
Y935925D01*
X1226157Y936713D02*
Y935925D01*
X1228126Y936713D02*
Y935925D01*
X1230094Y936713D02*
Y935925D01*
X396635Y873335D02*
Y872547D01*
X394666Y873335D02*
Y872547D01*
X392698Y873335D02*
Y872547D01*
X390729Y873335D02*
Y872547D01*
Y870382D02*
Y869594D01*
X392698Y870382D02*
Y869594D01*
X394666Y870382D02*
Y869594D01*
X396635Y870382D02*
Y869594D01*
X1219094Y939665D02*
Y938878D01*
X1217126Y939665D02*
Y938878D01*
X1215157Y939665D02*
Y938878D01*
X1213189Y939665D02*
Y938878D01*
Y936713D02*
Y935925D01*
X1215157Y936713D02*
Y935925D01*
X1217126Y936713D02*
Y935925D01*
X1219094Y936713D02*
Y935925D01*
X1005705Y450209D02*
Y445485D01*
X1003737Y450209D02*
Y445485D01*
X1001768Y450209D02*
Y445485D01*
X999800Y450209D02*
Y445485D01*
X997831Y450209D02*
Y445485D01*
X995863Y450209D02*
Y445485D01*
X993894Y450209D02*
Y445485D01*
X991926Y450209D02*
Y445485D01*
X989957Y450209D02*
Y445485D01*
X987989Y450209D02*
Y445485D01*
X986020Y450209D02*
Y445485D01*
X984052Y450209D02*
Y445485D01*
X982083Y450209D02*
Y445485D01*
X980115Y450209D02*
Y445485D01*
X978146Y450209D02*
Y445485D01*
X976178Y450209D02*
Y445485D01*
X974209Y450209D02*
Y445485D01*
X972241Y450209D02*
Y445485D01*
X970272Y450209D02*
Y445485D01*
X968304Y450209D02*
Y445485D01*
X966335Y450209D02*
Y445485D01*
X964367Y450209D02*
Y445485D01*
X962398Y450209D02*
Y445485D01*
X960430Y450209D02*
Y445485D01*
X958461Y450209D02*
Y445485D01*
X956493Y450209D02*
Y445485D01*
X954524Y450209D02*
Y445485D01*
X952556Y450209D02*
Y445485D01*
X950587Y450209D02*
Y445485D01*
X948619Y450209D02*
Y445485D01*
X946650Y450209D02*
Y445485D01*
X944682Y450209D02*
Y445485D01*
X942713Y450209D02*
Y445485D01*
X940745Y450209D02*
Y445485D01*
X938776Y450209D02*
Y445485D01*
X936808Y450209D02*
Y445485D01*
X926768Y440170D02*
X931493D01*
X926768Y438201D02*
X931493D01*
X926768Y436233D02*
X931493D01*
X926768Y434264D02*
X931493D01*
X926768Y432296D02*
X931493D01*
X926768Y430327D02*
X931493D01*
X926768Y428359D02*
X931493D01*
X926768Y426390D02*
X931493D01*
X926768Y424422D02*
X931493D01*
X926768Y422453D02*
X931493D01*
X926768Y420485D02*
X931493D01*
X926768Y418516D02*
X931493D01*
X926768Y416548D02*
X931493D01*
X926768Y414579D02*
X931493D01*
X926768Y412611D02*
X931493D01*
X926768Y410642D02*
X931493D01*
X926768Y408674D02*
X931493D01*
X926768Y406705D02*
X931493D01*
X926768Y404737D02*
X931493D01*
X926768Y402768D02*
X931493D01*
X926768Y400800D02*
X931493D01*
X926768Y398831D02*
X931493D01*
X926768Y396863D02*
X931493D01*
X926768Y394894D02*
X931493D01*
X926768Y392926D02*
X931493D01*
X926768Y390957D02*
X931493D01*
X926768Y388989D02*
X931493D01*
X926768Y387020D02*
X931493D01*
X926768Y385052D02*
X931493D01*
X926768Y383083D02*
X931493D01*
X926768Y381115D02*
X931493D01*
X926768Y379146D02*
X931493D01*
X926768Y377178D02*
X931493D01*
X926768Y375209D02*
X931493D01*
X926768Y373241D02*
X931493D01*
X926768Y371272D02*
X931493D01*
X936808Y365957D02*
Y361233D01*
X938776Y365957D02*
Y361233D01*
X940745Y365957D02*
Y361233D01*
X942713Y365957D02*
Y361233D01*
X944682Y365957D02*
Y361233D01*
X946650Y365957D02*
Y361233D01*
X948619Y365957D02*
Y361233D01*
X950587Y365957D02*
Y361233D01*
X952556Y365957D02*
Y361233D01*
X954524Y365957D02*
Y361233D01*
X956493Y365957D02*
Y361233D01*
X958461Y365957D02*
Y361233D01*
X960430Y365957D02*
Y361233D01*
X962398Y365957D02*
Y361233D01*
X964367Y365957D02*
Y361233D01*
X966335Y365957D02*
Y361233D01*
X968304Y365957D02*
Y361233D01*
X970272Y365957D02*
Y361233D01*
X972241Y365957D02*
Y361233D01*
X974209Y365957D02*
Y361233D01*
X976178Y365957D02*
Y361233D01*
X978146Y365957D02*
Y361233D01*
X980115Y365957D02*
Y361233D01*
X982083Y365957D02*
Y361233D01*
X984052Y365957D02*
Y361233D01*
X986020Y365957D02*
Y361233D01*
X987989Y365957D02*
Y361233D01*
X989957Y365957D02*
Y361233D01*
X991926Y365957D02*
Y361233D01*
X993894Y365957D02*
Y361233D01*
X995863Y365957D02*
Y361233D01*
X997831Y365957D02*
Y361233D01*
X999800Y365957D02*
Y361233D01*
X1001768Y365957D02*
Y361233D01*
X1003737Y365957D02*
Y361233D01*
X1005705Y365957D02*
Y361233D01*
X1011020Y371272D02*
X1015745D01*
X1011020Y373241D02*
X1015745D01*
X1011020Y375209D02*
X1015745D01*
X1011020Y377178D02*
X1015745D01*
X1011020Y379146D02*
X1015745D01*
X1011020Y381115D02*
X1015745D01*
X1011020Y383083D02*
X1015745D01*
X1011020Y385052D02*
X1015745D01*
X1011020Y387020D02*
X1015745D01*
X1011020Y388989D02*
X1015745D01*
X1011020Y390957D02*
X1015745D01*
X1011020Y392926D02*
X1015745D01*
X1011020Y394894D02*
X1015745D01*
X1011020Y396863D02*
X1015745D01*
X1011020Y398831D02*
X1015745D01*
X1011020Y400800D02*
X1015745D01*
X1011020Y402768D02*
X1015745D01*
X1011020Y404737D02*
X1015745D01*
X1011020Y406705D02*
X1015745D01*
X1011020Y408674D02*
X1015745D01*
X1011020Y410642D02*
X1015745D01*
X1011020Y412611D02*
X1015745D01*
X1011020Y414579D02*
X1015745D01*
X1011020Y416548D02*
X1015745D01*
X1011020Y418516D02*
X1015745D01*
X1011020Y420485D02*
X1015745D01*
X1011020Y422453D02*
X1015745D01*
X1011020Y424422D02*
X1015745D01*
X1011020Y426390D02*
X1015745D01*
X1011020Y428359D02*
X1015745D01*
X1011020Y430327D02*
X1015745D01*
X1011020Y432296D02*
X1015745D01*
X1011020Y434264D02*
X1015745D01*
X1011020Y436233D02*
X1015745D01*
X1011020Y438201D02*
X1015745D01*
X1011020Y440170D02*
X1015745D01*
X205384Y995455D02*
Y998014D01*
X207353Y995455D02*
Y998014D01*
X209321Y995455D02*
Y998014D01*
X214144Y1000278D02*
X211585D01*
X214144Y1002246D02*
X211585D01*
X214144Y1004215D02*
X211585D01*
X209321Y1006479D02*
Y1009038D01*
X207353Y1006479D02*
Y1009038D01*
X205384Y1006479D02*
Y1009038D01*
X203120Y1004215D02*
X200561D01*
X203120Y1002246D02*
X200561D01*
X203120Y1000278D02*
X200561D01*
X1030476Y196961D02*
X1033035D01*
X1030476Y194992D02*
X1033035D01*
X1030476Y193024D02*
X1033035D01*
X1035299Y188201D02*
Y190760D01*
X1037268Y188201D02*
Y190760D01*
X1039236Y188201D02*
Y190760D01*
X1041500Y193024D02*
X1044059D01*
X1041500Y194992D02*
X1044059D01*
X1041500Y196961D02*
X1044059D01*
X1039236Y199224D02*
Y201783D01*
X1037268Y199224D02*
Y201783D01*
X1035299Y199224D02*
Y201783D01*
X1077476Y196961D02*
X1080035D01*
X1077476Y194992D02*
X1080035D01*
X1077476Y193024D02*
X1080035D01*
X1082299Y188201D02*
Y190760D01*
X1084268Y188201D02*
Y190760D01*
X1086236Y188201D02*
Y190760D01*
X1088500Y193024D02*
X1091059D01*
X1088500Y194992D02*
X1091059D01*
X1088500Y196961D02*
X1091059D01*
X1086236Y199224D02*
Y201783D01*
X1084268Y199224D02*
Y201783D01*
X1082299Y199224D02*
Y201783D01*
G54D22*
X997350Y864300D02*
Y857607D01*
X999318Y864300D02*
Y857607D01*
X1001287Y864300D02*
Y857607D01*
X1003255Y864300D02*
Y857607D01*
X1005224Y864300D02*
Y857607D01*
X1007192Y864300D02*
Y857607D01*
X1009161Y864300D02*
Y857607D01*
X1011129Y864300D02*
Y857607D01*
X1013098Y864300D02*
Y857607D01*
X1015067Y864300D02*
Y857607D01*
X1017035Y864300D02*
Y857607D01*
X1019004Y864300D02*
Y857607D01*
X1020972Y864300D02*
Y857607D01*
X1022941Y864300D02*
Y857607D01*
X1024909Y864300D02*
Y857607D01*
X1026878Y864300D02*
Y857607D01*
X1028846Y864300D02*
Y857607D01*
X1030815Y864300D02*
Y857607D01*
X1032783Y864300D02*
Y857607D01*
X1034752Y864300D02*
Y857607D01*
X1036720Y864300D02*
Y857607D01*
X1038689Y864300D02*
Y857607D01*
X1040657Y864300D02*
Y857607D01*
X1042626Y864300D02*
Y857607D01*
X1044594Y864300D02*
Y857607D01*
X1046563Y864300D02*
Y857607D01*
Y955914D02*
Y949221D01*
X1044594Y955914D02*
Y949221D01*
X1042626Y955914D02*
Y949221D01*
X1040657Y955914D02*
Y949221D01*
X1038689Y955914D02*
Y949221D01*
X1036720Y955914D02*
Y949221D01*
X1034752Y955914D02*
Y949221D01*
X1032783Y955914D02*
Y949221D01*
X1030815Y955914D02*
Y949221D01*
X1028846Y955914D02*
Y949221D01*
X1026878Y955914D02*
Y949221D01*
X1024909Y955914D02*
Y949221D01*
X1022941Y955914D02*
Y949221D01*
X1020972Y955914D02*
Y949221D01*
X1019004Y955914D02*
Y949221D01*
X1017035Y955914D02*
Y949221D01*
X1015067Y955914D02*
Y949221D01*
X1013098Y955914D02*
Y949221D01*
X1011129Y955914D02*
Y949221D01*
X1009161Y955914D02*
Y949221D01*
X1007192Y955914D02*
Y949221D01*
X1005224Y955914D02*
Y949221D01*
X1003255Y955914D02*
Y949221D01*
X1001287Y955914D02*
Y949221D01*
X999318Y955914D02*
Y949221D01*
X997350Y955914D02*
Y949221D01*
X520177Y723031D02*
X518012D01*
X520177Y725000D02*
X518012D01*
X520177Y726969D02*
X518012D01*
X520177Y728937D02*
X518012D01*
X516339Y732776D02*
Y730610D01*
X514370Y732776D02*
Y730610D01*
X512402Y732776D02*
Y730610D01*
X510433Y732776D02*
Y730610D01*
X508760Y728937D02*
X506594D01*
X508760Y726969D02*
X506594D01*
X508760Y725000D02*
X506594D01*
X508760Y723031D02*
X506594D01*
X510433Y721358D02*
Y719193D01*
X512402Y721358D02*
Y719193D01*
X514370Y721358D02*
Y719193D01*
X516339Y721358D02*
Y719193D01*
X520177Y667913D02*
X518012D01*
X520177Y669882D02*
X518012D01*
X520177Y671850D02*
X518012D01*
X520177Y673819D02*
X518012D01*
X516339Y677657D02*
Y675492D01*
X514370Y677657D02*
Y675492D01*
X512402Y677657D02*
Y675492D01*
X510433Y677657D02*
Y675492D01*
X508760Y673819D02*
X506594D01*
X508760Y671850D02*
X506594D01*
X508760Y669882D02*
X506594D01*
X508760Y667913D02*
X506594D01*
X510433Y666240D02*
Y664075D01*
X512402Y666240D02*
Y664075D01*
X514370Y666240D02*
Y664075D01*
X516339Y666240D02*
Y664075D01*
G54D23*
X591050Y223251D02*
Y231086D01*
Y245850D02*
Y253684D01*
X593018Y223251D02*
Y231086D01*
Y245850D02*
Y253684D01*
X596955Y223251D02*
Y231086D01*
Y245850D02*
Y253684D01*
X598924Y223251D02*
Y231086D01*
Y245850D02*
Y253684D01*
X602861Y223251D02*
Y231086D01*
Y245850D02*
Y253684D01*
X604829Y223251D02*
Y231086D01*
Y245850D02*
Y253684D01*
X608766Y223251D02*
Y231086D01*
Y245850D02*
Y253684D01*
X610735Y223251D02*
Y231086D01*
Y245850D02*
Y253684D01*
X614672Y223251D02*
Y231086D01*
Y245850D02*
Y253684D01*
X616640Y223251D02*
Y231086D01*
Y245850D02*
Y253684D01*
X620577Y223251D02*
Y231086D01*
Y245850D02*
Y253684D01*
X622546Y223251D02*
Y231086D01*
Y245850D02*
Y253684D01*
X626483Y223251D02*
Y231086D01*
Y245850D02*
Y253684D01*
X628451Y223251D02*
Y231086D01*
Y245850D02*
Y253684D01*
X632388Y223251D02*
Y231086D01*
Y245850D02*
Y253684D01*
X634357Y223251D02*
Y231086D01*
Y245850D02*
Y253684D01*
X638294Y223251D02*
Y231086D01*
Y245850D02*
Y253684D01*
X640262Y223251D02*
Y231086D01*
Y245850D02*
Y253684D01*
X644199Y223251D02*
Y231086D01*
Y245850D02*
Y253684D01*
X646168Y223251D02*
Y231086D01*
Y245850D02*
Y253684D01*
X669790Y223251D02*
Y231086D01*
Y245850D02*
Y253684D01*
X671758Y223251D02*
Y231086D01*
Y245850D02*
Y253684D01*
X675695Y223251D02*
Y231086D01*
Y245850D02*
Y253684D01*
X677664Y223251D02*
Y231086D01*
Y245850D02*
Y253684D01*
X681601Y223251D02*
Y231086D01*
Y245850D02*
Y253684D01*
X683569Y223251D02*
Y231086D01*
Y245850D02*
Y253684D01*
X687506Y223251D02*
Y231086D01*
Y245850D02*
Y253684D01*
X689475Y223251D02*
Y231086D01*
Y245850D02*
Y253684D01*
X693412Y223251D02*
Y231086D01*
Y245850D02*
Y253684D01*
X695380Y223251D02*
Y231086D01*
Y245850D02*
Y253684D01*
X699317Y223251D02*
Y231086D01*
Y245850D02*
Y253684D01*
X701286Y223251D02*
Y231086D01*
Y245850D02*
Y253684D01*
X705223Y223251D02*
Y231086D01*
Y245850D02*
Y253684D01*
X707191Y223251D02*
Y231086D01*
Y245850D02*
Y253684D01*
X711128Y223251D02*
Y231086D01*
Y245850D02*
Y253684D01*
X713097Y223251D02*
Y231086D01*
Y245850D02*
Y253684D01*
X717034Y223251D02*
Y231086D01*
Y245850D02*
Y253684D01*
X719002Y223251D02*
Y231086D01*
Y245850D02*
Y253684D01*
X722939Y223251D02*
Y231086D01*
Y245850D02*
Y253684D01*
X724908Y223251D02*
Y231086D01*
Y245850D02*
Y253684D01*
G54D24*
X583687Y238468D02*
X591994D01*
X598687D02*
X615498D01*
X623687D02*
X640498D01*
X647172D02*
X655479D01*
X662447D02*
X670754D01*
X702428D02*
X719239D01*
X677428D02*
X694239D01*
X725931D02*
X734239D01*
G54D25*
X570719Y991057D02*
X572687D01*
X569719Y966557D02*
X571687D01*
X571219Y1015557D02*
X573187D01*
X571219Y1040057D02*
X573187D01*
X1052433Y265000D02*
Y263031D01*
X551219Y959057D02*
X553187D01*
X552219Y983557D02*
X554187D01*
X552719Y1032557D02*
X554687D01*
X552719Y1008057D02*
X554687D01*
X1067608Y168690D02*
Y171052D01*
Y178532D02*
Y180894D01*
X1060128Y178532D02*
Y180894D01*
G54D26*
X570719Y988498D02*
X572687D01*
X570719Y985939D02*
X572687D01*
X580561D02*
X582530D01*
X580561Y991057D02*
X582530D01*
X569719Y963998D02*
X571687D01*
X569719Y961439D02*
X571687D01*
X579561D02*
X581530D01*
X579561Y966557D02*
X581530D01*
X571219Y1012998D02*
X573187D01*
X571219Y1010439D02*
X573187D01*
X581061D02*
X583030D01*
X581061Y1015557D02*
X583030D01*
X571219Y1037498D02*
X573187D01*
X571219Y1034939D02*
X573187D01*
X581061D02*
X583030D01*
X581061Y1040057D02*
X583030D01*
X1049874Y265000D02*
Y263031D01*
X1047315Y265000D02*
Y263031D01*
Y255157D02*
Y253189D01*
X1052433Y255157D02*
Y253189D01*
X727953Y653150D03*
Y649213D03*
Y637402D03*
Y633465D03*
Y629528D03*
Y625591D03*
Y617717D03*
Y613780D03*
Y609843D03*
Y605906D03*
Y601969D03*
Y598031D03*
Y594094D03*
Y590157D03*
Y586220D03*
Y582283D03*
Y578346D03*
Y574409D03*
Y570472D03*
Y566535D03*
Y562598D03*
Y558661D03*
Y554724D03*
Y550787D03*
Y546850D03*
Y542913D03*
Y538976D03*
Y535039D03*
Y531102D03*
X724016Y657087D03*
Y653150D03*
Y649213D03*
Y645276D03*
Y641339D03*
Y637402D03*
Y633465D03*
Y629528D03*
Y625591D03*
Y621654D03*
Y617717D03*
Y613780D03*
Y609843D03*
Y605906D03*
Y601969D03*
Y598031D03*
Y594094D03*
Y590157D03*
Y586220D03*
Y582283D03*
Y578346D03*
Y574409D03*
Y570472D03*
Y566535D03*
Y562598D03*
Y558661D03*
Y554724D03*
Y550787D03*
Y546850D03*
Y542913D03*
Y538976D03*
Y535039D03*
Y531102D03*
Y527165D03*
X720079Y657087D03*
Y653150D03*
Y649213D03*
Y645276D03*
Y641339D03*
Y637402D03*
Y633465D03*
Y629528D03*
Y625591D03*
Y621654D03*
Y617717D03*
Y613780D03*
Y609843D03*
Y605906D03*
Y601969D03*
Y598031D03*
Y594094D03*
Y590157D03*
Y586220D03*
Y582283D03*
Y578346D03*
Y574409D03*
Y570472D03*
Y566535D03*
Y562598D03*
Y558661D03*
Y554724D03*
Y550787D03*
Y546850D03*
Y542913D03*
Y538976D03*
Y535039D03*
Y531102D03*
Y527165D03*
X716142Y657087D03*
Y653150D03*
Y649213D03*
Y645276D03*
Y641339D03*
Y637402D03*
Y633465D03*
Y629528D03*
Y625591D03*
Y621654D03*
Y617717D03*
Y613780D03*
Y609843D03*
Y605906D03*
Y601969D03*
Y598031D03*
Y594094D03*
Y590157D03*
Y586220D03*
Y582283D03*
Y578346D03*
Y574409D03*
Y570472D03*
Y566535D03*
Y562598D03*
Y558661D03*
Y554724D03*
Y550787D03*
Y546850D03*
Y542913D03*
Y538976D03*
Y535039D03*
Y531102D03*
Y527165D03*
X712205Y653150D03*
Y649213D03*
Y645276D03*
Y641339D03*
Y637402D03*
Y633465D03*
Y629528D03*
Y625591D03*
Y621654D03*
Y617717D03*
Y613780D03*
Y609843D03*
Y605906D03*
Y601969D03*
Y598031D03*
Y594094D03*
Y590157D03*
Y586220D03*
Y582283D03*
Y578346D03*
Y574409D03*
Y570472D03*
Y566535D03*
Y562598D03*
Y558661D03*
Y554724D03*
Y550787D03*
Y546850D03*
Y542913D03*
Y538976D03*
Y535039D03*
Y531102D03*
Y527165D03*
X708268Y653150D03*
Y649213D03*
Y645276D03*
Y641339D03*
Y637402D03*
Y633465D03*
Y629528D03*
Y625591D03*
Y621654D03*
Y617717D03*
Y613780D03*
Y609843D03*
Y605906D03*
Y601969D03*
Y598031D03*
Y594094D03*
Y590157D03*
Y586220D03*
Y582283D03*
Y578346D03*
Y574409D03*
Y570472D03*
Y566535D03*
Y562598D03*
Y558661D03*
Y554724D03*
Y550787D03*
Y546850D03*
Y542913D03*
Y538976D03*
Y535039D03*
Y531102D03*
Y527165D03*
X704331Y657087D03*
Y653150D03*
Y649213D03*
Y645276D03*
Y641339D03*
Y637402D03*
Y633465D03*
Y629528D03*
Y625591D03*
Y621654D03*
Y617717D03*
Y613780D03*
Y609843D03*
Y605906D03*
Y601969D03*
Y598031D03*
Y594094D03*
Y590157D03*
Y586220D03*
Y582283D03*
Y578346D03*
Y574409D03*
Y570472D03*
Y566535D03*
Y562598D03*
Y558661D03*
Y554724D03*
Y550787D03*
Y546850D03*
Y542913D03*
Y538976D03*
Y535039D03*
Y531102D03*
Y527165D03*
X700394Y657087D03*
Y653150D03*
Y649213D03*
Y645276D03*
Y641339D03*
Y637402D03*
Y633465D03*
Y629528D03*
Y625591D03*
Y621654D03*
Y617717D03*
Y613780D03*
Y609843D03*
Y605906D03*
Y601969D03*
Y598031D03*
Y594094D03*
Y590157D03*
Y586220D03*
Y582283D03*
Y578346D03*
Y574409D03*
Y570472D03*
Y566535D03*
Y562598D03*
Y558661D03*
Y554724D03*
Y550787D03*
Y546850D03*
Y542913D03*
Y538976D03*
Y535039D03*
Y531102D03*
Y527165D03*
X696457Y657087D03*
Y653150D03*
Y649213D03*
Y645276D03*
Y641339D03*
Y637402D03*
Y633465D03*
Y629528D03*
Y625591D03*
Y621654D03*
Y617717D03*
Y613780D03*
Y609843D03*
Y605906D03*
Y601969D03*
Y598031D03*
Y594094D03*
Y590157D03*
Y586220D03*
Y582283D03*
Y578346D03*
Y574409D03*
Y570472D03*
Y566535D03*
Y562598D03*
Y558661D03*
Y554724D03*
Y550787D03*
Y546850D03*
Y542913D03*
Y538976D03*
Y535039D03*
Y531102D03*
Y527165D03*
X692520Y657087D03*
Y653150D03*
Y649213D03*
Y645276D03*
Y641339D03*
Y637402D03*
Y633465D03*
Y629528D03*
Y625591D03*
Y621654D03*
Y617717D03*
Y613780D03*
Y609843D03*
Y605906D03*
Y601969D03*
Y598031D03*
Y594094D03*
Y590157D03*
Y586220D03*
Y582283D03*
Y578346D03*
Y574409D03*
Y570472D03*
Y566535D03*
Y562598D03*
Y558661D03*
Y554724D03*
Y550787D03*
Y546850D03*
Y542913D03*
Y538976D03*
Y535039D03*
Y531102D03*
Y527165D03*
X688583Y653150D03*
Y649213D03*
Y645276D03*
Y641339D03*
Y637402D03*
Y633465D03*
Y629528D03*
Y625591D03*
Y621654D03*
Y617717D03*
Y613780D03*
Y609843D03*
Y605906D03*
Y601969D03*
Y598031D03*
Y594094D03*
Y590157D03*
Y586220D03*
Y582283D03*
Y578346D03*
Y574409D03*
Y570472D03*
Y566535D03*
Y562598D03*
Y558661D03*
Y554724D03*
Y550787D03*
Y546850D03*
Y542913D03*
Y538976D03*
Y535039D03*
Y531102D03*
Y527165D03*
X684646Y653150D03*
Y649213D03*
Y645276D03*
Y641339D03*
Y637402D03*
Y633465D03*
Y629528D03*
Y625591D03*
Y621654D03*
Y617717D03*
Y613780D03*
Y609843D03*
Y605906D03*
Y601969D03*
Y598031D03*
Y594094D03*
Y590157D03*
Y586220D03*
Y582283D03*
Y578346D03*
Y574409D03*
Y570472D03*
Y566535D03*
Y562598D03*
Y558661D03*
Y554724D03*
Y550787D03*
Y546850D03*
Y542913D03*
Y538976D03*
Y535039D03*
Y531102D03*
Y527165D03*
X680709Y657087D03*
Y653150D03*
Y649213D03*
Y645276D03*
Y641339D03*
Y637402D03*
Y633465D03*
Y629528D03*
Y625591D03*
Y621654D03*
Y617717D03*
Y613780D03*
Y609843D03*
Y605906D03*
Y601969D03*
Y598031D03*
Y594094D03*
Y590157D03*
Y586220D03*
Y582283D03*
Y578346D03*
Y574409D03*
Y570472D03*
Y566535D03*
Y562598D03*
Y558661D03*
Y554724D03*
Y550787D03*
Y546850D03*
Y542913D03*
Y538976D03*
Y535039D03*
Y531102D03*
Y527165D03*
X676772Y657087D03*
Y653150D03*
Y649213D03*
Y645276D03*
Y641339D03*
Y637402D03*
Y633465D03*
Y629528D03*
Y625591D03*
Y621654D03*
Y617717D03*
Y613780D03*
Y609843D03*
Y605906D03*
Y601969D03*
Y598031D03*
Y594094D03*
Y590157D03*
Y586220D03*
Y582283D03*
Y578346D03*
Y574409D03*
Y570472D03*
Y566535D03*
Y562598D03*
Y558661D03*
Y554724D03*
Y550787D03*
Y546850D03*
Y542913D03*
Y538976D03*
Y535039D03*
Y531102D03*
Y527165D03*
X672835Y657087D03*
Y653150D03*
Y649213D03*
Y645276D03*
Y641339D03*
Y637402D03*
Y633465D03*
Y629528D03*
Y625591D03*
Y621654D03*
Y617717D03*
Y613780D03*
Y609843D03*
Y605906D03*
Y601969D03*
Y598031D03*
Y594094D03*
Y590157D03*
Y586220D03*
Y582283D03*
Y578346D03*
Y574409D03*
Y570472D03*
Y566535D03*
Y562598D03*
Y558661D03*
Y554724D03*
Y550787D03*
Y546850D03*
Y542913D03*
Y538976D03*
Y535039D03*
Y531102D03*
Y527165D03*
X668898Y657087D03*
Y653150D03*
Y649213D03*
Y645276D03*
Y641339D03*
Y637402D03*
Y633465D03*
Y629528D03*
Y625591D03*
Y621654D03*
Y617717D03*
Y613780D03*
Y609843D03*
Y605906D03*
Y601969D03*
Y598031D03*
Y594094D03*
Y590157D03*
Y586220D03*
Y582283D03*
Y578346D03*
Y574409D03*
Y570472D03*
Y566535D03*
Y562598D03*
Y558661D03*
Y554724D03*
Y550787D03*
Y546850D03*
Y542913D03*
Y538976D03*
Y535039D03*
Y531102D03*
Y527165D03*
X664961Y653150D03*
Y649213D03*
Y645276D03*
Y641339D03*
Y637402D03*
Y633465D03*
Y629528D03*
Y625591D03*
Y621654D03*
Y617717D03*
Y613780D03*
Y609843D03*
Y605906D03*
Y601969D03*
Y598031D03*
Y594094D03*
Y590157D03*
Y586220D03*
Y582283D03*
Y578346D03*
Y574409D03*
Y570472D03*
Y566535D03*
Y562598D03*
Y558661D03*
Y554724D03*
Y550787D03*
Y546850D03*
Y542913D03*
Y538976D03*
Y535039D03*
Y531102D03*
Y527165D03*
X661024Y653150D03*
Y649213D03*
Y645276D03*
Y641339D03*
Y637402D03*
Y633465D03*
Y629528D03*
Y625591D03*
Y621654D03*
Y617717D03*
Y613780D03*
Y609843D03*
Y605906D03*
Y601969D03*
Y598031D03*
Y594094D03*
Y590157D03*
Y586220D03*
Y582283D03*
Y578346D03*
Y574409D03*
Y570472D03*
Y566535D03*
Y562598D03*
Y558661D03*
Y554724D03*
Y550787D03*
Y546850D03*
Y542913D03*
Y538976D03*
Y535039D03*
Y531102D03*
Y527165D03*
X657087Y657087D03*
Y653150D03*
Y649213D03*
Y645276D03*
Y641339D03*
Y637402D03*
Y633465D03*
Y629528D03*
Y625591D03*
Y621654D03*
Y617717D03*
Y613780D03*
Y609843D03*
Y605906D03*
Y601969D03*
Y598031D03*
Y594094D03*
Y590157D03*
Y586220D03*
Y582283D03*
Y578346D03*
Y574409D03*
Y570472D03*
Y566535D03*
Y562598D03*
Y558661D03*
Y554724D03*
Y550787D03*
Y546850D03*
Y542913D03*
Y538976D03*
Y535039D03*
Y531102D03*
Y527165D03*
X653150Y657087D03*
Y653150D03*
Y649213D03*
Y645276D03*
Y641339D03*
Y637402D03*
Y633465D03*
Y629528D03*
Y625591D03*
Y621654D03*
Y617717D03*
Y613780D03*
Y609843D03*
Y605906D03*
Y601969D03*
Y598031D03*
Y594094D03*
Y590157D03*
Y586220D03*
Y582283D03*
Y578346D03*
Y574409D03*
Y570472D03*
Y566535D03*
Y562598D03*
Y558661D03*
Y554724D03*
Y550787D03*
Y546850D03*
Y542913D03*
Y538976D03*
Y535039D03*
Y531102D03*
Y527165D03*
X649213Y657087D03*
Y653150D03*
Y649213D03*
Y645276D03*
Y641339D03*
Y637402D03*
Y633465D03*
Y629528D03*
Y625591D03*
Y621654D03*
Y617717D03*
Y613780D03*
Y609843D03*
Y605906D03*
Y601969D03*
Y598031D03*
Y594094D03*
Y590157D03*
Y586220D03*
Y582283D03*
Y578346D03*
Y574409D03*
Y570472D03*
Y566535D03*
Y562598D03*
Y558661D03*
Y554724D03*
Y550787D03*
Y546850D03*
Y542913D03*
Y538976D03*
Y535039D03*
Y531102D03*
Y527165D03*
X645276Y657087D03*
Y653150D03*
Y649213D03*
Y645276D03*
Y641339D03*
Y637402D03*
Y633465D03*
Y629528D03*
Y625591D03*
Y621654D03*
Y617717D03*
Y613780D03*
Y609843D03*
Y605906D03*
Y601969D03*
Y598031D03*
Y594094D03*
Y590157D03*
Y586220D03*
Y582283D03*
Y578346D03*
Y574409D03*
Y570472D03*
Y566535D03*
Y562598D03*
Y558661D03*
Y554724D03*
Y550787D03*
Y546850D03*
Y542913D03*
Y538976D03*
Y535039D03*
Y531102D03*
Y527165D03*
X641339Y653150D03*
Y649213D03*
Y645276D03*
Y641339D03*
Y637402D03*
Y633465D03*
Y629528D03*
Y625591D03*
Y621654D03*
Y617717D03*
Y613780D03*
Y609843D03*
Y605906D03*
Y601969D03*
Y598031D03*
Y594094D03*
Y590157D03*
Y586220D03*
Y582283D03*
Y578346D03*
Y574409D03*
Y570472D03*
Y566535D03*
Y562598D03*
Y558661D03*
Y554724D03*
Y550787D03*
Y546850D03*
Y542913D03*
Y538976D03*
Y535039D03*
Y531102D03*
Y527165D03*
X637402Y653150D03*
Y649213D03*
Y645276D03*
Y641339D03*
Y637402D03*
Y633465D03*
Y629528D03*
Y625591D03*
Y621654D03*
Y617717D03*
Y613780D03*
Y609843D03*
Y605906D03*
Y601969D03*
Y598031D03*
Y594094D03*
Y590157D03*
Y586220D03*
Y582283D03*
Y578346D03*
Y574409D03*
Y570472D03*
Y566535D03*
Y562598D03*
Y558661D03*
Y554724D03*
Y550787D03*
Y546850D03*
Y542913D03*
Y538976D03*
Y535039D03*
Y531102D03*
Y527165D03*
X633465Y657087D03*
Y653150D03*
Y649213D03*
Y645276D03*
Y641339D03*
Y637402D03*
Y633465D03*
Y629528D03*
Y625591D03*
Y621654D03*
Y617717D03*
Y613780D03*
Y609843D03*
Y605906D03*
Y601969D03*
Y598031D03*
Y594094D03*
Y590157D03*
Y586220D03*
Y582283D03*
Y578346D03*
Y574409D03*
Y570472D03*
Y566535D03*
Y562598D03*
Y558661D03*
Y554724D03*
Y550787D03*
Y546850D03*
Y542913D03*
Y538976D03*
Y535039D03*
Y531102D03*
Y527165D03*
X629528Y657087D03*
Y653150D03*
Y649213D03*
Y645276D03*
Y641339D03*
Y637402D03*
Y633465D03*
Y629528D03*
Y625591D03*
Y621654D03*
Y617717D03*
Y613780D03*
Y609843D03*
Y605906D03*
Y601969D03*
Y598031D03*
Y594094D03*
Y590157D03*
Y586220D03*
Y582283D03*
Y578346D03*
Y574409D03*
Y570472D03*
Y566535D03*
Y562598D03*
Y558661D03*
Y554724D03*
Y550787D03*
Y546850D03*
Y542913D03*
Y538976D03*
Y535039D03*
Y531102D03*
Y527165D03*
X625591Y657087D03*
Y653150D03*
Y649213D03*
Y645276D03*
Y641339D03*
Y637402D03*
Y633465D03*
Y629528D03*
Y625591D03*
Y621654D03*
Y617717D03*
Y613780D03*
Y609843D03*
Y605906D03*
Y601969D03*
Y598031D03*
Y594094D03*
Y590157D03*
Y586220D03*
Y582283D03*
Y578346D03*
Y574409D03*
Y570472D03*
Y566535D03*
Y562598D03*
Y558661D03*
Y554724D03*
Y550787D03*
Y546850D03*
Y542913D03*
Y538976D03*
Y535039D03*
Y531102D03*
Y527165D03*
X621654Y657087D03*
Y653150D03*
Y649213D03*
Y645276D03*
Y641339D03*
Y637402D03*
Y633465D03*
Y629528D03*
Y625591D03*
Y621654D03*
Y617717D03*
Y613780D03*
Y609843D03*
Y605906D03*
Y601969D03*
Y598031D03*
Y594094D03*
Y590157D03*
Y586220D03*
Y582283D03*
Y578346D03*
Y574409D03*
Y570472D03*
Y566535D03*
Y562598D03*
Y558661D03*
Y554724D03*
Y550787D03*
Y546850D03*
Y542913D03*
Y538976D03*
Y535039D03*
Y531102D03*
Y527165D03*
X617717Y653150D03*
Y649213D03*
Y645276D03*
Y641339D03*
Y637402D03*
Y633465D03*
Y629528D03*
Y625591D03*
Y621654D03*
Y617717D03*
Y613780D03*
Y609843D03*
Y605906D03*
Y601969D03*
Y598031D03*
Y594094D03*
Y590157D03*
Y586220D03*
Y582283D03*
Y578346D03*
Y574409D03*
Y570472D03*
Y566535D03*
Y562598D03*
Y558661D03*
Y554724D03*
Y550787D03*
Y546850D03*
Y542913D03*
Y538976D03*
Y535039D03*
Y531102D03*
Y527165D03*
X613780Y653150D03*
Y649213D03*
Y645276D03*
Y641339D03*
Y637402D03*
Y633465D03*
Y629528D03*
Y625591D03*
Y621654D03*
Y617717D03*
Y613780D03*
Y609843D03*
Y605906D03*
Y601969D03*
Y598031D03*
Y594094D03*
Y590157D03*
Y586220D03*
Y582283D03*
Y578346D03*
Y574409D03*
Y570472D03*
Y566535D03*
Y562598D03*
Y558661D03*
Y554724D03*
Y550787D03*
Y546850D03*
Y542913D03*
Y538976D03*
Y535039D03*
Y531102D03*
Y527165D03*
X609843Y657087D03*
Y653150D03*
Y649213D03*
Y645276D03*
Y641339D03*
Y637402D03*
Y633465D03*
Y629528D03*
Y625591D03*
Y621654D03*
Y617717D03*
Y613780D03*
Y609843D03*
Y605906D03*
Y601969D03*
Y598031D03*
Y594094D03*
Y590157D03*
Y586220D03*
Y582283D03*
Y578346D03*
Y574409D03*
Y570472D03*
Y566535D03*
Y562598D03*
Y558661D03*
Y554724D03*
Y550787D03*
Y546850D03*
Y542913D03*
Y538976D03*
Y535039D03*
Y531102D03*
Y527165D03*
X605906Y657087D03*
Y653150D03*
Y649213D03*
Y645276D03*
Y641339D03*
Y637402D03*
Y633465D03*
Y629528D03*
Y625591D03*
Y621654D03*
Y617717D03*
Y613780D03*
Y609843D03*
Y605906D03*
Y601969D03*
Y598031D03*
Y594094D03*
Y590157D03*
Y586220D03*
Y582283D03*
Y578346D03*
Y574409D03*
Y570472D03*
Y566535D03*
Y562598D03*
Y558661D03*
Y554724D03*
Y550787D03*
Y546850D03*
Y542913D03*
Y538976D03*
Y535039D03*
Y531102D03*
Y527165D03*
X601969Y657087D03*
Y653150D03*
Y649213D03*
Y645276D03*
Y641339D03*
Y637402D03*
Y633465D03*
Y629528D03*
Y625591D03*
Y621654D03*
Y617717D03*
Y613780D03*
Y609843D03*
Y605906D03*
Y601969D03*
Y598031D03*
Y594094D03*
Y590157D03*
Y586220D03*
Y582283D03*
Y578346D03*
Y574409D03*
Y570472D03*
Y566535D03*
Y562598D03*
Y558661D03*
Y554724D03*
Y550787D03*
Y546850D03*
Y542913D03*
Y538976D03*
Y535039D03*
Y531102D03*
Y527165D03*
X598031Y653150D03*
Y649213D03*
Y637402D03*
Y633465D03*
Y629528D03*
Y625591D03*
Y617717D03*
Y613780D03*
Y609843D03*
Y605906D03*
Y601969D03*
Y598031D03*
Y594094D03*
Y590157D03*
Y586220D03*
Y582283D03*
Y578346D03*
Y574409D03*
Y570472D03*
Y566535D03*
Y562598D03*
Y558661D03*
Y554724D03*
Y550787D03*
Y546850D03*
Y542913D03*
Y538976D03*
Y535039D03*
Y531102D03*
X830315Y609843D03*
X834252D03*
X838189D03*
X842126D03*
X846063D03*
X850000D03*
X853937D03*
X857874D03*
X830315Y605906D03*
X834252D03*
X838189D03*
X842126D03*
X846063D03*
X850000D03*
X853937D03*
X857874D03*
X830315Y601969D03*
X834252D03*
X838189D03*
X842126D03*
X846063D03*
X850000D03*
X853937D03*
X857874D03*
X830315Y598031D03*
X834252D03*
X838189D03*
X842126D03*
X846063D03*
X850000D03*
X853937D03*
X857874D03*
X830315Y594094D03*
X834252D03*
X838189D03*
X842126D03*
X846063D03*
X850000D03*
X853937D03*
X857874D03*
X830315Y590157D03*
X834252D03*
X838189D03*
X842126D03*
X846063D03*
X850000D03*
X853937D03*
X857874D03*
X830315Y586220D03*
X834252D03*
X838189D03*
X842126D03*
X846063D03*
X850000D03*
X853937D03*
X857874D03*
X830315Y582283D03*
X834252D03*
X838189D03*
X842126D03*
X846063D03*
X850000D03*
X853937D03*
X857874D03*
X958268Y533071D03*
Y537008D03*
Y540945D03*
Y544882D03*
Y548819D03*
Y552756D03*
Y556693D03*
Y560630D03*
Y564567D03*
Y568504D03*
Y572441D03*
Y576378D03*
Y580315D03*
Y584252D03*
Y588189D03*
Y592126D03*
Y596063D03*
Y600000D03*
Y603937D03*
Y607874D03*
Y611811D03*
Y615748D03*
Y619685D03*
Y623622D03*
Y627559D03*
Y631496D03*
Y635433D03*
Y639370D03*
Y643307D03*
Y647244D03*
Y651181D03*
Y655118D03*
Y659055D03*
Y662992D03*
X962205Y533071D03*
Y537008D03*
Y540945D03*
Y544882D03*
Y548819D03*
Y552756D03*
Y556693D03*
Y560630D03*
Y564567D03*
Y568504D03*
Y572441D03*
Y576378D03*
Y580315D03*
Y584252D03*
Y588189D03*
Y592126D03*
Y596063D03*
Y600000D03*
Y603937D03*
Y607874D03*
Y611811D03*
Y615748D03*
Y619685D03*
Y623622D03*
Y627559D03*
Y631496D03*
Y635433D03*
Y639370D03*
Y643307D03*
Y647244D03*
Y651181D03*
Y655118D03*
Y659055D03*
Y662992D03*
X966142Y533071D03*
Y537008D03*
Y540945D03*
Y544882D03*
Y548819D03*
Y552756D03*
Y556693D03*
Y560630D03*
Y564567D03*
Y568504D03*
Y572441D03*
Y576378D03*
Y580315D03*
Y584252D03*
Y588189D03*
Y592126D03*
Y596063D03*
Y600000D03*
Y603937D03*
Y607874D03*
Y611811D03*
Y615748D03*
Y619685D03*
Y623622D03*
Y627559D03*
Y631496D03*
Y635433D03*
Y639370D03*
Y643307D03*
Y647244D03*
Y651181D03*
Y655118D03*
Y659055D03*
Y662992D03*
X970079Y533071D03*
Y537008D03*
Y540945D03*
Y544882D03*
Y548819D03*
Y552756D03*
Y556693D03*
Y560630D03*
Y564567D03*
Y568504D03*
Y572441D03*
Y576378D03*
Y580315D03*
Y584252D03*
Y588189D03*
Y592126D03*
Y596063D03*
Y600000D03*
Y603937D03*
Y607874D03*
Y611811D03*
Y615748D03*
Y619685D03*
Y623622D03*
Y627559D03*
Y631496D03*
Y635433D03*
Y639370D03*
Y643307D03*
Y647244D03*
Y651181D03*
Y655118D03*
Y659055D03*
Y662992D03*
X974016Y533071D03*
Y537008D03*
Y540945D03*
Y544882D03*
Y548819D03*
Y552756D03*
Y556693D03*
Y560630D03*
Y564567D03*
Y568504D03*
Y572441D03*
Y576378D03*
Y580315D03*
Y584252D03*
Y588189D03*
Y592126D03*
Y596063D03*
Y600000D03*
Y603937D03*
Y607874D03*
Y611811D03*
Y615748D03*
Y619685D03*
Y623622D03*
Y627559D03*
Y631496D03*
Y635433D03*
Y639370D03*
Y643307D03*
Y647244D03*
Y651181D03*
Y655118D03*
Y659055D03*
Y662992D03*
X977953Y533071D03*
Y537008D03*
Y540945D03*
Y544882D03*
Y548819D03*
Y647244D03*
Y651181D03*
Y655118D03*
Y659055D03*
Y662992D03*
X981890Y533071D03*
Y537008D03*
Y540945D03*
Y544882D03*
Y548819D03*
Y647244D03*
Y651181D03*
Y655118D03*
Y659055D03*
Y662992D03*
X985827Y533071D03*
Y537008D03*
Y540945D03*
Y544882D03*
Y548819D03*
Y647244D03*
Y651181D03*
Y655118D03*
Y659055D03*
Y662992D03*
X989764Y533071D03*
Y537008D03*
Y540945D03*
Y544882D03*
Y548819D03*
Y647244D03*
Y651181D03*
Y655118D03*
Y659055D03*
Y662992D03*
X993701Y533071D03*
Y537008D03*
Y540945D03*
Y544882D03*
Y548819D03*
Y647244D03*
Y651181D03*
Y655118D03*
Y659055D03*
Y662992D03*
X997638Y533071D03*
Y537008D03*
Y540945D03*
Y544882D03*
Y548819D03*
Y647244D03*
Y651181D03*
Y655118D03*
Y659055D03*
Y662992D03*
X1001575Y533071D03*
Y537008D03*
Y540945D03*
Y544882D03*
Y548819D03*
Y647244D03*
Y651181D03*
Y655118D03*
Y659055D03*
Y662992D03*
X1005512Y533071D03*
Y537008D03*
Y540945D03*
Y544882D03*
Y548819D03*
Y580315D03*
Y584252D03*
Y588189D03*
Y592126D03*
Y596063D03*
Y600000D03*
Y603937D03*
Y607874D03*
Y611811D03*
Y615748D03*
Y647244D03*
Y651181D03*
Y655118D03*
Y659055D03*
Y662992D03*
X1009449Y533071D03*
Y537008D03*
Y540945D03*
Y544882D03*
Y548819D03*
Y580315D03*
Y584252D03*
Y588189D03*
Y592126D03*
Y596063D03*
Y600000D03*
Y603937D03*
Y607874D03*
Y611811D03*
Y615748D03*
Y647244D03*
Y651181D03*
Y655118D03*
Y659055D03*
Y662992D03*
X1013386Y533071D03*
Y537008D03*
Y540945D03*
Y544882D03*
Y548819D03*
Y580315D03*
Y584252D03*
Y588189D03*
Y592126D03*
Y596063D03*
Y600000D03*
Y603937D03*
Y607874D03*
Y611811D03*
Y615748D03*
Y647244D03*
Y651181D03*
Y655118D03*
Y659055D03*
Y662992D03*
X1017323Y533071D03*
Y537008D03*
Y540945D03*
Y544882D03*
Y548819D03*
Y580315D03*
Y584252D03*
Y588189D03*
Y592126D03*
Y596063D03*
Y600000D03*
Y603937D03*
Y607874D03*
Y611811D03*
Y615748D03*
Y647244D03*
Y651181D03*
Y655118D03*
Y659055D03*
Y662992D03*
X1021260Y533071D03*
Y537008D03*
Y540945D03*
Y544882D03*
Y548819D03*
Y580315D03*
Y584252D03*
Y588189D03*
Y592126D03*
Y596063D03*
Y600000D03*
Y603937D03*
Y607874D03*
Y611811D03*
Y615748D03*
Y647244D03*
Y651181D03*
Y655118D03*
Y659055D03*
Y662992D03*
X1025197Y533071D03*
Y537008D03*
Y540945D03*
Y544882D03*
Y548819D03*
Y580315D03*
Y584252D03*
Y588189D03*
Y592126D03*
Y596063D03*
Y600000D03*
Y603937D03*
Y607874D03*
Y611811D03*
Y615748D03*
Y647244D03*
Y651181D03*
Y655118D03*
Y659055D03*
Y662992D03*
X1029134Y533071D03*
Y537008D03*
Y540945D03*
Y544882D03*
Y548819D03*
Y580315D03*
Y584252D03*
Y588189D03*
Y592126D03*
Y596063D03*
Y600000D03*
Y603937D03*
Y607874D03*
Y611811D03*
Y615748D03*
Y647244D03*
Y651181D03*
Y655118D03*
Y659055D03*
Y662992D03*
X1033071Y533071D03*
Y537008D03*
Y540945D03*
Y544882D03*
Y548819D03*
Y580315D03*
Y584252D03*
Y588189D03*
Y592126D03*
Y596063D03*
Y600000D03*
Y603937D03*
Y607874D03*
Y611811D03*
Y615748D03*
Y647244D03*
Y651181D03*
Y655118D03*
Y659055D03*
Y662992D03*
X1037008Y533071D03*
Y537008D03*
Y540945D03*
Y544882D03*
Y548819D03*
Y580315D03*
Y584252D03*
Y588189D03*
Y592126D03*
Y596063D03*
Y600000D03*
Y603937D03*
Y607874D03*
Y611811D03*
Y615748D03*
Y647244D03*
Y651181D03*
Y655118D03*
Y659055D03*
Y662992D03*
X1040945Y533071D03*
Y537008D03*
Y540945D03*
Y544882D03*
Y548819D03*
Y580315D03*
Y584252D03*
Y588189D03*
Y592126D03*
Y596063D03*
Y600000D03*
Y603937D03*
Y607874D03*
Y611811D03*
Y615748D03*
Y647244D03*
Y651181D03*
Y655118D03*
Y659055D03*
Y662992D03*
X1044882Y533071D03*
Y537008D03*
Y540945D03*
Y544882D03*
Y548819D03*
Y647244D03*
Y651181D03*
Y655118D03*
Y659055D03*
Y662992D03*
X1048819Y533071D03*
Y537008D03*
Y540945D03*
Y544882D03*
Y548819D03*
Y647244D03*
Y651181D03*
Y655118D03*
Y659055D03*
Y662992D03*
X1052756Y533071D03*
Y537008D03*
Y540945D03*
Y544882D03*
Y548819D03*
Y647244D03*
Y651181D03*
Y655118D03*
Y659055D03*
Y662992D03*
X1056693Y533071D03*
Y537008D03*
Y540945D03*
Y544882D03*
Y548819D03*
Y647244D03*
Y651181D03*
Y655118D03*
Y659055D03*
Y662992D03*
X1060630Y533071D03*
Y537008D03*
Y540945D03*
Y544882D03*
Y548819D03*
Y647244D03*
Y651181D03*
Y655118D03*
Y659055D03*
Y662992D03*
X1064567Y533071D03*
Y537008D03*
Y540945D03*
Y544882D03*
Y548819D03*
Y647244D03*
Y651181D03*
Y655118D03*
Y659055D03*
Y662992D03*
X1068504Y533071D03*
Y537008D03*
Y540945D03*
Y544882D03*
Y548819D03*
Y647244D03*
Y651181D03*
Y655118D03*
Y659055D03*
Y662992D03*
X1072441Y533071D03*
Y537008D03*
Y540945D03*
Y544882D03*
Y548819D03*
Y552756D03*
Y556693D03*
Y560630D03*
Y564567D03*
Y568504D03*
Y572441D03*
Y576378D03*
Y580315D03*
Y584252D03*
Y588189D03*
Y592126D03*
Y596063D03*
Y600000D03*
Y603937D03*
Y607874D03*
Y611811D03*
Y615748D03*
Y619685D03*
Y623622D03*
Y627559D03*
Y631496D03*
Y635433D03*
Y639370D03*
Y643307D03*
Y647244D03*
Y651181D03*
Y655118D03*
Y659055D03*
Y662992D03*
X1076378Y533071D03*
Y537008D03*
Y540945D03*
Y544882D03*
Y548819D03*
Y552756D03*
Y556693D03*
Y560630D03*
Y564567D03*
Y568504D03*
Y572441D03*
Y576378D03*
Y580315D03*
Y584252D03*
Y588189D03*
Y592126D03*
Y596063D03*
Y600000D03*
Y603937D03*
Y607874D03*
Y611811D03*
Y615748D03*
Y619685D03*
Y623622D03*
Y627559D03*
Y631496D03*
Y635433D03*
Y639370D03*
Y643307D03*
Y647244D03*
Y651181D03*
Y655118D03*
Y659055D03*
Y662992D03*
X1080315Y533071D03*
Y537008D03*
Y540945D03*
Y544882D03*
Y548819D03*
Y552756D03*
Y556693D03*
Y560630D03*
Y564567D03*
Y568504D03*
Y572441D03*
Y576378D03*
Y580315D03*
Y584252D03*
Y588189D03*
Y592126D03*
Y596063D03*
Y600000D03*
Y603937D03*
Y607874D03*
Y611811D03*
Y615748D03*
Y619685D03*
Y623622D03*
Y627559D03*
Y631496D03*
Y635433D03*
Y639370D03*
Y643307D03*
Y647244D03*
Y651181D03*
Y655118D03*
Y659055D03*
Y662992D03*
X1084252Y533071D03*
Y537008D03*
Y540945D03*
Y544882D03*
Y548819D03*
Y552756D03*
Y556693D03*
Y560630D03*
Y564567D03*
Y568504D03*
Y572441D03*
Y576378D03*
Y580315D03*
Y584252D03*
Y588189D03*
Y592126D03*
Y596063D03*
Y600000D03*
Y603937D03*
Y607874D03*
Y611811D03*
Y615748D03*
Y619685D03*
Y623622D03*
Y627559D03*
Y631496D03*
Y635433D03*
Y639370D03*
Y643307D03*
Y647244D03*
Y651181D03*
Y655118D03*
Y659055D03*
Y662992D03*
X1088189Y533071D03*
Y537008D03*
Y540945D03*
Y544882D03*
Y548819D03*
Y552756D03*
Y556693D03*
Y560630D03*
Y564567D03*
Y568504D03*
Y572441D03*
Y576378D03*
Y580315D03*
Y584252D03*
Y588189D03*
Y592126D03*
Y596063D03*
Y600000D03*
Y603937D03*
Y607874D03*
Y611811D03*
Y615748D03*
Y619685D03*
Y623622D03*
Y627559D03*
Y631496D03*
Y635433D03*
Y639370D03*
Y643307D03*
Y647244D03*
Y651181D03*
Y655118D03*
Y659055D03*
Y662992D03*
X551219Y956498D02*
X553187D01*
X551219Y953939D02*
X553187D01*
X551219Y951380D02*
X553187D01*
X562243D02*
X564211D01*
X562243Y953939D02*
X564211D01*
X562243Y956498D02*
X564211D01*
X562243Y959057D02*
X564211D01*
X552219Y980998D02*
X554187D01*
X552219Y978439D02*
X554187D01*
X552219Y975880D02*
X554187D01*
X563243D02*
X565211D01*
X563243Y978439D02*
X565211D01*
X563243Y980998D02*
X565211D01*
X563243Y983557D02*
X565211D01*
X552719Y1029998D02*
X554687D01*
X552719Y1027439D02*
X554687D01*
X552719Y1024880D02*
X554687D01*
X563743D02*
X565711D01*
X563743Y1027439D02*
X565711D01*
X563743Y1029998D02*
X565711D01*
X563743Y1032557D02*
X565711D01*
X552719Y1005498D02*
X554687D01*
X552719Y1002939D02*
X554687D01*
X552719Y1000380D02*
X554687D01*
X563743D02*
X565711D01*
X563743Y1002939D02*
X565711D01*
X563743Y1005498D02*
X565711D01*
X563743Y1008057D02*
X565711D01*
G54D27*
X897441Y499606D02*
X900984D01*
X910433Y772441D02*
X906890D01*
X1258809Y619299D02*
X1255265D01*
X269291Y503346D02*
Y499803D01*
G54D28*
X727351Y1020154D02*
Y1009548D01*
X733257Y1020154D02*
Y1009548D01*
X739162Y1020154D02*
Y1009548D01*
X745068Y1020154D02*
Y1009548D01*
X750973Y1020154D02*
Y1009548D01*
X756879Y1020154D02*
Y1009548D01*
X762784Y1020154D02*
Y1009548D01*
X768690Y1020154D02*
Y1009548D01*
X774595Y1020154D02*
Y1009548D01*
X780501Y1020154D02*
Y1009548D01*
X786406Y1020154D02*
Y1009548D01*
X792312Y1020154D02*
Y1009548D01*
X798217Y1020154D02*
Y1009548D01*
X804123Y1020154D02*
Y1009548D01*
X810028Y1020154D02*
Y1009548D01*
X815934Y1020154D02*
Y1009548D01*
X821839Y1020154D02*
Y1009548D01*
X827745Y1020154D02*
Y1009548D01*
X833650Y1020154D02*
Y1009548D01*
X839556Y1020154D02*
Y1009548D01*
X845461Y1020154D02*
Y1009548D01*
X851367Y1020154D02*
Y1009548D01*
X857272Y1020154D02*
Y1009548D01*
X863178Y1020154D02*
Y1009548D01*
X869083Y1020154D02*
Y1009548D01*
X874989Y1020154D02*
Y1009548D01*
X880894Y1020154D02*
Y1009548D01*
X886800Y1020154D02*
Y1009548D01*
X892706Y1020154D02*
Y1009548D01*
X898611Y1020154D02*
Y1009548D01*
X904517Y1020154D02*
Y1009548D01*
X910422Y1020154D02*
Y1009548D01*
X916328Y1020154D02*
Y1009548D01*
X922233Y1020154D02*
Y1009548D01*
X928139Y1020154D02*
Y1009548D01*
X934044Y1020154D02*
Y1009548D01*
X939950Y1020154D02*
Y1009548D01*
X727351Y1045351D02*
Y1034745D01*
X733257Y1045351D02*
Y1034745D01*
X739162Y1045351D02*
Y1034745D01*
X745068Y1045351D02*
Y1034745D01*
X750973Y1045351D02*
Y1034745D01*
X756879Y1045351D02*
Y1034745D01*
X762784Y1045351D02*
Y1034745D01*
X768690Y1045351D02*
Y1034745D01*
X774595Y1045351D02*
Y1034745D01*
X780501Y1045351D02*
Y1034745D01*
X786406Y1045351D02*
Y1034745D01*
X792312Y1045351D02*
Y1034745D01*
X798217Y1045351D02*
Y1034745D01*
X804123Y1045351D02*
Y1034745D01*
X810028Y1045351D02*
Y1034745D01*
X815934Y1045351D02*
Y1034745D01*
X821839Y1045351D02*
Y1034745D01*
X827745Y1045351D02*
Y1034745D01*
X833650Y1045351D02*
Y1034745D01*
X839556Y1045351D02*
Y1034745D01*
X845461Y1045351D02*
Y1034745D01*
X851367Y1045351D02*
Y1034745D01*
X857272Y1045351D02*
Y1034745D01*
X863178Y1045351D02*
Y1034745D01*
X869083Y1045351D02*
Y1034745D01*
X874989Y1045351D02*
Y1034745D01*
X880894Y1045351D02*
Y1034745D01*
X886800Y1045351D02*
Y1034745D01*
X892706Y1045351D02*
Y1034745D01*
X898611Y1045351D02*
Y1034745D01*
X904517Y1045351D02*
Y1034745D01*
X910422Y1045351D02*
Y1034745D01*
X916328Y1045351D02*
Y1034745D01*
X922233Y1045351D02*
Y1034745D01*
X928139Y1045351D02*
Y1034745D01*
X934044Y1045351D02*
Y1034745D01*
X939950Y1045351D02*
Y1034745D01*
X729320Y1020154D02*
Y1009548D01*
X731288Y1020154D02*
Y1009548D01*
X735225Y1020154D02*
Y1009548D01*
X741131Y1020154D02*
Y1009548D01*
X747036Y1020154D02*
Y1009548D01*
X752942Y1020154D02*
Y1009548D01*
X758847Y1020154D02*
Y1009548D01*
X764753Y1020154D02*
Y1009548D01*
X770658Y1020154D02*
Y1009548D01*
X776564Y1020154D02*
Y1009548D01*
X782469Y1020154D02*
Y1009548D01*
X788375Y1020154D02*
Y1009548D01*
X794280Y1020154D02*
Y1009548D01*
X800186Y1020154D02*
Y1009548D01*
X806091Y1020154D02*
Y1009548D01*
X811997Y1020154D02*
Y1009548D01*
X817902Y1020154D02*
Y1009548D01*
X823808Y1020154D02*
Y1009548D01*
X829713Y1020154D02*
Y1009548D01*
X835619Y1020154D02*
Y1009548D01*
X841524Y1020154D02*
Y1009548D01*
X847430Y1020154D02*
Y1009548D01*
X853335Y1020154D02*
Y1009548D01*
X859241Y1020154D02*
Y1009548D01*
X865146Y1020154D02*
Y1009548D01*
X871052Y1020154D02*
Y1009548D01*
X876957Y1020154D02*
Y1009548D01*
X882863Y1020154D02*
Y1009548D01*
X888769Y1020154D02*
Y1009548D01*
X894674Y1020154D02*
Y1009548D01*
X900580Y1020154D02*
Y1009548D01*
X906485Y1020154D02*
Y1009548D01*
X912391Y1020154D02*
Y1009548D01*
X918296Y1020154D02*
Y1009548D01*
X924202Y1020154D02*
Y1009548D01*
X930107Y1020154D02*
Y1009548D01*
X936013Y1020154D02*
Y1009548D01*
X737194Y1020154D02*
Y1009548D01*
X743099Y1020154D02*
Y1009548D01*
X749005Y1020154D02*
Y1009548D01*
X754910Y1020154D02*
Y1009548D01*
X760816Y1020154D02*
Y1009548D01*
X766721Y1020154D02*
Y1009548D01*
X772627Y1020154D02*
Y1009548D01*
X778532Y1020154D02*
Y1009548D01*
X784438Y1020154D02*
Y1009548D01*
X790343Y1020154D02*
Y1009548D01*
X796249Y1020154D02*
Y1009548D01*
X802154Y1020154D02*
Y1009548D01*
X808060Y1020154D02*
Y1009548D01*
X813965Y1020154D02*
Y1009548D01*
X819871Y1020154D02*
Y1009548D01*
X825776Y1020154D02*
Y1009548D01*
X831682Y1020154D02*
Y1009548D01*
X837587Y1020154D02*
Y1009548D01*
X843493Y1020154D02*
Y1009548D01*
X849398Y1020154D02*
Y1009548D01*
X855304Y1020154D02*
Y1009548D01*
X861209Y1020154D02*
Y1009548D01*
X867115Y1020154D02*
Y1009548D01*
X873020Y1020154D02*
Y1009548D01*
X878926Y1020154D02*
Y1009548D01*
X884831Y1020154D02*
Y1009548D01*
X890737Y1020154D02*
Y1009548D01*
X896643Y1020154D02*
Y1009548D01*
X902548Y1020154D02*
Y1009548D01*
X908454Y1020154D02*
Y1009548D01*
X914359Y1020154D02*
Y1009548D01*
X920265Y1020154D02*
Y1009548D01*
X926170Y1020154D02*
Y1009548D01*
X932076Y1020154D02*
Y1009548D01*
X937981Y1020154D02*
Y1009548D01*
G54D29*
X1256201Y519488D02*
X1257972D01*
X1256201Y517520D02*
X1257972D01*
X1256201Y515551D02*
X1257972D01*
X1256201Y513583D02*
X1257972D01*
X1261713D02*
X1263484D01*
X1261713Y515551D02*
X1263484D01*
X1261713Y517520D02*
X1263484D01*
X1261713Y519488D02*
X1263484D01*
X1256201Y508858D02*
X1257972D01*
X1256201Y506890D02*
X1257972D01*
X1256201Y504921D02*
X1257972D01*
X1256201Y502953D02*
X1257972D01*
X1261713D02*
X1263484D01*
X1261713Y504921D02*
X1263484D01*
X1261713Y506890D02*
X1263484D01*
X1261713Y508858D02*
X1263484D01*
X1256201Y497047D02*
X1257972D01*
X1256201Y495079D02*
X1257972D01*
X1256201Y493110D02*
X1257972D01*
X1256201Y491142D02*
X1257972D01*
X1261713D02*
X1263484D01*
X1261713Y493110D02*
X1263484D01*
X1261713Y495079D02*
X1263484D01*
X1261713Y497047D02*
X1263484D01*
X1256201Y461614D02*
X1257972D01*
X1256201Y459646D02*
X1257972D01*
X1256201Y457677D02*
X1257972D01*
X1256201Y455709D02*
X1257972D01*
X1261713D02*
X1263484D01*
X1261713Y457677D02*
X1263484D01*
X1261713Y459646D02*
X1263484D01*
X1261713Y461614D02*
X1263484D01*
X1256201Y450984D02*
X1257972D01*
X1256201Y449016D02*
X1257972D01*
X1256201Y447047D02*
X1257972D01*
X1256201Y445079D02*
X1257972D01*
X1261713D02*
X1263484D01*
X1261713Y447047D02*
X1263484D01*
X1261713Y449016D02*
X1263484D01*
X1261713Y450984D02*
X1263484D01*
X1256201Y441142D02*
X1257972D01*
X1256201Y439173D02*
X1257972D01*
X1256201Y437205D02*
X1257972D01*
X1256201Y435236D02*
X1257972D01*
X1261713D02*
X1263484D01*
X1261713Y437205D02*
X1263484D01*
X1261713Y439173D02*
X1263484D01*
X1261713Y441142D02*
X1263484D01*
X1256201Y536811D02*
X1257972D01*
X1256201Y534843D02*
X1257972D01*
X1256201Y532874D02*
X1257972D01*
X1256201Y530906D02*
X1257972D01*
X1261713D02*
X1263484D01*
X1261713Y532874D02*
X1263484D01*
X1261713Y534843D02*
X1263484D01*
X1261713Y536811D02*
X1263484D01*
X317815Y424213D02*
X316043D01*
X317815Y426181D02*
X316043D01*
X317815Y428150D02*
X316043D01*
X317815Y430118D02*
X316043D01*
X312303D02*
X310531D01*
X312303Y428150D02*
X310531D01*
X312303Y426181D02*
X310531D01*
X312303Y424213D02*
X310531D01*
X317815Y434843D02*
X316043D01*
X317815Y436811D02*
X316043D01*
X317815Y438780D02*
X316043D01*
X317815Y440748D02*
X316043D01*
X312303D02*
X310531D01*
X312303Y438780D02*
X310531D01*
X312303Y436811D02*
X310531D01*
X312303Y434843D02*
X310531D01*
X317815Y447835D02*
X316043D01*
X317815Y449803D02*
X316043D01*
X317815Y451772D02*
X316043D01*
X317815Y453740D02*
X316043D01*
X312303D02*
X310531D01*
X312303Y451772D02*
X310531D01*
X312303Y449803D02*
X310531D01*
X312303Y447835D02*
X310531D01*
X317815Y460827D02*
X316043D01*
X317815Y462795D02*
X316043D01*
X317815Y464764D02*
X316043D01*
X317815Y466732D02*
X316043D01*
X312303D02*
X310531D01*
X312303Y464764D02*
X310531D01*
X312303Y462795D02*
X310531D01*
X312303Y460827D02*
X310531D01*
X317815Y493504D02*
X316043D01*
X317815Y495472D02*
X316043D01*
X317815Y497441D02*
X316043D01*
X317815Y499409D02*
X316043D01*
X312303D02*
X310531D01*
X312303Y497441D02*
X310531D01*
X312303Y495472D02*
X310531D01*
X312303Y493504D02*
X310531D01*
X317815Y513189D02*
X316043D01*
X317815Y515157D02*
X316043D01*
X317815Y517126D02*
X316043D01*
X317815Y519094D02*
X316043D01*
X312303D02*
X310531D01*
X312303Y517126D02*
X310531D01*
X312303Y515157D02*
X310531D01*
X312303Y513189D02*
X310531D01*
X317815Y532087D02*
X316043D01*
X317815Y534055D02*
X316043D01*
X317815Y536024D02*
X316043D01*
X317815Y537992D02*
X316043D01*
X312303D02*
X310531D01*
X312303Y536024D02*
X310531D01*
X312303Y534055D02*
X310531D01*
X312303Y532087D02*
X310531D01*
G54D30*
X1061713Y465945D02*
X1063484D01*
X1061713Y454528D02*
X1063484D01*
X986516Y497835D02*
X988287D01*
X986516Y486417D02*
X988287D01*
X1079035Y465551D02*
X1080807D01*
X1079035Y454134D02*
X1080807D01*
X1161909Y684843D02*
X1160138D01*
X1161909Y696260D02*
X1160138D01*
X1146161Y684843D02*
X1144390D01*
X1146161Y696260D02*
X1144390D01*
X1001476Y497835D02*
X1003248D01*
X1001476Y486417D02*
X1003248D01*
X1094783Y465551D02*
X1096555D01*
X1094783Y454134D02*
X1096555D01*
X1040059Y465945D02*
X1041831D01*
X1040059Y454528D02*
X1041831D01*
X1259922Y172256D02*
X1261694D01*
X1259922Y160838D02*
X1261694D01*
X964370Y262500D02*
Y264272D01*
X975787Y262500D02*
Y264272D01*
X964370Y231004D02*
Y232776D01*
X975787Y231004D02*
Y232776D01*
X647441Y199508D02*
Y201280D01*
X658858Y199508D02*
Y201280D01*
X432874Y788091D02*
Y789862D01*
X444291Y788091D02*
Y789862D01*
X310827Y343209D02*
Y344980D01*
X322244Y343209D02*
Y344980D01*
X1159252Y268406D02*
Y270177D01*
X1170669Y268406D02*
Y270177D01*
X1165157Y790059D02*
Y791831D01*
X1176575Y790059D02*
Y791831D01*
X290425Y657776D02*
Y659547D01*
X301843Y657776D02*
Y659547D01*
X290425Y693209D02*
Y694980D01*
X301843Y693209D02*
Y694980D01*
X310827Y327461D02*
Y329232D01*
X322244Y327461D02*
Y329232D01*
X290425Y675492D02*
Y677264D01*
X301843Y675492D02*
Y677264D01*
X432874Y803839D02*
Y805610D01*
X444291Y803839D02*
Y805610D01*
X310827Y390453D02*
Y392224D01*
X322244Y390453D02*
Y392224D01*
X902264Y355709D02*
X904035D01*
X902264Y344291D02*
X904035D01*
X837303Y778937D02*
X839075D01*
X837303Y767520D02*
X839075D01*
X310827Y374705D02*
Y376476D01*
X322244Y374705D02*
Y376476D01*
X870768Y355394D02*
X872539D01*
X870768Y343976D02*
X872539D01*
X496752Y885236D02*
X498524D01*
X496752Y873819D02*
X498524D01*
X964370Y246752D02*
Y248524D01*
X975787Y246752D02*
Y248524D01*
X1159252Y315650D02*
Y317421D01*
X1170669Y315650D02*
Y317421D01*
X831398Y436417D02*
X833169D01*
X831398Y425000D02*
X833169D01*
X849114Y436417D02*
X850886D01*
X849114Y425000D02*
X850886D01*
X811713Y778937D02*
X813484D01*
X811713Y767520D02*
X813484D01*
X310827Y358957D02*
Y360728D01*
X322244Y358957D02*
Y360728D01*
X886516Y355709D02*
X888287D01*
X886516Y344291D02*
X888287D01*
X1165157Y858957D02*
Y860728D01*
X1176575Y858957D02*
Y860728D01*
X1165157Y843209D02*
Y844980D01*
X1176575Y843209D02*
Y844980D01*
G54D31*
X1257283Y379921D02*
X1257677D01*
X1257283Y355512D02*
X1257677D01*
X566929Y858071D02*
Y857677D01*
X542520Y858071D02*
Y857677D01*
X669291Y858071D02*
Y857677D01*
X644882Y858071D02*
Y857677D01*
X616142Y858071D02*
Y857677D01*
X591732Y858071D02*
Y857677D01*
X139613Y670816D02*
Y670422D01*
X115204Y670816D02*
Y670422D01*
X290551Y192323D02*
Y192717D01*
X314961Y192323D02*
Y192717D01*
X288006Y156262D02*
X288400D01*
X288006Y131853D02*
X288400D01*
X244006Y156262D02*
X244400D01*
X244006Y131853D02*
X244400D01*
X266006Y156262D02*
X266400D01*
X266006Y131853D02*
X266400D01*
X194400Y395853D02*
X194006D01*
X194400Y420262D02*
X194006D01*
X154408Y597854D02*
Y597461D01*
X129998Y597854D02*
Y597461D01*
X185106Y663954D02*
Y663561D01*
X160697Y663954D02*
Y663561D01*
X298622Y297244D02*
X299016D01*
X298622Y272835D02*
X299016D01*
X322244Y297244D02*
X322638D01*
X322244Y272835D02*
X322638D01*
X1110039Y993189D02*
X1110433D01*
X1110039Y968779D02*
X1110433D01*
G54D32*
X1108760Y328937D02*
Y332874D01*
X1111319Y328937D02*
Y332874D01*
X1113878Y328937D02*
Y332874D01*
X1116437Y328937D02*
Y332874D01*
X1118996Y328937D02*
Y332874D01*
X1121555Y328937D02*
Y332874D01*
X1124114Y328937D02*
Y332874D01*
X1126673Y328937D02*
Y332874D01*
Y352165D02*
Y356102D01*
X1124114Y352165D02*
Y356102D01*
X1121555Y352165D02*
Y356102D01*
X1118996Y352165D02*
Y356102D01*
X1116437Y352165D02*
Y356102D01*
X1113878Y352165D02*
Y356102D01*
X1111319Y352165D02*
Y356102D01*
X1108760Y352165D02*
Y356102D01*
X1225850Y181735D02*
Y188624D01*
X1219945Y181735D02*
Y188624D01*
X1214827Y181735D02*
Y188624D01*
X1209709Y181735D02*
Y188624D01*
X1204591Y181735D02*
Y188624D01*
X1199472Y181735D02*
Y188624D01*
X1189669Y181735D02*
Y188624D01*
X1179906Y181735D02*
Y188624D01*
X1174787Y181735D02*
Y188624D01*
X1169669Y181735D02*
Y188624D01*
X1164551Y181735D02*
Y188624D01*
X1159433Y181735D02*
Y188624D01*
X1151953Y181735D02*
Y188624D01*
X1137425Y181735D02*
Y188624D01*
X1237976Y181735D02*
Y188624D01*
G54D33*
X961713Y497047D02*
X962697D01*
X961713Y490354D02*
X962697D01*
X973524Y497047D02*
X974508D01*
X973524Y490354D02*
X974508D01*
X1136811Y628051D02*
Y627067D01*
X1130118Y628051D02*
Y627067D01*
Y642815D02*
Y643799D01*
X1136811Y642815D02*
Y643799D01*
X259865Y912152D02*
X258290D01*
X259865Y933806D02*
X258290D01*
X246479D02*
X244904D01*
X246479Y912152D02*
X244904D01*
G54D34*
X667815Y894094D02*
X665256D01*
X667815Y896654D02*
X665256D01*
X667815Y899213D02*
X665256D01*
X667815Y901772D02*
X665256D01*
X667815Y904331D02*
X665256D01*
X662205Y909941D02*
Y907382D01*
X659646Y909941D02*
Y907382D01*
X657087Y909941D02*
Y907382D01*
X654528Y909941D02*
Y907382D01*
X651969Y909941D02*
Y907382D01*
X648917Y904331D02*
X646358D01*
X648917Y901772D02*
X646358D01*
X648917Y899213D02*
X646358D01*
X648917Y896654D02*
X646358D01*
X648917Y894094D02*
X646358D01*
X651969Y891043D02*
Y888484D01*
X654528Y891043D02*
Y888484D01*
X657087Y891043D02*
Y888484D01*
X659646Y891043D02*
Y888484D01*
X662205Y891043D02*
Y888484D01*
X616634Y894094D02*
X614075D01*
X616634Y896654D02*
X614075D01*
X616634Y899213D02*
X614075D01*
X616634Y901772D02*
X614075D01*
X616634Y904331D02*
X614075D01*
X611024Y909941D02*
Y907382D01*
X608465Y909941D02*
Y907382D01*
X605906Y909941D02*
Y907382D01*
X603346Y909941D02*
Y907382D01*
X600787Y909941D02*
Y907382D01*
X597736Y904331D02*
X595177D01*
X597736Y901772D02*
X595177D01*
X597736Y899213D02*
X595177D01*
X597736Y896654D02*
X595177D01*
X597736Y894094D02*
X595177D01*
X600787Y891043D02*
Y888484D01*
X603346Y891043D02*
Y888484D01*
X605906Y891043D02*
Y888484D01*
X608465Y891043D02*
Y888484D01*
X611024Y891043D02*
Y888484D01*
X565453Y894094D02*
X562894D01*
X565453Y896654D02*
X562894D01*
X565453Y899213D02*
X562894D01*
X565453Y901772D02*
X562894D01*
X565453Y904331D02*
X562894D01*
X559843Y909941D02*
Y907382D01*
X557283Y909941D02*
Y907382D01*
X554724Y909941D02*
Y907382D01*
X552165Y909941D02*
Y907382D01*
X549606Y909941D02*
Y907382D01*
X546555Y904331D02*
X543996D01*
X546555Y901772D02*
X543996D01*
X546555Y899213D02*
X543996D01*
X546555Y896654D02*
X543996D01*
X546555Y894094D02*
X543996D01*
X549606Y891043D02*
Y888484D01*
X552165Y891043D02*
Y888484D01*
X554724Y891043D02*
Y888484D01*
X557283Y891043D02*
Y888484D01*
X559843Y891043D02*
Y888484D01*
X135321Y646786D02*
Y644227D01*
X132762Y646786D02*
Y644227D01*
X130203Y646786D02*
Y644227D01*
X127644Y646786D02*
Y644227D01*
X125085Y646786D02*
Y644227D01*
X119475Y641176D02*
X122034D01*
X119475Y638617D02*
X122034D01*
X119475Y636057D02*
X122034D01*
X119475Y633498D02*
X122034D01*
X119475Y630939D02*
X122034D01*
X125085Y627888D02*
Y625329D01*
X127644Y627888D02*
Y625329D01*
X130203Y627888D02*
Y625329D01*
X132762Y627888D02*
Y625329D01*
X135321Y627888D02*
Y625329D01*
X138372Y630939D02*
X140931D01*
X138372Y633498D02*
X140931D01*
X138372Y636057D02*
X140931D01*
X138372Y638617D02*
X140931D01*
X138372Y641176D02*
X140931D01*
G54D35*
X657087Y899213D03*
X605906D03*
X554724D03*
X130203Y636057D03*
G54D36*
X1284351Y963868D02*
X1287451D01*
X1305751D02*
X1308851D01*
X1284351Y973868D02*
X1287451D01*
X1305751D02*
X1308851D01*
X1284351Y983868D02*
X1287451D01*
X1305751D02*
X1308851D01*
X1284351Y993868D02*
X1287451D01*
X1305751D02*
X1308851D01*
X1284351Y1003868D02*
X1287451D01*
X1305751D02*
X1308851D01*
G54D37*
X920177Y353543D02*
X921555D01*
X920177Y346457D02*
X921555D01*
X204565Y896636D02*
Y895258D01*
X197479Y896636D02*
Y895258D01*
X533760Y893701D02*
X532382D01*
X533760Y900787D02*
X532382D01*
X636122Y893701D02*
X634744D01*
X636122Y900787D02*
X634744D01*
X584941Y893701D02*
X583563D01*
X584941Y900787D02*
X583563D01*
X192126Y850689D02*
Y849311D01*
X185039Y850689D02*
Y849311D01*
X270866Y325098D02*
Y323720D01*
X263780Y325098D02*
Y323720D01*
G54D38*
X893701Y520571D02*
Y525886D01*
X904724Y520571D02*
Y525886D01*
X1250000Y565846D02*
Y571161D01*
X1261024Y565846D02*
Y571161D01*
X1250000Y552067D02*
Y557382D01*
X1261024Y552067D02*
Y557382D01*
X296850Y426280D02*
Y420965D01*
X285827Y426280D02*
Y420965D01*
X298425Y472736D02*
Y467421D01*
X287402Y472736D02*
Y467421D01*
X298425Y486516D02*
Y481201D01*
X287402Y486516D02*
Y481201D01*
X903543Y713484D02*
Y718799D01*
X914567Y713484D02*
Y718799D01*
X903543Y727264D02*
Y732579D01*
X914567Y727264D02*
Y732579D01*
X903543Y741043D02*
Y746358D01*
X914567Y741043D02*
Y746358D01*
X608651Y939272D02*
Y933957D01*
X597627Y939272D02*
Y933957D01*
X117291Y612000D02*
Y617315D01*
X128315Y612000D02*
Y617315D01*
X194094Y788091D02*
Y782776D01*
X183071Y788091D02*
Y782776D01*
X138057Y417916D02*
X132743D01*
X138057Y428939D02*
X132743D01*
X124439Y692557D02*
Y687243D01*
X113416Y692557D02*
Y687243D01*
X662598Y880217D02*
Y874902D01*
X651575Y880217D02*
Y874902D01*
X611417Y880217D02*
Y874902D01*
X600394Y880217D02*
Y874902D01*
X560236Y880217D02*
Y874902D01*
X549213Y880217D02*
Y874902D01*
X127589Y387833D02*
Y382518D01*
X116565Y387833D02*
Y382518D01*
X252846Y185469D02*
X258161D01*
X252846Y174446D02*
X258161D01*
X272646Y185469D02*
X277961D01*
X272646Y174446D02*
X277961D01*
X215884Y399097D02*
X210569D01*
X215884Y410120D02*
X210569D01*
X178628Y584600D02*
Y589915D01*
X189652Y584600D02*
Y589915D01*
X893701Y534350D02*
Y539665D01*
X904724Y534350D02*
Y539665D01*
X1255906Y581594D02*
Y586909D01*
X1266929Y581594D02*
Y586909D01*
X865059Y436220D02*
X870374D01*
X865059Y425197D02*
X870374D01*
X659479Y939272D02*
Y933957D01*
X648455Y939272D02*
Y933957D01*
X558543Y939272D02*
Y933957D01*
X547520Y939272D02*
Y933957D01*
X169983Y699502D02*
Y694187D01*
X158959Y699502D02*
Y694187D01*
X169983Y685502D02*
Y680187D01*
X158959Y685502D02*
Y680187D01*
X169983Y713502D02*
Y708187D01*
X158959Y713502D02*
Y708187D01*
X124439Y734557D02*
Y729243D01*
X113416Y734557D02*
Y729243D01*
X124439Y720457D02*
Y715143D01*
X113416Y720457D02*
Y715143D01*
X124439Y706557D02*
Y701243D01*
X113416Y706557D02*
Y701243D01*
X298425Y527461D02*
Y522146D01*
X287402Y527461D02*
Y522146D01*
X298819Y447539D02*
Y442224D01*
X287795Y447539D02*
Y442224D01*
G54D39*
X1039567Y273819D02*
Y271850D01*
X1037008Y273819D02*
Y271850D01*
X1034449Y273819D02*
Y271850D01*
Y265157D02*
Y263189D01*
X1039567Y265157D02*
Y263189D01*
X904606Y425984D02*
Y424016D01*
X902047Y425984D02*
Y424016D01*
X899488Y425984D02*
Y424016D01*
Y417323D02*
Y415354D01*
X904606Y417323D02*
Y415354D01*
X344844Y919143D02*
Y921111D01*
X347403Y919143D02*
Y921111D01*
X349962Y919143D02*
Y921111D01*
Y927804D02*
Y929772D01*
X344844Y927804D02*
Y929772D01*
X449250Y930790D02*
X451219D01*
X449250Y928231D02*
X451219D01*
X449250Y925672D02*
X451219D01*
X457912D02*
X459880D01*
X457912Y930790D02*
X459880D01*
G54D40*
X1259154Y982185D02*
Y977264D01*
X1256594Y982185D02*
Y977264D01*
X1254035Y982185D02*
Y977264D01*
X1251476Y982185D02*
Y977264D01*
X1248917Y982185D02*
Y977264D01*
X1246358Y982185D02*
Y977264D01*
X1243799Y982185D02*
Y977264D01*
X1241240Y982185D02*
Y977264D01*
X1238681Y982185D02*
Y977264D01*
X1236122Y982185D02*
Y977264D01*
Y955020D02*
Y950098D01*
X1238681Y955020D02*
Y950098D01*
X1241240Y955020D02*
Y950098D01*
X1243799Y955020D02*
Y950098D01*
X1246358Y955020D02*
Y950098D01*
X1248917Y955020D02*
Y950098D01*
X1251476Y955020D02*
Y950098D01*
X1254035Y955020D02*
Y950098D01*
X1256594Y955020D02*
Y950098D01*
X1259154Y955020D02*
Y950098D01*
X1221752Y982185D02*
Y977264D01*
X1219193Y982185D02*
Y977264D01*
X1216634Y982185D02*
Y977264D01*
X1214075Y982185D02*
Y977264D01*
X1211516Y982185D02*
Y977264D01*
X1208957Y982185D02*
Y977264D01*
X1206398Y982185D02*
Y977264D01*
X1203839Y982185D02*
Y977264D01*
X1201280Y982185D02*
Y977264D01*
X1198720Y982185D02*
Y977264D01*
Y955020D02*
Y950098D01*
X1201280Y955020D02*
Y950098D01*
X1203839Y955020D02*
Y950098D01*
X1206398Y955020D02*
Y950098D01*
X1208957Y955020D02*
Y950098D01*
X1211516Y955020D02*
Y950098D01*
X1214075Y955020D02*
Y950098D01*
X1216634Y955020D02*
Y950098D01*
X1219193Y955020D02*
Y950098D01*
X1221752Y955020D02*
Y950098D01*
X812598Y538976D03*
X816535D03*
X820472D03*
X824409D03*
X828346D03*
X832283D03*
X836220D03*
X840157D03*
X844094D03*
X848031D03*
X851969D03*
X812598Y535039D03*
X816535D03*
X820472D03*
X824409D03*
X828346D03*
X832283D03*
X836220D03*
X840157D03*
X844094D03*
X848031D03*
X851969D03*
X812598Y531102D03*
X816535D03*
X820472D03*
X824409D03*
X828346D03*
X832283D03*
X836220D03*
X840157D03*
X844094D03*
X848031D03*
X851969D03*
X812598Y527165D03*
X816535D03*
X820472D03*
X824409D03*
X828346D03*
X832283D03*
X836220D03*
X840157D03*
X844094D03*
X848031D03*
X851969D03*
X812598Y523228D03*
X816535D03*
X820472D03*
X824409D03*
X828346D03*
X832283D03*
X836220D03*
X840157D03*
X844094D03*
X848031D03*
X851969D03*
X812598Y519291D03*
X816535D03*
X820472D03*
X824409D03*
X828346D03*
X832283D03*
X836220D03*
X840157D03*
X844094D03*
X848031D03*
X851969D03*
X812598Y515354D03*
X816535D03*
X820472D03*
X824409D03*
X828346D03*
X832283D03*
X836220D03*
X840157D03*
X844094D03*
X848031D03*
X851969D03*
X812598Y511417D03*
X816535D03*
X820472D03*
X824409D03*
X828346D03*
X832283D03*
X836220D03*
X840157D03*
X844094D03*
X848031D03*
X851969D03*
X812598Y507480D03*
X816535D03*
X820472D03*
X824409D03*
X828346D03*
X832283D03*
X836220D03*
X840157D03*
X844094D03*
X848031D03*
X851969D03*
X812598Y503543D03*
X816535D03*
X820472D03*
X824409D03*
X828346D03*
X832283D03*
X836220D03*
X840157D03*
X844094D03*
X848031D03*
X851969D03*
X812598Y499606D03*
X816535D03*
X820472D03*
X824409D03*
X828346D03*
X832283D03*
X836220D03*
X840157D03*
X844094D03*
X848031D03*
X851969D03*
X812598Y495669D03*
X816535D03*
X820472D03*
X824409D03*
X828346D03*
X832283D03*
X836220D03*
X840157D03*
X844094D03*
X848031D03*
X851969D03*
X812598Y491732D03*
X816535D03*
X820472D03*
X824409D03*
X828346D03*
X832283D03*
X836220D03*
X840157D03*
X844094D03*
X848031D03*
X851969D03*
X812598Y487795D03*
X816535D03*
X820472D03*
X824409D03*
X828346D03*
X832283D03*
X836220D03*
X840157D03*
X844094D03*
X848031D03*
X851969D03*
X812598Y483858D03*
X816535D03*
X820472D03*
X824409D03*
X828346D03*
X832283D03*
X836220D03*
X840157D03*
X844094D03*
X848031D03*
X851969D03*
X812598Y718110D03*
X816535D03*
X820472D03*
X824409D03*
X828346D03*
X832283D03*
X836220D03*
X840157D03*
X844094D03*
X848031D03*
X851969D03*
X812598Y714173D03*
X816535D03*
X820472D03*
X824409D03*
X828346D03*
X832283D03*
X836220D03*
X840157D03*
X844094D03*
X848031D03*
X851969D03*
X812598Y710236D03*
X816535D03*
X820472D03*
X824409D03*
X828346D03*
X832283D03*
X836220D03*
X840157D03*
X844094D03*
X848031D03*
X851969D03*
X812598Y706299D03*
X816535D03*
X820472D03*
X824409D03*
X828346D03*
X832283D03*
X836220D03*
X840157D03*
X844094D03*
X848031D03*
X851969D03*
X812598Y702362D03*
X816535D03*
X820472D03*
X824409D03*
X828346D03*
X832283D03*
X836220D03*
X840157D03*
X844094D03*
X848031D03*
X851969D03*
X812598Y698425D03*
X816535D03*
X820472D03*
X824409D03*
X828346D03*
X832283D03*
X836220D03*
X840157D03*
X844094D03*
X848031D03*
X851969D03*
X812598Y694488D03*
X816535D03*
X820472D03*
X824409D03*
X828346D03*
X832283D03*
X836220D03*
X840157D03*
X844094D03*
X848031D03*
X851969D03*
X812598Y690551D03*
X816535D03*
X820472D03*
X824409D03*
X828346D03*
X832283D03*
X836220D03*
X840157D03*
X844094D03*
X848031D03*
X851969D03*
X812598Y686614D03*
X816535D03*
X820472D03*
X824409D03*
X828346D03*
X832283D03*
X836220D03*
X840157D03*
X844094D03*
X848031D03*
X851969D03*
X812598Y682677D03*
X816535D03*
X820472D03*
X824409D03*
X828346D03*
X832283D03*
X836220D03*
X840157D03*
X844094D03*
X848031D03*
X851969D03*
X812598Y678740D03*
X816535D03*
X820472D03*
X824409D03*
X828346D03*
X832283D03*
X836220D03*
X840157D03*
X844094D03*
X848031D03*
X851969D03*
X812598Y674803D03*
X816535D03*
X820472D03*
X824409D03*
X828346D03*
X832283D03*
X836220D03*
X840157D03*
X844094D03*
X848031D03*
X851969D03*
X812598Y670866D03*
X816535D03*
X820472D03*
X824409D03*
X828346D03*
X832283D03*
X836220D03*
X840157D03*
X844094D03*
X848031D03*
X851969D03*
X812598Y666929D03*
X816535D03*
X820472D03*
X824409D03*
X828346D03*
X832283D03*
X836220D03*
X840157D03*
X844094D03*
X848031D03*
X851969D03*
X812598Y662992D03*
X816535D03*
X820472D03*
X824409D03*
X828346D03*
X832283D03*
X836220D03*
X840157D03*
X844094D03*
X848031D03*
X851969D03*
X281102Y857874D03*
Y853937D03*
Y850000D03*
Y846063D03*
Y842126D03*
Y838189D03*
Y834252D03*
Y830315D03*
Y826378D03*
Y822441D03*
Y818504D03*
Y814567D03*
Y810630D03*
Y806693D03*
Y802756D03*
Y798819D03*
X277165Y857874D03*
Y853937D03*
Y850000D03*
Y846063D03*
Y842126D03*
Y838189D03*
Y834252D03*
Y830315D03*
Y826378D03*
Y822441D03*
Y818504D03*
Y814567D03*
Y810630D03*
Y806693D03*
Y802756D03*
Y798819D03*
X273228Y857874D03*
Y853937D03*
Y850000D03*
Y846063D03*
Y842126D03*
Y838189D03*
Y834252D03*
Y830315D03*
Y826378D03*
Y822441D03*
Y818504D03*
Y814567D03*
Y810630D03*
Y806693D03*
Y802756D03*
Y798819D03*
X269291Y857874D03*
Y853937D03*
Y850000D03*
Y846063D03*
Y842126D03*
Y838189D03*
Y834252D03*
Y830315D03*
Y826378D03*
Y822441D03*
Y818504D03*
Y814567D03*
Y810630D03*
Y806693D03*
Y802756D03*
Y798819D03*
X265354Y857874D03*
Y853937D03*
Y850000D03*
Y846063D03*
Y842126D03*
Y838189D03*
Y834252D03*
Y830315D03*
Y826378D03*
Y822441D03*
Y818504D03*
Y814567D03*
Y810630D03*
Y806693D03*
Y802756D03*
Y798819D03*
X261417Y857874D03*
Y853937D03*
Y850000D03*
Y846063D03*
Y842126D03*
Y838189D03*
Y834252D03*
Y830315D03*
Y826378D03*
Y822441D03*
Y818504D03*
Y814567D03*
Y810630D03*
Y806693D03*
Y802756D03*
Y798819D03*
X257480Y857874D03*
Y853937D03*
Y850000D03*
Y846063D03*
Y842126D03*
Y838189D03*
Y834252D03*
Y830315D03*
Y826378D03*
Y822441D03*
Y818504D03*
Y814567D03*
Y810630D03*
Y806693D03*
Y802756D03*
Y798819D03*
X253543Y857874D03*
Y853937D03*
Y850000D03*
Y846063D03*
Y842126D03*
Y838189D03*
Y834252D03*
Y830315D03*
Y826378D03*
Y822441D03*
Y818504D03*
Y814567D03*
Y810630D03*
Y806693D03*
Y802756D03*
Y798819D03*
X249606Y857874D03*
Y853937D03*
Y850000D03*
Y846063D03*
Y842126D03*
Y838189D03*
Y834252D03*
Y830315D03*
Y826378D03*
Y822441D03*
Y818504D03*
Y814567D03*
Y810630D03*
Y806693D03*
Y802756D03*
Y798819D03*
X245669Y857874D03*
Y853937D03*
Y850000D03*
Y846063D03*
Y842126D03*
Y838189D03*
Y834252D03*
Y830315D03*
Y826378D03*
Y822441D03*
Y818504D03*
Y814567D03*
Y810630D03*
Y806693D03*
Y802756D03*
Y798819D03*
X241732Y857874D03*
Y853937D03*
Y850000D03*
Y846063D03*
Y842126D03*
Y838189D03*
Y834252D03*
Y830315D03*
Y826378D03*
Y822441D03*
Y818504D03*
Y814567D03*
Y810630D03*
Y806693D03*
Y802756D03*
Y798819D03*
X237795Y857874D03*
Y853937D03*
Y850000D03*
Y846063D03*
Y842126D03*
Y838189D03*
Y834252D03*
Y830315D03*
Y826378D03*
Y822441D03*
Y818504D03*
Y814567D03*
Y810630D03*
Y806693D03*
Y802756D03*
Y798819D03*
X233858Y857874D03*
Y853937D03*
Y850000D03*
Y846063D03*
Y842126D03*
Y838189D03*
Y834252D03*
Y830315D03*
Y826378D03*
Y822441D03*
Y818504D03*
Y814567D03*
Y810630D03*
Y806693D03*
Y802756D03*
Y798819D03*
X229921Y857874D03*
Y853937D03*
Y850000D03*
Y846063D03*
Y842126D03*
Y838189D03*
Y834252D03*
Y830315D03*
Y826378D03*
Y822441D03*
Y818504D03*
Y814567D03*
Y810630D03*
Y806693D03*
Y802756D03*
Y798819D03*
X225984Y857874D03*
Y853937D03*
Y850000D03*
Y846063D03*
Y842126D03*
Y838189D03*
Y834252D03*
Y830315D03*
Y826378D03*
Y822441D03*
Y818504D03*
Y814567D03*
Y810630D03*
Y806693D03*
Y802756D03*
Y798819D03*
X222047Y857874D03*
Y853937D03*
Y850000D03*
Y846063D03*
Y842126D03*
Y838189D03*
Y834252D03*
Y830315D03*
Y826378D03*
Y822441D03*
Y818504D03*
Y814567D03*
Y810630D03*
Y806693D03*
Y802756D03*
Y798819D03*
G54D41*
X1094901Y1000002D02*
Y999214D01*
X1086901Y1000002D02*
Y999214D01*
X1090901Y992521D02*
Y991734D01*
X1295617Y328728D02*
X1301326D01*
X1295617Y310224D02*
X1301326D01*
X1292028Y434055D02*
X1297736D01*
X1292028Y415551D02*
X1297736D01*
X272713Y240063D02*
X267004D01*
X272713Y258567D02*
X267004D01*
X133187Y403762D02*
Y398054D01*
X114683Y403762D02*
Y398054D01*
X233010Y395750D02*
X227302D01*
X233010Y414254D02*
X227302D01*
G54D42*
X1104777Y1004389D02*
Y1004979D01*
X1109895Y1004389D02*
Y1004979D01*
G54D43*
X416101Y916577D02*
Y908077D01*
X426101Y905077D02*
Y896577D01*
X436101Y916577D02*
Y908077D01*
X446101Y905077D02*
Y896577D01*
X456101Y916577D02*
Y908077D01*
X1217087Y910118D02*
X1208587D01*
X1205587Y900118D02*
X1197087D01*
X1217087Y890118D02*
X1208587D01*
X1205587Y880118D02*
X1197087D01*
X1217087Y870118D02*
X1208587D01*
X968268Y707992D02*
X977768D01*
X948768D02*
X958268D01*
X968268Y717992D02*
X977768D01*
X948768D02*
X958268D01*
X968268Y727992D02*
X977768D01*
X948768D02*
X958268D01*
X968268Y737992D02*
X977768D01*
X948768D02*
X958268D01*
X968268Y747992D02*
X977768D01*
X948768D02*
X958268D01*
X968268Y757992D02*
X977768D01*
X948768D02*
X958268D01*
X968268Y767992D02*
X977768D01*
X948768D02*
X958268D01*
X968268Y777992D02*
X977768D01*
X948768D02*
X958268D01*
X115978Y916929D02*
X125478D01*
X133578D02*
X143078D01*
X115978Y906929D02*
X125478D01*
X133578D02*
X143078D01*
X115978Y896929D02*
X125478D01*
X133578D02*
X143078D01*
X115978Y886929D02*
X125478D01*
X133578D02*
X143078D01*
X115978Y876929D02*
X125478D01*
X133578D02*
X143078D01*
X115978Y866929D02*
X125478D01*
X133578D02*
X143078D01*
X115978Y856929D02*
X125478D01*
X133578D02*
X143078D01*
X115978Y846929D02*
X125478D01*
X133578D02*
X143078D01*
X115978Y836929D02*
X125478D01*
X133578D02*
X143078D01*
X115978Y826929D02*
X125478D01*
X133578D02*
X143078D01*
X115978Y968110D02*
X125478D01*
X133578D02*
X143078D01*
X115978Y958110D02*
X125478D01*
X133578D02*
X143078D01*
X115978Y948110D02*
X125478D01*
X133578D02*
X143078D01*
X115978Y938110D02*
X125478D01*
X133578D02*
X143078D01*
X193825Y1025639D02*
Y1034639D01*
Y1043239D02*
Y1052239D01*
X203825Y1025639D02*
Y1034639D01*
Y1043239D02*
Y1052239D01*
X213825Y1025639D02*
Y1034639D01*
Y1043239D02*
Y1052239D01*
X223825Y1025639D02*
Y1034639D01*
Y1043239D02*
Y1052239D01*
X233825Y1025639D02*
Y1034639D01*
Y1043239D02*
Y1052239D01*
X116228Y804724D02*
X125228D01*
X133828D02*
X142828D01*
X116228Y794724D02*
X125228D01*
X133828D02*
X142828D01*
X116228Y784724D02*
X125228D01*
X133828D02*
X142828D01*
X116228Y774724D02*
X125228D01*
X133828D02*
X142828D01*
X116228Y764724D02*
X125228D01*
X133828D02*
X142828D01*
X404503Y984557D02*
Y999557D01*
Y1011557D02*
Y1026557D01*
X414503Y984557D02*
Y999557D01*
Y1011557D02*
Y1026557D01*
X424503Y984557D02*
Y999557D01*
Y1011557D02*
Y1026557D01*
X434503Y984557D02*
Y999557D01*
Y1011557D02*
Y1026557D01*
X444503Y984557D02*
Y999557D01*
Y1011557D02*
Y1026557D01*
X454503Y984557D02*
Y999557D01*
Y1011557D02*
Y1026557D01*
X464503Y984557D02*
Y999557D01*
Y1011557D02*
Y1026557D01*
X474503Y984557D02*
Y999557D01*
Y1011557D02*
Y1026557D01*
X484503Y984557D02*
Y999557D01*
Y1011557D02*
Y1026557D01*
X494503Y984557D02*
Y999557D01*
Y1011557D02*
Y1026557D01*
X262503Y984557D02*
Y999557D01*
Y1011557D02*
Y1026557D01*
X272503Y984557D02*
Y999557D01*
Y1011557D02*
Y1026557D01*
X282503Y984557D02*
Y999557D01*
Y1011557D02*
Y1026557D01*
X292503Y984557D02*
Y999557D01*
Y1011557D02*
Y1026557D01*
X302503Y984557D02*
Y999557D01*
Y1011557D02*
Y1026557D01*
X312503Y984557D02*
Y999557D01*
Y1011557D02*
Y1026557D01*
X322503Y984557D02*
Y999557D01*
Y1011557D02*
Y1026557D01*
X332503Y984557D02*
Y999557D01*
Y1011557D02*
Y1026557D01*
X342503Y984557D02*
Y999557D01*
Y1011557D02*
Y1026557D01*
X352503Y984557D02*
Y999557D01*
Y1011557D02*
Y1026557D01*
X115978Y1050787D02*
X125478D01*
X133578D02*
X143078D01*
X115978Y1040787D02*
X125478D01*
X133578D02*
X143078D01*
X115978Y1030787D02*
X125478D01*
X133578D02*
X143078D01*
X115978Y1020787D02*
X125478D01*
X133578D02*
X143078D01*
X115978Y1010787D02*
X125478D01*
X133578D02*
X143078D01*
X115978Y1000787D02*
X125478D01*
X133578D02*
X143078D01*
X115978Y990787D02*
X125478D01*
X133578D02*
X143078D01*
X1070580Y217716D02*
X1070540D01*
X1070580Y227716D02*
X1070540D01*
X1048926Y217716D02*
X1048887D01*
X1048926Y227716D02*
X1048887D01*
G54D44*
X999804Y720925D02*
X1003104D01*
X1027604D02*
X1030904D01*
X999804Y723425D02*
X1003104D01*
X1027604D02*
X1030904D01*
X999804Y725925D02*
X1003104D01*
X1027604D02*
X1030904D01*
X999804Y728425D02*
X1003104D01*
X1027604D02*
X1030904D01*
X999804Y730925D02*
X1003104D01*
X1027604D02*
X1030904D01*
X999804Y733425D02*
X1003104D01*
X1027604D02*
X1030904D01*
X999804Y735925D02*
X1003104D01*
X1027604D02*
X1030904D01*
X999804Y738425D02*
X1003104D01*
X1027604D02*
X1030904D01*
X999804Y740925D02*
X1003104D01*
X1027604D02*
X1030904D01*
X999804Y743425D02*
X1003104D01*
X1027604D02*
X1030904D01*
X999804Y745925D02*
X1003104D01*
X1027604D02*
X1030904D01*
X999804Y748425D02*
X1003104D01*
X1027604D02*
X1030904D01*
X999804Y750925D02*
X1003104D01*
X1027604D02*
X1030904D01*
X999804Y753425D02*
X1003104D01*
X1027604D02*
X1030904D01*
X999804Y755925D02*
X1003104D01*
X1027604D02*
X1030904D01*
X999804Y758425D02*
X1003104D01*
X1027604D02*
X1030904D01*
X999804Y760925D02*
X1003104D01*
X1027604D02*
X1030904D01*
X999804Y763425D02*
X1003104D01*
X1027604D02*
X1030904D01*
X999804Y765925D02*
X1003104D01*
X1027604D02*
X1030904D01*
G54D45*
X1108858Y315551D02*
Y315945D01*
X1125787Y315551D02*
Y315945D01*
X1066732Y358465D02*
Y358858D01*
X1083661Y358465D02*
Y358858D01*
G54D46*
X334015Y965632D02*
Y960711D01*
X332440Y965632D02*
Y960711D01*
X330865Y965632D02*
Y960711D01*
X329291Y965632D02*
Y960711D01*
X327716Y965632D02*
Y960711D01*
X326141Y965632D02*
Y960711D01*
X324566Y965632D02*
Y960711D01*
X322991Y965632D02*
Y960711D01*
Y942404D02*
Y937483D01*
X324566Y942404D02*
Y937483D01*
X326141Y942404D02*
Y937483D01*
X327716Y942404D02*
Y937483D01*
X329291Y942404D02*
Y937483D01*
X330865Y942404D02*
Y937483D01*
X332440Y942404D02*
Y937483D01*
X334015Y942404D02*
Y937483D01*
X294015Y965632D02*
Y960711D01*
X292440Y965632D02*
Y960711D01*
X290865Y965632D02*
Y960711D01*
X289291Y965632D02*
Y960711D01*
X287716Y965632D02*
Y960711D01*
X286141Y965632D02*
Y960711D01*
X284566Y965632D02*
Y960711D01*
X282991Y965632D02*
Y960711D01*
Y942404D02*
Y937483D01*
X284566Y942404D02*
Y937483D01*
X286141Y942404D02*
Y937483D01*
X287716Y942404D02*
Y937483D01*
X289291Y942404D02*
Y937483D01*
X290865Y942404D02*
Y937483D01*
X292440Y942404D02*
Y937483D01*
X294015Y942404D02*
Y937483D01*
X500631Y915680D02*
Y920602D01*
X502206Y915680D02*
Y920602D01*
X503781Y915680D02*
Y920602D01*
X505356Y915680D02*
Y920602D01*
X506931Y915680D02*
Y920602D01*
X508506Y915680D02*
Y920602D01*
X510080Y915680D02*
Y920602D01*
X511655Y915680D02*
Y920602D01*
Y938909D02*
Y943830D01*
X510080Y938909D02*
Y943830D01*
X508506Y938909D02*
Y943830D01*
X506931Y938909D02*
Y943830D01*
X505356Y938909D02*
Y943830D01*
X503781Y938909D02*
Y943830D01*
X502206Y938909D02*
Y943830D01*
X500631Y938909D02*
Y943830D01*
X436015Y965632D02*
Y960711D01*
X434440Y965632D02*
Y960711D01*
X432865Y965632D02*
Y960711D01*
X431291Y965632D02*
Y960711D01*
X429716Y965632D02*
Y960711D01*
X428141Y965632D02*
Y960711D01*
X426566Y965632D02*
Y960711D01*
X424991Y965632D02*
Y960711D01*
Y942404D02*
Y937483D01*
X426566Y942404D02*
Y937483D01*
X428141Y942404D02*
Y937483D01*
X429716Y942404D02*
Y937483D01*
X431291Y942404D02*
Y937483D01*
X432865Y942404D02*
Y937483D01*
X434440Y942404D02*
Y937483D01*
X436015Y942404D02*
Y937483D01*
X478015Y965632D02*
Y960711D01*
X476440Y965632D02*
Y960711D01*
X474865Y965632D02*
Y960711D01*
X473291Y965632D02*
Y960711D01*
X471716Y965632D02*
Y960711D01*
X470141Y965632D02*
Y960711D01*
X468566Y965632D02*
Y960711D01*
X466991Y965632D02*
Y960711D01*
Y942404D02*
Y937483D01*
X468566Y942404D02*
Y937483D01*
X470141Y942404D02*
Y937483D01*
X471716Y942404D02*
Y937483D01*
X473291Y942404D02*
Y937483D01*
X474865Y942404D02*
Y937483D01*
X476440Y942404D02*
Y937483D01*
X478015Y942404D02*
Y937483D01*
G54D47*
X219118Y287045D02*
Y285470D01*
X208488Y287045D02*
Y285470D01*
X317913Y116535D02*
Y114961D01*
X307283Y116535D02*
Y114961D01*
X155818Y286845D02*
Y285270D01*
X145188Y286845D02*
Y285270D01*
X194880Y466639D02*
Y465064D01*
X184250Y466639D02*
Y465064D01*
X317913Y140157D02*
Y138583D01*
X307283Y140157D02*
Y138583D01*
X317913Y128346D02*
Y126772D01*
X307283Y128346D02*
Y126772D01*
G54D48*
X220463Y234939D02*
Y236120D01*
X227943Y234939D02*
Y236120D01*
X224203Y243994D02*
Y245176D01*
X220463Y266939D02*
Y268120D01*
X227943Y266939D02*
Y268120D01*
X224203Y275994D02*
Y277176D01*
X115943Y593176D02*
Y591994D01*
X108463Y593176D02*
Y591994D01*
X112203Y584120D02*
Y582939D01*
X220463Y250939D02*
Y252120D01*
X227943Y250939D02*
Y252120D01*
X224203Y259994D02*
Y261176D01*
X1300566Y465199D02*
X1301747D01*
X1300566Y457719D02*
X1301747D01*
X1309621Y461459D02*
X1310802D01*
G54D49*
X956732Y312888D02*
Y307388D01*
X946732Y312888D02*
Y307388D01*
X936732Y312888D02*
Y307388D01*
X926732Y312888D02*
Y307388D01*
Y287888D02*
Y282388D01*
X936732Y287888D02*
Y282388D01*
X946732Y287888D02*
Y282388D01*
X956732Y287888D02*
Y282388D01*
X1002402Y312888D02*
Y307388D01*
X992402Y312888D02*
Y307388D01*
X982402Y312888D02*
Y307388D01*
X972402Y312888D02*
Y307388D01*
Y287888D02*
Y282388D01*
X982402Y287888D02*
Y282388D01*
X992402Y287888D02*
Y282388D01*
X1002402Y287888D02*
Y282388D01*
X1055551Y312888D02*
Y307388D01*
X1045551Y312888D02*
Y307388D01*
X1035551Y312888D02*
Y307388D01*
X1025551Y312888D02*
Y307388D01*
Y287888D02*
Y282388D01*
X1035551Y287888D02*
Y282388D01*
X1045551Y287888D02*
Y282388D01*
X1055551Y287888D02*
Y282388D01*
G54D50*
X208203Y158727D02*
Y151246D01*
Y124869D02*
Y117388D01*
X126203Y158727D02*
Y151246D01*
Y124869D02*
Y117388D01*
X208872Y256057D02*
X201392D01*
X175014D02*
X167534D01*
X154565Y481120D02*
Y473640D01*
Y447262D02*
Y439782D01*
X152872Y256057D02*
X145392D01*
X119014D02*
X111534D01*
G54D51*
X1277485Y472398D02*
X1279847D01*
X1277485Y464917D02*
X1279847D01*
X1285359Y468657D02*
X1287721D01*
X1277466Y558479D02*
X1279828D01*
X1277466Y550998D02*
X1279828D01*
X1285340Y554739D02*
X1287702D01*
G54D52*
X1250357Y641098D02*
X1248979D01*
X1250357Y648185D02*
X1248979D01*
X265748Y475295D02*
Y476673D01*
X272835Y475295D02*
Y476673D01*
X915650Y476378D02*
X914272D01*
X915650Y483465D02*
X914272D01*
X922146Y792520D02*
X923524D01*
X922146Y785433D02*
X923524D01*
X1000295Y145669D02*
X998917D01*
X1000295Y152756D02*
X998917D01*
X950787Y172146D02*
Y173524D01*
X957874Y172146D02*
Y173524D01*
X710630Y174114D02*
Y175492D01*
X717717Y174114D02*
Y175492D01*
X688976Y174114D02*
Y175492D01*
X696063Y174114D02*
Y175492D01*
X612500Y438976D02*
X611122D01*
X612500Y446063D02*
X611122D01*
X701083Y746063D02*
X699705D01*
X701083Y753150D02*
X699705D01*
X565256Y438976D02*
X563878D01*
X565256Y446063D02*
X563878D01*
X773622Y489075D02*
Y490453D01*
X780709Y489075D02*
Y490453D01*
X438976Y613091D02*
Y614469D01*
X446063Y613091D02*
Y614469D01*
X438976Y636713D02*
Y638091D01*
X446063Y636713D02*
Y638091D01*
X438976Y589469D02*
Y590846D01*
X446063Y589469D02*
Y590846D01*
X577067Y746063D02*
X575689D01*
X577067Y753150D02*
X575689D01*
X438976Y512697D02*
Y514075D01*
X446063Y512697D02*
Y514075D01*
X438976Y461516D02*
Y462894D01*
X446063Y461516D02*
Y462894D01*
X762106Y746063D02*
X760728D01*
X762106Y753150D02*
X760728D01*
X754232Y438976D02*
X752854D01*
X754232Y446063D02*
X752854D01*
X785728Y438976D02*
X784350D01*
X785728Y446063D02*
X784350D01*
X540256D02*
X541634D01*
X540256Y438976D02*
X541634D01*
X587500Y446063D02*
X588878D01*
X587500Y438976D02*
X588878D01*
X773622Y504823D02*
Y506201D01*
X780709Y504823D02*
Y506201D01*
X438976Y565846D02*
Y567224D01*
X446063Y565846D02*
Y567224D01*
X438976Y489075D02*
Y490453D01*
X446063Y489075D02*
Y490453D01*
X555413Y746063D02*
X554035D01*
X555413Y753150D02*
X554035D01*
X787697Y746063D02*
X786319D01*
X787697Y753150D02*
X786319D01*
X677461Y746063D02*
X676083D01*
X677461Y753150D02*
X676083D01*
X438976Y437894D02*
Y439272D01*
X446063Y437894D02*
Y439272D01*
X722736Y438976D02*
X721358D01*
X722736Y446063D02*
X721358D01*
X634744D02*
X636122D01*
X634744Y438976D02*
X636122D01*
X658366Y446063D02*
X659744D01*
X658366Y438976D02*
X659744D01*
X649606Y156398D02*
Y157776D01*
X656693Y156398D02*
Y157776D01*
X598425Y170177D02*
Y171555D01*
X605512Y170177D02*
Y171555D01*
X366142Y172146D02*
Y173524D01*
X373228Y172146D02*
Y173524D01*
X344488Y172146D02*
Y173524D01*
X351575Y172146D02*
Y173524D01*
X691240Y438976D02*
X689862D01*
X691240Y446063D02*
X689862D01*
X773622Y473327D02*
Y474705D01*
X780709Y473327D02*
Y474705D01*
X730610Y746063D02*
X729232D01*
X730610Y753150D02*
X729232D01*
X592815Y746063D02*
X591437D01*
X592815Y753150D02*
X591437D01*
X438976Y540256D02*
Y541634D01*
X446063Y540256D02*
Y541634D01*
X438976Y414272D02*
Y415650D01*
X446063Y414272D02*
Y415650D01*
G54D53*
X634153Y1055354D02*
Y1054961D01*
X627854Y1055354D02*
Y1054961D01*
X646853Y1055354D02*
Y1054961D01*
X640554Y1055354D02*
Y1054961D01*
X454134Y685827D02*
X454528D01*
X454134Y679528D02*
X454528D01*
X621753Y1055354D02*
Y1054961D01*
X615454Y1055354D02*
Y1054961D01*
X608953Y1055354D02*
Y1054961D01*
X602654Y1055354D02*
Y1054961D01*
X454134Y740945D02*
X454528D01*
X454134Y734646D02*
X454528D01*
X1078451Y903725D02*
Y903331D01*
X1072152Y903725D02*
Y903331D01*
X1092817Y891089D02*
Y890695D01*
X1086518Y891089D02*
Y890695D01*
G54D54*
X1121612Y945982D02*
X1118659D01*
X1121612Y958186D02*
X1118659D01*
G54D55*
X1244000Y136754D02*
Y140691D01*
X1131402Y136754D02*
Y140691D01*
G54D56*
X118434Y421894D02*
Y423075D01*
Y450634D02*
Y451815D01*
G54D57*
X176442Y602475D02*
Y604640D01*
X193765Y602475D02*
Y604640D01*
X270686Y197996D02*
X268520D01*
X270686Y215319D02*
X268520D01*
X0Y0D02*
M02*
