*
*
G04 PADS Layout (Build Number 2007.45.1) generated Gerber (RS-274-X) file*
G04 PC Version=2.1*
*
%IN "ibob2_work1.pcb"*%
*
%MOIN*%
*
%FSLAX35Y35*%
*
*
*
*
G04 PC Standard Apertures*
*
*
G04 Thermal Relief Aperture macro.*
%AMTER*
1,1,$1,0,0*
1,0,$1-$2,0,0*
21,0,$3,$4,0,0,45*
21,0,$3,$4,0,0,135*
%
*
*
G04 Annular Aperture macro.*
%AMANN*
1,1,$1,0,0*
1,0,$2,0,0*
%
*
*
G04 Odd Aperture macro.*
%AMODD*
1,1,$1,0,0*
1,0,$1-0.005,0,0*
%
*
*
G04 PC Custom Aperture Macros*
*
*
*
*
*
*
G04 PC Aperture Table*
*
%ADD035R,0.02362X0.02362*%
%ADD037R,0.0374X0.0374*%
%ADD039R,0.01181X0.01181*%
%ADD046R,0.00984X0.00984*%
%ADD054R,0.05118X0.05118*%
%ADD055R,0.05315X0.05315*%
*
*
*
*
G04 PC Copper Outlines (0)*
G04 Layer Name ibob2_work1.pcb - dark (0)*
%LPD*%
*
*
G04 PC Area=Custom_Thermal*
*
G04 PC Custom Flashes*
G04 Layer Name ibob2_work1.pcb - flashes*
%LPD*%
*
*
G04 PC Circuitry*
G04 Layer Name ibob2_work1.pcb - circuitry*
%LPD*%
*
G54D35*
G01X857545Y686383D03*
X854002D03*
X857545Y507250D03*
X854002D03*
X1054470Y552525D02*
X1054273D01*
X1050927D02*
X1050730D01*
X1005380Y518962D02*
Y518765D01*
Y515419D02*
Y515222D01*
X979789Y633332D02*
Y633529D01*
Y636876D02*
Y637072D01*
X826344Y568273D02*
X826541D01*
X829887D02*
X830084D01*
X1062466Y558529D02*
Y558726D01*
Y562072D02*
Y562269D01*
X1059533Y635202D02*
X1059336D01*
X1055990D02*
X1055793D01*
X1054592Y580183D02*
Y580380D01*
Y583726D02*
Y583923D01*
X1025407Y627328D02*
X1025210D01*
X1021864D02*
X1021667D01*
X987663Y568490D02*
Y568687D01*
Y572033D02*
Y572230D01*
Y518962D02*
Y518765D01*
Y515419D02*
Y515222D01*
X1218667Y959612D02*
X1218470D01*
X1215124D02*
X1214927D01*
X1040911Y552525D02*
X1041108D01*
X1044454D02*
X1044651D01*
X1066403Y631206D02*
Y631403D01*
Y634750D02*
Y634946D01*
X979789Y595332D02*
Y595529D01*
Y598876D02*
Y599072D01*
X566502Y564336D02*
X566698D01*
X570045D02*
X570242D01*
X1023313Y560399D02*
X1023116D01*
X1019769D02*
X1019572D01*
X1058407Y627328D02*
X1058210D01*
X1054864D02*
X1054667D01*
X1009218Y621423D02*
X1009021D01*
X1005675D02*
X1005478D01*
X1011285Y518962D02*
Y518765D01*
Y515419D02*
Y515222D01*
X1048687Y618372D02*
Y618569D01*
Y621915D02*
Y622112D01*
X979789Y577332D02*
Y577529D01*
Y580876D02*
Y581072D01*
X1054592Y618529D02*
Y618726D01*
Y622072D02*
Y622269D01*
X982470Y552525D02*
X982273D01*
X978927D02*
X978730D01*
X1274311Y1003543D02*
X1274114D01*
X1270768D02*
X1270571D01*
X986967Y722394D02*
Y722198D01*
Y718851D02*
Y718654D01*
X1048687Y580183D02*
Y580380D01*
Y583726D02*
Y583923D01*
Y599372D02*
Y599569D01*
Y602915D02*
Y603112D01*
X987663Y623490D02*
Y623687D01*
Y627033D02*
Y627230D01*
X993569Y594246D02*
Y594443D01*
Y597789D02*
Y597986D01*
X1048687Y608372D02*
Y608569D01*
Y611915D02*
Y612112D01*
X1096029Y619454D02*
X1096226D01*
X1099572D02*
X1099769D01*
X993569Y576246D02*
Y576443D01*
Y579789D02*
Y579986D01*
X1037533Y635202D02*
X1037336D01*
X1033990D02*
X1033793D01*
X1036407Y627328D02*
X1036210D01*
X1032864D02*
X1032667D01*
X1030572Y560399D02*
X1030769D01*
X1034116D02*
X1034313D01*
X993569Y585246D02*
Y585443D01*
Y588789D02*
Y588986D01*
X987663Y589828D02*
Y589631D01*
Y586285D02*
Y586088D01*
X1037635Y568273D02*
X1037832D01*
X1041179D02*
X1041376D01*
X1008431Y568265D02*
X1008234D01*
X1004887D02*
X1004691D01*
X1003313Y560399D02*
X1003116D01*
X999769D02*
X999572D01*
X1062466Y618529D02*
Y618726D01*
Y622072D02*
Y622269D01*
Y599529D02*
Y599726D01*
Y603072D02*
Y603269D01*
X1054592Y608529D02*
Y608726D01*
Y612072D02*
Y612269D01*
X1027427Y552525D02*
X1027230D01*
X1023883D02*
X1023687D01*
X987663Y613647D02*
Y613844D01*
Y617191D02*
Y617387D01*
Y603805D02*
Y604002D01*
Y607348D02*
Y607545D01*
X1062466Y589529D02*
Y589726D01*
Y593072D02*
Y593269D01*
X1054592Y568529D02*
Y568726D01*
Y572072D02*
Y572269D01*
X1108234Y341895D02*
X1108431D01*
X1111777D02*
X1111974D01*
X1035470Y552525D02*
X1035273D01*
X1031927D02*
X1031730D01*
X979789Y586332D02*
Y586529D01*
Y589876D02*
Y590072D01*
X1118470Y341895D02*
X1118667D01*
X1122013D02*
X1122210D01*
X1062466Y608529D02*
Y608726D01*
Y612072D02*
Y612269D01*
X1077427Y381167D02*
Y380970D01*
Y377624D02*
Y377427D01*
X1036777Y264336D02*
X1036580D01*
X1033234D02*
X1033037D01*
X1096029Y635202D02*
X1096226D01*
X1099572D02*
X1099769D01*
X1256069Y959612D02*
X1255872D01*
X1252525D02*
X1252328D01*
X1007533Y635202D02*
X1007336D01*
X1003990D02*
X1003793D01*
X1006407Y627328D02*
X1006210D01*
X1002864D02*
X1002667D01*
X1062466Y578529D02*
Y578726D01*
Y582072D02*
Y582269D01*
X948194Y648982D02*
X947998D01*
X944651D02*
X944454D01*
X979789Y604332D02*
Y604529D01*
Y607876D02*
Y608072D01*
Y568332D02*
Y568529D01*
Y571876D02*
Y572072D01*
X1054592Y590025D02*
Y590222D01*
Y593569D02*
Y593765D01*
X1026533Y635202D02*
X1026336D01*
X1022990D02*
X1022793D01*
X993470Y552525D02*
X993273D01*
X989927D02*
X989730D01*
X987663Y594750D02*
Y594946D01*
Y598293D02*
Y598490D01*
Y558490D02*
Y558687D01*
Y562033D02*
Y562230D01*
X1018376Y568273D02*
X1018179D01*
X1014832D02*
X1014635D01*
X994297Y620824D02*
X994494D01*
X997840D02*
X998037D01*
X1017533Y635202D02*
X1017336D01*
X1013990D02*
X1013793D01*
X828313Y615517D02*
X828509D01*
X831856D02*
X832053D01*
X851935D02*
X852131D01*
X855478D02*
X855675D01*
X749572D02*
X749769D01*
X753116D02*
X753313D01*
X1013470Y552525D02*
X1013273D01*
X1009927D02*
X1009730D01*
X998533Y635202D02*
X998336D01*
X994990D02*
X994793D01*
X1054592Y558529D02*
Y558726D01*
Y562072D02*
Y562269D01*
X997407Y627328D02*
X997210D01*
X993864D02*
X993667D01*
X993569Y603246D02*
Y603443D01*
Y606789D02*
Y606986D01*
X948194Y641108D02*
X947998D01*
X944651D02*
X944454D01*
X999376Y568273D02*
X999179D01*
X995832D02*
X995635D01*
X1012313Y560399D02*
X1012116D01*
X1008769D02*
X1008572D01*
X1016407Y627328D02*
X1016210D01*
X1012864D02*
X1012667D01*
X1048687Y568372D02*
Y568569D01*
Y571915D02*
Y572112D01*
X1054592Y598529D02*
Y598726D01*
Y602072D02*
Y602269D01*
X993569Y558529D02*
Y558726D01*
Y562072D02*
Y562269D01*
X1020032Y621557D02*
X1019835D01*
X1016489D02*
X1016292D01*
X1040572Y560399D02*
X1040769D01*
X1044116D02*
X1044313D01*
X1048533Y635202D02*
X1048336D01*
X1044990D02*
X1044793D01*
X987663Y577427D02*
Y577624D01*
Y580970D02*
Y581167D01*
X979789Y558332D02*
Y558529D01*
Y561876D02*
Y562072D01*
X1048687Y590025D02*
Y590222D01*
Y593569D02*
Y593765D01*
X1031265Y621817D02*
X1031069D01*
X1027722D02*
X1027525D01*
X948194Y645045D02*
X947998D01*
X944651D02*
X944454D01*
X1003470Y552525D02*
X1003273D01*
X999927D02*
X999730D01*
X1029326Y568256D02*
X1029129D01*
X1025782D02*
X1025586D01*
X1040032Y621557D02*
X1039835D01*
X1036489D02*
X1036292D01*
X979789Y623332D02*
Y623529D01*
Y626876D02*
Y627072D01*
X993569Y612246D02*
Y612443D01*
Y615789D02*
Y615986D01*
Y518962D02*
Y518765D01*
Y515419D02*
Y515222D01*
X979789Y613332D02*
Y613529D01*
Y616876D02*
Y617072D01*
X1047407Y627328D02*
X1047210D01*
X1043864D02*
X1043667D01*
X989533Y635202D02*
X989336D01*
X985990D02*
X985793D01*
X1096029Y623391D02*
X1096226D01*
X1099572D02*
X1099769D01*
X1096029Y639139D02*
X1096226D01*
X1099572D02*
X1099769D01*
X999474Y518962D02*
Y518765D01*
Y515419D02*
Y515222D01*
X981757Y518962D02*
Y518765D01*
Y515419D02*
Y515222D01*
X1096029Y631265D02*
X1096226D01*
X1099572D02*
X1099769D01*
X1017191Y518962D02*
Y518765D01*
Y515419D02*
Y515222D01*
X975852Y518962D02*
Y518765D01*
Y515419D02*
Y515222D01*
X1096029Y615517D02*
X1096226D01*
X1099572D02*
X1099769D01*
X603805Y658923D02*
Y659120D01*
Y662466D02*
Y662663D01*
X759626Y1021890D02*
X759823D01*
X763169D02*
X763366D01*
X742776Y1021929D02*
X742579D01*
X739232D02*
X739035D01*
X590320Y631265D02*
X590124D01*
X586777D02*
X586580D01*
X590320Y623391D02*
X590124D01*
X586777D02*
X586580D01*
X643175Y658923D02*
Y659120D01*
Y662466D02*
Y662663D01*
X811802Y1023020D02*
Y1023217D01*
Y1026563D02*
Y1026760D01*
X631364Y658923D02*
Y659120D01*
Y662466D02*
Y662663D01*
X820572Y1022290D02*
X820376D01*
X817029D02*
X816832D01*
X766280Y1021850D02*
X766476D01*
X769823D02*
X770020D01*
X795172Y1021990D02*
X794976D01*
X791629D02*
X791432D01*
X639238Y658923D02*
Y659120D01*
Y662466D02*
Y662663D01*
X647112Y658923D02*
Y659120D01*
Y662466D02*
Y662663D01*
X654986Y658923D02*
Y659120D01*
Y662466D02*
Y662663D01*
X651049Y658923D02*
Y659120D01*
Y662466D02*
Y662663D01*
X590320Y627328D02*
X590124D01*
X586777D02*
X586580D01*
X590320Y635202D02*
X590124D01*
X586777D02*
X586580D01*
X783972Y1021890D02*
X783776D01*
X780429D02*
X780232D01*
X755098Y1021929D02*
X754902D01*
X751555D02*
X751358D01*
X806972Y1021890D02*
X806776D01*
X803429D02*
X803232D01*
X730886Y1021929D02*
X731083D01*
X734429D02*
X734626D01*
X627427Y658923D02*
Y659120D01*
Y662466D02*
Y662663D01*
X619553Y658923D02*
Y659120D01*
Y662466D02*
Y662663D01*
X623490Y658923D02*
Y659120D01*
Y662466D02*
Y662663D01*
X678608Y658923D02*
Y659120D01*
Y662466D02*
Y662663D01*
X923702Y1022820D02*
Y1023017D01*
Y1026363D02*
Y1026560D01*
X931972Y1021990D02*
X931776D01*
X928429D02*
X928232D01*
X907072D02*
X906876D01*
X903529D02*
X903332D01*
X662860Y658923D02*
Y659120D01*
Y662466D02*
Y662663D01*
X702230Y658923D02*
Y659120D01*
Y662466D02*
Y662663D01*
X694356Y658923D02*
Y659120D01*
Y662466D02*
Y662663D01*
X698293Y658923D02*
Y659120D01*
Y662466D02*
Y662663D01*
X731462Y633234D02*
X731659D01*
X735006D02*
X735202D01*
X725852Y658923D02*
Y659120D01*
Y662466D02*
Y662663D01*
X717978Y658923D02*
Y659120D01*
Y662466D02*
Y662663D01*
X714041Y658923D02*
Y659120D01*
Y662466D02*
Y662663D01*
X690419Y658923D02*
Y659120D01*
Y662466D02*
Y662663D01*
X731462Y629297D02*
X731659D01*
X735006D02*
X735202D01*
X918872Y1021990D02*
X918676D01*
X915329D02*
X915132D01*
X895372D02*
X895176D01*
X891829D02*
X891632D01*
X658923Y659021D03*
Y662565D03*
X944395Y728824D03*
X947939D03*
X974395Y758824D03*
X977939D03*
X1062466Y568529D02*
Y568726D01*
Y572072D02*
Y572269D01*
X1054592Y515222D02*
Y515419D01*
Y518765D02*
Y518962D01*
X944297Y718824D02*
X944494D01*
X947840D02*
X948037D01*
X1065470Y552525D02*
X1065273D01*
X1061927D02*
X1061730D01*
X1244715Y462357D02*
X1244518D01*
X1241172D02*
X1240975D01*
X1024335Y995618D03*
Y999161D03*
X1019335Y1005818D03*
Y1009361D03*
X1014335Y995618D03*
Y999161D03*
X1004332Y995628D03*
Y999172D03*
X999335Y1005818D03*
Y1009361D03*
X1239139Y425152D03*
X1242683D03*
X1216780Y238155D03*
Y241698D03*
X1209454Y238155D03*
Y241698D03*
X949671Y424966D03*
X953214D03*
X970109Y433901D03*
Y437444D03*
X978023Y433901D03*
Y437444D03*
X953214Y421029D03*
X949671D03*
X749671Y576147D03*
X753214D03*
X332608Y628431D02*
Y628628D01*
Y631974D02*
Y632171D01*
X329395Y490419D02*
Y490616D01*
Y493962D02*
Y494159D01*
X682545Y658923D02*
Y659120D01*
Y662466D02*
Y662663D01*
X666797Y658923D02*
Y659120D01*
Y662466D02*
Y662663D01*
X802478Y503313D02*
X802281D01*
X798935D02*
X798738D01*
X735793Y546620D02*
X735990D01*
X739336D02*
X739533D01*
X749572Y584021D02*
X749769D01*
X753116D02*
X753313D01*
X853903Y503313D02*
X854100D01*
X857446D02*
X857643D01*
X977051Y373197D02*
X976854D01*
X973508D02*
X973311D01*
X962051D02*
X961854D01*
X958508D02*
X958311D01*
X994051Y431697D02*
X993854D01*
X990508D02*
X990311D01*
X995181Y416327D02*
Y416524D01*
Y419870D02*
Y420067D01*
Y386327D02*
Y386524D01*
Y389870D02*
Y390067D01*
X992051Y373197D02*
X991854D01*
X988508D02*
X988311D01*
X995181Y401327D02*
Y401524D01*
Y404870D02*
Y405067D01*
X946051Y431697D02*
X945854D01*
X942508D02*
X942311D01*
X940181Y416327D02*
Y416524D01*
Y419870D02*
Y420067D01*
Y386327D02*
Y386524D01*
Y389870D02*
Y390067D01*
X1024532Y1009030D02*
Y1009227D01*
Y1012573D02*
Y1012770D01*
X1034132Y1009130D02*
Y1009327D01*
Y1012673D02*
Y1012870D01*
X1059465Y927951D02*
X1059662D01*
X1063008D02*
X1063205D01*
X1059465Y938051D02*
X1059662D01*
X1063008D02*
X1063205D01*
X1022041Y877927D02*
X1021844D01*
X1018497D02*
X1018300D01*
X1039855Y895545D02*
Y895349D01*
Y892002D02*
Y891805D01*
Y905388D02*
Y905191D01*
Y901845D02*
Y901648D01*
Y915230D02*
Y915034D01*
Y911687D02*
Y911490D01*
Y934916D02*
Y934719D01*
Y931372D02*
Y931175D01*
X1000485Y934916D02*
Y934719D01*
Y931372D02*
Y931175D01*
Y915230D02*
Y915034D01*
Y911687D02*
Y911490D01*
Y905388D02*
Y905191D01*
Y901845D02*
Y901648D01*
Y895545D02*
Y895349D01*
Y892002D02*
Y891805D01*
Y872120D02*
Y872317D01*
Y875664D02*
Y875860D01*
X1018300Y870053D02*
X1018497D01*
X1021844D02*
X1022041D01*
X1196051Y413197D02*
X1195854D01*
X1192508D02*
X1192311D01*
X1196051Y403197D02*
X1195854D01*
X1192508D02*
X1192311D01*
X1196051Y519197D02*
X1195854D01*
X1192508D02*
X1192311D01*
X1196051Y543197D02*
X1195854D01*
X1192508D02*
X1192311D01*
X1196051Y535197D02*
X1195854D01*
X1192508D02*
X1192311D01*
X1196051Y433197D02*
X1195854D01*
X1192508D02*
X1192311D01*
X1196051Y423197D02*
X1195854D01*
X1192508D02*
X1192311D01*
X1196051Y527197D02*
X1195854D01*
X1192508D02*
X1192311D01*
X1032035Y921546D02*
Y921743D01*
Y925090D02*
Y925286D01*
X1008035Y921546D02*
Y921743D01*
Y925090D02*
Y925286D01*
X1196051Y511197D02*
X1195854D01*
X1192508D02*
X1192311D01*
X1196051Y503197D02*
X1195854D01*
X1192508D02*
X1192311D01*
X1222407Y746226D02*
X1222604D01*
X1225950D02*
X1226147D01*
X1222407Y739139D02*
X1222604D01*
X1225950D02*
X1226147D01*
X1196051Y393197D02*
X1195854D01*
X1192508D02*
X1192311D01*
X1196051Y495197D02*
X1195854D01*
X1192508D02*
X1192311D01*
X1196051Y487197D02*
X1195854D01*
X1192508D02*
X1192311D01*
X1195894Y257742D02*
Y257939D01*
Y261285D02*
Y261482D01*
X1000485Y921333D02*
Y921530D01*
Y924876D02*
Y925073D01*
X963596Y152956D02*
Y153152D01*
Y156499D02*
Y156696D01*
X951393Y152956D02*
Y153152D01*
Y156499D02*
Y156696D01*
X715536Y153238D02*
Y153435D01*
Y156781D02*
Y156978D01*
X703412Y153238D02*
Y153435D01*
Y156781D02*
Y156978D01*
X611117Y153021D02*
Y153218D01*
Y156565D02*
Y156761D01*
X598873Y153021D02*
Y153218D01*
Y156565D02*
Y156761D01*
X363071Y153016D02*
Y153213D01*
Y156559D02*
Y156756D01*
X350866Y153016D02*
Y153213D01*
Y156559D02*
Y156756D01*
X589927Y556462D02*
X589730D01*
X586383D02*
X586187D01*
X589927Y580084D02*
X589730D01*
X586383D02*
X586187D01*
X589927Y595832D02*
X589730D01*
X586383D02*
X586187D01*
X589927Y587958D02*
X589730D01*
X586383D02*
X586187D01*
X589927Y564336D02*
X589730D01*
X586383D02*
X586187D01*
X350950Y209612D02*
X350754D01*
X347407D02*
X347210D01*
X617683Y568273D02*
X617880D01*
X621226D02*
X621423D01*
X589927Y572210D02*
X589730D01*
X586383D02*
X586187D01*
X589927Y548982D02*
X589730D01*
X586383D02*
X586187D01*
X589927Y607643D02*
X589730D01*
X586383D02*
X586187D01*
X853903Y682446D02*
X854100D01*
X857446D02*
X857643D01*
X731856Y613549D02*
X732053D01*
X735399D02*
X735596D01*
X731856Y617486D02*
X732053D01*
X735399D02*
X735596D01*
X802525Y682053D02*
X802328D01*
X798982D02*
X798785D01*
X1034135Y995618D03*
Y999161D03*
X141731Y367390D03*
X145274D03*
X1009335Y1005818D03*
Y1009361D03*
X225202Y191318D03*
Y194861D03*
X148074Y353190D03*
X144531D03*
X331954Y541502D03*
X328411D03*
X331954Y536777D03*
X328411D03*
X364041Y718864D03*
Y715320D03*
X356561Y714927D03*
Y711383D03*
X739828Y552525D03*
X743372D03*
X739818Y536777D03*
X743361D03*
X684513Y493667D03*
Y497210D03*
X749671Y568273D03*
X753214D03*
X1029332Y1005628D03*
Y1009172D03*
X974395Y718824D03*
X977939D03*
X851935Y568273D02*
X852131D01*
X855478D02*
X855675D01*
X570242Y572210D02*
X570045D01*
X566698D02*
X566502D01*
X570242Y556462D02*
X570045D01*
X566698D02*
X566502D01*
X570242Y540714D02*
X570045D01*
X566698D02*
X566502D01*
X570242Y517092D02*
X570045D01*
X566698D02*
X566502D01*
X645242Y568273D02*
X645439D01*
X648785D02*
X648982D01*
X595931Y658923D02*
Y659120D01*
Y662466D02*
Y662663D01*
X741698Y560399D02*
X741895D01*
X745242D02*
X745439D01*
X351050Y204212D02*
X350854D01*
X347507D02*
X347310D01*
X607742Y658923D02*
Y659120D01*
Y662466D02*
Y662663D01*
X749572Y521029D02*
X749769D01*
X753116D02*
X753313D01*
X749572Y528903D02*
X749769D01*
X753116D02*
X753313D01*
X566502Y509218D02*
X566698D01*
X570045D02*
X570242D01*
X383431Y568273D02*
X383628D01*
X386974D02*
X387171D01*
Y513155D02*
X386974D01*
X383628D02*
X383431D01*
X566502Y595832D02*
X566698D01*
X570045D02*
X570242D01*
X387171Y489533D02*
X386974D01*
X383628D02*
X383431D01*
X387171Y464139D02*
X386974D01*
X383628D02*
X383431D01*
X749572Y591895D02*
X749769D01*
X753116D02*
X753313D01*
X648982Y607643D02*
X648785D01*
X645439D02*
X645242D01*
X656856D02*
X656659D01*
X653313D02*
X653116D01*
X672604D02*
X672407D01*
X669061D02*
X668864D01*
X680478D02*
X680281D01*
X676935D02*
X676738D01*
X749572Y599769D02*
X749769D01*
X753116D02*
X753313D01*
X664730Y607643D02*
X664533D01*
X661187D02*
X660990D01*
X648982Y576147D02*
X648785D01*
X645439D02*
X645242D01*
X672604Y591895D02*
X672407D01*
X669061D02*
X668864D01*
X641108Y584021D02*
X640911D01*
X637565D02*
X637368D01*
X556462Y603706D02*
X556265D01*
X552919D02*
X552722D01*
X680478Y584021D02*
X680281D01*
X676935D02*
X676738D01*
X664730Y599769D02*
X664533D01*
X661187D02*
X660990D01*
X648982Y584021D02*
X648785D01*
X645439D02*
X645242D01*
X656856Y599769D02*
X656659D01*
X653313D02*
X653116D01*
X556462Y580084D02*
X556265D01*
X552919D02*
X552722D01*
X648982Y591895D02*
X648785D01*
X645439D02*
X645242D01*
X680478D02*
X680281D01*
X676935D02*
X676738D01*
X641108Y576147D02*
X640911D01*
X637565D02*
X637368D01*
X672604Y599769D02*
X672407D01*
X669061D02*
X668864D01*
X586187Y603706D02*
X586383D01*
X589730D02*
X589927D01*
X672604Y576147D02*
X672407D01*
X669061D02*
X668864D01*
X593962Y481757D02*
Y481954D01*
Y485301D02*
Y485498D01*
X649080Y481757D02*
Y481954D01*
Y485301D02*
Y485498D01*
X688352Y607643D02*
X688155D01*
X684809D02*
X684612D01*
X680478Y576147D02*
X680281D01*
X676935D02*
X676738D01*
X566502Y532840D02*
X566698D01*
X570045D02*
X570242D01*
X611679Y658923D02*
Y659120D01*
Y662466D02*
Y662663D01*
X238902Y190661D03*
Y187118D03*
X147974Y558890D03*
X144431D03*
X139731Y573590D03*
X143274D03*
X253411Y782742D02*
Y782545D01*
Y779198D02*
Y779002D01*
X566502Y587958D02*
X566698D01*
X570045D02*
X570242D01*
X473883Y593765D02*
Y593569D01*
Y590222D02*
Y590025D01*
Y635104D02*
Y634907D01*
Y631561D02*
Y631364D01*
X208037Y802525D02*
X207840D01*
X204494D02*
X204297D01*
X229789Y782742D02*
Y782545D01*
Y779198D02*
Y779002D01*
X277033Y782742D02*
Y782545D01*
Y779198D02*
Y779002D01*
X205731Y379190D03*
X209274D03*
X657053Y591895D02*
X657250D01*
X660596D02*
X660793D01*
X217978Y779002D02*
Y779198D01*
Y782545D02*
Y782742D01*
X241600Y779002D02*
Y779198D01*
Y782545D02*
Y782742D01*
X265222Y779002D02*
Y779198D01*
Y782545D02*
Y782742D01*
X288844Y779002D02*
Y779198D01*
Y782545D02*
Y782742D01*
X338531Y972790D03*
X342074D03*
X208774Y365690D03*
X205231D03*
X947051Y373197D02*
X946854D01*
X943508D02*
X943311D01*
X731462Y625360D02*
X731659D01*
X735006D02*
X735202D01*
X854972Y1021890D02*
X854776D01*
X851429D02*
X851232D01*
X387171Y536777D02*
X386974D01*
X383628D02*
X383431D01*
X710104Y658923D02*
Y659120D01*
Y662466D02*
Y662663D01*
X879072Y1021990D02*
X878876D01*
X875529D02*
X875332D01*
X842972Y1021890D02*
X842776D01*
X839429D02*
X839232D01*
X871002Y1023220D02*
Y1023417D01*
Y1026763D02*
Y1026960D01*
X865972Y1021890D02*
X865776D01*
X862429D02*
X862232D01*
X1196051Y559197D02*
X1195854D01*
X1192508D02*
X1192311D01*
X1196051Y551197D02*
X1195854D01*
X1192508D02*
X1192311D01*
X1010144Y930469D02*
X1009947D01*
X1006601D02*
X1006404D01*
X1034850Y930369D02*
X1034653D01*
X1031306D02*
X1031109D01*
X1000485Y881963D02*
Y882160D01*
Y885506D02*
Y885703D01*
X1039855Y921333D02*
Y921530D01*
Y924876D02*
Y925073D01*
Y881963D02*
Y882160D01*
Y885506D02*
Y885703D01*
X1033852Y870053D02*
X1033655D01*
X1030308D02*
X1030111D01*
X1010229D02*
X1010033D01*
X1006686D02*
X1006489D01*
X1239225Y257742D02*
Y257939D01*
Y261285D02*
Y261482D01*
X1014332Y1009030D02*
Y1009227D01*
Y1012573D02*
Y1012770D01*
X1196051Y479197D02*
X1195854D01*
X1192508D02*
X1192311D01*
X1196051Y471197D02*
X1195854D01*
X1192508D02*
X1192311D01*
X1196051Y463197D02*
X1195854D01*
X1192508D02*
X1192311D01*
X1196051Y453197D02*
X1195854D01*
X1192508D02*
X1192311D01*
X1196051Y443197D02*
X1195854D01*
X1192508D02*
X1192311D01*
X1004432Y1009030D02*
Y1009227D01*
Y1012573D02*
Y1012770D01*
X387171Y418864D02*
X386974D01*
X383628D02*
X383431D01*
X566502Y603706D02*
X566698D01*
X570045D02*
X570242D01*
X566502Y524966D02*
X566698D01*
X570045D02*
X570242D01*
X387171Y434612D02*
X386974D01*
X383628D02*
X383431D01*
X566502Y580084D02*
X566698D01*
X570045D02*
X570242D01*
X387171Y501344D02*
X386974D01*
X383628D02*
X383431D01*
X387171Y475754D02*
X386974D01*
X383628D02*
X383431D01*
X387171Y524966D02*
X386974D01*
X383628D02*
X383431D01*
X387171Y450360D02*
X386974D01*
X383628D02*
X383431D01*
X387171Y548588D02*
X386974D01*
X383628D02*
X383431D01*
X387171Y558431D02*
X386974D01*
X383628D02*
X383431D01*
X566502Y548588D02*
X566698D01*
X570045D02*
X570242D01*
X749572Y607643D02*
X749769D01*
X753116D02*
X753313D01*
X731856Y637171D02*
X732053D01*
X735399D02*
X735596D01*
X1039855Y875860D02*
Y875664D01*
Y872317D02*
Y872120D01*
X1079134Y1018209D02*
Y1018406D01*
Y1021752D02*
Y1021949D01*
X1084252Y1018209D02*
Y1018406D01*
Y1021752D02*
Y1021949D01*
X940181Y401327D02*
Y401524D01*
Y404870D02*
Y405067D01*
X656856Y576147D02*
X656659D01*
X653313D02*
X653116D01*
X641108Y591895D02*
X640911D01*
X637565D02*
X637368D01*
X648982Y599769D02*
X648785D01*
X645439D02*
X645242D01*
X798908Y507250D03*
X802452D03*
X798883Y686383D03*
X802427D03*
X749541Y513155D02*
X749738D01*
X753084D02*
X753281D01*
X556462Y556462D02*
X556265D01*
X552919D02*
X552722D01*
X664730Y576147D02*
X664533D01*
X661187D02*
X660990D01*
X656856Y568273D02*
X656659D01*
X653313D02*
X653116D01*
X664730D02*
X664533D01*
X661187D02*
X660990D01*
X672604D02*
X672407D01*
X669061D02*
X668864D01*
X696324Y485498D02*
Y485301D01*
Y481954D02*
Y481757D01*
X656856Y584021D02*
X656659D01*
X653313D02*
X653116D01*
X664730D02*
X664533D01*
X661187D02*
X660990D01*
X672604D02*
X672407D01*
X669061D02*
X668864D01*
X609710Y481757D02*
Y481954D01*
Y485301D02*
Y485498D01*
X735694Y481757D02*
Y481954D01*
Y485301D02*
Y485498D01*
X672702Y481757D02*
Y481954D01*
Y485301D02*
Y485498D01*
X641206Y481757D02*
Y481954D01*
Y485301D02*
Y485498D01*
X578214Y481757D02*
Y481954D01*
Y485301D02*
Y485498D01*
X670734Y659021D03*
Y662565D03*
X674671Y659021D03*
Y662565D03*
X905583Y423443D03*
Y419900D03*
X909853D03*
Y423443D03*
X422835Y162894D02*
Y162697D01*
Y159350D02*
Y159154D01*
X522835Y162500D02*
Y162303D01*
Y158957D02*
Y158760D01*
X755118Y162500D02*
Y162303D01*
Y158957D02*
Y158760D01*
X855906Y162500D02*
Y162303D01*
Y158957D02*
Y158760D01*
X441732Y159547D02*
Y159744D01*
Y163091D02*
Y163287D01*
X543307Y158760D02*
Y158957D01*
Y162303D02*
Y162500D01*
X774803Y158760D02*
Y158957D01*
Y162303D02*
Y162500D01*
X875591Y158760D02*
Y158957D01*
Y162303D02*
Y162500D01*
X894488Y158760D02*
Y158957D01*
Y162303D02*
Y162500D01*
X795276Y158760D02*
Y158957D01*
Y162303D02*
Y162500D01*
X563780Y158760D02*
Y158957D01*
Y162303D02*
Y162500D01*
X462992Y158760D02*
Y158957D01*
Y162303D02*
Y162500D01*
X916535Y158760D02*
Y158957D01*
Y162303D02*
Y162500D01*
X815748Y158760D02*
Y158957D01*
Y162303D02*
Y162500D01*
X583465Y158760D02*
Y158957D01*
Y162303D02*
Y162500D01*
X482677Y158760D02*
Y158957D01*
Y162303D02*
Y162500D01*
X403150Y159154D02*
Y159350D01*
Y162697D02*
Y162894D01*
X503150Y158760D02*
Y158957D01*
Y162303D02*
Y162500D01*
X734646Y158760D02*
Y158957D01*
Y162303D02*
Y162500D01*
X835433Y157972D02*
Y158169D01*
Y161516D02*
Y161713D01*
G54D37*
X598391Y676541D02*
X598194D01*
X598391Y670242D02*
X598194D01*
X604691Y676541D02*
X604494D01*
X604691Y670242D02*
X604494D01*
X629691D02*
X629887D01*
X629691Y676541D02*
X629887D01*
X610990D02*
X610793D01*
X610990Y670242D02*
X610793D01*
X623588Y676541D02*
X623391D01*
X623588Y670242D02*
X623391D01*
X617289Y676541D02*
X617092D01*
X617289Y670242D02*
X617092D01*
X574376Y648588D02*
X574179D01*
X574376Y642289D02*
X574179D01*
X635990Y670242D02*
X636187D01*
X635990Y676541D02*
X636187D01*
X648785D02*
X648588D01*
X648785Y670242D02*
X648588D01*
X661383Y676541D02*
X661187D01*
X661383Y670242D02*
X661187D01*
X642486Y676541D02*
X642289D01*
X642486Y670242D02*
X642289D01*
X654887D02*
X655084D01*
X654887Y676541D02*
X655084D01*
X680281D02*
X680084D01*
X680281Y670242D02*
X680084D01*
X673982Y676541D02*
X673785D01*
X673982Y670242D02*
X673785D01*
X583726Y615616D02*
Y615419D01*
X590025Y615616D02*
Y615419D01*
X686580Y676541D02*
X686383D01*
X686580Y670242D02*
X686383D01*
X667486D02*
X667683D01*
X667486Y676541D02*
X667683D01*
X699179D02*
X698982D01*
X699179Y670242D02*
X698982D01*
X711777Y676541D02*
X711580D01*
X711777Y670242D02*
X711580D01*
X705478Y676541D02*
X705281D01*
X705478Y670242D02*
X705281D01*
X724179D02*
X724376D01*
X724179Y676541D02*
X724376D01*
X580675Y648982D02*
X580478D01*
X580675Y642683D02*
X580478D01*
X730675Y676541D02*
X730478D01*
X730675Y670242D02*
X730478D01*
X736974Y676541D02*
X736777D01*
X736974Y670242D02*
X736777D01*
X718076Y676541D02*
X717880D01*
X718076Y670242D02*
X717880D01*
X692683D02*
X692880D01*
X692683Y676541D02*
X692880D01*
X744356Y640813D02*
Y640616D01*
X750655Y640813D02*
Y640616D01*
Y628017D02*
Y628214D01*
X744356Y628017D02*
Y628214D01*
X750655Y621718D02*
Y621915D01*
X744356Y621718D02*
Y621915D01*
X750655Y634317D02*
Y634513D01*
X744356Y634317D02*
Y634513D01*
X589533Y642683D02*
X589730D01*
X589533Y648982D02*
X589730D01*
X591895Y670242D02*
X592092D01*
X591895Y676541D02*
X592092D01*
X585793D02*
X585596D01*
X585793Y670242D02*
X585596D01*
G54D39*
X820852Y545439D02*
Y546226D01*
X818883Y545439D02*
Y546226D01*
X816915Y545439D02*
Y546226D01*
X814946Y545439D02*
Y546226D01*
Y549376D02*
Y550163D01*
X816915Y549376D02*
Y550163D01*
X818883Y549376D02*
Y550163D01*
X820852Y549376D02*
Y550163D01*
X831246Y468273D02*
Y467486D01*
X833214Y468273D02*
Y467486D01*
X835183Y468273D02*
Y467486D01*
X837151Y468273D02*
Y467486D01*
Y464336D02*
Y463549D01*
X835183Y464336D02*
Y463549D01*
X833214Y464336D02*
Y463549D01*
X831246Y464336D02*
Y463549D01*
X834238Y545439D02*
Y546226D01*
X832269Y545439D02*
Y546226D01*
X830301Y545439D02*
Y546226D01*
X828332Y545439D02*
Y546226D01*
Y549376D02*
Y550163D01*
X830301Y549376D02*
Y550163D01*
X832269Y549376D02*
Y550163D01*
X834238Y549376D02*
Y550163D01*
X820222Y468273D02*
Y467486D01*
X822191Y468273D02*
Y467486D01*
X824159Y468273D02*
Y467486D01*
X826128Y468273D02*
Y467486D01*
Y464336D02*
Y463549D01*
X824159Y464336D02*
Y463549D01*
X822191Y464336D02*
Y463549D01*
X820222Y464336D02*
Y463549D01*
X809592Y468273D02*
Y467486D01*
X811561Y468273D02*
Y467486D01*
X813529Y468273D02*
Y467486D01*
X815498Y468273D02*
Y467486D01*
Y464336D02*
Y463549D01*
X813529Y464336D02*
Y463549D01*
X811561Y464336D02*
Y463549D01*
X809592Y464336D02*
Y463549D01*
X865222Y521305D02*
X866009D01*
X865222Y523273D02*
X866009D01*
X865222Y525242D02*
X866009D01*
X865222Y527210D02*
X866009D01*
X869159D02*
X869946D01*
X869159Y525242D02*
X869946D01*
X869159Y523273D02*
X869946D01*
X869159Y521305D02*
X869946D01*
X866009Y680360D02*
X866797D01*
X866009Y682328D02*
X866797D01*
X866009Y684297D02*
X866797D01*
X866009Y686265D02*
X866797D01*
X869946D02*
X870734D01*
X869946Y684297D02*
X870734D01*
X869946Y682328D02*
X870734D01*
X869946Y680360D02*
X870734D01*
X866009Y671305D02*
X866797D01*
X866009Y673273D02*
X866797D01*
X866009Y675242D02*
X866797D01*
X866009Y677210D02*
X866797D01*
X869946D02*
X870734D01*
X869946Y675242D02*
X870734D01*
X869946Y673273D02*
X870734D01*
X869946Y671305D02*
X870734D01*
X821639Y724966D02*
Y725754D01*
X819671Y724966D02*
Y725754D01*
X817702Y724966D02*
Y725754D01*
X815734Y724966D02*
Y725754D01*
Y728903D02*
Y729691D01*
X817702Y728903D02*
Y729691D01*
X819671Y728903D02*
Y729691D01*
X821639Y728903D02*
Y729691D01*
X814317Y645439D02*
Y644651D01*
X816285Y645439D02*
Y644651D01*
X818254Y645439D02*
Y644651D01*
X820222Y645439D02*
Y644651D01*
Y641502D02*
Y640714D01*
X818254Y641502D02*
Y640714D01*
X816285Y641502D02*
Y640714D01*
X814317Y641502D02*
Y640714D01*
X826521Y645439D02*
Y644651D01*
X828490Y645439D02*
Y644651D01*
X830458Y645439D02*
Y644651D01*
X832427Y645439D02*
Y644651D01*
Y641502D02*
Y640714D01*
X830458Y641502D02*
Y640714D01*
X828490Y641502D02*
Y640714D01*
X826521Y641502D02*
Y640714D01*
X802899Y645832D02*
Y645045D01*
X804868Y645832D02*
Y645045D01*
X806836Y645832D02*
Y645045D01*
X808805Y645832D02*
Y645045D01*
Y641895D02*
Y641108D01*
X806836Y641895D02*
Y641108D01*
X804868Y641895D02*
Y641108D01*
X802899Y641895D02*
Y641108D01*
X838726Y645439D02*
Y644651D01*
X840694Y645439D02*
Y644651D01*
X842663Y645439D02*
Y644651D01*
X844631Y645439D02*
Y644651D01*
Y641502D02*
Y640714D01*
X842663Y641502D02*
Y640714D01*
X840694Y641502D02*
Y640714D01*
X838726Y641502D02*
Y640714D01*
X865616Y661856D02*
X866403D01*
X865616Y663824D02*
X866403D01*
X865616Y665793D02*
X866403D01*
X865616Y667761D02*
X866403D01*
X869553D02*
X870340D01*
X869553Y665793D02*
X870340D01*
X869553Y663824D02*
X870340D01*
X869553Y661856D02*
X870340D01*
X866009Y690202D02*
X866797D01*
X866009Y692171D02*
X866797D01*
X866009Y694139D02*
X866797D01*
X866009Y696108D02*
X866797D01*
X869946D02*
X870734D01*
X869946Y694139D02*
X870734D01*
X869946Y692171D02*
X870734D01*
X869946Y690202D02*
X870734D01*
X848017Y545439D02*
Y546226D01*
X846049Y545439D02*
Y546226D01*
X844080Y545439D02*
Y546226D01*
X842112Y545439D02*
Y546226D01*
Y549376D02*
Y550163D01*
X844080Y549376D02*
Y550163D01*
X846049Y549376D02*
Y550163D01*
X848017Y549376D02*
Y550163D01*
X849986Y724966D02*
Y725754D01*
X848017Y724966D02*
Y725754D01*
X846049Y724966D02*
Y725754D01*
X844080Y724966D02*
Y725754D01*
Y728903D02*
Y729691D01*
X846049Y728903D02*
Y729691D01*
X848017Y728903D02*
Y729691D01*
X849986Y728903D02*
Y729691D01*
X834631Y724966D02*
Y725754D01*
X832663Y724966D02*
Y725754D01*
X830694Y724966D02*
Y725754D01*
X828726Y724966D02*
Y725754D01*
Y728903D02*
Y729691D01*
X830694Y728903D02*
Y729691D01*
X832663Y728903D02*
Y729691D01*
X834631Y728903D02*
Y729691D01*
X866009Y701620D02*
X866797D01*
X866009Y703588D02*
X866797D01*
X866009Y705557D02*
X866797D01*
X866009Y707525D02*
X866797D01*
X869946D02*
X870734D01*
X869946Y705557D02*
X870734D01*
X869946Y703588D02*
X870734D01*
X869946Y701620D02*
X870734D01*
X865222Y511462D02*
X866009D01*
X865222Y513431D02*
X866009D01*
X865222Y515399D02*
X866009D01*
X865222Y517368D02*
X866009D01*
X869159D02*
X869946D01*
X869159Y515399D02*
X869946D01*
X869159Y513431D02*
X869946D01*
X869159Y511462D02*
X869946D01*
X865222Y501620D02*
X866009D01*
X865222Y503588D02*
X866009D01*
X865222Y505557D02*
X866009D01*
X865222Y507525D02*
X866009D01*
X869159D02*
X869946D01*
X869159Y505557D02*
X869946D01*
X869159Y503588D02*
X869946D01*
X869159Y501620D02*
X869946D01*
X865222Y482722D02*
X866009D01*
X865222Y484691D02*
X866009D01*
X865222Y486659D02*
X866009D01*
X865222Y488628D02*
X866009D01*
X869159D02*
X869946D01*
X869159Y486659D02*
X869946D01*
X869159Y484691D02*
X869946D01*
X869159Y482722D02*
X869946D01*
X865222Y491777D02*
X866009D01*
X865222Y493746D02*
X866009D01*
X865222Y495714D02*
X866009D01*
X865222Y497683D02*
X866009D01*
X869159D02*
X869946D01*
X869159Y495714D02*
X869946D01*
X869159Y493746D02*
X869946D01*
X869159Y491777D02*
X869946D01*
X842269Y468273D02*
Y467486D01*
X844238Y468273D02*
Y467486D01*
X846206Y468273D02*
Y467486D01*
X848175Y468273D02*
Y467486D01*
Y464336D02*
Y463549D01*
X846206Y464336D02*
Y463549D01*
X844238Y464336D02*
Y463549D01*
X842269Y464336D02*
Y463549D01*
G54D46*
X858726Y537072D02*
Y538844D01*
X856757Y537072D02*
Y538844D01*
X854789Y537072D02*
Y538844D01*
X852820Y537072D02*
Y538844D01*
Y542584D02*
Y544356D01*
X854789Y542584D02*
Y544356D01*
X856757Y542584D02*
Y544356D01*
X858726Y542584D02*
Y544356D01*
X873785Y522013D02*
X875557D01*
X873785Y523982D02*
X875557D01*
X873785Y525950D02*
X875557D01*
X873785Y527919D02*
X875557D01*
X879297D02*
X881069D01*
X879297Y525950D02*
X881069D01*
X879297Y523982D02*
X881069D01*
X879297Y522013D02*
X881069D01*
X873785Y512171D02*
X875557D01*
X873785Y514139D02*
X875557D01*
X873785Y516108D02*
X875557D01*
X873785Y518076D02*
X875557D01*
X879297D02*
X881069D01*
X879297Y516108D02*
X881069D01*
X879297Y514139D02*
X881069D01*
X879297Y512171D02*
X881069D01*
X873785Y502328D02*
X875557D01*
X873785Y504297D02*
X875557D01*
X873785Y506265D02*
X875557D01*
X873785Y508234D02*
X875557D01*
X879297D02*
X881069D01*
X879297Y506265D02*
X881069D01*
X879297Y504297D02*
X881069D01*
X879297Y502328D02*
X881069D01*
X820931Y553608D02*
Y555380D01*
X818962Y553608D02*
Y555380D01*
X816994Y553608D02*
Y555380D01*
X815025Y553608D02*
Y555380D01*
Y559120D02*
Y560891D01*
X816994Y559120D02*
Y560891D01*
X818962Y559120D02*
Y560891D01*
X820931Y559120D02*
Y560891D01*
X873785Y492486D02*
X875557D01*
X873785Y494454D02*
X875557D01*
X873785Y496423D02*
X875557D01*
X873785Y498391D02*
X875557D01*
X879297D02*
X881069D01*
X879297Y496423D02*
X881069D01*
X879297Y494454D02*
X881069D01*
X879297Y492486D02*
X881069D01*
X873785Y482643D02*
X875557D01*
X873785Y484612D02*
X875557D01*
X873785Y486580D02*
X875557D01*
X873785Y488549D02*
X875557D01*
X879297D02*
X881069D01*
X879297Y486580D02*
X881069D01*
X879297Y484612D02*
X881069D01*
X879297Y482643D02*
X881069D01*
X842191Y460498D02*
Y458726D01*
X844159Y460498D02*
Y458726D01*
X846128Y460498D02*
Y458726D01*
X848096Y460498D02*
Y458726D01*
Y454986D02*
Y453214D01*
X846128Y454986D02*
Y453214D01*
X844159Y454986D02*
Y453214D01*
X842191Y454986D02*
Y453214D01*
X831167Y460498D02*
Y458726D01*
X833135Y460498D02*
Y458726D01*
X835104Y460498D02*
Y458726D01*
X837072Y460498D02*
Y458726D01*
Y454986D02*
Y453214D01*
X835104Y454986D02*
Y453214D01*
X833135Y454986D02*
Y453214D01*
X831167Y454986D02*
Y453214D01*
X820537Y460498D02*
Y458726D01*
X822506Y460498D02*
Y458726D01*
X824474Y460498D02*
Y458726D01*
X826443Y460498D02*
Y458726D01*
Y454986D02*
Y453214D01*
X824474Y454986D02*
Y453214D01*
X822506Y454986D02*
Y453214D01*
X820537Y454986D02*
Y453214D01*
X809907Y460498D02*
Y458726D01*
X811876Y460498D02*
Y458726D01*
X813844Y460498D02*
Y458726D01*
X815813Y460498D02*
Y458726D01*
Y454986D02*
Y453214D01*
X813844Y454986D02*
Y453214D01*
X811876Y454986D02*
Y453214D01*
X809907Y454986D02*
Y453214D01*
X805576Y537072D02*
Y538844D01*
X803608Y537072D02*
Y538844D01*
X801639Y537072D02*
Y538844D01*
X799671Y537072D02*
Y538844D01*
Y542584D02*
Y544356D01*
X801639Y542584D02*
Y544356D01*
X803608Y542584D02*
Y544356D01*
X805576Y542584D02*
Y544356D01*
X858726Y470143D02*
Y471915D01*
X856757Y470143D02*
Y471915D01*
X854789Y470143D02*
Y471915D01*
X852820Y470143D02*
Y471915D01*
Y475655D02*
Y477427D01*
X854789Y475655D02*
Y477427D01*
X856757Y475655D02*
Y477427D01*
X858726Y475655D02*
Y477427D01*
X868569Y649277D02*
Y651049D01*
X866600Y649277D02*
Y651049D01*
X864631Y649277D02*
Y651049D01*
X862663Y649277D02*
Y651049D01*
Y654789D02*
Y656561D01*
X864631Y654789D02*
Y656561D01*
X866600Y654789D02*
Y656561D01*
X868569Y654789D02*
Y656561D01*
X798391Y722407D02*
X796620D01*
X798391Y720439D02*
X796620D01*
X798391Y718470D02*
X796620D01*
X798391Y716502D02*
X796620D01*
X792880D02*
X791108D01*
X792880Y718470D02*
X791108D01*
X792880Y720439D02*
X791108D01*
X792880Y722407D02*
X791108D01*
X805576Y470143D02*
Y471915D01*
X803608Y470143D02*
Y471915D01*
X801639Y470143D02*
Y471915D01*
X799671Y470143D02*
Y471915D01*
Y475655D02*
Y477427D01*
X801639Y475655D02*
Y477427D01*
X803608Y475655D02*
Y477427D01*
X805576Y475655D02*
Y477427D01*
X858726Y716206D02*
Y717978D01*
X856757Y716206D02*
Y717978D01*
X854789Y716206D02*
Y717978D01*
X852820Y716206D02*
Y717978D01*
Y721718D02*
Y723490D01*
X854789Y721718D02*
Y723490D01*
X856757Y721718D02*
Y723490D01*
X858726Y721718D02*
Y723490D01*
X809513Y726049D02*
Y727820D01*
X807545Y726049D02*
Y727820D01*
X805576Y726049D02*
Y727820D01*
X803608Y726049D02*
Y727820D01*
Y731561D02*
Y733332D01*
X805576Y731561D02*
Y733332D01*
X807545Y731561D02*
Y733332D01*
X809513Y731561D02*
Y733332D01*
X791108Y705084D02*
X792880D01*
X791108Y707053D02*
X792880D01*
X791108Y709021D02*
X792880D01*
X791108Y710990D02*
X792880D01*
X796620D02*
X798391D01*
X796620Y709021D02*
X798391D01*
X796620Y707053D02*
X798391D01*
X796620Y705084D02*
X798391D01*
X868569Y716206D02*
Y717978D01*
X866600Y716206D02*
Y717978D01*
X864631Y716206D02*
Y717978D01*
X862663Y716206D02*
Y717978D01*
Y721718D02*
Y723490D01*
X864631Y721718D02*
Y723490D01*
X866600Y721718D02*
Y723490D01*
X868569Y721718D02*
Y723490D01*
X858726Y649277D02*
Y651049D01*
X856757Y649277D02*
Y651049D01*
X854789Y649277D02*
Y651049D01*
X852820Y649277D02*
Y651049D01*
Y654789D02*
Y656561D01*
X854789Y654789D02*
Y656561D01*
X856757Y654789D02*
Y656561D01*
X858726Y654789D02*
Y656561D01*
X874966Y680675D02*
X876738D01*
X874966Y682643D02*
X876738D01*
X874966Y684612D02*
X876738D01*
X874966Y686580D02*
X876738D01*
X880478D02*
X882250D01*
X880478Y684612D02*
X882250D01*
X880478Y682643D02*
X882250D01*
X880478Y680675D02*
X882250D01*
X821324Y733923D02*
Y735694D01*
X819356Y733923D02*
Y735694D01*
X817387Y733923D02*
Y735694D01*
X815419Y733923D02*
Y735694D01*
Y739435D02*
Y741206D01*
X817387Y739435D02*
Y741206D01*
X819356Y739435D02*
Y741206D01*
X821324Y739435D02*
Y741206D01*
X874966Y671226D02*
X876738D01*
X874966Y673194D02*
X876738D01*
X874966Y675163D02*
X876738D01*
X874966Y677131D02*
X876738D01*
X880478D02*
X882250D01*
X880478Y675163D02*
X882250D01*
X880478Y673194D02*
X882250D01*
X880478Y671226D02*
X882250D01*
X874966Y661383D02*
X876738D01*
X874966Y663352D02*
X876738D01*
X874966Y665320D02*
X876738D01*
X874966Y667289D02*
X876738D01*
X880478D02*
X882250D01*
X880478Y665320D02*
X882250D01*
X880478Y663352D02*
X882250D01*
X880478Y661383D02*
X882250D01*
X814238Y637269D02*
Y635498D01*
X816206Y637269D02*
Y635498D01*
X818175Y637269D02*
Y635498D01*
X820143Y637269D02*
Y635498D01*
Y631757D02*
Y629986D01*
X818175Y631757D02*
Y629986D01*
X816206Y631757D02*
Y629986D01*
X814238Y631757D02*
Y629986D01*
X868569Y537072D02*
Y538844D01*
X866600Y537072D02*
Y538844D01*
X864631Y537072D02*
Y538844D01*
X862663Y537072D02*
Y538844D01*
Y542584D02*
Y544356D01*
X864631Y542584D02*
Y544356D01*
X866600Y542584D02*
Y544356D01*
X868569Y542584D02*
Y544356D01*
X826443Y637269D02*
Y635498D01*
X828411Y637269D02*
Y635498D01*
X830380Y637269D02*
Y635498D01*
X832348Y637269D02*
Y635498D01*
Y631757D02*
Y629986D01*
X830380Y631757D02*
Y629986D01*
X828411Y631757D02*
Y629986D01*
X826443Y631757D02*
Y629986D01*
X838647Y637269D02*
Y635498D01*
X840616Y637269D02*
Y635498D01*
X842584Y637269D02*
Y635498D01*
X844553Y637269D02*
Y635498D01*
Y631757D02*
Y629986D01*
X842584Y631757D02*
Y629986D01*
X840616Y631757D02*
Y629986D01*
X838647Y631757D02*
Y629986D01*
X803608Y636876D02*
Y635104D01*
X805576Y636876D02*
Y635104D01*
X807545Y636876D02*
Y635104D01*
X809513Y636876D02*
Y635104D01*
Y631364D02*
Y629592D01*
X807545Y631364D02*
Y629592D01*
X805576Y631364D02*
Y629592D01*
X803608Y631364D02*
Y629592D01*
X835104Y733923D02*
Y735694D01*
X833135Y733923D02*
Y735694D01*
X831167Y733923D02*
Y735694D01*
X829198Y733923D02*
Y735694D01*
Y739435D02*
Y741206D01*
X831167Y739435D02*
Y741206D01*
X833135Y739435D02*
Y741206D01*
X835104Y739435D02*
Y741206D01*
X850065Y733923D02*
Y735694D01*
X848096Y733923D02*
Y735694D01*
X846128Y733923D02*
Y735694D01*
X844159Y733923D02*
Y735694D01*
Y739435D02*
Y741206D01*
X846128Y739435D02*
Y741206D01*
X848096Y739435D02*
Y741206D01*
X850065Y739435D02*
Y741206D01*
X874966Y701541D02*
X876738D01*
X874966Y703509D02*
X876738D01*
X874966Y705478D02*
X876738D01*
X874966Y707446D02*
X876738D01*
X880478D02*
X882250D01*
X880478Y705478D02*
X882250D01*
X880478Y703509D02*
X882250D01*
X880478Y701541D02*
X882250D01*
X874966Y690124D02*
X876738D01*
X874966Y692092D02*
X876738D01*
X874966Y694061D02*
X876738D01*
X874966Y696029D02*
X876738D01*
X880478D02*
X882250D01*
X880478Y694061D02*
X882250D01*
X880478Y692092D02*
X882250D01*
X880478Y690124D02*
X882250D01*
X868569Y470143D02*
Y471915D01*
X866600Y470143D02*
Y471915D01*
X864631Y470143D02*
Y471915D01*
X862663Y470143D02*
Y471915D01*
Y475655D02*
Y477427D01*
X864631Y475655D02*
Y477427D01*
X866600Y475655D02*
Y477427D01*
X868569Y475655D02*
Y477427D01*
X796423Y488549D02*
X794651D01*
X796423Y486580D02*
X794651D01*
X796423Y484612D02*
X794651D01*
X796423Y482643D02*
X794651D01*
X790911D02*
X789139D01*
X790911Y484612D02*
X789139D01*
X790911Y486580D02*
X789139D01*
X790911Y488549D02*
X789139D01*
X834317Y553608D02*
Y555380D01*
X832348Y553608D02*
Y555380D01*
X830380Y553608D02*
Y555380D01*
X828411Y553608D02*
Y555380D01*
Y559120D02*
Y560891D01*
X830380Y559120D02*
Y560891D01*
X832348Y559120D02*
Y560891D01*
X834317Y559120D02*
Y560891D01*
X848490Y553608D02*
Y555380D01*
X846521Y553608D02*
Y555380D01*
X844553Y553608D02*
Y555380D01*
X842584Y553608D02*
Y555380D01*
Y559120D02*
Y560891D01*
X844553Y559120D02*
Y560891D01*
X846521Y559120D02*
Y560891D01*
X848490Y559120D02*
Y560891D01*
G54D54*
X754783Y1007244D02*
X756161D01*
X754783Y1014331D02*
X756161D01*
X808813Y1007246D02*
X810191D01*
X808813Y1014333D02*
X810191D01*
X866413Y1007346D02*
X867791D01*
X866413Y1014433D02*
X867791D01*
X921113Y1007446D02*
X922491D01*
X921113Y1014533D02*
X922491D01*
G54D55*
X1132283Y964272D02*
Y969587D01*
X1121260Y964272D02*
Y969587D01*
X0Y0D02*
M02*
