*
*
G04 PADS9.0.1 Build Number: 350951 generated Gerber (RS-274-X) file*
G04 PC Version=2.1*
*
%IN "roach103.pcb"*%
*
%MOIN*%
*
%FSLAX35Y35*%
*
*
*
*
G04 PC Standard Apertures*
*
*
G04 Thermal Relief Aperture macro.*
%AMTER*
1,1,$1,0,0*
1,0,$1-$2,0,0*
21,0,$3,$4,0,0,45*
21,0,$3,$4,0,0,135*
%
*
*
G04 Annular Aperture macro.*
%AMANN*
1,1,$1,0,0*
1,0,$2,0,0*
%
*
*
G04 Odd Aperture macro.*
%AMODD*
1,1,$1,0,0*
1,0,$1-0.005,0,0*
%
*
*
G04 PC Custom Aperture Macros*
*
*
*
*
*
*
G04 PC Aperture Table*
*
%ADD015R,0.02559X0.02362*%
%ADD016R,0.02362X0.02559*%
%ADD018R,0.0374X0.03937*%
%ADD020R,0.03937X0.0374*%
%ADD021R,0.02362X0.02362*%
%ADD032R,0.02756X0.00984*%
%ADD041R,0.01969X0.01181*%
%ADD062C,0.03937*%
%ADD115C,0.001*%
%ADD135R,0.06496X0.05118*%
%ADD136R,0.00984X0.02756*%
%ADD137R,0.01181X0.01969*%
%ADD374R,0.04134X0.04134*%
*
*
*
*
G04 PC Circuitry*
G04 Layer Name roach103.pcb - circuitry*
%LPD*%
*
*
G04 PC Custom Flashes*
G04 Layer Name roach103.pcb - flashes*
%LPD*%
*
*
G04 PC Circuitry*
G04 Layer Name roach103.pcb - circuitry*
%LPD*%
*
G54D15*
G01X989372Y532525D03*
X985828D03*
X761443Y548273D03*
X764986D03*
X994435Y615202D03*
X990891D03*
X960309Y607328D03*
X956765D03*
X1153569Y939612D03*
X1150025D03*
X976009Y532525D03*
X979553D03*
X501600Y544336D03*
X505143D03*
X958214Y540399D03*
X954671D03*
X993309Y607328D03*
X989765D03*
X944120Y601423D03*
X940576D03*
X917372Y532525D03*
X913828D03*
X1209213Y983543D03*
X1205669D03*
X1031128Y599454D03*
X1034671D03*
X972435Y615202D03*
X968891D03*
X971309Y607328D03*
X967765D03*
X965671Y540399D03*
X969214D03*
X972734Y548273D03*
X976277D03*
X943332Y548265D03*
X939789D03*
X938214Y540399D03*
X934671D03*
X962328Y532525D03*
X958785D03*
X1038608Y318352D03*
X1042151D03*
X970372Y532525D03*
X966828D03*
X1053701Y318583D03*
X1057244D03*
X971679Y244336D03*
X968135D03*
X1031128Y615202D03*
X1034671D03*
X1190970Y939612D03*
X1187427D03*
X942435Y615202D03*
X938891D03*
X941309Y607328D03*
X937765D03*
X883096Y628982D03*
X879553D03*
X961435Y615202D03*
X957891D03*
X928372Y532525D03*
X924828D03*
X953277Y548273D03*
X949734D03*
X929395Y600824D03*
X932939D03*
X952435Y615202D03*
X948891D03*
X763411Y595517D03*
X766954D03*
X787033D03*
X790576D03*
X684671D03*
X688214D03*
X948372Y532525D03*
X944828D03*
X933435Y615202D03*
X929891D03*
X932309Y607328D03*
X928765D03*
X883096Y621108D03*
X879553D03*
X934277Y548273D03*
X930734D03*
X947214Y540399D03*
X943671D03*
X951309Y607328D03*
X947765D03*
X954934Y601557D03*
X951391D03*
X975671Y540399D03*
X979214D03*
X983435Y615202D03*
X979891D03*
X966167Y601817D03*
X962624D03*
X883096Y625045D03*
X879553D03*
X938372Y532525D03*
X934828D03*
X964227Y548256D03*
X960684D03*
X974934Y601557D03*
X971391D03*
X982309Y607328D03*
X978765D03*
X924435Y615202D03*
X920891D03*
X1031128Y603391D03*
X1034671D03*
X1031128Y619139D03*
X1034671D03*
X1031128Y611265D03*
X1034671D03*
X1031128Y595517D03*
X1034671D03*
X694724Y1001890D03*
X698268D03*
X677677Y1001929D03*
X674134D03*
X525222Y611265D03*
X521679D03*
X525222Y603391D03*
X521679D03*
X755474Y1002290D03*
X751931D03*
X702870Y1001851D03*
X706413D03*
X730074Y1001990D03*
X726531D03*
X525222Y607328D03*
X521679D03*
X525222Y615202D03*
X521679D03*
X690000Y1001929D03*
X686457D03*
X741874Y1001890D03*
X738331D03*
X866874Y1001990D03*
X863331D03*
X841974D03*
X838431D03*
X666561Y613234D03*
X670104D03*
X666561Y609297D03*
X670104D03*
X853774Y1001990D03*
X850231D03*
X879228Y704000D03*
X882772D03*
X1000372Y532525D03*
X996828D03*
X1179617Y442357D03*
X1176073D03*
X737380Y483313D03*
X733836D03*
X670891Y526620D03*
X674435D03*
X684671Y564021D03*
X688214D03*
X789002Y483313D03*
X792545D03*
X911953Y353197D03*
X908409D03*
X896953D03*
X893409D03*
X928953Y411697D03*
X925409D03*
X926953Y353197D03*
X923409D03*
X880953Y411697D03*
X877409D03*
X994563Y907951D03*
X998107D03*
X994563Y918051D03*
X998107D03*
X956942Y857927D03*
X953399D03*
Y850053D03*
X956942D03*
X1130953Y393197D03*
X1127409D03*
X1130953Y383197D03*
X1127409D03*
X1130953Y499197D03*
X1127409D03*
X1130953Y523197D03*
X1127409D03*
X1130953Y515197D03*
X1127409D03*
X1130953Y413197D03*
X1127409D03*
X1130953Y403197D03*
X1127409D03*
X1130953Y507197D03*
X1127409D03*
X1130953Y491197D03*
X1127409D03*
X1130953Y483197D03*
X1127409D03*
X1157506Y726226D03*
X1161049D03*
X1157506Y719139D03*
X1161049D03*
X1130953Y373197D03*
X1127409D03*
X1130953Y475197D03*
X1127409D03*
X1130953Y467197D03*
X1127409D03*
X524828Y536462D03*
X521285D03*
X524828Y560084D03*
X521285D03*
X524828Y575832D03*
X521285D03*
X524828Y567958D03*
X521285D03*
X524828Y544336D03*
X521285D03*
X291757Y221108D03*
X288214D03*
X552781Y548273D03*
X556324D03*
X524828Y552210D03*
X521285D03*
X524828Y528982D03*
X521285D03*
X524828Y587643D03*
X521285D03*
X789002Y662446D03*
X792545D03*
X666954Y593549D03*
X670498D03*
X666954Y597486D03*
X670498D03*
X737427Y662053D03*
X733883D03*
X787033Y548273D03*
X790576D03*
X505143Y552210D03*
X501600D03*
X505143Y536462D03*
X501600D03*
X505143Y520714D03*
X501600D03*
X505143Y497092D03*
X501600D03*
X580340Y548273D03*
X583883D03*
X676797Y540399D03*
X680340D03*
X291857Y215708D03*
X288314D03*
X684671Y501029D03*
X688214D03*
X684671Y508903D03*
X688214D03*
X501600Y489218D03*
X505143D03*
X318529Y548273D03*
X322072D03*
Y493155D03*
X318529D03*
X501600Y575832D03*
X505143D03*
X322072Y469533D03*
X318529D03*
X322072Y444139D03*
X318529D03*
X684671Y571895D03*
X688214D03*
X583883Y587643D03*
X580340D03*
X591757D03*
X588214D03*
X607506D03*
X603962D03*
X615380D03*
X611836D03*
X684671Y579769D03*
X688214D03*
X599631Y587643D03*
X596088D03*
X583883Y556147D03*
X580340D03*
X607506Y571895D03*
X603962D03*
X576009Y564021D03*
X572466D03*
X491364Y583706D03*
X487820D03*
X615380Y564021D03*
X611836D03*
X599631Y579769D03*
X596088D03*
X583883Y564021D03*
X580340D03*
X591757Y579769D03*
X588214D03*
X491364Y560084D03*
X487820D03*
X583883Y571895D03*
X580340D03*
X615380D03*
X611836D03*
X576009Y556147D03*
X572466D03*
X607506Y579769D03*
X603962D03*
X521285Y583706D03*
X524828D03*
X607506Y556147D03*
X603962D03*
X623254Y587643D03*
X619710D03*
X615380Y556147D03*
X611836D03*
X501600Y512840D03*
X505143D03*
X501600Y567958D03*
X505143D03*
X142939Y782525D03*
X139395D03*
X592151Y571895D03*
X595694D03*
X881953Y353197D03*
X878409D03*
X666561Y605360D03*
X670104D03*
X789874Y1001890D03*
X786331D03*
X322072Y516777D03*
X318529D03*
X813974Y1001990D03*
X810431D03*
X800874Y1001890D03*
X797331D03*
X1130953Y539197D03*
X1127409D03*
X1130953Y531197D03*
X1127409D03*
X945046Y910469D03*
X941502D03*
X969751Y910369D03*
X966208D03*
X968753Y850053D03*
X965210D03*
X945131D03*
X941588D03*
X1130953Y459197D03*
X1127409D03*
X1130953Y451197D03*
X1127409D03*
X1130953Y443197D03*
X1127409D03*
X1130953Y433197D03*
X1127409D03*
X1130953Y423197D03*
X1127409D03*
X322072Y398864D03*
X318529D03*
X501600Y583706D03*
X505143D03*
X501600Y504966D03*
X505143D03*
X322072Y414612D03*
X318529D03*
X501600Y560084D03*
X505143D03*
X322072Y481344D03*
X318529D03*
X322072Y455754D03*
X318529D03*
X322072Y504966D03*
X318529D03*
X322072Y430360D03*
X318529D03*
X322072Y528588D03*
X318529D03*
X322072Y538431D03*
X318529D03*
X501600Y528588D03*
X505143D03*
X684671Y587643D03*
X688214D03*
X666954Y617171D03*
X670498D03*
X591757Y556147D03*
X588214D03*
X576009Y571895D03*
X572466D03*
X583883Y579769D03*
X580340D03*
X684639Y493155D03*
X688183D03*
X491364Y536462D03*
X487820D03*
X599631Y556147D03*
X596088D03*
X591757Y548273D03*
X588214D03*
X599631D03*
X596088D03*
X607506D03*
X603962D03*
X591757Y564021D03*
X588214D03*
X599631D03*
X596088D03*
X607506D03*
X603962D03*
X1065157Y958661D03*
X1061614D03*
G54D16*
X940380Y498864D03*
Y495320D03*
X914789Y613431D03*
Y616974D03*
X997466Y538628D03*
Y542171D03*
X989592Y560281D03*
Y563824D03*
X922663Y548588D03*
Y552131D03*
Y498864D03*
Y495320D03*
X1001403Y611305D03*
Y614848D03*
X914789Y575431D03*
Y578974D03*
X946285Y498864D03*
Y495320D03*
X983687Y598470D03*
Y602013D03*
X914789Y557431D03*
Y560974D03*
X989592Y598628D03*
Y602171D03*
X921967Y702296D03*
Y698753D03*
X983687Y560281D03*
Y563824D03*
Y579470D03*
Y583013D03*
X922663Y603588D03*
Y607131D03*
X928569Y574344D03*
Y577887D03*
X983687Y588470D03*
Y592013D03*
X928569Y556344D03*
Y559887D03*
Y565344D03*
Y568887D03*
X922663Y569730D03*
Y566187D03*
X997466Y598628D03*
Y602171D03*
Y579628D03*
Y583171D03*
X989592Y588628D03*
Y592171D03*
X922663Y593746D03*
Y597289D03*
Y583903D03*
Y587446D03*
X997466Y569628D03*
Y573171D03*
X989592Y548628D03*
Y552171D03*
X914789Y566431D03*
Y569974D03*
X997466Y588628D03*
Y592171D03*
X1012427Y361069D03*
Y357525D03*
X997466Y558628D03*
Y562171D03*
X914789Y584431D03*
Y587974D03*
Y548431D03*
Y551974D03*
X989592Y570124D03*
Y573667D03*
X922663Y574848D03*
Y578391D03*
Y538588D03*
Y542131D03*
X989592Y538628D03*
Y542171D03*
X928569Y583344D03*
Y586887D03*
X983687Y548470D03*
Y552013D03*
X989592Y578628D03*
Y582171D03*
X928569Y538628D03*
Y542171D03*
X922663Y557525D03*
Y561069D03*
X914789Y538431D03*
Y541974D03*
X983687Y570124D03*
Y573667D03*
X914789Y603431D03*
Y606974D03*
X928569Y592344D03*
Y595887D03*
Y498864D03*
Y495320D03*
X914789Y593431D03*
Y596974D03*
X934474Y498864D03*
Y495320D03*
X916757Y498864D03*
Y495320D03*
X952191Y498864D03*
Y495320D03*
X910852Y498864D03*
Y495320D03*
X538805Y639021D03*
Y642565D03*
X578175Y639021D03*
Y642565D03*
X746802Y1003118D03*
Y1006661D03*
X566364Y639021D03*
Y642565D03*
X574238Y639021D03*
Y642565D03*
X582112Y639021D03*
Y642565D03*
X589986Y639021D03*
Y642565D03*
X586049Y639021D03*
Y642565D03*
X562427Y639021D03*
Y642565D03*
X554553Y639021D03*
Y642565D03*
X558490Y639021D03*
Y642565D03*
X613608Y639021D03*
Y642565D03*
X858702Y1002918D03*
Y1006461D03*
X597860Y639021D03*
Y642565D03*
X637230Y639021D03*
Y642565D03*
X629356Y639021D03*
Y642565D03*
X633293Y639021D03*
Y642565D03*
X660852Y639021D03*
Y642565D03*
X652978Y639021D03*
Y642565D03*
X649041Y639021D03*
Y642565D03*
X625419Y639021D03*
Y642565D03*
X997466Y548628D03*
Y552171D03*
X989592Y495320D03*
Y498864D03*
X268223Y498057D03*
Y501600D03*
X617545Y639021D03*
Y642565D03*
X601797Y639021D03*
Y642565D03*
X930181Y396425D03*
Y399969D03*
Y366425D03*
Y369969D03*
Y381425D03*
Y384969D03*
X875181Y396425D03*
Y399969D03*
Y366425D03*
Y369969D03*
X956824Y943228D03*
Y946772D03*
X968635Y943228D03*
Y946772D03*
X974855Y875447D03*
Y871904D03*
Y885290D03*
Y881746D03*
Y895132D03*
Y891589D03*
Y914817D03*
Y911274D03*
X935485Y914817D03*
Y911274D03*
Y895132D03*
Y891589D03*
Y885290D03*
Y881746D03*
Y875447D03*
Y871904D03*
Y852219D03*
Y855762D03*
X967035Y901645D03*
Y905188D03*
X943035Y901645D03*
Y905188D03*
X1130894Y237840D03*
Y241383D03*
X935485Y901431D03*
Y904975D03*
X898596Y133054D03*
Y136597D03*
X886393Y133054D03*
Y136597D03*
X650536Y133336D03*
Y136880D03*
X638412Y133336D03*
Y136880D03*
X546117Y133120D03*
Y136663D03*
X533873Y133120D03*
Y136663D03*
X298071Y133114D03*
Y136658D03*
X285866Y133114D03*
Y136658D03*
X530931Y639021D03*
Y642565D03*
X542742Y639021D03*
Y642565D03*
X528962Y461856D03*
Y465399D03*
X584080Y461856D03*
Y465399D03*
X546679Y639021D03*
Y642565D03*
X188411Y762643D03*
Y759100D03*
X408883Y573667D03*
Y570124D03*
Y615006D03*
Y611462D03*
X164789Y762643D03*
Y759100D03*
X212033Y762643D03*
Y759100D03*
X152978D03*
Y762643D03*
X176600Y759100D03*
Y762643D03*
X200222Y759100D03*
Y762643D03*
X223844Y759100D03*
Y762643D03*
X645104Y639021D03*
Y642565D03*
X806002Y1003318D03*
Y1006861D03*
X935485Y862061D03*
Y865604D03*
X974855Y901431D03*
Y904975D03*
Y862061D03*
Y865604D03*
X1124238Y250045D03*
Y253588D03*
X945013Y943228D03*
Y946772D03*
X933202Y943228D03*
Y946772D03*
X974855Y855762D03*
Y852219D03*
X999606Y999409D03*
Y995866D03*
X1004724Y999409D03*
Y995866D03*
X875181Y381425D03*
Y384969D03*
X631324Y465399D03*
Y461856D03*
X544710D03*
Y465399D03*
X670694Y461856D03*
Y465399D03*
X607702Y461856D03*
Y465399D03*
X576206Y461856D03*
Y465399D03*
X513214Y461856D03*
Y465399D03*
X357835Y142795D03*
Y139252D03*
X457835Y142402D03*
Y138858D03*
X690118Y142402D03*
Y138858D03*
X790906Y142402D03*
Y138858D03*
X376732Y139646D03*
Y143189D03*
X478307Y138858D03*
Y142402D03*
X709803Y138858D03*
Y142402D03*
X810591Y138858D03*
Y142402D03*
X829488Y138858D03*
Y142402D03*
X730276Y138858D03*
Y142402D03*
X498780Y138858D03*
Y142402D03*
X397992Y138858D03*
Y142402D03*
X851535Y138858D03*
Y142402D03*
X750748Y138858D03*
Y142402D03*
X518465Y138858D03*
Y142402D03*
X417677Y138858D03*
Y142402D03*
X338150Y139252D03*
Y142795D03*
X438150Y138858D03*
Y142402D03*
X669646Y138858D03*
Y142402D03*
X770433Y138071D03*
Y141614D03*
X1176961Y651029D03*
Y647486D03*
X1177437Y307943D03*
Y304399D03*
G54D18*
X518726Y595517D03*
X525025D03*
X679356Y620714D03*
X685655D03*
Y608116D03*
X679356D03*
X685655Y601817D03*
X679356D03*
X685655Y614415D03*
X679356D03*
G54D20*
X533293Y656541D03*
Y650242D03*
X539592Y656541D03*
Y650242D03*
X564789D03*
Y656541D03*
X545891D03*
Y650242D03*
X558490Y656541D03*
Y650242D03*
X552191Y656541D03*
Y650242D03*
X509277Y628588D03*
Y622289D03*
X571088Y650242D03*
Y656541D03*
X583687D03*
Y650242D03*
X596285Y656541D03*
Y650242D03*
X577387Y656541D03*
Y650242D03*
X589986D03*
Y656541D03*
X615183D03*
Y650242D03*
X608883Y656541D03*
Y650242D03*
X621482Y656541D03*
Y650242D03*
X602584D03*
Y656541D03*
X634080D03*
Y650242D03*
X646679Y656541D03*
Y650242D03*
X640380Y656541D03*
Y650242D03*
X659277D03*
Y656541D03*
X515576Y628982D03*
Y622683D03*
X665576Y656541D03*
Y650242D03*
X671876Y656541D03*
Y650242D03*
X652978Y656541D03*
Y650242D03*
X627781D03*
Y656541D03*
X524631Y622683D03*
Y628982D03*
X526994Y650242D03*
Y656541D03*
X520694D03*
Y650242D03*
G54D21*
X792545Y666383D03*
X789002D03*
X792545Y487250D03*
X789002D03*
X593923Y639021D03*
Y642565D03*
X879728Y715500D03*
X883272D03*
X909395Y738824D03*
X912939D03*
X958792Y935228D03*
Y938772D03*
X946981Y935228D03*
Y938772D03*
X943044Y935228D03*
Y938772D03*
X935170Y935228D03*
Y938772D03*
X931233Y935228D03*
Y938772D03*
X1174139Y405152D03*
X1177683D03*
X884671Y404966D03*
X888214D03*
X905109Y413901D03*
Y417444D03*
X913023Y413901D03*
Y417444D03*
X888214Y401029D03*
X884671D03*
X684671Y556147D03*
X688214D03*
X970604Y935228D03*
Y938772D03*
X76731Y347390D03*
X80274D03*
X954855Y935228D03*
Y938772D03*
X160202Y171318D03*
Y174861D03*
X83074Y333190D03*
X79531D03*
X268176Y540835D03*
X264632D03*
X268176Y535765D03*
X264632D03*
X298647Y727210D03*
Y723667D03*
X290773Y725242D03*
Y721698D03*
X674828Y532525D03*
X678372D03*
X674818Y516777D03*
X678361D03*
X619513Y473667D03*
Y477210D03*
X684671Y548273D03*
X688214D03*
X966666Y935228D03*
Y938772D03*
X909395Y698824D03*
X912939D03*
X173902Y170661D03*
Y167118D03*
X82974Y538890D03*
X79431D03*
X74731Y553590D03*
X78274D03*
X140731Y359190D03*
X144274D03*
X273531Y952790D03*
X277074D03*
X143774Y345690D03*
X140231D03*
X733908Y487250D03*
X737452D03*
X733883Y666383D03*
X737427D03*
X605734Y639021D03*
Y642565D03*
X609671Y639021D03*
Y642565D03*
X840583Y403443D03*
Y399900D03*
X844853D03*
Y403443D03*
G54D32*
X809671Y502013D03*
Y503982D03*
Y505950D03*
Y507919D03*
X815183D03*
Y505950D03*
Y503982D03*
Y502013D03*
X809671Y492171D03*
Y494139D03*
Y496108D03*
Y498076D03*
X815183D03*
Y496108D03*
Y494139D03*
Y492171D03*
X809671Y482328D03*
Y484297D03*
Y486265D03*
Y488234D03*
X815183D03*
Y486265D03*
Y484297D03*
Y482328D03*
X809671Y472486D03*
Y474454D03*
Y476423D03*
Y478391D03*
X815183D03*
Y476423D03*
Y474454D03*
Y472486D03*
X809671Y462643D03*
Y464612D03*
Y466580D03*
Y468549D03*
X815183D03*
Y466580D03*
Y464612D03*
Y462643D03*
X732506Y702407D03*
Y700439D03*
Y698470D03*
Y696502D03*
X726994D03*
Y698470D03*
Y700439D03*
Y702407D03*
Y685084D03*
Y687053D03*
Y689021D03*
Y690990D03*
X732506D03*
Y689021D03*
Y687053D03*
Y685084D03*
X818738Y702701D03*
Y704669D03*
Y706638D03*
Y708606D03*
X824249D03*
Y706638D03*
Y704669D03*
Y702701D03*
X810852Y660675D03*
Y662643D03*
Y664612D03*
Y666580D03*
X816364D03*
Y664612D03*
Y662643D03*
Y660675D03*
X810852Y651226D03*
Y653194D03*
Y655163D03*
Y657131D03*
X816364D03*
Y655163D03*
Y653194D03*
Y651226D03*
X810852Y641383D03*
Y643352D03*
Y645320D03*
Y647289D03*
X816364D03*
Y645320D03*
Y643352D03*
Y641383D03*
X810852Y681541D03*
Y683509D03*
Y685478D03*
Y687446D03*
X816364D03*
Y685478D03*
Y683509D03*
Y681541D03*
X810852Y670124D03*
Y672092D03*
Y674061D03*
Y676029D03*
X816364D03*
Y674061D03*
Y672092D03*
Y670124D03*
X730537Y468549D03*
Y466580D03*
Y464612D03*
Y462643D03*
X725025D03*
Y464612D03*
Y466580D03*
Y468549D03*
G54D41*
X800616Y501305D03*
Y503273D03*
Y505242D03*
Y507210D03*
X804553D03*
Y505242D03*
Y503273D03*
Y501305D03*
X801403Y660360D03*
Y662328D03*
Y664297D03*
Y666265D03*
X805340D03*
Y664297D03*
Y662328D03*
Y660360D03*
X801403Y651305D03*
Y653273D03*
Y655242D03*
Y657210D03*
X805340D03*
Y655242D03*
Y653273D03*
Y651305D03*
X801403Y641856D03*
Y643824D03*
Y645793D03*
Y647761D03*
X805340D03*
Y645793D03*
Y643824D03*
Y641856D03*
X801403Y670202D03*
Y672171D03*
Y674139D03*
Y676108D03*
X805340D03*
Y674139D03*
Y672171D03*
Y670202D03*
X801403Y681620D03*
Y683588D03*
Y685557D03*
Y687525D03*
X805340D03*
Y685557D03*
Y683588D03*
Y681620D03*
X800616Y491462D03*
Y493431D03*
Y495399D03*
Y497368D03*
X804553D03*
Y495399D03*
Y493431D03*
Y491462D03*
X800616Y481620D03*
Y483588D03*
Y485557D03*
Y487525D03*
X804553D03*
Y485557D03*
Y483588D03*
Y481620D03*
X800616Y462722D03*
Y464691D03*
Y466659D03*
Y468628D03*
X804553D03*
Y466659D03*
Y464691D03*
Y462722D03*
X800616Y471777D03*
Y473746D03*
Y475714D03*
Y477683D03*
X804553D03*
Y475714D03*
Y473746D03*
Y471777D03*
G54D62*
X1182677Y1019685D03*
X60630Y94488D03*
X1182677D03*
X22500Y1027500D03*
Y92500D03*
X1247500Y1027500D03*
G54D115*
G54D135*
X690472Y987244D03*
Y994331D03*
X744502Y987246D03*
Y994333D03*
X802102Y987346D03*
Y994433D03*
X856802Y987446D03*
Y994533D03*
G54D136*
X793726Y517958D03*
X791757D03*
X789789D03*
X787820D03*
Y523470D03*
X789789D03*
X791757D03*
X793726D03*
X755931Y534494D03*
X753962D03*
X751994D03*
X750025D03*
Y540006D03*
X751994D03*
X753962D03*
X755931D03*
X777191Y439612D03*
X779159D03*
X781128D03*
X783096D03*
Y434100D03*
X781128D03*
X779159D03*
X777191D03*
X766167Y439612D03*
X768135D03*
X770104D03*
X772072D03*
Y434100D03*
X770104D03*
X768135D03*
X766167D03*
X755537Y439612D03*
X757506D03*
X759474D03*
X761443D03*
Y434100D03*
X759474D03*
X757506D03*
X755537D03*
X744907Y439612D03*
X746876D03*
X748844D03*
X750813D03*
Y434100D03*
X748844D03*
X746876D03*
X744907D03*
X740576Y517958D03*
X738608D03*
X736639D03*
X734671D03*
Y523470D03*
X736639D03*
X738608D03*
X740576D03*
X793726Y451029D03*
X791757D03*
X789789D03*
X787820D03*
Y456541D03*
X789789D03*
X791757D03*
X793726D03*
X803569Y630163D03*
X801600D03*
X799631D03*
X797663D03*
Y635675D03*
X799631D03*
X801600D03*
X803569D03*
X740576Y451029D03*
X738608D03*
X736639D03*
X734671D03*
Y456541D03*
X736639D03*
X738608D03*
X740576D03*
X793726Y697092D03*
X791757D03*
X789789D03*
X787820D03*
Y702604D03*
X789789D03*
X791757D03*
X793726D03*
X744513Y706935D03*
X742545D03*
X740576D03*
X738608D03*
Y712446D03*
X740576D03*
X742545D03*
X744513D03*
X793726Y630163D03*
X791757D03*
X789789D03*
X787820D03*
Y635675D03*
X789789D03*
X791757D03*
X793726D03*
X756324Y714809D03*
X754356D03*
X752387D03*
X750419D03*
Y720320D03*
X752387D03*
X754356D03*
X756324D03*
X749238Y616383D03*
X751206D03*
X753175D03*
X755143D03*
Y610872D03*
X753175D03*
X751206D03*
X749238D03*
X821131Y520381D03*
X819163D03*
X817194D03*
X815226D03*
Y525892D03*
X817194D03*
X819163D03*
X821131D03*
X761443Y616383D03*
X763411D03*
X765380D03*
X767348D03*
Y610872D03*
X765380D03*
X763411D03*
X761443D03*
X773647Y616383D03*
X775616D03*
X777584D03*
X779553D03*
Y610872D03*
X777584D03*
X775616D03*
X773647D03*
X738608Y615990D03*
X740576D03*
X742545D03*
X744513D03*
Y610478D03*
X742545D03*
X740576D03*
X738608D03*
X770104Y714809D03*
X768135D03*
X766167D03*
X764198D03*
Y720320D03*
X766167D03*
X768135D03*
X770104D03*
X785065Y714809D03*
X783096D03*
X781128D03*
X779159D03*
Y720320D03*
X781128D03*
X783096D03*
X785065D03*
X803569Y451029D03*
X801600D03*
X799631D03*
X797663D03*
Y456541D03*
X799631D03*
X801600D03*
X803569D03*
X769317Y534494D03*
X767348D03*
X765380D03*
X763411D03*
Y540006D03*
X765380D03*
X767348D03*
X769317D03*
X783490Y534494D03*
X781521D03*
X779553D03*
X777584D03*
Y540006D03*
X779553D03*
X781521D03*
X783490D03*
G54D137*
X755852Y525832D03*
X753883D03*
X751915D03*
X749946D03*
Y529769D03*
X751915D03*
X753883D03*
X755852D03*
X766246Y447880D03*
X768214D03*
X770183D03*
X772151D03*
Y443943D03*
X770183D03*
X768214D03*
X766246D03*
X769238Y525832D03*
X767269D03*
X765301D03*
X763332D03*
Y529769D03*
X765301D03*
X767269D03*
X769238D03*
X755222Y447880D03*
X757191D03*
X759159D03*
X761128D03*
Y443943D03*
X759159D03*
X757191D03*
X755222D03*
X744592Y447880D03*
X746561D03*
X748529D03*
X750498D03*
Y443943D03*
X748529D03*
X746561D03*
X744592D03*
X756639Y705360D03*
X754671D03*
X752702D03*
X750734D03*
Y709297D03*
X752702D03*
X754671D03*
X756639D03*
X749317Y625045D03*
X751285D03*
X753254D03*
X755222D03*
Y621108D03*
X753254D03*
X751285D03*
X749317D03*
X761521Y625045D03*
X763490D03*
X765458D03*
X767427D03*
Y621108D03*
X765458D03*
X763490D03*
X761521D03*
X737899Y625045D03*
X739868D03*
X741836D03*
X743805D03*
Y621108D03*
X741836D03*
X739868D03*
X737899D03*
X773726Y625045D03*
X775694D03*
X777663D03*
X779631D03*
Y621108D03*
X777663D03*
X775694D03*
X773726D03*
X783017Y525832D03*
X781049D03*
X779080D03*
X777112D03*
Y529769D03*
X779080D03*
X781049D03*
X783017D03*
X784986Y705360D03*
X783017D03*
X781049D03*
X779080D03*
Y709297D03*
X781049D03*
X783017D03*
X784986D03*
X769631Y705360D03*
X767663D03*
X765694D03*
X763726D03*
Y709297D03*
X765694D03*
X767663D03*
X769631D03*
X777269Y447880D03*
X779238D03*
X781206D03*
X783175D03*
Y443943D03*
X781206D03*
X779238D03*
X777269D03*
G54D374*
X166602Y698524D02*
Y701476D01*
X154398Y698524D02*
Y701476D01*
X212602Y698524D02*
Y701476D01*
X200398Y698524D02*
Y701476D01*
X260102Y696024D02*
Y698976D01*
X247898Y696024D02*
Y698976D01*
X895398Y832976D02*
Y830024D01*
X907602Y832976D02*
Y830024D01*
X1161024Y1017898D02*
X1163976D01*
X1161024Y1030102D02*
X1163976D01*
X1228976Y962602D02*
X1226024D01*
X1228976Y950398D02*
X1226024D01*
X0Y0D02*
M02*
