*
*
G04 PADS Layout (Build Number 2007.45.1) generated Gerber (RS-274-X) file*
G04 PC Version=2.1*
*
%IN "ibob2_work2.pcb"*%
*
%MOIN*%
*
%FSLAX35Y35*%
*
*
*
*
G04 PC Standard Apertures*
*
*
G04 Thermal Relief Aperture macro.*
%AMTER*
1,1,$1,0,0*
1,0,$1-$2,0,0*
21,0,$3,$4,0,0,45*
21,0,$3,$4,0,0,135*
%
*
*
G04 Annular Aperture macro.*
%AMANN*
1,1,$1,0,0*
1,0,$2,0,0*
%
*
*
G04 Odd Aperture macro.*
%AMODD*
1,1,$1,0,0*
1,0,$1-0.005,0,0*
%
*
*
G04 PC Custom Aperture Macros*
*
*
*
*
*
*
G04 PC Aperture Table*
*
%ADD017R,0.02362X0.02362*%
%ADD019R,0.0374X0.0374*%
%ADD021R,0.01181X0.01181*%
%ADD029R,0.00984X0.00984*%
%ADD037R,0.05118X0.05118*%
%ADD038R,0.05315X0.05315*%
*
*
*
*
G04 PC Copper Outlines (0)*
G04 Layer Name ibob2_work2.pcb - dark (0)*
%LPD*%
*
*
G04 PC Area=Custom_Thermal*
*
G04 PC Custom Flashes*
G04 Layer Name ibob2_work2.pcb - flashes*
%LPD*%
*
*
G04 PC Circuitry*
G04 Layer Name ibob2_work2.pcb - circuitry*
%LPD*%
*
G54D17*
G01X859646Y690551D03*
X856102D03*
X859646Y511417D03*
X856102D03*
X1056571Y556693D02*
X1056374D01*
X1053028D02*
X1052831D01*
X1007480Y523130D02*
Y522933D01*
Y519587D02*
Y519390D01*
X981890Y637500D02*
Y637697D01*
Y641043D02*
Y641240D01*
X828445Y572441D02*
X828642D01*
X831988D02*
X832185D01*
X1064567Y562697D02*
Y562894D01*
Y566240D02*
Y566437D01*
X1061634Y639370D02*
X1061437D01*
X1058091D02*
X1057894D01*
X1056693Y584350D02*
Y584547D01*
Y587894D02*
Y588091D01*
X1027508Y631496D02*
X1027311D01*
X1023965D02*
X1023768D01*
X989764Y572657D02*
Y572854D01*
Y576201D02*
Y576398D01*
Y523130D02*
Y522933D01*
Y519587D02*
Y519390D01*
X1220768Y963780D02*
X1220571D01*
X1217224D02*
X1217028D01*
X1043012Y556693D02*
X1043209D01*
X1046555D02*
X1046752D01*
X1068504Y635374D02*
Y635571D01*
Y638917D02*
Y639114D01*
X981890Y599500D02*
Y599697D01*
Y603043D02*
Y603240D01*
X568602Y568504D02*
X568799D01*
X572146D02*
X572343D01*
X1025413Y564567D02*
X1025217D01*
X1021870D02*
X1021673D01*
X1060508Y631496D02*
X1060311D01*
X1056965D02*
X1056768D01*
X1011319Y625591D02*
X1011122D01*
X1007776D02*
X1007579D01*
X1013386Y523130D02*
Y522933D01*
Y519587D02*
Y519390D01*
X1050787Y622539D02*
Y622736D01*
Y626083D02*
Y626280D01*
X981890Y581500D02*
Y581697D01*
Y585043D02*
Y585240D01*
X1056693Y622697D02*
Y622894D01*
Y626240D02*
Y626437D01*
X984571Y556693D02*
X984374D01*
X981028D02*
X980831D01*
X1288091Y1010630D02*
X1287894D01*
X1284547D02*
X1284350D01*
X989068Y726562D02*
Y726365D01*
Y723019D02*
Y722822D01*
X1050787Y584350D02*
Y584547D01*
Y587894D02*
Y588091D01*
Y603539D02*
Y603736D01*
Y607083D02*
Y607280D01*
X989764Y627657D02*
Y627854D01*
Y631201D02*
Y631398D01*
X995669Y598413D02*
Y598610D01*
Y601957D02*
Y602154D01*
X1050787Y612539D02*
Y612736D01*
Y616083D02*
Y616280D01*
X1098130Y623622D02*
X1098327D01*
X1101673D02*
X1101870D01*
X995669Y580413D02*
Y580610D01*
Y583957D02*
Y584154D01*
X1039634Y639370D02*
X1039437D01*
X1036091D02*
X1035894D01*
X1038508Y631496D02*
X1038311D01*
X1034965D02*
X1034768D01*
X1032673Y564567D02*
X1032870D01*
X1036217D02*
X1036413D01*
X995669Y589413D02*
Y589610D01*
Y592957D02*
Y593154D01*
X989764Y593996D02*
Y593799D01*
Y590453D02*
Y590256D01*
X1039736Y572441D02*
X1039933D01*
X1043280D02*
X1043476D01*
X1010531Y572433D02*
X1010335D01*
X1006988D02*
X1006791D01*
X1005413Y564567D02*
X1005217D01*
X1001870D02*
X1001673D01*
X1064567Y622697D02*
Y622894D01*
Y626240D02*
Y626437D01*
Y603697D02*
Y603894D01*
Y607240D02*
Y607437D01*
X1056693Y612697D02*
Y612894D01*
Y616240D02*
Y616437D01*
X1029528Y556693D02*
X1029331D01*
X1025984D02*
X1025787D01*
X989764Y617815D02*
Y618012D01*
Y621358D02*
Y621555D01*
Y607972D02*
Y608169D01*
Y611516D02*
Y611713D01*
X1064567Y593697D02*
Y593894D01*
Y597240D02*
Y597437D01*
X1056693Y572697D02*
Y572894D01*
Y576240D02*
Y576437D01*
X1110335Y346063D02*
X1110531D01*
X1113878D02*
X1114075D01*
X1037571Y556693D02*
X1037374D01*
X1034028D02*
X1033831D01*
X981890Y590500D02*
Y590697D01*
Y594043D02*
Y594240D01*
X1120571Y346063D02*
X1120768D01*
X1124114D02*
X1124311D01*
X1064567Y612697D02*
Y612894D01*
Y616240D02*
Y616437D01*
X1079528Y385335D02*
Y385138D01*
Y381791D02*
Y381594D01*
X1038878Y268504D02*
X1038681D01*
X1035335D02*
X1035138D01*
X1098130Y639370D02*
X1098327D01*
X1101673D02*
X1101870D01*
X1258169Y963780D02*
X1257972D01*
X1254626D02*
X1254429D01*
X1009634Y639370D02*
X1009437D01*
X1006091D02*
X1005894D01*
X1008508Y631496D02*
X1008311D01*
X1004965D02*
X1004768D01*
X1064567Y582697D02*
Y582894D01*
Y586240D02*
Y586437D01*
X950295Y653150D02*
X950098D01*
X946752D02*
X946555D01*
X981890Y608500D02*
Y608697D01*
Y612043D02*
Y612240D01*
Y572500D02*
Y572697D01*
Y576043D02*
Y576240D01*
X1056693Y594193D02*
Y594390D01*
Y597736D02*
Y597933D01*
X1028634Y639370D02*
X1028437D01*
X1025091D02*
X1024894D01*
X995571Y556693D02*
X995374D01*
X992028D02*
X991831D01*
X989764Y598917D02*
Y599114D01*
Y602461D02*
Y602657D01*
Y562657D02*
Y562854D01*
Y566201D02*
Y566398D01*
X1020476Y572441D02*
X1020280D01*
X1016933D02*
X1016736D01*
X996398Y624992D02*
X996594D01*
X999941D02*
X1000138D01*
X1019634Y639370D02*
X1019437D01*
X1016091D02*
X1015894D01*
X830413Y619685D02*
X830610D01*
X833957D02*
X834154D01*
X854035D02*
X854232D01*
X857579D02*
X857776D01*
X751673D02*
X751870D01*
X755217D02*
X755413D01*
X1015571Y556693D02*
X1015374D01*
X1012028D02*
X1011831D01*
X1000634Y639370D02*
X1000437D01*
X997091D02*
X996894D01*
X1056693Y562697D02*
Y562894D01*
Y566240D02*
Y566437D01*
X999508Y631496D02*
X999311D01*
X995965D02*
X995768D01*
X995669Y607413D02*
Y607610D01*
Y610957D02*
Y611154D01*
X950295Y645276D02*
X950098D01*
X946752D02*
X946555D01*
X1001476Y572441D02*
X1001280D01*
X997933D02*
X997736D01*
X1014413Y564567D02*
X1014217D01*
X1010870D02*
X1010673D01*
X1018508Y631496D02*
X1018311D01*
X1014965D02*
X1014768D01*
X1050787Y572539D02*
Y572736D01*
Y576083D02*
Y576280D01*
X1056693Y602697D02*
Y602894D01*
Y606240D02*
Y606437D01*
X995669Y562697D02*
Y562894D01*
Y566240D02*
Y566437D01*
X1022133Y625725D02*
X1021936D01*
X1018590D02*
X1018393D01*
X1042673Y564567D02*
X1042870D01*
X1046217D02*
X1046413D01*
X1050634Y639370D02*
X1050437D01*
X1047091D02*
X1046894D01*
X989764Y581594D02*
Y581791D01*
Y585138D02*
Y585335D01*
X981890Y562500D02*
Y562697D01*
Y566043D02*
Y566240D01*
X1050787Y594193D02*
Y594390D01*
Y597736D02*
Y597933D01*
X1033366Y625984D02*
X1033169D01*
X1029823D02*
X1029626D01*
X950295Y649213D02*
X950098D01*
X946752D02*
X946555D01*
X1005571Y556693D02*
X1005374D01*
X1002028D02*
X1001831D01*
X1031427Y572424D02*
X1031230D01*
X1027883D02*
X1027686D01*
X1042133Y625725D02*
X1041936D01*
X1038590D02*
X1038393D01*
X981890Y627500D02*
Y627697D01*
Y631043D02*
Y631240D01*
X995669Y616413D02*
Y616610D01*
Y619957D02*
Y620154D01*
Y523130D02*
Y522933D01*
Y519587D02*
Y519390D01*
X981890Y617500D02*
Y617697D01*
Y621043D02*
Y621240D01*
X1049508Y631496D02*
X1049311D01*
X1045965D02*
X1045768D01*
X991634Y639370D02*
X991437D01*
X988091D02*
X987894D01*
X1098130Y627559D02*
X1098327D01*
X1101673D02*
X1101870D01*
X1098130Y643307D02*
X1098327D01*
X1101673D02*
X1101870D01*
X1001575Y523130D02*
Y522933D01*
Y519587D02*
Y519390D01*
X983858Y523130D02*
Y522933D01*
Y519587D02*
Y519390D01*
X1098130Y635433D02*
X1098327D01*
X1101673D02*
X1101870D01*
X1019291Y523130D02*
Y522933D01*
Y519587D02*
Y519390D01*
X977953Y523130D02*
Y522933D01*
Y519587D02*
Y519390D01*
X1098130Y619685D02*
X1098327D01*
X1101673D02*
X1101870D01*
X605906Y663091D02*
Y663287D01*
Y666634D02*
Y666831D01*
X761727Y1026057D02*
X761924D01*
X765270D02*
X765467D01*
X744876Y1026097D02*
X744680D01*
X741333D02*
X741136D01*
X592421Y635433D02*
X592224D01*
X588878D02*
X588681D01*
X592421Y627559D02*
X592224D01*
X588878D02*
X588681D01*
X645276Y663091D02*
Y663287D01*
Y666634D02*
Y666831D01*
X813903Y1027187D02*
Y1027384D01*
Y1030731D02*
Y1030928D01*
X633465Y663091D02*
Y663287D01*
Y666634D02*
Y666831D01*
X822673Y1026457D02*
X822476D01*
X819130D02*
X818933D01*
X768380Y1026018D02*
X768577D01*
X771924D02*
X772120D01*
X797273Y1026157D02*
X797076D01*
X793730D02*
X793533D01*
X641339Y663091D02*
Y663287D01*
Y666634D02*
Y666831D01*
X649213Y663091D02*
Y663287D01*
Y666634D02*
Y666831D01*
X657087Y663091D02*
Y663287D01*
Y666634D02*
Y666831D01*
X653150Y663091D02*
Y663287D01*
Y666634D02*
Y666831D01*
X592421Y631496D02*
X592224D01*
X588878D02*
X588681D01*
X592421Y639370D02*
X592224D01*
X588878D02*
X588681D01*
X786073Y1026057D02*
X785876D01*
X782530D02*
X782333D01*
X757199Y1026097D02*
X757002D01*
X753656D02*
X753459D01*
X809073Y1026057D02*
X808876D01*
X805530D02*
X805333D01*
X732987Y1026097D02*
X733183D01*
X736530D02*
X736727D01*
X629528Y663091D02*
Y663287D01*
Y666634D02*
Y666831D01*
X621654Y663091D02*
Y663287D01*
Y666634D02*
Y666831D01*
X625591Y663091D02*
Y663287D01*
Y666634D02*
Y666831D01*
X680709Y663091D02*
Y663287D01*
Y666634D02*
Y666831D01*
X925803Y1026987D02*
Y1027184D01*
Y1030531D02*
Y1030728D01*
X934073Y1026157D02*
X933876D01*
X930530D02*
X930333D01*
X909173D02*
X908976D01*
X905630D02*
X905433D01*
X664961Y663091D02*
Y663287D01*
Y666634D02*
Y666831D01*
X704331Y663091D02*
Y663287D01*
Y666634D02*
Y666831D01*
X696457Y663091D02*
Y663287D01*
Y666634D02*
Y666831D01*
X700394Y663091D02*
Y663287D01*
Y666634D02*
Y666831D01*
X733563Y637402D02*
X733760D01*
X737106D02*
X737303D01*
X727953Y663091D02*
Y663287D01*
Y666634D02*
Y666831D01*
X720079Y663091D02*
Y663287D01*
Y666634D02*
Y666831D01*
X716142Y663091D02*
Y663287D01*
Y666634D02*
Y666831D01*
X692520Y663091D02*
Y663287D01*
Y666634D02*
Y666831D01*
X733563Y633465D02*
X733760D01*
X737106D02*
X737303D01*
X920973Y1026157D02*
X920776D01*
X917430D02*
X917233D01*
X897473D02*
X897276D01*
X893930D02*
X893733D01*
X661024Y663189D03*
Y666732D03*
X946496Y732992D03*
X950039D03*
X976496Y762992D03*
X980039D03*
X1064567Y572697D02*
Y572894D01*
Y576240D02*
Y576437D01*
X1056693Y519390D02*
Y519587D01*
Y522933D02*
Y523130D01*
X946398Y722992D02*
X946594D01*
X949941D02*
X950138D01*
X1067571Y556693D02*
X1067374D01*
X1064028D02*
X1063831D01*
X1246816Y466525D02*
X1246619D01*
X1243273D02*
X1243076D01*
X1034703Y999786D03*
Y1003329D03*
X1029703Y1009986D03*
Y1013529D03*
X1024703Y999786D03*
Y1003329D03*
X1014701Y999796D03*
Y1003339D03*
X1009703Y1009986D03*
Y1013529D03*
X1241240Y429320D03*
X1244783D03*
X1218881Y242323D03*
Y245866D03*
X1211555Y242323D03*
Y245866D03*
X951772Y429134D03*
X955315D03*
X972210Y438068D03*
Y441612D03*
X980124Y438068D03*
Y441612D03*
X955315Y425197D03*
X951772D03*
X751772Y580315D03*
X755315D03*
X334709Y632598D02*
Y632795D01*
Y636142D02*
Y636339D01*
X331496Y494587D02*
Y494783D01*
Y498130D02*
Y498327D01*
X684646Y663091D02*
Y663287D01*
Y666634D02*
Y666831D01*
X668898Y663091D02*
Y663287D01*
Y666634D02*
Y666831D01*
X804579Y507480D02*
X804382D01*
X801035D02*
X800839D01*
X737894Y550787D02*
X738091D01*
X741437D02*
X741634D01*
X751673Y588189D02*
X751870D01*
X755217D02*
X755413D01*
X856004Y507480D02*
X856201D01*
X859547D02*
X859744D01*
X979152Y377365D02*
X978955D01*
X975609D02*
X975412D01*
X964152D02*
X963955D01*
X960609D02*
X960412D01*
X996152Y435865D02*
X995955D01*
X992609D02*
X992412D01*
X997282Y420494D02*
Y420691D01*
Y424038D02*
Y424235D01*
Y390494D02*
Y390691D01*
Y394038D02*
Y394235D01*
X994152Y377365D02*
X993955D01*
X990609D02*
X990412D01*
X997282Y405494D02*
Y405691D01*
Y409038D02*
Y409235D01*
X948152Y435865D02*
X947955D01*
X944609D02*
X944412D01*
X942282Y420494D02*
Y420691D01*
Y424038D02*
Y424235D01*
Y390494D02*
Y390691D01*
Y394038D02*
Y394235D01*
X1034901Y1013198D02*
Y1013394D01*
Y1016741D02*
Y1016938D01*
X1044501Y1013298D02*
Y1013494D01*
Y1016841D02*
Y1017038D01*
X1061566Y932119D02*
X1061763D01*
X1065109D02*
X1065306D01*
X1061566Y942219D02*
X1061763D01*
X1065109D02*
X1065306D01*
X1024141Y882095D02*
X1023944D01*
X1020598D02*
X1020401D01*
X1041956Y899713D02*
Y899516D01*
Y896170D02*
Y895973D01*
Y909556D02*
Y909359D01*
Y906012D02*
Y905816D01*
Y919398D02*
Y919201D01*
Y915855D02*
Y915658D01*
Y939083D02*
Y938886D01*
Y935540D02*
Y935343D01*
X1002586Y939083D02*
Y938886D01*
Y935540D02*
Y935343D01*
Y919398D02*
Y919201D01*
Y915855D02*
Y915658D01*
Y909556D02*
Y909359D01*
Y906012D02*
Y905816D01*
Y899713D02*
Y899516D01*
Y896170D02*
Y895973D01*
Y876288D02*
Y876485D01*
Y879831D02*
Y880028D01*
X1020401Y874221D02*
X1020598D01*
X1023944D02*
X1024141D01*
X1198152Y417365D02*
X1197955D01*
X1194609D02*
X1194412D01*
X1198152Y407365D02*
X1197955D01*
X1194609D02*
X1194412D01*
X1198152Y523365D02*
X1197955D01*
X1194609D02*
X1194412D01*
X1198152Y547365D02*
X1197955D01*
X1194609D02*
X1194412D01*
X1198152Y539365D02*
X1197955D01*
X1194609D02*
X1194412D01*
X1198152Y437365D02*
X1197955D01*
X1194609D02*
X1194412D01*
X1198152Y427365D02*
X1197955D01*
X1194609D02*
X1194412D01*
X1198152Y531365D02*
X1197955D01*
X1194609D02*
X1194412D01*
X1034136Y925714D02*
Y925911D01*
Y929257D02*
Y929454D01*
X1010136Y925714D02*
Y925911D01*
Y929257D02*
Y929454D01*
X1198152Y515365D02*
X1197955D01*
X1194609D02*
X1194412D01*
X1198152Y507365D02*
X1197955D01*
X1194609D02*
X1194412D01*
X1224508Y750394D02*
X1224705D01*
X1228051D02*
X1228248D01*
X1224508Y743307D02*
X1224705D01*
X1228051D02*
X1228248D01*
X1198152Y397365D02*
X1197955D01*
X1194609D02*
X1194412D01*
X1198152Y499365D02*
X1197955D01*
X1194609D02*
X1194412D01*
X1198152Y491365D02*
X1197955D01*
X1194609D02*
X1194412D01*
X1197995Y261909D02*
Y262106D01*
Y265453D02*
Y265650D01*
X1002586Y925501D02*
Y925697D01*
Y929044D02*
Y929241D01*
X965697Y157123D02*
Y157320D01*
Y160667D02*
Y160864D01*
X953493Y157123D02*
Y157320D01*
Y160667D02*
Y160864D01*
X717636Y157406D02*
Y157602D01*
Y160949D02*
Y161146D01*
X705513Y157406D02*
Y157602D01*
Y160949D02*
Y161146D01*
X613218Y157189D02*
Y157386D01*
Y160732D02*
Y160929D01*
X600974Y157189D02*
Y157386D01*
Y160732D02*
Y160929D01*
X365172Y157184D02*
Y157381D01*
Y160727D02*
Y160924D01*
X352967Y157184D02*
Y157381D01*
Y160727D02*
Y160924D01*
X592028Y560630D02*
X591831D01*
X588484D02*
X588287D01*
X592028Y584252D02*
X591831D01*
X588484D02*
X588287D01*
X592028Y600000D02*
X591831D01*
X588484D02*
X588287D01*
X592028Y592126D02*
X591831D01*
X588484D02*
X588287D01*
X592028Y568504D02*
X591831D01*
X588484D02*
X588287D01*
X353051Y213780D02*
X352854D01*
X349508D02*
X349311D01*
X619783Y572441D02*
X619980D01*
X623327D02*
X623524D01*
X592028Y576378D02*
X591831D01*
X588484D02*
X588287D01*
X592028Y553150D02*
X591831D01*
X588484D02*
X588287D01*
X592028Y611811D02*
X591831D01*
X588484D02*
X588287D01*
X856004Y686614D02*
X856201D01*
X859547D02*
X859744D01*
X733957Y617717D02*
X734154D01*
X737500D02*
X737697D01*
X733957Y621654D02*
X734154D01*
X737500D02*
X737697D01*
X804626Y686220D02*
X804429D01*
X801083D02*
X800886D01*
X1044503Y999786D03*
Y1003329D03*
X143831Y371557D03*
X147375D03*
X1019703Y1009986D03*
Y1013529D03*
X227303Y195486D03*
Y199029D03*
X150175Y357357D03*
X146631D03*
X334055Y545669D03*
X330512D03*
X334055Y540945D03*
X330512D03*
X366142Y723031D03*
Y719488D03*
X358661Y719094D03*
Y715551D03*
X741929Y556693D03*
X745472D03*
X741919Y540945D03*
X745462D03*
X686614Y497835D03*
Y501378D03*
X751772Y572441D03*
X755315D03*
X1039701Y1009796D03*
Y1013339D03*
X976496Y722992D03*
X980039D03*
X854035Y572441D02*
X854232D01*
X857579D02*
X857776D01*
X572343Y576378D02*
X572146D01*
X568799D02*
X568602D01*
X572343Y560630D02*
X572146D01*
X568799D02*
X568602D01*
X572343Y544882D02*
X572146D01*
X568799D02*
X568602D01*
X572343Y521260D02*
X572146D01*
X568799D02*
X568602D01*
X647343Y572441D02*
X647539D01*
X650886D02*
X651083D01*
X598031Y663091D02*
Y663287D01*
Y666634D02*
Y666831D01*
X743799Y564567D02*
X743996D01*
X747343D02*
X747539D01*
X353151Y208380D02*
X352954D01*
X349608D02*
X349411D01*
X609843Y663091D02*
Y663287D01*
Y666634D02*
Y666831D01*
X751673Y525197D02*
X751870D01*
X755217D02*
X755413D01*
X751673Y533071D02*
X751870D01*
X755217D02*
X755413D01*
X568602Y513386D02*
X568799D01*
X572146D02*
X572343D01*
X385531Y572441D02*
X385728D01*
X389075D02*
X389272D01*
Y517323D02*
X389075D01*
X385728D02*
X385531D01*
X568602Y600000D02*
X568799D01*
X572146D02*
X572343D01*
X389272Y493701D02*
X389075D01*
X385728D02*
X385531D01*
X389272Y468307D02*
X389075D01*
X385728D02*
X385531D01*
X751673Y596063D02*
X751870D01*
X755217D02*
X755413D01*
X651083Y611811D02*
X650886D01*
X647539D02*
X647343D01*
X658957D02*
X658760D01*
X655413D02*
X655217D01*
X674705D02*
X674508D01*
X671161D02*
X670965D01*
X682579D02*
X682382D01*
X679035D02*
X678839D01*
X751673Y603937D02*
X751870D01*
X755217D02*
X755413D01*
X666831Y611811D02*
X666634D01*
X663287D02*
X663091D01*
X651083Y580315D02*
X650886D01*
X647539D02*
X647343D01*
X674705Y596063D02*
X674508D01*
X671161D02*
X670965D01*
X643209Y588189D02*
X643012D01*
X639665D02*
X639469D01*
X558563Y607874D02*
X558366D01*
X555020D02*
X554823D01*
X682579Y588189D02*
X682382D01*
X679035D02*
X678839D01*
X666831Y603937D02*
X666634D01*
X663287D02*
X663091D01*
X651083Y588189D02*
X650886D01*
X647539D02*
X647343D01*
X658957Y603937D02*
X658760D01*
X655413D02*
X655217D01*
X558563Y584252D02*
X558366D01*
X555020D02*
X554823D01*
X651083Y596063D02*
X650886D01*
X647539D02*
X647343D01*
X682579D02*
X682382D01*
X679035D02*
X678839D01*
X643209Y580315D02*
X643012D01*
X639665D02*
X639469D01*
X674705Y603937D02*
X674508D01*
X671161D02*
X670965D01*
X588287Y607874D02*
X588484D01*
X591831D02*
X592028D01*
X674705Y580315D02*
X674508D01*
X671161D02*
X670965D01*
X596063Y485925D02*
Y486122D01*
Y489469D02*
Y489665D01*
X651181Y485925D02*
Y486122D01*
Y489469D02*
Y489665D01*
X690453Y611811D02*
X690256D01*
X686909D02*
X686713D01*
X682579Y580315D02*
X682382D01*
X679035D02*
X678839D01*
X568602Y537008D02*
X568799D01*
X572146D02*
X572343D01*
X613780Y663091D02*
Y663287D01*
Y666634D02*
Y666831D01*
X241003Y194829D03*
Y191286D03*
X150075Y563057D03*
X146531D03*
X141831Y577757D03*
X145375D03*
X255512Y786909D02*
Y786713D01*
Y783366D02*
Y783169D01*
X568602Y592126D02*
X568799D01*
X572146D02*
X572343D01*
X475984Y597933D02*
Y597736D01*
Y594390D02*
Y594193D01*
Y639272D02*
Y639075D01*
Y635728D02*
Y635531D01*
X210138Y806693D02*
X209941D01*
X206594D02*
X206398D01*
X231890Y786909D02*
Y786713D01*
Y783366D02*
Y783169D01*
X279134Y786909D02*
Y786713D01*
Y783366D02*
Y783169D01*
X207831Y383357D03*
X211375D03*
X659154Y596063D02*
X659350D01*
X662697D02*
X662894D01*
X220079Y783169D02*
Y783366D01*
Y786713D02*
Y786909D01*
X243701Y783169D02*
Y783366D01*
Y786713D02*
Y786909D01*
X267323Y783169D02*
Y783366D01*
Y786713D02*
Y786909D01*
X290945Y783169D02*
Y783366D01*
Y786713D02*
Y786909D01*
X340631Y976957D03*
X344175D03*
X210875Y369857D03*
X207331D03*
X949152Y377365D02*
X948955D01*
X945609D02*
X945412D01*
X733563Y629528D02*
X733760D01*
X737106D02*
X737303D01*
X857073Y1026057D02*
X856876D01*
X853530D02*
X853333D01*
X389272Y540945D02*
X389075D01*
X385728D02*
X385531D01*
X712205Y663091D02*
Y663287D01*
Y666634D02*
Y666831D01*
X881173Y1026157D02*
X880976D01*
X877630D02*
X877433D01*
X845073Y1026057D02*
X844876D01*
X841530D02*
X841333D01*
X873103Y1027387D02*
Y1027584D01*
Y1030931D02*
Y1031128D01*
X868073Y1026057D02*
X867876D01*
X864530D02*
X864333D01*
X1198152Y563365D02*
X1197955D01*
X1194609D02*
X1194412D01*
X1198152Y555365D02*
X1197955D01*
X1194609D02*
X1194412D01*
X1012245Y934636D02*
X1012048D01*
X1008702D02*
X1008505D01*
X1036950Y934536D02*
X1036754D01*
X1033407D02*
X1033210D01*
X1002586Y886130D02*
Y886327D01*
Y889674D02*
Y889871D01*
X1041956Y925501D02*
Y925697D01*
Y929044D02*
Y929241D01*
Y886130D02*
Y886327D01*
Y889674D02*
Y889871D01*
X1035952Y874221D02*
X1035755D01*
X1032409D02*
X1032212D01*
X1012330D02*
X1012133D01*
X1008787D02*
X1008590D01*
X1241325Y261909D02*
Y262106D01*
Y265453D02*
Y265650D01*
X1024701Y1013198D02*
Y1013394D01*
Y1016741D02*
Y1016938D01*
X1198152Y483365D02*
X1197955D01*
X1194609D02*
X1194412D01*
X1198152Y475365D02*
X1197955D01*
X1194609D02*
X1194412D01*
X1198152Y467365D02*
X1197955D01*
X1194609D02*
X1194412D01*
X1198152Y457365D02*
X1197955D01*
X1194609D02*
X1194412D01*
X1198152Y447365D02*
X1197955D01*
X1194609D02*
X1194412D01*
X1014801Y1013198D02*
Y1013394D01*
Y1016741D02*
Y1016938D01*
X389272Y423031D02*
X389075D01*
X385728D02*
X385531D01*
X568602Y607874D02*
X568799D01*
X572146D02*
X572343D01*
X568602Y529134D02*
X568799D01*
X572146D02*
X572343D01*
X389272Y438780D02*
X389075D01*
X385728D02*
X385531D01*
X568602Y584252D02*
X568799D01*
X572146D02*
X572343D01*
X389272Y505512D02*
X389075D01*
X385728D02*
X385531D01*
X389272Y479921D02*
X389075D01*
X385728D02*
X385531D01*
X389272Y529134D02*
X389075D01*
X385728D02*
X385531D01*
X389272Y454528D02*
X389075D01*
X385728D02*
X385531D01*
X389272Y552756D02*
X389075D01*
X385728D02*
X385531D01*
X389272Y562598D02*
X389075D01*
X385728D02*
X385531D01*
X568602Y552756D02*
X568799D01*
X572146D02*
X572343D01*
X751673Y611811D02*
X751870D01*
X755217D02*
X755413D01*
X733957Y641339D02*
X734154D01*
X737500D02*
X737697D01*
X1041956Y880028D02*
Y879831D01*
Y876485D02*
Y876288D01*
X1100436Y1022314D02*
Y1022511D01*
Y1025857D02*
Y1026054D01*
X1106736Y1022314D02*
Y1022511D01*
Y1025857D02*
Y1026054D01*
X942282Y405494D02*
Y405691D01*
Y409038D02*
Y409235D01*
X658957Y580315D02*
X658760D01*
X655413D02*
X655217D01*
X643209Y596063D02*
X643012D01*
X639665D02*
X639469D01*
X651083Y603937D02*
X650886D01*
X647539D02*
X647343D01*
X801009Y511417D03*
X804552D03*
X800984Y690551D03*
X804528D03*
X751642Y517323D02*
X751839D01*
X755185D02*
X755382D01*
X558563Y560630D02*
X558366D01*
X555020D02*
X554823D01*
X666831Y580315D02*
X666634D01*
X663287D02*
X663091D01*
X658957Y572441D02*
X658760D01*
X655413D02*
X655217D01*
X666831D02*
X666634D01*
X663287D02*
X663091D01*
X674705D02*
X674508D01*
X671161D02*
X670965D01*
X698425Y489665D02*
Y489469D01*
Y486122D02*
Y485925D01*
X658957Y588189D02*
X658760D01*
X655413D02*
X655217D01*
X666831D02*
X666634D01*
X663287D02*
X663091D01*
X674705D02*
X674508D01*
X671161D02*
X670965D01*
X611811Y485925D02*
Y486122D01*
Y489469D02*
Y489665D01*
X737795Y485925D02*
Y486122D01*
Y489469D02*
Y489665D01*
X674803Y485925D02*
Y486122D01*
Y489469D02*
Y489665D01*
X643307Y485925D02*
Y486122D01*
Y489469D02*
Y489665D01*
X580315Y485925D02*
Y486122D01*
Y489469D02*
Y489665D01*
X672835Y663189D03*
Y666732D03*
X676772Y663189D03*
Y666732D03*
X907683Y427611D03*
Y424068D03*
X911954D03*
Y427611D03*
G54D19*
X600492Y680709D02*
X600295D01*
X600492Y674409D02*
X600295D01*
X606791Y680709D02*
X606594D01*
X606791Y674409D02*
X606594D01*
X631791D02*
X631988D01*
X631791Y680709D02*
X631988D01*
X613091D02*
X612894D01*
X613091Y674409D02*
X612894D01*
X625689Y680709D02*
X625492D01*
X625689Y674409D02*
X625492D01*
X619390Y680709D02*
X619193D01*
X619390Y674409D02*
X619193D01*
X576476Y652756D02*
X576280D01*
X576476Y646457D02*
X576280D01*
X638091Y674409D02*
X638287D01*
X638091Y680709D02*
X638287D01*
X650886D02*
X650689D01*
X650886Y674409D02*
X650689D01*
X663484Y680709D02*
X663287D01*
X663484Y674409D02*
X663287D01*
X644587Y680709D02*
X644390D01*
X644587Y674409D02*
X644390D01*
X656988D02*
X657185D01*
X656988Y680709D02*
X657185D01*
X682382D02*
X682185D01*
X682382Y674409D02*
X682185D01*
X676083Y680709D02*
X675886D01*
X676083Y674409D02*
X675886D01*
X585827Y619783D02*
Y619587D01*
X592126Y619783D02*
Y619587D01*
X688681Y680709D02*
X688484D01*
X688681Y674409D02*
X688484D01*
X669587D02*
X669783D01*
X669587Y680709D02*
X669783D01*
X701280D02*
X701083D01*
X701280Y674409D02*
X701083D01*
X713878Y680709D02*
X713681D01*
X713878Y674409D02*
X713681D01*
X707579Y680709D02*
X707382D01*
X707579Y674409D02*
X707382D01*
X726280D02*
X726476D01*
X726280Y680709D02*
X726476D01*
X582776Y653150D02*
X582579D01*
X582776Y646850D02*
X582579D01*
X732776Y680709D02*
X732579D01*
X732776Y674409D02*
X732579D01*
X739075Y680709D02*
X738878D01*
X739075Y674409D02*
X738878D01*
X720177Y680709D02*
X719980D01*
X720177Y674409D02*
X719980D01*
X694783D02*
X694980D01*
X694783Y680709D02*
X694980D01*
X746457Y644980D02*
Y644783D01*
X752756Y644980D02*
Y644783D01*
Y632185D02*
Y632382D01*
X746457Y632185D02*
Y632382D01*
X752756Y625886D02*
Y626083D01*
X746457Y625886D02*
Y626083D01*
X752756Y638484D02*
Y638681D01*
X746457Y638484D02*
Y638681D01*
X591634Y646850D02*
X591831D01*
X591634Y653150D02*
X591831D01*
X593996Y674409D02*
X594193D01*
X593996Y680709D02*
X594193D01*
X587894D02*
X587697D01*
X587894Y674409D02*
X587697D01*
G54D21*
X822953Y549606D02*
Y550394D01*
X820984Y549606D02*
Y550394D01*
X819016Y549606D02*
Y550394D01*
X817047Y549606D02*
Y550394D01*
Y553543D02*
Y554331D01*
X819016Y553543D02*
Y554331D01*
X820984Y553543D02*
Y554331D01*
X822953Y553543D02*
Y554331D01*
X833346Y472441D02*
Y471654D01*
X835315Y472441D02*
Y471654D01*
X837283Y472441D02*
Y471654D01*
X839252Y472441D02*
Y471654D01*
Y468504D02*
Y467717D01*
X837283Y468504D02*
Y467717D01*
X835315Y468504D02*
Y467717D01*
X833346Y468504D02*
Y467717D01*
X836339Y549606D02*
Y550394D01*
X834370Y549606D02*
Y550394D01*
X832402Y549606D02*
Y550394D01*
X830433Y549606D02*
Y550394D01*
Y553543D02*
Y554331D01*
X832402Y553543D02*
Y554331D01*
X834370Y553543D02*
Y554331D01*
X836339Y553543D02*
Y554331D01*
X822323Y472441D02*
Y471654D01*
X824291Y472441D02*
Y471654D01*
X826260Y472441D02*
Y471654D01*
X828228Y472441D02*
Y471654D01*
Y468504D02*
Y467717D01*
X826260Y468504D02*
Y467717D01*
X824291Y468504D02*
Y467717D01*
X822323Y468504D02*
Y467717D01*
X811693Y472441D02*
Y471654D01*
X813661Y472441D02*
Y471654D01*
X815630Y472441D02*
Y471654D01*
X817598Y472441D02*
Y471654D01*
Y468504D02*
Y467717D01*
X815630Y468504D02*
Y467717D01*
X813661Y468504D02*
Y467717D01*
X811693Y468504D02*
Y467717D01*
X867323Y525472D02*
X868110D01*
X867323Y527441D02*
X868110D01*
X867323Y529409D02*
X868110D01*
X867323Y531378D02*
X868110D01*
X871260D02*
X872047D01*
X871260Y529409D02*
X872047D01*
X871260Y527441D02*
X872047D01*
X871260Y525472D02*
X872047D01*
X868110Y684528D02*
X868898D01*
X868110Y686496D02*
X868898D01*
X868110Y688465D02*
X868898D01*
X868110Y690433D02*
X868898D01*
X872047D02*
X872835D01*
X872047Y688465D02*
X872835D01*
X872047Y686496D02*
X872835D01*
X872047Y684528D02*
X872835D01*
X868110Y675472D02*
X868898D01*
X868110Y677441D02*
X868898D01*
X868110Y679409D02*
X868898D01*
X868110Y681378D02*
X868898D01*
X872047D02*
X872835D01*
X872047Y679409D02*
X872835D01*
X872047Y677441D02*
X872835D01*
X872047Y675472D02*
X872835D01*
X823740Y729134D02*
Y729921D01*
X821772Y729134D02*
Y729921D01*
X819803Y729134D02*
Y729921D01*
X817835Y729134D02*
Y729921D01*
Y733071D02*
Y733858D01*
X819803Y733071D02*
Y733858D01*
X821772Y733071D02*
Y733858D01*
X823740Y733071D02*
Y733858D01*
X816417Y649606D02*
Y648819D01*
X818386Y649606D02*
Y648819D01*
X820354Y649606D02*
Y648819D01*
X822323Y649606D02*
Y648819D01*
Y645669D02*
Y644882D01*
X820354Y645669D02*
Y644882D01*
X818386Y645669D02*
Y644882D01*
X816417Y645669D02*
Y644882D01*
X828622Y649606D02*
Y648819D01*
X830591Y649606D02*
Y648819D01*
X832559Y649606D02*
Y648819D01*
X834528Y649606D02*
Y648819D01*
Y645669D02*
Y644882D01*
X832559Y645669D02*
Y644882D01*
X830591Y645669D02*
Y644882D01*
X828622Y645669D02*
Y644882D01*
X868110Y665630D02*
X868898D01*
X868110Y667598D02*
X868898D01*
X868110Y669567D02*
X868898D01*
X868110Y671535D02*
X868898D01*
X872047D02*
X872835D01*
X872047Y669567D02*
X872835D01*
X872047Y667598D02*
X872835D01*
X872047Y665630D02*
X872835D01*
X840827Y649606D02*
Y648819D01*
X842795Y649606D02*
Y648819D01*
X844764Y649606D02*
Y648819D01*
X846732Y649606D02*
Y648819D01*
Y645669D02*
Y644882D01*
X844764Y645669D02*
Y644882D01*
X842795Y645669D02*
Y644882D01*
X840827Y645669D02*
Y644882D01*
X805000Y649606D02*
Y648819D01*
X806969Y649606D02*
Y648819D01*
X808937Y649606D02*
Y648819D01*
X810906Y649606D02*
Y648819D01*
Y645669D02*
Y644882D01*
X808937Y645669D02*
Y644882D01*
X806969Y645669D02*
Y644882D01*
X805000Y645669D02*
Y644882D01*
X868110Y694370D02*
X868898D01*
X868110Y696339D02*
X868898D01*
X868110Y698307D02*
X868898D01*
X868110Y700276D02*
X868898D01*
X872047D02*
X872835D01*
X872047Y698307D02*
X872835D01*
X872047Y696339D02*
X872835D01*
X872047Y694370D02*
X872835D01*
X850118Y549606D02*
Y550394D01*
X848150Y549606D02*
Y550394D01*
X846181Y549606D02*
Y550394D01*
X844213Y549606D02*
Y550394D01*
Y553543D02*
Y554331D01*
X846181Y553543D02*
Y554331D01*
X848150Y553543D02*
Y554331D01*
X850118Y553543D02*
Y554331D01*
X852087Y729134D02*
Y729921D01*
X850118Y729134D02*
Y729921D01*
X848150Y729134D02*
Y729921D01*
X846181Y729134D02*
Y729921D01*
Y733071D02*
Y733858D01*
X848150Y733071D02*
Y733858D01*
X850118Y733071D02*
Y733858D01*
X852087Y733071D02*
Y733858D01*
X836732Y729134D02*
Y729921D01*
X834764Y729134D02*
Y729921D01*
X832795Y729134D02*
Y729921D01*
X830827Y729134D02*
Y729921D01*
Y733071D02*
Y733858D01*
X832795Y733071D02*
Y733858D01*
X834764Y733071D02*
Y733858D01*
X836732Y733071D02*
Y733858D01*
X868110Y705787D02*
X868898D01*
X868110Y707756D02*
X868898D01*
X868110Y709724D02*
X868898D01*
X868110Y711693D02*
X868898D01*
X872047D02*
X872835D01*
X872047Y709724D02*
X872835D01*
X872047Y707756D02*
X872835D01*
X872047Y705787D02*
X872835D01*
X867323Y515630D02*
X868110D01*
X867323Y517598D02*
X868110D01*
X867323Y519567D02*
X868110D01*
X867323Y521535D02*
X868110D01*
X871260D02*
X872047D01*
X871260Y519567D02*
X872047D01*
X871260Y517598D02*
X872047D01*
X871260Y515630D02*
X872047D01*
X867323Y505787D02*
X868110D01*
X867323Y507756D02*
X868110D01*
X867323Y509724D02*
X868110D01*
X867323Y511693D02*
X868110D01*
X871260D02*
X872047D01*
X871260Y509724D02*
X872047D01*
X871260Y507756D02*
X872047D01*
X871260Y505787D02*
X872047D01*
X867323Y486890D02*
X868110D01*
X867323Y488858D02*
X868110D01*
X867323Y490827D02*
X868110D01*
X867323Y492795D02*
X868110D01*
X871260D02*
X872047D01*
X871260Y490827D02*
X872047D01*
X871260Y488858D02*
X872047D01*
X871260Y486890D02*
X872047D01*
X867323Y495945D02*
X868110D01*
X867323Y497913D02*
X868110D01*
X867323Y499882D02*
X868110D01*
X867323Y501850D02*
X868110D01*
X871260D02*
X872047D01*
X871260Y499882D02*
X872047D01*
X871260Y497913D02*
X872047D01*
X871260Y495945D02*
X872047D01*
X844370Y472441D02*
Y471654D01*
X846339Y472441D02*
Y471654D01*
X848307Y472441D02*
Y471654D01*
X850276Y472441D02*
Y471654D01*
Y468504D02*
Y467717D01*
X848307Y468504D02*
Y467717D01*
X846339Y468504D02*
Y467717D01*
X844370Y468504D02*
Y467717D01*
G54D29*
X860827Y541240D02*
Y543012D01*
X858858Y541240D02*
Y543012D01*
X856890Y541240D02*
Y543012D01*
X854921Y541240D02*
Y543012D01*
Y546752D02*
Y548524D01*
X856890Y546752D02*
Y548524D01*
X858858Y546752D02*
Y548524D01*
X860827Y546752D02*
Y548524D01*
X875886Y526181D02*
X877657D01*
X875886Y528150D02*
X877657D01*
X875886Y530118D02*
X877657D01*
X875886Y532087D02*
X877657D01*
X881398D02*
X883169D01*
X881398Y530118D02*
X883169D01*
X881398Y528150D02*
X883169D01*
X881398Y526181D02*
X883169D01*
X875886Y516339D02*
X877657D01*
X875886Y518307D02*
X877657D01*
X875886Y520276D02*
X877657D01*
X875886Y522244D02*
X877657D01*
X881398D02*
X883169D01*
X881398Y520276D02*
X883169D01*
X881398Y518307D02*
X883169D01*
X881398Y516339D02*
X883169D01*
X875886Y506496D02*
X877657D01*
X875886Y508465D02*
X877657D01*
X875886Y510433D02*
X877657D01*
X875886Y512402D02*
X877657D01*
X881398D02*
X883169D01*
X881398Y510433D02*
X883169D01*
X881398Y508465D02*
X883169D01*
X881398Y506496D02*
X883169D01*
X823031Y557776D02*
Y559547D01*
X821063Y557776D02*
Y559547D01*
X819094Y557776D02*
Y559547D01*
X817126Y557776D02*
Y559547D01*
Y563287D02*
Y565059D01*
X819094Y563287D02*
Y565059D01*
X821063Y563287D02*
Y565059D01*
X823031Y563287D02*
Y565059D01*
X875886Y496654D02*
X877657D01*
X875886Y498622D02*
X877657D01*
X875886Y500591D02*
X877657D01*
X875886Y502559D02*
X877657D01*
X881398D02*
X883169D01*
X881398Y500591D02*
X883169D01*
X881398Y498622D02*
X883169D01*
X881398Y496654D02*
X883169D01*
X875886Y486811D02*
X877657D01*
X875886Y488780D02*
X877657D01*
X875886Y490748D02*
X877657D01*
X875886Y492717D02*
X877657D01*
X881398D02*
X883169D01*
X881398Y490748D02*
X883169D01*
X881398Y488780D02*
X883169D01*
X881398Y486811D02*
X883169D01*
X844291Y464665D02*
Y462894D01*
X846260Y464665D02*
Y462894D01*
X848228Y464665D02*
Y462894D01*
X850197Y464665D02*
Y462894D01*
Y459154D02*
Y457382D01*
X848228Y459154D02*
Y457382D01*
X846260Y459154D02*
Y457382D01*
X844291Y459154D02*
Y457382D01*
X833268Y464665D02*
Y462894D01*
X835236Y464665D02*
Y462894D01*
X837205Y464665D02*
Y462894D01*
X839173Y464665D02*
Y462894D01*
Y459154D02*
Y457382D01*
X837205Y459154D02*
Y457382D01*
X835236Y459154D02*
Y457382D01*
X833268Y459154D02*
Y457382D01*
X822638Y464665D02*
Y462894D01*
X824606Y464665D02*
Y462894D01*
X826575Y464665D02*
Y462894D01*
X828543Y464665D02*
Y462894D01*
Y459154D02*
Y457382D01*
X826575Y459154D02*
Y457382D01*
X824606Y459154D02*
Y457382D01*
X822638Y459154D02*
Y457382D01*
X812008Y464665D02*
Y462894D01*
X813976Y464665D02*
Y462894D01*
X815945Y464665D02*
Y462894D01*
X817913Y464665D02*
Y462894D01*
Y459154D02*
Y457382D01*
X815945Y459154D02*
Y457382D01*
X813976Y459154D02*
Y457382D01*
X812008Y459154D02*
Y457382D01*
X807677Y541240D02*
Y543012D01*
X805709Y541240D02*
Y543012D01*
X803740Y541240D02*
Y543012D01*
X801772Y541240D02*
Y543012D01*
Y546752D02*
Y548524D01*
X803740Y546752D02*
Y548524D01*
X805709Y546752D02*
Y548524D01*
X807677Y546752D02*
Y548524D01*
X860827Y474311D02*
Y476083D01*
X858858Y474311D02*
Y476083D01*
X856890Y474311D02*
Y476083D01*
X854921Y474311D02*
Y476083D01*
Y479823D02*
Y481594D01*
X856890Y479823D02*
Y481594D01*
X858858Y479823D02*
Y481594D01*
X860827Y479823D02*
Y481594D01*
X870669Y653445D02*
Y655217D01*
X868701Y653445D02*
Y655217D01*
X866732Y653445D02*
Y655217D01*
X864764Y653445D02*
Y655217D01*
Y658957D02*
Y660728D01*
X866732Y658957D02*
Y660728D01*
X868701Y658957D02*
Y660728D01*
X870669Y658957D02*
Y660728D01*
X800492Y726575D02*
X798720D01*
X800492Y724606D02*
X798720D01*
X800492Y722638D02*
X798720D01*
X800492Y720669D02*
X798720D01*
X794980D02*
X793209D01*
X794980Y722638D02*
X793209D01*
X794980Y724606D02*
X793209D01*
X794980Y726575D02*
X793209D01*
X807677Y474311D02*
Y476083D01*
X805709Y474311D02*
Y476083D01*
X803740Y474311D02*
Y476083D01*
X801772Y474311D02*
Y476083D01*
Y479823D02*
Y481594D01*
X803740Y479823D02*
Y481594D01*
X805709Y479823D02*
Y481594D01*
X807677Y479823D02*
Y481594D01*
X860827Y720374D02*
Y722146D01*
X858858Y720374D02*
Y722146D01*
X856890Y720374D02*
Y722146D01*
X854921Y720374D02*
Y722146D01*
Y725886D02*
Y727657D01*
X856890Y725886D02*
Y727657D01*
X858858Y725886D02*
Y727657D01*
X860827Y725886D02*
Y727657D01*
X811614Y730217D02*
Y731988D01*
X809646Y730217D02*
Y731988D01*
X807677Y730217D02*
Y731988D01*
X805709Y730217D02*
Y731988D01*
Y735728D02*
Y737500D01*
X807677Y735728D02*
Y737500D01*
X809646Y735728D02*
Y737500D01*
X811614Y735728D02*
Y737500D01*
X793209Y709252D02*
X794980D01*
X793209Y711220D02*
X794980D01*
X793209Y713189D02*
X794980D01*
X793209Y715157D02*
X794980D01*
X798720D02*
X800492D01*
X798720Y713189D02*
X800492D01*
X798720Y711220D02*
X800492D01*
X798720Y709252D02*
X800492D01*
X870669Y720374D02*
Y722146D01*
X868701Y720374D02*
Y722146D01*
X866732Y720374D02*
Y722146D01*
X864764Y720374D02*
Y722146D01*
Y725886D02*
Y727657D01*
X866732Y725886D02*
Y727657D01*
X868701Y725886D02*
Y727657D01*
X870669Y725886D02*
Y727657D01*
X860827Y653445D02*
Y655217D01*
X858858Y653445D02*
Y655217D01*
X856890Y653445D02*
Y655217D01*
X854921Y653445D02*
Y655217D01*
Y658957D02*
Y660728D01*
X856890Y658957D02*
Y660728D01*
X858858Y658957D02*
Y660728D01*
X860827Y658957D02*
Y660728D01*
X877067Y684843D02*
X878839D01*
X877067Y686811D02*
X878839D01*
X877067Y688780D02*
X878839D01*
X877067Y690748D02*
X878839D01*
X882579D02*
X884350D01*
X882579Y688780D02*
X884350D01*
X882579Y686811D02*
X884350D01*
X882579Y684843D02*
X884350D01*
X823425Y738091D02*
Y739862D01*
X821457Y738091D02*
Y739862D01*
X819488Y738091D02*
Y739862D01*
X817520Y738091D02*
Y739862D01*
Y743602D02*
Y745374D01*
X819488Y743602D02*
Y745374D01*
X821457Y743602D02*
Y745374D01*
X823425Y743602D02*
Y745374D01*
X877067Y675394D02*
X878839D01*
X877067Y677362D02*
X878839D01*
X877067Y679331D02*
X878839D01*
X877067Y681299D02*
X878839D01*
X882579D02*
X884350D01*
X882579Y679331D02*
X884350D01*
X882579Y677362D02*
X884350D01*
X882579Y675394D02*
X884350D01*
X877067Y665551D02*
X878839D01*
X877067Y667520D02*
X878839D01*
X877067Y669488D02*
X878839D01*
X877067Y671457D02*
X878839D01*
X882579D02*
X884350D01*
X882579Y669488D02*
X884350D01*
X882579Y667520D02*
X884350D01*
X882579Y665551D02*
X884350D01*
X816339Y641437D02*
Y639665D01*
X818307Y641437D02*
Y639665D01*
X820276Y641437D02*
Y639665D01*
X822244Y641437D02*
Y639665D01*
Y635925D02*
Y634154D01*
X820276Y635925D02*
Y634154D01*
X818307Y635925D02*
Y634154D01*
X816339Y635925D02*
Y634154D01*
X870669Y541240D02*
Y543012D01*
X868701Y541240D02*
Y543012D01*
X866732Y541240D02*
Y543012D01*
X864764Y541240D02*
Y543012D01*
Y546752D02*
Y548524D01*
X866732Y546752D02*
Y548524D01*
X868701Y546752D02*
Y548524D01*
X870669Y546752D02*
Y548524D01*
X828543Y641437D02*
Y639665D01*
X830512Y641437D02*
Y639665D01*
X832480Y641437D02*
Y639665D01*
X834449Y641437D02*
Y639665D01*
Y635925D02*
Y634154D01*
X832480Y635925D02*
Y634154D01*
X830512Y635925D02*
Y634154D01*
X828543Y635925D02*
Y634154D01*
X840748Y641437D02*
Y639665D01*
X842717Y641437D02*
Y639665D01*
X844685Y641437D02*
Y639665D01*
X846654Y641437D02*
Y639665D01*
Y635925D02*
Y634154D01*
X844685Y635925D02*
Y634154D01*
X842717Y635925D02*
Y634154D01*
X840748Y635925D02*
Y634154D01*
X805709Y641043D02*
Y639272D01*
X807677Y641043D02*
Y639272D01*
X809646Y641043D02*
Y639272D01*
X811614Y641043D02*
Y639272D01*
Y635531D02*
Y633760D01*
X809646Y635531D02*
Y633760D01*
X807677Y635531D02*
Y633760D01*
X805709Y635531D02*
Y633760D01*
X837205Y738091D02*
Y739862D01*
X835236Y738091D02*
Y739862D01*
X833268Y738091D02*
Y739862D01*
X831299Y738091D02*
Y739862D01*
Y743602D02*
Y745374D01*
X833268Y743602D02*
Y745374D01*
X835236Y743602D02*
Y745374D01*
X837205Y743602D02*
Y745374D01*
X852165Y738091D02*
Y739862D01*
X850197Y738091D02*
Y739862D01*
X848228Y738091D02*
Y739862D01*
X846260Y738091D02*
Y739862D01*
Y743602D02*
Y745374D01*
X848228Y743602D02*
Y745374D01*
X850197Y743602D02*
Y745374D01*
X852165Y743602D02*
Y745374D01*
X877067Y705709D02*
X878839D01*
X877067Y707677D02*
X878839D01*
X877067Y709646D02*
X878839D01*
X877067Y711614D02*
X878839D01*
X882579D02*
X884350D01*
X882579Y709646D02*
X884350D01*
X882579Y707677D02*
X884350D01*
X882579Y705709D02*
X884350D01*
X877067Y694291D02*
X878839D01*
X877067Y696260D02*
X878839D01*
X877067Y698228D02*
X878839D01*
X877067Y700197D02*
X878839D01*
X882579D02*
X884350D01*
X882579Y698228D02*
X884350D01*
X882579Y696260D02*
X884350D01*
X882579Y694291D02*
X884350D01*
X870669Y474311D02*
Y476083D01*
X868701Y474311D02*
Y476083D01*
X866732Y474311D02*
Y476083D01*
X864764Y474311D02*
Y476083D01*
Y479823D02*
Y481594D01*
X866732Y479823D02*
Y481594D01*
X868701Y479823D02*
Y481594D01*
X870669Y479823D02*
Y481594D01*
X798524Y492717D02*
X796752D01*
X798524Y490748D02*
X796752D01*
X798524Y488780D02*
X796752D01*
X798524Y486811D02*
X796752D01*
X793012D02*
X791240D01*
X793012Y488780D02*
X791240D01*
X793012Y490748D02*
X791240D01*
X793012Y492717D02*
X791240D01*
X836417Y557776D02*
Y559547D01*
X834449Y557776D02*
Y559547D01*
X832480Y557776D02*
Y559547D01*
X830512Y557776D02*
Y559547D01*
Y563287D02*
Y565059D01*
X832480Y563287D02*
Y565059D01*
X834449Y563287D02*
Y565059D01*
X836417Y563287D02*
Y565059D01*
X850591Y557776D02*
Y559547D01*
X848622Y557776D02*
Y559547D01*
X846654Y557776D02*
Y559547D01*
X844685Y557776D02*
Y559547D01*
Y563287D02*
Y565059D01*
X846654Y563287D02*
Y565059D01*
X848622Y563287D02*
Y565059D01*
X850591Y563287D02*
Y565059D01*
G54D37*
X756884Y1011412D02*
X758262D01*
X756884Y1018498D02*
X758262D01*
X810914Y1011414D02*
X812292D01*
X810914Y1018501D02*
X812292D01*
X868514Y1011514D02*
X869892D01*
X868514Y1018601D02*
X869892D01*
X923214Y1011614D02*
X924592D01*
X923214Y1018701D02*
X924592D01*
G54D38*
X1151998Y970408D02*
Y975723D01*
X1140975Y970408D02*
Y975723D01*
X0Y0D02*
M02*
