*
*
G04 PADS Layout (Build Number 2007.45.1) generated Gerber (RS-274-X) file*
G04 PC Version=2.1*
*
%IN "roach101.pcb"*%
*
%MOIN*%
*
%FSLAX35Y35*%
*
*
*
*
G04 PC Standard Apertures*
*
*
G04 Thermal Relief Aperture macro.*
%AMTER*
1,1,$1,0,0*
1,0,$1-$2,0,0*
21,0,$3,$4,0,0,45*
21,0,$3,$4,0,0,135*
%
*
*
G04 Annular Aperture macro.*
%AMANN*
1,1,$1,0,0*
1,0,$2,0,0*
%
*
*
G04 Odd Aperture macro.*
%AMODD*
1,1,$1,0,0*
1,0,$1-0.005,0,0*
%
*
*
G04 PC Custom Aperture Macros*
*
*
*
*
*
*
G04 PC Aperture Table*
*
%ADD010C,0.01*%
%ADD014C,0.06*%
%ADD030C,0.01969*%
%ADD032C,0.03937*%
%ADD034R,0.06102X0.06102*%
%ADD035R,0.02362X0.02362*%
%ADD036R,0.04528X0.04528*%
%ADD037R,0.0374X0.0374*%
%ADD038R,0.03937X0.03937*%
%ADD039R,0.01181X0.01181*%
%ADD040C,0.01181*%
%ADD041R,0.01102X0.01102*%
%ADD042R,0.01693X0.01693*%
%ADD043R,0.01969X0.01969*%
%ADD044R,0.08661X0.08661*%
%ADD045R,0.01205X0.01205*%
%ADD046R,0.00984X0.00984*%
%ADD047R,0.07087X0.07087*%
%ADD048R,0.09252X0.09252*%
%ADD050R,0.04724X0.04724*%
%ADD051C,0.01378*%
%ADD052R,0.12402X0.12402*%
%ADD053R,0.035X0.035*%
%ADD055R,0.05315X0.05315*%
%ADD056R,0.01575X0.01575*%
%ADD057C,0.01772*%
%ADD058R,0.04921X0.04921*%
%ADD059R,0.03346X0.03346*%
%ADD060R,0.05X0.05*%
%ADD061R,0.017X0.017*%
%ADD062R,0.06693X0.06693*%
%ADD063R,0.00787X0.00787*%
%ADD064R,0.05512X0.05512*%
%ADD065R,0.02559X0.02559*%
%ADD066R,0.07X0.07*%
%ADD067R,0.08465X0.08465*%
%ADD068C,0.02559*%
%ADD069R,0.04134X0.04134*%
%ADD070R,0.0315X0.0315*%
%ADD071R,0.04331X0.04331*%
%ADD072R,0.07874X0.07874*%
%ADD073R,0.09843X0.09843*%
%ADD074R,0.11417X0.11417*%
%ADD075C,0.00984*%
*
*
*
*
G04 PC Copper Outlines (0)*
G04 Layer Name roach101.pcb - dark (0)*
%LPD*%
*
*
G04 PC Area=_PSI_PAC_SOP50P490X110-11N_010_N162000000*
G75*
G36*
G01*
X900906Y498268D02*
X893583D01*
Y493071D01*
X900906D01*
Y498268D01*
G37*
G74*
*
*
G04 PC Copper Outlines (1)*
G04 Layer Name roach101.pcb - dark (1)*
%LPD*%
*
*
G04 PC Area=_PSI_PAC_SOP50P490X110-11N_010_P162000000*
G75*
G36*
G01*
X903031Y765906D02*
X910354D01*
Y771102D01*
X903031D01*
Y765906D01*
G37*
G74*
*
*
G04 PC Copper Outlines (2)*
G04 Layer Name roach101.pcb - dark (2)*
%LPD*%
*
*
G04 PC Area=_PSI_PAC_SOP50P490X110-11N_010_P162000000*
G75*
G36*
G01*
X1251407Y612763D02*
X1258730D01*
Y617960D01*
X1251407D01*
Y612763D01*
G37*
G74*
*
*
G04 PC Copper Outlines (3)*
G04 Layer Name roach101.pcb - dark (3)*
%LPD*%
*
*
G04 PC Area=_PSI_PAC_SOP50P490X110-11N_010_P324000000*
G75*
G36*
G01*
X266377Y520421D02*
Y527744D01*
X261180D01*
Y520421D01*
X266377D01*
G37*
G74*
*
*
G04 PC Copper Outlines (4)*
G04 Layer Name roach101.pcb - dark (4)*
%LPD*%
*
*
G04 PC Area=_PSI_PAC_DPAK-P950X240-3N_002_*
G75*
G36*
G01*
X159683Y741097D02*
Y734365D01*
X166180D01*
Y741097D01*
X159683D01*
G37*
G74*
*
*
G04 PC Copper Outlines (5)*
G04 Layer Name roach101.pcb - dark (5)*
%LPD*%
*
*
G04 PC Area=_PSI_PAC_DPAK-P950X240-3N_002_*
G75*
G36*
G01*
X170510Y741097D02*
Y734365D01*
X177006D01*
Y741097D01*
X170510D01*
G37*
G74*
*
*
G04 PC Copper Outlines (6)*
G04 Layer Name roach101.pcb - dark (6)*
%LPD*%
*
*
G04 PC Area=_PSI_PAC_DPAK-P950X240-3N_002_*
G75*
G36*
G01*
X159683Y729876D02*
Y723144D01*
X166180D01*
Y729876D01*
X159683D01*
G37*
G74*
*
*
G04 PC Copper Outlines (7)*
G04 Layer Name roach101.pcb - dark (7)*
%LPD*%
*
*
G04 PC Area=_PSI_PAC_DPAK-P950X240-3N_002_*
G75*
G36*
G01*
X170510Y729876D02*
Y723144D01*
X177006D01*
Y729876D01*
X170510D01*
G37*
G74*
*
*
G04 PC Copper Outlines (8)*
G04 Layer Name roach101.pcb - dark (8)*
%LPD*%
*
*
G04 PC Area=_PSI_PAC_QFN50P300X300X100-13N_012_P162000000*
G75*
G36*
G01*
X203672Y996597D02*
X207097D01*
Y1000022D01*
X203672D01*
Y996597D01*
G37*
G74*
*
*
G04 PC Copper Outlines (9)*
G04 Layer Name roach101.pcb - dark (9)*
%LPD*%
*
*
G04 PC Area=_PSI_PAC_QFN50P300X300X100-13N_012_*
G75*
G36*
G01*
X1033587Y192768D02*
Y189343D01*
X1037012D01*
Y192768D01*
X1033587D01*
G37*
G74*
*
*
G04 PC Copper Outlines (10)*
G04 Layer Name roach101.pcb - dark (10)*
%LPD*%
*
*
G04 PC Area=_PSI_PAC_QFN50P300X300X100-13N_012_*
G75*
G36*
G01*
X1080587Y192768D02*
Y189343D01*
X1084012D01*
Y192768D01*
X1080587D01*
G37*
G74*
*
*
G04 PC Copper Outlines (11)*
G04 Layer Name roach101.pcb - dark (11)*
%LPD*%
*
*
G04 PC Area=_PSI_PAC_QFN50P300X300X90-17N_016_P324000000*
G75*
G36*
G01*
X513307Y720157D02*
Y723937D01*
X509528D01*
Y720157D01*
X513307D01*
G37*
G74*
*
*
G04 PC Copper Outlines (12)*
G04 Layer Name roach101.pcb - dark (12)*
%LPD*%
*
*
G04 PC Area=_PSI_PAC_QFN50P300X300X90-17N_016_P324000000*
G75*
G36*
G01*
X513307Y665039D02*
Y668819D01*
X509528D01*
Y665039D01*
X513307D01*
G37*
G74*
*
*
G04 PC Copper Outlines (13)*
G04 Layer Name roach101.pcb - dark (13)*
%LPD*%
*
*
G04 PC Area=Custom_Thermal*
*
G04 PC Custom Flashes*
G04 Layer Name roach101.pcb - flashes*
%LPD*%
*
*
G04 PC Circuitry*
G04 Layer Name roach101.pcb - circuitry*
%LPD*%
*
G54D10*
G54D14*
G01X1169782Y521713D03*
X1171539Y455209D03*
X1116535Y360236D03*
X917323Y439370D03*
X1133858Y357874D03*
X1088976Y401969D03*
X1094488Y391339D03*
X945669Y455512D03*
G54D30*
X568750Y984561D02*
X570719D01*
X568750Y982002D02*
X570719D01*
X578593D02*
X580561D01*
X578593Y987120D02*
X580561D01*
X567750Y960061D02*
X569719D01*
X567750Y957502D02*
X569719D01*
X577593D02*
X579561D01*
X577593Y962620D02*
X579561D01*
X569250Y1009061D02*
X571219D01*
X569250Y1006502D02*
X571219D01*
X579093D02*
X581061D01*
X579093Y1011620D02*
X581061D01*
X569250Y1033561D02*
X571219D01*
X569250Y1031002D02*
X571219D01*
X579093D02*
X581061D01*
X579093Y1036120D02*
X581061D01*
X725984Y649213D03*
Y645276D03*
Y633465D03*
Y629528D03*
Y625591D03*
Y621654D03*
Y613780D03*
Y609843D03*
Y605906D03*
Y601969D03*
Y598031D03*
Y594094D03*
Y590157D03*
Y586220D03*
Y582283D03*
Y578346D03*
Y574409D03*
Y570472D03*
Y566535D03*
Y562598D03*
Y558661D03*
Y554724D03*
Y550787D03*
Y546850D03*
Y542913D03*
Y538976D03*
Y535039D03*
Y531102D03*
Y527165D03*
X722047Y653150D03*
Y649213D03*
Y645276D03*
Y641339D03*
Y637402D03*
Y633465D03*
Y629528D03*
Y625591D03*
Y621654D03*
Y617717D03*
Y613780D03*
Y609843D03*
Y605906D03*
Y601969D03*
Y598031D03*
Y594094D03*
Y590157D03*
Y586220D03*
Y582283D03*
Y578346D03*
Y574409D03*
Y570472D03*
Y566535D03*
Y562598D03*
Y558661D03*
Y554724D03*
Y550787D03*
Y546850D03*
Y542913D03*
Y538976D03*
Y535039D03*
Y531102D03*
Y527165D03*
Y523228D03*
X718110Y653150D03*
Y649213D03*
Y645276D03*
Y641339D03*
Y637402D03*
Y633465D03*
Y629528D03*
Y625591D03*
Y621654D03*
Y617717D03*
Y613780D03*
Y609843D03*
Y605906D03*
Y601969D03*
Y598031D03*
Y594094D03*
Y590157D03*
Y586220D03*
Y582283D03*
Y578346D03*
Y574409D03*
Y570472D03*
Y566535D03*
Y562598D03*
Y558661D03*
Y554724D03*
Y550787D03*
Y546850D03*
Y542913D03*
Y538976D03*
Y535039D03*
Y531102D03*
Y527165D03*
Y523228D03*
X714173Y653150D03*
Y649213D03*
Y645276D03*
Y641339D03*
Y637402D03*
Y633465D03*
Y629528D03*
Y625591D03*
Y621654D03*
Y617717D03*
Y613780D03*
Y609843D03*
Y605906D03*
Y601969D03*
Y598031D03*
Y594094D03*
Y590157D03*
Y586220D03*
Y582283D03*
Y578346D03*
Y574409D03*
Y570472D03*
Y566535D03*
Y562598D03*
Y558661D03*
Y554724D03*
Y550787D03*
Y546850D03*
Y542913D03*
Y538976D03*
Y535039D03*
Y531102D03*
Y527165D03*
Y523228D03*
X710236Y649213D03*
Y645276D03*
Y641339D03*
Y637402D03*
Y633465D03*
Y629528D03*
Y625591D03*
Y621654D03*
Y617717D03*
Y613780D03*
Y609843D03*
Y605906D03*
Y601969D03*
Y598031D03*
Y594094D03*
Y590157D03*
Y586220D03*
Y582283D03*
Y578346D03*
Y574409D03*
Y570472D03*
Y566535D03*
Y562598D03*
Y558661D03*
Y554724D03*
Y550787D03*
Y546850D03*
Y542913D03*
Y538976D03*
Y535039D03*
Y531102D03*
Y527165D03*
Y523228D03*
X706299Y649213D03*
Y645276D03*
Y641339D03*
Y637402D03*
Y633465D03*
Y629528D03*
Y625591D03*
Y621654D03*
Y617717D03*
Y613780D03*
Y609843D03*
Y605906D03*
Y601969D03*
Y598031D03*
Y594094D03*
Y590157D03*
Y586220D03*
Y582283D03*
Y578346D03*
Y574409D03*
Y570472D03*
Y566535D03*
Y562598D03*
Y558661D03*
Y554724D03*
Y550787D03*
Y546850D03*
Y542913D03*
Y538976D03*
Y535039D03*
Y531102D03*
Y527165D03*
Y523228D03*
X702362Y653150D03*
Y649213D03*
Y645276D03*
Y641339D03*
Y637402D03*
Y633465D03*
Y629528D03*
Y625591D03*
Y621654D03*
Y617717D03*
Y613780D03*
Y609843D03*
Y605906D03*
Y601969D03*
Y598031D03*
Y594094D03*
Y590157D03*
Y586220D03*
Y582283D03*
Y578346D03*
Y574409D03*
Y570472D03*
Y566535D03*
Y562598D03*
Y558661D03*
Y554724D03*
Y550787D03*
Y546850D03*
Y542913D03*
Y538976D03*
Y535039D03*
Y531102D03*
Y527165D03*
Y523228D03*
X698425Y653150D03*
Y649213D03*
Y645276D03*
Y641339D03*
Y637402D03*
Y633465D03*
Y629528D03*
Y625591D03*
Y621654D03*
Y617717D03*
Y613780D03*
Y609843D03*
Y605906D03*
Y601969D03*
Y598031D03*
Y594094D03*
Y590157D03*
Y586220D03*
Y582283D03*
Y578346D03*
Y574409D03*
Y570472D03*
Y566535D03*
Y562598D03*
Y558661D03*
Y554724D03*
Y550787D03*
Y546850D03*
Y542913D03*
Y538976D03*
Y535039D03*
Y531102D03*
Y527165D03*
Y523228D03*
X694488Y653150D03*
Y649213D03*
Y645276D03*
Y641339D03*
Y637402D03*
Y633465D03*
Y629528D03*
Y625591D03*
Y621654D03*
Y617717D03*
Y613780D03*
Y609843D03*
Y605906D03*
Y601969D03*
Y598031D03*
Y594094D03*
Y590157D03*
Y586220D03*
Y582283D03*
Y578346D03*
Y574409D03*
Y570472D03*
Y566535D03*
Y562598D03*
Y558661D03*
Y554724D03*
Y550787D03*
Y546850D03*
Y542913D03*
Y538976D03*
Y535039D03*
Y531102D03*
Y527165D03*
Y523228D03*
X690551Y653150D03*
Y649213D03*
Y645276D03*
Y641339D03*
Y637402D03*
Y633465D03*
Y629528D03*
Y625591D03*
Y621654D03*
Y617717D03*
Y613780D03*
Y609843D03*
Y605906D03*
Y601969D03*
Y598031D03*
Y594094D03*
Y590157D03*
Y586220D03*
Y582283D03*
Y578346D03*
Y574409D03*
Y570472D03*
Y566535D03*
Y562598D03*
Y558661D03*
Y554724D03*
Y550787D03*
Y546850D03*
Y542913D03*
Y538976D03*
Y535039D03*
Y531102D03*
Y527165D03*
Y523228D03*
X686614Y649213D03*
Y645276D03*
Y641339D03*
Y637402D03*
Y633465D03*
Y629528D03*
Y625591D03*
Y621654D03*
Y617717D03*
Y613780D03*
Y609843D03*
Y605906D03*
Y601969D03*
Y598031D03*
Y594094D03*
Y590157D03*
Y586220D03*
Y582283D03*
Y578346D03*
Y574409D03*
Y570472D03*
Y566535D03*
Y562598D03*
Y558661D03*
Y554724D03*
Y550787D03*
Y546850D03*
Y542913D03*
Y538976D03*
Y535039D03*
Y531102D03*
Y527165D03*
Y523228D03*
X682677Y649213D03*
Y645276D03*
Y641339D03*
Y637402D03*
Y633465D03*
Y629528D03*
Y625591D03*
Y621654D03*
Y617717D03*
Y613780D03*
Y609843D03*
Y605906D03*
Y601969D03*
Y598031D03*
Y594094D03*
Y590157D03*
Y586220D03*
Y582283D03*
Y578346D03*
Y574409D03*
Y570472D03*
Y566535D03*
Y562598D03*
Y558661D03*
Y554724D03*
Y550787D03*
Y546850D03*
Y542913D03*
Y538976D03*
Y535039D03*
Y531102D03*
Y527165D03*
Y523228D03*
X678740Y653150D03*
Y649213D03*
Y645276D03*
Y641339D03*
Y637402D03*
Y633465D03*
Y629528D03*
Y625591D03*
Y621654D03*
Y617717D03*
Y613780D03*
Y609843D03*
Y605906D03*
Y601969D03*
Y598031D03*
Y594094D03*
Y590157D03*
Y586220D03*
Y582283D03*
Y578346D03*
Y574409D03*
Y570472D03*
Y566535D03*
Y562598D03*
Y558661D03*
Y554724D03*
Y550787D03*
Y546850D03*
Y542913D03*
Y538976D03*
Y535039D03*
Y531102D03*
Y527165D03*
Y523228D03*
X674803Y653150D03*
Y649213D03*
Y645276D03*
Y641339D03*
Y637402D03*
Y633465D03*
Y629528D03*
Y625591D03*
Y621654D03*
Y617717D03*
Y613780D03*
Y609843D03*
Y605906D03*
Y601969D03*
Y598031D03*
Y594094D03*
Y590157D03*
Y586220D03*
Y582283D03*
Y578346D03*
Y574409D03*
Y570472D03*
Y566535D03*
Y562598D03*
Y558661D03*
Y554724D03*
Y550787D03*
Y546850D03*
Y542913D03*
Y538976D03*
Y535039D03*
Y531102D03*
Y527165D03*
Y523228D03*
X670866Y653150D03*
Y649213D03*
Y645276D03*
Y641339D03*
Y637402D03*
Y633465D03*
Y629528D03*
Y625591D03*
Y621654D03*
Y617717D03*
Y613780D03*
Y609843D03*
Y605906D03*
Y601969D03*
Y598031D03*
Y594094D03*
Y590157D03*
Y586220D03*
Y582283D03*
Y578346D03*
Y574409D03*
Y570472D03*
Y566535D03*
Y562598D03*
Y558661D03*
Y554724D03*
Y550787D03*
Y546850D03*
Y542913D03*
Y538976D03*
Y535039D03*
Y531102D03*
Y527165D03*
Y523228D03*
X666929Y653150D03*
Y649213D03*
Y645276D03*
Y641339D03*
Y637402D03*
Y633465D03*
Y629528D03*
Y625591D03*
Y621654D03*
Y617717D03*
Y613780D03*
Y609843D03*
Y605906D03*
Y601969D03*
Y598031D03*
Y594094D03*
Y590157D03*
Y586220D03*
Y582283D03*
Y578346D03*
Y574409D03*
Y570472D03*
Y566535D03*
Y562598D03*
Y558661D03*
Y554724D03*
Y550787D03*
Y546850D03*
Y542913D03*
Y538976D03*
Y535039D03*
Y531102D03*
Y527165D03*
Y523228D03*
X662992Y649213D03*
Y645276D03*
Y641339D03*
Y637402D03*
Y633465D03*
Y629528D03*
Y625591D03*
Y621654D03*
Y617717D03*
Y613780D03*
Y609843D03*
Y605906D03*
Y601969D03*
Y598031D03*
Y594094D03*
Y590157D03*
Y586220D03*
Y582283D03*
Y578346D03*
Y574409D03*
Y570472D03*
Y566535D03*
Y562598D03*
Y558661D03*
Y554724D03*
Y550787D03*
Y546850D03*
Y542913D03*
Y538976D03*
Y535039D03*
Y531102D03*
Y527165D03*
Y523228D03*
X659055Y649213D03*
Y645276D03*
Y641339D03*
Y637402D03*
Y633465D03*
Y629528D03*
Y625591D03*
Y621654D03*
Y617717D03*
Y613780D03*
Y609843D03*
Y605906D03*
Y601969D03*
Y598031D03*
Y594094D03*
Y590157D03*
Y586220D03*
Y582283D03*
Y578346D03*
Y574409D03*
Y570472D03*
Y566535D03*
Y562598D03*
Y558661D03*
Y554724D03*
Y550787D03*
Y546850D03*
Y542913D03*
Y538976D03*
Y535039D03*
Y531102D03*
Y527165D03*
Y523228D03*
X655118Y653150D03*
Y649213D03*
Y645276D03*
Y641339D03*
Y637402D03*
Y633465D03*
Y629528D03*
Y625591D03*
Y621654D03*
Y617717D03*
Y613780D03*
Y609843D03*
Y605906D03*
Y601969D03*
Y598031D03*
Y594094D03*
Y590157D03*
Y586220D03*
Y582283D03*
Y578346D03*
Y574409D03*
Y570472D03*
Y566535D03*
Y562598D03*
Y558661D03*
Y554724D03*
Y550787D03*
Y546850D03*
Y542913D03*
Y538976D03*
Y535039D03*
Y531102D03*
Y527165D03*
Y523228D03*
X651181Y653150D03*
Y649213D03*
Y645276D03*
Y641339D03*
Y637402D03*
Y633465D03*
Y629528D03*
Y625591D03*
Y621654D03*
Y617717D03*
Y613780D03*
Y609843D03*
Y605906D03*
Y601969D03*
Y598031D03*
Y594094D03*
Y590157D03*
Y586220D03*
Y582283D03*
Y578346D03*
Y574409D03*
Y570472D03*
Y566535D03*
Y562598D03*
Y558661D03*
Y554724D03*
Y550787D03*
Y546850D03*
Y542913D03*
Y538976D03*
Y535039D03*
Y531102D03*
Y527165D03*
Y523228D03*
X647244Y653150D03*
Y649213D03*
Y645276D03*
Y641339D03*
Y637402D03*
Y633465D03*
Y629528D03*
Y625591D03*
Y621654D03*
Y617717D03*
Y613780D03*
Y609843D03*
Y605906D03*
Y601969D03*
Y598031D03*
Y594094D03*
Y590157D03*
Y586220D03*
Y582283D03*
Y578346D03*
Y574409D03*
Y570472D03*
Y566535D03*
Y562598D03*
Y558661D03*
Y554724D03*
Y550787D03*
Y546850D03*
Y542913D03*
Y538976D03*
Y535039D03*
Y531102D03*
Y527165D03*
Y523228D03*
X643307Y653150D03*
Y649213D03*
Y645276D03*
Y641339D03*
Y637402D03*
Y633465D03*
Y629528D03*
Y625591D03*
Y621654D03*
Y617717D03*
Y613780D03*
Y609843D03*
Y605906D03*
Y601969D03*
Y598031D03*
Y594094D03*
Y590157D03*
Y586220D03*
Y582283D03*
Y578346D03*
Y574409D03*
Y570472D03*
Y566535D03*
Y562598D03*
Y558661D03*
Y554724D03*
Y550787D03*
Y546850D03*
Y542913D03*
Y538976D03*
Y535039D03*
Y531102D03*
Y527165D03*
Y523228D03*
X639370Y649213D03*
Y645276D03*
Y641339D03*
Y637402D03*
Y633465D03*
Y629528D03*
Y625591D03*
Y621654D03*
Y617717D03*
Y613780D03*
Y609843D03*
Y605906D03*
Y601969D03*
Y598031D03*
Y594094D03*
Y590157D03*
Y586220D03*
Y582283D03*
Y578346D03*
Y574409D03*
Y570472D03*
Y566535D03*
Y562598D03*
Y558661D03*
Y554724D03*
Y550787D03*
Y546850D03*
Y542913D03*
Y538976D03*
Y535039D03*
Y531102D03*
Y527165D03*
Y523228D03*
X635433Y649213D03*
Y645276D03*
Y641339D03*
Y637402D03*
Y633465D03*
Y629528D03*
Y625591D03*
Y621654D03*
Y617717D03*
Y613780D03*
Y609843D03*
Y605906D03*
Y601969D03*
Y598031D03*
Y594094D03*
Y590157D03*
Y586220D03*
Y582283D03*
Y578346D03*
Y574409D03*
Y570472D03*
Y566535D03*
Y562598D03*
Y558661D03*
Y554724D03*
Y550787D03*
Y546850D03*
Y542913D03*
Y538976D03*
Y535039D03*
Y531102D03*
Y527165D03*
Y523228D03*
X631496Y653150D03*
Y649213D03*
Y645276D03*
Y641339D03*
Y637402D03*
Y633465D03*
Y629528D03*
Y625591D03*
Y621654D03*
Y617717D03*
Y613780D03*
Y609843D03*
Y605906D03*
Y601969D03*
Y598031D03*
Y594094D03*
Y590157D03*
Y586220D03*
Y582283D03*
Y578346D03*
Y574409D03*
Y570472D03*
Y566535D03*
Y562598D03*
Y558661D03*
Y554724D03*
Y550787D03*
Y546850D03*
Y542913D03*
Y538976D03*
Y535039D03*
Y531102D03*
Y527165D03*
Y523228D03*
X627559Y653150D03*
Y649213D03*
Y645276D03*
Y641339D03*
Y637402D03*
Y633465D03*
Y629528D03*
Y625591D03*
Y621654D03*
Y617717D03*
Y613780D03*
Y609843D03*
Y605906D03*
Y601969D03*
Y598031D03*
Y594094D03*
Y590157D03*
Y586220D03*
Y582283D03*
Y578346D03*
Y574409D03*
Y570472D03*
Y566535D03*
Y562598D03*
Y558661D03*
Y554724D03*
Y550787D03*
Y546850D03*
Y542913D03*
Y538976D03*
Y535039D03*
Y531102D03*
Y527165D03*
Y523228D03*
X623622Y653150D03*
Y649213D03*
Y645276D03*
Y641339D03*
Y637402D03*
Y633465D03*
Y629528D03*
Y625591D03*
Y621654D03*
Y617717D03*
Y613780D03*
Y609843D03*
Y605906D03*
Y601969D03*
Y598031D03*
Y594094D03*
Y590157D03*
Y586220D03*
Y582283D03*
Y578346D03*
Y574409D03*
Y570472D03*
Y566535D03*
Y562598D03*
Y558661D03*
Y554724D03*
Y550787D03*
Y546850D03*
Y542913D03*
Y538976D03*
Y535039D03*
Y531102D03*
Y527165D03*
Y523228D03*
X619685Y653150D03*
Y649213D03*
Y645276D03*
Y641339D03*
Y637402D03*
Y633465D03*
Y629528D03*
Y625591D03*
Y621654D03*
Y617717D03*
Y613780D03*
Y609843D03*
Y605906D03*
Y601969D03*
Y598031D03*
Y594094D03*
Y590157D03*
Y586220D03*
Y582283D03*
Y578346D03*
Y574409D03*
Y570472D03*
Y566535D03*
Y562598D03*
Y558661D03*
Y554724D03*
Y550787D03*
Y546850D03*
Y542913D03*
Y538976D03*
Y535039D03*
Y531102D03*
Y527165D03*
Y523228D03*
X615748Y649213D03*
Y645276D03*
Y641339D03*
Y637402D03*
Y633465D03*
Y629528D03*
Y625591D03*
Y621654D03*
Y617717D03*
Y613780D03*
Y609843D03*
Y605906D03*
Y601969D03*
Y598031D03*
Y594094D03*
Y590157D03*
Y586220D03*
Y582283D03*
Y578346D03*
Y574409D03*
Y570472D03*
Y566535D03*
Y562598D03*
Y558661D03*
Y554724D03*
Y550787D03*
Y546850D03*
Y542913D03*
Y538976D03*
Y535039D03*
Y531102D03*
Y527165D03*
Y523228D03*
X611811Y649213D03*
Y645276D03*
Y641339D03*
Y637402D03*
Y633465D03*
Y629528D03*
Y625591D03*
Y621654D03*
Y617717D03*
Y613780D03*
Y609843D03*
Y605906D03*
Y601969D03*
Y598031D03*
Y594094D03*
Y590157D03*
Y586220D03*
Y582283D03*
Y578346D03*
Y574409D03*
Y570472D03*
Y566535D03*
Y562598D03*
Y558661D03*
Y554724D03*
Y550787D03*
Y546850D03*
Y542913D03*
Y538976D03*
Y535039D03*
Y531102D03*
Y527165D03*
Y523228D03*
X607874Y653150D03*
Y649213D03*
Y645276D03*
Y641339D03*
Y637402D03*
Y633465D03*
Y629528D03*
Y625591D03*
Y621654D03*
Y617717D03*
Y613780D03*
Y609843D03*
Y605906D03*
Y601969D03*
Y598031D03*
Y594094D03*
Y590157D03*
Y586220D03*
Y582283D03*
Y578346D03*
Y574409D03*
Y570472D03*
Y566535D03*
Y562598D03*
Y558661D03*
Y554724D03*
Y550787D03*
Y546850D03*
Y542913D03*
Y538976D03*
Y535039D03*
Y531102D03*
Y527165D03*
Y523228D03*
X603937Y653150D03*
Y649213D03*
Y645276D03*
Y641339D03*
Y637402D03*
Y633465D03*
Y629528D03*
Y625591D03*
Y621654D03*
Y617717D03*
Y613780D03*
Y609843D03*
Y605906D03*
Y601969D03*
Y598031D03*
Y594094D03*
Y590157D03*
Y586220D03*
Y582283D03*
Y578346D03*
Y574409D03*
Y570472D03*
Y566535D03*
Y562598D03*
Y558661D03*
Y554724D03*
Y550787D03*
Y546850D03*
Y542913D03*
Y538976D03*
Y535039D03*
Y531102D03*
Y527165D03*
Y523228D03*
X600000Y653150D03*
Y649213D03*
Y645276D03*
Y641339D03*
Y637402D03*
Y633465D03*
Y629528D03*
Y625591D03*
Y621654D03*
Y617717D03*
Y613780D03*
Y609843D03*
Y605906D03*
Y601969D03*
Y598031D03*
Y594094D03*
Y590157D03*
Y586220D03*
Y582283D03*
Y578346D03*
Y574409D03*
Y570472D03*
Y566535D03*
Y562598D03*
Y558661D03*
Y554724D03*
Y550787D03*
Y546850D03*
Y542913D03*
Y538976D03*
Y535039D03*
Y531102D03*
Y527165D03*
Y523228D03*
X596063Y649213D03*
Y645276D03*
Y633465D03*
Y629528D03*
Y625591D03*
Y621654D03*
Y613780D03*
Y609843D03*
Y605906D03*
Y601969D03*
Y598031D03*
Y594094D03*
Y590157D03*
Y586220D03*
Y582283D03*
Y578346D03*
Y574409D03*
Y570472D03*
Y566535D03*
Y562598D03*
Y558661D03*
Y554724D03*
Y550787D03*
Y546850D03*
Y542913D03*
Y538976D03*
Y535039D03*
Y531102D03*
Y527165D03*
X828346Y605906D03*
X832283D03*
X836220D03*
X840157D03*
X844094D03*
X848031D03*
X851969D03*
X855906D03*
X828346Y601969D03*
X832283D03*
X836220D03*
X840157D03*
X844094D03*
X848031D03*
X851969D03*
X855906D03*
X828346Y598031D03*
X832283D03*
X836220D03*
X840157D03*
X844094D03*
X848031D03*
X851969D03*
X855906D03*
X828346Y594094D03*
X832283D03*
X836220D03*
X840157D03*
X844094D03*
X848031D03*
X851969D03*
X855906D03*
X828346Y590157D03*
X832283D03*
X836220D03*
X840157D03*
X844094D03*
X848031D03*
X851969D03*
X855906D03*
X828346Y586220D03*
X832283D03*
X836220D03*
X840157D03*
X844094D03*
X848031D03*
X851969D03*
X855906D03*
X828346Y582283D03*
X832283D03*
X836220D03*
X840157D03*
X844094D03*
X848031D03*
X851969D03*
X855906D03*
X828346Y578346D03*
X832283D03*
X836220D03*
X840157D03*
X844094D03*
X848031D03*
X851969D03*
X855906D03*
X956299Y529134D03*
Y533071D03*
Y537008D03*
Y540945D03*
Y544882D03*
Y548819D03*
Y552756D03*
Y556693D03*
Y560630D03*
Y564567D03*
Y568504D03*
Y572441D03*
Y576378D03*
Y580315D03*
Y584252D03*
Y588189D03*
Y592126D03*
Y596063D03*
Y600000D03*
Y603937D03*
Y607874D03*
Y611811D03*
Y615748D03*
Y619685D03*
Y623622D03*
Y627559D03*
Y631496D03*
Y635433D03*
Y639370D03*
Y643307D03*
Y647244D03*
Y651181D03*
Y655118D03*
Y659055D03*
X960236Y529134D03*
Y533071D03*
Y537008D03*
Y540945D03*
Y544882D03*
Y548819D03*
Y552756D03*
Y556693D03*
Y560630D03*
Y564567D03*
Y568504D03*
Y572441D03*
Y576378D03*
Y580315D03*
Y584252D03*
Y588189D03*
Y592126D03*
Y596063D03*
Y600000D03*
Y603937D03*
Y607874D03*
Y611811D03*
Y615748D03*
Y619685D03*
Y623622D03*
Y627559D03*
Y631496D03*
Y635433D03*
Y639370D03*
Y643307D03*
Y647244D03*
Y651181D03*
Y655118D03*
Y659055D03*
X964173Y529134D03*
Y533071D03*
Y537008D03*
Y540945D03*
Y544882D03*
Y548819D03*
Y552756D03*
Y556693D03*
Y560630D03*
Y564567D03*
Y568504D03*
Y572441D03*
Y576378D03*
Y580315D03*
Y584252D03*
Y588189D03*
Y592126D03*
Y596063D03*
Y600000D03*
Y603937D03*
Y607874D03*
Y611811D03*
Y615748D03*
Y619685D03*
Y623622D03*
Y627559D03*
Y631496D03*
Y635433D03*
Y639370D03*
Y643307D03*
Y647244D03*
Y651181D03*
Y655118D03*
Y659055D03*
X968110Y529134D03*
Y533071D03*
Y537008D03*
Y540945D03*
Y544882D03*
Y548819D03*
Y552756D03*
Y556693D03*
Y560630D03*
Y564567D03*
Y568504D03*
Y572441D03*
Y576378D03*
Y580315D03*
Y584252D03*
Y588189D03*
Y592126D03*
Y596063D03*
Y600000D03*
Y603937D03*
Y607874D03*
Y611811D03*
Y615748D03*
Y619685D03*
Y623622D03*
Y627559D03*
Y631496D03*
Y635433D03*
Y639370D03*
Y643307D03*
Y647244D03*
Y651181D03*
Y655118D03*
Y659055D03*
X972047Y529134D03*
Y533071D03*
Y537008D03*
Y540945D03*
Y544882D03*
Y548819D03*
Y552756D03*
Y556693D03*
Y560630D03*
Y564567D03*
Y568504D03*
Y572441D03*
Y576378D03*
Y580315D03*
Y584252D03*
Y588189D03*
Y592126D03*
Y596063D03*
Y600000D03*
Y603937D03*
Y607874D03*
Y611811D03*
Y615748D03*
Y619685D03*
Y623622D03*
Y627559D03*
Y631496D03*
Y635433D03*
Y639370D03*
Y643307D03*
Y647244D03*
Y651181D03*
Y655118D03*
Y659055D03*
X975984Y529134D03*
Y533071D03*
Y537008D03*
Y540945D03*
Y544882D03*
Y643307D03*
Y647244D03*
Y651181D03*
Y655118D03*
Y659055D03*
X979921Y529134D03*
Y533071D03*
Y537008D03*
Y540945D03*
Y544882D03*
Y643307D03*
Y647244D03*
Y651181D03*
Y655118D03*
Y659055D03*
X983858Y529134D03*
Y533071D03*
Y537008D03*
Y540945D03*
Y544882D03*
Y643307D03*
Y647244D03*
Y651181D03*
Y655118D03*
Y659055D03*
X987795Y529134D03*
Y533071D03*
Y537008D03*
Y540945D03*
Y544882D03*
Y643307D03*
Y647244D03*
Y651181D03*
Y655118D03*
Y659055D03*
X991732Y529134D03*
Y533071D03*
Y537008D03*
Y540945D03*
Y544882D03*
Y643307D03*
Y647244D03*
Y651181D03*
Y655118D03*
Y659055D03*
X995669Y529134D03*
Y533071D03*
Y537008D03*
Y540945D03*
Y544882D03*
Y643307D03*
Y647244D03*
Y651181D03*
Y655118D03*
Y659055D03*
X999606Y529134D03*
Y533071D03*
Y537008D03*
Y540945D03*
Y544882D03*
Y643307D03*
Y647244D03*
Y651181D03*
Y655118D03*
Y659055D03*
X1003543Y529134D03*
Y533071D03*
Y537008D03*
Y540945D03*
Y544882D03*
Y576378D03*
Y580315D03*
Y584252D03*
Y588189D03*
Y592126D03*
Y596063D03*
Y600000D03*
Y603937D03*
Y607874D03*
Y611811D03*
Y643307D03*
Y647244D03*
Y651181D03*
Y655118D03*
Y659055D03*
X1007480Y529134D03*
Y533071D03*
Y537008D03*
Y540945D03*
Y544882D03*
Y576378D03*
Y580315D03*
Y584252D03*
Y588189D03*
Y592126D03*
Y596063D03*
Y600000D03*
Y603937D03*
Y607874D03*
Y611811D03*
Y643307D03*
Y647244D03*
Y651181D03*
Y655118D03*
Y659055D03*
X1011417Y529134D03*
Y533071D03*
Y537008D03*
Y540945D03*
Y544882D03*
Y576378D03*
Y580315D03*
Y584252D03*
Y588189D03*
Y592126D03*
Y596063D03*
Y600000D03*
Y603937D03*
Y607874D03*
Y611811D03*
Y643307D03*
Y647244D03*
Y651181D03*
Y655118D03*
Y659055D03*
X1015354Y529134D03*
Y533071D03*
Y537008D03*
Y540945D03*
Y544882D03*
Y576378D03*
Y580315D03*
Y584252D03*
Y588189D03*
Y592126D03*
Y596063D03*
Y600000D03*
Y603937D03*
Y607874D03*
Y611811D03*
Y643307D03*
Y647244D03*
Y651181D03*
Y655118D03*
Y659055D03*
X1019291Y529134D03*
Y533071D03*
Y537008D03*
Y540945D03*
Y544882D03*
Y576378D03*
Y580315D03*
Y584252D03*
Y588189D03*
Y592126D03*
Y596063D03*
Y600000D03*
Y603937D03*
Y607874D03*
Y611811D03*
Y643307D03*
Y647244D03*
Y651181D03*
Y655118D03*
Y659055D03*
X1023228Y529134D03*
Y533071D03*
Y537008D03*
Y540945D03*
Y544882D03*
Y576378D03*
Y580315D03*
Y584252D03*
Y588189D03*
Y592126D03*
Y596063D03*
Y600000D03*
Y603937D03*
Y607874D03*
Y611811D03*
Y643307D03*
Y647244D03*
Y651181D03*
Y655118D03*
Y659055D03*
X1027165Y529134D03*
Y533071D03*
Y537008D03*
Y540945D03*
Y544882D03*
Y576378D03*
Y580315D03*
Y584252D03*
Y588189D03*
Y592126D03*
Y596063D03*
Y600000D03*
Y603937D03*
Y607874D03*
Y611811D03*
Y643307D03*
Y647244D03*
Y651181D03*
Y655118D03*
Y659055D03*
X1031102Y529134D03*
Y533071D03*
Y537008D03*
Y540945D03*
Y544882D03*
Y576378D03*
Y580315D03*
Y584252D03*
Y588189D03*
Y592126D03*
Y596063D03*
Y600000D03*
Y603937D03*
Y607874D03*
Y611811D03*
Y643307D03*
Y647244D03*
Y651181D03*
Y655118D03*
Y659055D03*
X1035039Y529134D03*
Y533071D03*
Y537008D03*
Y540945D03*
Y544882D03*
Y576378D03*
Y580315D03*
Y584252D03*
Y588189D03*
Y592126D03*
Y596063D03*
Y600000D03*
Y603937D03*
Y607874D03*
Y611811D03*
Y643307D03*
Y647244D03*
Y651181D03*
Y655118D03*
Y659055D03*
X1038976Y529134D03*
Y533071D03*
Y537008D03*
Y540945D03*
Y544882D03*
Y576378D03*
Y580315D03*
Y584252D03*
Y588189D03*
Y592126D03*
Y596063D03*
Y600000D03*
Y603937D03*
Y607874D03*
Y611811D03*
Y643307D03*
Y647244D03*
Y651181D03*
Y655118D03*
Y659055D03*
X1042913Y529134D03*
Y533071D03*
Y537008D03*
Y540945D03*
Y544882D03*
Y643307D03*
Y647244D03*
Y651181D03*
Y655118D03*
Y659055D03*
X1046850Y529134D03*
Y533071D03*
Y537008D03*
Y540945D03*
Y544882D03*
Y643307D03*
Y647244D03*
Y651181D03*
Y655118D03*
Y659055D03*
X1050787Y529134D03*
Y533071D03*
Y537008D03*
Y540945D03*
Y544882D03*
Y643307D03*
Y647244D03*
Y651181D03*
Y655118D03*
Y659055D03*
X1054724Y529134D03*
Y533071D03*
Y537008D03*
Y540945D03*
Y544882D03*
Y643307D03*
Y647244D03*
Y651181D03*
Y655118D03*
Y659055D03*
X1058661Y529134D03*
Y533071D03*
Y537008D03*
Y540945D03*
Y544882D03*
Y643307D03*
Y647244D03*
Y651181D03*
Y655118D03*
Y659055D03*
X1062598Y529134D03*
Y533071D03*
Y537008D03*
Y540945D03*
Y544882D03*
Y643307D03*
Y647244D03*
Y651181D03*
Y655118D03*
Y659055D03*
X1066535Y529134D03*
Y533071D03*
Y537008D03*
Y540945D03*
Y544882D03*
Y643307D03*
Y647244D03*
Y651181D03*
Y655118D03*
Y659055D03*
X1070472Y529134D03*
Y533071D03*
Y537008D03*
Y540945D03*
Y544882D03*
Y548819D03*
Y552756D03*
Y556693D03*
Y560630D03*
Y564567D03*
Y568504D03*
Y572441D03*
Y576378D03*
Y580315D03*
Y584252D03*
Y588189D03*
Y592126D03*
Y596063D03*
Y600000D03*
Y603937D03*
Y607874D03*
Y611811D03*
Y615748D03*
Y619685D03*
Y623622D03*
Y627559D03*
Y631496D03*
Y635433D03*
Y639370D03*
Y643307D03*
Y647244D03*
Y651181D03*
Y655118D03*
Y659055D03*
X1074409Y529134D03*
Y533071D03*
Y537008D03*
Y540945D03*
Y544882D03*
Y548819D03*
Y552756D03*
Y556693D03*
Y560630D03*
Y564567D03*
Y568504D03*
Y572441D03*
Y576378D03*
Y580315D03*
Y584252D03*
Y588189D03*
Y592126D03*
Y596063D03*
Y600000D03*
Y603937D03*
Y607874D03*
Y611811D03*
Y615748D03*
Y619685D03*
Y623622D03*
Y627559D03*
Y631496D03*
Y635433D03*
Y639370D03*
Y643307D03*
Y647244D03*
Y651181D03*
Y655118D03*
Y659055D03*
X1078346Y529134D03*
Y533071D03*
Y537008D03*
Y540945D03*
Y544882D03*
Y548819D03*
Y552756D03*
Y556693D03*
Y560630D03*
Y564567D03*
Y568504D03*
Y572441D03*
Y576378D03*
Y580315D03*
Y584252D03*
Y588189D03*
Y592126D03*
Y596063D03*
Y600000D03*
Y603937D03*
Y607874D03*
Y611811D03*
Y615748D03*
Y619685D03*
Y623622D03*
Y627559D03*
Y631496D03*
Y635433D03*
Y639370D03*
Y643307D03*
Y647244D03*
Y651181D03*
Y655118D03*
Y659055D03*
X1082283Y529134D03*
Y533071D03*
Y537008D03*
Y540945D03*
Y544882D03*
Y548819D03*
Y552756D03*
Y556693D03*
Y560630D03*
Y564567D03*
Y568504D03*
Y572441D03*
Y576378D03*
Y580315D03*
Y584252D03*
Y588189D03*
Y592126D03*
Y596063D03*
Y600000D03*
Y603937D03*
Y607874D03*
Y611811D03*
Y615748D03*
Y619685D03*
Y623622D03*
Y627559D03*
Y631496D03*
Y635433D03*
Y639370D03*
Y643307D03*
Y647244D03*
Y651181D03*
Y655118D03*
Y659055D03*
X1086220Y529134D03*
Y533071D03*
Y537008D03*
Y540945D03*
Y544882D03*
Y548819D03*
Y552756D03*
Y556693D03*
Y560630D03*
Y564567D03*
Y568504D03*
Y572441D03*
Y576378D03*
Y580315D03*
Y584252D03*
Y588189D03*
Y592126D03*
Y596063D03*
Y600000D03*
Y603937D03*
Y607874D03*
Y611811D03*
Y615748D03*
Y619685D03*
Y623622D03*
Y627559D03*
Y631496D03*
Y635433D03*
Y639370D03*
Y643307D03*
Y647244D03*
Y651181D03*
Y655118D03*
Y659055D03*
X549250Y952561D02*
X551219D01*
X549250Y950002D02*
X551219D01*
X549250Y947443D02*
X551219D01*
X560274D02*
X562243D01*
X560274Y950002D02*
X562243D01*
X560274Y952561D02*
X562243D01*
X560274Y955120D02*
X562243D01*
X550250Y977061D02*
X552219D01*
X550250Y974502D02*
X552219D01*
X550250Y971943D02*
X552219D01*
X561274D02*
X563243D01*
X561274Y974502D02*
X563243D01*
X561274Y977061D02*
X563243D01*
X561274Y979620D02*
X563243D01*
X550750Y1026061D02*
X552719D01*
X550750Y1023502D02*
X552719D01*
X550750Y1020943D02*
X552719D01*
X561774D02*
X563743D01*
X561774Y1023502D02*
X563743D01*
X561774Y1026061D02*
X563743D01*
X561774Y1028620D02*
X563743D01*
X550750Y1001561D02*
X552719D01*
X550750Y999002D02*
X552719D01*
X550750Y996443D02*
X552719D01*
X561774D02*
X563743D01*
X561774Y999002D02*
X563743D01*
X561774Y1001561D02*
X563743D01*
X561774Y1004120D02*
X563743D01*
G54D32*
X588189Y661024D03*
X733858Y515354D03*
X816535Y562598D03*
X867717Y621654D03*
X1094094Y521260D03*
X948425Y666929D03*
X927162Y443910D03*
X1011414Y359658D03*
X927165Y603937D03*
X212205Y861811D03*
X287008Y787008D03*
X796850Y470079D03*
X863780Y544882D03*
X796850Y649213D03*
X863780Y724016D03*
X1292913Y1003543D03*
Y109843D03*
X111811Y924803D03*
G54D34*
X470374Y680866D02*
X472539D01*
X470374Y670866D02*
X472539D01*
X470374Y660866D02*
X472539D01*
X487303D02*
X489469D01*
X487303Y670866D02*
X489469D01*
X487303Y680866D02*
X489469D01*
X470374Y735984D02*
X472539D01*
X470374Y725984D02*
X472539D01*
X470374Y715984D02*
X472539D01*
X487303D02*
X489469D01*
X487303Y725984D02*
X489469D01*
X487303Y735984D02*
X489469D01*
X470374Y643465D02*
X472539D01*
X470374Y633465D02*
X472539D01*
X470374Y623465D02*
X472539D01*
X487303D02*
X489469D01*
X487303Y633465D02*
X489469D01*
X487303Y643465D02*
X489469D01*
X470374Y602126D02*
X472539D01*
X470374Y592126D02*
X472539D01*
X470374Y582126D02*
X472539D01*
X487303D02*
X489469D01*
X487303Y592126D02*
X489469D01*
X487303Y602126D02*
X489469D01*
G54D35*
X259940Y506366D02*
X260136D01*
X263483D02*
X263680D01*
X1069335Y242079D02*
X1069138D01*
X1065791D02*
X1065594D01*
X1254857Y931431D02*
Y931628D01*
Y934975D02*
Y935172D01*
X446513Y884098D02*
Y883901D01*
Y880554D02*
Y880357D01*
X1088583Y362500D02*
Y362303D01*
Y358957D02*
Y358760D01*
X1100000Y317618D02*
Y317421D01*
Y314075D02*
Y313878D01*
X1057480Y362500D02*
Y362303D01*
Y358957D02*
Y358760D01*
X1131496Y317618D02*
Y317421D01*
Y314075D02*
Y313878D01*
X497736Y680709D02*
X497933D01*
X501280D02*
X501476D01*
X496949Y736220D02*
X497146D01*
X500492D02*
X500689D01*
X966311Y929182D03*
X962767D03*
X959224D03*
Y922182D03*
X962767D03*
X966311D03*
Y916182D03*
X962767D03*
X959224D03*
X966311Y904082D03*
X962767D03*
X959224D03*
Y910182D03*
X962767D03*
X966311D03*
X935224Y885182D03*
X938767D03*
X942311D03*
X935224Y878182D03*
X938767D03*
X942311D03*
X935224Y871182D03*
X938767D03*
X942311D03*
X935224Y865182D03*
X938767D03*
X942311D03*
X959224Y898182D03*
X962767D03*
X966311D03*
Y892182D03*
X962767D03*
X959224D03*
Y948182D03*
X962767D03*
X966311D03*
Y942182D03*
X962767D03*
X959224D03*
Y935182D03*
X962767D03*
X966311D03*
X537963Y959120D03*
X541506D03*
X652735Y947892D03*
Y944349D03*
X629506Y1045920D03*
X625963D03*
X642206D03*
X638663D03*
X663735Y947892D03*
Y944349D03*
X460236Y680906D03*
Y684449D03*
X542506Y978120D03*
X538963D03*
X542506Y972120D03*
X538963D03*
X541506Y953620D03*
X537963D03*
X541506Y947620D03*
X537963D03*
X538963Y983620D03*
X542506D03*
X637205Y873622D03*
X633661D03*
Y867717D03*
X637205D03*
X582480D03*
X586024D03*
Y873622D03*
X582480D03*
X534843D03*
X531299D03*
Y867717D03*
X534843D03*
X543006Y996620D03*
X539463D03*
X543006Y1002620D03*
X539463D03*
X543006Y1027120D03*
X539463D03*
X543006Y1021120D03*
X539463D03*
Y1008120D03*
X543006D03*
X539463Y1032620D03*
X543006D03*
X673735Y947892D03*
Y944349D03*
X617106Y1045920D03*
X613563D03*
X604306D03*
X600763D03*
X683735Y947892D03*
Y944349D03*
X460236Y735630D03*
Y739173D03*
X543006Y1013620D03*
X539463D03*
X543006Y1038120D03*
X539463D03*
X581963Y996620D03*
X585506D03*
X582463Y1020620D03*
X586006D03*
X993299Y744283D03*
Y747827D03*
X970508Y317942D03*
X966964D03*
X1042770Y403428D03*
X1046313D03*
X1049857D03*
Y409428D03*
X1046313D03*
X1042770D03*
X1049857Y396428D03*
X1046313D03*
X1042770D03*
X1052693Y236079D03*
X1056236D03*
X1024332Y248689D03*
Y245145D03*
X992520Y244291D03*
Y240748D03*
X1008282Y248689D03*
Y245145D03*
X1016159Y248689D03*
Y245145D03*
X1069236Y236079D03*
X1065693D03*
X1009646Y684646D03*
X1006102D03*
X920669Y603937D03*
X917126D03*
Y554724D03*
X920669D03*
X931102Y690354D03*
Y693898D03*
X937008Y690354D03*
Y693898D03*
X919291Y690354D03*
Y693898D03*
X913386Y690354D03*
Y693898D03*
X925197Y690354D03*
Y693898D03*
X1089896Y328380D03*
Y331924D03*
X1081890Y398228D03*
Y401772D03*
X1122047Y356890D03*
Y360433D03*
X925984Y617126D03*
Y613583D03*
X954724Y693898D03*
Y690354D03*
X948819Y693898D03*
Y690354D03*
X1060630Y391535D03*
Y387992D03*
X1101117Y356924D03*
X1097573D03*
X1056236Y242079D03*
X1052693D03*
X942913Y693898D03*
Y690354D03*
X909843Y653740D03*
Y650197D03*
X1019291Y469882D03*
Y466339D03*
X591735Y986120D02*
X595475D01*
X591735Y981120D02*
X595475D01*
X591735Y976120D02*
X595475D01*
X591735Y971120D02*
X595475D01*
X612994D02*
X616735D01*
X612994Y976120D02*
X616735D01*
X612994Y981120D02*
X616735D01*
X612994Y986120D02*
X616735D01*
X590235Y962620D02*
X593975D01*
X590235Y957620D02*
X593975D01*
X590235Y952620D02*
X593975D01*
X590235Y947620D02*
X593975D01*
X611494D02*
X615235D01*
X611494Y952620D02*
X615235D01*
X611494Y957620D02*
X615235D01*
X611494Y962620D02*
X615235D01*
X591735Y1011120D02*
X595475D01*
X591735Y1006120D02*
X595475D01*
X591735Y1001120D02*
X595475D01*
X591735Y996120D02*
X595475D01*
X612994D02*
X616735D01*
X612994Y1001120D02*
X616735D01*
X612994Y1006120D02*
X616735D01*
X612994Y1011120D02*
X616735D01*
X591935Y1035920D02*
X595675D01*
X591935Y1030920D02*
X595675D01*
X591935Y1025920D02*
X595675D01*
X591935Y1020920D02*
X595675D01*
X613194D02*
X616935D01*
X613194Y1025920D02*
X616935D01*
X613194Y1030920D02*
X616935D01*
X613194Y1035920D02*
X616935D01*
X1069780Y261339D02*
X1068205D01*
X1069780Y268819D02*
X1068205D01*
X1060724Y265079D02*
X1059150D01*
X1052994Y260009D02*
Y258040D01*
X1049254Y260009D02*
Y258040D01*
X1045514Y260009D02*
Y258040D01*
Y249773D02*
Y247804D01*
X1052994Y249773D02*
Y247804D01*
X1032324Y248685D03*
Y245141D03*
X1070161Y942347D03*
X1073704D03*
X1070128Y931355D03*
X1073671D03*
Y910155D03*
X1070128D03*
X1073671Y915555D03*
X1070128D03*
X1073671Y923455D03*
X1070128D03*
X962196Y885382D03*
X965739D03*
X961996Y878182D03*
X965539D03*
X961996Y871182D03*
X965539D03*
X961996Y865182D03*
X965539D03*
X1026772Y840748D03*
Y844291D03*
X1022047Y840748D03*
Y844291D03*
X860630Y315157D03*
Y311614D03*
X1005299Y840383D03*
Y843927D03*
X1035433Y840748D03*
Y844291D03*
X1073571Y905755D03*
X1070028D03*
X1131299Y631496D03*
X1127756D03*
X1239272Y425383D03*
X1242815D03*
X1255428Y642296D03*
Y638753D03*
X1260461Y642296D03*
Y638753D03*
X917520Y597638D03*
X921063D03*
X917126Y542913D03*
X920669D03*
X1181825Y906136D03*
X1185369D03*
X917126Y562992D03*
X920669D03*
X917126Y592126D03*
X920669D03*
X905118Y617520D03*
Y613976D03*
X897835Y592520D03*
X901378D03*
X473785Y860628D03*
X470242D03*
X918898Y617520D03*
Y613976D03*
X917126Y587795D03*
X920669D03*
X401313Y877399D03*
Y873856D03*
X887795Y315157D03*
Y311614D03*
X917126Y558661D03*
X920669D03*
X910039Y578346D03*
X913583D03*
X917126Y583071D03*
X920669D03*
X541142Y635433D03*
X544685D03*
X899213Y470276D03*
Y473819D03*
X1208661Y986713D02*
Y986909D01*
Y990256D02*
Y990453D01*
X1220079D02*
Y990256D01*
Y986909D02*
Y986713D01*
X1256693Y990453D02*
Y990256D01*
Y986909D02*
Y986713D01*
X1246063D02*
Y986909D01*
Y990256D02*
Y990453D01*
X331549Y656407D02*
Y656604D01*
Y659950D02*
Y660147D01*
X333479Y313421D02*
Y313618D01*
Y316965D02*
Y317161D01*
X537106Y706299D02*
X537303D01*
X540650D02*
X540846D01*
X537106Y710236D02*
X537303D01*
X540650D02*
X540846D01*
X893307Y473917D02*
Y473720D01*
Y470374D02*
Y470177D01*
X1265354Y639469D02*
Y639665D01*
Y643012D02*
Y643209D01*
X912992Y789075D02*
Y789272D01*
Y792618D02*
Y792815D01*
X1066909Y367028D02*
Y370768D01*
X1071909Y367028D02*
Y370768D01*
X1076909Y367028D02*
Y370768D01*
X1081909Y367028D02*
Y370768D01*
Y388287D02*
Y392028D01*
X1076909Y388287D02*
Y392028D01*
X1071909Y388287D02*
Y392028D01*
X1066909Y388287D02*
Y392028D01*
X324254Y880146D02*
X326223D01*
X324254Y876406D02*
X326223D01*
X324254Y872665D02*
X326223D01*
X334490D02*
X336459D01*
X334490Y876406D02*
X336459D01*
X334490Y880146D02*
X336459D01*
X1102756Y676575D03*
Y680118D03*
X965704Y859347D03*
X962161D03*
X1111417Y676575D03*
Y680118D03*
X1031102Y840748D03*
Y844291D03*
X1120079Y676575D03*
Y680118D03*
X1115748Y676575D03*
Y680118D03*
X934796Y898082D03*
X938339D03*
X934796Y892082D03*
X938339D03*
X934796Y948082D03*
X938339D03*
X934796Y942082D03*
X938339D03*
X934796Y935082D03*
X938339D03*
X934796Y929082D03*
X938339D03*
X934796Y922082D03*
X938339D03*
X934796Y916082D03*
X938339D03*
X934796Y903982D03*
X938339D03*
X934796Y910082D03*
X938339D03*
X1073704Y948347D03*
X1070161D03*
X1017323Y840748D03*
Y844291D03*
X458306Y941720D03*
X454763D03*
X541142Y627559D03*
X544685D03*
X265550Y541799D03*
X262007D03*
X265550Y535894D03*
X262007D03*
X901181Y789173D03*
Y792717D03*
X907087D03*
Y789173D03*
X1039932Y318042D03*
X1043475D03*
X1030171D03*
X1033714D03*
X1020117D03*
X1023660D03*
X905118Y473819D03*
Y470276D03*
X875984Y311220D03*
Y314764D03*
X1107087Y676575D03*
Y680118D03*
X1097638Y676575D03*
Y680118D03*
X985433Y730512D03*
Y734055D03*
Y747835D03*
Y744291D03*
X1225984Y986811D03*
Y990354D03*
X1261417Y986811D03*
Y990354D03*
X990508Y317942D03*
X986964D03*
X980508D03*
X976964D03*
X1000508Y318042D03*
X996964D03*
X954708Y317942D03*
X951164D03*
X1000394Y244291D03*
Y240748D03*
X920669Y538976D03*
X917126D03*
X1088189Y387598D03*
Y391142D03*
X1077165Y397835D03*
Y401378D03*
X917126Y535039D03*
X920669D03*
X917126Y550787D03*
X920669D03*
X1181431Y886845D03*
X1184975D03*
X515505Y925218D02*
X515702D01*
X519048D02*
X519245D01*
X689370Y481988D02*
Y482185D01*
Y485531D02*
Y485728D01*
X705118Y481988D02*
Y482185D01*
Y485531D02*
Y485728D01*
X720866Y481988D02*
Y482185D01*
Y485531D02*
Y485728D01*
X735827Y481988D02*
Y482185D01*
Y485531D02*
Y485728D01*
X441535Y939991D02*
Y939794D01*
Y936447D02*
Y936250D01*
X346161Y889370D02*
X346358D01*
X349705D02*
X349902D01*
X316928Y435598D02*
Y435795D01*
Y439142D02*
Y439339D01*
X322833Y494654D02*
Y494850D01*
Y498197D02*
Y498394D01*
Y504496D02*
Y504693D01*
Y508039D02*
Y508236D01*
X330810Y593412D02*
Y593609D01*
Y596956D02*
Y597153D01*
X299835Y932891D02*
Y932694D01*
Y929347D02*
Y929150D01*
X340935Y942691D02*
Y942494D01*
Y939147D02*
Y938950D01*
X299935Y942191D02*
Y941994D01*
Y938647D02*
Y938450D01*
X1065699Y202225D02*
Y202028D01*
Y198682D02*
Y198485D01*
X775295Y568504D02*
X775492D01*
X778839D02*
X779035D01*
Y548819D02*
X778839D01*
X775492D02*
X775295D01*
X781004Y605906D02*
X780807D01*
X777461D02*
X777264D01*
X798819Y733957D02*
Y734154D01*
Y737500D02*
Y737697D01*
X877657Y653150D02*
X877854D01*
X881201D02*
X881398D01*
X859843Y737894D02*
Y738091D01*
Y741437D02*
Y741634D01*
X657087Y481988D02*
Y482185D01*
Y485531D02*
Y485728D01*
X440535Y950650D02*
Y950847D01*
Y954194D02*
Y954391D01*
X406765Y967020D02*
X406961D01*
X410308D02*
X410505D01*
X483635Y942491D02*
Y942294D01*
Y938947D02*
Y938750D01*
X483935Y950550D02*
Y950747D01*
Y954094D02*
Y954291D01*
X260365Y968720D02*
X260561D01*
X263908D02*
X264105D01*
X301565Y958320D02*
X301761D01*
X305108D02*
X305305D01*
X896299Y433012D02*
Y433209D01*
Y436555D02*
Y436752D01*
X337465Y950420D02*
X337661D01*
X341008D02*
X341205D01*
X1251575Y986713D02*
Y986909D01*
Y990256D02*
Y990453D01*
X1240551Y986713D02*
Y986909D01*
Y990256D02*
Y990453D01*
X1214173Y986713D02*
Y986909D01*
Y990256D02*
Y990453D01*
X1203543Y986713D02*
Y986909D01*
Y990256D02*
Y990453D01*
X377713Y861999D03*
Y858456D03*
X944708Y317942D03*
X941164D03*
X934708D03*
X931164D03*
X274106Y942420D03*
X270563D03*
X313606Y942520D03*
X310063D03*
X492146Y933518D03*
X488603D03*
X501175Y966046D03*
Y969590D03*
X492175Y966046D03*
Y969590D03*
X510175Y966046D03*
Y969590D03*
X519175Y966046D03*
Y969590D03*
X417106Y941120D03*
X413563D03*
X182776Y828346D02*
X182972D01*
X186319D02*
X186516D01*
X182776Y816535D02*
X182972D01*
X186319D02*
X186516D01*
X182776Y804724D02*
X182972D01*
X186319D02*
X186516D01*
X182335Y792913D02*
X182531D01*
X185878D02*
X186075D01*
X216142Y889469D02*
Y889665D01*
Y893012D02*
Y893209D01*
X237795Y889469D02*
Y889665D01*
Y893012D02*
Y893209D01*
X249606Y889469D02*
Y889665D01*
Y893012D02*
Y893209D01*
X273228Y889469D02*
Y889665D01*
Y893012D02*
Y893209D01*
X290945Y887795D03*
Y891339D03*
Y894882D03*
X108676Y741931D03*
Y745475D03*
Y749018D03*
X320079Y771260D03*
X316535D03*
X312992D03*
X1261550Y353971D03*
Y350428D03*
X1267849D03*
Y353971D03*
X109335Y626692D03*
Y623149D03*
X156496Y1037402D03*
X160039D03*
X156496Y1042126D03*
X160039D03*
X154134Y991339D03*
X157677D03*
X1274148Y353971D03*
Y350428D03*
X1274935Y372475D03*
Y376018D03*
X151424Y631894D03*
X147881D03*
Y626994D03*
X151424D03*
X157677Y996850D03*
X154134D03*
X182776Y855906D02*
X182972D01*
X186319D02*
X186516D01*
X318406Y840157D02*
X318209D01*
X314862D02*
X314665D01*
Y851969D02*
X314862D01*
X318209D02*
X318406D01*
X182776Y867717D02*
X182972D01*
X186319D02*
X186516D01*
X261417Y893209D02*
Y893012D01*
Y889665D02*
Y889469D01*
X318406Y796850D02*
X318209D01*
X314862D02*
X314665D01*
Y828346D02*
X314862D01*
X318209D02*
X318406D01*
X225984Y893209D02*
Y893012D01*
Y889665D02*
Y889469D01*
X283071Y893209D02*
Y893012D01*
Y889665D02*
Y889469D01*
X1020099Y203825D02*
Y203628D01*
Y200282D02*
Y200085D01*
X188754Y1003668D02*
Y1003865D01*
Y1007211D02*
Y1007408D01*
X222282Y1002959D02*
Y1003156D01*
Y1006502D02*
Y1006699D01*
X218286Y1013034D02*
X218483D01*
X221829D02*
X222026D01*
X1053299Y182283D03*
Y185827D03*
X460236Y643110D03*
Y639567D03*
X540945Y913189D03*
Y916732D03*
X1048299Y172283D03*
Y175827D03*
X987992Y838189D03*
X991535D03*
X641339Y913189D03*
Y916732D03*
X592126Y913189D03*
Y916732D03*
X987992Y830315D03*
X991535D03*
X466634Y566161D02*
X470374D01*
X466634Y561161D02*
X470374D01*
X466634Y556161D02*
X470374D01*
X466634Y551161D02*
X470374D01*
X487894D02*
X491634D01*
X487894Y556161D02*
X491634D01*
X487894Y561161D02*
X491634D01*
X487894Y566161D02*
X491634D01*
X461417Y554626D02*
Y554429D01*
Y551083D02*
Y550886D01*
X314665Y818504D02*
X314862D01*
X318209D02*
X318406D01*
X314665Y808661D02*
X314862D01*
X318209D02*
X318406D01*
X314665Y785039D02*
X314862D01*
X318209D02*
X318406D01*
X1053099Y202225D02*
Y202028D01*
Y198682D02*
Y198485D01*
X1100299Y202525D02*
Y202328D01*
Y198982D02*
Y198785D01*
X188518Y992644D02*
Y992841D01*
Y996187D02*
Y996384D01*
X222046Y996857D02*
Y996660D01*
Y993313D02*
Y993117D01*
X1293459Y473754D02*
Y470014D01*
X1288459Y473754D02*
Y470014D01*
X1283459Y473754D02*
Y470014D01*
X1278459Y473754D02*
Y470014D01*
Y452494D02*
Y448754D01*
X1283459Y452494D02*
Y448754D01*
X1288459Y452494D02*
Y448754D01*
X1293459Y452494D02*
Y448754D01*
X1294246Y567849D02*
Y564109D01*
X1289246Y567849D02*
Y564109D01*
X1284246Y567849D02*
Y564109D01*
X1279246Y567849D02*
Y564109D01*
Y546589D02*
Y542849D01*
X1284246Y546589D02*
Y542849D01*
X1289246Y546589D02*
Y542849D01*
X1294246Y546589D02*
Y542849D01*
X259366Y270243D02*
Y273983D01*
X264366Y270243D02*
Y273983D01*
X269366Y270243D02*
Y273983D01*
X274366Y270243D02*
Y273983D01*
Y291503D02*
Y295243D01*
X269366Y291503D02*
Y295243D01*
X264366Y291503D02*
Y295243D01*
X259366Y291503D02*
Y295243D01*
X1269424Y372475D03*
Y376018D03*
X1281235D03*
Y372475D03*
X280817Y268435D03*
Y271978D03*
X1028299Y172283D03*
Y175827D03*
X1048299Y185827D03*
Y182283D03*
X1043299Y175827D03*
Y172283D03*
X460236Y601772D03*
Y598228D03*
X1095299Y186827D03*
Y183283D03*
X1100299D03*
Y186827D03*
X1075299Y172283D03*
Y175827D03*
X1070299D03*
Y172283D03*
X338863Y965720D03*
X342406D03*
X1073818Y893459D03*
X1070275D03*
X1252888Y263026D03*
Y259483D03*
X1240290Y184286D03*
Y187829D03*
X129293Y370502D03*
X125750D03*
X330810Y605223D02*
Y605420D01*
Y608767D02*
Y608964D01*
X326770Y439339D02*
Y439142D01*
Y435795D02*
Y435598D01*
X903661Y432697D02*
Y432894D01*
Y436240D02*
Y436437D01*
X235827Y908366D02*
Y908563D01*
Y911909D02*
Y912106D01*
X265354Y907972D02*
Y908169D01*
Y911516D02*
Y911713D01*
X1127953Y356496D03*
Y360039D03*
X818504Y442717D03*
Y446260D03*
X668602Y913780D02*
X668799D01*
X672146D02*
X672343D01*
X567701Y914567D02*
X567898D01*
X571244D02*
X571441D01*
X620965Y913386D02*
X621161D01*
X624508D02*
X624705D01*
X1033299Y172185D02*
Y172382D01*
Y175728D02*
Y175925D01*
X1080299Y172185D02*
Y172382D01*
Y175728D02*
Y175925D01*
X920669Y546850D03*
X917126D03*
X881496Y617520D03*
Y613976D03*
X417206Y953420D03*
X413663D03*
X919094Y628346D03*
X922638D03*
X909921Y418346D03*
Y414803D03*
X1024606Y685039D03*
X1028150D03*
X893307Y617520D03*
Y613976D03*
X919094Y623622D03*
X922638D03*
X919094Y633465D03*
X922638D03*
X887402Y617520D03*
Y613976D03*
X270663Y952920D03*
X274206D03*
X1065699Y191125D02*
Y190928D01*
Y187582D02*
Y187385D01*
X1019799Y191225D02*
Y191028D01*
Y187682D02*
Y187485D01*
X1090299Y175827D03*
Y172283D03*
X1095299D03*
Y175827D03*
X1023299D03*
Y172283D03*
X354951Y883902D02*
X358691D01*
X354951Y878902D02*
X358691D01*
X354951Y873902D02*
X358691D01*
X354951Y868902D02*
X358691D01*
X376211D02*
X379951D01*
X376211Y873902D02*
X379951D01*
X376211Y878902D02*
X379951D01*
X376211Y883902D02*
X379951D01*
X456802Y884002D02*
X460543D01*
X456802Y879002D02*
X460543D01*
X456802Y874002D02*
X460543D01*
X456802Y869002D02*
X460543D01*
X478062D02*
X481802D01*
X478062Y874002D02*
X481802D01*
X478062Y879002D02*
X481802D01*
X478062Y884002D02*
X481802D01*
X1100299Y175925D02*
Y175728D01*
Y172382D02*
Y172185D01*
X1053299Y175925D02*
Y175728D01*
Y172382D02*
Y172185D01*
X1038299Y172283D03*
Y175827D03*
X1085299Y172283D03*
Y175827D03*
X670866Y678642D02*
Y678445D01*
Y675098D02*
Y674902D01*
X197343Y957087D02*
X197539D01*
X200886D02*
X201083D01*
X225197Y927067D02*
Y926870D01*
Y923524D02*
Y923327D01*
X566929Y678642D02*
Y678445D01*
Y675098D02*
Y674902D01*
X562992Y678642D02*
Y678445D01*
Y675098D02*
Y674902D01*
X559055Y678642D02*
Y678445D01*
Y675098D02*
Y674902D01*
X555118Y678642D02*
Y678445D01*
Y675098D02*
Y674902D01*
X631496Y678642D02*
Y678445D01*
Y675098D02*
Y674902D01*
X627559Y678642D02*
Y678445D01*
Y675098D02*
Y674902D01*
X619685Y678642D02*
Y678445D01*
Y675098D02*
Y674902D01*
X623622Y678642D02*
Y678445D01*
Y675098D02*
Y674902D01*
X607874Y678642D02*
Y678445D01*
Y675098D02*
Y674902D01*
X603937Y678642D02*
Y678445D01*
Y675098D02*
Y674902D01*
X578740Y678642D02*
Y678445D01*
Y675098D02*
Y674902D01*
X582677Y678642D02*
Y678445D01*
Y675098D02*
Y674902D01*
X655118Y678642D02*
Y678445D01*
Y675098D02*
Y674902D01*
X651181Y678642D02*
Y678445D01*
Y675098D02*
Y674902D01*
X643307Y678642D02*
Y678445D01*
Y675098D02*
Y674902D01*
X647244Y678642D02*
Y678445D01*
Y675098D02*
Y674902D01*
X678740Y678642D02*
Y678445D01*
Y675098D02*
Y674902D01*
X674803Y678642D02*
Y678445D01*
Y675098D02*
Y674902D01*
X666929Y678642D02*
Y678445D01*
Y675098D02*
Y674902D01*
X738189Y678642D02*
Y678445D01*
Y675098D02*
Y674902D01*
X734252Y678642D02*
Y678445D01*
Y675098D02*
Y674902D01*
X714173Y678642D02*
Y678445D01*
Y675098D02*
Y674902D01*
X718110Y678642D02*
Y678445D01*
Y675098D02*
Y674902D01*
X694488Y678642D02*
Y678445D01*
Y675098D02*
Y674902D01*
X690551Y678642D02*
Y678445D01*
Y675098D02*
Y674902D01*
X702362Y678642D02*
Y678445D01*
Y675098D02*
Y674902D01*
X698425Y678642D02*
Y678445D01*
Y675098D02*
Y674902D01*
X755512Y678642D02*
Y678445D01*
Y675098D02*
Y674902D01*
X751575Y678642D02*
Y678445D01*
Y675098D02*
Y674902D01*
X762992Y679035D02*
Y678839D01*
Y675492D02*
Y675295D01*
X766929Y679035D02*
Y678839D01*
Y675492D02*
Y675295D01*
X537106Y655118D02*
X537303D01*
X540650D02*
X540846D01*
X537106Y659055D02*
X537303D01*
X540650D02*
X540846D01*
X509547Y651181D02*
X509744D01*
X513091D02*
X513287D01*
X509547Y686614D02*
X509744D01*
X513091D02*
X513287D01*
X509547Y646850D02*
X509744D01*
X513091D02*
X513287D01*
X509547Y690551D02*
X509744D01*
X513091D02*
X513287D01*
X509547Y745669D02*
X509744D01*
X513091D02*
X513287D01*
X509547Y702362D02*
X509744D01*
X513091D02*
X513287D01*
X509547Y741732D02*
X509744D01*
X513091D02*
X513287D01*
X509547Y706299D02*
X509744D01*
X513091D02*
X513287D01*
X537106Y682677D02*
X537303D01*
X540650D02*
X540846D01*
X537106Y678740D02*
X537303D01*
X540650D02*
X540846D01*
X537106Y674803D02*
X537303D01*
X540650D02*
X540846D01*
X537106Y670866D02*
X537303D01*
X540650D02*
X540846D01*
X537106Y666929D02*
X537303D01*
X540650D02*
X540846D01*
X537106Y662992D02*
X537303D01*
X540650D02*
X540846D01*
X537106Y714173D02*
X537303D01*
X540650D02*
X540846D01*
X537106Y718110D02*
X537303D01*
X540650D02*
X540846D01*
X537106Y722047D02*
X537303D01*
X540650D02*
X540846D01*
X537106Y725984D02*
X537303D01*
X540650D02*
X540846D01*
X537106Y729921D02*
X537303D01*
X540650D02*
X540846D01*
X537106Y733858D02*
X537303D01*
X540650D02*
X540846D01*
X284349Y532350D02*
X284546D01*
X287892D02*
X288089D01*
X1265453Y607874D02*
X1265650D01*
X1268996D02*
X1269193D01*
X1269094Y601969D03*
X1265551D03*
X284448Y528020D03*
X287991D03*
X775295Y558661D02*
X775492D01*
X778839D02*
X779035D01*
X586220Y485728D02*
Y485531D01*
Y482185D02*
Y481988D01*
X601969Y485728D02*
Y485531D01*
Y482185D02*
Y481988D01*
X617717Y485728D02*
Y485531D01*
Y482185D02*
Y481988D01*
X634252Y485728D02*
Y485531D01*
Y482185D02*
Y481988D01*
X680709Y485728D02*
Y485531D01*
Y482185D02*
Y481988D01*
X697244Y485728D02*
Y485531D01*
Y482185D02*
Y481988D01*
X712992Y485728D02*
Y485531D01*
Y482185D02*
Y481988D01*
X728740Y485728D02*
Y485531D01*
Y482185D02*
Y481988D01*
X556594Y517323D02*
X556398D01*
X553051D02*
X552854D01*
X556594Y525197D02*
X556398D01*
X553051D02*
X552854D01*
X556594Y533071D02*
X556398D01*
X553051D02*
X552854D01*
X556594Y540945D02*
X556398D01*
X553051D02*
X552854D01*
X556594Y548819D02*
X556398D01*
X553051D02*
X552854D01*
X556594Y580315D02*
X556398D01*
X553051D02*
X552854D01*
X556594Y588189D02*
X556398D01*
X553051D02*
X552854D01*
X556594Y596063D02*
X556398D01*
X553051D02*
X552854D01*
X556594Y603937D02*
X556398D01*
X553051D02*
X552854D01*
X556594Y556693D02*
X556398D01*
X553051D02*
X552854D01*
X556594Y509449D02*
X556398D01*
X553051D02*
X552854D01*
X578346Y481988D02*
Y482185D01*
Y485531D02*
Y485728D01*
X594094Y481988D02*
Y482185D01*
Y485531D02*
Y485728D01*
X609843Y481988D02*
Y482185D01*
Y485531D02*
Y485728D01*
X625591Y481988D02*
Y482185D01*
Y485531D02*
Y485728D01*
X641732Y481988D02*
Y482185D01*
Y485531D02*
Y485728D01*
X650000Y481988D02*
Y482185D01*
Y485531D02*
Y485728D01*
X664961Y481988D02*
Y482185D01*
Y485531D02*
Y485728D01*
X672835Y481988D02*
Y482185D01*
Y485531D02*
Y485728D01*
X580963Y947620D03*
X584506D03*
X582463Y971120D03*
X586006D03*
X542506Y989120D03*
X538963D03*
X541506Y964620D03*
X537963D03*
X668504Y441929D03*
Y438386D03*
X816142Y429724D03*
Y426181D03*
X810630Y429724D03*
Y426181D03*
X676772Y442323D03*
Y438780D03*
X1288321Y353971D03*
Y350428D03*
X248051Y213724D03*
X244508D03*
X1281235Y353971D03*
Y350428D03*
X244817Y236057D03*
X241274D03*
X247899Y204626D03*
X244355D03*
X251084Y255124D03*
X247540D03*
X237598Y409843D03*
X241142D03*
X218701Y387795D03*
X215157D03*
X191732Y612402D03*
Y615945D03*
X174148Y623656D03*
Y627199D03*
X103929Y370227D03*
X107472D03*
X137205Y397244D03*
X140748D03*
X541142Y643307D03*
X544685D03*
X541142Y619685D03*
X544685D03*
X540354Y596063D03*
X543898D03*
X540354Y588189D03*
X543898D03*
X552953Y564567D03*
X556496D03*
X552953Y572441D03*
X556496D03*
X777362Y613780D03*
X780906D03*
X777362Y621654D03*
X780906D03*
X1141056Y204925D02*
Y210437D01*
X1150899Y204925D02*
Y210437D01*
X1155820Y204925D02*
Y210437D01*
X1160741Y204925D02*
Y210437D01*
X1164599Y204925D02*
Y210437D01*
X1170584Y204925D02*
Y210437D01*
X1175505Y204925D02*
Y210437D01*
X1180466Y204925D02*
Y210437D01*
X1190308Y204925D02*
Y210437D01*
X1195229Y204925D02*
Y210437D01*
X1200151Y204925D02*
Y210437D01*
X1205072Y204925D02*
Y210437D01*
X1209678Y204925D02*
Y210437D01*
X1216568Y204925D02*
Y210437D01*
X1097593Y326313D02*
Y330054D01*
X1102593Y326313D02*
Y330054D01*
X1107593Y326313D02*
Y330054D01*
X1112593Y326313D02*
Y330054D01*
X1117593Y326313D02*
Y330054D01*
X1122593Y326313D02*
Y330054D01*
X1127593Y326313D02*
Y330054D01*
X1132593Y326313D02*
Y330054D01*
Y347573D02*
Y351313D01*
X1127593Y347573D02*
Y351313D01*
X1122593Y347573D02*
Y351313D01*
X1117593Y347573D02*
Y351313D01*
X1112593Y347573D02*
Y351313D01*
X1107593Y347573D02*
Y351313D01*
X1102593Y347573D02*
Y351313D01*
X1097593Y347573D02*
Y351313D01*
X920664Y530697D03*
X917120D03*
X905118Y859941D02*
Y860138D01*
Y863484D02*
Y863681D01*
X924016Y863583D03*
Y860039D03*
X894882Y863583D03*
Y860039D03*
X229921Y934449D03*
Y937992D03*
X224803D03*
Y934449D03*
X914173Y860039D03*
Y863583D03*
X216831Y929508D02*
X212303D01*
X216831Y934508D02*
X212303D01*
X216831Y939508D02*
X212303D01*
X216831Y944508D02*
X212303D01*
X188484D02*
X183957D01*
X188484Y939508D02*
X183957D01*
X188484Y934508D02*
X183957D01*
X188484Y929508D02*
X183957D01*
X920669Y525591D03*
X917126D03*
X981890Y462795D03*
Y459252D03*
G54D36*
X629183Y962526D02*
X635286D01*
X629183Y950715D02*
X635286D01*
X629183Y1011026D02*
X635286D01*
X629183Y999215D02*
X635286D01*
X629183Y1035826D02*
X635286D01*
X629183Y1024015D02*
X635286D01*
X1058327Y964896D02*
Y970998D01*
X1070138Y964896D02*
Y970998D01*
X1252233Y334744D02*
X1246131D01*
X1252233Y346555D02*
X1246131D01*
X1060921Y250488D02*
Y251669D01*
X1068008Y250488D02*
Y251669D01*
X629183Y986026D02*
X635286D01*
X629183Y974215D02*
X635286D01*
X141319Y615357D02*
X142500D01*
X141319Y608271D02*
X142500D01*
X159542Y146626D02*
X153439D01*
X159542Y158437D02*
X153439D01*
X187940Y285172D02*
Y279069D01*
X176129Y285172D02*
Y279069D01*
X119546Y472420D02*
X125648D01*
X119546Y460609D02*
X125648D01*
X125040Y285272D02*
Y279169D01*
X113229Y285272D02*
Y279169D01*
X1086027Y945296D02*
Y951398D01*
X1097838Y945296D02*
Y951398D01*
X1086027Y931296D02*
Y937398D01*
X1097838Y931296D02*
Y937398D01*
X918307Y349606D02*
X919488D01*
X918307Y342520D02*
X919488D01*
X268898Y321063D02*
Y319882D01*
X261811Y321063D02*
Y319882D01*
X531693Y889764D02*
X530512D01*
X531693Y896850D02*
X530512D01*
X634055Y889764D02*
X632874D01*
X634055Y896850D02*
X632874D01*
X582874Y889764D02*
X581693D01*
X582874Y896850D02*
X581693D01*
X202597Y892601D02*
Y891420D01*
X195510Y892601D02*
Y891420D01*
X190157Y846654D02*
Y845472D01*
X183071Y846654D02*
Y845472D01*
G54D37*
X482677Y694390D02*
Y694587D01*
X488976Y694390D02*
Y694587D01*
X482283Y747933D02*
Y748130D01*
X488583Y747933D02*
Y748130D01*
X1014469Y493701D02*
X1014665D01*
X1014469Y487402D02*
X1014665D01*
X1131594Y681496D02*
X1131398D01*
X1131594Y687795D02*
X1131398D01*
X1023917Y493701D02*
X1024114D01*
X1023917Y487402D02*
X1024114D01*
X1033366Y493701D02*
X1033563D01*
X1033366Y487402D02*
X1033563D01*
X1053051Y493701D02*
X1053248D01*
X1053051Y487402D02*
X1053248D01*
X1043602Y493701D02*
X1043799D01*
X1043602Y487402D02*
X1043799D01*
X139703Y741176D02*
X144231D01*
X139703Y723065D02*
X144231D01*
X555906Y834350D02*
Y834154D01*
X549606Y834350D02*
Y834154D01*
X660236Y834350D02*
Y834154D01*
X653937Y834350D02*
Y834154D01*
X609055Y834350D02*
Y834154D01*
X602756Y834350D02*
Y834154D01*
X455610Y545669D02*
X455413D01*
X455610Y551969D02*
X455413D01*
X132644Y652849D02*
Y652652D01*
X126345Y652849D02*
Y652652D01*
X655118Y921752D02*
Y921555D01*
X648819Y921752D02*
Y921555D01*
X554373Y922146D02*
Y921949D01*
X548073Y922146D02*
Y921949D01*
X604331Y921358D02*
Y921161D01*
X598031Y921358D02*
Y921161D01*
X997736Y142126D02*
X997539D01*
X997736Y148425D02*
X997539D01*
X967169Y176520D02*
Y176717D01*
X973469Y176520D02*
Y176717D01*
X711024Y196358D02*
Y196555D01*
X717323Y196358D02*
Y196555D01*
X711417Y184154D02*
Y184350D01*
X717717Y184154D02*
Y184350D01*
X648031Y153051D02*
Y153248D01*
X654331Y153051D02*
Y153248D01*
X629134Y173524D02*
Y173720D01*
X635433Y173524D02*
Y173720D01*
X377559Y165650D02*
Y165846D01*
X383858Y165650D02*
Y165846D01*
X377559Y179429D02*
Y179626D01*
X383858Y179429D02*
Y179626D01*
G54D38*
X651270Y966993D02*
X654223D01*
X651270Y955182D02*
X654223D01*
X662260Y966993D02*
X665212D01*
X662260Y955182D02*
X665212D01*
X912662Y929605D02*
Y932558D01*
X924473Y929605D02*
Y932558D01*
X911662Y917605D02*
Y920558D01*
X923473Y917605D02*
Y920558D01*
X672243Y966993D02*
X675195D01*
X672243Y955182D02*
X675195D01*
X682224Y966993D02*
X685177D01*
X682224Y955182D02*
X685177D01*
X860506Y278168D02*
Y285057D01*
Y294900D02*
Y301790D01*
X868380Y278168D02*
Y285057D01*
Y294900D02*
Y301790D01*
X876254Y278168D02*
Y285057D01*
Y294900D02*
Y301790D01*
X884128Y278168D02*
Y285057D01*
Y294900D02*
Y301790D01*
X892002Y278168D02*
Y285057D01*
Y294900D02*
Y301790D01*
X899876Y278168D02*
Y285057D01*
Y294900D02*
Y301790D01*
X907750Y278168D02*
Y285057D01*
Y294900D02*
Y301790D01*
X954331Y846063D02*
X961220D01*
X971063D02*
X977953D01*
X954331Y838189D02*
X961220D01*
X971063D02*
X977953D01*
X954331Y830315D02*
X961220D01*
X971063D02*
X977953D01*
X954331Y822441D02*
X961220D01*
X971063D02*
X977953D01*
X954331Y814567D02*
X961220D01*
X971063D02*
X977953D01*
X954331Y806693D02*
X961220D01*
X971063D02*
X977953D01*
X954331Y798819D02*
X961220D01*
X971063D02*
X977953D01*
X1023487Y235039D02*
X1025061D01*
X1023487Y227952D02*
X1025061D01*
X1031653Y235039D02*
X1033228D01*
X1031653Y227952D02*
X1033228D01*
X1015371Y235039D02*
X1016946D01*
X1015371Y227952D02*
X1016946D01*
X1007494Y235039D02*
X1009069D01*
X1007494Y227952D02*
X1009069D01*
X999606Y235039D02*
X1001181D01*
X999606Y227953D02*
X1001181D01*
X991732Y235039D02*
X993307D01*
X991732Y227953D02*
X993307D01*
X911662Y893605D02*
Y896558D01*
X923473Y893605D02*
Y896558D01*
X519984Y953278D02*
X518409D01*
X519984Y960365D02*
X518409D01*
X492984Y953278D02*
X491409D01*
X492984Y960365D02*
X491409D01*
X501984Y953278D02*
X500409D01*
X501984Y960365D02*
X500409D01*
X510984Y953278D02*
X509409D01*
X510984Y960365D02*
X509409D01*
X1058946Y165737D02*
Y166131D01*
G54D39*
X982586Y939182D02*
X989279D01*
X982586Y937213D02*
X989279D01*
X982586Y935245D02*
X989279D01*
X982586Y933276D02*
X989279D01*
X982586Y931308D02*
X989279D01*
X982586Y929339D02*
X989279D01*
X982586Y927371D02*
X989279D01*
X982586Y925402D02*
X989279D01*
X982586Y923434D02*
X989279D01*
X982586Y921465D02*
X989279D01*
X982586Y919497D02*
X989279D01*
X982586Y917528D02*
X989279D01*
X982586Y915560D02*
X989279D01*
X982586Y913591D02*
X989279D01*
X982586Y911623D02*
X989279D01*
X982586Y909654D02*
X989279D01*
X982586Y907686D02*
X989279D01*
X982586Y905717D02*
X989279D01*
X982586Y903749D02*
X989279D01*
X982586Y901780D02*
X989279D01*
X982586Y899812D02*
X989279D01*
X982586Y897843D02*
X989279D01*
X982586Y895875D02*
X989279D01*
X982586Y893906D02*
X989279D01*
X982586Y891938D02*
X989279D01*
X982586Y889969D02*
X989279D01*
X982586Y888001D02*
X989279D01*
X982586Y886032D02*
X989279D01*
X982586Y884064D02*
X989279D01*
X982586Y882095D02*
X989279D01*
X982586Y880127D02*
X989279D01*
X982586Y878158D02*
X989279D01*
X982586Y876190D02*
X989279D01*
X982586Y874221D02*
X989279D01*
X982586Y872253D02*
X989279D01*
X982586Y870284D02*
X989279D01*
X982586Y868316D02*
X989279D01*
X982586Y866347D02*
X989279D01*
X1050421D02*
X1057114D01*
X1050421Y868316D02*
X1057114D01*
X1050421Y870284D02*
X1057114D01*
X1050421Y872253D02*
X1057114D01*
X1050421Y874221D02*
X1057114D01*
X1050421Y876190D02*
X1057114D01*
X1050421Y878158D02*
X1057114D01*
X1050421Y880127D02*
X1057114D01*
X1050421Y882095D02*
X1057114D01*
X1050421Y884064D02*
X1057114D01*
X1050421Y886032D02*
X1057114D01*
X1050421Y888001D02*
X1057114D01*
X1050421Y889969D02*
X1057114D01*
X1050421Y891938D02*
X1057114D01*
X1050421Y893906D02*
X1057114D01*
X1050421Y895875D02*
X1057114D01*
X1050421Y897843D02*
X1057114D01*
X1050421Y899812D02*
X1057114D01*
X1050421Y901780D02*
X1057114D01*
X1050421Y903749D02*
X1057114D01*
X1050421Y905717D02*
X1057114D01*
X1050421Y907686D02*
X1057114D01*
X1050421Y909654D02*
X1057114D01*
X1050421Y911623D02*
X1057114D01*
X1050421Y913591D02*
X1057114D01*
X1050421Y915560D02*
X1057114D01*
X1050421Y917528D02*
X1057114D01*
X1050421Y919497D02*
X1057114D01*
X1050421Y921465D02*
X1057114D01*
X1050421Y923434D02*
X1057114D01*
X1050421Y925402D02*
X1057114D01*
X1050421Y927371D02*
X1057114D01*
X1050421Y929339D02*
X1057114D01*
X1050421Y931308D02*
X1057114D01*
X1050421Y933276D02*
X1057114D01*
X1050421Y935245D02*
X1057114D01*
X1050421Y937213D02*
X1057114D01*
X1050421Y939182D02*
X1057114D01*
X901181Y506496D02*
Y502165D01*
X899213Y506496D02*
Y502165D01*
X897244Y506496D02*
Y502165D01*
X895276Y506496D02*
Y502165D01*
X893307Y506496D02*
Y502165D01*
Y489173D02*
Y484843D01*
X895276Y489173D02*
Y484843D01*
X897244Y489173D02*
Y484843D01*
X899213Y489173D02*
Y484843D01*
X901181Y489173D02*
Y484843D01*
X902756Y757677D02*
Y762008D01*
X904724Y757677D02*
Y762008D01*
X906693Y757677D02*
Y762008D01*
X908661Y757677D02*
Y762008D01*
X910630Y757677D02*
Y762008D01*
Y775000D02*
Y779331D01*
X908661Y775000D02*
Y779331D01*
X906693Y775000D02*
Y779331D01*
X904724Y775000D02*
Y779331D01*
X902756Y775000D02*
Y779331D01*
X1242715Y437424D02*
X1243502D01*
X1242715Y435455D02*
X1243502D01*
X1242715Y433487D02*
X1243502D01*
X1242715Y431518D02*
X1243502D01*
X1246652D02*
X1247439D01*
X1246652Y433487D02*
X1247439D01*
X1246652Y435455D02*
X1247439D01*
X1246652Y437424D02*
X1247439D01*
X1242715Y493019D02*
X1243502D01*
X1242715Y491050D02*
X1243502D01*
X1242715Y489082D02*
X1243502D01*
X1242715Y487113D02*
X1243502D01*
X1246652D02*
X1247439D01*
X1246652Y489082D02*
X1247439D01*
X1246652Y491050D02*
X1247439D01*
X1246652Y493019D02*
X1247439D01*
X1242715Y504589D02*
X1243502D01*
X1242715Y502620D02*
X1243502D01*
X1242715Y500652D02*
X1243502D01*
X1242715Y498683D02*
X1243502D01*
X1246652D02*
X1247439D01*
X1246652Y500652D02*
X1247439D01*
X1246652Y502620D02*
X1247439D01*
X1246652Y504589D02*
X1247439D01*
X1242715Y515594D02*
X1243502D01*
X1242715Y513625D02*
X1243502D01*
X1242715Y511657D02*
X1243502D01*
X1242715Y509688D02*
X1243502D01*
X1246652D02*
X1247439D01*
X1246652Y511657D02*
X1247439D01*
X1246652Y513625D02*
X1247439D01*
X1246652Y515594D02*
X1247439D01*
X1242715Y532808D02*
X1243502D01*
X1242715Y530839D02*
X1243502D01*
X1242715Y528871D02*
X1243502D01*
X1242715Y526902D02*
X1243502D01*
X1246652D02*
X1247439D01*
X1246652Y528871D02*
X1247439D01*
X1246652Y530839D02*
X1247439D01*
X1246652Y532808D02*
X1247439D01*
X1242715Y457884D02*
X1243502D01*
X1242715Y455915D02*
X1243502D01*
X1242715Y453947D02*
X1243502D01*
X1242715Y451978D02*
X1243502D01*
X1246652D02*
X1247439D01*
X1246652Y453947D02*
X1247439D01*
X1246652Y455915D02*
X1247439D01*
X1246652Y457884D02*
X1247439D01*
X1242715Y447388D02*
X1243502D01*
X1242715Y445419D02*
X1243502D01*
X1242715Y443451D02*
X1243502D01*
X1242715Y441482D02*
X1243502D01*
X1246652D02*
X1247439D01*
X1246652Y443451D02*
X1247439D01*
X1246652Y445419D02*
X1247439D01*
X1246652Y447388D02*
X1247439D01*
X325589Y447193D02*
X324802D01*
X325589Y449161D02*
X324802D01*
X325589Y451130D02*
X324802D01*
X325589Y453098D02*
X324802D01*
X321652D02*
X320865D01*
X321652Y451130D02*
X320865D01*
X321652Y449161D02*
X320865D01*
X321652Y447193D02*
X320865D01*
X325589Y470421D02*
X324802D01*
X325589Y472390D02*
X324802D01*
X325589Y474358D02*
X324802D01*
X325589Y476327D02*
X324802D01*
X321652D02*
X320865D01*
X321652Y474358D02*
X320865D01*
X321652Y472390D02*
X320865D01*
X321652Y470421D02*
X320865D01*
X325589Y483413D02*
X324802D01*
X325589Y485382D02*
X324802D01*
X325589Y487350D02*
X324802D01*
X325589Y489319D02*
X324802D01*
X321652D02*
X320865D01*
X321652Y487350D02*
X320865D01*
X321652Y485382D02*
X320865D01*
X321652Y483413D02*
X320865D01*
X325589Y516091D02*
X324802D01*
X325589Y518059D02*
X324802D01*
X325589Y520028D02*
X324802D01*
X325589Y521996D02*
X324802D01*
X321652D02*
X320865D01*
X321652Y520028D02*
X320865D01*
X321652Y518059D02*
X320865D01*
X321652Y516091D02*
X320865D01*
X325589Y535382D02*
X324802D01*
X325589Y537350D02*
X324802D01*
X325589Y539319D02*
X324802D01*
X325589Y541287D02*
X324802D01*
X321652D02*
X320865D01*
X321652Y539319D02*
X320865D01*
X321652Y537350D02*
X320865D01*
X321652Y535382D02*
X320865D01*
X325589Y554673D02*
X324802D01*
X325589Y556642D02*
X324802D01*
X325589Y558610D02*
X324802D01*
X325589Y560579D02*
X324802D01*
X321652D02*
X320865D01*
X321652Y558610D02*
X320865D01*
X321652Y556642D02*
X320865D01*
X321652Y554673D02*
X320865D01*
X325589Y457823D02*
X324802D01*
X325589Y459791D02*
X324802D01*
X325589Y461760D02*
X324802D01*
X325589Y463728D02*
X324802D01*
X321652D02*
X320865D01*
X321652Y461760D02*
X320865D01*
X321652Y459791D02*
X320865D01*
X321652Y457823D02*
X320865D01*
X1251131Y604535D02*
Y608865D01*
X1253100Y604535D02*
Y608865D01*
X1255068Y604535D02*
Y608865D01*
X1257037Y604535D02*
Y608865D01*
X1259005Y604535D02*
Y608865D01*
Y621858D02*
Y626188D01*
X1257037Y621858D02*
Y626188D01*
X1255068Y621858D02*
Y626188D01*
X1253100Y621858D02*
Y626188D01*
X1251131Y621858D02*
Y626188D01*
X274605Y520146D02*
X270274D01*
X274605Y522114D02*
X270274D01*
X274605Y524083D02*
X270274D01*
X274605Y526051D02*
X270274D01*
X274605Y528020D02*
X270274D01*
X257282D02*
X252951D01*
X257282Y526051D02*
X252951D01*
X257282Y524083D02*
X252951D01*
X257282Y522114D02*
X252951D01*
X257282Y520146D02*
X252951D01*
X1003737Y446272D02*
Y441548D01*
X1001768Y446272D02*
Y441548D01*
X999800Y446272D02*
Y441548D01*
X997831Y446272D02*
Y441548D01*
X995863Y446272D02*
Y441548D01*
X993894Y446272D02*
Y441548D01*
X991926Y446272D02*
Y441548D01*
X989957Y446272D02*
Y441548D01*
X987989Y446272D02*
Y441548D01*
X986020Y446272D02*
Y441548D01*
X984052Y446272D02*
Y441548D01*
X982083Y446272D02*
Y441548D01*
X980115Y446272D02*
Y441548D01*
X978146Y446272D02*
Y441548D01*
X976178Y446272D02*
Y441548D01*
X974209Y446272D02*
Y441548D01*
X972241Y446272D02*
Y441548D01*
X970272Y446272D02*
Y441548D01*
X968304Y446272D02*
Y441548D01*
X966335Y446272D02*
Y441548D01*
X964367Y446272D02*
Y441548D01*
X962398Y446272D02*
Y441548D01*
X960430Y446272D02*
Y441548D01*
X958461Y446272D02*
Y441548D01*
X956493Y446272D02*
Y441548D01*
X954524Y446272D02*
Y441548D01*
X952556Y446272D02*
Y441548D01*
X950587Y446272D02*
Y441548D01*
X948619Y446272D02*
Y441548D01*
X946650Y446272D02*
Y441548D01*
X944682Y446272D02*
Y441548D01*
X942713Y446272D02*
Y441548D01*
X940745Y446272D02*
Y441548D01*
X938776Y446272D02*
Y441548D01*
X936808Y446272D02*
Y441548D01*
X934839Y446272D02*
Y441548D01*
X924800Y436233D02*
X929524D01*
X924800Y434264D02*
X929524D01*
X924800Y432296D02*
X929524D01*
X924800Y430327D02*
X929524D01*
X924800Y428359D02*
X929524D01*
X924800Y426390D02*
X929524D01*
X924800Y424422D02*
X929524D01*
X924800Y422453D02*
X929524D01*
X924800Y420485D02*
X929524D01*
X924800Y418516D02*
X929524D01*
X924800Y416548D02*
X929524D01*
X924800Y414579D02*
X929524D01*
X924800Y412611D02*
X929524D01*
X924800Y410642D02*
X929524D01*
X924800Y408674D02*
X929524D01*
X924800Y406705D02*
X929524D01*
X924800Y404737D02*
X929524D01*
X924800Y402768D02*
X929524D01*
X924800Y400800D02*
X929524D01*
X924800Y398831D02*
X929524D01*
X924800Y396863D02*
X929524D01*
X924800Y394894D02*
X929524D01*
X924800Y392926D02*
X929524D01*
X924800Y390957D02*
X929524D01*
X924800Y388989D02*
X929524D01*
X924800Y387020D02*
X929524D01*
X924800Y385052D02*
X929524D01*
X924800Y383083D02*
X929524D01*
X924800Y381115D02*
X929524D01*
X924800Y379146D02*
X929524D01*
X924800Y377178D02*
X929524D01*
X924800Y375209D02*
X929524D01*
X924800Y373241D02*
X929524D01*
X924800Y371272D02*
X929524D01*
X924800Y369304D02*
X929524D01*
X924800Y367335D02*
X929524D01*
X934839Y362020D02*
Y357296D01*
X936808Y362020D02*
Y357296D01*
X938776Y362020D02*
Y357296D01*
X940745Y362020D02*
Y357296D01*
X942713Y362020D02*
Y357296D01*
X944682Y362020D02*
Y357296D01*
X946650Y362020D02*
Y357296D01*
X948619Y362020D02*
Y357296D01*
X950587Y362020D02*
Y357296D01*
X952556Y362020D02*
Y357296D01*
X954524Y362020D02*
Y357296D01*
X956493Y362020D02*
Y357296D01*
X958461Y362020D02*
Y357296D01*
X960430Y362020D02*
Y357296D01*
X962398Y362020D02*
Y357296D01*
X964367Y362020D02*
Y357296D01*
X966335Y362020D02*
Y357296D01*
X968304Y362020D02*
Y357296D01*
X970272Y362020D02*
Y357296D01*
X972241Y362020D02*
Y357296D01*
X974209Y362020D02*
Y357296D01*
X976178Y362020D02*
Y357296D01*
X978146Y362020D02*
Y357296D01*
X980115Y362020D02*
Y357296D01*
X982083Y362020D02*
Y357296D01*
X984052Y362020D02*
Y357296D01*
X986020Y362020D02*
Y357296D01*
X987989Y362020D02*
Y357296D01*
X989957Y362020D02*
Y357296D01*
X991926Y362020D02*
Y357296D01*
X993894Y362020D02*
Y357296D01*
X995863Y362020D02*
Y357296D01*
X997831Y362020D02*
Y357296D01*
X999800Y362020D02*
Y357296D01*
X1001768Y362020D02*
Y357296D01*
X1003737Y362020D02*
Y357296D01*
X1009052Y367335D02*
X1013776D01*
X1009052Y369304D02*
X1013776D01*
X1009052Y371272D02*
X1013776D01*
X1009052Y373241D02*
X1013776D01*
X1009052Y375209D02*
X1013776D01*
X1009052Y377178D02*
X1013776D01*
X1009052Y379146D02*
X1013776D01*
X1009052Y381115D02*
X1013776D01*
X1009052Y383083D02*
X1013776D01*
X1009052Y385052D02*
X1013776D01*
X1009052Y387020D02*
X1013776D01*
X1009052Y388989D02*
X1013776D01*
X1009052Y390957D02*
X1013776D01*
X1009052Y392926D02*
X1013776D01*
X1009052Y394894D02*
X1013776D01*
X1009052Y396863D02*
X1013776D01*
X1009052Y398831D02*
X1013776D01*
X1009052Y400800D02*
X1013776D01*
X1009052Y402768D02*
X1013776D01*
X1009052Y404737D02*
X1013776D01*
X1009052Y406705D02*
X1013776D01*
X1009052Y408674D02*
X1013776D01*
X1009052Y410642D02*
X1013776D01*
X1009052Y412611D02*
X1013776D01*
X1009052Y414579D02*
X1013776D01*
X1009052Y416548D02*
X1013776D01*
X1009052Y418516D02*
X1013776D01*
X1009052Y420485D02*
X1013776D01*
X1009052Y422453D02*
X1013776D01*
X1009052Y424422D02*
X1013776D01*
X1009052Y426390D02*
X1013776D01*
X1009052Y428359D02*
X1013776D01*
X1009052Y430327D02*
X1013776D01*
X1009052Y432296D02*
X1013776D01*
X1009052Y434264D02*
X1013776D01*
X1009052Y436233D02*
X1013776D01*
X203416Y991518D02*
Y994077D01*
X205384Y991518D02*
Y994077D01*
X207353Y991518D02*
Y994077D01*
X212176Y996341D02*
X209617D01*
X212176Y998309D02*
X209617D01*
X212176Y1000278D02*
X209617D01*
X207353Y1002542D02*
Y1005101D01*
X205384Y1002542D02*
Y1005101D01*
X203416Y1002542D02*
Y1005101D01*
X201152Y1000278D02*
X198593D01*
X201152Y998309D02*
X198593D01*
X201152Y996341D02*
X198593D01*
X1028508Y193024D02*
X1031067D01*
X1028508Y191055D02*
X1031067D01*
X1028508Y189087D02*
X1031067D01*
X1033331Y184264D02*
Y186823D01*
X1035299Y184264D02*
Y186823D01*
X1037268Y184264D02*
Y186823D01*
X1039531Y189087D02*
X1042091D01*
X1039531Y191055D02*
X1042091D01*
X1039531Y193024D02*
X1042091D01*
X1037268Y195287D02*
Y197846D01*
X1035299Y195287D02*
Y197846D01*
X1033331Y195287D02*
Y197846D01*
X1075508Y193024D02*
X1078067D01*
X1075508Y191055D02*
X1078067D01*
X1075508Y189087D02*
X1078067D01*
X1080331Y184264D02*
Y186823D01*
X1082299Y184264D02*
Y186823D01*
X1084268Y184264D02*
Y186823D01*
X1086531Y189087D02*
X1089091D01*
X1086531Y191055D02*
X1089091D01*
X1086531Y193024D02*
X1089091D01*
X1084268Y195287D02*
Y197846D01*
X1082299Y195287D02*
Y197846D01*
X1080331Y195287D02*
Y197846D01*
G54D40*
X995381Y860363D02*
Y853670D01*
X997350Y860363D02*
Y853670D01*
X999318Y860363D02*
Y853670D01*
X1001287Y860363D02*
Y853670D01*
X1003255Y860363D02*
Y853670D01*
X1005224Y860363D02*
Y853670D01*
X1007192Y860363D02*
Y853670D01*
X1009161Y860363D02*
Y853670D01*
X1011129Y860363D02*
Y853670D01*
X1013098Y860363D02*
Y853670D01*
X1015067Y860363D02*
Y853670D01*
X1017035Y860363D02*
Y853670D01*
X1019004Y860363D02*
Y853670D01*
X1020972Y860363D02*
Y853670D01*
X1022941Y860363D02*
Y853670D01*
X1024909Y860363D02*
Y853670D01*
X1026878Y860363D02*
Y853670D01*
X1028846Y860363D02*
Y853670D01*
X1030815Y860363D02*
Y853670D01*
X1032783Y860363D02*
Y853670D01*
X1034752Y860363D02*
Y853670D01*
X1036720Y860363D02*
Y853670D01*
X1038689Y860363D02*
Y853670D01*
X1040657Y860363D02*
Y853670D01*
X1042626Y860363D02*
Y853670D01*
X1044594Y860363D02*
Y853670D01*
Y951977D02*
Y945284D01*
X1042626Y951977D02*
Y945284D01*
X1040657Y951977D02*
Y945284D01*
X1038689Y951977D02*
Y945284D01*
X1036720Y951977D02*
Y945284D01*
X1034752Y951977D02*
Y945284D01*
X1032783Y951977D02*
Y945284D01*
X1030815Y951977D02*
Y945284D01*
X1028846Y951977D02*
Y945284D01*
X1026878Y951977D02*
Y945284D01*
X1024909Y951977D02*
Y945284D01*
X1022941Y951977D02*
Y945284D01*
X1020972Y951977D02*
Y945284D01*
X1019004Y951977D02*
Y945284D01*
X1017035Y951977D02*
Y945284D01*
X1015067Y951977D02*
Y945284D01*
X1013098Y951977D02*
Y945284D01*
X1011129Y951977D02*
Y945284D01*
X1009161Y951977D02*
Y945284D01*
X1007192Y951977D02*
Y945284D01*
X1005224Y951977D02*
Y945284D01*
X1003255Y951977D02*
Y945284D01*
X1001287Y951977D02*
Y945284D01*
X999318Y951977D02*
Y945284D01*
X997350Y951977D02*
Y945284D01*
X995381Y951977D02*
Y945284D01*
X518209Y719094D02*
X516043D01*
X518209Y721063D02*
X516043D01*
X518209Y723031D02*
X516043D01*
X518209Y725000D02*
X516043D01*
X514370Y728839D02*
Y726673D01*
X512402Y728839D02*
Y726673D01*
X510433Y728839D02*
Y726673D01*
X508465Y728839D02*
Y726673D01*
X506791Y725000D02*
X504626D01*
X506791Y723031D02*
X504626D01*
X506791Y721063D02*
X504626D01*
X506791Y719094D02*
X504626D01*
X508465Y717421D02*
Y715256D01*
X510433Y717421D02*
Y715256D01*
X512402Y717421D02*
Y715256D01*
X514370Y717421D02*
Y715256D01*
X518209Y663976D02*
X516043D01*
X518209Y665945D02*
X516043D01*
X518209Y667913D02*
X516043D01*
X518209Y669882D02*
X516043D01*
X514370Y673720D02*
Y671555D01*
X512402Y673720D02*
Y671555D01*
X510433Y673720D02*
Y671555D01*
X508465Y673720D02*
Y671555D01*
X506791Y669882D02*
X504626D01*
X506791Y667913D02*
X504626D01*
X506791Y665945D02*
X504626D01*
X506791Y663976D02*
X504626D01*
X508465Y662303D02*
Y660138D01*
X510433Y662303D02*
Y660138D01*
X512402Y662303D02*
Y660138D01*
X514370Y662303D02*
Y660138D01*
G54D41*
X589081Y219314D02*
Y227149D01*
Y241913D02*
Y249747D01*
X591050Y219314D02*
Y227149D01*
Y241913D02*
Y249747D01*
X594987Y219314D02*
Y227149D01*
Y241913D02*
Y249747D01*
X596955Y219314D02*
Y227149D01*
Y241913D02*
Y249747D01*
X600892Y219314D02*
Y227149D01*
Y241913D02*
Y249747D01*
X602861Y219314D02*
Y227149D01*
Y241913D02*
Y249747D01*
X606798Y219314D02*
Y227149D01*
Y241913D02*
Y249747D01*
X608766Y219314D02*
Y227149D01*
Y241913D02*
Y249747D01*
X612703Y219314D02*
Y227149D01*
Y241913D02*
Y249747D01*
X614672Y219314D02*
Y227149D01*
Y241913D02*
Y249747D01*
X618609Y219314D02*
Y227149D01*
Y241913D02*
Y249747D01*
X620577Y219314D02*
Y227149D01*
Y241913D02*
Y249747D01*
X624514Y219314D02*
Y227149D01*
Y241913D02*
Y249747D01*
X626483Y219314D02*
Y227149D01*
Y241913D02*
Y249747D01*
X630420Y219314D02*
Y227149D01*
Y241913D02*
Y249747D01*
X632388Y219314D02*
Y227149D01*
Y241913D02*
Y249747D01*
X636325Y219314D02*
Y227149D01*
Y241913D02*
Y249747D01*
X638294Y219314D02*
Y227149D01*
Y241913D02*
Y249747D01*
X642231Y219314D02*
Y227149D01*
Y241913D02*
Y249747D01*
X644199Y219314D02*
Y227149D01*
Y241913D02*
Y249747D01*
X667821Y219314D02*
Y227149D01*
Y241913D02*
Y249747D01*
X669790Y219314D02*
Y227149D01*
Y241913D02*
Y249747D01*
X673727Y219314D02*
Y227149D01*
Y241913D02*
Y249747D01*
X675695Y219314D02*
Y227149D01*
Y241913D02*
Y249747D01*
X679632Y219314D02*
Y227149D01*
Y241913D02*
Y249747D01*
X681601Y219314D02*
Y227149D01*
Y241913D02*
Y249747D01*
X685538Y219314D02*
Y227149D01*
Y241913D02*
Y249747D01*
X687506Y219314D02*
Y227149D01*
Y241913D02*
Y249747D01*
X691443Y219314D02*
Y227149D01*
Y241913D02*
Y249747D01*
X693412Y219314D02*
Y227149D01*
Y241913D02*
Y249747D01*
X697349Y219314D02*
Y227149D01*
Y241913D02*
Y249747D01*
X699317Y219314D02*
Y227149D01*
Y241913D02*
Y249747D01*
X703254Y219314D02*
Y227149D01*
Y241913D02*
Y249747D01*
X705223Y219314D02*
Y227149D01*
Y241913D02*
Y249747D01*
X709160Y219314D02*
Y227149D01*
Y241913D02*
Y249747D01*
X711128Y219314D02*
Y227149D01*
Y241913D02*
Y249747D01*
X715065Y219314D02*
Y227149D01*
Y241913D02*
Y249747D01*
X717034Y219314D02*
Y227149D01*
Y241913D02*
Y249747D01*
X720971Y219314D02*
Y227149D01*
Y241913D02*
Y249747D01*
X722939Y219314D02*
Y227149D01*
Y241913D02*
Y249747D01*
G54D42*
X581719Y234531D02*
X590026D01*
X596719D02*
X613530D01*
X621719D02*
X638530D01*
X645203D02*
X653510D01*
X660479D02*
X668786D01*
X700459D02*
X717270D01*
X675459D02*
X692270D01*
X723963D02*
X732270D01*
G54D43*
X568750Y987120D02*
X570719D01*
X567750Y962620D02*
X569719D01*
X569250Y1011620D02*
X571219D01*
X569250Y1036120D02*
X571219D01*
X549250Y955120D02*
X551219D01*
X550250Y979620D02*
X552219D01*
X550750Y1028620D02*
X552719D01*
X550750Y1004120D02*
X552719D01*
X1065639Y164753D02*
Y167115D01*
Y174595D02*
Y176957D01*
X1058159Y174595D02*
Y176957D01*
G54D44*
X895472Y495669D02*
X899016D01*
X908465Y768504D02*
X904921D01*
X1256840Y615362D02*
X1253297D01*
X263778Y525854D02*
Y522311D01*
G54D45*
X725383Y1016217D02*
Y1005611D01*
X731288Y1016217D02*
Y1005611D01*
X737194Y1016217D02*
Y1005611D01*
X743099Y1016217D02*
Y1005611D01*
X749005Y1016217D02*
Y1005611D01*
X754910Y1016217D02*
Y1005611D01*
X760816Y1016217D02*
Y1005611D01*
X766721Y1016217D02*
Y1005611D01*
X772627Y1016217D02*
Y1005611D01*
X778532Y1016217D02*
Y1005611D01*
X784438Y1016217D02*
Y1005611D01*
X790343Y1016217D02*
Y1005611D01*
X796249Y1016217D02*
Y1005611D01*
X802154Y1016217D02*
Y1005611D01*
X808060Y1016217D02*
Y1005611D01*
X813965Y1016217D02*
Y1005611D01*
X819871Y1016217D02*
Y1005611D01*
X825776Y1016217D02*
Y1005611D01*
X831682Y1016217D02*
Y1005611D01*
X837587Y1016217D02*
Y1005611D01*
X843493Y1016217D02*
Y1005611D01*
X849398Y1016217D02*
Y1005611D01*
X855304Y1016217D02*
Y1005611D01*
X861209Y1016217D02*
Y1005611D01*
X867115Y1016217D02*
Y1005611D01*
X873020Y1016217D02*
Y1005611D01*
X878926Y1016217D02*
Y1005611D01*
X884831Y1016217D02*
Y1005611D01*
X890737Y1016217D02*
Y1005611D01*
X896643Y1016217D02*
Y1005611D01*
X902548Y1016217D02*
Y1005611D01*
X908454Y1016217D02*
Y1005611D01*
X914359Y1016217D02*
Y1005611D01*
X920265Y1016217D02*
Y1005611D01*
X926170Y1016217D02*
Y1005611D01*
X932076Y1016217D02*
Y1005611D01*
X937981Y1016217D02*
Y1005611D01*
X725383Y1041414D02*
Y1030808D01*
X731288Y1041414D02*
Y1030808D01*
X737194Y1041414D02*
Y1030808D01*
X743099Y1041414D02*
Y1030808D01*
X749005Y1041414D02*
Y1030808D01*
X754910Y1041414D02*
Y1030808D01*
X760816Y1041414D02*
Y1030808D01*
X766721Y1041414D02*
Y1030808D01*
X772627Y1041414D02*
Y1030808D01*
X778532Y1041414D02*
Y1030808D01*
X784438Y1041414D02*
Y1030808D01*
X790343Y1041414D02*
Y1030808D01*
X796249Y1041414D02*
Y1030808D01*
X802154Y1041414D02*
Y1030808D01*
X808060Y1041414D02*
Y1030808D01*
X813965Y1041414D02*
Y1030808D01*
X819871Y1041414D02*
Y1030808D01*
X825776Y1041414D02*
Y1030808D01*
X831682Y1041414D02*
Y1030808D01*
X837587Y1041414D02*
Y1030808D01*
X843493Y1041414D02*
Y1030808D01*
X849398Y1041414D02*
Y1030808D01*
X855304Y1041414D02*
Y1030808D01*
X861209Y1041414D02*
Y1030808D01*
X867115Y1041414D02*
Y1030808D01*
X873020Y1041414D02*
Y1030808D01*
X878926Y1041414D02*
Y1030808D01*
X884831Y1041414D02*
Y1030808D01*
X890737Y1041414D02*
Y1030808D01*
X896643Y1041414D02*
Y1030808D01*
X902548Y1041414D02*
Y1030808D01*
X908454Y1041414D02*
Y1030808D01*
X914359Y1041414D02*
Y1030808D01*
X920265Y1041414D02*
Y1030808D01*
X926170Y1041414D02*
Y1030808D01*
X932076Y1041414D02*
Y1030808D01*
X937981Y1041414D02*
Y1030808D01*
X727351Y1016217D02*
Y1005611D01*
X729320Y1016217D02*
Y1005611D01*
X733257Y1016217D02*
Y1005611D01*
X739162Y1016217D02*
Y1005611D01*
X745068Y1016217D02*
Y1005611D01*
X750973Y1016217D02*
Y1005611D01*
X756879Y1016217D02*
Y1005611D01*
X762784Y1016217D02*
Y1005611D01*
X768690Y1016217D02*
Y1005611D01*
X774595Y1016217D02*
Y1005611D01*
X780501Y1016217D02*
Y1005611D01*
X786406Y1016217D02*
Y1005611D01*
X792312Y1016217D02*
Y1005611D01*
X798217Y1016217D02*
Y1005611D01*
X804123Y1016217D02*
Y1005611D01*
X810028Y1016217D02*
Y1005611D01*
X815934Y1016217D02*
Y1005611D01*
X821839Y1016217D02*
Y1005611D01*
X827745Y1016217D02*
Y1005611D01*
X833650Y1016217D02*
Y1005611D01*
X839556Y1016217D02*
Y1005611D01*
X845461Y1016217D02*
Y1005611D01*
X851367Y1016217D02*
Y1005611D01*
X857272Y1016217D02*
Y1005611D01*
X863178Y1016217D02*
Y1005611D01*
X869083Y1016217D02*
Y1005611D01*
X874989Y1016217D02*
Y1005611D01*
X880894Y1016217D02*
Y1005611D01*
X886800Y1016217D02*
Y1005611D01*
X892706Y1016217D02*
Y1005611D01*
X898611Y1016217D02*
Y1005611D01*
X904517Y1016217D02*
Y1005611D01*
X910422Y1016217D02*
Y1005611D01*
X916328Y1016217D02*
Y1005611D01*
X922233Y1016217D02*
Y1005611D01*
X928139Y1016217D02*
Y1005611D01*
X934044Y1016217D02*
Y1005611D01*
X735225Y1016217D02*
Y1005611D01*
X741131Y1016217D02*
Y1005611D01*
X747036Y1016217D02*
Y1005611D01*
X752942Y1016217D02*
Y1005611D01*
X758847Y1016217D02*
Y1005611D01*
X764753Y1016217D02*
Y1005611D01*
X770658Y1016217D02*
Y1005611D01*
X776564Y1016217D02*
Y1005611D01*
X782469Y1016217D02*
Y1005611D01*
X788375Y1016217D02*
Y1005611D01*
X794280Y1016217D02*
Y1005611D01*
X800186Y1016217D02*
Y1005611D01*
X806091Y1016217D02*
Y1005611D01*
X811997Y1016217D02*
Y1005611D01*
X817902Y1016217D02*
Y1005611D01*
X823808Y1016217D02*
Y1005611D01*
X829713Y1016217D02*
Y1005611D01*
X835619Y1016217D02*
Y1005611D01*
X841524Y1016217D02*
Y1005611D01*
X847430Y1016217D02*
Y1005611D01*
X853335Y1016217D02*
Y1005611D01*
X859241Y1016217D02*
Y1005611D01*
X865146Y1016217D02*
Y1005611D01*
X871052Y1016217D02*
Y1005611D01*
X876957Y1016217D02*
Y1005611D01*
X882863Y1016217D02*
Y1005611D01*
X888769Y1016217D02*
Y1005611D01*
X894674Y1016217D02*
Y1005611D01*
X900580Y1016217D02*
Y1005611D01*
X906485Y1016217D02*
Y1005611D01*
X912391Y1016217D02*
Y1005611D01*
X918296Y1016217D02*
Y1005611D01*
X924202Y1016217D02*
Y1005611D01*
X930107Y1016217D02*
Y1005611D01*
X936013Y1016217D02*
Y1005611D01*
G54D46*
X1254232Y515551D02*
X1256004D01*
X1254232Y513583D02*
X1256004D01*
X1254232Y511614D02*
X1256004D01*
X1254232Y509646D02*
X1256004D01*
X1259744D02*
X1261516D01*
X1259744Y511614D02*
X1261516D01*
X1259744Y513583D02*
X1261516D01*
X1259744Y515551D02*
X1261516D01*
X1254232Y504921D02*
X1256004D01*
X1254232Y502953D02*
X1256004D01*
X1254232Y500984D02*
X1256004D01*
X1254232Y499016D02*
X1256004D01*
X1259744D02*
X1261516D01*
X1259744Y500984D02*
X1261516D01*
X1259744Y502953D02*
X1261516D01*
X1259744Y504921D02*
X1261516D01*
X1254232Y493110D02*
X1256004D01*
X1254232Y491142D02*
X1256004D01*
X1254232Y489173D02*
X1256004D01*
X1254232Y487205D02*
X1256004D01*
X1259744D02*
X1261516D01*
X1259744Y489173D02*
X1261516D01*
X1259744Y491142D02*
X1261516D01*
X1259744Y493110D02*
X1261516D01*
X1254232Y457677D02*
X1256004D01*
X1254232Y455709D02*
X1256004D01*
X1254232Y453740D02*
X1256004D01*
X1254232Y451772D02*
X1256004D01*
X1259744D02*
X1261516D01*
X1259744Y453740D02*
X1261516D01*
X1259744Y455709D02*
X1261516D01*
X1259744Y457677D02*
X1261516D01*
X1254232Y447047D02*
X1256004D01*
X1254232Y445079D02*
X1256004D01*
X1254232Y443110D02*
X1256004D01*
X1254232Y441142D02*
X1256004D01*
X1259744D02*
X1261516D01*
X1259744Y443110D02*
X1261516D01*
X1259744Y445079D02*
X1261516D01*
X1259744Y447047D02*
X1261516D01*
X1254232Y437205D02*
X1256004D01*
X1254232Y435236D02*
X1256004D01*
X1254232Y433268D02*
X1256004D01*
X1254232Y431299D02*
X1256004D01*
X1259744D02*
X1261516D01*
X1259744Y433268D02*
X1261516D01*
X1259744Y435236D02*
X1261516D01*
X1259744Y437205D02*
X1261516D01*
X1254232Y532874D02*
X1256004D01*
X1254232Y530906D02*
X1256004D01*
X1254232Y528937D02*
X1256004D01*
X1254232Y526969D02*
X1256004D01*
X1259744D02*
X1261516D01*
X1259744Y528937D02*
X1261516D01*
X1259744Y530906D02*
X1261516D01*
X1259744Y532874D02*
X1261516D01*
X312302Y446720D02*
X310530D01*
X312302Y448689D02*
X310530D01*
X312302Y450657D02*
X310530D01*
X312302Y452626D02*
X310530D01*
X306790D02*
X305018D01*
X306790Y450657D02*
X305018D01*
X306790Y448689D02*
X305018D01*
X306790Y446720D02*
X305018D01*
X312302Y457350D02*
X310530D01*
X312302Y459319D02*
X310530D01*
X312302Y461287D02*
X310530D01*
X312302Y463256D02*
X310530D01*
X306790D02*
X305018D01*
X306790Y461287D02*
X305018D01*
X306790Y459319D02*
X305018D01*
X306790Y457350D02*
X305018D01*
X312302Y470343D02*
X310530D01*
X312302Y472311D02*
X310530D01*
X312302Y474280D02*
X310530D01*
X312302Y476248D02*
X310530D01*
X306790D02*
X305018D01*
X306790Y474280D02*
X305018D01*
X306790Y472311D02*
X305018D01*
X306790Y470343D02*
X305018D01*
X312302Y483335D02*
X310530D01*
X312302Y485303D02*
X310530D01*
X312302Y487272D02*
X310530D01*
X312302Y489240D02*
X310530D01*
X306790D02*
X305018D01*
X306790Y487272D02*
X305018D01*
X306790Y485303D02*
X305018D01*
X306790Y483335D02*
X305018D01*
X312302Y516012D02*
X310530D01*
X312302Y517980D02*
X310530D01*
X312302Y519949D02*
X310530D01*
X312302Y521917D02*
X310530D01*
X306790D02*
X305018D01*
X306790Y519949D02*
X305018D01*
X306790Y517980D02*
X305018D01*
X306790Y516012D02*
X305018D01*
X312302Y535697D02*
X310530D01*
X312302Y537665D02*
X310530D01*
X312302Y539634D02*
X310530D01*
X312302Y541602D02*
X310530D01*
X306790D02*
X305018D01*
X306790Y539634D02*
X305018D01*
X306790Y537665D02*
X305018D01*
X306790Y535697D02*
X305018D01*
X312302Y554594D02*
X310530D01*
X312302Y556563D02*
X310530D01*
X312302Y558531D02*
X310530D01*
X312302Y560500D02*
X310530D01*
X306790D02*
X305018D01*
X306790Y558531D02*
X305018D01*
X306790Y556563D02*
X305018D01*
X306790Y554594D02*
X305018D01*
G54D47*
X1059744Y462008D02*
X1061516D01*
X1059744Y450591D02*
X1061516D01*
X984547Y493898D02*
X986319D01*
X984547Y482480D02*
X986319D01*
X1077067Y461614D02*
X1078839D01*
X1077067Y450197D02*
X1078839D01*
X1159941Y680906D02*
X1158169D01*
X1159941Y692323D02*
X1158169D01*
X1144193Y680906D02*
X1142421D01*
X1144193Y692323D02*
X1142421D01*
X999508Y493898D02*
X1001280D01*
X999508Y482480D02*
X1001280D01*
X1092815Y461614D02*
X1094587D01*
X1092815Y450197D02*
X1094587D01*
X1038091Y462008D02*
X1039862D01*
X1038091Y450591D02*
X1039862D01*
X1246097Y139404D02*
X1247869D01*
X1246097Y127987D02*
X1247869D01*
X962402Y258563D02*
Y260335D01*
X973819Y258563D02*
Y260335D01*
X962402Y227067D02*
Y228839D01*
X973819Y227067D02*
Y228839D01*
X604921Y204232D02*
Y206004D01*
X616339Y204232D02*
Y206004D01*
X430906Y784154D02*
Y785925D01*
X442323Y784154D02*
Y785925D01*
X308858Y339272D02*
Y341043D01*
X320276Y339272D02*
Y341043D01*
X1157283Y264469D02*
Y266240D01*
X1168701Y264469D02*
Y266240D01*
X1163189Y786122D02*
Y787894D01*
X1174606Y786122D02*
Y787894D01*
X288457Y653839D02*
Y655610D01*
X299874Y653839D02*
Y655610D01*
X288457Y689272D02*
Y691043D01*
X299874Y689272D02*
Y691043D01*
X308858Y323524D02*
Y325295D01*
X320276Y323524D02*
Y325295D01*
X288457Y671555D02*
Y673327D01*
X299874Y671555D02*
Y673327D01*
X430906Y799902D02*
Y801673D01*
X442323Y799902D02*
Y801673D01*
X308858Y386516D02*
Y388287D01*
X320276Y386516D02*
Y388287D01*
X900295Y351772D02*
X902067D01*
X900295Y340354D02*
X902067D01*
X835335Y775000D02*
X837106D01*
X835335Y763583D02*
X837106D01*
X308858Y370768D02*
Y372539D01*
X320276Y370768D02*
Y372539D01*
X868799Y351457D02*
X870571D01*
X868799Y340039D02*
X870571D01*
X494783Y881299D02*
X496555D01*
X494783Y869882D02*
X496555D01*
X962402Y242815D02*
Y244587D01*
X973819Y242815D02*
Y244587D01*
X1157283Y311713D02*
Y313484D01*
X1168701Y311713D02*
Y313484D01*
X829429Y432480D02*
X831201D01*
X829429Y421063D02*
X831201D01*
X847146Y432480D02*
X848917D01*
X847146Y421063D02*
X848917D01*
X809744Y775000D02*
X811516D01*
X809744Y763583D02*
X811516D01*
X308858Y355020D02*
Y356791D01*
X320276Y355020D02*
Y356791D01*
X884547Y351772D02*
X886319D01*
X884547Y340354D02*
X886319D01*
X1163189Y855020D02*
Y856791D01*
X1174606Y855020D02*
Y856791D01*
X1163189Y839272D02*
Y841043D01*
X1174606Y839272D02*
Y841043D01*
G54D48*
X1249409Y396063D02*
X1249803D01*
X1249409Y371654D02*
X1249803D01*
X564961Y854134D02*
Y853740D01*
X540551Y854134D02*
Y853740D01*
X667323Y854134D02*
Y853740D01*
X642913Y854134D02*
Y853740D01*
X614173Y854134D02*
Y853740D01*
X589764Y854134D02*
Y853740D01*
X137645Y666879D02*
Y666485D01*
X113235Y666879D02*
Y666485D01*
X288583Y188386D02*
Y188780D01*
X312992Y188386D02*
Y188780D01*
X286038Y152325D02*
X286431D01*
X286038Y127916D02*
X286431D01*
X242038Y152325D02*
X242431D01*
X242038Y127916D02*
X242431D01*
X264038Y152325D02*
X264431D01*
X264038Y127916D02*
X264431D01*
X192431Y391916D02*
X192038D01*
X192431Y416325D02*
X192038D01*
X152439Y593917D02*
Y593524D01*
X128030Y593917D02*
Y593524D01*
X183138Y660017D02*
Y659624D01*
X158728Y660017D02*
Y659624D01*
X296654Y293307D02*
X297047D01*
X296654Y268898D02*
X297047D01*
X320276Y293307D02*
X320669D01*
X320276Y268898D02*
X320669D01*
X1094030Y988813D02*
X1094424D01*
X1094030Y964404D02*
X1094424D01*
G54D50*
X959744Y493110D02*
X960728D01*
X959744Y486417D02*
X960728D01*
X971555Y493110D02*
X972539D01*
X971555Y486417D02*
X972539D01*
X1134843Y624114D02*
Y623130D01*
X1128150Y624114D02*
Y623130D01*
Y638878D02*
Y639862D01*
X1134843Y638878D02*
Y639862D01*
X257896Y908215D02*
X256321D01*
X257896Y929869D02*
X256321D01*
X244510D02*
X242935D01*
X244510Y908215D02*
X242935D01*
G54D51*
X665846Y890157D02*
X663287D01*
X665846Y892717D02*
X663287D01*
X665846Y895276D02*
X663287D01*
X665846Y897835D02*
X663287D01*
X665846Y900394D02*
X663287D01*
X660236Y906004D02*
Y903445D01*
X657677Y906004D02*
Y903445D01*
X655118Y906004D02*
Y903445D01*
X652559Y906004D02*
Y903445D01*
X650000Y906004D02*
Y903445D01*
X646949Y900394D02*
X644390D01*
X646949Y897835D02*
X644390D01*
X646949Y895276D02*
X644390D01*
X646949Y892717D02*
X644390D01*
X646949Y890157D02*
X644390D01*
X650000Y887106D02*
Y884547D01*
X652559Y887106D02*
Y884547D01*
X655118Y887106D02*
Y884547D01*
X657677Y887106D02*
Y884547D01*
X660236Y887106D02*
Y884547D01*
X614665Y890157D02*
X612106D01*
X614665Y892717D02*
X612106D01*
X614665Y895276D02*
X612106D01*
X614665Y897835D02*
X612106D01*
X614665Y900394D02*
X612106D01*
X609055Y906004D02*
Y903445D01*
X606496Y906004D02*
Y903445D01*
X603937Y906004D02*
Y903445D01*
X601378Y906004D02*
Y903445D01*
X598819Y906004D02*
Y903445D01*
X595768Y900394D02*
X593209D01*
X595768Y897835D02*
X593209D01*
X595768Y895276D02*
X593209D01*
X595768Y892717D02*
X593209D01*
X595768Y890157D02*
X593209D01*
X598819Y887106D02*
Y884547D01*
X601378Y887106D02*
Y884547D01*
X603937Y887106D02*
Y884547D01*
X606496Y887106D02*
Y884547D01*
X609055Y887106D02*
Y884547D01*
X563484Y890157D02*
X560925D01*
X563484Y892717D02*
X560925D01*
X563484Y895276D02*
X560925D01*
X563484Y897835D02*
X560925D01*
X563484Y900394D02*
X560925D01*
X557874Y906004D02*
Y903445D01*
X555315Y906004D02*
Y903445D01*
X552756Y906004D02*
Y903445D01*
X550197Y906004D02*
Y903445D01*
X547638Y906004D02*
Y903445D01*
X544587Y900394D02*
X542028D01*
X544587Y897835D02*
X542028D01*
X544587Y895276D02*
X542028D01*
X544587Y892717D02*
X542028D01*
X544587Y890157D02*
X542028D01*
X547638Y887106D02*
Y884547D01*
X550197Y887106D02*
Y884547D01*
X552756Y887106D02*
Y884547D01*
X555315Y887106D02*
Y884547D01*
X557874Y887106D02*
Y884547D01*
X133353Y642849D02*
Y640290D01*
X130794Y642849D02*
Y640290D01*
X128235Y642849D02*
Y640290D01*
X125676Y642849D02*
Y640290D01*
X123117Y642849D02*
Y640290D01*
X117506Y637239D02*
X120065D01*
X117506Y634680D02*
X120065D01*
X117506Y632120D02*
X120065D01*
X117506Y629561D02*
X120065D01*
X117506Y627002D02*
X120065D01*
X123117Y623951D02*
Y621392D01*
X125676Y623951D02*
Y621392D01*
X128235Y623951D02*
Y621392D01*
X130794Y623951D02*
Y621392D01*
X133353Y623951D02*
Y621392D01*
X136404Y627002D02*
X138963D01*
X136404Y629561D02*
X138963D01*
X136404Y632120D02*
X138963D01*
X136404Y634680D02*
X138963D01*
X136404Y637239D02*
X138963D01*
G54D52*
X655118Y895276D03*
X603937D03*
X552756D03*
X128235Y632120D03*
G54D53*
X1269772Y952593D02*
X1272872D01*
X1291172D02*
X1294272D01*
X1269772Y962593D02*
X1272872D01*
X1291172D02*
X1294272D01*
X1269772Y972593D02*
X1272872D01*
X1291172D02*
X1294272D01*
X1269772Y982593D02*
X1272872D01*
X1291172D02*
X1294272D01*
X1269772Y992593D02*
X1272872D01*
X1291172D02*
X1294272D01*
G54D55*
X891732Y516634D02*
Y521949D01*
X902756Y516634D02*
Y521949D01*
X1248031Y561909D02*
Y567224D01*
X1259055Y561909D02*
Y567224D01*
X1248031Y548130D02*
Y553445D01*
X1259055Y548130D02*
Y553445D01*
X291337Y448787D02*
Y443472D01*
X280314Y448787D02*
Y443472D01*
X292912Y495244D02*
Y489929D01*
X281888Y495244D02*
Y489929D01*
X292912Y509024D02*
Y503709D01*
X281888Y509024D02*
Y503709D01*
X901575Y709547D02*
Y714862D01*
X912598Y709547D02*
Y714862D01*
X901575Y723327D02*
Y728642D01*
X912598Y723327D02*
Y728642D01*
X901575Y737106D02*
Y742421D01*
X912598Y737106D02*
Y742421D01*
X606682Y935335D02*
Y930020D01*
X595659Y935335D02*
Y930020D01*
X115323Y608063D02*
Y613378D01*
X126346Y608063D02*
Y613378D01*
X192126Y784154D02*
Y778839D01*
X181102Y784154D02*
Y778839D01*
X136089Y413979D02*
X130774D01*
X136089Y425002D02*
X130774D01*
X122471Y688620D02*
Y683306D01*
X111447Y688620D02*
Y683306D01*
X660630Y876280D02*
Y870965D01*
X649606Y876280D02*
Y870965D01*
X609449Y876280D02*
Y870965D01*
X598425Y876280D02*
Y870965D01*
X558268Y876280D02*
Y870965D01*
X547244Y876280D02*
Y870965D01*
X125620Y383896D02*
Y378581D01*
X114597Y383896D02*
Y378581D01*
X250877Y181532D02*
X256192D01*
X250877Y170509D02*
X256192D01*
X270677Y181532D02*
X275992D01*
X270677Y170509D02*
X275992D01*
X213916Y395160D02*
X208601D01*
X213916Y406183D02*
X208601D01*
X176660Y580663D02*
Y585978D01*
X187683Y580663D02*
Y585978D01*
X891732Y530413D02*
Y535728D01*
X902756Y530413D02*
Y535728D01*
X1253937Y577657D02*
Y582972D01*
X1264961Y577657D02*
Y582972D01*
X863091Y432283D02*
X868406D01*
X863091Y421260D02*
X868406D01*
X657510Y935335D02*
Y930020D01*
X646487Y935335D02*
Y930020D01*
X556575Y935335D02*
Y930020D01*
X545551Y935335D02*
Y930020D01*
X168014Y695565D02*
Y690250D01*
X156991Y695565D02*
Y690250D01*
X168014Y681565D02*
Y676250D01*
X156991Y681565D02*
Y676250D01*
X168014Y709565D02*
Y704250D01*
X156991Y709565D02*
Y704250D01*
X122471Y730620D02*
Y725306D01*
X111447Y730620D02*
Y725306D01*
X122471Y716520D02*
Y711206D01*
X111447Y716520D02*
Y711206D01*
X122471Y702620D02*
Y697306D01*
X111447Y702620D02*
Y697306D01*
X292912Y549969D02*
Y544654D01*
X281888Y549969D02*
Y544654D01*
X293306Y470047D02*
Y464732D01*
X282282Y470047D02*
Y464732D01*
G54D56*
X1037598Y269882D02*
Y267913D01*
X1035039Y269882D02*
Y267913D01*
X1032480Y269882D02*
Y267913D01*
Y261220D02*
Y259252D01*
X1037598Y261220D02*
Y259252D01*
X902638Y422047D02*
Y420079D01*
X900079Y422047D02*
Y420079D01*
X897520Y422047D02*
Y420079D01*
Y413386D02*
Y411417D01*
X902638Y413386D02*
Y411417D01*
G54D57*
X1255648Y978248D02*
Y973327D01*
X1253089Y978248D02*
Y973327D01*
X1250530Y978248D02*
Y973327D01*
X1247971Y978248D02*
Y973327D01*
X1245412Y978248D02*
Y973327D01*
X1242853Y978248D02*
Y973327D01*
X1240294Y978248D02*
Y973327D01*
X1237735Y978248D02*
Y973327D01*
X1235176Y978248D02*
Y973327D01*
X1232617Y978248D02*
Y973327D01*
Y951083D02*
Y946161D01*
X1235176Y951083D02*
Y946161D01*
X1237735Y951083D02*
Y946161D01*
X1240294Y951083D02*
Y946161D01*
X1242853Y951083D02*
Y946161D01*
X1245412Y951083D02*
Y946161D01*
X1247971Y951083D02*
Y946161D01*
X1250530Y951083D02*
Y946161D01*
X1253089Y951083D02*
Y946161D01*
X1255648Y951083D02*
Y946161D01*
X1219783Y978248D02*
Y973327D01*
X1217224Y978248D02*
Y973327D01*
X1214665Y978248D02*
Y973327D01*
X1212106Y978248D02*
Y973327D01*
X1209547Y978248D02*
Y973327D01*
X1206988Y978248D02*
Y973327D01*
X1204429Y978248D02*
Y973327D01*
X1201870Y978248D02*
Y973327D01*
X1199311Y978248D02*
Y973327D01*
X1196752Y978248D02*
Y973327D01*
Y951083D02*
Y946161D01*
X1199311Y951083D02*
Y946161D01*
X1201870Y951083D02*
Y946161D01*
X1204429Y951083D02*
Y946161D01*
X1206988Y951083D02*
Y946161D01*
X1209547Y951083D02*
Y946161D01*
X1212106Y951083D02*
Y946161D01*
X1214665Y951083D02*
Y946161D01*
X1217224Y951083D02*
Y946161D01*
X1219783Y951083D02*
Y946161D01*
X279134Y853937D03*
Y850000D03*
Y846063D03*
Y842126D03*
Y838189D03*
Y834252D03*
Y830315D03*
Y826378D03*
Y822441D03*
Y818504D03*
Y814567D03*
Y810630D03*
Y806693D03*
Y802756D03*
Y798819D03*
Y794882D03*
X275197Y853937D03*
Y850000D03*
Y846063D03*
Y842126D03*
Y838189D03*
Y834252D03*
Y830315D03*
Y826378D03*
Y822441D03*
Y818504D03*
Y814567D03*
Y810630D03*
Y806693D03*
Y802756D03*
Y798819D03*
Y794882D03*
X271260Y853937D03*
Y850000D03*
Y846063D03*
Y842126D03*
Y838189D03*
Y834252D03*
Y830315D03*
Y826378D03*
Y822441D03*
Y818504D03*
Y814567D03*
Y810630D03*
Y806693D03*
Y802756D03*
Y798819D03*
Y794882D03*
X267323Y853937D03*
Y850000D03*
Y846063D03*
Y842126D03*
Y838189D03*
Y834252D03*
Y830315D03*
Y826378D03*
Y822441D03*
Y818504D03*
Y814567D03*
Y810630D03*
Y806693D03*
Y802756D03*
Y798819D03*
Y794882D03*
X263386Y853937D03*
Y850000D03*
Y846063D03*
Y842126D03*
Y838189D03*
Y834252D03*
Y830315D03*
Y826378D03*
Y822441D03*
Y818504D03*
Y814567D03*
Y810630D03*
Y806693D03*
Y802756D03*
Y798819D03*
Y794882D03*
X259449Y853937D03*
Y850000D03*
Y846063D03*
Y842126D03*
Y838189D03*
Y834252D03*
Y830315D03*
Y826378D03*
Y822441D03*
Y818504D03*
Y814567D03*
Y810630D03*
Y806693D03*
Y802756D03*
Y798819D03*
Y794882D03*
X255512Y853937D03*
Y850000D03*
Y846063D03*
Y842126D03*
Y838189D03*
Y834252D03*
Y830315D03*
Y826378D03*
Y822441D03*
Y818504D03*
Y814567D03*
Y810630D03*
Y806693D03*
Y802756D03*
Y798819D03*
Y794882D03*
X251575Y853937D03*
Y850000D03*
Y846063D03*
Y842126D03*
Y838189D03*
Y834252D03*
Y830315D03*
Y826378D03*
Y822441D03*
Y818504D03*
Y814567D03*
Y810630D03*
Y806693D03*
Y802756D03*
Y798819D03*
Y794882D03*
X247638Y853937D03*
Y850000D03*
Y846063D03*
Y842126D03*
Y838189D03*
Y834252D03*
Y830315D03*
Y826378D03*
Y822441D03*
Y818504D03*
Y814567D03*
Y810630D03*
Y806693D03*
Y802756D03*
Y798819D03*
Y794882D03*
X243701Y853937D03*
Y850000D03*
Y846063D03*
Y842126D03*
Y838189D03*
Y834252D03*
Y830315D03*
Y826378D03*
Y822441D03*
Y818504D03*
Y814567D03*
Y810630D03*
Y806693D03*
Y802756D03*
Y798819D03*
Y794882D03*
X239764Y853937D03*
Y850000D03*
Y846063D03*
Y842126D03*
Y838189D03*
Y834252D03*
Y830315D03*
Y826378D03*
Y822441D03*
Y818504D03*
Y814567D03*
Y810630D03*
Y806693D03*
Y802756D03*
Y798819D03*
Y794882D03*
X235827Y853937D03*
Y850000D03*
Y846063D03*
Y842126D03*
Y838189D03*
Y834252D03*
Y830315D03*
Y826378D03*
Y822441D03*
Y818504D03*
Y814567D03*
Y810630D03*
Y806693D03*
Y802756D03*
Y798819D03*
Y794882D03*
X231890Y853937D03*
Y850000D03*
Y846063D03*
Y842126D03*
Y838189D03*
Y834252D03*
Y830315D03*
Y826378D03*
Y822441D03*
Y818504D03*
Y814567D03*
Y810630D03*
Y806693D03*
Y802756D03*
Y798819D03*
Y794882D03*
X227953Y853937D03*
Y850000D03*
Y846063D03*
Y842126D03*
Y838189D03*
Y834252D03*
Y830315D03*
Y826378D03*
Y822441D03*
Y818504D03*
Y814567D03*
Y810630D03*
Y806693D03*
Y802756D03*
Y798819D03*
Y794882D03*
X224016Y853937D03*
Y850000D03*
Y846063D03*
Y842126D03*
Y838189D03*
Y834252D03*
Y830315D03*
Y826378D03*
Y822441D03*
Y818504D03*
Y814567D03*
Y810630D03*
Y806693D03*
Y802756D03*
Y798819D03*
Y794882D03*
X220079Y853937D03*
Y850000D03*
Y846063D03*
Y842126D03*
Y838189D03*
Y834252D03*
Y830315D03*
Y826378D03*
Y822441D03*
Y818504D03*
Y814567D03*
Y810630D03*
Y806693D03*
Y802756D03*
Y798819D03*
Y794882D03*
X810630Y535039D03*
X814567D03*
X818504D03*
X822441D03*
X826378D03*
X830315D03*
X834252D03*
X838189D03*
X842126D03*
X846063D03*
X850000D03*
X810630Y531102D03*
X814567D03*
X818504D03*
X822441D03*
X826378D03*
X830315D03*
X834252D03*
X838189D03*
X842126D03*
X846063D03*
X850000D03*
X810630Y527165D03*
X814567D03*
X818504D03*
X822441D03*
X826378D03*
X830315D03*
X834252D03*
X838189D03*
X842126D03*
X846063D03*
X850000D03*
X810630Y523228D03*
X814567D03*
X818504D03*
X822441D03*
X826378D03*
X830315D03*
X834252D03*
X838189D03*
X842126D03*
X846063D03*
X850000D03*
X810630Y519291D03*
X814567D03*
X818504D03*
X822441D03*
X826378D03*
X830315D03*
X834252D03*
X838189D03*
X842126D03*
X846063D03*
X850000D03*
X810630Y515354D03*
X814567D03*
X818504D03*
X822441D03*
X826378D03*
X830315D03*
X834252D03*
X838189D03*
X842126D03*
X846063D03*
X850000D03*
X810630Y511417D03*
X814567D03*
X818504D03*
X822441D03*
X826378D03*
X830315D03*
X834252D03*
X838189D03*
X842126D03*
X846063D03*
X850000D03*
X810630Y507480D03*
X814567D03*
X818504D03*
X822441D03*
X826378D03*
X830315D03*
X834252D03*
X838189D03*
X842126D03*
X846063D03*
X850000D03*
X810630Y503543D03*
X814567D03*
X818504D03*
X822441D03*
X826378D03*
X830315D03*
X834252D03*
X838189D03*
X842126D03*
X846063D03*
X850000D03*
X810630Y499606D03*
X814567D03*
X818504D03*
X822441D03*
X826378D03*
X830315D03*
X834252D03*
X838189D03*
X842126D03*
X846063D03*
X850000D03*
X810630Y495669D03*
X814567D03*
X818504D03*
X822441D03*
X826378D03*
X830315D03*
X834252D03*
X838189D03*
X842126D03*
X846063D03*
X850000D03*
X810630Y491732D03*
X814567D03*
X818504D03*
X822441D03*
X826378D03*
X830315D03*
X834252D03*
X838189D03*
X842126D03*
X846063D03*
X850000D03*
X810630Y487795D03*
X814567D03*
X818504D03*
X822441D03*
X826378D03*
X830315D03*
X834252D03*
X838189D03*
X842126D03*
X846063D03*
X850000D03*
X810630Y483858D03*
X814567D03*
X818504D03*
X822441D03*
X826378D03*
X830315D03*
X834252D03*
X838189D03*
X842126D03*
X846063D03*
X850000D03*
X810630Y479921D03*
X814567D03*
X818504D03*
X822441D03*
X826378D03*
X830315D03*
X834252D03*
X838189D03*
X842126D03*
X846063D03*
X850000D03*
X810630Y714173D03*
X814567D03*
X818504D03*
X822441D03*
X826378D03*
X830315D03*
X834252D03*
X838189D03*
X842126D03*
X846063D03*
X850000D03*
X810630Y710236D03*
X814567D03*
X818504D03*
X822441D03*
X826378D03*
X830315D03*
X834252D03*
X838189D03*
X842126D03*
X846063D03*
X850000D03*
X810630Y706299D03*
X814567D03*
X818504D03*
X822441D03*
X826378D03*
X830315D03*
X834252D03*
X838189D03*
X842126D03*
X846063D03*
X850000D03*
X810630Y702362D03*
X814567D03*
X818504D03*
X822441D03*
X826378D03*
X830315D03*
X834252D03*
X838189D03*
X842126D03*
X846063D03*
X850000D03*
X810630Y698425D03*
X814567D03*
X818504D03*
X822441D03*
X826378D03*
X830315D03*
X834252D03*
X838189D03*
X842126D03*
X846063D03*
X850000D03*
X810630Y694488D03*
X814567D03*
X818504D03*
X822441D03*
X826378D03*
X830315D03*
X834252D03*
X838189D03*
X842126D03*
X846063D03*
X850000D03*
X810630Y690551D03*
X814567D03*
X818504D03*
X822441D03*
X826378D03*
X830315D03*
X834252D03*
X838189D03*
X842126D03*
X846063D03*
X850000D03*
X810630Y686614D03*
X814567D03*
X818504D03*
X822441D03*
X826378D03*
X830315D03*
X834252D03*
X838189D03*
X842126D03*
X846063D03*
X850000D03*
X810630Y682677D03*
X814567D03*
X818504D03*
X822441D03*
X826378D03*
X830315D03*
X834252D03*
X838189D03*
X842126D03*
X846063D03*
X850000D03*
X810630Y678740D03*
X814567D03*
X818504D03*
X822441D03*
X826378D03*
X830315D03*
X834252D03*
X838189D03*
X842126D03*
X846063D03*
X850000D03*
X810630Y674803D03*
X814567D03*
X818504D03*
X822441D03*
X826378D03*
X830315D03*
X834252D03*
X838189D03*
X842126D03*
X846063D03*
X850000D03*
X810630Y670866D03*
X814567D03*
X818504D03*
X822441D03*
X826378D03*
X830315D03*
X834252D03*
X838189D03*
X842126D03*
X846063D03*
X850000D03*
X810630Y666929D03*
X814567D03*
X818504D03*
X822441D03*
X826378D03*
X830315D03*
X834252D03*
X838189D03*
X842126D03*
X846063D03*
X850000D03*
X810630Y662992D03*
X814567D03*
X818504D03*
X822441D03*
X826378D03*
X830315D03*
X834252D03*
X838189D03*
X842126D03*
X846063D03*
X850000D03*
X810630Y659055D03*
X814567D03*
X818504D03*
X822441D03*
X826378D03*
X830315D03*
X834252D03*
X838189D03*
X842126D03*
X846063D03*
X850000D03*
G54D58*
X1080510Y1000034D02*
Y999246D01*
X1072510Y1000034D02*
Y999246D01*
X1076510Y992554D02*
Y991766D01*
X1283892Y508695D02*
X1289601D01*
X1283892Y490191D02*
X1289601D01*
X1285073Y617357D02*
X1290782D01*
X1285073Y598853D02*
X1290782D01*
X270744Y236126D02*
X265035D01*
X270744Y254630D02*
X265035D01*
X131219Y399825D02*
Y394117D01*
X112715Y399825D02*
Y394117D01*
X231042Y391813D02*
X225333D01*
X231042Y410317D02*
X225333D01*
G54D59*
X1087337Y999542D02*
Y1000132D01*
X1092455Y999542D02*
Y1000132D01*
G54D60*
X414132Y912640D02*
Y904140D01*
X424132Y901140D02*
Y892640D01*
X434132Y912640D02*
Y904140D01*
X444132Y901140D02*
Y892640D01*
X454132Y912640D02*
Y904140D01*
X1215118Y906181D02*
X1206618D01*
X1203618Y896181D02*
X1195118D01*
X1215118Y886181D02*
X1206618D01*
X1203618Y876181D02*
X1195118D01*
X1215118Y866181D02*
X1206618D01*
X966299Y704055D02*
X975799D01*
X946799D02*
X956299D01*
X966299Y714055D02*
X975799D01*
X946799D02*
X956299D01*
X966299Y724055D02*
X975799D01*
X946799D02*
X956299D01*
X966299Y734055D02*
X975799D01*
X946799D02*
X956299D01*
X966299Y744055D02*
X975799D01*
X946799D02*
X956299D01*
X966299Y754055D02*
X975799D01*
X946799D02*
X956299D01*
X966299Y764055D02*
X975799D01*
X946799D02*
X956299D01*
X966299Y774055D02*
X975799D01*
X946799D02*
X956299D01*
X114009Y912992D02*
X123509D01*
X131609D02*
X141109D01*
X114009Y902992D02*
X123509D01*
X131609D02*
X141109D01*
X114009Y892992D02*
X123509D01*
X131609D02*
X141109D01*
X114009Y882992D02*
X123509D01*
X131609D02*
X141109D01*
X114009Y872992D02*
X123509D01*
X131609D02*
X141109D01*
X114009Y862992D02*
X123509D01*
X131609D02*
X141109D01*
X114009Y852992D02*
X123509D01*
X131609D02*
X141109D01*
X114009Y842992D02*
X123509D01*
X131609D02*
X141109D01*
X114009Y832992D02*
X123509D01*
X131609D02*
X141109D01*
X114009Y822992D02*
X123509D01*
X131609D02*
X141109D01*
X114009Y964173D02*
X123509D01*
X131609D02*
X141109D01*
X114009Y954173D02*
X123509D01*
X131609D02*
X141109D01*
X114009Y944173D02*
X123509D01*
X131609D02*
X141109D01*
X114009Y934173D02*
X123509D01*
X131609D02*
X141109D01*
X191857Y1021702D02*
Y1030702D01*
Y1039302D02*
Y1048302D01*
X201857Y1021702D02*
Y1030702D01*
Y1039302D02*
Y1048302D01*
X211857Y1021702D02*
Y1030702D01*
Y1039302D02*
Y1048302D01*
X221857Y1021702D02*
Y1030702D01*
Y1039302D02*
Y1048302D01*
X231857Y1021702D02*
Y1030702D01*
Y1039302D02*
Y1048302D01*
X114259Y800787D02*
X123259D01*
X131859D02*
X140859D01*
X114259Y790787D02*
X123259D01*
X131859D02*
X140859D01*
X114259Y780787D02*
X123259D01*
X131859D02*
X140859D01*
X114259Y770787D02*
X123259D01*
X131859D02*
X140859D01*
X114259Y760787D02*
X123259D01*
X131859D02*
X140859D01*
X402535Y980620D02*
Y995620D01*
Y1007620D02*
Y1022620D01*
X412535Y980620D02*
Y995620D01*
Y1007620D02*
Y1022620D01*
X422535Y980620D02*
Y995620D01*
Y1007620D02*
Y1022620D01*
X432535Y980620D02*
Y995620D01*
Y1007620D02*
Y1022620D01*
X442535Y980620D02*
Y995620D01*
Y1007620D02*
Y1022620D01*
X452535Y980620D02*
Y995620D01*
Y1007620D02*
Y1022620D01*
X462535Y980620D02*
Y995620D01*
Y1007620D02*
Y1022620D01*
X472535Y980620D02*
Y995620D01*
Y1007620D02*
Y1022620D01*
X482535Y980620D02*
Y995620D01*
Y1007620D02*
Y1022620D01*
X492535Y980620D02*
Y995620D01*
Y1007620D02*
Y1022620D01*
X260535Y980620D02*
Y995620D01*
Y1007620D02*
Y1022620D01*
X270535Y980620D02*
Y995620D01*
Y1007620D02*
Y1022620D01*
X280535Y980620D02*
Y995620D01*
Y1007620D02*
Y1022620D01*
X290535Y980620D02*
Y995620D01*
Y1007620D02*
Y1022620D01*
X300535Y980620D02*
Y995620D01*
Y1007620D02*
Y1022620D01*
X310535Y980620D02*
Y995620D01*
Y1007620D02*
Y1022620D01*
X320535Y980620D02*
Y995620D01*
Y1007620D02*
Y1022620D01*
X330535Y980620D02*
Y995620D01*
Y1007620D02*
Y1022620D01*
X340535Y980620D02*
Y995620D01*
Y1007620D02*
Y1022620D01*
X350535Y980620D02*
Y995620D01*
Y1007620D02*
Y1022620D01*
X114009Y1046850D02*
X123509D01*
X131609D02*
X141109D01*
X114009Y1036850D02*
X123509D01*
X131609D02*
X141109D01*
X114009Y1026850D02*
X123509D01*
X131609D02*
X141109D01*
X114009Y1016850D02*
X123509D01*
X131609D02*
X141109D01*
X114009Y1006850D02*
X123509D01*
X131609D02*
X141109D01*
X114009Y996850D02*
X123509D01*
X131609D02*
X141109D01*
X114009Y986850D02*
X123509D01*
X131609D02*
X141109D01*
X1068611Y213779D02*
X1068572D01*
X1068611Y223779D02*
X1068572D01*
X1046957Y213779D02*
X1046918D01*
X1046957Y223779D02*
X1046918D01*
X934646Y839252D02*
Y848752D01*
Y819752D02*
Y829252D01*
X924646Y839252D02*
Y848752D01*
Y819752D02*
Y829252D01*
X914646Y839252D02*
Y848752D01*
Y819752D02*
Y829252D01*
X904646Y839252D02*
Y848752D01*
Y819752D02*
Y829252D01*
X894646Y839252D02*
Y848752D01*
Y819752D02*
Y829252D01*
X884646Y839252D02*
Y848752D01*
Y819752D02*
Y829252D01*
X874646Y839252D02*
Y848752D01*
Y819752D02*
Y829252D01*
X864646Y839252D02*
Y848752D01*
Y819752D02*
Y829252D01*
G54D61*
X997836Y716988D02*
X1001136D01*
X1025636D02*
X1028936D01*
X997836Y719488D02*
X1001136D01*
X1025636D02*
X1028936D01*
X997836Y721988D02*
X1001136D01*
X1025636D02*
X1028936D01*
X997836Y724488D02*
X1001136D01*
X1025636D02*
X1028936D01*
X997836Y726988D02*
X1001136D01*
X1025636D02*
X1028936D01*
X997836Y729488D02*
X1001136D01*
X1025636D02*
X1028936D01*
X997836Y731988D02*
X1001136D01*
X1025636D02*
X1028936D01*
X997836Y734488D02*
X1001136D01*
X1025636D02*
X1028936D01*
X997836Y736988D02*
X1001136D01*
X1025636D02*
X1028936D01*
X997836Y739488D02*
X1001136D01*
X1025636D02*
X1028936D01*
X997836Y741988D02*
X1001136D01*
X1025636D02*
X1028936D01*
X997836Y744488D02*
X1001136D01*
X1025636D02*
X1028936D01*
X997836Y746988D02*
X1001136D01*
X1025636D02*
X1028936D01*
X997836Y749488D02*
X1001136D01*
X1025636D02*
X1028936D01*
X997836Y751988D02*
X1001136D01*
X1025636D02*
X1028936D01*
X997836Y754488D02*
X1001136D01*
X1025636D02*
X1028936D01*
X997836Y756988D02*
X1001136D01*
X1025636D02*
X1028936D01*
X997836Y759488D02*
X1001136D01*
X1025636D02*
X1028936D01*
X997836Y761988D02*
X1001136D01*
X1025636D02*
X1028936D01*
G54D62*
X1106890Y311614D02*
Y312008D01*
X1123819Y311614D02*
Y312008D01*
X1064764Y354528D02*
Y354921D01*
X1081693Y354528D02*
Y354921D01*
G54D63*
X332046Y961695D02*
Y956774D01*
X330472Y961695D02*
Y956774D01*
X328897Y961695D02*
Y956774D01*
X327322Y961695D02*
Y956774D01*
X325747Y961695D02*
Y956774D01*
X324172Y961695D02*
Y956774D01*
X322598Y961695D02*
Y956774D01*
X321023Y961695D02*
Y956774D01*
Y938467D02*
Y933546D01*
X322598Y938467D02*
Y933546D01*
X324172Y938467D02*
Y933546D01*
X325747Y938467D02*
Y933546D01*
X327322Y938467D02*
Y933546D01*
X328897Y938467D02*
Y933546D01*
X330472Y938467D02*
Y933546D01*
X332046Y938467D02*
Y933546D01*
X292046Y961695D02*
Y956774D01*
X290472Y961695D02*
Y956774D01*
X288897Y961695D02*
Y956774D01*
X287322Y961695D02*
Y956774D01*
X285747Y961695D02*
Y956774D01*
X284172Y961695D02*
Y956774D01*
X282598Y961695D02*
Y956774D01*
X281023Y961695D02*
Y956774D01*
Y938467D02*
Y933546D01*
X282598Y938467D02*
Y933546D01*
X284172Y938467D02*
Y933546D01*
X285747Y938467D02*
Y933546D01*
X287322Y938467D02*
Y933546D01*
X288897Y938467D02*
Y933546D01*
X290472Y938467D02*
Y933546D01*
X292046Y938467D02*
Y933546D01*
X498663Y911743D02*
Y916665D01*
X500238Y911743D02*
Y916665D01*
X501813Y911743D02*
Y916665D01*
X503387Y911743D02*
Y916665D01*
X504962Y911743D02*
Y916665D01*
X506537Y911743D02*
Y916665D01*
X508112Y911743D02*
Y916665D01*
X509687Y911743D02*
Y916665D01*
Y934972D02*
Y939893D01*
X508112Y934972D02*
Y939893D01*
X506537Y934972D02*
Y939893D01*
X504962Y934972D02*
Y939893D01*
X503387Y934972D02*
Y939893D01*
X501813Y934972D02*
Y939893D01*
X500238Y934972D02*
Y939893D01*
X498663Y934972D02*
Y939893D01*
X434046Y961695D02*
Y956774D01*
X432472Y961695D02*
Y956774D01*
X430897Y961695D02*
Y956774D01*
X429322Y961695D02*
Y956774D01*
X427747Y961695D02*
Y956774D01*
X426172Y961695D02*
Y956774D01*
X424598Y961695D02*
Y956774D01*
X423023Y961695D02*
Y956774D01*
Y938467D02*
Y933546D01*
X424598Y938467D02*
Y933546D01*
X426172Y938467D02*
Y933546D01*
X427747Y938467D02*
Y933546D01*
X429322Y938467D02*
Y933546D01*
X430897Y938467D02*
Y933546D01*
X432472Y938467D02*
Y933546D01*
X434046Y938467D02*
Y933546D01*
X476046Y961695D02*
Y956774D01*
X474472Y961695D02*
Y956774D01*
X472897Y961695D02*
Y956774D01*
X471322Y961695D02*
Y956774D01*
X469747Y961695D02*
Y956774D01*
X468172Y961695D02*
Y956774D01*
X466598Y961695D02*
Y956774D01*
X465023Y961695D02*
Y956774D01*
Y938467D02*
Y933546D01*
X466598Y938467D02*
Y933546D01*
X468172Y938467D02*
Y933546D01*
X469747Y938467D02*
Y933546D01*
X471322Y938467D02*
Y933546D01*
X472897Y938467D02*
Y933546D01*
X474472Y938467D02*
Y933546D01*
X476046Y938467D02*
Y933546D01*
G54D64*
X217150Y283108D02*
Y281533D01*
X206520Y283108D02*
Y281533D01*
X315945Y112598D02*
Y111024D01*
X305315Y112598D02*
Y111024D01*
X153850Y282908D02*
Y281333D01*
X143220Y282908D02*
Y281333D01*
X192912Y462702D02*
Y461127D01*
X182282Y462702D02*
Y461127D01*
X315945Y136220D02*
Y134646D01*
X305315Y136220D02*
Y134646D01*
X315945Y124409D02*
Y122835D01*
X305315Y124409D02*
Y122835D01*
X1224245Y206500D02*
Y208862D01*
G54D65*
X218494Y231002D02*
Y232183D01*
X225975Y231002D02*
Y232183D01*
X222235Y240057D02*
Y241239D01*
X218494Y263002D02*
Y264183D01*
X225975Y263002D02*
Y264183D01*
X222235Y272057D02*
Y273239D01*
X113975Y589239D02*
Y588057D01*
X106494Y589239D02*
Y588057D01*
X110235Y580183D02*
Y579002D01*
X218494Y247002D02*
Y248183D01*
X225975Y247002D02*
Y248183D01*
X222235Y256057D02*
Y257239D01*
X1249739Y189798D02*
X1250920D01*
X1249739Y182317D02*
X1250920D01*
X1258794Y186057D02*
X1259975D01*
G54D66*
X954764Y308951D02*
Y303451D01*
X944764Y308951D02*
Y303451D01*
X934764Y308951D02*
Y303451D01*
X924764Y308951D02*
Y303451D01*
Y283951D02*
Y278451D01*
X934764Y283951D02*
Y278451D01*
X944764Y283951D02*
Y278451D01*
X954764Y283951D02*
Y278451D01*
X1000433Y308951D02*
Y303451D01*
X990433Y308951D02*
Y303451D01*
X980433Y308951D02*
Y303451D01*
X970433Y308951D02*
Y303451D01*
Y283951D02*
Y278451D01*
X980433Y283951D02*
Y278451D01*
X990433Y283951D02*
Y278451D01*
X1000433Y283951D02*
Y278451D01*
G54D67*
X206235Y154790D02*
Y147309D01*
Y120931D02*
Y113451D01*
X124235Y154790D02*
Y147309D01*
Y120931D02*
Y113451D01*
X206904Y252120D02*
X199424D01*
X173046D02*
X165565D01*
X152597Y477183D02*
Y469703D01*
Y443325D02*
Y435845D01*
X150904Y252120D02*
X143424D01*
X117046D02*
X109565D01*
G54D68*
X1251313Y170900D02*
X1253676D01*
X1251313Y163420D02*
X1253676D01*
X1259187Y167160D02*
X1261550D01*
X1258006Y251609D02*
X1260369D01*
X1258006Y244128D02*
X1260369D01*
X1265880Y247869D02*
X1268243D01*
G54D69*
X1248388Y637161D02*
X1247010D01*
X1248388Y644248D02*
X1247010D01*
X260235Y497803D02*
Y499181D01*
X267322Y497803D02*
Y499181D01*
X913681Y472441D02*
X912303D01*
X913681Y479528D02*
X912303D01*
X920177Y788583D02*
X921555D01*
X920177Y781496D02*
X921555D01*
X610531Y435039D02*
X609154D01*
X610531Y442126D02*
X609154D01*
X699114Y742126D02*
X697736D01*
X699114Y749213D02*
X697736D01*
X563287Y435039D02*
X561909D01*
X563287Y442126D02*
X561909D01*
X771654Y485138D02*
Y486516D01*
X778740Y485138D02*
Y486516D01*
X437008Y609154D02*
Y610531D01*
X444094Y609154D02*
Y610531D01*
X437008Y632776D02*
Y634154D01*
X444094Y632776D02*
Y634154D01*
X437008Y585531D02*
Y586909D01*
X444094Y585531D02*
Y586909D01*
X575098Y742126D02*
X573720D01*
X575098Y749213D02*
X573720D01*
X437008Y508760D02*
Y510138D01*
X444094Y508760D02*
Y510138D01*
X437008Y457579D02*
Y458957D01*
X444094Y457579D02*
Y458957D01*
X760138Y742126D02*
X758760D01*
X760138Y749213D02*
X758760D01*
X752264Y435039D02*
X750886D01*
X752264Y442126D02*
X750886D01*
X783760Y435039D02*
X782382D01*
X783760Y442126D02*
X782382D01*
X538287D02*
X539665D01*
X538287Y435039D02*
X539665D01*
X585531Y442126D02*
X586909D01*
X585531Y435039D02*
X586909D01*
X771654Y500886D02*
Y502264D01*
X778740Y500886D02*
Y502264D01*
X437008Y561909D02*
Y563287D01*
X444094Y561909D02*
Y563287D01*
X437008Y485138D02*
Y486516D01*
X444094Y485138D02*
Y486516D01*
X553445Y742126D02*
X552067D01*
X553445Y749213D02*
X552067D01*
X785728Y742126D02*
X784350D01*
X785728Y749213D02*
X784350D01*
X675492Y742126D02*
X674114D01*
X675492Y749213D02*
X674114D01*
X437008Y433957D02*
Y435335D01*
X444094Y433957D02*
Y435335D01*
X720768Y435039D02*
X719390D01*
X720768Y442126D02*
X719390D01*
X632776D02*
X634154D01*
X632776Y435039D02*
X634154D01*
X656398Y442126D02*
X657776D01*
X656398Y435039D02*
X657776D01*
X689272D02*
X687894D01*
X689272Y442126D02*
X687894D01*
X771654Y469390D02*
Y470768D01*
X778740Y469390D02*
Y470768D01*
X728642Y742126D02*
X727264D01*
X728642Y749213D02*
X727264D01*
X590846Y742126D02*
X589469D01*
X590846Y749213D02*
X589469D01*
X437008Y536319D02*
Y537697D01*
X444094Y536319D02*
Y537697D01*
X437008Y410335D02*
Y411713D01*
X444094Y410335D02*
Y411713D01*
G54D70*
X632184Y1051417D02*
Y1051024D01*
X625885Y1051417D02*
Y1051024D01*
X644884Y1051417D02*
Y1051024D01*
X638585Y1051417D02*
Y1051024D01*
X452165Y681890D02*
X452559D01*
X452165Y675591D02*
X452559D01*
X619784Y1051417D02*
Y1051024D01*
X613485Y1051417D02*
Y1051024D01*
X606984Y1051417D02*
Y1051024D01*
X600685Y1051417D02*
Y1051024D01*
X452165Y737008D02*
X452559D01*
X452165Y730709D02*
X452559D01*
X1076483Y899788D02*
Y899394D01*
X1070184Y899788D02*
Y899394D01*
X1090849Y887152D02*
Y886758D01*
X1084550Y887152D02*
Y886758D01*
G54D71*
X1051117Y986156D02*
Y989109D01*
X1063321Y986156D02*
Y989109D01*
G54D72*
X1115387Y127169D02*
Y128744D01*
X1230741Y127169D02*
Y128744D01*
G54D73*
X116465Y417957D02*
Y419138D01*
Y446697D02*
Y447878D01*
G54D74*
X174473Y598538D02*
Y600703D01*
X191796Y598538D02*
Y600703D01*
X268717Y194059D02*
X266552D01*
X268717Y211382D02*
X266552D01*
G54D75*
X1245572Y932882D02*
Y930913D01*
X1243603Y932882D02*
Y930913D01*
X1241635Y932882D02*
Y930913D01*
Y928945D02*
Y926976D01*
X1243603Y928945D02*
Y926976D01*
X1245572Y928945D02*
Y926976D01*
X1232534Y932882D02*
Y930913D01*
X1230565Y932882D02*
Y930913D01*
X1228597Y932882D02*
Y930913D01*
Y928945D02*
Y926976D01*
X1230565Y928945D02*
Y926976D01*
X1232534Y928945D02*
Y926976D01*
X1218955Y932882D02*
Y930913D01*
X1216987Y932882D02*
Y930913D01*
X1215018Y932882D02*
Y930913D01*
Y928945D02*
Y926976D01*
X1216987Y928945D02*
Y926976D01*
X1218955Y928945D02*
Y926976D01*
X0Y0D02*
M02*
