*
*
G04 PADS Layout (Build Number 2007.45.1) generated Gerber (RS-274-X) file*
G04 PC Version=2.1*
*
%IN "roach101.pcb"*%
*
%MOIN*%
*
%FSLAX35Y35*%
*
*
*
*
G04 PC Standard Apertures*
*
*
G04 Thermal Relief Aperture macro.*
%AMTER*
1,1,$1,0,0*
1,0,$1-$2,0,0*
21,0,$3,$4,0,0,45*
21,0,$3,$4,0,0,135*
%
*
*
G04 Annular Aperture macro.*
%AMANN*
1,1,$1,0,0*
1,0,$2,0,0*
%
*
*
G04 Odd Aperture macro.*
%AMODD*
1,1,$1,0,0*
1,0,$1-0.005,0,0*
%
*
*
G04 PC Custom Aperture Macros*
*
*
*
*
*
*
G04 PC Aperture Table*
*
%ADD035R,0.02362X0.02362*%
%ADD037R,0.0374X0.0374*%
%ADD039R,0.01181X0.01181*%
%ADD046R,0.00984X0.00984*%
%ADD054R,0.05118X0.05118*%
%ADD055R,0.05315X0.05315*%
*
*
*
*
G04 PC Copper Outlines (0)*
G04 Layer Name roach101.pcb - dark (0)*
%LPD*%
*
*
G04 PC Area=Custom_Thermal*
*
G04 PC Custom Flashes*
G04 Layer Name roach101.pcb - flashes*
%LPD*%
*
*
G04 PC Circuitry*
G04 Layer Name roach101.pcb - circuitry*
%LPD*%
*
G54D35*
G01X857677Y686614D03*
X854134D03*
X857677Y507480D03*
X854134D03*
X1054602Y552756D02*
X1054406D01*
X1051059D02*
X1050862D01*
X1005512Y519193D02*
Y518996D01*
Y515650D02*
Y515453D01*
X979921Y633563D02*
Y633760D01*
Y637106D02*
Y637303D01*
X826476Y568504D02*
X826673D01*
X830020D02*
X830217D01*
X1062598Y558760D02*
Y558957D01*
Y562303D02*
Y562500D01*
X1059665Y635433D02*
X1059469D01*
X1056122D02*
X1055925D01*
X1054724Y580413D02*
Y580610D01*
Y583957D02*
Y584154D01*
X1025539Y627559D02*
X1025343D01*
X1021996D02*
X1021799D01*
X987795Y568720D02*
Y568917D01*
Y572264D02*
Y572461D01*
Y519193D02*
Y518996D01*
Y515650D02*
Y515453D01*
X1218799Y959843D02*
X1218602D01*
X1215256D02*
X1215059D01*
X1041043Y552756D02*
X1041240D01*
X1044587D02*
X1044783D01*
X1066535Y631437D02*
Y631634D01*
Y634980D02*
Y635177D01*
X979921Y595563D02*
Y595760D01*
Y599106D02*
Y599303D01*
X566634Y564567D02*
X566831D01*
X570177D02*
X570374D01*
X1023445Y560630D02*
X1023248D01*
X1019902D02*
X1019705D01*
X1058539Y627559D02*
X1058343D01*
X1054996D02*
X1054799D01*
X1009350Y621654D02*
X1009154D01*
X1005807D02*
X1005610D01*
X1011417Y519193D02*
Y518996D01*
Y515650D02*
Y515453D01*
X1048819Y618602D02*
Y618799D01*
Y622146D02*
Y622343D01*
X979921Y577563D02*
Y577760D01*
Y581106D02*
Y581303D01*
X1054724Y618760D02*
Y618957D01*
Y622303D02*
Y622500D01*
X982602Y552756D02*
X982406D01*
X979059D02*
X978862D01*
X1274443Y1003774D02*
X1274246D01*
X1270900D02*
X1270703D01*
X987099Y722625D02*
Y722428D01*
Y719082D02*
Y718885D01*
X1048819Y580413D02*
Y580610D01*
Y583957D02*
Y584154D01*
Y599602D02*
Y599799D01*
Y603146D02*
Y603343D01*
X987795Y623720D02*
Y623917D01*
Y627264D02*
Y627461D01*
X993701Y594476D02*
Y594673D01*
Y598020D02*
Y598217D01*
X1048819Y608602D02*
Y608799D01*
Y612146D02*
Y612343D01*
X1096161Y619685D02*
X1096358D01*
X1099705D02*
X1099902D01*
X993701Y576476D02*
Y576673D01*
Y580020D02*
Y580217D01*
X1037665Y635433D02*
X1037469D01*
X1034122D02*
X1033925D01*
X1036539Y627559D02*
X1036343D01*
X1032996D02*
X1032799D01*
X1030705Y560630D02*
X1030902D01*
X1034248D02*
X1034445D01*
X993701Y585476D02*
Y585673D01*
Y589020D02*
Y589217D01*
X987795Y590059D02*
Y589862D01*
Y586516D02*
Y586319D01*
X1037768Y568504D02*
X1037965D01*
X1041311D02*
X1041508D01*
X1008563Y568496D02*
X1008366D01*
X1005020D02*
X1004823D01*
X1003445Y560630D02*
X1003248D01*
X999902D02*
X999705D01*
X1062598Y618760D02*
Y618957D01*
Y622303D02*
Y622500D01*
Y599760D02*
Y599957D01*
Y603303D02*
Y603500D01*
X1054724Y608760D02*
Y608957D01*
Y612303D02*
Y612500D01*
X1027559Y552756D02*
X1027362D01*
X1024016D02*
X1023819D01*
X987795Y613878D02*
Y614075D01*
Y617421D02*
Y617618D01*
Y604035D02*
Y604232D01*
Y607579D02*
Y607776D01*
X1062598Y589760D02*
Y589957D01*
Y593303D02*
Y593500D01*
X1054724Y568760D02*
Y568957D01*
Y572303D02*
Y572500D01*
X1103642Y338583D02*
X1103839D01*
X1107185D02*
X1107382D01*
X1035602Y552756D02*
X1035406D01*
X1032059D02*
X1031862D01*
X979921Y586563D02*
Y586760D01*
Y590106D02*
Y590303D01*
X1118735Y338813D02*
X1118931D01*
X1122278D02*
X1122475D01*
X1062598Y608760D02*
Y608957D01*
Y612303D02*
Y612500D01*
X1077559Y381398D02*
Y381201D01*
Y377854D02*
Y377657D01*
X1036909Y264567D02*
X1036713D01*
X1033366D02*
X1033169D01*
X1096161Y635433D02*
X1096358D01*
X1099705D02*
X1099902D01*
X1256201Y959843D02*
X1256004D01*
X1252657D02*
X1252461D01*
X1007665Y635433D02*
X1007469D01*
X1004122D02*
X1003925D01*
X1006539Y627559D02*
X1006343D01*
X1002996D02*
X1002799D01*
X1062598Y578760D02*
Y578957D01*
Y582303D02*
Y582500D01*
X948327Y649213D02*
X948130D01*
X944783D02*
X944587D01*
X979921Y604563D02*
Y604760D01*
Y608106D02*
Y608303D01*
Y568563D02*
Y568760D01*
Y572106D02*
Y572303D01*
X1054724Y590256D02*
Y590453D01*
Y593799D02*
Y593996D01*
X1026665Y635433D02*
X1026469D01*
X1023122D02*
X1022925D01*
X993602Y552756D02*
X993406D01*
X990059D02*
X989862D01*
X987795Y594980D02*
Y595177D01*
Y598524D02*
Y598720D01*
Y558720D02*
Y558917D01*
Y562264D02*
Y562461D01*
X1018508Y568504D02*
X1018311D01*
X1014965D02*
X1014768D01*
X994429Y621055D02*
X994626D01*
X997972D02*
X998169D01*
X1017665Y635433D02*
X1017469D01*
X1014122D02*
X1013925D01*
X828445Y615748D02*
X828642D01*
X831988D02*
X832185D01*
X852067D02*
X852264D01*
X855610D02*
X855807D01*
X749705D02*
X749902D01*
X753248D02*
X753445D01*
X1013602Y552756D02*
X1013406D01*
X1010059D02*
X1009862D01*
X998665Y635433D02*
X998469D01*
X995122D02*
X994925D01*
X1054724Y558760D02*
Y558957D01*
Y562303D02*
Y562500D01*
X997539Y627559D02*
X997343D01*
X993996D02*
X993799D01*
X993701Y603476D02*
Y603673D01*
Y607020D02*
Y607217D01*
X948327Y641339D02*
X948130D01*
X944783D02*
X944587D01*
X999508Y568504D02*
X999311D01*
X995965D02*
X995768D01*
X1012445Y560630D02*
X1012248D01*
X1008902D02*
X1008705D01*
X1016539Y627559D02*
X1016343D01*
X1012996D02*
X1012799D01*
X1048819Y568602D02*
Y568799D01*
Y572146D02*
Y572343D01*
X1054724Y598760D02*
Y598957D01*
Y602303D02*
Y602500D01*
X993701Y558760D02*
Y558957D01*
Y562303D02*
Y562500D01*
X1020165Y621788D02*
X1019968D01*
X1016621D02*
X1016424D01*
X1040705Y560630D02*
X1040902D01*
X1044248D02*
X1044445D01*
X1048665Y635433D02*
X1048469D01*
X1045122D02*
X1044925D01*
X987795Y577657D02*
Y577854D01*
Y581201D02*
Y581398D01*
X979921Y558563D02*
Y558760D01*
Y562106D02*
Y562303D01*
X1048819Y590256D02*
Y590453D01*
Y593799D02*
Y593996D01*
X1031398Y622047D02*
X1031201D01*
X1027854D02*
X1027657D01*
X948327Y645276D02*
X948130D01*
X944783D02*
X944587D01*
X1003602Y552756D02*
X1003406D01*
X1000059D02*
X999862D01*
X1029458Y568487D02*
X1029261D01*
X1025915D02*
X1025718D01*
X1040165Y621788D02*
X1039968D01*
X1036621D02*
X1036424D01*
X979921Y623563D02*
Y623760D01*
Y627106D02*
Y627303D01*
X993701Y612476D02*
Y612673D01*
Y616020D02*
Y616217D01*
Y519193D02*
Y518996D01*
Y515650D02*
Y515453D01*
X979921Y613563D02*
Y613760D01*
Y617106D02*
Y617303D01*
X1047539Y627559D02*
X1047343D01*
X1043996D02*
X1043799D01*
X989665Y635433D02*
X989469D01*
X986122D02*
X985925D01*
X1096161Y623622D02*
X1096358D01*
X1099705D02*
X1099902D01*
X1096161Y639370D02*
X1096358D01*
X1099705D02*
X1099902D01*
X999606Y519193D02*
Y518996D01*
Y515650D02*
Y515453D01*
X981890Y519193D02*
Y518996D01*
Y515650D02*
Y515453D01*
X1096161Y631496D02*
X1096358D01*
X1099705D02*
X1099902D01*
X1017323Y519193D02*
Y518996D01*
Y515650D02*
Y515453D01*
X975984Y519193D02*
Y518996D01*
Y515650D02*
Y515453D01*
X1096161Y615748D02*
X1096358D01*
X1099705D02*
X1099902D01*
X603937Y659154D02*
Y659350D01*
Y662697D02*
Y662894D01*
X759758Y1022120D02*
X759955D01*
X763302D02*
X763498D01*
X742908Y1022160D02*
X742711D01*
X739365D02*
X739168D01*
X590453Y631496D02*
X590256D01*
X586909D02*
X586713D01*
X590453Y623622D02*
X590256D01*
X586909D02*
X586713D01*
X643307Y659154D02*
Y659350D01*
Y662697D02*
Y662894D01*
X811935Y1023250D02*
Y1023447D01*
Y1026794D02*
Y1026991D01*
X631496Y659154D02*
Y659350D01*
Y662697D02*
Y662894D01*
X820705Y1022520D02*
X820508D01*
X817161D02*
X816965D01*
X766412Y1022081D02*
X766609D01*
X769955D02*
X770152D01*
X795305Y1022220D02*
X795108D01*
X791761D02*
X791565D01*
X639370Y659154D02*
Y659350D01*
Y662697D02*
Y662894D01*
X647244Y659154D02*
Y659350D01*
Y662697D02*
Y662894D01*
X655118Y659154D02*
Y659350D01*
Y662697D02*
Y662894D01*
X651181Y659154D02*
Y659350D01*
Y662697D02*
Y662894D01*
X590453Y627559D02*
X590256D01*
X586909D02*
X586713D01*
X590453Y635433D02*
X590256D01*
X586909D02*
X586713D01*
X784105Y1022120D02*
X783908D01*
X780561D02*
X780365D01*
X755231Y1022160D02*
X755034D01*
X751687D02*
X751491D01*
X807105Y1022120D02*
X806908D01*
X803561D02*
X803365D01*
X731018Y1022160D02*
X731215D01*
X734561D02*
X734758D01*
X627559Y659154D02*
Y659350D01*
Y662697D02*
Y662894D01*
X619685Y659154D02*
Y659350D01*
Y662697D02*
Y662894D01*
X623622Y659154D02*
Y659350D01*
Y662697D02*
Y662894D01*
X678740Y659154D02*
Y659350D01*
Y662697D02*
Y662894D01*
X923835Y1023050D02*
Y1023247D01*
Y1026594D02*
Y1026791D01*
X932105Y1022220D02*
X931908D01*
X928561D02*
X928365D01*
X907205D02*
X907008D01*
X903661D02*
X903465D01*
X662992Y659154D02*
Y659350D01*
Y662697D02*
Y662894D01*
X702362Y659154D02*
Y659350D01*
Y662697D02*
Y662894D01*
X694488Y659154D02*
Y659350D01*
Y662697D02*
Y662894D01*
X698425Y659154D02*
Y659350D01*
Y662697D02*
Y662894D01*
X731594Y633465D02*
X731791D01*
X735138D02*
X735335D01*
X725984Y659154D02*
Y659350D01*
Y662697D02*
Y662894D01*
X718110Y659154D02*
Y659350D01*
Y662697D02*
Y662894D01*
X714173Y659154D02*
Y659350D01*
Y662697D02*
Y662894D01*
X690551Y659154D02*
Y659350D01*
Y662697D02*
Y662894D01*
X731594Y629528D02*
X731791D01*
X735138D02*
X735335D01*
X919005Y1022220D02*
X918808D01*
X915461D02*
X915265D01*
X895505D02*
X895308D01*
X891961D02*
X891765D01*
X659055Y659252D03*
Y662795D03*
X944528Y729055D03*
X948071D03*
X974528Y759055D03*
X978071D03*
X1062598Y568760D02*
Y568957D01*
Y572303D02*
Y572500D01*
X1054724Y515453D02*
Y515650D01*
Y518996D02*
Y519193D01*
X944429Y719055D02*
X944626D01*
X947972D02*
X948169D01*
X1065602Y552756D02*
X1065406D01*
X1062059D02*
X1061862D01*
X1244847Y462588D02*
X1244651D01*
X1241304D02*
X1241107D01*
X1024467Y995849D03*
Y999392D03*
X1019467Y1006049D03*
Y1009592D03*
X1014467Y995849D03*
Y999392D03*
X1004465Y995859D03*
Y999402D03*
X999467Y1006049D03*
Y1009592D03*
X1239272Y425383D03*
X1242815D03*
X949803Y425197D03*
X953346D03*
X970241Y434131D03*
Y437675D03*
X978155Y434131D03*
Y437675D03*
X953346Y421260D03*
X949803D03*
X749803Y576378D03*
X753346D03*
X333355Y518189D02*
Y518386D01*
Y521733D02*
Y521930D01*
X682677Y659154D02*
Y659350D01*
Y662697D02*
Y662894D01*
X666929Y659154D02*
Y659350D01*
Y662697D02*
Y662894D01*
X802610Y503543D02*
X802413D01*
X799067D02*
X798870D01*
X735925Y546850D02*
X736122D01*
X739469D02*
X739665D01*
X749705Y584252D02*
X749902D01*
X753248D02*
X753445D01*
X854035Y503543D02*
X854232D01*
X857579D02*
X857776D01*
X977183Y373428D02*
X976987D01*
X973640D02*
X973443D01*
X962183D02*
X961987D01*
X958640D02*
X958443D01*
X994183Y431928D02*
X993987D01*
X990640D02*
X990443D01*
X995313Y416557D02*
Y416754D01*
Y420101D02*
Y420298D01*
Y386557D02*
Y386754D01*
Y390101D02*
Y390298D01*
X992183Y373428D02*
X991987D01*
X988640D02*
X988443D01*
X995313Y401557D02*
Y401754D01*
Y405101D02*
Y405298D01*
X946183Y431928D02*
X945987D01*
X942640D02*
X942443D01*
X940313Y416557D02*
Y416754D01*
Y420101D02*
Y420298D01*
Y386557D02*
Y386754D01*
Y390101D02*
Y390298D01*
X1024665Y1009261D02*
Y1009457D01*
Y1012804D02*
Y1013001D01*
X1034265Y1009361D02*
Y1009557D01*
Y1012904D02*
Y1013101D01*
X1059597Y928182D02*
X1059794D01*
X1063141D02*
X1063337D01*
X1059597Y938282D02*
X1059794D01*
X1063141D02*
X1063337D01*
X1022173Y878158D02*
X1021976D01*
X1018629D02*
X1018433D01*
X1039988Y895776D02*
Y895579D01*
Y892233D02*
Y892036D01*
Y905619D02*
Y905422D01*
Y902075D02*
Y901879D01*
Y915461D02*
Y915264D01*
Y911918D02*
Y911721D01*
Y935146D02*
Y934949D01*
Y931603D02*
Y931406D01*
X1000618Y935146D02*
Y934949D01*
Y931603D02*
Y931406D01*
Y915461D02*
Y915264D01*
Y911918D02*
Y911721D01*
Y905619D02*
Y905422D01*
Y902075D02*
Y901879D01*
Y895776D02*
Y895579D01*
Y892233D02*
Y892036D01*
Y872351D02*
Y872548D01*
Y875894D02*
Y876091D01*
X1018433Y870284D02*
X1018629D01*
X1021976D02*
X1022173D01*
X1196183Y413428D02*
X1195987D01*
X1192640D02*
X1192443D01*
X1196183Y403428D02*
X1195987D01*
X1192640D02*
X1192443D01*
X1196183Y519428D02*
X1195987D01*
X1192640D02*
X1192443D01*
X1196183Y543428D02*
X1195987D01*
X1192640D02*
X1192443D01*
X1196183Y535428D02*
X1195987D01*
X1192640D02*
X1192443D01*
X1196183Y433428D02*
X1195987D01*
X1192640D02*
X1192443D01*
X1196183Y423428D02*
X1195987D01*
X1192640D02*
X1192443D01*
X1196183Y527428D02*
X1195987D01*
X1192640D02*
X1192443D01*
X1032167Y921777D02*
Y921974D01*
Y925320D02*
Y925517D01*
X1008167Y921777D02*
Y921974D01*
Y925320D02*
Y925517D01*
X1196183Y511428D02*
X1195987D01*
X1192640D02*
X1192443D01*
X1196183Y503428D02*
X1195987D01*
X1192640D02*
X1192443D01*
X1222539Y746457D02*
X1222736D01*
X1226083D02*
X1226280D01*
X1222539Y739370D02*
X1222736D01*
X1226083D02*
X1226280D01*
X1196183Y393428D02*
X1195987D01*
X1192640D02*
X1192443D01*
X1196183Y495428D02*
X1195987D01*
X1192640D02*
X1192443D01*
X1196183Y487428D02*
X1195987D01*
X1192640D02*
X1192443D01*
X1196026Y257972D02*
Y258169D01*
Y261516D02*
Y261713D01*
X1000618Y921564D02*
Y921760D01*
Y925107D02*
Y925304D01*
X963728Y153186D02*
Y153383D01*
Y156730D02*
Y156927D01*
X951525Y153186D02*
Y153383D01*
Y156730D02*
Y156927D01*
X715668Y153469D02*
Y153665D01*
Y157012D02*
Y157209D01*
X703545Y153469D02*
Y153665D01*
Y157012D02*
Y157209D01*
X611249Y153252D02*
Y153449D01*
Y156795D02*
Y156992D01*
X599005Y153252D02*
Y153449D01*
Y156795D02*
Y156992D01*
X363203Y153247D02*
Y153444D01*
Y156790D02*
Y156987D01*
X350999Y153247D02*
Y153444D01*
Y156790D02*
Y156987D01*
X590059Y556693D02*
X589862D01*
X586516D02*
X586319D01*
X590059Y580315D02*
X589862D01*
X586516D02*
X586319D01*
X590059Y596063D02*
X589862D01*
X586516D02*
X586319D01*
X590059Y588189D02*
X589862D01*
X586516D02*
X586319D01*
X590059Y564567D02*
X589862D01*
X586516D02*
X586319D01*
X356988Y241339D02*
X356791D01*
X353445D02*
X353248D01*
X617815Y568504D02*
X618012D01*
X621358D02*
X621555D01*
X590059Y572441D02*
X589862D01*
X586516D02*
X586319D01*
X590059Y549213D02*
X589862D01*
X586516D02*
X586319D01*
X590059Y607874D02*
X589862D01*
X586516D02*
X586319D01*
X854035Y682677D02*
X854232D01*
X857579D02*
X857776D01*
X731988Y613780D02*
X732185D01*
X735531D02*
X735728D01*
X731988Y617717D02*
X732185D01*
X735531D02*
X735728D01*
X802657Y682283D02*
X802461D01*
X799114D02*
X798917D01*
X1034267Y995849D03*
Y999392D03*
X141863Y367620D03*
X145406D03*
X1009467Y1006049D03*
Y1009592D03*
X225335Y191549D03*
Y195092D03*
X148206Y353420D03*
X144663D03*
X333308Y561066D03*
X329765D03*
X333308Y555995D03*
X329765D03*
X363780Y747441D03*
Y743898D03*
X355906Y745472D03*
Y741929D03*
X739961Y552756D03*
X743504D03*
X739950Y537008D03*
X743493D03*
X684646Y493898D03*
Y497441D03*
X749803Y568504D03*
X753346D03*
X1029465Y1005859D03*
Y1009402D03*
X974528Y719055D03*
X978071D03*
X852067Y568504D02*
X852264D01*
X855610D02*
X855807D01*
X570374Y572441D02*
X570177D01*
X566831D02*
X566634D01*
X570374Y556693D02*
X570177D01*
X566831D02*
X566634D01*
X570374Y540945D02*
X570177D01*
X566831D02*
X566634D01*
X570374Y517323D02*
X570177D01*
X566831D02*
X566634D01*
X645374Y568504D02*
X645571D01*
X648917D02*
X649114D01*
X596063Y659154D02*
Y659350D01*
Y662697D02*
Y662894D01*
X741831Y560630D02*
X742028D01*
X745374D02*
X745571D01*
X357088Y235939D02*
X356891D01*
X353545D02*
X353348D01*
X607874Y659154D02*
Y659350D01*
Y662697D02*
Y662894D01*
X749705Y521260D02*
X749902D01*
X753248D02*
X753445D01*
X749705Y529134D02*
X749902D01*
X753248D02*
X753445D01*
X566634Y509449D02*
X566831D01*
X570177D02*
X570374D01*
X383563Y568504D02*
X383760D01*
X387106D02*
X387303D01*
Y513386D02*
X387106D01*
X383760D02*
X383563D01*
X566634Y596063D02*
X566831D01*
X570177D02*
X570374D01*
X387303Y489764D02*
X387106D01*
X383760D02*
X383563D01*
X387303Y464370D02*
X387106D01*
X383760D02*
X383563D01*
X749705Y592126D02*
X749902D01*
X753248D02*
X753445D01*
X649114Y607874D02*
X648917D01*
X645571D02*
X645374D01*
X656988D02*
X656791D01*
X653445D02*
X653248D01*
X672736D02*
X672539D01*
X669193D02*
X668996D01*
X680610D02*
X680413D01*
X677067D02*
X676870D01*
X749705Y600000D02*
X749902D01*
X753248D02*
X753445D01*
X664862Y607874D02*
X664665D01*
X661319D02*
X661122D01*
X649114Y576378D02*
X648917D01*
X645571D02*
X645374D01*
X672736Y592126D02*
X672539D01*
X669193D02*
X668996D01*
X641240Y584252D02*
X641043D01*
X637697D02*
X637500D01*
X556594Y603937D02*
X556398D01*
X553051D02*
X552854D01*
X680610Y584252D02*
X680413D01*
X677067D02*
X676870D01*
X664862Y600000D02*
X664665D01*
X661319D02*
X661122D01*
X649114Y584252D02*
X648917D01*
X645571D02*
X645374D01*
X656988Y600000D02*
X656791D01*
X653445D02*
X653248D01*
X556594Y580315D02*
X556398D01*
X553051D02*
X552854D01*
X649114Y592126D02*
X648917D01*
X645571D02*
X645374D01*
X680610D02*
X680413D01*
X677067D02*
X676870D01*
X641240Y576378D02*
X641043D01*
X637697D02*
X637500D01*
X672736Y600000D02*
X672539D01*
X669193D02*
X668996D01*
X586319Y603937D02*
X586516D01*
X589862D02*
X590059D01*
X672736Y576378D02*
X672539D01*
X669193D02*
X668996D01*
X594094Y481988D02*
Y482185D01*
Y485531D02*
Y485728D01*
X649213Y481988D02*
Y482185D01*
Y485531D02*
Y485728D01*
X688484Y607874D02*
X688287D01*
X684941D02*
X684744D01*
X680610Y576378D02*
X680413D01*
X677067D02*
X676870D01*
X566634Y533071D02*
X566831D01*
X570177D02*
X570374D01*
X611811Y659154D02*
Y659350D01*
Y662697D02*
Y662894D01*
X239035Y190892D03*
Y187349D03*
X148106Y559120D03*
X144563D03*
X139863Y573820D03*
X143406D03*
X253543Y782972D02*
Y782776D01*
Y779429D02*
Y779232D01*
X566634Y588189D02*
X566831D01*
X570177D02*
X570374D01*
X474016Y593996D02*
Y593799D01*
Y590453D02*
Y590256D01*
Y635335D02*
Y635138D01*
Y631791D02*
Y631594D01*
X208169Y802756D02*
X207972D01*
X204626D02*
X204429D01*
X229921Y782972D02*
Y782776D01*
Y779429D02*
Y779232D01*
X277165Y782972D02*
Y782776D01*
Y779429D02*
Y779232D01*
X205863Y379420D03*
X209406D03*
X657185Y592126D02*
X657382D01*
X660728D02*
X660925D01*
X218110Y779232D02*
Y779429D01*
Y782776D02*
Y782972D01*
X241732Y779232D02*
Y779429D01*
Y782776D02*
Y782972D01*
X265354Y779232D02*
Y779429D01*
Y782776D02*
Y782972D01*
X288976Y779232D02*
Y779429D01*
Y782776D02*
Y782972D01*
X338663Y973020D03*
X342206D03*
X208906Y365920D03*
X205363D03*
X947183Y373428D02*
X946987D01*
X943640D02*
X943443D01*
X731594Y625591D02*
X731791D01*
X735138D02*
X735335D01*
X855105Y1022120D02*
X854908D01*
X851561D02*
X851365D01*
X387303Y537008D02*
X387106D01*
X383760D02*
X383563D01*
X710236Y659154D02*
Y659350D01*
Y662697D02*
Y662894D01*
X879205Y1022220D02*
X879008D01*
X875661D02*
X875465D01*
X843105Y1022120D02*
X842908D01*
X839561D02*
X839365D01*
X871135Y1023450D02*
Y1023647D01*
Y1026994D02*
Y1027191D01*
X866105Y1022120D02*
X865908D01*
X862561D02*
X862365D01*
X1196183Y559428D02*
X1195987D01*
X1192640D02*
X1192443D01*
X1196183Y551428D02*
X1195987D01*
X1192640D02*
X1192443D01*
X1010276Y930699D02*
X1010080D01*
X1006733D02*
X1006536D01*
X1034982Y930599D02*
X1034785D01*
X1031439D02*
X1031242D01*
X1000618Y882193D02*
Y882390D01*
Y885737D02*
Y885934D01*
X1039988Y921564D02*
Y921760D01*
Y925107D02*
Y925304D01*
Y882193D02*
Y882390D01*
Y885737D02*
Y885934D01*
X1033984Y870284D02*
X1033787D01*
X1030441D02*
X1030244D01*
X1010362D02*
X1010165D01*
X1006818D02*
X1006622D01*
X1189370Y270177D02*
Y270374D01*
Y273720D02*
Y273917D01*
X1014465Y1009261D02*
Y1009457D01*
Y1012804D02*
Y1013001D01*
X1196183Y479428D02*
X1195987D01*
X1192640D02*
X1192443D01*
X1196183Y471428D02*
X1195987D01*
X1192640D02*
X1192443D01*
X1196183Y463428D02*
X1195987D01*
X1192640D02*
X1192443D01*
X1196183Y453428D02*
X1195987D01*
X1192640D02*
X1192443D01*
X1196183Y443428D02*
X1195987D01*
X1192640D02*
X1192443D01*
X1004565Y1009261D02*
Y1009457D01*
Y1012804D02*
Y1013001D01*
X387303Y419094D02*
X387106D01*
X383760D02*
X383563D01*
X566634Y603937D02*
X566831D01*
X570177D02*
X570374D01*
X566634Y525197D02*
X566831D01*
X570177D02*
X570374D01*
X387303Y434843D02*
X387106D01*
X383760D02*
X383563D01*
X566634Y580315D02*
X566831D01*
X570177D02*
X570374D01*
X387303Y501575D02*
X387106D01*
X383760D02*
X383563D01*
X387303Y475984D02*
X387106D01*
X383760D02*
X383563D01*
X387303Y525197D02*
X387106D01*
X383760D02*
X383563D01*
X387303Y450591D02*
X387106D01*
X383760D02*
X383563D01*
X387303Y548819D02*
X387106D01*
X383760D02*
X383563D01*
X387303Y558661D02*
X387106D01*
X383760D02*
X383563D01*
X566634Y548819D02*
X566831D01*
X570177D02*
X570374D01*
X749705Y607874D02*
X749902D01*
X753248D02*
X753445D01*
X731988Y637402D02*
X732185D01*
X735531D02*
X735728D01*
X1039988Y876091D02*
Y875894D01*
Y872548D02*
Y872351D01*
X1079266Y1018439D02*
Y1018636D01*
Y1021983D02*
Y1022180D01*
X1084384Y1018439D02*
Y1018636D01*
Y1021983D02*
Y1022180D01*
X940313Y401557D02*
Y401754D01*
Y405101D02*
Y405298D01*
X656988Y576378D02*
X656791D01*
X653445D02*
X653248D01*
X641240Y592126D02*
X641043D01*
X637697D02*
X637500D01*
X649114Y600000D02*
X648917D01*
X645571D02*
X645374D01*
X799041Y507480D03*
X802584D03*
X799016Y686614D03*
X802559D03*
X749673Y513386D02*
X749870D01*
X753217D02*
X753413D01*
X556594Y556693D02*
X556398D01*
X553051D02*
X552854D01*
X664862Y576378D02*
X664665D01*
X661319D02*
X661122D01*
X656988Y568504D02*
X656791D01*
X653445D02*
X653248D01*
X664862D02*
X664665D01*
X661319D02*
X661122D01*
X672736D02*
X672539D01*
X669193D02*
X668996D01*
X696457Y485728D02*
Y485531D01*
Y482185D02*
Y481988D01*
X656988Y584252D02*
X656791D01*
X653445D02*
X653248D01*
X664862D02*
X664665D01*
X661319D02*
X661122D01*
X672736D02*
X672539D01*
X669193D02*
X668996D01*
X609843Y481988D02*
Y482185D01*
Y485531D02*
Y485728D01*
X735827Y481988D02*
Y482185D01*
Y485531D02*
Y485728D01*
X672835Y481988D02*
Y482185D01*
Y485531D02*
Y485728D01*
X641339Y481988D02*
Y482185D01*
Y485531D02*
Y485728D01*
X578346Y481988D02*
Y482185D01*
Y485531D02*
Y485728D01*
X670866Y659252D03*
Y662795D03*
X674803Y659252D03*
Y662795D03*
X905715Y423674D03*
Y420131D03*
X909985D03*
Y423674D03*
X422967Y163124D02*
Y162928D01*
Y159581D02*
Y159384D01*
X522967Y162731D02*
Y162534D01*
Y159187D02*
Y158991D01*
X755250Y162731D02*
Y162534D01*
Y159187D02*
Y158991D01*
X856038Y162731D02*
Y162534D01*
Y159187D02*
Y158991D01*
X441865Y159778D02*
Y159975D01*
Y163321D02*
Y163518D01*
X543439Y158991D02*
Y159187D01*
Y162534D02*
Y162731D01*
X774935Y158991D02*
Y159187D01*
Y162534D02*
Y162731D01*
X875723Y158991D02*
Y159187D01*
Y162534D02*
Y162731D01*
X894620Y158991D02*
Y159187D01*
Y162534D02*
Y162731D01*
X795408Y158991D02*
Y159187D01*
Y162534D02*
Y162731D01*
X563912Y158991D02*
Y159187D01*
Y162534D02*
Y162731D01*
X463124Y158991D02*
Y159187D01*
Y162534D02*
Y162731D01*
X916668Y158991D02*
Y159187D01*
Y162534D02*
Y162731D01*
X815880Y158991D02*
Y159187D01*
Y162534D02*
Y162731D01*
X583597Y158991D02*
Y159187D01*
Y162534D02*
Y162731D01*
X482809Y158991D02*
Y159187D01*
Y162534D02*
Y162731D01*
X403282Y159384D02*
Y159581D01*
Y162928D02*
Y163124D01*
X503282Y158991D02*
Y159187D01*
Y162534D02*
Y162731D01*
X734778Y158991D02*
Y159187D01*
Y162534D02*
Y162731D01*
X835565Y158203D02*
Y158400D01*
Y161746D02*
Y161943D01*
X1242093Y671358D02*
Y671161D01*
Y667815D02*
Y667618D01*
X1242570Y328272D02*
Y328075D01*
Y324728D02*
Y324531D01*
G54D37*
X598524Y676772D02*
X598327D01*
X598524Y670472D02*
X598327D01*
X604823Y676772D02*
X604626D01*
X604823Y670472D02*
X604626D01*
X629823D02*
X630020D01*
X629823Y676772D02*
X630020D01*
X611122D02*
X610925D01*
X611122Y670472D02*
X610925D01*
X623720Y676772D02*
X623524D01*
X623720Y670472D02*
X623524D01*
X617421Y676772D02*
X617224D01*
X617421Y670472D02*
X617224D01*
X574508Y648819D02*
X574311D01*
X574508Y642520D02*
X574311D01*
X636122Y670472D02*
X636319D01*
X636122Y676772D02*
X636319D01*
X648917D02*
X648720D01*
X648917Y670472D02*
X648720D01*
X661516Y676772D02*
X661319D01*
X661516Y670472D02*
X661319D01*
X642618Y676772D02*
X642421D01*
X642618Y670472D02*
X642421D01*
X655020D02*
X655217D01*
X655020Y676772D02*
X655217D01*
X680413D02*
X680217D01*
X680413Y670472D02*
X680217D01*
X674114Y676772D02*
X673917D01*
X674114Y670472D02*
X673917D01*
X583858Y615846D02*
Y615650D01*
X590157Y615846D02*
Y615650D01*
X686713Y676772D02*
X686516D01*
X686713Y670472D02*
X686516D01*
X667618D02*
X667815D01*
X667618Y676772D02*
X667815D01*
X699311D02*
X699114D01*
X699311Y670472D02*
X699114D01*
X711909Y676772D02*
X711713D01*
X711909Y670472D02*
X711713D01*
X705610Y676772D02*
X705413D01*
X705610Y670472D02*
X705413D01*
X724311D02*
X724508D01*
X724311Y676772D02*
X724508D01*
X580807Y649213D02*
X580610D01*
X580807Y642913D02*
X580610D01*
X730807Y676772D02*
X730610D01*
X730807Y670472D02*
X730610D01*
X737106Y676772D02*
X736909D01*
X737106Y670472D02*
X736909D01*
X718209Y676772D02*
X718012D01*
X718209Y670472D02*
X718012D01*
X692815D02*
X693012D01*
X692815Y676772D02*
X693012D01*
X744488Y641043D02*
Y640846D01*
X750787Y641043D02*
Y640846D01*
Y628248D02*
Y628445D01*
X744488Y628248D02*
Y628445D01*
X750787Y621949D02*
Y622146D01*
X744488Y621949D02*
Y622146D01*
X750787Y634547D02*
Y634744D01*
X744488Y634547D02*
Y634744D01*
X589665Y642913D02*
X589862D01*
X589665Y649213D02*
X589862D01*
X592028Y670472D02*
X592224D01*
X592028Y676772D02*
X592224D01*
X585925D02*
X585728D01*
X585925Y670472D02*
X585728D01*
G54D39*
X820984Y545669D02*
Y546457D01*
X819016Y545669D02*
Y546457D01*
X817047Y545669D02*
Y546457D01*
X815079Y545669D02*
Y546457D01*
Y549606D02*
Y550394D01*
X817047Y549606D02*
Y550394D01*
X819016Y549606D02*
Y550394D01*
X820984Y549606D02*
Y550394D01*
X831378Y468504D02*
Y467717D01*
X833346Y468504D02*
Y467717D01*
X835315Y468504D02*
Y467717D01*
X837283Y468504D02*
Y467717D01*
Y464567D02*
Y463780D01*
X835315Y464567D02*
Y463780D01*
X833346Y464567D02*
Y463780D01*
X831378Y464567D02*
Y463780D01*
X834370Y545669D02*
Y546457D01*
X832402Y545669D02*
Y546457D01*
X830433Y545669D02*
Y546457D01*
X828465Y545669D02*
Y546457D01*
Y549606D02*
Y550394D01*
X830433Y549606D02*
Y550394D01*
X832402Y549606D02*
Y550394D01*
X834370Y549606D02*
Y550394D01*
X820354Y468504D02*
Y467717D01*
X822323Y468504D02*
Y467717D01*
X824291Y468504D02*
Y467717D01*
X826260Y468504D02*
Y467717D01*
Y464567D02*
Y463780D01*
X824291Y464567D02*
Y463780D01*
X822323Y464567D02*
Y463780D01*
X820354Y464567D02*
Y463780D01*
X809724Y468504D02*
Y467717D01*
X811693Y468504D02*
Y467717D01*
X813661Y468504D02*
Y467717D01*
X815630Y468504D02*
Y467717D01*
Y464567D02*
Y463780D01*
X813661Y464567D02*
Y463780D01*
X811693Y464567D02*
Y463780D01*
X809724Y464567D02*
Y463780D01*
X865354Y521535D02*
X866142D01*
X865354Y523504D02*
X866142D01*
X865354Y525472D02*
X866142D01*
X865354Y527441D02*
X866142D01*
X869291D02*
X870079D01*
X869291Y525472D02*
X870079D01*
X869291Y523504D02*
X870079D01*
X869291Y521535D02*
X870079D01*
X866142Y680591D02*
X866929D01*
X866142Y682559D02*
X866929D01*
X866142Y684528D02*
X866929D01*
X866142Y686496D02*
X866929D01*
X870079D02*
X870866D01*
X870079Y684528D02*
X870866D01*
X870079Y682559D02*
X870866D01*
X870079Y680591D02*
X870866D01*
X866142Y671535D02*
X866929D01*
X866142Y673504D02*
X866929D01*
X866142Y675472D02*
X866929D01*
X866142Y677441D02*
X866929D01*
X870079D02*
X870866D01*
X870079Y675472D02*
X870866D01*
X870079Y673504D02*
X870866D01*
X870079Y671535D02*
X870866D01*
X821772Y725197D02*
Y725984D01*
X819803Y725197D02*
Y725984D01*
X817835Y725197D02*
Y725984D01*
X815866Y725197D02*
Y725984D01*
Y729134D02*
Y729921D01*
X817835Y729134D02*
Y729921D01*
X819803Y729134D02*
Y729921D01*
X821772Y729134D02*
Y729921D01*
X814449Y645669D02*
Y644882D01*
X816417Y645669D02*
Y644882D01*
X818386Y645669D02*
Y644882D01*
X820354Y645669D02*
Y644882D01*
Y641732D02*
Y640945D01*
X818386Y641732D02*
Y640945D01*
X816417Y641732D02*
Y640945D01*
X814449Y641732D02*
Y640945D01*
X826654Y645669D02*
Y644882D01*
X828622Y645669D02*
Y644882D01*
X830591Y645669D02*
Y644882D01*
X832559Y645669D02*
Y644882D01*
Y641732D02*
Y640945D01*
X830591Y641732D02*
Y640945D01*
X828622Y641732D02*
Y640945D01*
X826654Y641732D02*
Y640945D01*
X803031Y646063D02*
Y645276D01*
X805000Y646063D02*
Y645276D01*
X806969Y646063D02*
Y645276D01*
X808937Y646063D02*
Y645276D01*
Y642126D02*
Y641339D01*
X806969Y642126D02*
Y641339D01*
X805000Y642126D02*
Y641339D01*
X803031Y642126D02*
Y641339D01*
X838858Y645669D02*
Y644882D01*
X840827Y645669D02*
Y644882D01*
X842795Y645669D02*
Y644882D01*
X844764Y645669D02*
Y644882D01*
Y641732D02*
Y640945D01*
X842795Y641732D02*
Y640945D01*
X840827Y641732D02*
Y640945D01*
X838858Y641732D02*
Y640945D01*
X865748Y662087D02*
X866535D01*
X865748Y664055D02*
X866535D01*
X865748Y666024D02*
X866535D01*
X865748Y667992D02*
X866535D01*
X869685D02*
X870472D01*
X869685Y666024D02*
X870472D01*
X869685Y664055D02*
X870472D01*
X869685Y662087D02*
X870472D01*
X866142Y690433D02*
X866929D01*
X866142Y692402D02*
X866929D01*
X866142Y694370D02*
X866929D01*
X866142Y696339D02*
X866929D01*
X870079D02*
X870866D01*
X870079Y694370D02*
X870866D01*
X870079Y692402D02*
X870866D01*
X870079Y690433D02*
X870866D01*
X848150Y545669D02*
Y546457D01*
X846181Y545669D02*
Y546457D01*
X844213Y545669D02*
Y546457D01*
X842244Y545669D02*
Y546457D01*
Y549606D02*
Y550394D01*
X844213Y549606D02*
Y550394D01*
X846181Y549606D02*
Y550394D01*
X848150Y549606D02*
Y550394D01*
X850118Y725197D02*
Y725984D01*
X848150Y725197D02*
Y725984D01*
X846181Y725197D02*
Y725984D01*
X844213Y725197D02*
Y725984D01*
Y729134D02*
Y729921D01*
X846181Y729134D02*
Y729921D01*
X848150Y729134D02*
Y729921D01*
X850118Y729134D02*
Y729921D01*
X834764Y725197D02*
Y725984D01*
X832795Y725197D02*
Y725984D01*
X830827Y725197D02*
Y725984D01*
X828858Y725197D02*
Y725984D01*
Y729134D02*
Y729921D01*
X830827Y729134D02*
Y729921D01*
X832795Y729134D02*
Y729921D01*
X834764Y729134D02*
Y729921D01*
X866142Y701850D02*
X866929D01*
X866142Y703819D02*
X866929D01*
X866142Y705787D02*
X866929D01*
X866142Y707756D02*
X866929D01*
X870079D02*
X870866D01*
X870079Y705787D02*
X870866D01*
X870079Y703819D02*
X870866D01*
X870079Y701850D02*
X870866D01*
X865354Y511693D02*
X866142D01*
X865354Y513661D02*
X866142D01*
X865354Y515630D02*
X866142D01*
X865354Y517598D02*
X866142D01*
X869291D02*
X870079D01*
X869291Y515630D02*
X870079D01*
X869291Y513661D02*
X870079D01*
X869291Y511693D02*
X870079D01*
X865354Y501850D02*
X866142D01*
X865354Y503819D02*
X866142D01*
X865354Y505787D02*
X866142D01*
X865354Y507756D02*
X866142D01*
X869291D02*
X870079D01*
X869291Y505787D02*
X870079D01*
X869291Y503819D02*
X870079D01*
X869291Y501850D02*
X870079D01*
X865354Y482953D02*
X866142D01*
X865354Y484921D02*
X866142D01*
X865354Y486890D02*
X866142D01*
X865354Y488858D02*
X866142D01*
X869291D02*
X870079D01*
X869291Y486890D02*
X870079D01*
X869291Y484921D02*
X870079D01*
X869291Y482953D02*
X870079D01*
X865354Y492008D02*
X866142D01*
X865354Y493976D02*
X866142D01*
X865354Y495945D02*
X866142D01*
X865354Y497913D02*
X866142D01*
X869291D02*
X870079D01*
X869291Y495945D02*
X870079D01*
X869291Y493976D02*
X870079D01*
X869291Y492008D02*
X870079D01*
X842402Y468504D02*
Y467717D01*
X844370Y468504D02*
Y467717D01*
X846339Y468504D02*
Y467717D01*
X848307Y468504D02*
Y467717D01*
Y464567D02*
Y463780D01*
X846339Y464567D02*
Y463780D01*
X844370Y464567D02*
Y463780D01*
X842402Y464567D02*
Y463780D01*
G54D46*
X858858Y537303D02*
Y539075D01*
X856890Y537303D02*
Y539075D01*
X854921Y537303D02*
Y539075D01*
X852953Y537303D02*
Y539075D01*
Y542815D02*
Y544587D01*
X854921Y542815D02*
Y544587D01*
X856890Y542815D02*
Y544587D01*
X858858Y542815D02*
Y544587D01*
X873917Y522244D02*
X875689D01*
X873917Y524213D02*
X875689D01*
X873917Y526181D02*
X875689D01*
X873917Y528150D02*
X875689D01*
X879429D02*
X881201D01*
X879429Y526181D02*
X881201D01*
X879429Y524213D02*
X881201D01*
X879429Y522244D02*
X881201D01*
X873917Y512402D02*
X875689D01*
X873917Y514370D02*
X875689D01*
X873917Y516339D02*
X875689D01*
X873917Y518307D02*
X875689D01*
X879429D02*
X881201D01*
X879429Y516339D02*
X881201D01*
X879429Y514370D02*
X881201D01*
X879429Y512402D02*
X881201D01*
X873917Y502559D02*
X875689D01*
X873917Y504528D02*
X875689D01*
X873917Y506496D02*
X875689D01*
X873917Y508465D02*
X875689D01*
X879429D02*
X881201D01*
X879429Y506496D02*
X881201D01*
X879429Y504528D02*
X881201D01*
X879429Y502559D02*
X881201D01*
X821063Y553839D02*
Y555610D01*
X819094Y553839D02*
Y555610D01*
X817126Y553839D02*
Y555610D01*
X815157Y553839D02*
Y555610D01*
Y559350D02*
Y561122D01*
X817126Y559350D02*
Y561122D01*
X819094Y559350D02*
Y561122D01*
X821063Y559350D02*
Y561122D01*
X873917Y492717D02*
X875689D01*
X873917Y494685D02*
X875689D01*
X873917Y496654D02*
X875689D01*
X873917Y498622D02*
X875689D01*
X879429D02*
X881201D01*
X879429Y496654D02*
X881201D01*
X879429Y494685D02*
X881201D01*
X879429Y492717D02*
X881201D01*
X873917Y482874D02*
X875689D01*
X873917Y484843D02*
X875689D01*
X873917Y486811D02*
X875689D01*
X873917Y488780D02*
X875689D01*
X879429D02*
X881201D01*
X879429Y486811D02*
X881201D01*
X879429Y484843D02*
X881201D01*
X879429Y482874D02*
X881201D01*
X842323Y460728D02*
Y458957D01*
X844291Y460728D02*
Y458957D01*
X846260Y460728D02*
Y458957D01*
X848228Y460728D02*
Y458957D01*
Y455217D02*
Y453445D01*
X846260Y455217D02*
Y453445D01*
X844291Y455217D02*
Y453445D01*
X842323Y455217D02*
Y453445D01*
X831299Y460728D02*
Y458957D01*
X833268Y460728D02*
Y458957D01*
X835236Y460728D02*
Y458957D01*
X837205Y460728D02*
Y458957D01*
Y455217D02*
Y453445D01*
X835236Y455217D02*
Y453445D01*
X833268Y455217D02*
Y453445D01*
X831299Y455217D02*
Y453445D01*
X820669Y460728D02*
Y458957D01*
X822638Y460728D02*
Y458957D01*
X824606Y460728D02*
Y458957D01*
X826575Y460728D02*
Y458957D01*
Y455217D02*
Y453445D01*
X824606Y455217D02*
Y453445D01*
X822638Y455217D02*
Y453445D01*
X820669Y455217D02*
Y453445D01*
X810039Y460728D02*
Y458957D01*
X812008Y460728D02*
Y458957D01*
X813976Y460728D02*
Y458957D01*
X815945Y460728D02*
Y458957D01*
Y455217D02*
Y453445D01*
X813976Y455217D02*
Y453445D01*
X812008Y455217D02*
Y453445D01*
X810039Y455217D02*
Y453445D01*
X805709Y537303D02*
Y539075D01*
X803740Y537303D02*
Y539075D01*
X801772Y537303D02*
Y539075D01*
X799803Y537303D02*
Y539075D01*
Y542815D02*
Y544587D01*
X801772Y542815D02*
Y544587D01*
X803740Y542815D02*
Y544587D01*
X805709Y542815D02*
Y544587D01*
X858858Y470374D02*
Y472146D01*
X856890Y470374D02*
Y472146D01*
X854921Y470374D02*
Y472146D01*
X852953Y470374D02*
Y472146D01*
Y475886D02*
Y477657D01*
X854921Y475886D02*
Y477657D01*
X856890Y475886D02*
Y477657D01*
X858858Y475886D02*
Y477657D01*
X868701Y649508D02*
Y651280D01*
X866732Y649508D02*
Y651280D01*
X864764Y649508D02*
Y651280D01*
X862795Y649508D02*
Y651280D01*
Y655020D02*
Y656791D01*
X864764Y655020D02*
Y656791D01*
X866732Y655020D02*
Y656791D01*
X868701Y655020D02*
Y656791D01*
X798524Y722638D02*
X796752D01*
X798524Y720669D02*
X796752D01*
X798524Y718701D02*
X796752D01*
X798524Y716732D02*
X796752D01*
X793012D02*
X791240D01*
X793012Y718701D02*
X791240D01*
X793012Y720669D02*
X791240D01*
X793012Y722638D02*
X791240D01*
X805709Y470374D02*
Y472146D01*
X803740Y470374D02*
Y472146D01*
X801772Y470374D02*
Y472146D01*
X799803Y470374D02*
Y472146D01*
Y475886D02*
Y477657D01*
X801772Y475886D02*
Y477657D01*
X803740Y475886D02*
Y477657D01*
X805709Y475886D02*
Y477657D01*
X858858Y716437D02*
Y718209D01*
X856890Y716437D02*
Y718209D01*
X854921Y716437D02*
Y718209D01*
X852953Y716437D02*
Y718209D01*
Y721949D02*
Y723720D01*
X854921Y721949D02*
Y723720D01*
X856890Y721949D02*
Y723720D01*
X858858Y721949D02*
Y723720D01*
X809646Y726280D02*
Y728051D01*
X807677Y726280D02*
Y728051D01*
X805709Y726280D02*
Y728051D01*
X803740Y726280D02*
Y728051D01*
Y731791D02*
Y733563D01*
X805709Y731791D02*
Y733563D01*
X807677Y731791D02*
Y733563D01*
X809646Y731791D02*
Y733563D01*
X791240Y705315D02*
X793012D01*
X791240Y707283D02*
X793012D01*
X791240Y709252D02*
X793012D01*
X791240Y711220D02*
X793012D01*
X796752D02*
X798524D01*
X796752Y709252D02*
X798524D01*
X796752Y707283D02*
X798524D01*
X796752Y705315D02*
X798524D01*
X882984Y722931D02*
X884756D01*
X882984Y724900D02*
X884756D01*
X882984Y726869D02*
X884756D01*
X882984Y728837D02*
X884756D01*
X888496D02*
X890267D01*
X888496Y726869D02*
X890267D01*
X888496Y724900D02*
X890267D01*
X888496Y722931D02*
X890267D01*
X858858Y649508D02*
Y651280D01*
X856890Y649508D02*
Y651280D01*
X854921Y649508D02*
Y651280D01*
X852953Y649508D02*
Y651280D01*
Y655020D02*
Y656791D01*
X854921Y655020D02*
Y656791D01*
X856890Y655020D02*
Y656791D01*
X858858Y655020D02*
Y656791D01*
X875098Y680906D02*
X876870D01*
X875098Y682874D02*
X876870D01*
X875098Y684843D02*
X876870D01*
X875098Y686811D02*
X876870D01*
X880610D02*
X882382D01*
X880610Y684843D02*
X882382D01*
X880610Y682874D02*
X882382D01*
X880610Y680906D02*
X882382D01*
X821457Y734154D02*
Y735925D01*
X819488Y734154D02*
Y735925D01*
X817520Y734154D02*
Y735925D01*
X815551Y734154D02*
Y735925D01*
Y739665D02*
Y741437D01*
X817520Y739665D02*
Y741437D01*
X819488Y739665D02*
Y741437D01*
X821457Y739665D02*
Y741437D01*
X875098Y671457D02*
X876870D01*
X875098Y673425D02*
X876870D01*
X875098Y675394D02*
X876870D01*
X875098Y677362D02*
X876870D01*
X880610D02*
X882382D01*
X880610Y675394D02*
X882382D01*
X880610Y673425D02*
X882382D01*
X880610Y671457D02*
X882382D01*
X875098Y661614D02*
X876870D01*
X875098Y663583D02*
X876870D01*
X875098Y665551D02*
X876870D01*
X875098Y667520D02*
X876870D01*
X880610D02*
X882382D01*
X880610Y665551D02*
X882382D01*
X880610Y663583D02*
X882382D01*
X880610Y661614D02*
X882382D01*
X814370Y637500D02*
Y635728D01*
X816339Y637500D02*
Y635728D01*
X818307Y637500D02*
Y635728D01*
X820276Y637500D02*
Y635728D01*
Y631988D02*
Y630217D01*
X818307Y631988D02*
Y630217D01*
X816339Y631988D02*
Y630217D01*
X814370Y631988D02*
Y630217D01*
X886264Y539725D02*
Y541497D01*
X884295Y539725D02*
Y541497D01*
X882327Y539725D02*
Y541497D01*
X880358Y539725D02*
Y541497D01*
Y545237D02*
Y547009D01*
X882327Y545237D02*
Y547009D01*
X884295Y545237D02*
Y547009D01*
X886264Y545237D02*
Y547009D01*
X826575Y637500D02*
Y635728D01*
X828543Y637500D02*
Y635728D01*
X830512Y637500D02*
Y635728D01*
X832480Y637500D02*
Y635728D01*
Y631988D02*
Y630217D01*
X830512Y631988D02*
Y630217D01*
X828543Y631988D02*
Y630217D01*
X826575Y631988D02*
Y630217D01*
X838780Y637500D02*
Y635728D01*
X840748Y637500D02*
Y635728D01*
X842717Y637500D02*
Y635728D01*
X844685Y637500D02*
Y635728D01*
Y631988D02*
Y630217D01*
X842717Y631988D02*
Y630217D01*
X840748Y631988D02*
Y630217D01*
X838780Y631988D02*
Y630217D01*
X803740Y637106D02*
Y635335D01*
X805709Y637106D02*
Y635335D01*
X807677Y637106D02*
Y635335D01*
X809646Y637106D02*
Y635335D01*
Y631594D02*
Y629823D01*
X807677Y631594D02*
Y629823D01*
X805709Y631594D02*
Y629823D01*
X803740Y631594D02*
Y629823D01*
X835236Y734154D02*
Y735925D01*
X833268Y734154D02*
Y735925D01*
X831299Y734154D02*
Y735925D01*
X829331Y734154D02*
Y735925D01*
Y739665D02*
Y741437D01*
X831299Y739665D02*
Y741437D01*
X833268Y739665D02*
Y741437D01*
X835236Y739665D02*
Y741437D01*
X850197Y734154D02*
Y735925D01*
X848228Y734154D02*
Y735925D01*
X846260Y734154D02*
Y735925D01*
X844291Y734154D02*
Y735925D01*
Y739665D02*
Y741437D01*
X846260Y739665D02*
Y741437D01*
X848228Y739665D02*
Y741437D01*
X850197Y739665D02*
Y741437D01*
X875098Y701772D02*
X876870D01*
X875098Y703740D02*
X876870D01*
X875098Y705709D02*
X876870D01*
X875098Y707677D02*
X876870D01*
X880610D02*
X882382D01*
X880610Y705709D02*
X882382D01*
X880610Y703740D02*
X882382D01*
X880610Y701772D02*
X882382D01*
X875098Y690354D02*
X876870D01*
X875098Y692323D02*
X876870D01*
X875098Y694291D02*
X876870D01*
X875098Y696260D02*
X876870D01*
X880610D02*
X882382D01*
X880610Y694291D02*
X882382D01*
X880610Y692323D02*
X882382D01*
X880610Y690354D02*
X882382D01*
X868701Y470374D02*
Y472146D01*
X866732Y470374D02*
Y472146D01*
X864764Y470374D02*
Y472146D01*
X862795Y470374D02*
Y472146D01*
Y475886D02*
Y477657D01*
X864764Y475886D02*
Y477657D01*
X866732Y475886D02*
Y477657D01*
X868701Y475886D02*
Y477657D01*
X796555Y488780D02*
X794783D01*
X796555Y486811D02*
X794783D01*
X796555Y484843D02*
X794783D01*
X796555Y482874D02*
X794783D01*
X791043D02*
X789272D01*
X791043Y484843D02*
X789272D01*
X791043Y486811D02*
X789272D01*
X791043Y488780D02*
X789272D01*
X834449Y553839D02*
Y555610D01*
X832480Y553839D02*
Y555610D01*
X830512Y553839D02*
Y555610D01*
X828543Y553839D02*
Y555610D01*
Y559350D02*
Y561122D01*
X830512Y559350D02*
Y561122D01*
X832480Y559350D02*
Y561122D01*
X834449Y559350D02*
Y561122D01*
X848622Y553839D02*
Y555610D01*
X846654Y553839D02*
Y555610D01*
X844685Y553839D02*
Y555610D01*
X842717Y553839D02*
Y555610D01*
Y559350D02*
Y561122D01*
X844685Y559350D02*
Y561122D01*
X846654Y559350D02*
Y561122D01*
X848622Y559350D02*
Y561122D01*
G54D54*
X754916Y1007475D02*
X756294D01*
X754916Y1014561D02*
X756294D01*
X808946Y1007477D02*
X810324D01*
X808946Y1014564D02*
X810324D01*
X866546Y1007577D02*
X867924D01*
X866546Y1014664D02*
X867924D01*
X921246Y1007677D02*
X922624D01*
X921246Y1014764D02*
X922624D01*
G54D55*
X1132416Y964502D02*
Y969817D01*
X1121392Y964502D02*
Y969817D01*
X0Y0D02*
M02*
