*
*
G04 PADS Layout (Build Number 2007.45.1) generated Gerber (RS-274-X) file*
G04 PC Version=2.1*
*
%IN "ibob2.pcb"*%
*
%MOIN*%
*
%FSLAX35Y35*%
*
*
*
*
G04 PC Standard Apertures*
*
*
G04 Thermal Relief Aperture macro.*
%AMTER*
1,1,$1,0,0*
1,0,$1-$2,0,0*
21,0,$3,$4,0,0,45*
21,0,$3,$4,0,0,135*
%
*
*
G04 Annular Aperture macro.*
%AMANN*
1,1,$1,0,0*
1,0,$2,0,0*
%
*
*
G04 Odd Aperture macro.*
%AMODD*
1,1,$1,0,0*
1,0,$1-0.005,0,0*
%
*
*
G04 PC Custom Aperture Macros*
*
*
*
*
*
*
G04 PC Aperture Table*
*
%ADD010C,0.01*%
%ADD014C,0.06*%
%ADD030C,0.01969*%
%ADD032C,0.03937*%
%ADD033R,0.25X0.25*%
%ADD034R,0.06102X0.06102*%
%ADD035R,0.02362X0.02362*%
%ADD036R,0.04528X0.04528*%
%ADD037R,0.0374X0.0374*%
%ADD038R,0.03937X0.03937*%
%ADD039R,0.01181X0.01181*%
%ADD040C,0.01181*%
%ADD041R,0.01102X0.01102*%
%ADD042R,0.01693X0.01693*%
%ADD043R,0.01969X0.01969*%
%ADD044R,0.08661X0.08661*%
%ADD045R,0.01205X0.01205*%
%ADD046R,0.00984X0.00984*%
%ADD047R,0.07087X0.07087*%
%ADD048R,0.09252X0.09252*%
%ADD049R,0.01772X0.01772*%
%ADD050R,0.04724X0.04724*%
%ADD051C,0.01378*%
%ADD052R,0.12402X0.12402*%
%ADD053R,0.035X0.035*%
%ADD054R,0.05118X0.05118*%
%ADD055R,0.05315X0.05315*%
%ADD056R,0.01575X0.01575*%
%ADD057C,0.01772*%
%ADD058R,0.04921X0.04921*%
%ADD059R,0.03346X0.03346*%
%ADD060R,0.05X0.05*%
%ADD061R,0.017X0.017*%
%ADD062R,0.06693X0.06693*%
%ADD063R,0.00787X0.00787*%
%ADD064R,0.05512X0.05512*%
%ADD065R,0.02559X0.02559*%
%ADD066R,0.07X0.07*%
%ADD067R,0.08465X0.08465*%
%ADD068C,0.02559*%
%ADD069R,0.04134X0.04134*%
%ADD070R,0.0315X0.0315*%
%ADD071R,0.04331X0.04331*%
%ADD072R,0.07874X0.07874*%
%ADD073R,0.09843X0.09843*%
%ADD074R,0.11417X0.11417*%
*
*
*
*
G04 PC Copper Outlines (0)*
G04 Layer Name ibob2.pcb - dark (0)*
%LPD*%
*
*
G04 PC Area=_PSI_PAC_SOP50P490X110-11N_010_N162000000*
G75*
G36*
G01*
X900773Y498037D02*
X893450D01*
Y492840D01*
X900773D01*
Y498037D01*
G37*
G74*
*
*
G04 PC Copper Outlines (1)*
G04 Layer Name ibob2.pcb - dark (1)*
%LPD*%
*
*
G04 PC Area=_PSI_PAC_SOP50P490X110-11N_010_P162000000*
G75*
G36*
G01*
X902899Y765675D02*
X910222D01*
Y770872D01*
X902899D01*
Y765675D01*
G37*
G74*
*
*
G04 PC Copper Outlines (2)*
G04 Layer Name ibob2.pcb - dark (2)*
%LPD*%
*
*
G04 PC Area=_PSI_PAC_SOP50P490X110-11N_010_P162000000*
G75*
G36*
G01*
X1251275Y612532D02*
X1258598D01*
Y617729D01*
X1251275D01*
Y612532D01*
G37*
G74*
*
*
G04 PC Copper Outlines (3)*
G04 Layer Name ibob2.pcb - dark (3)*
%LPD*%
*
*
G04 PC Area=_PSI_PAC_SOP50P490X110-11N_010_P324000000*
G75*
G36*
G01*
X269789Y493746D02*
Y501069D01*
X264592D01*
Y493746D01*
X269789D01*
G37*
G74*
*
*
G04 PC Copper Outlines (4)*
G04 Layer Name ibob2.pcb - dark (4)*
%LPD*%
*
*
G04 PC Area=_PSI_PAC_DPAK-P950X240-3N_002_*
G75*
G36*
G01*
X159551Y740866D02*
Y734134D01*
X166047D01*
Y740866D01*
X159551D01*
G37*
G74*
*
*
G04 PC Copper Outlines (5)*
G04 Layer Name ibob2.pcb - dark (5)*
%LPD*%
*
*
G04 PC Area=_PSI_PAC_DPAK-P950X240-3N_002_*
G75*
G36*
G01*
X170378Y740866D02*
Y734134D01*
X176874D01*
Y740866D01*
X170378D01*
G37*
G74*
*
*
G04 PC Copper Outlines (6)*
G04 Layer Name ibob2.pcb - dark (6)*
%LPD*%
*
*
G04 PC Area=_PSI_PAC_DPAK-P950X240-3N_002_*
G75*
G36*
G01*
X159551Y729646D02*
Y722913D01*
X166047D01*
Y729646D01*
X159551D01*
G37*
G74*
*
*
G04 PC Copper Outlines (7)*
G04 Layer Name ibob2.pcb - dark (7)*
%LPD*%
*
*
G04 PC Area=_PSI_PAC_DPAK-P950X240-3N_002_*
G75*
G36*
G01*
X170378Y729646D02*
Y722913D01*
X176874D01*
Y729646D01*
X170378D01*
G37*
G74*
*
*
G04 PC Copper Outlines (8)*
G04 Layer Name ibob2.pcb - dark (8)*
%LPD*%
*
*
G04 PC Area=_PSI_PAC_QFN50P300X300X100-13N_012_P162000000*
G75*
G36*
G01*
X203539Y996366D02*
X206965D01*
Y999791D01*
X203539D01*
Y996366D01*
G37*
G74*
*
*
G04 PC Copper Outlines (9)*
G04 Layer Name ibob2.pcb - dark (9)*
%LPD*%
*
*
G04 PC Area=_PSI_PAC_QFN50P300X300X100-13N_012_*
G75*
G36*
G01*
X1033454Y192537D02*
Y189112D01*
X1036880D01*
Y192537D01*
X1033454D01*
G37*
G74*
*
*
G04 PC Copper Outlines (10)*
G04 Layer Name ibob2.pcb - dark (10)*
%LPD*%
*
*
G04 PC Area=_PSI_PAC_QFN50P300X300X100-13N_012_*
G75*
G36*
G01*
X1080454Y192537D02*
Y189112D01*
X1083880D01*
Y192537D01*
X1080454D01*
G37*
G74*
*
*
G04 PC Copper Outlines (11)*
G04 Layer Name ibob2.pcb - dark (11)*
%LPD*%
*
*
G04 PC Area=_PSI_PAC_QFN50P300X300X90-17N_016_P324000000*
G75*
G36*
G01*
X513175Y719927D02*
Y723706D01*
X509395D01*
Y719927D01*
X513175D01*
G37*
G74*
*
*
G04 PC Copper Outlines (12)*
G04 Layer Name ibob2.pcb - dark (12)*
%LPD*%
*
*
G04 PC Area=_PSI_PAC_QFN50P300X300X90-17N_016_P324000000*
G75*
G36*
G01*
X513175Y664809D02*
Y668588D01*
X509395D01*
Y664809D01*
X513175D01*
G37*
G74*
*
*
G04 PC Copper Outlines (13)*
G04 Layer Name ibob2.pcb - dark (13)*
%LPD*%
*
*
G04 PC Area=Custom_Thermal*
*
G04 PC Custom Flashes*
G04 Layer Name ibob2.pcb - flashes*
%LPD*%
*
*
G04 PC Circuitry*
G04 Layer Name ibob2.pcb - circuitry*
%LPD*%
*
G54D10*
G54D14*
G01X1169650Y521482D03*
X1171407Y454978D03*
X847899Y463943D03*
X838057D03*
X816403D03*
X802624Y458037D03*
X849868Y643076D03*
G54D30*
X568618Y984331D02*
X570587D01*
X568618Y981772D02*
X570587D01*
X578461D02*
X580429D01*
X578461Y986890D02*
X580429D01*
X567618Y959831D02*
X569587D01*
X567618Y957272D02*
X569587D01*
X577461D02*
X579429D01*
X577461Y962390D02*
X579429D01*
X569118Y1008831D02*
X571087D01*
X569118Y1006272D02*
X571087D01*
X578961D02*
X580929D01*
X578961Y1011390D02*
X580929D01*
X569118Y1033331D02*
X571087D01*
X569118Y1030772D02*
X571087D01*
X578961D02*
X580929D01*
X578961Y1035890D02*
X580929D01*
X1047773Y260832D02*
Y258864D01*
X1045214Y260832D02*
Y258864D01*
Y250990D02*
Y249021D01*
X1050332Y250990D02*
Y249021D01*
X725852Y648982D03*
Y645045D03*
Y633234D03*
Y629297D03*
Y625360D03*
Y621423D03*
Y613549D03*
Y609612D03*
Y605675D03*
Y601738D03*
Y597801D03*
Y593864D03*
Y589927D03*
Y585990D03*
Y582053D03*
Y578116D03*
Y574179D03*
Y570242D03*
Y566305D03*
Y562368D03*
Y558431D03*
Y554494D03*
Y550557D03*
Y546620D03*
Y542683D03*
Y538746D03*
Y534809D03*
Y530872D03*
Y526935D03*
X721915Y652919D03*
Y648982D03*
Y645045D03*
Y641108D03*
Y637171D03*
Y633234D03*
Y629297D03*
Y625360D03*
Y621423D03*
Y617486D03*
Y613549D03*
Y609612D03*
Y605675D03*
Y601738D03*
Y597801D03*
Y593864D03*
Y589927D03*
Y585990D03*
Y582053D03*
Y578116D03*
Y574179D03*
Y570242D03*
Y566305D03*
Y562368D03*
Y558431D03*
Y554494D03*
Y550557D03*
Y546620D03*
Y542683D03*
Y538746D03*
Y534809D03*
Y530872D03*
Y526935D03*
Y522998D03*
X717978Y652919D03*
Y648982D03*
Y645045D03*
Y641108D03*
Y637171D03*
Y633234D03*
Y629297D03*
Y625360D03*
Y621423D03*
Y617486D03*
Y613549D03*
Y609612D03*
Y605675D03*
Y601738D03*
Y597801D03*
Y593864D03*
Y589927D03*
Y585990D03*
Y582053D03*
Y578116D03*
Y574179D03*
Y570242D03*
Y566305D03*
Y562368D03*
Y558431D03*
Y554494D03*
Y550557D03*
Y546620D03*
Y542683D03*
Y538746D03*
Y534809D03*
Y530872D03*
Y526935D03*
Y522998D03*
X714041Y652919D03*
Y648982D03*
Y645045D03*
Y641108D03*
Y637171D03*
Y633234D03*
Y629297D03*
Y625360D03*
Y621423D03*
Y617486D03*
Y613549D03*
Y609612D03*
Y605675D03*
Y601738D03*
Y597801D03*
Y593864D03*
Y589927D03*
Y585990D03*
Y582053D03*
Y578116D03*
Y574179D03*
Y570242D03*
Y566305D03*
Y562368D03*
Y558431D03*
Y554494D03*
Y550557D03*
Y546620D03*
Y542683D03*
Y538746D03*
Y534809D03*
Y530872D03*
Y526935D03*
Y522998D03*
X710104Y648982D03*
Y645045D03*
Y641108D03*
Y637171D03*
Y633234D03*
Y629297D03*
Y625360D03*
Y621423D03*
Y617486D03*
Y613549D03*
Y609612D03*
Y605675D03*
Y601738D03*
Y597801D03*
Y593864D03*
Y589927D03*
Y585990D03*
Y582053D03*
Y578116D03*
Y574179D03*
Y570242D03*
Y566305D03*
Y562368D03*
Y558431D03*
Y554494D03*
Y550557D03*
Y546620D03*
Y542683D03*
Y538746D03*
Y534809D03*
Y530872D03*
Y526935D03*
Y522998D03*
X706167Y648982D03*
Y645045D03*
Y641108D03*
Y637171D03*
Y633234D03*
Y629297D03*
Y625360D03*
Y621423D03*
Y617486D03*
Y613549D03*
Y609612D03*
Y605675D03*
Y601738D03*
Y597801D03*
Y593864D03*
Y589927D03*
Y585990D03*
Y582053D03*
Y578116D03*
Y574179D03*
Y570242D03*
Y566305D03*
Y562368D03*
Y558431D03*
Y554494D03*
Y550557D03*
Y546620D03*
Y542683D03*
Y538746D03*
Y534809D03*
Y530872D03*
Y526935D03*
Y522998D03*
X702230Y652919D03*
Y648982D03*
Y645045D03*
Y641108D03*
Y637171D03*
Y633234D03*
Y629297D03*
Y625360D03*
Y621423D03*
Y617486D03*
Y613549D03*
Y609612D03*
Y605675D03*
Y601738D03*
Y597801D03*
Y593864D03*
Y589927D03*
Y585990D03*
Y582053D03*
Y578116D03*
Y574179D03*
Y570242D03*
Y566305D03*
Y562368D03*
Y558431D03*
Y554494D03*
Y550557D03*
Y546620D03*
Y542683D03*
Y538746D03*
Y534809D03*
Y530872D03*
Y526935D03*
Y522998D03*
X698293Y652919D03*
Y648982D03*
Y645045D03*
Y641108D03*
Y637171D03*
Y633234D03*
Y629297D03*
Y625360D03*
Y621423D03*
Y617486D03*
Y613549D03*
Y609612D03*
Y605675D03*
Y601738D03*
Y597801D03*
Y593864D03*
Y589927D03*
Y585990D03*
Y582053D03*
Y578116D03*
Y574179D03*
Y570242D03*
Y566305D03*
Y562368D03*
Y558431D03*
Y554494D03*
Y550557D03*
Y546620D03*
Y542683D03*
Y538746D03*
Y534809D03*
Y530872D03*
Y526935D03*
Y522998D03*
X694356Y652919D03*
Y648982D03*
Y645045D03*
Y641108D03*
Y637171D03*
Y633234D03*
Y629297D03*
Y625360D03*
Y621423D03*
Y617486D03*
Y613549D03*
Y609612D03*
Y605675D03*
Y601738D03*
Y597801D03*
Y593864D03*
Y589927D03*
Y585990D03*
Y582053D03*
Y578116D03*
Y574179D03*
Y570242D03*
Y566305D03*
Y562368D03*
Y558431D03*
Y554494D03*
Y550557D03*
Y546620D03*
Y542683D03*
Y538746D03*
Y534809D03*
Y530872D03*
Y526935D03*
Y522998D03*
X690419Y652919D03*
Y648982D03*
Y645045D03*
Y641108D03*
Y637171D03*
Y633234D03*
Y629297D03*
Y625360D03*
Y621423D03*
Y617486D03*
Y613549D03*
Y609612D03*
Y605675D03*
Y601738D03*
Y597801D03*
Y593864D03*
Y589927D03*
Y585990D03*
Y582053D03*
Y578116D03*
Y574179D03*
Y570242D03*
Y566305D03*
Y562368D03*
Y558431D03*
Y554494D03*
Y550557D03*
Y546620D03*
Y542683D03*
Y538746D03*
Y534809D03*
Y530872D03*
Y526935D03*
Y522998D03*
X686482Y648982D03*
Y645045D03*
Y641108D03*
Y637171D03*
Y633234D03*
Y629297D03*
Y625360D03*
Y621423D03*
Y617486D03*
Y613549D03*
Y609612D03*
Y605675D03*
Y601738D03*
Y597801D03*
Y593864D03*
Y589927D03*
Y585990D03*
Y582053D03*
Y578116D03*
Y574179D03*
Y570242D03*
Y566305D03*
Y562368D03*
Y558431D03*
Y554494D03*
Y550557D03*
Y546620D03*
Y542683D03*
Y538746D03*
Y534809D03*
Y530872D03*
Y526935D03*
Y522998D03*
X682545Y648982D03*
Y645045D03*
Y641108D03*
Y637171D03*
Y633234D03*
Y629297D03*
Y625360D03*
Y621423D03*
Y617486D03*
Y613549D03*
Y609612D03*
Y605675D03*
Y601738D03*
Y597801D03*
Y593864D03*
Y589927D03*
Y585990D03*
Y582053D03*
Y578116D03*
Y574179D03*
Y570242D03*
Y566305D03*
Y562368D03*
Y558431D03*
Y554494D03*
Y550557D03*
Y546620D03*
Y542683D03*
Y538746D03*
Y534809D03*
Y530872D03*
Y526935D03*
Y522998D03*
X678608Y652919D03*
Y648982D03*
Y645045D03*
Y641108D03*
Y637171D03*
Y633234D03*
Y629297D03*
Y625360D03*
Y621423D03*
Y617486D03*
Y613549D03*
Y609612D03*
Y605675D03*
Y601738D03*
Y597801D03*
Y593864D03*
Y589927D03*
Y585990D03*
Y582053D03*
Y578116D03*
Y574179D03*
Y570242D03*
Y566305D03*
Y562368D03*
Y558431D03*
Y554494D03*
Y550557D03*
Y546620D03*
Y542683D03*
Y538746D03*
Y534809D03*
Y530872D03*
Y526935D03*
Y522998D03*
X674671Y652919D03*
Y648982D03*
Y645045D03*
Y641108D03*
Y637171D03*
Y633234D03*
Y629297D03*
Y625360D03*
Y621423D03*
Y617486D03*
Y613549D03*
Y609612D03*
Y605675D03*
Y601738D03*
Y597801D03*
Y593864D03*
Y589927D03*
Y585990D03*
Y582053D03*
Y578116D03*
Y574179D03*
Y570242D03*
Y566305D03*
Y562368D03*
Y558431D03*
Y554494D03*
Y550557D03*
Y546620D03*
Y542683D03*
Y538746D03*
Y534809D03*
Y530872D03*
Y526935D03*
Y522998D03*
X670734Y652919D03*
Y648982D03*
Y645045D03*
Y641108D03*
Y637171D03*
Y633234D03*
Y629297D03*
Y625360D03*
Y621423D03*
Y617486D03*
Y613549D03*
Y609612D03*
Y605675D03*
Y601738D03*
Y597801D03*
Y593864D03*
Y589927D03*
Y585990D03*
Y582053D03*
Y578116D03*
Y574179D03*
Y570242D03*
Y566305D03*
Y562368D03*
Y558431D03*
Y554494D03*
Y550557D03*
Y546620D03*
Y542683D03*
Y538746D03*
Y534809D03*
Y530872D03*
Y526935D03*
Y522998D03*
X666797Y652919D03*
Y648982D03*
Y645045D03*
Y641108D03*
Y637171D03*
Y633234D03*
Y629297D03*
Y625360D03*
Y621423D03*
Y617486D03*
Y613549D03*
Y609612D03*
Y605675D03*
Y601738D03*
Y597801D03*
Y593864D03*
Y589927D03*
Y585990D03*
Y582053D03*
Y578116D03*
Y574179D03*
Y570242D03*
Y566305D03*
Y562368D03*
Y558431D03*
Y554494D03*
Y550557D03*
Y546620D03*
Y542683D03*
Y538746D03*
Y534809D03*
Y530872D03*
Y526935D03*
Y522998D03*
X662860Y648982D03*
Y645045D03*
Y641108D03*
Y637171D03*
Y633234D03*
Y629297D03*
Y625360D03*
Y621423D03*
Y617486D03*
Y613549D03*
Y609612D03*
Y605675D03*
Y601738D03*
Y597801D03*
Y593864D03*
Y589927D03*
Y585990D03*
Y582053D03*
Y578116D03*
Y574179D03*
Y570242D03*
Y566305D03*
Y562368D03*
Y558431D03*
Y554494D03*
Y550557D03*
Y546620D03*
Y542683D03*
Y538746D03*
Y534809D03*
Y530872D03*
Y526935D03*
Y522998D03*
X658923Y648982D03*
Y645045D03*
Y641108D03*
Y637171D03*
Y633234D03*
Y629297D03*
Y625360D03*
Y621423D03*
Y617486D03*
Y613549D03*
Y609612D03*
Y605675D03*
Y601738D03*
Y597801D03*
Y593864D03*
Y589927D03*
Y585990D03*
Y582053D03*
Y578116D03*
Y574179D03*
Y570242D03*
Y566305D03*
Y562368D03*
Y558431D03*
Y554494D03*
Y550557D03*
Y546620D03*
Y542683D03*
Y538746D03*
Y534809D03*
Y530872D03*
Y526935D03*
Y522998D03*
X654986Y652919D03*
Y648982D03*
Y645045D03*
Y641108D03*
Y637171D03*
Y633234D03*
Y629297D03*
Y625360D03*
Y621423D03*
Y617486D03*
Y613549D03*
Y609612D03*
Y605675D03*
Y601738D03*
Y597801D03*
Y593864D03*
Y589927D03*
Y585990D03*
Y582053D03*
Y578116D03*
Y574179D03*
Y570242D03*
Y566305D03*
Y562368D03*
Y558431D03*
Y554494D03*
Y550557D03*
Y546620D03*
Y542683D03*
Y538746D03*
Y534809D03*
Y530872D03*
Y526935D03*
Y522998D03*
X651049Y652919D03*
Y648982D03*
Y645045D03*
Y641108D03*
Y637171D03*
Y633234D03*
Y629297D03*
Y625360D03*
Y621423D03*
Y617486D03*
Y613549D03*
Y609612D03*
Y605675D03*
Y601738D03*
Y597801D03*
Y593864D03*
Y589927D03*
Y585990D03*
Y582053D03*
Y578116D03*
Y574179D03*
Y570242D03*
Y566305D03*
Y562368D03*
Y558431D03*
Y554494D03*
Y550557D03*
Y546620D03*
Y542683D03*
Y538746D03*
Y534809D03*
Y530872D03*
Y526935D03*
Y522998D03*
X647112Y652919D03*
Y648982D03*
Y645045D03*
Y641108D03*
Y637171D03*
Y633234D03*
Y629297D03*
Y625360D03*
Y621423D03*
Y617486D03*
Y613549D03*
Y609612D03*
Y605675D03*
Y601738D03*
Y597801D03*
Y593864D03*
Y589927D03*
Y585990D03*
Y582053D03*
Y578116D03*
Y574179D03*
Y570242D03*
Y566305D03*
Y562368D03*
Y558431D03*
Y554494D03*
Y550557D03*
Y546620D03*
Y542683D03*
Y538746D03*
Y534809D03*
Y530872D03*
Y526935D03*
Y522998D03*
X643175Y652919D03*
Y648982D03*
Y645045D03*
Y641108D03*
Y637171D03*
Y633234D03*
Y629297D03*
Y625360D03*
Y621423D03*
Y617486D03*
Y613549D03*
Y609612D03*
Y605675D03*
Y601738D03*
Y597801D03*
Y593864D03*
Y589927D03*
Y585990D03*
Y582053D03*
Y578116D03*
Y574179D03*
Y570242D03*
Y566305D03*
Y562368D03*
Y558431D03*
Y554494D03*
Y550557D03*
Y546620D03*
Y542683D03*
Y538746D03*
Y534809D03*
Y530872D03*
Y526935D03*
Y522998D03*
X639238Y648982D03*
Y645045D03*
Y641108D03*
Y637171D03*
Y633234D03*
Y629297D03*
Y625360D03*
Y621423D03*
Y617486D03*
Y613549D03*
Y609612D03*
Y605675D03*
Y601738D03*
Y597801D03*
Y593864D03*
Y589927D03*
Y585990D03*
Y582053D03*
Y578116D03*
Y574179D03*
Y570242D03*
Y566305D03*
Y562368D03*
Y558431D03*
Y554494D03*
Y550557D03*
Y546620D03*
Y542683D03*
Y538746D03*
Y534809D03*
Y530872D03*
Y526935D03*
Y522998D03*
X635301Y648982D03*
Y645045D03*
Y641108D03*
Y637171D03*
Y633234D03*
Y629297D03*
Y625360D03*
Y621423D03*
Y617486D03*
Y613549D03*
Y609612D03*
Y605675D03*
Y601738D03*
Y597801D03*
Y593864D03*
Y589927D03*
Y585990D03*
Y582053D03*
Y578116D03*
Y574179D03*
Y570242D03*
Y566305D03*
Y562368D03*
Y558431D03*
Y554494D03*
Y550557D03*
Y546620D03*
Y542683D03*
Y538746D03*
Y534809D03*
Y530872D03*
Y526935D03*
Y522998D03*
X631364Y652919D03*
Y648982D03*
Y645045D03*
Y641108D03*
Y637171D03*
Y633234D03*
Y629297D03*
Y625360D03*
Y621423D03*
Y617486D03*
Y613549D03*
Y609612D03*
Y605675D03*
Y601738D03*
Y597801D03*
Y593864D03*
Y589927D03*
Y585990D03*
Y582053D03*
Y578116D03*
Y574179D03*
Y570242D03*
Y566305D03*
Y562368D03*
Y558431D03*
Y554494D03*
Y550557D03*
Y546620D03*
Y542683D03*
Y538746D03*
Y534809D03*
Y530872D03*
Y526935D03*
Y522998D03*
X627427Y652919D03*
Y648982D03*
Y645045D03*
Y641108D03*
Y637171D03*
Y633234D03*
Y629297D03*
Y625360D03*
Y621423D03*
Y617486D03*
Y613549D03*
Y609612D03*
Y605675D03*
Y601738D03*
Y597801D03*
Y593864D03*
Y589927D03*
Y585990D03*
Y582053D03*
Y578116D03*
Y574179D03*
Y570242D03*
Y566305D03*
Y562368D03*
Y558431D03*
Y554494D03*
Y550557D03*
Y546620D03*
Y542683D03*
Y538746D03*
Y534809D03*
Y530872D03*
Y526935D03*
Y522998D03*
X623490Y652919D03*
Y648982D03*
Y645045D03*
Y641108D03*
Y637171D03*
Y633234D03*
Y629297D03*
Y625360D03*
Y621423D03*
Y617486D03*
Y613549D03*
Y609612D03*
Y605675D03*
Y601738D03*
Y597801D03*
Y593864D03*
Y589927D03*
Y585990D03*
Y582053D03*
Y578116D03*
Y574179D03*
Y570242D03*
Y566305D03*
Y562368D03*
Y558431D03*
Y554494D03*
Y550557D03*
Y546620D03*
Y542683D03*
Y538746D03*
Y534809D03*
Y530872D03*
Y526935D03*
Y522998D03*
X619553Y652919D03*
Y648982D03*
Y645045D03*
Y641108D03*
Y637171D03*
Y633234D03*
Y629297D03*
Y625360D03*
Y621423D03*
Y617486D03*
Y613549D03*
Y609612D03*
Y605675D03*
Y601738D03*
Y597801D03*
Y593864D03*
Y589927D03*
Y585990D03*
Y582053D03*
Y578116D03*
Y574179D03*
Y570242D03*
Y566305D03*
Y562368D03*
Y558431D03*
Y554494D03*
Y550557D03*
Y546620D03*
Y542683D03*
Y538746D03*
Y534809D03*
Y530872D03*
Y526935D03*
Y522998D03*
X615616Y648982D03*
Y645045D03*
Y641108D03*
Y637171D03*
Y633234D03*
Y629297D03*
Y625360D03*
Y621423D03*
Y617486D03*
Y613549D03*
Y609612D03*
Y605675D03*
Y601738D03*
Y597801D03*
Y593864D03*
Y589927D03*
Y585990D03*
Y582053D03*
Y578116D03*
Y574179D03*
Y570242D03*
Y566305D03*
Y562368D03*
Y558431D03*
Y554494D03*
Y550557D03*
Y546620D03*
Y542683D03*
Y538746D03*
Y534809D03*
Y530872D03*
Y526935D03*
Y522998D03*
X611679Y648982D03*
Y645045D03*
Y641108D03*
Y637171D03*
Y633234D03*
Y629297D03*
Y625360D03*
Y621423D03*
Y617486D03*
Y613549D03*
Y609612D03*
Y605675D03*
Y601738D03*
Y597801D03*
Y593864D03*
Y589927D03*
Y585990D03*
Y582053D03*
Y578116D03*
Y574179D03*
Y570242D03*
Y566305D03*
Y562368D03*
Y558431D03*
Y554494D03*
Y550557D03*
Y546620D03*
Y542683D03*
Y538746D03*
Y534809D03*
Y530872D03*
Y526935D03*
Y522998D03*
X607742Y652919D03*
Y648982D03*
Y645045D03*
Y641108D03*
Y637171D03*
Y633234D03*
Y629297D03*
Y625360D03*
Y621423D03*
Y617486D03*
Y613549D03*
Y609612D03*
Y605675D03*
Y601738D03*
Y597801D03*
Y593864D03*
Y589927D03*
Y585990D03*
Y582053D03*
Y578116D03*
Y574179D03*
Y570242D03*
Y566305D03*
Y562368D03*
Y558431D03*
Y554494D03*
Y550557D03*
Y546620D03*
Y542683D03*
Y538746D03*
Y534809D03*
Y530872D03*
Y526935D03*
Y522998D03*
X603805Y652919D03*
Y648982D03*
Y645045D03*
Y641108D03*
Y637171D03*
Y633234D03*
Y629297D03*
Y625360D03*
Y621423D03*
Y617486D03*
Y613549D03*
Y609612D03*
Y605675D03*
Y601738D03*
Y597801D03*
Y593864D03*
Y589927D03*
Y585990D03*
Y582053D03*
Y578116D03*
Y574179D03*
Y570242D03*
Y566305D03*
Y562368D03*
Y558431D03*
Y554494D03*
Y550557D03*
Y546620D03*
Y542683D03*
Y538746D03*
Y534809D03*
Y530872D03*
Y526935D03*
Y522998D03*
X599868Y652919D03*
Y648982D03*
Y645045D03*
Y641108D03*
Y637171D03*
Y633234D03*
Y629297D03*
Y625360D03*
Y621423D03*
Y617486D03*
Y613549D03*
Y609612D03*
Y605675D03*
Y601738D03*
Y597801D03*
Y593864D03*
Y589927D03*
Y585990D03*
Y582053D03*
Y578116D03*
Y574179D03*
Y570242D03*
Y566305D03*
Y562368D03*
Y558431D03*
Y554494D03*
Y550557D03*
Y546620D03*
Y542683D03*
Y538746D03*
Y534809D03*
Y530872D03*
Y526935D03*
Y522998D03*
X595931Y648982D03*
Y645045D03*
Y633234D03*
Y629297D03*
Y625360D03*
Y621423D03*
Y613549D03*
Y609612D03*
Y605675D03*
Y601738D03*
Y597801D03*
Y593864D03*
Y589927D03*
Y585990D03*
Y582053D03*
Y578116D03*
Y574179D03*
Y570242D03*
Y566305D03*
Y562368D03*
Y558431D03*
Y554494D03*
Y550557D03*
Y546620D03*
Y542683D03*
Y538746D03*
Y534809D03*
Y530872D03*
Y526935D03*
X828214Y605675D03*
X832151D03*
X836088D03*
X840025D03*
X843962D03*
X847899D03*
X851836D03*
X855773D03*
X828214Y601738D03*
X832151D03*
X836088D03*
X840025D03*
X843962D03*
X847899D03*
X851836D03*
X855773D03*
X828214Y597801D03*
X832151D03*
X836088D03*
X840025D03*
X843962D03*
X847899D03*
X851836D03*
X855773D03*
X828214Y593864D03*
X832151D03*
X836088D03*
X840025D03*
X843962D03*
X847899D03*
X851836D03*
X855773D03*
X828214Y589927D03*
X832151D03*
X836088D03*
X840025D03*
X843962D03*
X847899D03*
X851836D03*
X855773D03*
X828214Y585990D03*
X832151D03*
X836088D03*
X840025D03*
X843962D03*
X847899D03*
X851836D03*
X855773D03*
X828214Y582053D03*
X832151D03*
X836088D03*
X840025D03*
X843962D03*
X847899D03*
X851836D03*
X855773D03*
X828214Y578116D03*
X832151D03*
X836088D03*
X840025D03*
X843962D03*
X847899D03*
X851836D03*
X855773D03*
X956167Y528903D03*
Y532840D03*
Y536777D03*
Y540714D03*
Y544651D03*
Y548588D03*
Y552525D03*
Y556462D03*
Y560399D03*
Y564336D03*
Y568273D03*
Y572210D03*
Y576147D03*
Y580084D03*
Y584021D03*
Y587958D03*
Y591895D03*
Y595832D03*
Y599769D03*
Y603706D03*
Y607643D03*
Y611580D03*
Y615517D03*
Y619454D03*
Y623391D03*
Y627328D03*
Y631265D03*
Y635202D03*
Y639139D03*
Y643076D03*
Y647013D03*
Y650950D03*
Y654887D03*
Y658824D03*
X960104Y528903D03*
Y532840D03*
Y536777D03*
Y540714D03*
Y544651D03*
Y548588D03*
Y552525D03*
Y556462D03*
Y560399D03*
Y564336D03*
Y568273D03*
Y572210D03*
Y576147D03*
Y580084D03*
Y584021D03*
Y587958D03*
Y591895D03*
Y595832D03*
Y599769D03*
Y603706D03*
Y607643D03*
Y611580D03*
Y615517D03*
Y619454D03*
Y623391D03*
Y627328D03*
Y631265D03*
Y635202D03*
Y639139D03*
Y643076D03*
Y647013D03*
Y650950D03*
Y654887D03*
Y658824D03*
X964041Y528903D03*
Y532840D03*
Y536777D03*
Y540714D03*
Y544651D03*
Y548588D03*
Y552525D03*
Y556462D03*
Y560399D03*
Y564336D03*
Y568273D03*
Y572210D03*
Y576147D03*
Y580084D03*
Y584021D03*
Y587958D03*
Y591895D03*
Y595832D03*
Y599769D03*
Y603706D03*
Y607643D03*
Y611580D03*
Y615517D03*
Y619454D03*
Y623391D03*
Y627328D03*
Y631265D03*
Y635202D03*
Y639139D03*
Y643076D03*
Y647013D03*
Y650950D03*
Y654887D03*
Y658824D03*
X967978Y528903D03*
Y532840D03*
Y536777D03*
Y540714D03*
Y544651D03*
Y548588D03*
Y552525D03*
Y556462D03*
Y560399D03*
Y564336D03*
Y568273D03*
Y572210D03*
Y576147D03*
Y580084D03*
Y584021D03*
Y587958D03*
Y591895D03*
Y595832D03*
Y599769D03*
Y603706D03*
Y607643D03*
Y611580D03*
Y615517D03*
Y619454D03*
Y623391D03*
Y627328D03*
Y631265D03*
Y635202D03*
Y639139D03*
Y643076D03*
Y647013D03*
Y650950D03*
Y654887D03*
Y658824D03*
X971915Y528903D03*
Y532840D03*
Y536777D03*
Y540714D03*
Y544651D03*
Y548588D03*
Y552525D03*
Y556462D03*
Y560399D03*
Y564336D03*
Y568273D03*
Y572210D03*
Y576147D03*
Y580084D03*
Y584021D03*
Y587958D03*
Y591895D03*
Y595832D03*
Y599769D03*
Y603706D03*
Y607643D03*
Y611580D03*
Y615517D03*
Y619454D03*
Y623391D03*
Y627328D03*
Y631265D03*
Y635202D03*
Y639139D03*
Y643076D03*
Y647013D03*
Y650950D03*
Y654887D03*
Y658824D03*
X975852Y528903D03*
Y532840D03*
Y536777D03*
Y540714D03*
Y544651D03*
Y643076D03*
Y647013D03*
Y650950D03*
Y654887D03*
Y658824D03*
X979789Y528903D03*
Y532840D03*
Y536777D03*
Y540714D03*
Y544651D03*
Y643076D03*
Y647013D03*
Y650950D03*
Y654887D03*
Y658824D03*
X983726Y528903D03*
Y532840D03*
Y536777D03*
Y540714D03*
Y544651D03*
Y643076D03*
Y647013D03*
Y650950D03*
Y654887D03*
Y658824D03*
X987663Y528903D03*
Y532840D03*
Y536777D03*
Y540714D03*
Y544651D03*
Y643076D03*
Y647013D03*
Y650950D03*
Y654887D03*
Y658824D03*
X991600Y528903D03*
Y532840D03*
Y536777D03*
Y540714D03*
Y544651D03*
Y643076D03*
Y647013D03*
Y650950D03*
Y654887D03*
Y658824D03*
X995537Y528903D03*
Y532840D03*
Y536777D03*
Y540714D03*
Y544651D03*
Y643076D03*
Y647013D03*
Y650950D03*
Y654887D03*
Y658824D03*
X999474Y528903D03*
Y532840D03*
Y536777D03*
Y540714D03*
Y544651D03*
Y643076D03*
Y647013D03*
Y650950D03*
Y654887D03*
Y658824D03*
X1003411Y528903D03*
Y532840D03*
Y536777D03*
Y540714D03*
Y544651D03*
Y576147D03*
Y580084D03*
Y584021D03*
Y587958D03*
Y591895D03*
Y595832D03*
Y599769D03*
Y603706D03*
Y607643D03*
Y611580D03*
Y643076D03*
Y647013D03*
Y650950D03*
Y654887D03*
Y658824D03*
X1007348Y528903D03*
Y532840D03*
Y536777D03*
Y540714D03*
Y544651D03*
Y576147D03*
Y580084D03*
Y584021D03*
Y587958D03*
Y591895D03*
Y595832D03*
Y599769D03*
Y603706D03*
Y607643D03*
Y611580D03*
Y643076D03*
Y647013D03*
Y650950D03*
Y654887D03*
Y658824D03*
X1011285Y528903D03*
Y532840D03*
Y536777D03*
Y540714D03*
Y544651D03*
Y576147D03*
Y580084D03*
Y584021D03*
Y587958D03*
Y591895D03*
Y595832D03*
Y599769D03*
Y603706D03*
Y607643D03*
Y611580D03*
Y643076D03*
Y647013D03*
Y650950D03*
Y654887D03*
Y658824D03*
X1015222Y528903D03*
Y532840D03*
Y536777D03*
Y540714D03*
Y544651D03*
Y576147D03*
Y580084D03*
Y584021D03*
Y587958D03*
Y591895D03*
Y595832D03*
Y599769D03*
Y603706D03*
Y607643D03*
Y611580D03*
Y643076D03*
Y647013D03*
Y650950D03*
Y654887D03*
Y658824D03*
X1019159Y528903D03*
Y532840D03*
Y536777D03*
Y540714D03*
Y544651D03*
Y576147D03*
Y580084D03*
Y584021D03*
Y587958D03*
Y591895D03*
Y595832D03*
Y599769D03*
Y603706D03*
Y607643D03*
Y611580D03*
Y643076D03*
Y647013D03*
Y650950D03*
Y654887D03*
Y658824D03*
X1023096Y528903D03*
Y532840D03*
Y536777D03*
Y540714D03*
Y544651D03*
Y576147D03*
Y580084D03*
Y584021D03*
Y587958D03*
Y591895D03*
Y595832D03*
Y599769D03*
Y603706D03*
Y607643D03*
Y611580D03*
Y643076D03*
Y647013D03*
Y650950D03*
Y654887D03*
Y658824D03*
X1027033Y528903D03*
Y532840D03*
Y536777D03*
Y540714D03*
Y544651D03*
Y576147D03*
Y580084D03*
Y584021D03*
Y587958D03*
Y591895D03*
Y595832D03*
Y599769D03*
Y603706D03*
Y607643D03*
Y611580D03*
Y643076D03*
Y647013D03*
Y650950D03*
Y654887D03*
Y658824D03*
X1030970Y528903D03*
Y532840D03*
Y536777D03*
Y540714D03*
Y544651D03*
Y576147D03*
Y580084D03*
Y584021D03*
Y587958D03*
Y591895D03*
Y595832D03*
Y599769D03*
Y603706D03*
Y607643D03*
Y611580D03*
Y643076D03*
Y647013D03*
Y650950D03*
Y654887D03*
Y658824D03*
X1034907Y528903D03*
Y532840D03*
Y536777D03*
Y540714D03*
Y544651D03*
Y576147D03*
Y580084D03*
Y584021D03*
Y587958D03*
Y591895D03*
Y595832D03*
Y599769D03*
Y603706D03*
Y607643D03*
Y611580D03*
Y643076D03*
Y647013D03*
Y650950D03*
Y654887D03*
Y658824D03*
X1038844Y528903D03*
Y532840D03*
Y536777D03*
Y540714D03*
Y544651D03*
Y576147D03*
Y580084D03*
Y584021D03*
Y587958D03*
Y591895D03*
Y595832D03*
Y599769D03*
Y603706D03*
Y607643D03*
Y611580D03*
Y643076D03*
Y647013D03*
Y650950D03*
Y654887D03*
Y658824D03*
X1042781Y528903D03*
Y532840D03*
Y536777D03*
Y540714D03*
Y544651D03*
Y643076D03*
Y647013D03*
Y650950D03*
Y654887D03*
Y658824D03*
X1046718Y528903D03*
Y532840D03*
Y536777D03*
Y540714D03*
Y544651D03*
Y643076D03*
Y647013D03*
Y650950D03*
Y654887D03*
Y658824D03*
X1050655Y528903D03*
Y532840D03*
Y536777D03*
Y540714D03*
Y544651D03*
Y643076D03*
Y647013D03*
Y650950D03*
Y654887D03*
Y658824D03*
X1054592Y528903D03*
Y532840D03*
Y536777D03*
Y540714D03*
Y544651D03*
Y643076D03*
Y647013D03*
Y650950D03*
Y654887D03*
Y658824D03*
X1058529Y528903D03*
Y532840D03*
Y536777D03*
Y540714D03*
Y544651D03*
Y643076D03*
Y647013D03*
Y650950D03*
Y654887D03*
Y658824D03*
X1062466Y528903D03*
Y532840D03*
Y536777D03*
Y540714D03*
Y544651D03*
Y643076D03*
Y647013D03*
Y650950D03*
Y654887D03*
Y658824D03*
X1066403Y528903D03*
Y532840D03*
Y536777D03*
Y540714D03*
Y544651D03*
Y643076D03*
Y647013D03*
Y650950D03*
Y654887D03*
Y658824D03*
X1070340Y528903D03*
Y532840D03*
Y536777D03*
Y540714D03*
Y544651D03*
Y548588D03*
Y552525D03*
Y556462D03*
Y560399D03*
Y564336D03*
Y568273D03*
Y572210D03*
Y576147D03*
Y580084D03*
Y584021D03*
Y587958D03*
Y591895D03*
Y595832D03*
Y599769D03*
Y603706D03*
Y607643D03*
Y611580D03*
Y615517D03*
Y619454D03*
Y623391D03*
Y627328D03*
Y631265D03*
Y635202D03*
Y639139D03*
Y643076D03*
Y647013D03*
Y650950D03*
Y654887D03*
Y658824D03*
X1074277Y528903D03*
Y532840D03*
Y536777D03*
Y540714D03*
Y544651D03*
Y548588D03*
Y552525D03*
Y556462D03*
Y560399D03*
Y564336D03*
Y568273D03*
Y572210D03*
Y576147D03*
Y580084D03*
Y584021D03*
Y587958D03*
Y591895D03*
Y595832D03*
Y599769D03*
Y603706D03*
Y607643D03*
Y611580D03*
Y615517D03*
Y619454D03*
Y623391D03*
Y627328D03*
Y631265D03*
Y635202D03*
Y639139D03*
Y643076D03*
Y647013D03*
Y650950D03*
Y654887D03*
Y658824D03*
X1078214Y528903D03*
Y532840D03*
Y536777D03*
Y540714D03*
Y544651D03*
Y548588D03*
Y552525D03*
Y556462D03*
Y560399D03*
Y564336D03*
Y568273D03*
Y572210D03*
Y576147D03*
Y580084D03*
Y584021D03*
Y587958D03*
Y591895D03*
Y595832D03*
Y599769D03*
Y603706D03*
Y607643D03*
Y611580D03*
Y615517D03*
Y619454D03*
Y623391D03*
Y627328D03*
Y631265D03*
Y635202D03*
Y639139D03*
Y643076D03*
Y647013D03*
Y650950D03*
Y654887D03*
Y658824D03*
X1082151Y528903D03*
Y532840D03*
Y536777D03*
Y540714D03*
Y544651D03*
Y548588D03*
Y552525D03*
Y556462D03*
Y560399D03*
Y564336D03*
Y568273D03*
Y572210D03*
Y576147D03*
Y580084D03*
Y584021D03*
Y587958D03*
Y591895D03*
Y595832D03*
Y599769D03*
Y603706D03*
Y607643D03*
Y611580D03*
Y615517D03*
Y619454D03*
Y623391D03*
Y627328D03*
Y631265D03*
Y635202D03*
Y639139D03*
Y643076D03*
Y647013D03*
Y650950D03*
Y654887D03*
Y658824D03*
X1086088Y528903D03*
Y532840D03*
Y536777D03*
Y540714D03*
Y544651D03*
Y548588D03*
Y552525D03*
Y556462D03*
Y560399D03*
Y564336D03*
Y568273D03*
Y572210D03*
Y576147D03*
Y580084D03*
Y584021D03*
Y587958D03*
Y591895D03*
Y595832D03*
Y599769D03*
Y603706D03*
Y607643D03*
Y611580D03*
Y615517D03*
Y619454D03*
Y623391D03*
Y627328D03*
Y631265D03*
Y635202D03*
Y639139D03*
Y643076D03*
Y647013D03*
Y650950D03*
Y654887D03*
Y658824D03*
X549118Y952331D02*
X551087D01*
X549118Y949772D02*
X551087D01*
X549118Y947213D02*
X551087D01*
X560142D02*
X562110D01*
X560142Y949772D02*
X562110D01*
X560142Y952331D02*
X562110D01*
X560142Y954890D02*
X562110D01*
X550118Y976831D02*
X552087D01*
X550118Y974272D02*
X552087D01*
X550118Y971713D02*
X552087D01*
X561142D02*
X563110D01*
X561142Y974272D02*
X563110D01*
X561142Y976831D02*
X563110D01*
X561142Y979390D02*
X563110D01*
X550618Y1025831D02*
X552587D01*
X550618Y1023272D02*
X552587D01*
X550618Y1020713D02*
X552587D01*
X561642D02*
X563610D01*
X561642Y1023272D02*
X563610D01*
X561642Y1025831D02*
X563610D01*
X561642Y1028390D02*
X563610D01*
X550618Y1001331D02*
X552587D01*
X550618Y998772D02*
X552587D01*
X550618Y996213D02*
X552587D01*
X561642D02*
X563610D01*
X561642Y998772D02*
X563610D01*
X561642Y1001331D02*
X563610D01*
X561642Y1003890D02*
X563610D01*
G54D32*
X588057Y660793D03*
X733726Y515124D03*
X816403Y562368D03*
X867584Y621423D03*
X1093962Y521029D03*
X948293Y666698D03*
X927030Y443679D03*
X1011282Y359427D03*
X927033Y603706D03*
X212072Y861580D03*
X286876Y786777D03*
G54D33*
X658366Y192992D02*
X683366D01*
G54D34*
X470242Y680635D02*
X472407D01*
X470242Y670635D02*
X472407D01*
X470242Y660635D02*
X472407D01*
X487171D02*
X489336D01*
X487171Y670635D02*
X489336D01*
X487171Y680635D02*
X489336D01*
X470242Y735754D02*
X472407D01*
X470242Y725754D02*
X472407D01*
X470242Y715754D02*
X472407D01*
X487171D02*
X489336D01*
X487171Y725754D02*
X489336D01*
X487171Y735754D02*
X489336D01*
X470242Y643234D02*
X472407D01*
X470242Y633234D02*
X472407D01*
X470242Y623234D02*
X472407D01*
X487171D02*
X489336D01*
X487171Y633234D02*
X489336D01*
X487171Y643234D02*
X489336D01*
X470242Y601895D02*
X472407D01*
X470242Y591895D02*
X472407D01*
X470242Y581895D02*
X472407D01*
X487171D02*
X489336D01*
X487171Y591895D02*
X489336D01*
X487171Y601895D02*
X489336D01*
G54D35*
X263352Y479691D02*
X263549D01*
X266895D02*
X267092D01*
X1069202Y241848D02*
X1069006D01*
X1065659D02*
X1065462D01*
X1254724Y931201D02*
Y931398D01*
Y934744D02*
Y934941D01*
X446381Y883867D02*
Y883670D01*
Y880324D02*
Y880127D01*
X1088450Y362269D02*
Y362072D01*
Y358726D02*
Y358529D01*
X1099868Y317387D02*
Y317191D01*
Y313844D02*
Y313647D01*
X1057348Y362269D02*
Y362072D01*
Y358726D02*
Y358529D01*
X1131364Y317387D02*
Y317191D01*
Y313844D02*
Y313647D01*
X497604Y680478D02*
X497801D01*
X501147D02*
X501344D01*
X496817Y735990D02*
X497013D01*
X500360D02*
X500557D01*
X966178Y928951D03*
X962635D03*
X959092D03*
Y921951D03*
X962635D03*
X966178D03*
Y915951D03*
X962635D03*
X959092D03*
X966178Y903851D03*
X962635D03*
X959092D03*
Y909951D03*
X962635D03*
X966178D03*
X935092Y884951D03*
X938635D03*
X942178D03*
X935092Y877951D03*
X938635D03*
X942178D03*
X935092Y870951D03*
X938635D03*
X942178D03*
X935092Y864951D03*
X938635D03*
X942178D03*
X297959Y968190D03*
X301502D03*
X305046D03*
X448259D03*
X451802D03*
X455346D03*
X959092Y897951D03*
X962635D03*
X966178D03*
Y891951D03*
X962635D03*
X959092D03*
Y947951D03*
X962635D03*
X966178D03*
Y941951D03*
X962635D03*
X959092D03*
Y934951D03*
X962635D03*
X966178D03*
X537831Y958890D03*
X541374D03*
X652602Y947661D03*
Y944118D03*
X629374Y1045690D03*
X625831D03*
X642074D03*
X638531D03*
X663602Y947661D03*
Y944118D03*
X460104Y680675D03*
Y684218D03*
X542374Y977890D03*
X538831D03*
X542374Y971890D03*
X538831D03*
X541374Y953390D03*
X537831D03*
X541374Y947390D03*
X537831D03*
X538831Y983390D03*
X542374D03*
X637072Y873391D03*
X633529D03*
Y867486D03*
X637072D03*
X582348D03*
X585891D03*
Y873391D03*
X582348D03*
X534710D03*
X531167D03*
Y867486D03*
X534710D03*
X542874Y996390D03*
X539331D03*
X542874Y1002390D03*
X539331D03*
X542874Y1026890D03*
X539331D03*
X542874Y1020890D03*
X539331D03*
Y1007890D03*
X542874D03*
X539331Y1032390D03*
X542874D03*
X673602Y947661D03*
Y944118D03*
X616974Y1045690D03*
X613431D03*
X604174D03*
X600631D03*
X683602Y947661D03*
Y944118D03*
X460104Y735399D03*
Y738943D03*
X542874Y1013390D03*
X539331D03*
X542874Y1037890D03*
X539331D03*
X581831Y996390D03*
X585374D03*
X582331Y1020390D03*
X585874D03*
X993167Y744053D03*
Y747596D03*
X970375Y317711D03*
X966832D03*
X1042638Y403197D03*
X1046181D03*
X1049724D03*
Y409197D03*
X1046181D03*
X1042638D03*
X1049724Y396197D03*
X1046181D03*
X1042638D03*
X1052561Y235848D03*
X1056104D03*
X1031757Y244061D03*
Y240517D03*
X992387Y244061D03*
Y240517D03*
X1008135Y244061D03*
Y240517D03*
X1016009Y244061D03*
Y240517D03*
X1069104Y235848D03*
X1065561D03*
X1009513Y684415D03*
X1005970D03*
X920537Y603706D03*
X916994D03*
Y554494D03*
X920537D03*
X930970Y690124D03*
Y693667D03*
X936876Y690124D03*
Y693667D03*
X919159Y690124D03*
Y693667D03*
X913254Y690124D03*
Y693667D03*
X925065Y690124D03*
Y693667D03*
X1100261Y347998D03*
Y351541D03*
X1081757Y397998D03*
Y401541D03*
X1121915Y356659D03*
Y360202D03*
X925852Y616895D03*
Y613352D03*
X954592Y693667D03*
Y690124D03*
X948687Y693667D03*
Y690124D03*
X1060498Y391305D03*
Y387761D03*
X1110301Y358037D03*
X1106757D03*
X1056104Y241848D03*
X1052561D03*
X942781Y693667D03*
Y690124D03*
X909710Y653509D03*
Y649966D03*
X1019159Y469651D03*
Y466108D03*
X591602Y985890D02*
X595343D01*
X591602Y980890D02*
X595343D01*
X591602Y975890D02*
X595343D01*
X591602Y970890D02*
X595343D01*
X612862D02*
X616602D01*
X612862Y975890D02*
X616602D01*
X612862Y980890D02*
X616602D01*
X612862Y985890D02*
X616602D01*
X590102Y962390D02*
X593843D01*
X590102Y957390D02*
X593843D01*
X590102Y952390D02*
X593843D01*
X590102Y947390D02*
X593843D01*
X611362D02*
X615102D01*
X611362Y952390D02*
X615102D01*
X611362Y957390D02*
X615102D01*
X611362Y962390D02*
X615102D01*
X591602Y1010890D02*
X595343D01*
X591602Y1005890D02*
X595343D01*
X591602Y1000890D02*
X595343D01*
X591602Y995890D02*
X595343D01*
X612862D02*
X616602D01*
X612862Y1000890D02*
X616602D01*
X612862Y1005890D02*
X616602D01*
X612862Y1010890D02*
X616602D01*
X591802Y1035690D02*
X595543D01*
X591802Y1030690D02*
X595543D01*
X591802Y1025690D02*
X595543D01*
X591802Y1020690D02*
X595543D01*
X613062D02*
X616802D01*
X613062Y1025690D02*
X616802D01*
X613062Y1030690D02*
X616802D01*
X613062Y1035690D02*
X616802D01*
X1069647Y261108D02*
X1068072D01*
X1069647Y268588D02*
X1068072D01*
X1060592Y264848D02*
X1059017D01*
X1023883Y244061D03*
Y240517D03*
X1070029Y942116D03*
X1073572D03*
X1069995Y931124D03*
X1073539D03*
Y909924D03*
X1069995D03*
X1073539Y915324D03*
X1069995D03*
X1073539Y923224D03*
X1069995D03*
X962063Y885151D03*
X965607D03*
X961863Y877951D03*
X965407D03*
X961863Y870951D03*
X965407D03*
X961863Y864951D03*
X965407D03*
X1026639Y840517D03*
Y844061D03*
X1021915Y840517D03*
Y844061D03*
X860498Y314927D03*
Y311383D03*
X1005167Y840153D03*
Y843696D03*
X1035301Y840517D03*
Y844061D03*
X1073439Y905524D03*
X1069895D03*
X1131167Y631265D03*
X1127624D03*
X1239139Y425152D03*
X1242683D03*
X1255296Y642066D03*
Y638522D03*
X1260329Y642066D03*
Y638522D03*
X917387Y597407D03*
X920931D03*
X916994Y542683D03*
X920537D03*
X1181693Y905906D03*
X1185236D03*
X916994Y562761D03*
X920537D03*
X916994Y591895D03*
X920537D03*
X904986Y617289D03*
Y613746D03*
X897702Y592289D03*
X901246D03*
X473653Y860397D03*
X470109D03*
X918765Y617289D03*
Y613746D03*
X916994Y587565D03*
X920537D03*
X401181Y877169D03*
Y873625D03*
X887663Y314927D03*
Y311383D03*
X916994Y558431D03*
X920537D03*
X909907Y578116D03*
X913450D03*
X916994Y582840D03*
X920537D03*
X541009Y635202D03*
X544553D03*
X899080Y470045D03*
Y473588D03*
X1208529Y986482D02*
Y986679D01*
Y990025D02*
Y990222D01*
X1219946D02*
Y990025D01*
Y986679D02*
Y986482D01*
X1256561Y990222D02*
Y990025D01*
Y986679D02*
Y986482D01*
X1245931D02*
Y986679D01*
Y990025D02*
Y990222D01*
X333726Y285694D02*
Y285891D01*
Y289238D02*
Y289435D01*
X536974Y706069D02*
X537171D01*
X540517D02*
X540714D01*
X536974Y710006D02*
X537171D01*
X540517D02*
X540714D01*
X893175Y473687D02*
Y473490D01*
Y470143D02*
Y469946D01*
X1265222Y639238D02*
Y639435D01*
Y642781D02*
Y642978D01*
X912860Y788844D02*
Y789041D01*
Y792387D02*
Y792584D01*
X1066777Y366797D02*
Y370537D01*
X1071777Y366797D02*
Y370537D01*
X1076777Y366797D02*
Y370537D01*
X1081777Y366797D02*
Y370537D01*
Y388057D02*
Y391797D01*
X1076777Y388057D02*
Y391797D01*
X1071777Y388057D02*
Y391797D01*
X1066777Y388057D02*
Y391797D01*
X324122Y879915D02*
X326090D01*
X324122Y876175D02*
X326090D01*
X324122Y872435D02*
X326090D01*
X334358D02*
X336326D01*
X334358Y876175D02*
X336326D01*
X334358Y879915D02*
X336326D01*
X1102624Y676344D03*
Y679887D03*
X965572Y859116D03*
X962029D03*
X1111285Y676344D03*
Y679887D03*
X1030970Y840517D03*
Y844061D03*
X1119946Y676344D03*
Y679887D03*
X1115616Y676344D03*
Y679887D03*
X934663Y897851D03*
X938207D03*
X934663Y891851D03*
X938207D03*
X934663Y947851D03*
X938207D03*
X934663Y941851D03*
X938207D03*
X934663Y934851D03*
X938207D03*
X934663Y928851D03*
X938207D03*
X934663Y921851D03*
X938207D03*
X934663Y915851D03*
X938207D03*
X934663Y903751D03*
X938207D03*
X934663Y909851D03*
X938207D03*
X1073572Y948116D03*
X1070029D03*
X1017191Y840517D03*
Y844061D03*
X458174Y941490D03*
X454631D03*
X541009Y627328D03*
X544553D03*
X268962Y515124D03*
X265419D03*
X268962Y509218D03*
X265419D03*
X901049Y788943D03*
Y792486D03*
X906954D03*
Y788943D03*
X1039799Y317811D03*
X1043343D03*
X1030038D03*
X1033582D03*
X1019985D03*
X1023528D03*
X904986Y473588D03*
Y470045D03*
X875852Y310990D03*
Y314533D03*
X1106954Y676344D03*
Y679887D03*
X1097506Y676344D03*
Y679887D03*
X382281Y862069D03*
Y858525D03*
X985301Y730281D03*
Y733824D03*
Y747604D03*
Y744061D03*
X1225852Y986580D03*
Y990124D03*
X1261285Y986580D03*
Y990124D03*
X990375Y317711D03*
X986832D03*
X980375D03*
X976832D03*
X1000375Y317811D03*
X996832D03*
X954575Y317711D03*
X951032D03*
X1000261Y244061D03*
Y240517D03*
X920537Y538746D03*
X916994D03*
X1088057Y387368D03*
Y390911D03*
X1077033Y397604D03*
Y401147D03*
X916994Y534809D03*
X920537D03*
X916994Y550557D03*
X920537D03*
X1181299Y886614D03*
X1184843D03*
X515372Y924987D02*
X515569D01*
X518916D02*
X519113D01*
X689238Y481757D02*
Y481954D01*
Y485301D02*
Y485498D01*
X704986Y481757D02*
Y481954D01*
Y485301D02*
Y485498D01*
X720734Y481757D02*
Y481954D01*
Y485301D02*
Y485498D01*
X735694Y481757D02*
Y481954D01*
Y485301D02*
Y485498D01*
X441402Y939760D02*
Y939563D01*
Y936217D02*
Y936020D01*
X340124Y753313D02*
X340320D01*
X343667D02*
X343864D01*
X320340Y408923D02*
Y409120D01*
Y412466D02*
Y412663D01*
X326246Y467978D02*
Y468175D01*
Y471521D02*
Y471718D01*
Y477820D02*
Y478017D01*
Y481364D02*
Y481561D01*
X330183Y552624D02*
Y552820D01*
Y556167D02*
Y556364D01*
X299702Y932660D02*
Y932463D01*
Y929117D02*
Y928920D01*
X340802Y942460D02*
Y942263D01*
Y938917D02*
Y938720D01*
X299802Y941960D02*
Y941763D01*
Y938417D02*
Y938220D01*
X1065567Y201994D02*
Y201798D01*
Y198451D02*
Y198254D01*
X775163Y568273D02*
X775360D01*
X778706D02*
X778903D01*
Y548588D02*
X778706D01*
X775360D02*
X775163D01*
X780872Y605675D02*
X780675D01*
X777328D02*
X777131D01*
X798687Y733726D02*
Y733923D01*
Y737269D02*
Y737466D01*
X877525Y652919D02*
X877722D01*
X881069D02*
X881265D01*
X859710Y737663D02*
Y737860D01*
Y741206D02*
Y741403D01*
X656954Y481757D02*
Y481954D01*
Y485301D02*
Y485498D01*
X440402Y950420D02*
Y950617D01*
Y953963D02*
Y954160D01*
X406632Y966790D02*
X406829D01*
X410176D02*
X410372D01*
X483502Y942260D02*
Y942063D01*
Y938717D02*
Y938520D01*
X483802Y950320D02*
Y950517D01*
Y953863D02*
Y954060D01*
X260232Y968490D02*
X260429D01*
X263776D02*
X263972D01*
X301432Y958090D02*
X301629D01*
X304976D02*
X305172D01*
X896167Y432781D02*
Y432978D01*
Y436324D02*
Y436521D01*
X337332Y950190D02*
X337529D01*
X340876D02*
X341072D01*
X1251443Y986482D02*
Y986679D01*
Y990025D02*
Y990222D01*
X1240419Y986482D02*
Y986679D01*
Y990025D02*
Y990222D01*
X1214041Y986482D02*
Y986679D01*
Y990025D02*
Y990222D01*
X1203411Y986482D02*
Y986679D01*
Y990025D02*
Y990222D01*
X377581Y861769D03*
Y858225D03*
X443109Y868897D03*
X446653D03*
X944575Y317711D03*
X941032D03*
X934575D03*
X931032D03*
X273974Y942190D03*
X270431D03*
X313474Y942290D03*
X309931D03*
X492014Y933287D03*
X488471D03*
X501043Y965816D03*
Y969359D03*
X492043Y965816D03*
Y969359D03*
X510043Y965816D03*
Y969359D03*
X519043Y965816D03*
Y969359D03*
X416974Y940890D03*
X413431D03*
X182643Y828116D02*
X182840D01*
X186187D02*
X186383D01*
X182643Y816305D02*
X182840D01*
X186187D02*
X186383D01*
X182643Y804494D02*
X182840D01*
X186187D02*
X186383D01*
X182202Y792683D02*
X182399D01*
X185746D02*
X185943D01*
X216009Y889238D02*
Y889435D01*
Y892781D02*
Y892978D01*
X237663Y889238D02*
Y889435D01*
Y892781D02*
Y892978D01*
X249474Y889238D02*
Y889435D01*
Y892781D02*
Y892978D01*
X273096Y889238D02*
Y889435D01*
Y892781D02*
Y892978D01*
X290813Y887565D03*
Y891108D03*
Y894651D03*
X108543Y741701D03*
Y745244D03*
Y748787D03*
X319946Y771029D03*
X316403D03*
X312860D03*
X1261417Y353740D03*
Y350197D03*
X1267717D03*
Y353740D03*
X109202Y626461D03*
Y622918D03*
X156364Y1037171D03*
X159907D03*
X156364Y1041895D03*
X159907D03*
X154002Y991108D03*
X157545D03*
X1274016Y353740D03*
Y350197D03*
X1274803Y372244D03*
Y375787D03*
X151292Y631664D03*
X147749D03*
Y626764D03*
X151292D03*
X157545Y996620D03*
X154002D03*
X182643Y855675D02*
X182840D01*
X186187D02*
X186383D01*
X318273Y839927D02*
X318076D01*
X314730D02*
X314533D01*
Y851738D02*
X314730D01*
X318076D02*
X318273D01*
X182643Y867486D02*
X182840D01*
X186187D02*
X186383D01*
X261285Y892978D02*
Y892781D01*
Y889435D02*
Y889238D01*
X318273Y796620D02*
X318076D01*
X314730D02*
X314533D01*
Y828116D02*
X314730D01*
X318076D02*
X318273D01*
X225852Y892978D02*
Y892781D01*
Y889435D02*
Y889238D01*
X282939Y892978D02*
Y892781D01*
Y889435D02*
Y889238D01*
X1019967Y203594D02*
Y203398D01*
Y200051D02*
Y199854D01*
X188622Y1003437D02*
Y1003634D01*
Y1006980D02*
Y1007177D01*
X222150Y1002728D02*
Y1002925D01*
Y1006272D02*
Y1006469D01*
X218154Y1012803D02*
X218350D01*
X221697D02*
X221894D01*
X1053167Y182053D03*
Y185596D03*
X460104Y642880D03*
Y639336D03*
X540813Y912958D03*
Y916502D03*
X1048167Y172053D03*
Y175596D03*
X913057Y874179D03*
X916600D03*
X641206Y912958D03*
Y916502D03*
X591994Y912958D03*
Y916502D03*
X913057Y868979D03*
X916600D03*
X466502Y565931D02*
X470242D01*
X466502Y560931D02*
X470242D01*
X466502Y555931D02*
X470242D01*
X466502Y550931D02*
X470242D01*
X487761D02*
X491502D01*
X487761Y555931D02*
X491502D01*
X487761Y560931D02*
X491502D01*
X487761Y565931D02*
X491502D01*
X461285Y554395D02*
Y554198D01*
Y550852D02*
Y550655D01*
X314533Y818273D02*
X314730D01*
X318076D02*
X318273D01*
X314533Y808431D02*
X314730D01*
X318076D02*
X318273D01*
X314533Y784809D02*
X314730D01*
X318076D02*
X318273D01*
X1052967Y201994D02*
Y201798D01*
Y198451D02*
Y198254D01*
X1100167Y202294D02*
Y202098D01*
Y198751D02*
Y198554D01*
X188386Y992413D02*
Y992610D01*
Y995957D02*
Y996154D01*
X221913Y996626D02*
Y996429D01*
Y993083D02*
Y992886D01*
X1293327Y473524D02*
Y469783D01*
X1288327Y473524D02*
Y469783D01*
X1283327Y473524D02*
Y469783D01*
X1278327Y473524D02*
Y469783D01*
Y452264D02*
Y448524D01*
X1283327Y452264D02*
Y448524D01*
X1288327Y452264D02*
Y448524D01*
X1293327Y452264D02*
Y448524D01*
X1294114Y567618D02*
Y563878D01*
X1289114Y567618D02*
Y563878D01*
X1284114Y567618D02*
Y563878D01*
X1279114Y567618D02*
Y563878D01*
Y546358D02*
Y542618D01*
X1284114Y546358D02*
Y542618D01*
X1289114Y546358D02*
Y542618D01*
X1294114Y546358D02*
Y542618D01*
X259234Y270013D02*
Y273753D01*
X264234Y270013D02*
Y273753D01*
X269234Y270013D02*
Y273753D01*
X274234Y270013D02*
Y273753D01*
Y291272D02*
Y295013D01*
X269234Y291272D02*
Y295013D01*
X264234Y291272D02*
Y295013D01*
X259234Y291272D02*
Y295013D01*
X1269291Y372244D03*
Y375787D03*
X1281102D03*
Y372244D03*
X280684Y268204D03*
Y271747D03*
X1028167Y172053D03*
Y175596D03*
X1048167Y185596D03*
Y182053D03*
X1043167Y175596D03*
Y172053D03*
X460104Y601541D03*
Y597998D03*
X1095167Y186596D03*
Y183053D03*
X1100167D03*
Y186596D03*
X1075167Y172053D03*
Y175596D03*
X1070167D03*
Y172053D03*
X338731Y965490D03*
X342274D03*
X1073686Y893228D03*
X1070142D03*
X1252756Y262795D03*
Y259252D03*
X1240157Y184055D03*
Y187598D03*
X129161Y370271D03*
X125617D03*
X330183Y564435D02*
Y564631D01*
Y567978D02*
Y568175D01*
Y412663D02*
Y412466D01*
Y409120D02*
Y408923D01*
X903529Y432466D02*
Y432663D01*
Y436009D02*
Y436206D01*
X235694Y908135D02*
Y908332D01*
Y911679D02*
Y911876D01*
X265222Y907742D02*
Y907939D01*
Y911285D02*
Y911482D01*
X1127820Y356265D03*
Y359809D03*
X818372Y442486D03*
Y446029D03*
X668470Y913549D02*
X668667D01*
X672013D02*
X672210D01*
X567569Y914336D02*
X567765D01*
X571112D02*
X571309D01*
X620832Y913155D02*
X621029D01*
X624376D02*
X624572D01*
X1033167Y171954D02*
Y172151D01*
Y175498D02*
Y175694D01*
X1080167Y171954D02*
Y172151D01*
Y175498D02*
Y175694D01*
X920537Y546620D03*
X916994D03*
X881364Y617289D03*
Y613746D03*
X417074Y953190D03*
X413531D03*
X918962Y628116D03*
X922506D03*
X909789Y418116D03*
Y414572D03*
X1024474Y684809D03*
X1028017D03*
X893175Y617289D03*
Y613746D03*
X918962Y623391D03*
X922506D03*
X918962Y633234D03*
X922506D03*
X887269Y617289D03*
Y613746D03*
X270531Y952690D03*
X274074D03*
X1065567Y190894D02*
Y190698D01*
Y187351D02*
Y187154D01*
X1019667Y190994D02*
Y190798D01*
Y187451D02*
Y187254D01*
X1090167Y175596D03*
Y172053D03*
X1095167D03*
Y175596D03*
X1023167D03*
Y172053D03*
X354819Y883671D02*
X358559D01*
X354819Y878671D02*
X358559D01*
X354819Y873671D02*
X358559D01*
X354819Y868671D02*
X358559D01*
X376079D02*
X379819D01*
X376079Y873671D02*
X379819D01*
X376079Y878671D02*
X379819D01*
X376079Y883671D02*
X379819D01*
X411381Y883797D02*
X415121D01*
X411381Y878797D02*
X415121D01*
X411381Y873797D02*
X415121D01*
X411381Y868797D02*
X415121D01*
X432641D02*
X436381D01*
X432641Y873797D02*
X436381D01*
X432641Y878797D02*
X436381D01*
X432641Y883797D02*
X436381D01*
X456670Y883771D02*
X460410D01*
X456670Y878771D02*
X460410D01*
X456670Y873771D02*
X460410D01*
X456670Y868771D02*
X460410D01*
X477930D02*
X481670D01*
X477930Y873771D02*
X481670D01*
X477930Y878771D02*
X481670D01*
X477930Y883771D02*
X481670D01*
X1100167Y175694D02*
Y175498D01*
Y172151D02*
Y171954D01*
X1053167Y175694D02*
Y175498D01*
Y172151D02*
Y171954D01*
X1038167Y172053D03*
Y175596D03*
X1085167Y172053D03*
Y175596D03*
X670734Y678411D02*
Y678214D01*
Y674868D02*
Y674671D01*
X464549Y926002D02*
Y925806D01*
Y922459D02*
Y922262D01*
X442049Y927302D02*
Y927106D01*
Y923759D02*
Y923562D01*
X343232Y930390D02*
X343429D01*
X346776D02*
X346972D01*
X342032Y909490D02*
X342229D01*
X345576D02*
X345772D01*
X566797Y678411D02*
Y678214D01*
Y674868D02*
Y674671D01*
X562860Y678411D02*
Y678214D01*
Y674868D02*
Y674671D01*
X558923Y678411D02*
Y678214D01*
Y674868D02*
Y674671D01*
X554986Y678411D02*
Y678214D01*
Y674868D02*
Y674671D01*
X631364Y678411D02*
Y678214D01*
Y674868D02*
Y674671D01*
X627427Y678411D02*
Y678214D01*
Y674868D02*
Y674671D01*
X619553Y678411D02*
Y678214D01*
Y674868D02*
Y674671D01*
X623490Y678411D02*
Y678214D01*
Y674868D02*
Y674671D01*
X607742Y678411D02*
Y678214D01*
Y674868D02*
Y674671D01*
X603805Y678411D02*
Y678214D01*
Y674868D02*
Y674671D01*
X578608Y678411D02*
Y678214D01*
Y674868D02*
Y674671D01*
X582545Y678411D02*
Y678214D01*
Y674868D02*
Y674671D01*
X654986Y678411D02*
Y678214D01*
Y674868D02*
Y674671D01*
X651049Y678411D02*
Y678214D01*
Y674868D02*
Y674671D01*
X643175Y678411D02*
Y678214D01*
Y674868D02*
Y674671D01*
X647112Y678411D02*
Y678214D01*
Y674868D02*
Y674671D01*
X678608Y678411D02*
Y678214D01*
Y674868D02*
Y674671D01*
X674671Y678411D02*
Y678214D01*
Y674868D02*
Y674671D01*
X666797Y678411D02*
Y678214D01*
Y674868D02*
Y674671D01*
X738057Y678411D02*
Y678214D01*
Y674868D02*
Y674671D01*
X734120Y678411D02*
Y678214D01*
Y674868D02*
Y674671D01*
X714041Y678411D02*
Y678214D01*
Y674868D02*
Y674671D01*
X717978Y678411D02*
Y678214D01*
Y674868D02*
Y674671D01*
X694356Y678411D02*
Y678214D01*
Y674868D02*
Y674671D01*
X690419Y678411D02*
Y678214D01*
Y674868D02*
Y674671D01*
X702230Y678411D02*
Y678214D01*
Y674868D02*
Y674671D01*
X698293Y678411D02*
Y678214D01*
Y674868D02*
Y674671D01*
X755380Y678411D02*
Y678214D01*
Y674868D02*
Y674671D01*
X751443Y678411D02*
Y678214D01*
Y674868D02*
Y674671D01*
X762860Y678805D02*
Y678608D01*
Y675261D02*
Y675065D01*
X766797Y678805D02*
Y678608D01*
Y675261D02*
Y675065D01*
X536974Y654887D02*
X537171D01*
X540517D02*
X540714D01*
X536974Y658824D02*
X537171D01*
X540517D02*
X540714D01*
X509415Y650950D02*
X509612D01*
X512958D02*
X513155D01*
X509415Y686383D02*
X509612D01*
X512958D02*
X513155D01*
X509415Y646620D02*
X509612D01*
X512958D02*
X513155D01*
X509415Y690320D02*
X509612D01*
X512958D02*
X513155D01*
X509415Y745439D02*
X509612D01*
X512958D02*
X513155D01*
X509415Y702131D02*
X509612D01*
X512958D02*
X513155D01*
X509415Y741502D02*
X509612D01*
X512958D02*
X513155D01*
X509415Y706069D02*
X509612D01*
X512958D02*
X513155D01*
X536974Y682446D02*
X537171D01*
X540517D02*
X540714D01*
X536974Y678509D02*
X537171D01*
X540517D02*
X540714D01*
X536974Y674572D02*
X537171D01*
X540517D02*
X540714D01*
X536974Y670635D02*
X537171D01*
X540517D02*
X540714D01*
X536974Y666698D02*
X537171D01*
X540517D02*
X540714D01*
X536974Y662761D02*
X537171D01*
X540517D02*
X540714D01*
X536974Y713943D02*
X537171D01*
X540517D02*
X540714D01*
X536974Y717880D02*
X537171D01*
X540517D02*
X540714D01*
X536974Y721817D02*
X537171D01*
X540517D02*
X540714D01*
X536974Y725754D02*
X537171D01*
X540517D02*
X540714D01*
X536974Y729691D02*
X537171D01*
X540517D02*
X540714D01*
X536974Y733628D02*
X537171D01*
X540517D02*
X540714D01*
X287761Y505675D02*
X287958D01*
X291305D02*
X291502D01*
X1265320Y607643D02*
X1265517D01*
X1268864D02*
X1269061D01*
X1268962Y601738D03*
X1265419D03*
X287860Y501344D03*
X291403D03*
X775163Y558431D02*
X775360D01*
X778706D02*
X778903D01*
X586088Y485498D02*
Y485301D01*
Y481954D02*
Y481757D01*
X601836Y485498D02*
Y485301D01*
Y481954D02*
Y481757D01*
X617584Y485498D02*
Y485301D01*
Y481954D02*
Y481757D01*
X634120Y485498D02*
Y485301D01*
Y481954D02*
Y481757D01*
X680576Y485498D02*
Y485301D01*
Y481954D02*
Y481757D01*
X697112Y485498D02*
Y485301D01*
Y481954D02*
Y481757D01*
X712860Y485498D02*
Y485301D01*
Y481954D02*
Y481757D01*
X728608Y485498D02*
Y485301D01*
Y481954D02*
Y481757D01*
X556462Y517092D02*
X556265D01*
X552919D02*
X552722D01*
X556462Y524966D02*
X556265D01*
X552919D02*
X552722D01*
X556462Y532840D02*
X556265D01*
X552919D02*
X552722D01*
X556462Y540714D02*
X556265D01*
X552919D02*
X552722D01*
X556462Y548588D02*
X556265D01*
X552919D02*
X552722D01*
X556462Y580084D02*
X556265D01*
X552919D02*
X552722D01*
X556462Y587958D02*
X556265D01*
X552919D02*
X552722D01*
X556462Y595832D02*
X556265D01*
X552919D02*
X552722D01*
X556462Y603706D02*
X556265D01*
X552919D02*
X552722D01*
X556462Y556462D02*
X556265D01*
X552919D02*
X552722D01*
X556462Y509218D02*
X556265D01*
X552919D02*
X552722D01*
X578214Y481757D02*
Y481954D01*
Y485301D02*
Y485498D01*
X593962Y481757D02*
Y481954D01*
Y485301D02*
Y485498D01*
X609710Y481757D02*
Y481954D01*
Y485301D02*
Y485498D01*
X625458Y481757D02*
Y481954D01*
Y485301D02*
Y485498D01*
X641600Y481757D02*
Y481954D01*
Y485301D02*
Y485498D01*
X649868Y481757D02*
Y481954D01*
Y485301D02*
Y485498D01*
X664828Y481757D02*
Y481954D01*
Y485301D02*
Y485498D01*
X672702Y481757D02*
Y481954D01*
Y485301D02*
Y485498D01*
X580831Y947390D03*
X584374D03*
X582331Y970890D03*
X585874D03*
X542374Y988890D03*
X538831D03*
X541374Y964390D03*
X537831D03*
X668372Y441698D03*
Y438155D03*
X816009Y429494D03*
Y425950D03*
X810498Y429494D03*
Y425950D03*
X676639Y442092D03*
Y438549D03*
X1288189Y353740D03*
Y350197D03*
X247919Y213493D03*
X244375D03*
X1281102Y353740D03*
Y350197D03*
X244685Y235827D03*
X241142D03*
X247766Y204395D03*
X244223D03*
X250951Y254894D03*
X247408D03*
X237466Y409612D03*
X241009D03*
X218569Y387565D03*
X215025D03*
X191600Y612171D03*
Y615714D03*
X174016Y623425D03*
Y626969D03*
X103797Y369996D03*
X107340D03*
X137072Y397013D03*
X140616D03*
X541009Y643076D03*
X544553D03*
X541009Y619454D03*
X544553D03*
X540222Y595832D03*
X543765D03*
X540222Y587958D03*
X543765D03*
X552820Y564336D03*
X556364D03*
X552820Y572210D03*
X556364D03*
X777230Y613549D03*
X780773D03*
X777230Y621423D03*
X780773D03*
X1140924Y204694D02*
Y210206D01*
X1150766Y204694D02*
Y210206D01*
X1155688Y204694D02*
Y210206D01*
X1160609Y204694D02*
Y210206D01*
X1164467Y204694D02*
Y210206D01*
X1170451Y204694D02*
Y210206D01*
X1175373Y204694D02*
Y210206D01*
X1180333Y204694D02*
Y210206D01*
X1190176Y204694D02*
Y210206D01*
X1195097Y204694D02*
Y210206D01*
X1200018Y204694D02*
Y210206D01*
X1204940Y204694D02*
Y210206D01*
X1209546Y204694D02*
Y210206D01*
X1216436Y204694D02*
Y210206D01*
G54D36*
X629051Y962295D02*
X635154D01*
X629051Y950484D02*
X635154D01*
X629051Y1010795D02*
X635154D01*
X629051Y998984D02*
X635154D01*
X629051Y1035595D02*
X635154D01*
X629051Y1023784D02*
X635154D01*
X1058195Y964665D02*
Y970767D01*
X1070006Y964665D02*
Y970767D01*
X1252101Y334513D02*
X1245998D01*
X1252101Y346324D02*
X1245998D01*
X1060789Y250257D02*
Y251439D01*
X1067876Y250257D02*
Y251439D01*
X629051Y985795D02*
X635154D01*
X629051Y973984D02*
X635154D01*
X141187Y615127D02*
X142368D01*
X141187Y608040D02*
X142368D01*
X159409Y146395D02*
X153307D01*
X159409Y158206D02*
X153307D01*
X187808Y284941D02*
Y278839D01*
X175997Y284941D02*
Y278839D01*
X119413Y472189D02*
X125516D01*
X119413Y460378D02*
X125516D01*
X124908Y285041D02*
Y278939D01*
X113097Y285041D02*
Y278939D01*
X1085895Y945065D02*
Y951167D01*
X1097706Y945065D02*
Y951167D01*
X1085895Y931065D02*
Y937167D01*
X1097706Y931065D02*
Y937167D01*
G54D37*
X482545Y694159D02*
Y694356D01*
X488844Y694159D02*
Y694356D01*
X482151Y747702D02*
Y747899D01*
X488450Y747702D02*
Y747899D01*
X1014336Y493470D02*
X1014533D01*
X1014336Y487171D02*
X1014533D01*
X1131462Y681265D02*
X1131265D01*
X1131462Y687565D02*
X1131265D01*
X1023785Y493470D02*
X1023982D01*
X1023785Y487171D02*
X1023982D01*
X1033234Y493470D02*
X1033431D01*
X1033234Y487171D02*
X1033431D01*
X1052919Y493470D02*
X1053116D01*
X1052919Y487171D02*
X1053116D01*
X1043470Y493470D02*
X1043667D01*
X1043470Y487171D02*
X1043667D01*
X139571Y740945D02*
X144098D01*
X139571Y722835D02*
X144098D01*
X555773Y834120D02*
Y833923D01*
X549474Y834120D02*
Y833923D01*
X660104Y834120D02*
Y833923D01*
X653805Y834120D02*
Y833923D01*
X608923Y834120D02*
Y833923D01*
X602624Y834120D02*
Y833923D01*
X455478Y545439D02*
X455281D01*
X455478Y551738D02*
X455281D01*
X132512Y652618D02*
Y652421D01*
X126213Y652618D02*
Y652421D01*
X654986Y921521D02*
Y921324D01*
X648687Y921521D02*
Y921324D01*
X554240Y921915D02*
Y921718D01*
X547941Y921915D02*
Y921718D01*
X604198Y921128D02*
Y920931D01*
X597899Y921128D02*
Y920931D01*
G54D38*
X654079Y954784D02*
X651126D01*
X654079Y966595D02*
X651126D01*
X665079Y954784D02*
X662126D01*
X665079Y966595D02*
X662126D01*
X912529Y929375D02*
Y932327D01*
X924341Y929375D02*
Y932327D01*
X911529Y917375D02*
Y920327D01*
X923341Y917375D02*
Y920327D01*
X675079Y954784D02*
X672126D01*
X675079Y966595D02*
X672126D01*
X685079Y954784D02*
X682126D01*
X685079Y966595D02*
X682126D01*
X907486Y301628D02*
Y294738D01*
Y284896D02*
Y278006D01*
X899612Y301628D02*
Y294738D01*
Y284896D02*
Y278006D01*
X891738Y301628D02*
Y294738D01*
Y284896D02*
Y278006D01*
X883864Y301628D02*
Y294738D01*
Y284896D02*
Y278006D01*
X875990Y301628D02*
Y294738D01*
Y284896D02*
Y278006D01*
X868116Y301628D02*
Y294738D01*
Y284896D02*
Y278006D01*
X860242Y301628D02*
Y294738D01*
Y284896D02*
Y278006D01*
X899868Y846226D02*
X892978D01*
X883135D02*
X876246D01*
X899868Y854100D02*
X892978D01*
X883135D02*
X876246D01*
X899868Y861974D02*
X892978D01*
X883135D02*
X876246D01*
X899868Y869848D02*
X892978D01*
X883135D02*
X876246D01*
X899868Y877722D02*
X892978D01*
X883135D02*
X876246D01*
X899868Y885596D02*
X892978D01*
X883135D02*
X876246D01*
X899868Y893470D02*
X892978D01*
X883135D02*
X876246D01*
X1032545Y227722D02*
X1030970D01*
X1032545Y234809D02*
X1030970D01*
X1024671Y227722D02*
X1023096D01*
X1024671Y234809D02*
X1023096D01*
X1016797Y227722D02*
X1015222D01*
X1016797Y234809D02*
X1015222D01*
X1008923Y227722D02*
X1007348D01*
X1008923Y234809D02*
X1007348D01*
X1001049Y227722D02*
X999474D01*
X1001049Y234809D02*
X999474D01*
X993175Y227722D02*
X991600D01*
X993175Y234809D02*
X991600D01*
X911529Y893375D02*
Y896327D01*
X923341Y893375D02*
Y896327D01*
X518255Y956131D02*
X519830D01*
X518255Y949044D02*
X519830D01*
X491255Y956131D02*
X492830D01*
X491255Y949044D02*
X492830D01*
X500255Y956131D02*
X501830D01*
X500255Y949044D02*
X501830D01*
X509255Y956131D02*
X510830D01*
X509255Y949044D02*
X510830D01*
X1058814Y165506D02*
Y165900D01*
G54D39*
X982454Y938951D02*
X989147D01*
X982454Y936982D02*
X989147D01*
X982454Y935014D02*
X989147D01*
X982454Y933045D02*
X989147D01*
X982454Y931077D02*
X989147D01*
X982454Y929108D02*
X989147D01*
X982454Y927140D02*
X989147D01*
X982454Y925171D02*
X989147D01*
X982454Y923203D02*
X989147D01*
X982454Y921234D02*
X989147D01*
X982454Y919266D02*
X989147D01*
X982454Y917297D02*
X989147D01*
X982454Y915329D02*
X989147D01*
X982454Y913360D02*
X989147D01*
X982454Y911392D02*
X989147D01*
X982454Y909423D02*
X989147D01*
X982454Y907455D02*
X989147D01*
X982454Y905486D02*
X989147D01*
X982454Y903518D02*
X989147D01*
X982454Y901549D02*
X989147D01*
X982454Y899581D02*
X989147D01*
X982454Y897612D02*
X989147D01*
X982454Y895644D02*
X989147D01*
X982454Y893675D02*
X989147D01*
X982454Y891707D02*
X989147D01*
X982454Y889738D02*
X989147D01*
X982454Y887770D02*
X989147D01*
X982454Y885801D02*
X989147D01*
X982454Y883833D02*
X989147D01*
X982454Y881864D02*
X989147D01*
X982454Y879896D02*
X989147D01*
X982454Y877927D02*
X989147D01*
X982454Y875959D02*
X989147D01*
X982454Y873990D02*
X989147D01*
X982454Y872022D02*
X989147D01*
X982454Y870053D02*
X989147D01*
X982454Y868085D02*
X989147D01*
X982454Y866116D02*
X989147D01*
X1050289D02*
X1056981D01*
X1050289Y868085D02*
X1056981D01*
X1050289Y870053D02*
X1056981D01*
X1050289Y872022D02*
X1056981D01*
X1050289Y873990D02*
X1056981D01*
X1050289Y875959D02*
X1056981D01*
X1050289Y877927D02*
X1056981D01*
X1050289Y879896D02*
X1056981D01*
X1050289Y881864D02*
X1056981D01*
X1050289Y883833D02*
X1056981D01*
X1050289Y885801D02*
X1056981D01*
X1050289Y887770D02*
X1056981D01*
X1050289Y889738D02*
X1056981D01*
X1050289Y891707D02*
X1056981D01*
X1050289Y893675D02*
X1056981D01*
X1050289Y895644D02*
X1056981D01*
X1050289Y897612D02*
X1056981D01*
X1050289Y899581D02*
X1056981D01*
X1050289Y901549D02*
X1056981D01*
X1050289Y903518D02*
X1056981D01*
X1050289Y905486D02*
X1056981D01*
X1050289Y907455D02*
X1056981D01*
X1050289Y909423D02*
X1056981D01*
X1050289Y911392D02*
X1056981D01*
X1050289Y913360D02*
X1056981D01*
X1050289Y915329D02*
X1056981D01*
X1050289Y917297D02*
X1056981D01*
X1050289Y919266D02*
X1056981D01*
X1050289Y921234D02*
X1056981D01*
X1050289Y923203D02*
X1056981D01*
X1050289Y925171D02*
X1056981D01*
X1050289Y927140D02*
X1056981D01*
X1050289Y929108D02*
X1056981D01*
X1050289Y931077D02*
X1056981D01*
X1050289Y933045D02*
X1056981D01*
X1050289Y935014D02*
X1056981D01*
X1050289Y936982D02*
X1056981D01*
X1050289Y938951D02*
X1056981D01*
X901049Y506265D02*
Y501935D01*
X899080Y506265D02*
Y501935D01*
X897112Y506265D02*
Y501935D01*
X895143Y506265D02*
Y501935D01*
X893175Y506265D02*
Y501935D01*
Y488943D02*
Y484612D01*
X895143Y488943D02*
Y484612D01*
X897112Y488943D02*
Y484612D01*
X899080Y488943D02*
Y484612D01*
X901049Y488943D02*
Y484612D01*
X902624Y757446D02*
Y761777D01*
X904592Y757446D02*
Y761777D01*
X906561Y757446D02*
Y761777D01*
X908529Y757446D02*
Y761777D01*
X910498Y757446D02*
Y761777D01*
Y774769D02*
Y779100D01*
X908529Y774769D02*
Y779100D01*
X906561Y774769D02*
Y779100D01*
X904592Y774769D02*
Y779100D01*
X902624Y774769D02*
Y779100D01*
X1242582Y437193D02*
X1243370D01*
X1242582Y435225D02*
X1243370D01*
X1242582Y433256D02*
X1243370D01*
X1242582Y431288D02*
X1243370D01*
X1246519D02*
X1247307D01*
X1246519Y433256D02*
X1247307D01*
X1246519Y435225D02*
X1247307D01*
X1246519Y437193D02*
X1247307D01*
X1242582Y492788D02*
X1243370D01*
X1242582Y490820D02*
X1243370D01*
X1242582Y488851D02*
X1243370D01*
X1242582Y486883D02*
X1243370D01*
X1246519D02*
X1247307D01*
X1246519Y488851D02*
X1247307D01*
X1246519Y490820D02*
X1247307D01*
X1246519Y492788D02*
X1247307D01*
X1242582Y504358D02*
X1243370D01*
X1242582Y502390D02*
X1243370D01*
X1242582Y500421D02*
X1243370D01*
X1242582Y498453D02*
X1243370D01*
X1246519D02*
X1247307D01*
X1246519Y500421D02*
X1247307D01*
X1246519Y502390D02*
X1247307D01*
X1246519Y504358D02*
X1247307D01*
X1242582Y515363D02*
X1243370D01*
X1242582Y513395D02*
X1243370D01*
X1242582Y511426D02*
X1243370D01*
X1242582Y509458D02*
X1243370D01*
X1246519D02*
X1247307D01*
X1246519Y511426D02*
X1247307D01*
X1246519Y513395D02*
X1247307D01*
X1246519Y515363D02*
X1247307D01*
X1242582Y532577D02*
X1243370D01*
X1242582Y530609D02*
X1243370D01*
X1242582Y528640D02*
X1243370D01*
X1242582Y526672D02*
X1243370D01*
X1246519D02*
X1247307D01*
X1246519Y528640D02*
X1247307D01*
X1246519Y530609D02*
X1247307D01*
X1246519Y532577D02*
X1247307D01*
X1242582Y457653D02*
X1243370D01*
X1242582Y455685D02*
X1243370D01*
X1242582Y453716D02*
X1243370D01*
X1242582Y451748D02*
X1243370D01*
X1246519D02*
X1247307D01*
X1246519Y453716D02*
X1247307D01*
X1246519Y455685D02*
X1247307D01*
X1246519Y457653D02*
X1247307D01*
X1242582Y447157D02*
X1243370D01*
X1242582Y445189D02*
X1243370D01*
X1242582Y443220D02*
X1243370D01*
X1242582Y441252D02*
X1243370D01*
X1246519D02*
X1247307D01*
X1246519Y443220D02*
X1247307D01*
X1246519Y445189D02*
X1247307D01*
X1246519Y447157D02*
X1247307D01*
X329002Y420517D02*
X328214D01*
X329002Y422486D02*
X328214D01*
X329002Y424454D02*
X328214D01*
X329002Y426423D02*
X328214D01*
X325065D02*
X324277D01*
X325065Y424454D02*
X324277D01*
X325065Y422486D02*
X324277D01*
X325065Y420517D02*
X324277D01*
X329002Y443746D02*
X328214D01*
X329002Y445714D02*
X328214D01*
X329002Y447683D02*
X328214D01*
X329002Y449651D02*
X328214D01*
X325065D02*
X324277D01*
X325065Y447683D02*
X324277D01*
X325065Y445714D02*
X324277D01*
X325065Y443746D02*
X324277D01*
X329002Y456738D02*
X328214D01*
X329002Y458706D02*
X328214D01*
X329002Y460675D02*
X328214D01*
X329002Y462643D02*
X328214D01*
X325065D02*
X324277D01*
X325065Y460675D02*
X324277D01*
X325065Y458706D02*
X324277D01*
X325065Y456738D02*
X324277D01*
X329002Y489415D02*
X328214D01*
X329002Y491383D02*
X328214D01*
X329002Y493352D02*
X328214D01*
X329002Y495320D02*
X328214D01*
X325065D02*
X324277D01*
X325065Y493352D02*
X324277D01*
X325065Y491383D02*
X324277D01*
X325065Y489415D02*
X324277D01*
X329002Y508706D02*
X328214D01*
X329002Y510675D02*
X328214D01*
X329002Y512643D02*
X328214D01*
X329002Y514612D02*
X328214D01*
X325065D02*
X324277D01*
X325065Y512643D02*
X324277D01*
X325065Y510675D02*
X324277D01*
X325065Y508706D02*
X324277D01*
X329002Y527998D02*
X328214D01*
X329002Y529966D02*
X328214D01*
X329002Y531935D02*
X328214D01*
X329002Y533903D02*
X328214D01*
X325065D02*
X324277D01*
X325065Y531935D02*
X324277D01*
X325065Y529966D02*
X324277D01*
X325065Y527998D02*
X324277D01*
X329002Y431147D02*
X328214D01*
X329002Y433116D02*
X328214D01*
X329002Y435084D02*
X328214D01*
X329002Y437053D02*
X328214D01*
X325065D02*
X324277D01*
X325065Y435084D02*
X324277D01*
X325065Y433116D02*
X324277D01*
X325065Y431147D02*
X324277D01*
X1250999Y604304D02*
Y608635D01*
X1252968Y604304D02*
Y608635D01*
X1254936Y604304D02*
Y608635D01*
X1256905Y604304D02*
Y608635D01*
X1258873Y604304D02*
Y608635D01*
Y621627D02*
Y625958D01*
X1256905Y621627D02*
Y625958D01*
X1254936Y621627D02*
Y625958D01*
X1252968Y621627D02*
Y625958D01*
X1250999Y621627D02*
Y625958D01*
X278017Y493470D02*
X273687D01*
X278017Y495439D02*
X273687D01*
X278017Y497407D02*
X273687D01*
X278017Y499376D02*
X273687D01*
X278017Y501344D02*
X273687D01*
X260694D02*
X256364D01*
X260694Y499376D02*
X256364D01*
X260694Y497407D02*
X256364D01*
X260694Y495439D02*
X256364D01*
X260694Y493470D02*
X256364D01*
X1238994Y935498D02*
Y934710D01*
X1237025Y935498D02*
Y934710D01*
X1235057Y935498D02*
Y934710D01*
X1233088Y935498D02*
Y934710D01*
Y932545D02*
Y931757D01*
X1235057Y932545D02*
Y931757D01*
X1237025Y932545D02*
Y931757D01*
X1238994Y932545D02*
Y931757D01*
X1227994Y935498D02*
Y934710D01*
X1226025Y935498D02*
Y934710D01*
X1224057Y935498D02*
Y934710D01*
X1222088Y935498D02*
Y934710D01*
Y932545D02*
Y931757D01*
X1224057Y932545D02*
Y931757D01*
X1226025Y932545D02*
Y931757D01*
X1227994Y932545D02*
Y931757D01*
X394534Y869167D02*
Y868380D01*
X392565Y869167D02*
Y868380D01*
X390597Y869167D02*
Y868380D01*
X388628Y869167D02*
Y868380D01*
Y866214D02*
Y865427D01*
X390597Y866214D02*
Y865427D01*
X392565Y866214D02*
Y865427D01*
X394534Y866214D02*
Y865427D01*
X1216994Y935498D02*
Y934710D01*
X1215025Y935498D02*
Y934710D01*
X1213057Y935498D02*
Y934710D01*
X1211088Y935498D02*
Y934710D01*
Y932545D02*
Y931757D01*
X1213057Y932545D02*
Y931757D01*
X1215025Y932545D02*
Y931757D01*
X1216994Y932545D02*
Y931757D01*
X1003605Y446042D02*
Y441317D01*
X1001636Y446042D02*
Y441317D01*
X999668Y446042D02*
Y441317D01*
X997699Y446042D02*
Y441317D01*
X995731Y446042D02*
Y441317D01*
X993762Y446042D02*
Y441317D01*
X991794Y446042D02*
Y441317D01*
X989825Y446042D02*
Y441317D01*
X987857Y446042D02*
Y441317D01*
X985888Y446042D02*
Y441317D01*
X983920Y446042D02*
Y441317D01*
X981951Y446042D02*
Y441317D01*
X979983Y446042D02*
Y441317D01*
X978014Y446042D02*
Y441317D01*
X976046Y446042D02*
Y441317D01*
X974077Y446042D02*
Y441317D01*
X972108Y446042D02*
Y441317D01*
X970140Y446042D02*
Y441317D01*
X968171Y446042D02*
Y441317D01*
X966203Y446042D02*
Y441317D01*
X964234Y446042D02*
Y441317D01*
X962266Y446042D02*
Y441317D01*
X960297Y446042D02*
Y441317D01*
X958329Y446042D02*
Y441317D01*
X956360Y446042D02*
Y441317D01*
X954392Y446042D02*
Y441317D01*
X952423Y446042D02*
Y441317D01*
X950455Y446042D02*
Y441317D01*
X948486Y446042D02*
Y441317D01*
X946518Y446042D02*
Y441317D01*
X944549Y446042D02*
Y441317D01*
X942581Y446042D02*
Y441317D01*
X940612Y446042D02*
Y441317D01*
X938644Y446042D02*
Y441317D01*
X936675Y446042D02*
Y441317D01*
X934707Y446042D02*
Y441317D01*
X924668Y436002D02*
X929392D01*
X924668Y434034D02*
X929392D01*
X924668Y432065D02*
X929392D01*
X924668Y430097D02*
X929392D01*
X924668Y428128D02*
X929392D01*
X924668Y426160D02*
X929392D01*
X924668Y424191D02*
X929392D01*
X924668Y422223D02*
X929392D01*
X924668Y420254D02*
X929392D01*
X924668Y418286D02*
X929392D01*
X924668Y416317D02*
X929392D01*
X924668Y414349D02*
X929392D01*
X924668Y412380D02*
X929392D01*
X924668Y410412D02*
X929392D01*
X924668Y408443D02*
X929392D01*
X924668Y406475D02*
X929392D01*
X924668Y404506D02*
X929392D01*
X924668Y402538D02*
X929392D01*
X924668Y400569D02*
X929392D01*
X924668Y398601D02*
X929392D01*
X924668Y396632D02*
X929392D01*
X924668Y394664D02*
X929392D01*
X924668Y392695D02*
X929392D01*
X924668Y390727D02*
X929392D01*
X924668Y388758D02*
X929392D01*
X924668Y386790D02*
X929392D01*
X924668Y384821D02*
X929392D01*
X924668Y382853D02*
X929392D01*
X924668Y380884D02*
X929392D01*
X924668Y378916D02*
X929392D01*
X924668Y376947D02*
X929392D01*
X924668Y374979D02*
X929392D01*
X924668Y373010D02*
X929392D01*
X924668Y371042D02*
X929392D01*
X924668Y369073D02*
X929392D01*
X924668Y367105D02*
X929392D01*
X934707Y361790D02*
Y357065D01*
X936675Y361790D02*
Y357065D01*
X938644Y361790D02*
Y357065D01*
X940612Y361790D02*
Y357065D01*
X942581Y361790D02*
Y357065D01*
X944549Y361790D02*
Y357065D01*
X946518Y361790D02*
Y357065D01*
X948486Y361790D02*
Y357065D01*
X950455Y361790D02*
Y357065D01*
X952423Y361790D02*
Y357065D01*
X954392Y361790D02*
Y357065D01*
X956360Y361790D02*
Y357065D01*
X958329Y361790D02*
Y357065D01*
X960297Y361790D02*
Y357065D01*
X962266Y361790D02*
Y357065D01*
X964234Y361790D02*
Y357065D01*
X966203Y361790D02*
Y357065D01*
X968171Y361790D02*
Y357065D01*
X970140Y361790D02*
Y357065D01*
X972108Y361790D02*
Y357065D01*
X974077Y361790D02*
Y357065D01*
X976046Y361790D02*
Y357065D01*
X978014Y361790D02*
Y357065D01*
X979983Y361790D02*
Y357065D01*
X981951Y361790D02*
Y357065D01*
X983920Y361790D02*
Y357065D01*
X985888Y361790D02*
Y357065D01*
X987857Y361790D02*
Y357065D01*
X989825Y361790D02*
Y357065D01*
X991794Y361790D02*
Y357065D01*
X993762Y361790D02*
Y357065D01*
X995731Y361790D02*
Y357065D01*
X997699Y361790D02*
Y357065D01*
X999668Y361790D02*
Y357065D01*
X1001636Y361790D02*
Y357065D01*
X1003605Y361790D02*
Y357065D01*
X1008920Y367105D02*
X1013644D01*
X1008920Y369073D02*
X1013644D01*
X1008920Y371042D02*
X1013644D01*
X1008920Y373010D02*
X1013644D01*
X1008920Y374979D02*
X1013644D01*
X1008920Y376947D02*
X1013644D01*
X1008920Y378916D02*
X1013644D01*
X1008920Y380884D02*
X1013644D01*
X1008920Y382853D02*
X1013644D01*
X1008920Y384821D02*
X1013644D01*
X1008920Y386790D02*
X1013644D01*
X1008920Y388758D02*
X1013644D01*
X1008920Y390727D02*
X1013644D01*
X1008920Y392695D02*
X1013644D01*
X1008920Y394664D02*
X1013644D01*
X1008920Y396632D02*
X1013644D01*
X1008920Y398601D02*
X1013644D01*
X1008920Y400569D02*
X1013644D01*
X1008920Y402538D02*
X1013644D01*
X1008920Y404506D02*
X1013644D01*
X1008920Y406475D02*
X1013644D01*
X1008920Y408443D02*
X1013644D01*
X1008920Y410412D02*
X1013644D01*
X1008920Y412380D02*
X1013644D01*
X1008920Y414349D02*
X1013644D01*
X1008920Y416317D02*
X1013644D01*
X1008920Y418286D02*
X1013644D01*
X1008920Y420254D02*
X1013644D01*
X1008920Y422223D02*
X1013644D01*
X1008920Y424191D02*
X1013644D01*
X1008920Y426160D02*
X1013644D01*
X1008920Y428128D02*
X1013644D01*
X1008920Y430097D02*
X1013644D01*
X1008920Y432065D02*
X1013644D01*
X1008920Y434034D02*
X1013644D01*
X1008920Y436002D02*
X1013644D01*
X203283Y991287D02*
Y993846D01*
X205252Y991287D02*
Y993846D01*
X207220Y991287D02*
Y993846D01*
X212043Y996110D02*
X209484D01*
X212043Y998079D02*
X209484D01*
X212043Y1000047D02*
X209484D01*
X207220Y1002311D02*
Y1004870D01*
X205252Y1002311D02*
Y1004870D01*
X203283Y1002311D02*
Y1004870D01*
X201020Y1000047D02*
X198461D01*
X201020Y998079D02*
X198461D01*
X201020Y996110D02*
X198461D01*
X1028376Y192793D02*
X1030935D01*
X1028376Y190824D02*
X1030935D01*
X1028376Y188856D02*
X1030935D01*
X1033198Y184033D02*
Y186592D01*
X1035167Y184033D02*
Y186592D01*
X1037135Y184033D02*
Y186592D01*
X1039399Y188856D02*
X1041958D01*
X1039399Y190824D02*
X1041958D01*
X1039399Y192793D02*
X1041958D01*
X1037135Y195057D02*
Y197616D01*
X1035167Y195057D02*
Y197616D01*
X1033198Y195057D02*
Y197616D01*
X1075376Y192793D02*
X1077935D01*
X1075376Y190824D02*
X1077935D01*
X1075376Y188856D02*
X1077935D01*
X1080198Y184033D02*
Y186592D01*
X1082167Y184033D02*
Y186592D01*
X1084135Y184033D02*
Y186592D01*
X1086399Y188856D02*
X1088958D01*
X1086399Y190824D02*
X1088958D01*
X1086399Y192793D02*
X1088958D01*
X1084135Y195057D02*
Y197616D01*
X1082167Y195057D02*
Y197616D01*
X1080198Y195057D02*
Y197616D01*
G54D40*
X995249Y860132D02*
Y853439D01*
X997218Y860132D02*
Y853439D01*
X999186Y860132D02*
Y853439D01*
X1001155Y860132D02*
Y853439D01*
X1003123Y860132D02*
Y853439D01*
X1005092Y860132D02*
Y853439D01*
X1007060Y860132D02*
Y853439D01*
X1009029Y860132D02*
Y853439D01*
X1010997Y860132D02*
Y853439D01*
X1012966Y860132D02*
Y853439D01*
X1014934Y860132D02*
Y853439D01*
X1016903Y860132D02*
Y853439D01*
X1018871Y860132D02*
Y853439D01*
X1020840Y860132D02*
Y853439D01*
X1022808Y860132D02*
Y853439D01*
X1024777Y860132D02*
Y853439D01*
X1026745Y860132D02*
Y853439D01*
X1028714Y860132D02*
Y853439D01*
X1030682Y860132D02*
Y853439D01*
X1032651Y860132D02*
Y853439D01*
X1034619Y860132D02*
Y853439D01*
X1036588Y860132D02*
Y853439D01*
X1038556Y860132D02*
Y853439D01*
X1040525Y860132D02*
Y853439D01*
X1042493Y860132D02*
Y853439D01*
X1044462Y860132D02*
Y853439D01*
Y951746D02*
Y945053D01*
X1042493Y951746D02*
Y945053D01*
X1040525Y951746D02*
Y945053D01*
X1038556Y951746D02*
Y945053D01*
X1036588Y951746D02*
Y945053D01*
X1034619Y951746D02*
Y945053D01*
X1032651Y951746D02*
Y945053D01*
X1030682Y951746D02*
Y945053D01*
X1028714Y951746D02*
Y945053D01*
X1026745Y951746D02*
Y945053D01*
X1024777Y951746D02*
Y945053D01*
X1022808Y951746D02*
Y945053D01*
X1020840Y951746D02*
Y945053D01*
X1018871Y951746D02*
Y945053D01*
X1016903Y951746D02*
Y945053D01*
X1014934Y951746D02*
Y945053D01*
X1012966Y951746D02*
Y945053D01*
X1010997Y951746D02*
Y945053D01*
X1009029Y951746D02*
Y945053D01*
X1007060Y951746D02*
Y945053D01*
X1005092Y951746D02*
Y945053D01*
X1003123Y951746D02*
Y945053D01*
X1001155Y951746D02*
Y945053D01*
X999186Y951746D02*
Y945053D01*
X997218Y951746D02*
Y945053D01*
X995249Y951746D02*
Y945053D01*
X518076Y718864D02*
X515911D01*
X518076Y720832D02*
X515911D01*
X518076Y722801D02*
X515911D01*
X518076Y724769D02*
X515911D01*
X514238Y728608D02*
Y726443D01*
X512269Y728608D02*
Y726443D01*
X510301Y728608D02*
Y726443D01*
X508332Y728608D02*
Y726443D01*
X506659Y724769D02*
X504494D01*
X506659Y722801D02*
X504494D01*
X506659Y720832D02*
X504494D01*
X506659Y718864D02*
X504494D01*
X508332Y717191D02*
Y715025D01*
X510301Y717191D02*
Y715025D01*
X512269Y717191D02*
Y715025D01*
X514238Y717191D02*
Y715025D01*
X518076Y663746D02*
X515911D01*
X518076Y665714D02*
X515911D01*
X518076Y667683D02*
X515911D01*
X518076Y669651D02*
X515911D01*
X514238Y673490D02*
Y671324D01*
X512269Y673490D02*
Y671324D01*
X510301Y673490D02*
Y671324D01*
X508332Y673490D02*
Y671324D01*
X506659Y669651D02*
X504494D01*
X506659Y667683D02*
X504494D01*
X506659Y665714D02*
X504494D01*
X506659Y663746D02*
X504494D01*
X508332Y662072D02*
Y659907D01*
X510301Y662072D02*
Y659907D01*
X512269Y662072D02*
Y659907D01*
X514238Y662072D02*
Y659907D01*
G54D41*
X588949Y219083D02*
Y226918D01*
Y241682D02*
Y249517D01*
X590917Y219083D02*
Y226918D01*
Y241682D02*
Y249517D01*
X594854Y219083D02*
Y226918D01*
Y241682D02*
Y249517D01*
X596823Y219083D02*
Y226918D01*
Y241682D02*
Y249517D01*
X600760Y219083D02*
Y226918D01*
Y241682D02*
Y249517D01*
X602728Y219083D02*
Y226918D01*
Y241682D02*
Y249517D01*
X606665Y219083D02*
Y226918D01*
Y241682D02*
Y249517D01*
X608634Y219083D02*
Y226918D01*
Y241682D02*
Y249517D01*
X612571Y219083D02*
Y226918D01*
Y241682D02*
Y249517D01*
X614539Y219083D02*
Y226918D01*
Y241682D02*
Y249517D01*
X618476Y219083D02*
Y226918D01*
Y241682D02*
Y249517D01*
X620445Y219083D02*
Y226918D01*
Y241682D02*
Y249517D01*
X624382Y219083D02*
Y226918D01*
Y241682D02*
Y249517D01*
X626350Y219083D02*
Y226918D01*
Y241682D02*
Y249517D01*
X630287Y219083D02*
Y226918D01*
Y241682D02*
Y249517D01*
X632256Y219083D02*
Y226918D01*
Y241682D02*
Y249517D01*
X636193Y219083D02*
Y226918D01*
Y241682D02*
Y249517D01*
X638161Y219083D02*
Y226918D01*
Y241682D02*
Y249517D01*
X642098Y219083D02*
Y226918D01*
Y241682D02*
Y249517D01*
X644067Y219083D02*
Y226918D01*
Y241682D02*
Y249517D01*
X667689Y219083D02*
Y226918D01*
Y241682D02*
Y249517D01*
X669657Y219083D02*
Y226918D01*
Y241682D02*
Y249517D01*
X673594Y219083D02*
Y226918D01*
Y241682D02*
Y249517D01*
X675563Y219083D02*
Y226918D01*
Y241682D02*
Y249517D01*
X679500Y219083D02*
Y226918D01*
Y241682D02*
Y249517D01*
X681469Y219083D02*
Y226918D01*
Y241682D02*
Y249517D01*
X685406Y219083D02*
Y226918D01*
Y241682D02*
Y249517D01*
X687374Y219083D02*
Y226918D01*
Y241682D02*
Y249517D01*
X691311Y219083D02*
Y226918D01*
Y241682D02*
Y249517D01*
X693280Y219083D02*
Y226918D01*
Y241682D02*
Y249517D01*
X697217Y219083D02*
Y226918D01*
Y241682D02*
Y249517D01*
X699185Y219083D02*
Y226918D01*
Y241682D02*
Y249517D01*
X703122Y219083D02*
Y226918D01*
Y241682D02*
Y249517D01*
X705091Y219083D02*
Y226918D01*
Y241682D02*
Y249517D01*
X709028Y219083D02*
Y226918D01*
Y241682D02*
Y249517D01*
X710996Y219083D02*
Y226918D01*
Y241682D02*
Y249517D01*
X714933Y219083D02*
Y226918D01*
Y241682D02*
Y249517D01*
X716902Y219083D02*
Y226918D01*
Y241682D02*
Y249517D01*
X720839Y219083D02*
Y226918D01*
Y241682D02*
Y249517D01*
X722807Y219083D02*
Y226918D01*
Y241682D02*
Y249517D01*
G54D42*
X581587Y234300D02*
X589894D01*
X596587D02*
X613398D01*
X621587D02*
X638398D01*
X645071D02*
X653378D01*
X660346D02*
X668654D01*
X700327D02*
X717138D01*
X675327D02*
X692138D01*
X723831D02*
X732138D01*
G54D43*
X568618Y986890D02*
X570587D01*
X567618Y962390D02*
X569587D01*
X569118Y1011390D02*
X571087D01*
X569118Y1035890D02*
X571087D01*
X1050332Y260832D02*
Y258864D01*
X549118Y954890D02*
X551087D01*
X550118Y979390D02*
X552087D01*
X550618Y1028390D02*
X552587D01*
X550618Y1003890D02*
X552587D01*
X1065507Y164522D02*
Y166884D01*
Y174365D02*
Y176727D01*
X1058027Y174365D02*
Y176727D01*
G54D44*
X895340Y495439D02*
X898883D01*
X908332Y768273D02*
X904789D01*
X1256708Y615131D02*
X1253164D01*
X267191Y499179D02*
Y495635D01*
G54D45*
X725250Y1015987D02*
Y1005380D01*
X731156Y1015987D02*
Y1005380D01*
X737061Y1015987D02*
Y1005380D01*
X742967Y1015987D02*
Y1005380D01*
X748872Y1015987D02*
Y1005380D01*
X754778Y1015987D02*
Y1005380D01*
X760683Y1015987D02*
Y1005380D01*
X766589Y1015987D02*
Y1005380D01*
X772494Y1015987D02*
Y1005380D01*
X778400Y1015987D02*
Y1005380D01*
X784306Y1015987D02*
Y1005380D01*
X790211Y1015987D02*
Y1005380D01*
X796117Y1015987D02*
Y1005380D01*
X802022Y1015987D02*
Y1005380D01*
X807928Y1015987D02*
Y1005380D01*
X813833Y1015987D02*
Y1005380D01*
X819739Y1015987D02*
Y1005380D01*
X825644Y1015987D02*
Y1005380D01*
X831550Y1015987D02*
Y1005380D01*
X837455Y1015987D02*
Y1005380D01*
X843361Y1015987D02*
Y1005380D01*
X849266Y1015987D02*
Y1005380D01*
X855172Y1015987D02*
Y1005380D01*
X861077Y1015987D02*
Y1005380D01*
X866983Y1015987D02*
Y1005380D01*
X872888Y1015987D02*
Y1005380D01*
X878794Y1015987D02*
Y1005380D01*
X884699Y1015987D02*
Y1005380D01*
X890605Y1015987D02*
Y1005380D01*
X896510Y1015987D02*
Y1005380D01*
X902416Y1015987D02*
Y1005380D01*
X908321Y1015987D02*
Y1005380D01*
X914227Y1015987D02*
Y1005380D01*
X920132Y1015987D02*
Y1005380D01*
X926038Y1015987D02*
Y1005380D01*
X931943Y1015987D02*
Y1005380D01*
X937849Y1015987D02*
Y1005380D01*
X725250Y1041183D02*
Y1030577D01*
X731156Y1041183D02*
Y1030577D01*
X737061Y1041183D02*
Y1030577D01*
X742967Y1041183D02*
Y1030577D01*
X748872Y1041183D02*
Y1030577D01*
X754778Y1041183D02*
Y1030577D01*
X760683Y1041183D02*
Y1030577D01*
X766589Y1041183D02*
Y1030577D01*
X772494Y1041183D02*
Y1030577D01*
X778400Y1041183D02*
Y1030577D01*
X784306Y1041183D02*
Y1030577D01*
X790211Y1041183D02*
Y1030577D01*
X796117Y1041183D02*
Y1030577D01*
X802022Y1041183D02*
Y1030577D01*
X807928Y1041183D02*
Y1030577D01*
X813833Y1041183D02*
Y1030577D01*
X819739Y1041183D02*
Y1030577D01*
X825644Y1041183D02*
Y1030577D01*
X831550Y1041183D02*
Y1030577D01*
X837455Y1041183D02*
Y1030577D01*
X843361Y1041183D02*
Y1030577D01*
X849266Y1041183D02*
Y1030577D01*
X855172Y1041183D02*
Y1030577D01*
X861077Y1041183D02*
Y1030577D01*
X866983Y1041183D02*
Y1030577D01*
X872888Y1041183D02*
Y1030577D01*
X878794Y1041183D02*
Y1030577D01*
X884699Y1041183D02*
Y1030577D01*
X890605Y1041183D02*
Y1030577D01*
X896510Y1041183D02*
Y1030577D01*
X902416Y1041183D02*
Y1030577D01*
X908321Y1041183D02*
Y1030577D01*
X914227Y1041183D02*
Y1030577D01*
X920132Y1041183D02*
Y1030577D01*
X926038Y1041183D02*
Y1030577D01*
X931943Y1041183D02*
Y1030577D01*
X937849Y1041183D02*
Y1030577D01*
X727219Y1015987D02*
Y1005380D01*
X729187Y1015987D02*
Y1005380D01*
X733124Y1015987D02*
Y1005380D01*
X739030Y1015987D02*
Y1005380D01*
X744935Y1015987D02*
Y1005380D01*
X750841Y1015987D02*
Y1005380D01*
X756746Y1015987D02*
Y1005380D01*
X762652Y1015987D02*
Y1005380D01*
X768557Y1015987D02*
Y1005380D01*
X774463Y1015987D02*
Y1005380D01*
X780369Y1015987D02*
Y1005380D01*
X786274Y1015987D02*
Y1005380D01*
X792180Y1015987D02*
Y1005380D01*
X798085Y1015987D02*
Y1005380D01*
X803991Y1015987D02*
Y1005380D01*
X809896Y1015987D02*
Y1005380D01*
X815802Y1015987D02*
Y1005380D01*
X821707Y1015987D02*
Y1005380D01*
X827613Y1015987D02*
Y1005380D01*
X833518Y1015987D02*
Y1005380D01*
X839424Y1015987D02*
Y1005380D01*
X845329Y1015987D02*
Y1005380D01*
X851235Y1015987D02*
Y1005380D01*
X857140Y1015987D02*
Y1005380D01*
X863046Y1015987D02*
Y1005380D01*
X868951Y1015987D02*
Y1005380D01*
X874857Y1015987D02*
Y1005380D01*
X880762Y1015987D02*
Y1005380D01*
X886668Y1015987D02*
Y1005380D01*
X892573Y1015987D02*
Y1005380D01*
X898479Y1015987D02*
Y1005380D01*
X904384Y1015987D02*
Y1005380D01*
X910290Y1015987D02*
Y1005380D01*
X916195Y1015987D02*
Y1005380D01*
X922101Y1015987D02*
Y1005380D01*
X928006Y1015987D02*
Y1005380D01*
X933912Y1015987D02*
Y1005380D01*
X735093Y1015987D02*
Y1005380D01*
X740998Y1015987D02*
Y1005380D01*
X746904Y1015987D02*
Y1005380D01*
X752809Y1015987D02*
Y1005380D01*
X758715Y1015987D02*
Y1005380D01*
X764620Y1015987D02*
Y1005380D01*
X770526Y1015987D02*
Y1005380D01*
X776431Y1015987D02*
Y1005380D01*
X782337Y1015987D02*
Y1005380D01*
X788243Y1015987D02*
Y1005380D01*
X794148Y1015987D02*
Y1005380D01*
X800054Y1015987D02*
Y1005380D01*
X805959Y1015987D02*
Y1005380D01*
X811865Y1015987D02*
Y1005380D01*
X817770Y1015987D02*
Y1005380D01*
X823676Y1015987D02*
Y1005380D01*
X829581Y1015987D02*
Y1005380D01*
X835487Y1015987D02*
Y1005380D01*
X841392Y1015987D02*
Y1005380D01*
X847298Y1015987D02*
Y1005380D01*
X853203Y1015987D02*
Y1005380D01*
X859109Y1015987D02*
Y1005380D01*
X865014Y1015987D02*
Y1005380D01*
X870920Y1015987D02*
Y1005380D01*
X876825Y1015987D02*
Y1005380D01*
X882731Y1015987D02*
Y1005380D01*
X888636Y1015987D02*
Y1005380D01*
X894542Y1015987D02*
Y1005380D01*
X900447Y1015987D02*
Y1005380D01*
X906353Y1015987D02*
Y1005380D01*
X912258Y1015987D02*
Y1005380D01*
X918164Y1015987D02*
Y1005380D01*
X924069Y1015987D02*
Y1005380D01*
X929975Y1015987D02*
Y1005380D01*
X935880Y1015987D02*
Y1005380D01*
G54D46*
X1254100Y515320D02*
X1255872D01*
X1254100Y513352D02*
X1255872D01*
X1254100Y511383D02*
X1255872D01*
X1254100Y509415D02*
X1255872D01*
X1259612D02*
X1261383D01*
X1259612Y511383D02*
X1261383D01*
X1259612Y513352D02*
X1261383D01*
X1259612Y515320D02*
X1261383D01*
X1254100Y504691D02*
X1255872D01*
X1254100Y502722D02*
X1255872D01*
X1254100Y500754D02*
X1255872D01*
X1254100Y498785D02*
X1255872D01*
X1259612D02*
X1261383D01*
X1259612Y500754D02*
X1261383D01*
X1259612Y502722D02*
X1261383D01*
X1259612Y504691D02*
X1261383D01*
X1254100Y492880D02*
X1255872D01*
X1254100Y490911D02*
X1255872D01*
X1254100Y488943D02*
X1255872D01*
X1254100Y486974D02*
X1255872D01*
X1259612D02*
X1261383D01*
X1259612Y488943D02*
X1261383D01*
X1259612Y490911D02*
X1261383D01*
X1259612Y492880D02*
X1261383D01*
X1254100Y457446D02*
X1255872D01*
X1254100Y455478D02*
X1255872D01*
X1254100Y453509D02*
X1255872D01*
X1254100Y451541D02*
X1255872D01*
X1259612D02*
X1261383D01*
X1259612Y453509D02*
X1261383D01*
X1259612Y455478D02*
X1261383D01*
X1259612Y457446D02*
X1261383D01*
X1254100Y446817D02*
X1255872D01*
X1254100Y444848D02*
X1255872D01*
X1254100Y442880D02*
X1255872D01*
X1254100Y440911D02*
X1255872D01*
X1259612D02*
X1261383D01*
X1259612Y442880D02*
X1261383D01*
X1259612Y444848D02*
X1261383D01*
X1259612Y446817D02*
X1261383D01*
X1254100Y436974D02*
X1255872D01*
X1254100Y435006D02*
X1255872D01*
X1254100Y433037D02*
X1255872D01*
X1254100Y431069D02*
X1255872D01*
X1259612D02*
X1261383D01*
X1259612Y433037D02*
X1261383D01*
X1259612Y435006D02*
X1261383D01*
X1259612Y436974D02*
X1261383D01*
X1254100Y532643D02*
X1255872D01*
X1254100Y530675D02*
X1255872D01*
X1254100Y528706D02*
X1255872D01*
X1254100Y526738D02*
X1255872D01*
X1259612D02*
X1261383D01*
X1259612Y528706D02*
X1261383D01*
X1259612Y530675D02*
X1261383D01*
X1259612Y532643D02*
X1261383D01*
X315714Y420045D02*
X313943D01*
X315714Y422013D02*
X313943D01*
X315714Y423982D02*
X313943D01*
X315714Y425950D02*
X313943D01*
X310202D02*
X308431D01*
X310202Y423982D02*
X308431D01*
X310202Y422013D02*
X308431D01*
X310202Y420045D02*
X308431D01*
X315714Y430675D02*
X313943D01*
X315714Y432643D02*
X313943D01*
X315714Y434612D02*
X313943D01*
X315714Y436580D02*
X313943D01*
X310202D02*
X308431D01*
X310202Y434612D02*
X308431D01*
X310202Y432643D02*
X308431D01*
X310202Y430675D02*
X308431D01*
X315714Y443667D02*
X313943D01*
X315714Y445635D02*
X313943D01*
X315714Y447604D02*
X313943D01*
X315714Y449572D02*
X313943D01*
X310202D02*
X308431D01*
X310202Y447604D02*
X308431D01*
X310202Y445635D02*
X308431D01*
X310202Y443667D02*
X308431D01*
X315714Y456659D02*
X313943D01*
X315714Y458628D02*
X313943D01*
X315714Y460596D02*
X313943D01*
X315714Y462565D02*
X313943D01*
X310202D02*
X308431D01*
X310202Y460596D02*
X308431D01*
X310202Y458628D02*
X308431D01*
X310202Y456659D02*
X308431D01*
X315714Y489336D02*
X313943D01*
X315714Y491305D02*
X313943D01*
X315714Y493273D02*
X313943D01*
X315714Y495242D02*
X313943D01*
X310202D02*
X308431D01*
X310202Y493273D02*
X308431D01*
X310202Y491305D02*
X308431D01*
X310202Y489336D02*
X308431D01*
X315714Y509021D02*
X313943D01*
X315714Y510990D02*
X313943D01*
X315714Y512958D02*
X313943D01*
X315714Y514927D02*
X313943D01*
X310202D02*
X308431D01*
X310202Y512958D02*
X308431D01*
X310202Y510990D02*
X308431D01*
X310202Y509021D02*
X308431D01*
X315714Y527919D02*
X313943D01*
X315714Y529887D02*
X313943D01*
X315714Y531856D02*
X313943D01*
X315714Y533824D02*
X313943D01*
X310202D02*
X308431D01*
X310202Y531856D02*
X308431D01*
X310202Y529887D02*
X308431D01*
X310202Y527919D02*
X308431D01*
G54D47*
X1059612Y461777D02*
X1061383D01*
X1059612Y450360D02*
X1061383D01*
X984415Y493667D02*
X986187D01*
X984415Y482250D02*
X986187D01*
X1076935Y461383D02*
X1078706D01*
X1076935Y449966D02*
X1078706D01*
X1159809Y680675D02*
X1158037D01*
X1159809Y692092D02*
X1158037D01*
X1144061Y680675D02*
X1142289D01*
X1144061Y692092D02*
X1142289D01*
X999376Y493667D02*
X1001147D01*
X999376Y482250D02*
X1001147D01*
X1092683Y461383D02*
X1094454D01*
X1092683Y449966D02*
X1094454D01*
X1037958Y461777D02*
X1039730D01*
X1037958Y450360D02*
X1039730D01*
X1245965Y139173D02*
X1247736D01*
X1245965Y127756D02*
X1247736D01*
X962269Y258332D02*
Y260104D01*
X973687Y258332D02*
Y260104D01*
X962269Y226836D02*
Y228608D01*
X973687Y226836D02*
Y228608D01*
X604789Y204002D02*
Y205773D01*
X616206Y204002D02*
Y205773D01*
X430773Y783923D02*
Y785694D01*
X442191Y783923D02*
Y785694D01*
X308726Y339041D02*
Y340813D01*
X320143Y339041D02*
Y340813D01*
X1157151Y264238D02*
Y266009D01*
X1168569Y264238D02*
Y266009D01*
X1163057Y785891D02*
Y787663D01*
X1174474Y785891D02*
Y787663D01*
X288324Y653608D02*
Y655380D01*
X299742Y653608D02*
Y655380D01*
X288324Y689041D02*
Y690813D01*
X299742Y689041D02*
Y690813D01*
X308726Y323293D02*
Y325065D01*
X320143Y323293D02*
Y325065D01*
X288324Y671324D02*
Y673096D01*
X299742Y671324D02*
Y673096D01*
X430773Y799671D02*
Y801443D01*
X442191Y799671D02*
Y801443D01*
X308726Y386285D02*
Y388057D01*
X320143Y386285D02*
Y388057D01*
X900163Y351541D02*
X901935D01*
X900163Y340124D02*
X901935D01*
X835202Y774769D02*
X836974D01*
X835202Y763352D02*
X836974D01*
X308726Y370537D02*
Y372309D01*
X320143Y370537D02*
Y372309D01*
X868667Y351226D02*
X870439D01*
X868667Y339809D02*
X870439D01*
X494651Y881069D02*
X496423D01*
X494651Y869651D02*
X496423D01*
X962269Y242584D02*
Y244356D01*
X973687Y242584D02*
Y244356D01*
X1157151Y311482D02*
Y313254D01*
X1168569Y311482D02*
Y313254D01*
X829297Y432250D02*
X831069D01*
X829297Y420832D02*
X831069D01*
X847013Y432250D02*
X848785D01*
X847013Y420832D02*
X848785D01*
X809612Y774769D02*
X811383D01*
X809612Y763352D02*
X811383D01*
X308726Y354789D02*
Y356561D01*
X320143Y354789D02*
Y356561D01*
X884415Y351541D02*
X886187D01*
X884415Y340124D02*
X886187D01*
X1163057Y854789D02*
Y856561D01*
X1174474Y854789D02*
Y856561D01*
X1163057Y839041D02*
Y840813D01*
X1174474Y839041D02*
Y840813D01*
G54D48*
X1249277Y395832D02*
X1249671D01*
X1249277Y371423D02*
X1249671D01*
X564828Y853903D02*
Y853509D01*
X540419Y853903D02*
Y853509D01*
X667191Y853903D02*
Y853509D01*
X642781Y853903D02*
Y853509D01*
X614041Y853903D02*
Y853509D01*
X589631Y853903D02*
Y853509D01*
X137513Y666648D02*
Y666254D01*
X113103Y666648D02*
Y666254D01*
X288450Y188155D02*
Y188549D01*
X312860Y188155D02*
Y188549D01*
X285906Y152094D02*
X286299D01*
X285906Y127685D02*
X286299D01*
X241906Y152094D02*
X242299D01*
X241906Y127685D02*
X242299D01*
X263906Y152094D02*
X264299D01*
X263906Y127685D02*
X264299D01*
X192299Y391685D02*
X191906D01*
X192299Y416094D02*
X191906D01*
X152307Y593687D02*
Y593293D01*
X127898Y593687D02*
Y593293D01*
X183006Y659787D02*
Y659393D01*
X158596Y659787D02*
Y659393D01*
X296521Y293076D02*
X296915D01*
X296521Y268667D02*
X296915D01*
X320143Y293076D02*
X320537D01*
X320143Y268667D02*
X320537D01*
X1093898Y988583D02*
X1094291D01*
X1093898Y964173D02*
X1094291D01*
G54D49*
X1106659Y324769D02*
Y328706D01*
X1109218Y324769D02*
Y328706D01*
X1111777Y324769D02*
Y328706D01*
X1114336Y324769D02*
Y328706D01*
X1116895Y324769D02*
Y328706D01*
X1119454Y324769D02*
Y328706D01*
X1122013Y324769D02*
Y328706D01*
X1124572Y324769D02*
Y328706D01*
Y347998D02*
Y351935D01*
X1122013Y347998D02*
Y351935D01*
X1119454Y347998D02*
Y351935D01*
X1116895Y347998D02*
Y351935D01*
X1114336Y347998D02*
Y351935D01*
X1111777Y347998D02*
Y351935D01*
X1109218Y347998D02*
Y351935D01*
X1106659Y347998D02*
Y351935D01*
G54D50*
X959612Y492880D02*
X960596D01*
X959612Y486187D02*
X960596D01*
X971423Y492880D02*
X972407D01*
X971423Y486187D02*
X972407D01*
X1134710Y623883D02*
Y622899D01*
X1128017Y623883D02*
Y622899D01*
Y638647D02*
Y639631D01*
X1134710Y638647D02*
Y639631D01*
X257764Y907984D02*
X256189D01*
X257764Y929638D02*
X256189D01*
X244378D02*
X242803D01*
X244378Y907984D02*
X242803D01*
G54D51*
X665714Y889927D02*
X663155D01*
X665714Y892486D02*
X663155D01*
X665714Y895045D02*
X663155D01*
X665714Y897604D02*
X663155D01*
X665714Y900163D02*
X663155D01*
X660104Y905773D02*
Y903214D01*
X657545Y905773D02*
Y903214D01*
X654986Y905773D02*
Y903214D01*
X652427Y905773D02*
Y903214D01*
X649868Y905773D02*
Y903214D01*
X646817Y900163D02*
X644257D01*
X646817Y897604D02*
X644257D01*
X646817Y895045D02*
X644257D01*
X646817Y892486D02*
X644257D01*
X646817Y889927D02*
X644257D01*
X649868Y886876D02*
Y884317D01*
X652427Y886876D02*
Y884317D01*
X654986Y886876D02*
Y884317D01*
X657545Y886876D02*
Y884317D01*
X660104Y886876D02*
Y884317D01*
X614533Y889927D02*
X611974D01*
X614533Y892486D02*
X611974D01*
X614533Y895045D02*
X611974D01*
X614533Y897604D02*
X611974D01*
X614533Y900163D02*
X611974D01*
X608923Y905773D02*
Y903214D01*
X606364Y905773D02*
Y903214D01*
X603805Y905773D02*
Y903214D01*
X601246Y905773D02*
Y903214D01*
X598687Y905773D02*
Y903214D01*
X595635Y900163D02*
X593076D01*
X595635Y897604D02*
X593076D01*
X595635Y895045D02*
X593076D01*
X595635Y892486D02*
X593076D01*
X595635Y889927D02*
X593076D01*
X598687Y886876D02*
Y884317D01*
X601246Y886876D02*
Y884317D01*
X603805Y886876D02*
Y884317D01*
X606364Y886876D02*
Y884317D01*
X608923Y886876D02*
Y884317D01*
X563352Y889927D02*
X560793D01*
X563352Y892486D02*
X560793D01*
X563352Y895045D02*
X560793D01*
X563352Y897604D02*
X560793D01*
X563352Y900163D02*
X560793D01*
X557742Y905773D02*
Y903214D01*
X555183Y905773D02*
Y903214D01*
X552624Y905773D02*
Y903214D01*
X550065Y905773D02*
Y903214D01*
X547506Y905773D02*
Y903214D01*
X544454Y900163D02*
X541895D01*
X544454Y897604D02*
X541895D01*
X544454Y895045D02*
X541895D01*
X544454Y892486D02*
X541895D01*
X544454Y889927D02*
X541895D01*
X547506Y886876D02*
Y884317D01*
X550065Y886876D02*
Y884317D01*
X552624Y886876D02*
Y884317D01*
X555183Y886876D02*
Y884317D01*
X557742Y886876D02*
Y884317D01*
X133220Y642618D02*
Y640059D01*
X130661Y642618D02*
Y640059D01*
X128102Y642618D02*
Y640059D01*
X125543Y642618D02*
Y640059D01*
X122984Y642618D02*
Y640059D01*
X117374Y637008D02*
X119933D01*
X117374Y634449D02*
X119933D01*
X117374Y631890D02*
X119933D01*
X117374Y629331D02*
X119933D01*
X117374Y626772D02*
X119933D01*
X122984Y623720D02*
Y621161D01*
X125543Y623720D02*
Y621161D01*
X128102Y623720D02*
Y621161D01*
X130661Y623720D02*
Y621161D01*
X133220Y623720D02*
Y621161D01*
X136272Y626772D02*
X138831D01*
X136272Y629331D02*
X138831D01*
X136272Y631890D02*
X138831D01*
X136272Y634449D02*
X138831D01*
X136272Y637008D02*
X138831D01*
G54D52*
X654986Y895045D03*
X603805D03*
X552624D03*
X128102Y631890D03*
G54D53*
X1269640Y952362D02*
X1272740D01*
X1291040D02*
X1294140D01*
X1269640Y962362D02*
X1272740D01*
X1291040D02*
X1294140D01*
X1269640Y972362D02*
X1272740D01*
X1291040D02*
X1294140D01*
X1269640Y982362D02*
X1272740D01*
X1291040D02*
X1294140D01*
X1269640Y992362D02*
X1272740D01*
X1291040D02*
X1294140D01*
G54D54*
X918076Y349376D02*
X919454D01*
X918076Y342289D02*
X919454D01*
X202465Y892469D02*
Y891091D01*
X195378Y892469D02*
Y891091D01*
X531659Y889533D02*
X530281D01*
X531659Y896620D02*
X530281D01*
X634021Y889533D02*
X632643D01*
X634021Y896620D02*
X632643D01*
X582840Y889533D02*
X581462D01*
X582840Y896620D02*
X581462D01*
X190025Y846521D02*
Y845143D01*
X182939Y846521D02*
Y845143D01*
X268765Y320931D02*
Y319553D01*
X261679Y320931D02*
Y319553D01*
G54D55*
X891600Y516403D02*
Y521718D01*
X902624Y516403D02*
Y521718D01*
X1247899Y561679D02*
Y566994D01*
X1258923Y561679D02*
Y566994D01*
X1247899Y547899D02*
Y553214D01*
X1258923Y547899D02*
Y553214D01*
X294750Y422112D02*
Y416797D01*
X283726Y422112D02*
Y416797D01*
X296324Y468569D02*
Y463254D01*
X285301Y468569D02*
Y463254D01*
X296324Y482348D02*
Y477033D01*
X285301Y482348D02*
Y477033D01*
X901443Y709317D02*
Y714631D01*
X912466Y709317D02*
Y714631D01*
X901443Y723096D02*
Y728411D01*
X912466Y723096D02*
Y728411D01*
X901443Y736876D02*
Y742191D01*
X912466Y736876D02*
Y742191D01*
X606550Y935104D02*
Y929789D01*
X595527Y935104D02*
Y929789D01*
X115191Y607832D02*
Y613147D01*
X126214Y607832D02*
Y613147D01*
X191994Y783923D02*
Y778608D01*
X180970Y783923D02*
Y778608D01*
X135957Y413748D02*
X130642D01*
X135957Y424772D02*
X130642D01*
X122339Y688390D02*
Y683075D01*
X111315Y688390D02*
Y683075D01*
X660498Y876049D02*
Y870734D01*
X649474Y876049D02*
Y870734D01*
X609317Y876049D02*
Y870734D01*
X598293Y876049D02*
Y870734D01*
X558135Y876049D02*
Y870734D01*
X547112Y876049D02*
Y870734D01*
X125488Y383665D02*
Y378350D01*
X114465Y383665D02*
Y378350D01*
X250745Y181302D02*
X256060D01*
X250745Y170278D02*
X256060D01*
X270545Y181302D02*
X275860D01*
X270545Y170278D02*
X275860D01*
X213783Y394929D02*
X208469D01*
X213783Y405953D02*
X208469D01*
X176528Y580432D02*
Y585747D01*
X187551Y580432D02*
Y585747D01*
X891600Y530183D02*
Y535498D01*
X902624Y530183D02*
Y535498D01*
X1253805Y577427D02*
Y582742D01*
X1264828Y577427D02*
Y582742D01*
X862958Y432053D02*
X868273D01*
X862958Y421029D02*
X868273D01*
X657378Y935104D02*
Y929789D01*
X646355Y935104D02*
Y929789D01*
X556443Y935104D02*
Y929789D01*
X545419Y935104D02*
Y929789D01*
X167882Y695335D02*
Y690020D01*
X156858Y695335D02*
Y690020D01*
X167882Y681335D02*
Y676020D01*
X156858Y681335D02*
Y676020D01*
X167882Y709335D02*
Y704020D01*
X156858Y709335D02*
Y704020D01*
X122339Y730390D02*
Y725075D01*
X111315Y730390D02*
Y725075D01*
X122339Y716290D02*
Y710975D01*
X111315Y716290D02*
Y710975D01*
X122339Y702390D02*
Y697075D01*
X111315Y702390D02*
Y697075D01*
X296324Y523293D02*
Y517978D01*
X285301Y523293D02*
Y517978D01*
X296718Y443372D02*
Y438057D01*
X285694Y443372D02*
Y438057D01*
G54D56*
X1037466Y269651D02*
Y267683D01*
X1034907Y269651D02*
Y267683D01*
X1032348Y269651D02*
Y267683D01*
Y260990D02*
Y259021D01*
X1037466Y260990D02*
Y259021D01*
X902506Y421817D02*
Y419848D01*
X899946Y421817D02*
Y419848D01*
X897387Y421817D02*
Y419848D01*
Y413155D02*
Y411187D01*
X902506Y413155D02*
Y411187D01*
X342743Y914975D02*
Y916943D01*
X345302Y914975D02*
Y916943D01*
X347861Y914975D02*
Y916943D01*
Y923636D02*
Y925605D01*
X342743Y923636D02*
Y925605D01*
X447150Y926622D02*
X449118D01*
X447150Y924063D02*
X449118D01*
X447150Y921504D02*
X449118D01*
X455811D02*
X457780D01*
X455811Y926622D02*
X457780D01*
G54D57*
X1255516Y978017D02*
Y973096D01*
X1252957Y978017D02*
Y973096D01*
X1250398Y978017D02*
Y973096D01*
X1247839Y978017D02*
Y973096D01*
X1245280Y978017D02*
Y973096D01*
X1242720Y978017D02*
Y973096D01*
X1240161Y978017D02*
Y973096D01*
X1237602Y978017D02*
Y973096D01*
X1235043Y978017D02*
Y973096D01*
X1232484Y978017D02*
Y973096D01*
Y950852D02*
Y945931D01*
X1235043Y950852D02*
Y945931D01*
X1237602Y950852D02*
Y945931D01*
X1240161Y950852D02*
Y945931D01*
X1242720Y950852D02*
Y945931D01*
X1245280Y950852D02*
Y945931D01*
X1247839Y950852D02*
Y945931D01*
X1250398Y950852D02*
Y945931D01*
X1252957Y950852D02*
Y945931D01*
X1255516Y950852D02*
Y945931D01*
X1219651Y978017D02*
Y973096D01*
X1217092Y978017D02*
Y973096D01*
X1214533Y978017D02*
Y973096D01*
X1211974Y978017D02*
Y973096D01*
X1209415Y978017D02*
Y973096D01*
X1206856Y978017D02*
Y973096D01*
X1204297Y978017D02*
Y973096D01*
X1201738Y978017D02*
Y973096D01*
X1199179Y978017D02*
Y973096D01*
X1196620Y978017D02*
Y973096D01*
Y950852D02*
Y945931D01*
X1199179Y950852D02*
Y945931D01*
X1201738Y950852D02*
Y945931D01*
X1204297Y950852D02*
Y945931D01*
X1206856Y950852D02*
Y945931D01*
X1209415Y950852D02*
Y945931D01*
X1211974Y950852D02*
Y945931D01*
X1214533Y950852D02*
Y945931D01*
X1217092Y950852D02*
Y945931D01*
X1219651Y950852D02*
Y945931D01*
X810498Y534809D03*
X814435D03*
X818372D03*
X822309D03*
X826246D03*
X830183D03*
X834120D03*
X838057D03*
X841994D03*
X845931D03*
X849868D03*
X810498Y530872D03*
X814435D03*
X818372D03*
X822309D03*
X826246D03*
X830183D03*
X834120D03*
X838057D03*
X841994D03*
X845931D03*
X849868D03*
X810498Y526935D03*
X814435D03*
X818372D03*
X822309D03*
X826246D03*
X830183D03*
X834120D03*
X838057D03*
X841994D03*
X845931D03*
X849868D03*
X810498Y522998D03*
X814435D03*
X818372D03*
X822309D03*
X826246D03*
X830183D03*
X834120D03*
X838057D03*
X841994D03*
X845931D03*
X849868D03*
X810498Y519061D03*
X814435D03*
X818372D03*
X822309D03*
X826246D03*
X830183D03*
X834120D03*
X838057D03*
X841994D03*
X845931D03*
X849868D03*
X810498Y515124D03*
X814435D03*
X818372D03*
X822309D03*
X826246D03*
X830183D03*
X834120D03*
X838057D03*
X841994D03*
X845931D03*
X849868D03*
X810498Y511187D03*
X814435D03*
X818372D03*
X822309D03*
X826246D03*
X830183D03*
X834120D03*
X838057D03*
X841994D03*
X845931D03*
X849868D03*
X810498Y507250D03*
X814435D03*
X818372D03*
X822309D03*
X826246D03*
X830183D03*
X834120D03*
X838057D03*
X841994D03*
X845931D03*
X849868D03*
X810498Y503313D03*
X814435D03*
X818372D03*
X822309D03*
X826246D03*
X830183D03*
X834120D03*
X838057D03*
X841994D03*
X845931D03*
X849868D03*
X810498Y499376D03*
X814435D03*
X818372D03*
X822309D03*
X826246D03*
X830183D03*
X834120D03*
X838057D03*
X841994D03*
X845931D03*
X849868D03*
X810498Y495439D03*
X814435D03*
X818372D03*
X822309D03*
X826246D03*
X830183D03*
X834120D03*
X838057D03*
X841994D03*
X845931D03*
X849868D03*
X810498Y491502D03*
X814435D03*
X818372D03*
X822309D03*
X826246D03*
X830183D03*
X834120D03*
X838057D03*
X841994D03*
X845931D03*
X849868D03*
X810498Y487565D03*
X814435D03*
X818372D03*
X822309D03*
X826246D03*
X830183D03*
X834120D03*
X838057D03*
X841994D03*
X845931D03*
X849868D03*
X810498Y483628D03*
X814435D03*
X818372D03*
X822309D03*
X826246D03*
X830183D03*
X834120D03*
X838057D03*
X841994D03*
X845931D03*
X849868D03*
X810498Y479691D03*
X814435D03*
X818372D03*
X822309D03*
X826246D03*
X830183D03*
X834120D03*
X838057D03*
X841994D03*
X845931D03*
X849868D03*
X810498Y713943D03*
X814435D03*
X818372D03*
X822309D03*
X826246D03*
X830183D03*
X834120D03*
X838057D03*
X841994D03*
X845931D03*
X849868D03*
X810498Y710006D03*
X814435D03*
X818372D03*
X822309D03*
X826246D03*
X830183D03*
X834120D03*
X838057D03*
X841994D03*
X845931D03*
X849868D03*
X810498Y706069D03*
X814435D03*
X818372D03*
X822309D03*
X826246D03*
X830183D03*
X834120D03*
X838057D03*
X841994D03*
X845931D03*
X849868D03*
X810498Y702131D03*
X814435D03*
X818372D03*
X822309D03*
X826246D03*
X830183D03*
X834120D03*
X838057D03*
X841994D03*
X845931D03*
X849868D03*
X810498Y698194D03*
X814435D03*
X818372D03*
X822309D03*
X826246D03*
X830183D03*
X834120D03*
X838057D03*
X841994D03*
X845931D03*
X849868D03*
X810498Y694257D03*
X814435D03*
X818372D03*
X822309D03*
X826246D03*
X830183D03*
X834120D03*
X838057D03*
X841994D03*
X845931D03*
X849868D03*
X810498Y690320D03*
X814435D03*
X818372D03*
X822309D03*
X826246D03*
X830183D03*
X834120D03*
X838057D03*
X841994D03*
X845931D03*
X849868D03*
X810498Y686383D03*
X814435D03*
X818372D03*
X822309D03*
X826246D03*
X830183D03*
X834120D03*
X838057D03*
X841994D03*
X845931D03*
X849868D03*
X810498Y682446D03*
X814435D03*
X818372D03*
X822309D03*
X826246D03*
X830183D03*
X834120D03*
X838057D03*
X841994D03*
X845931D03*
X849868D03*
X810498Y678509D03*
X814435D03*
X818372D03*
X822309D03*
X826246D03*
X830183D03*
X834120D03*
X838057D03*
X841994D03*
X845931D03*
X849868D03*
X810498Y674572D03*
X814435D03*
X818372D03*
X822309D03*
X826246D03*
X830183D03*
X834120D03*
X838057D03*
X841994D03*
X845931D03*
X849868D03*
X810498Y670635D03*
X814435D03*
X818372D03*
X822309D03*
X826246D03*
X830183D03*
X834120D03*
X838057D03*
X841994D03*
X845931D03*
X849868D03*
X810498Y666698D03*
X814435D03*
X818372D03*
X822309D03*
X826246D03*
X830183D03*
X834120D03*
X838057D03*
X841994D03*
X845931D03*
X849868D03*
X810498Y662761D03*
X814435D03*
X818372D03*
X822309D03*
X826246D03*
X830183D03*
X834120D03*
X838057D03*
X841994D03*
X845931D03*
X849868D03*
X810498Y658824D03*
X814435D03*
X818372D03*
X822309D03*
X826246D03*
X830183D03*
X834120D03*
X838057D03*
X841994D03*
X845931D03*
X849868D03*
X279002Y853706D03*
Y849769D03*
Y845832D03*
Y841895D03*
Y837958D03*
Y834021D03*
Y830084D03*
Y826147D03*
Y822210D03*
Y818273D03*
Y814336D03*
Y810399D03*
Y806462D03*
Y802525D03*
Y798588D03*
Y794651D03*
X275065Y853706D03*
Y849769D03*
Y845832D03*
Y841895D03*
Y837958D03*
Y834021D03*
Y830084D03*
Y826147D03*
Y822210D03*
Y818273D03*
Y814336D03*
Y810399D03*
Y806462D03*
Y802525D03*
Y798588D03*
Y794651D03*
X271128Y853706D03*
Y849769D03*
Y845832D03*
Y841895D03*
Y837958D03*
Y834021D03*
Y830084D03*
Y826147D03*
Y822210D03*
Y818273D03*
Y814336D03*
Y810399D03*
Y806462D03*
Y802525D03*
Y798588D03*
Y794651D03*
X267191Y853706D03*
Y849769D03*
Y845832D03*
Y841895D03*
Y837958D03*
Y834021D03*
Y830084D03*
Y826147D03*
Y822210D03*
Y818273D03*
Y814336D03*
Y810399D03*
Y806462D03*
Y802525D03*
Y798588D03*
Y794651D03*
X263254Y853706D03*
Y849769D03*
Y845832D03*
Y841895D03*
Y837958D03*
Y834021D03*
Y830084D03*
Y826147D03*
Y822210D03*
Y818273D03*
Y814336D03*
Y810399D03*
Y806462D03*
Y802525D03*
Y798588D03*
Y794651D03*
X259317Y853706D03*
Y849769D03*
Y845832D03*
Y841895D03*
Y837958D03*
Y834021D03*
Y830084D03*
Y826147D03*
Y822210D03*
Y818273D03*
Y814336D03*
Y810399D03*
Y806462D03*
Y802525D03*
Y798588D03*
Y794651D03*
X255380Y853706D03*
Y849769D03*
Y845832D03*
Y841895D03*
Y837958D03*
Y834021D03*
Y830084D03*
Y826147D03*
Y822210D03*
Y818273D03*
Y814336D03*
Y810399D03*
Y806462D03*
Y802525D03*
Y798588D03*
Y794651D03*
X251443Y853706D03*
Y849769D03*
Y845832D03*
Y841895D03*
Y837958D03*
Y834021D03*
Y830084D03*
Y826147D03*
Y822210D03*
Y818273D03*
Y814336D03*
Y810399D03*
Y806462D03*
Y802525D03*
Y798588D03*
Y794651D03*
X247506Y853706D03*
Y849769D03*
Y845832D03*
Y841895D03*
Y837958D03*
Y834021D03*
Y830084D03*
Y826147D03*
Y822210D03*
Y818273D03*
Y814336D03*
Y810399D03*
Y806462D03*
Y802525D03*
Y798588D03*
Y794651D03*
X243569Y853706D03*
Y849769D03*
Y845832D03*
Y841895D03*
Y837958D03*
Y834021D03*
Y830084D03*
Y826147D03*
Y822210D03*
Y818273D03*
Y814336D03*
Y810399D03*
Y806462D03*
Y802525D03*
Y798588D03*
Y794651D03*
X239631Y853706D03*
Y849769D03*
Y845832D03*
Y841895D03*
Y837958D03*
Y834021D03*
Y830084D03*
Y826147D03*
Y822210D03*
Y818273D03*
Y814336D03*
Y810399D03*
Y806462D03*
Y802525D03*
Y798588D03*
Y794651D03*
X235694Y853706D03*
Y849769D03*
Y845832D03*
Y841895D03*
Y837958D03*
Y834021D03*
Y830084D03*
Y826147D03*
Y822210D03*
Y818273D03*
Y814336D03*
Y810399D03*
Y806462D03*
Y802525D03*
Y798588D03*
Y794651D03*
X231757Y853706D03*
Y849769D03*
Y845832D03*
Y841895D03*
Y837958D03*
Y834021D03*
Y830084D03*
Y826147D03*
Y822210D03*
Y818273D03*
Y814336D03*
Y810399D03*
Y806462D03*
Y802525D03*
Y798588D03*
Y794651D03*
X227820Y853706D03*
Y849769D03*
Y845832D03*
Y841895D03*
Y837958D03*
Y834021D03*
Y830084D03*
Y826147D03*
Y822210D03*
Y818273D03*
Y814336D03*
Y810399D03*
Y806462D03*
Y802525D03*
Y798588D03*
Y794651D03*
X223883Y853706D03*
Y849769D03*
Y845832D03*
Y841895D03*
Y837958D03*
Y834021D03*
Y830084D03*
Y826147D03*
Y822210D03*
Y818273D03*
Y814336D03*
Y810399D03*
Y806462D03*
Y802525D03*
Y798588D03*
Y794651D03*
X219946Y853706D03*
Y849769D03*
Y845832D03*
Y841895D03*
Y837958D03*
Y834021D03*
Y830084D03*
Y826147D03*
Y822210D03*
Y818273D03*
Y814336D03*
Y810399D03*
Y806462D03*
Y802525D03*
Y798588D03*
Y794651D03*
G54D58*
X1080378Y999803D02*
Y999016D01*
X1072378Y999803D02*
Y999016D01*
X1076378Y992323D02*
Y991535D01*
X1283760Y508465D02*
X1289469D01*
X1283760Y489961D02*
X1289469D01*
X1284941Y617126D02*
X1290650D01*
X1284941Y598622D02*
X1290650D01*
X270612Y235895D02*
X264903D01*
X270612Y254399D02*
X264903D01*
X131087Y399594D02*
Y393886D01*
X112583Y399594D02*
Y393886D01*
X230909Y391583D02*
X225201D01*
X230909Y410087D02*
X225201D01*
G54D59*
X1087205Y999311D02*
Y999902D01*
X1092323Y999311D02*
Y999902D01*
G54D60*
X414000Y912409D02*
Y903909D01*
X424000Y900909D02*
Y892409D01*
X434000Y912409D02*
Y903909D01*
X444000Y900909D02*
Y892409D01*
X454000Y912409D02*
Y903909D01*
X1214986Y905950D02*
X1206486D01*
X1203486Y895950D02*
X1194986D01*
X1214986Y885950D02*
X1206486D01*
X1203486Y875950D02*
X1194986D01*
X1214986Y865950D02*
X1206486D01*
X966167Y703824D02*
X975667D01*
X946667D02*
X956167D01*
X966167Y713824D02*
X975667D01*
X946667D02*
X956167D01*
X966167Y723824D02*
X975667D01*
X946667D02*
X956167D01*
X966167Y733824D02*
X975667D01*
X946667D02*
X956167D01*
X966167Y743824D02*
X975667D01*
X946667D02*
X956167D01*
X966167Y753824D02*
X975667D01*
X946667D02*
X956167D01*
X966167Y763824D02*
X975667D01*
X946667D02*
X956167D01*
X966167Y773824D02*
X975667D01*
X946667D02*
X956167D01*
X113877Y912761D02*
X123377D01*
X131477D02*
X140977D01*
X113877Y902761D02*
X123377D01*
X131477D02*
X140977D01*
X113877Y892761D02*
X123377D01*
X131477D02*
X140977D01*
X113877Y882761D02*
X123377D01*
X131477D02*
X140977D01*
X113877Y872761D02*
X123377D01*
X131477D02*
X140977D01*
X113877Y862761D02*
X123377D01*
X131477D02*
X140977D01*
X113877Y852761D02*
X123377D01*
X131477D02*
X140977D01*
X113877Y842761D02*
X123377D01*
X131477D02*
X140977D01*
X113877Y832761D02*
X123377D01*
X131477D02*
X140977D01*
X113877Y822761D02*
X123377D01*
X131477D02*
X140977D01*
X113877Y963943D02*
X123377D01*
X131477D02*
X140977D01*
X113877Y953943D02*
X123377D01*
X131477D02*
X140977D01*
X113877Y943943D02*
X123377D01*
X131477D02*
X140977D01*
X113877Y933943D02*
X123377D01*
X131477D02*
X140977D01*
X191724Y1021472D02*
Y1030472D01*
Y1039072D02*
Y1048072D01*
X201724Y1021472D02*
Y1030472D01*
Y1039072D02*
Y1048072D01*
X211724Y1021472D02*
Y1030472D01*
Y1039072D02*
Y1048072D01*
X221724Y1021472D02*
Y1030472D01*
Y1039072D02*
Y1048072D01*
X231724Y1021472D02*
Y1030472D01*
Y1039072D02*
Y1048072D01*
X114127Y800557D02*
X123127D01*
X131727D02*
X140727D01*
X114127Y790557D02*
X123127D01*
X131727D02*
X140727D01*
X114127Y780557D02*
X123127D01*
X131727D02*
X140727D01*
X114127Y770557D02*
X123127D01*
X131727D02*
X140727D01*
X114127Y760557D02*
X123127D01*
X131727D02*
X140727D01*
X402402Y980390D02*
Y995390D01*
Y1007390D02*
Y1022390D01*
X412402Y980390D02*
Y995390D01*
Y1007390D02*
Y1022390D01*
X422402Y980390D02*
Y995390D01*
Y1007390D02*
Y1022390D01*
X432402Y980390D02*
Y995390D01*
Y1007390D02*
Y1022390D01*
X442402Y980390D02*
Y995390D01*
Y1007390D02*
Y1022390D01*
X452402Y980390D02*
Y995390D01*
Y1007390D02*
Y1022390D01*
X462402Y980390D02*
Y995390D01*
Y1007390D02*
Y1022390D01*
X472402Y980390D02*
Y995390D01*
Y1007390D02*
Y1022390D01*
X482402Y980390D02*
Y995390D01*
Y1007390D02*
Y1022390D01*
X492402Y980390D02*
Y995390D01*
Y1007390D02*
Y1022390D01*
X260402Y980390D02*
Y995390D01*
Y1007390D02*
Y1022390D01*
X270402Y980390D02*
Y995390D01*
Y1007390D02*
Y1022390D01*
X280402Y980390D02*
Y995390D01*
Y1007390D02*
Y1022390D01*
X290402Y980390D02*
Y995390D01*
Y1007390D02*
Y1022390D01*
X300402Y980390D02*
Y995390D01*
Y1007390D02*
Y1022390D01*
X310402Y980390D02*
Y995390D01*
Y1007390D02*
Y1022390D01*
X320402Y980390D02*
Y995390D01*
Y1007390D02*
Y1022390D01*
X330402Y980390D02*
Y995390D01*
Y1007390D02*
Y1022390D01*
X340402Y980390D02*
Y995390D01*
Y1007390D02*
Y1022390D01*
X350402Y980390D02*
Y995390D01*
Y1007390D02*
Y1022390D01*
X113877Y1046620D02*
X123377D01*
X131477D02*
X140977D01*
X113877Y1036620D02*
X123377D01*
X131477D02*
X140977D01*
X113877Y1026620D02*
X123377D01*
X131477D02*
X140977D01*
X113877Y1016620D02*
X123377D01*
X131477D02*
X140977D01*
X113877Y1006620D02*
X123377D01*
X131477D02*
X140977D01*
X113877Y996620D02*
X123377D01*
X131477D02*
X140977D01*
X113877Y986620D02*
X123377D01*
X131477D02*
X140977D01*
X1068479Y213548D02*
X1068439D01*
X1068479Y223548D02*
X1068439D01*
X1046825Y213548D02*
X1046786D01*
X1046825Y223548D02*
X1046786D01*
G54D61*
X997704Y716757D02*
X1001004D01*
X1025504D02*
X1028804D01*
X997704Y719257D02*
X1001004D01*
X1025504D02*
X1028804D01*
X997704Y721757D02*
X1001004D01*
X1025504D02*
X1028804D01*
X997704Y724257D02*
X1001004D01*
X1025504D02*
X1028804D01*
X997704Y726757D02*
X1001004D01*
X1025504D02*
X1028804D01*
X997704Y729257D02*
X1001004D01*
X1025504D02*
X1028804D01*
X997704Y731757D02*
X1001004D01*
X1025504D02*
X1028804D01*
X997704Y734257D02*
X1001004D01*
X1025504D02*
X1028804D01*
X997704Y736757D02*
X1001004D01*
X1025504D02*
X1028804D01*
X997704Y739257D02*
X1001004D01*
X1025504D02*
X1028804D01*
X997704Y741757D02*
X1001004D01*
X1025504D02*
X1028804D01*
X997704Y744257D02*
X1001004D01*
X1025504D02*
X1028804D01*
X997704Y746757D02*
X1001004D01*
X1025504D02*
X1028804D01*
X997704Y749257D02*
X1001004D01*
X1025504D02*
X1028804D01*
X997704Y751757D02*
X1001004D01*
X1025504D02*
X1028804D01*
X997704Y754257D02*
X1001004D01*
X1025504D02*
X1028804D01*
X997704Y756757D02*
X1001004D01*
X1025504D02*
X1028804D01*
X997704Y759257D02*
X1001004D01*
X1025504D02*
X1028804D01*
X997704Y761757D02*
X1001004D01*
X1025504D02*
X1028804D01*
G54D62*
X1106757Y311383D02*
Y311777D01*
X1123687Y311383D02*
Y311777D01*
X1064631Y354297D02*
Y354691D01*
X1081561Y354297D02*
Y354691D01*
G54D63*
X331914Y961465D02*
Y956543D01*
X330339Y961465D02*
Y956543D01*
X328765Y961465D02*
Y956543D01*
X327190Y961465D02*
Y956543D01*
X325615Y961465D02*
Y956543D01*
X324040Y961465D02*
Y956543D01*
X322465Y961465D02*
Y956543D01*
X320891Y961465D02*
Y956543D01*
Y938236D02*
Y933315D01*
X322465Y938236D02*
Y933315D01*
X324040Y938236D02*
Y933315D01*
X325615Y938236D02*
Y933315D01*
X327190Y938236D02*
Y933315D01*
X328765Y938236D02*
Y933315D01*
X330339Y938236D02*
Y933315D01*
X331914Y938236D02*
Y933315D01*
X291914Y961465D02*
Y956543D01*
X290339Y961465D02*
Y956543D01*
X288765Y961465D02*
Y956543D01*
X287190Y961465D02*
Y956543D01*
X285615Y961465D02*
Y956543D01*
X284040Y961465D02*
Y956543D01*
X282465Y961465D02*
Y956543D01*
X280891Y961465D02*
Y956543D01*
Y938236D02*
Y933315D01*
X282465Y938236D02*
Y933315D01*
X284040Y938236D02*
Y933315D01*
X285615Y938236D02*
Y933315D01*
X287190Y938236D02*
Y933315D01*
X288765Y938236D02*
Y933315D01*
X290339Y938236D02*
Y933315D01*
X291914Y938236D02*
Y933315D01*
X498531Y911513D02*
Y916434D01*
X500106Y911513D02*
Y916434D01*
X501680Y911513D02*
Y916434D01*
X503255Y911513D02*
Y916434D01*
X504830Y911513D02*
Y916434D01*
X506405Y911513D02*
Y916434D01*
X507980Y911513D02*
Y916434D01*
X509554Y911513D02*
Y916434D01*
Y934741D02*
Y939662D01*
X507980Y934741D02*
Y939662D01*
X506405Y934741D02*
Y939662D01*
X504830Y934741D02*
Y939662D01*
X503255Y934741D02*
Y939662D01*
X501680Y934741D02*
Y939662D01*
X500106Y934741D02*
Y939662D01*
X498531Y934741D02*
Y939662D01*
X433914Y961465D02*
Y956543D01*
X432339Y961465D02*
Y956543D01*
X430765Y961465D02*
Y956543D01*
X429190Y961465D02*
Y956543D01*
X427615Y961465D02*
Y956543D01*
X426040Y961465D02*
Y956543D01*
X424465Y961465D02*
Y956543D01*
X422891Y961465D02*
Y956543D01*
Y938236D02*
Y933315D01*
X424465Y938236D02*
Y933315D01*
X426040Y938236D02*
Y933315D01*
X427615Y938236D02*
Y933315D01*
X429190Y938236D02*
Y933315D01*
X430765Y938236D02*
Y933315D01*
X432339Y938236D02*
Y933315D01*
X433914Y938236D02*
Y933315D01*
X475914Y961465D02*
Y956543D01*
X474339Y961465D02*
Y956543D01*
X472765Y961465D02*
Y956543D01*
X471190Y961465D02*
Y956543D01*
X469615Y961465D02*
Y956543D01*
X468040Y961465D02*
Y956543D01*
X466465Y961465D02*
Y956543D01*
X464891Y961465D02*
Y956543D01*
Y938236D02*
Y933315D01*
X466465Y938236D02*
Y933315D01*
X468040Y938236D02*
Y933315D01*
X469615Y938236D02*
Y933315D01*
X471190Y938236D02*
Y933315D01*
X472765Y938236D02*
Y933315D01*
X474339Y938236D02*
Y933315D01*
X475914Y938236D02*
Y933315D01*
G54D64*
X217017Y282877D02*
Y281302D01*
X206387Y282877D02*
Y281302D01*
X315813Y112368D02*
Y110793D01*
X305183Y112368D02*
Y110793D01*
X153717Y282677D02*
Y281102D01*
X143087Y282677D02*
Y281102D01*
X192780Y462471D02*
Y460896D01*
X182150Y462471D02*
Y460896D01*
X315813Y135990D02*
Y134415D01*
X305183Y135990D02*
Y134415D01*
X315813Y124179D02*
Y122604D01*
X305183Y124179D02*
Y122604D01*
X1224113Y206269D02*
Y208631D01*
G54D65*
X218362Y230772D02*
Y231953D01*
X225843Y230772D02*
Y231953D01*
X222102Y239827D02*
Y241008D01*
X218362Y262772D02*
Y263953D01*
X225843Y262772D02*
Y263953D01*
X222102Y271827D02*
Y273008D01*
X113843Y589008D02*
Y587827D01*
X106362Y589008D02*
Y587827D01*
X110102Y579953D02*
Y578772D01*
X218362Y246772D02*
Y247953D01*
X225843Y246772D02*
Y247953D01*
X222102Y255827D02*
Y257008D01*
X1249606Y189567D02*
X1250787D01*
X1249606Y182087D02*
X1250787D01*
X1258661Y185827D02*
X1259843D01*
G54D66*
X954631Y308720D02*
Y303220D01*
X944631Y308720D02*
Y303220D01*
X934631Y308720D02*
Y303220D01*
X924631Y308720D02*
Y303220D01*
Y283720D02*
Y278220D01*
X934631Y283720D02*
Y278220D01*
X944631Y283720D02*
Y278220D01*
X954631Y283720D02*
Y278220D01*
X1000301Y308720D02*
Y303220D01*
X990301Y308720D02*
Y303220D01*
X980301Y308720D02*
Y303220D01*
X970301Y308720D02*
Y303220D01*
Y283720D02*
Y278220D01*
X980301Y283720D02*
Y278220D01*
X990301Y283720D02*
Y278220D01*
X1000301Y283720D02*
Y278220D01*
X1053450Y308720D02*
Y303220D01*
X1043450Y308720D02*
Y303220D01*
X1033450Y308720D02*
Y303220D01*
X1023450Y308720D02*
Y303220D01*
Y283720D02*
Y278220D01*
X1033450Y283720D02*
Y278220D01*
X1043450Y283720D02*
Y278220D01*
X1053450Y283720D02*
Y278220D01*
G54D67*
X206102Y154559D02*
Y147079D01*
Y120701D02*
Y113220D01*
X124102Y154559D02*
Y147079D01*
Y120701D02*
Y113220D01*
X206772Y251890D02*
X199291D01*
X172913D02*
X165433D01*
X152465Y476953D02*
Y469472D01*
Y443094D02*
Y435614D01*
X150772Y251890D02*
X143291D01*
X116913D02*
X109433D01*
G54D68*
X1251181Y170669D02*
X1253543D01*
X1251181Y163189D02*
X1253543D01*
X1259055Y166929D02*
X1261417D01*
X1257874Y251378D02*
X1260236D01*
X1257874Y243898D02*
X1260236D01*
X1265748Y247638D02*
X1268110D01*
G54D69*
X1248256Y636931D02*
X1246878D01*
X1248256Y644017D02*
X1246878D01*
X263647Y471128D02*
Y472506D01*
X270734Y471128D02*
Y472506D01*
X913549Y472210D02*
X912171D01*
X913549Y479297D02*
X912171D01*
X920045Y788352D02*
X921423D01*
X920045Y781265D02*
X921423D01*
X998194Y141502D02*
X996817D01*
X998194Y148588D02*
X996817D01*
X966643Y175698D02*
Y177076D01*
X973730Y175698D02*
Y177076D01*
X710498Y195537D02*
Y196915D01*
X717584Y195537D02*
Y196915D01*
X710891Y183332D02*
Y184710D01*
X717978Y183332D02*
Y184710D01*
X610399Y434809D02*
X609021D01*
X610399Y441895D02*
X609021D01*
X698982Y741895D02*
X697604D01*
X698982Y748982D02*
X697604D01*
X563155Y434809D02*
X561777D01*
X563155Y441895D02*
X561777D01*
X771521Y484907D02*
Y486285D01*
X778608Y484907D02*
Y486285D01*
X436876Y608923D02*
Y610301D01*
X443962Y608923D02*
Y610301D01*
X436876Y632545D02*
Y633923D01*
X443962Y632545D02*
Y633923D01*
X436876Y585301D02*
Y586679D01*
X443962Y585301D02*
Y586679D01*
X574966Y741895D02*
X573588D01*
X574966Y748982D02*
X573588D01*
X436876Y508529D02*
Y509907D01*
X443962Y508529D02*
Y509907D01*
X436876Y457348D02*
Y458726D01*
X443962Y457348D02*
Y458726D01*
X760006Y741895D02*
X758628D01*
X760006Y748982D02*
X758628D01*
X752131Y434809D02*
X750754D01*
X752131Y441895D02*
X750754D01*
X783628Y434809D02*
X782250D01*
X783628Y441895D02*
X782250D01*
X538155D02*
X539533D01*
X538155Y434809D02*
X539533D01*
X585399Y441895D02*
X586777D01*
X585399Y434809D02*
X586777D01*
X771521Y500655D02*
Y502033D01*
X778608Y500655D02*
Y502033D01*
X436876Y561679D02*
Y563057D01*
X443962Y561679D02*
Y563057D01*
X436876Y484907D02*
Y486285D01*
X443962Y484907D02*
Y486285D01*
X553313Y741895D02*
X551935D01*
X553313Y748982D02*
X551935D01*
X785596Y741895D02*
X784218D01*
X785596Y748982D02*
X784218D01*
X675360Y741895D02*
X673982D01*
X675360Y748982D02*
X673982D01*
X436876Y433726D02*
Y435104D01*
X443962Y433726D02*
Y435104D01*
X720635Y434809D02*
X719257D01*
X720635Y441895D02*
X719257D01*
X632643D02*
X634021D01*
X632643Y434809D02*
X634021D01*
X656265Y441895D02*
X657643D01*
X656265Y434809D02*
X657643D01*
X647506Y152230D02*
Y153608D01*
X654592Y152230D02*
Y153608D01*
X628608Y172702D02*
Y174080D01*
X635694Y172702D02*
Y174080D01*
X377033Y164828D02*
Y166206D01*
X384120Y164828D02*
Y166206D01*
X377033Y178608D02*
Y179986D01*
X384120Y178608D02*
Y179986D01*
X689139Y434809D02*
X687761D01*
X689139Y441895D02*
X687761D01*
X771521Y469159D02*
Y470537D01*
X778608Y469159D02*
Y470537D01*
X728509Y741895D02*
X727131D01*
X728509Y748982D02*
X727131D01*
X590714Y741895D02*
X589336D01*
X590714Y748982D02*
X589336D01*
X436876Y536088D02*
Y537466D01*
X443962Y536088D02*
Y537466D01*
X436876Y410104D02*
Y411482D01*
X443962Y410104D02*
Y411482D01*
G54D70*
X632052Y1051187D02*
Y1050793D01*
X625753Y1051187D02*
Y1050793D01*
X644752Y1051187D02*
Y1050793D01*
X638453Y1051187D02*
Y1050793D01*
X452033Y681659D02*
X452427D01*
X452033Y675360D02*
X452427D01*
X619652Y1051187D02*
Y1050793D01*
X613353Y1051187D02*
Y1050793D01*
X606852Y1051187D02*
Y1050793D01*
X600553Y1051187D02*
Y1050793D01*
X452033Y736777D02*
X452427D01*
X452033Y730478D02*
X452427D01*
X1076351Y899557D02*
Y899164D01*
X1070051Y899557D02*
Y899164D01*
X1090717Y886921D02*
Y886528D01*
X1084417Y886921D02*
Y886528D01*
G54D71*
X1050984Y985925D02*
Y988878D01*
X1063189Y985925D02*
Y988878D01*
G54D72*
X1115255Y126938D02*
Y128513D01*
X1230609Y126938D02*
Y128513D01*
G54D73*
X116333Y417726D02*
Y418907D01*
Y446466D02*
Y447647D01*
G54D74*
X174341Y598307D02*
Y600472D01*
X191664Y598307D02*
Y600472D01*
X268585Y193828D02*
X266420D01*
X268585Y211151D02*
X266420D01*
X0Y0D02*
M02*
